<?xml version="1.0" encoding="utf-8"?>
<!-- Generator: Adobe Illustrator 22.1.0, SVG Export Plug-In . SVG Version: 6.00 Build 0)  -->
<svg version="1.1" id="Layer_1" xmlns="http://www.w3.org/2000/svg" xmlns:xlink="http://www.w3.org/1999/xlink" x="0px" y="0px"
	 viewBox="0 0 120.9 85" style="enable-background:new 0 0 120.9 85;" xml:space="preserve">
<style type="text/css">
	.st0{fill:none;stroke:#333333;stroke-width:2;stroke-miterlimit:10;}
	.st1{fill:#333333;}
	.st2{fill:#FFFFFF;stroke:#333333;stroke-width:2;stroke-miterlimit:10;}
</style>
<polyline class="st0" points="111.5,28.5 111.5,84 11.2,84 11.2,29.1 "/>
<path class="st0" d="M43.7,84H21.3c-0.6,0-1-0.5-1-1V39.9c0-1.1,1-2.1,2.1-2.1h21.2c0.6,0,1,0.5,1,1v44.4C44.7,83.6,44.3,84,43.7,84
	z"/>
<path class="st0" d="M103.5,72.3H52.9c-1,0-1.8-0.8-1.8-1.7V39.4c0-1,0.8-1.7,1.8-1.7h50.6c1,0,1.8,0.8,1.8,1.7v31.1
	C105.3,71.4,104.5,72.3,103.5,72.3z"/>
<g>
	<path class="st1" d="M61.4,66.2l2.9-0.5l3.3,0.6l0,0l-0.1,0.6l-1.8,1L61.3,67l-0.4,0.3l-0.2-1C60.7,66.3,61.4,66.3,61.4,66.2z"/>
	<path class="st1" d="M60.7,66.3c0,0,0,2,0.8,3.9"/>
	<path class="st1" d="M67.6,66.3c0,0-0.2,2.8-0.8,3.9"/>
	<path class="st1" d="M66.9,66.6c0,0,0.8,0,0.6-0.1c0,0,0.1,0,0,0.5s-0.4,3.5-1.3,4.5c0,0-0.1,0.2-0.6,0.4"/>
	<path class="st1" d="M66.2,66.7c0,0,0.8,0,0.8-0.1c0,0,0,0-0.1-0.1c0,0,0.1,0,0.1,0.4c0,0.4-0.6,4.1-1.2,4.8c0,0-0.2,0.2-0.5,0.2"
		/>
	<path class="st1" d="M65.2,66.8c0,0,0.6,0.3,1-0.1c0,0-0.5,4.7-0.9,5c0,0-0.2,0.4-0.6,0.1"/>
	<path class="st1" d="M64.2,66.8c0,0,0.4,0.3,1.1,0c0,0-0.2,4.8-0.5,5.2c0,0-0.3,0.4-0.6,0V66.8z"/>
	<path class="st1" d="M61.5,66.6c0,0-0.8,0-0.6-0.1c0,0-0.1,0,0,0.5c0.1,0.5,0.4,3.5,1.3,4.5c0,0,0.1,0.2,0.6,0.4"/>
	<path class="st1" d="M62.2,66.7c0,0-0.8,0-0.8-0.1c0,0,0,0,0.1-0.1c0,0-0.1,0-0.1,0.4c0,0.4,0.6,4.1,1.2,4.8c0,0,0.2,0.2,0.5,0.2"
		/>
	<path class="st1" d="M63.1,66.8c0,0-0.7,0.3-1-0.1c0,0,0.5,4.7,0.9,5c0,0,0.2,0.4,0.6,0.1"/>
	<path class="st1" d="M64.2,66.8c0,0-0.4,0.3-1.1,0c0,0,0.2,4.8,0.5,5.2c0,0,0.3,0.4,0.6,0V66.8z"/>
	<path class="st1" d="M60.9,66.6c-0.1-0.1,0.2-0.1,0.2-0.1c-0.9-0.2,0-0.2,0-0.2c-0.4-0.3,0.3-0.2,0.3-0.2C61,65.8,62,65.9,62,65.9
		c-0.1-0.4,0.7-0.2,0.7-0.2c0.2-0.3,0.7,0,0.7,0c0.5-0.4,0.9-0.1,0.9-0.1l0.1,0.1c0,0,0.5-0.3,0.9,0c0,0,0.5-0.3,0.6,0
		c0,0,0.7-0.2,0.6,0.1c0,0,0.9-0.1,0.6,0.1c0,0,0.7-0.1,0.3,0.2c0,0,0.9,0,0,0.2c0,0,0.2,0,0.2,0.1"/>
	<path class="st1" d="M75.4,66.4l2.9-0.5l3.3,0.6l0,0L81.5,67l-1.8,1l-4.4-0.8l-0.4,0.3l-0.2-1C74.6,66.6,75.4,66.6,75.4,66.4z"/>
	<path class="st1" d="M74.6,66.6c0,0,0,2,0.8,3.9"/>
	<path class="st1" d="M81.6,66.6c0,0-0.2,2.8-0.8,3.9"/>
	<path class="st1" d="M80.8,66.8c0,0,0.8,0,0.6-0.1c0,0,0.1,0,0,0.5s-0.4,3.5-1.3,4.5c0,0-0.1,0.2-0.6,0.4"/>
	<path class="st1" d="M80.2,67c0,0,0.8,0,0.8-0.1c0,0,0,0-0.1-0.1c0,0,0.1,0,0.1,0.4c0,0.4-0.6,4.1-1.2,4.8c0,0-0.2,0.2-0.5,0.2"/>
	<path class="st1" d="M79.2,67.1c0,0,0.6,0.3,1-0.1c0,0-0.5,4.7-0.9,5c0,0-0.2,0.4-0.6,0.1"/>
	<path class="st1" d="M78.1,67.1c0,0,0.4,0.3,1.1,0c0,0-0.2,4.8-0.5,5.2c0,0-0.3,0.4-0.6,0C78.1,72.3,78.1,67.1,78.1,67.1z"/>
	<path class="st1" d="M75.4,66.9c0,0-0.8,0-0.6-0.1c0,0-0.1,0,0,0.5c0.1,0.5,0.4,3.5,1.3,4.5c0,0,0.1,0.2,0.6,0.4"/>
	<path class="st1" d="M76.1,67c0,0-0.8,0-0.8-0.1c0,0,0,0,0.1-0.1c0,0-0.1,0-0.1,0.4c0,0.4,0.6,4.1,1.2,4.8c0,0,0.2,0.2,0.5,0.2"/>
	<path class="st1" d="M77.1,67.1c0,0-0.7,0.3-1-0.1c0,0,0.5,4.7,0.9,5c0,0,0.2,0.4,0.6,0.1"/>
	<path class="st1" d="M78.1,67.1c0,0-0.4,0.3-1.1,0c0,0,0.2,4.8,0.5,5.2c0,0,0.3,0.4,0.6,0V67.1z"/>
	<path class="st1" d="M74.8,66.8c-0.1-0.1,0.2-0.1,0.2-0.1c-0.9-0.2,0-0.2,0-0.2c-0.4-0.3,0.3-0.2,0.3-0.2c-0.4-0.3,0.6-0.2,0.6-0.2
		c-0.1-0.4,0.7-0.2,0.7-0.2c0.2-0.3,0.7,0,0.7,0c0.5-0.4,0.9-0.1,0.9-0.1l0.1,0.1c0,0,0.5-0.3,0.9,0c0,0,0.5-0.3,0.6,0
		c0,0,0.7-0.2,0.6,0.1c0,0,0.9-0.1,0.6,0.1c0,0,0.7-0.1,0.3,0.2c0,0,0.9,0,0,0.2c0,0,0.2,0,0.2,0.1"/>
	<path class="st1" d="M89.3,66.2l2.9-0.5l3.3,0.6l0,0l-0.1,0.6l-1.8,1L89.2,67l-0.4,0.3l-0.2-1C88.6,66.4,89.3,66.3,89.3,66.2z"/>
	<path class="st1" d="M88.6,66.4c0,0,0,2,0.8,3.9"/>
	<path class="st1" d="M95.5,66.3c0,0-0.2,2.8-0.8,3.9"/>
	<path class="st1" d="M94.8,66.6c0,0,0.8,0,0.6-0.1c0,0,0.1,0,0,0.5s-0.4,3.5-1.3,4.5c0,0-0.1,0.2-0.6,0.4"/>
	<path class="st1" d="M94.1,66.8c0,0,0.8,0,0.8-0.1c0,0,0,0-0.1-0.1c0,0,0.1,0,0.1,0.4s-0.6,4.1-1.2,4.8c0,0-0.2,0.2-0.5,0.2"/>
	<path class="st1" d="M93.1,66.8c0,0,0.6,0.3,1-0.1c0,0-0.5,4.7-0.9,5c0,0-0.2,0.4-0.6,0.1"/>
	<path class="st1" d="M92.1,66.8c0,0,0.4,0.3,1.1,0c0,0-0.2,4.8-0.5,5.2c0,0-0.3,0.4-0.6,0C92,72.1,92.1,66.8,92.1,66.8z"/>
	<path class="st1" d="M89.3,66.6c0,0-0.8,0-0.6-0.1c0,0-0.1,0,0,0.5s0.4,3.5,1.3,4.5c0,0,0.1,0.2,0.6,0.4"/>
	<path class="st1" d="M90.1,66.8c0,0-0.8,0-0.8-0.1c0,0,0,0,0.1-0.1c0,0-0.1,0-0.1,0.4s0.6,4.1,1.2,4.8c0,0,0.2,0.2,0.5,0.2"/>
	<path class="st1" d="M91.1,66.8c0,0-0.7,0.3-1-0.1c0,0,0.5,4.7,0.9,5c0,0,0.2,0.4,0.6,0.1"/>
	<path class="st1" d="M92.1,66.8c0,0-0.4,0.3-1.1,0c0,0,0.2,4.8,0.5,5.2c0,0,0.3,0.4,0.6,0V66.8z"/>
	<path class="st1" d="M88.7,66.6c-0.1-0.1,0.2-0.1,0.2-0.1c-0.9-0.2,0-0.2,0-0.2c-0.4-0.3,0.3-0.2,0.3-0.2c-0.4-0.3,0.6-0.2,0.6-0.2
		c-0.1-0.4,0.7-0.2,0.7-0.2c0.2-0.3,0.7,0,0.7,0c0.5-0.4,0.9-0.1,0.9-0.1l0.1,0.1c0,0,0.5-0.3,0.9,0c0,0,0.5-0.3,0.6,0
		c0,0,0.7-0.2,0.6,0.1c0,0,0.9-0.1,0.6,0.1c0,0,0.7-0.1,0.3,0.2c0,0,0.9,0,0,0.2c0,0,0.2,0,0.2,0.1"/>
</g>
<line class="st0" x1="51.1" y1="56.9" x2="105.3" y2="56.9"/>
<g>
	<path class="st1" d="M61.4,50.8l2.9-0.5l3.3,0.6l0,0l-0.1,0.6l-1.8,1l-4.4-0.8l-0.4,0.3l-0.2-1C60.7,51,61.4,50.9,61.4,50.8z"/>
	<path class="st1" d="M60.7,51c0,0,0,2,0.8,3.9"/>
	<path class="st1" d="M67.6,50.9c0,0-0.2,2.8-0.8,3.9"/>
	<path class="st1" d="M66.9,51.3c0,0,0.8,0,0.6-0.1c0,0,0.1,0,0,0.5s-0.4,3.5-1.3,4.5c0,0-0.1,0.2-0.6,0.4"/>
	<path class="st1" d="M66.2,51.4c0,0,0.8,0,0.8-0.1c0,0,0,0-0.1-0.1c0,0,0.1,0,0.1,0.4c0,0.4-0.6,4.1-1.2,4.8c0,0-0.2,0.2-0.5,0.2"
		/>
	<path class="st1" d="M65.2,51.4c0,0,0.6,0.3,1-0.1c0,0-0.5,4.7-0.9,5c0,0-0.2,0.4-0.6,0.1"/>
	<path class="st1" d="M64.2,51.4c0,0,0.4,0.3,1.1,0c0,0-0.2,4.8-0.5,5.2c0,0-0.3,0.4-0.6,0V51.4z"/>
	<path class="st1" d="M61.5,51.3c0,0-0.8,0-0.6-0.1c0,0-0.1,0,0,0.5c0.1,0.5,0.4,3.5,1.3,4.5c0,0,0.1,0.2,0.6,0.4"/>
	<path class="st1" d="M62.2,51.4c0,0-0.8,0-0.8-0.1c0,0,0,0,0.1-0.1c0,0-0.1,0-0.1,0.4c0,0.4,0.6,4.1,1.2,4.8c0,0,0.2,0.2,0.5,0.2"
		/>
	<path class="st1" d="M63.1,51.4c0,0-0.7,0.3-1-0.1c0,0,0.5,4.7,0.9,5c0,0,0.2,0.4,0.6,0.1"/>
	<path class="st1" d="M64.2,51.4c0,0-0.4,0.3-1.1,0c0,0,0.2,4.8,0.5,5.2c0,0,0.3,0.4,0.6,0V51.4z"/>
	<path class="st1" d="M60.9,51.2c-0.1-0.1,0.2-0.1,0.2-0.1c-0.9-0.2,0-0.2,0-0.2c-0.4-0.3,0.3-0.2,0.3-0.2C61,50.4,62,50.5,62,50.5
		c-0.1-0.4,0.7-0.2,0.7-0.2c0.2-0.3,0.7,0,0.7,0c0.5-0.4,0.9-0.1,0.9-0.1l0.1,0.1c0,0,0.5-0.3,0.9,0c0,0,0.5-0.3,0.6,0
		c0,0,0.7-0.2,0.6,0.1c0,0,0.9-0.1,0.6,0.1c0,0,0.7-0.1,0.3,0.2c0,0,0.9,0,0,0.2c0,0,0.2,0,0.2,0.1"/>
	<path class="st1" d="M75.4,51.1l2.9-0.5l3.3,0.6l0,0l-0.1,0.6l-1.8,1l-4.4-0.8l-0.4,0.3l-0.2-1C74.6,51.3,75.4,51.2,75.4,51.1z"/>
	<path class="st1" d="M74.6,51.3c0,0,0,2,0.8,3.9"/>
	<path class="st1" d="M81.6,51.2c0,0-0.2,2.8-0.8,3.9"/>
	<path class="st1" d="M80.8,51.5c0,0,0.8,0,0.6-0.1c0,0,0.1,0,0,0.5c-0.1,0.5-0.4,3.5-1.3,4.5c0,0-0.1,0.2-0.6,0.4"/>
	<path class="st1" d="M80.2,51.6c0,0,0.8,0,0.8-0.1c0,0,0,0-0.1-0.1c0,0,0.1,0,0.1,0.4s-0.6,4.1-1.2,4.8c0,0-0.2,0.2-0.5,0.2"/>
	<path class="st1" d="M79.2,51.7c0,0,0.6,0.3,1-0.1c0,0-0.5,4.7-0.9,5c0,0-0.2,0.4-0.6,0.1"/>
	<path class="st1" d="M78.1,51.7c0,0,0.4,0.3,1.1,0c0,0-0.2,4.8-0.5,5.2c0,0-0.3,0.4-0.6,0V51.7z"/>
	<path class="st1" d="M75.4,51.5c0,0-0.8,0-0.6-0.1c0,0-0.1,0,0,0.5c0.1,0.5,0.4,3.5,1.3,4.5c0,0,0.1,0.2,0.6,0.4"/>
	<path class="st1" d="M76.1,51.7c0,0-0.8,0-0.8-0.1c0,0,0,0,0.1-0.1c0,0-0.1,0-0.1,0.4c0,0.4,0.6,4.1,1.2,4.8c0,0,0.2,0.2,0.5,0.2"
		/>
	<path class="st1" d="M77.1,51.7c0,0-0.7,0.3-1-0.1c0,0,0.5,4.7,0.9,5c0,0,0.2,0.4,0.6,0.1"/>
	<path class="st1" d="M78.1,51.7c0,0-0.4,0.3-1.1,0c0,0,0.2,4.8,0.5,5.2c0,0,0.3,0.4,0.6,0V51.7z"/>
	<path class="st1" d="M74.8,51.4c-0.1-0.1,0.2-0.1,0.2-0.1c-0.9-0.2,0-0.2,0-0.2c-0.4-0.3,0.3-0.2,0.3-0.2c-0.4-0.3,0.6-0.2,0.6-0.2
		c-0.1-0.4,0.7-0.2,0.7-0.2c0.2-0.3,0.7,0,0.7,0c0.5-0.4,0.9-0.1,0.9-0.1l0.1,0.1c0,0,0.5-0.3,0.9,0c0,0,0.5-0.3,0.6,0
		c0,0,0.7-0.2,0.6,0.1c0,0,0.9-0.1,0.6,0.1c0,0,0.7-0.1,0.3,0.2c0,0,0.9,0,0,0.2c0,0,0.2,0,0.2,0.1"/>
	<path class="st1" d="M89.3,50.8l2.9-0.5l3.3,0.6l0,0l-0.1,0.6l-1.8,1l-4.4-0.8l-0.4,0.3l-0.2-1C88.6,51,89.3,51,89.3,50.8z"/>
	<path class="st1" d="M88.6,51c0,0,0,2,0.8,3.9"/>
	<path class="st1" d="M95.5,50.9c0,0-0.2,2.8-0.8,3.9"/>
	<path class="st1" d="M94.8,51.3c0,0,0.8,0,0.6-0.1c0,0,0.1,0,0,0.5s-0.4,3.5-1.3,4.5c0,0-0.1,0.2-0.6,0.4"/>
	<path class="st1" d="M94.1,51.4c0,0,0.8,0,0.8-0.1c0,0,0,0-0.1-0.1c0,0,0.1,0,0.1,0.4c0,0.4-0.6,4.1-1.2,4.8c0,0-0.2,0.2-0.5,0.2"
		/>
	<path class="st1" d="M93.1,51.5c0,0,0.6,0.3,1-0.1c0,0-0.5,4.7-0.9,5c0,0-0.2,0.4-0.6,0.1"/>
	<path class="st1" d="M92.1,51.4c0,0,0.4,0.3,1.1,0c0,0-0.2,4.8-0.5,5.2c0,0-0.3,0.4-0.6,0C92,56.7,92.1,51.4,92.1,51.4z"/>
	<path class="st1" d="M89.3,51.3c0,0-0.8,0-0.6-0.1c0,0-0.1,0,0,0.5s0.4,3.5,1.3,4.5c0,0,0.1,0.2,0.6,0.4"/>
	<path class="st1" d="M90.1,51.4c0,0-0.8,0-0.8-0.1c0,0,0,0,0.1-0.1c0,0-0.1,0-0.1,0.4c0,0.4,0.6,4.1,1.2,4.8c0,0,0.2,0.2,0.5,0.2"
		/>
	<path class="st1" d="M91.1,51.5c0,0-0.7,0.3-1-0.1c0,0,0.5,4.7,0.9,5c0,0,0.2,0.4,0.6,0.1"/>
	<path class="st1" d="M92.1,51.5c0,0-0.4,0.3-1.1,0c0,0,0.2,4.8,0.5,5.2c0,0,0.3,0.4,0.6,0V51.5z"/>
	<path class="st1" d="M88.7,51.2c-0.1-0.1,0.2-0.1,0.2-0.1c-0.9-0.2,0-0.2,0-0.2c-0.4-0.3,0.3-0.2,0.3-0.2c-0.4-0.3,0.6-0.2,0.6-0.2
		c-0.1-0.4,0.7-0.2,0.7-0.2c0.2-0.3,0.7,0,0.7,0c0.5-0.4,0.9-0.1,0.9-0.1l0.1,0.1c0,0,0.5-0.3,0.9,0c0,0,0.5-0.3,0.6,0
		c0,0,0.7-0.2,0.6,0.1c0,0,0.9-0.1,0.6,0.1c0,0,0.7-0.1,0.3,0.2c0,0,0.9,0,0,0.2c0,0,0.2,0,0.2,0.1"/>
</g>
<ellipse class="st2" cx="23.5" cy="61.8" rx="1" ry="1"/>
<line class="st0" x1="52.4" y1="72" x2="103.6" y2="72"/>
<path class="st0" d="M19.7,1H25L9.2,22.4V27c0,0-0.4,3.6-4.1,3.6c0,0-3.4,0-4.1-2.9c0-2.3,0-5.2,0-5.2L19.7,1z"/>
<path class="st0" d="M31.1,1h-5.3L9.9,22.8V27c0,0,0,3.3,3.4,3.3c0,0,2.7,0.7,4.4-2.7c0-0.7,0.4-5.6,0.4-5.6L31.1,1z"/>
<path class="st0" d="M31.8,1h5.1L26.1,22.4v4.9c0,0-0.7,2.9-3.7,2.9c0,0-3.4,0.4-3.7-2.3c0-1,0-5.6,0-5.6L31.8,1z"/>
<path class="st0" d="M37.5,1h5.1l-8.1,21.4v4.9c0,0-0.7,2.9-4.1,2.9c0,0-2.7,0-3.4-2.3v-5.6L37.5,1z"/>
<path class="st0" d="M43.2,1h5.3l-5.7,21.4V27c0,0-0.4,2.9-3.4,3.3c0,0-3.7,0-4.1-2.7v-5.2L43.2,1z"/>
<path class="st0" d="M49.3,1h5.1l-3,21.1v5.2c0,0-0.7,3.3-3.7,2.9c0,0-3.7,0.4-3.7-3.3s0-4.6,0-4.6L49.3,1z"/>
<path class="st0" d="M55.1,1h5.1v22v4.3c0,0-1,2.9-4.1,2.9c0,0-3,0-3.7-2.7v-5L55.1,1z"/>
<path class="st0" d="M101.2,1h-5.3l15.9,21.4V27c0,0,0.4,3.6,4.1,3.6c0,0,3.4,0,4.1-2.9c0-2.3,0-5.2,0-5.2L101.2,1z"/>
<path class="st0" d="M89.7,1H95l15.9,21.8V27c0,0,0,3.3-3.4,3.3c0,0-2.7,0.7-4.4-2.7c0-0.7-0.4-5.6-0.4-5.6L89.7,1z"/>
<path class="st0" d="M89,1H84l10.8,21.4v4.9c0,0,0.7,2.9,3.7,2.9c0,0,3.4,0.4,3.7-2.3c0-1,0-5.6,0-5.6L89,1z"/>
<path class="st0" d="M83.4,1h-5.1l8.1,21.4v4.9c0,0,0.7,2.9,4.1,2.9c0,0,2.7,0,3.4-2.3v-5.6L83.4,1z"/>
<path class="st0" d="M77.6,1h-5.4l5.7,21.4V27c0,0,0.4,2.9,3.4,3.3c0,0,3.7,0,4.1-2.7v-5.2L77.6,1z"/>
<path class="st0" d="M71.5,1h-5.1l3,21.1v5.2c0,0,0.7,3.3,3.7,2.9c0,0,3.7,0.4,3.7-3.3s0-4.6,0-4.6L71.5,1z"/>
<path class="st0" d="M65.8,1h-5.1v22v4.3c0,0,1,2.9,4.1,2.9c0,0,3,0,3.7-2.7v-5L65.8,1z"/>
</svg>
