<?xml version="1.0" encoding="utf-8"?>
<!-- Generator: Adobe Illustrator 22.1.0, SVG Export Plug-In . SVG Version: 6.00 Build 0)  -->
<svg version="1.1" id="Layer_1" xmlns="http://www.w3.org/2000/svg" xmlns:xlink="http://www.w3.org/1999/xlink" x="0px" y="0px"
	 viewBox="0 0 330 190" style="enable-background:new 0 0 330 190;" xml:space="preserve">
<style type="text/css">
	.st0{fill:none;}
	.st1{fill:none;stroke:#353535;stroke-width:3;stroke-linecap:round;stroke-linejoin:round;stroke-miterlimit:10;}
	.st2{fill:none;stroke:#353535;stroke-miterlimit:10;}
	.st3{fill:#353535;}
	.st4{fill:#575790;}
	.st5{fill:#A60000;}
	.st6{fill:#002A73;}
	.st7{fill:#6B532F;}
	.st8{fill:#FC5500;}
	.st9{fill:#FFD8A4;}
	.st10{fill:#95725E;}
	.st11{fill:none;stroke:#000000;stroke-linecap:round;stroke-linejoin:round;stroke-miterlimit:10;}
	.st12{fill:none;stroke:#575790;stroke-width:3;stroke-linecap:round;stroke-linejoin:round;stroke-miterlimit:10;}
	.st13{fill:#FFFFFF;stroke:#333333;stroke-width:2;stroke-miterlimit:10;}
	.st14{fill:#333333;}
	.st15{fill:none;stroke:#333333;stroke-width:2;stroke-miterlimit:10;}
</style>
<rect x="117" y="84.6" class="st13" width="103.1" height="73.4"/>
<path class="st13" d="M150.4,158h-23c-0.6,0-1-0.5-1-1v-45.5c0-1.2,1-2.2,2.2-2.2h21.8c0.6,0,1,0.5,1,1v46.7
	C151.4,157.5,151,158,150.4,158z"/>
<path class="st13" d="M211.9,145.6h-52c-1,0-1.8-0.8-1.8-1.8V111c0-1,0.8-1.8,1.8-1.8h52c1,0,1.8,0.8,1.8,1.8v32.7
	C213.7,144.7,212.9,145.6,211.9,145.6z"/>
<g>
	<path class="st14" d="M168.6,139.2c0,0,3-0.5,3-0.5l3.4,0.6l0,0l-0.1,0.6l-1.9,1l-4.5-0.8l-0.4,0.3l-0.2-1
		C167.9,139.3,168.6,139.3,168.6,139.2z"/>
	<path class="st14" d="M167.9,139.3c0,0,0,2.1,0.8,4.1"/>
	<path class="st14" d="M175,139.3c0,0-0.2,2.9-0.8,4.1"/>
	<path class="st14" d="M174.3,139.6c0,0,0.8,0,0.6-0.1c0,0,0.1,0,0,0.5c-0.1,0.5-0.4,3.7-1.3,4.7c0,0-0.1,0.2-0.6,0.4"/>
	<path class="st14" d="M173.5,139.8c0,0,0.8,0,0.8-0.1c0,0,0,0-0.1-0.1c0,0,0.1,0,0.1,0.4c0,0.4-0.6,4.3-1.2,5c0,0-0.2,0.2-0.5,0.2"
		/>
	<path class="st14" d="M172.5,139.9c0,0,0.6,0.3,1-0.1c0,0-0.5,4.9-0.9,5.3c0,0-0.2,0.4-0.6,0.1"/>
	<path class="st14" d="M171.5,139.9c0,0,0.4,0.3,1.1,0c0,0-0.2,5.1-0.5,5.5c0,0-0.3,0.4-0.6,0C171.5,145.4,171.5,139.9,171.5,139.9z
		"/>
	<path class="st14" d="M168.7,139.7c0,0-0.8,0-0.6-0.1c0,0-0.1,0,0,0.5c0.1,0.5,0.4,3.7,1.3,4.7c0,0,0.1,0.2,0.6,0.4"/>
	<path class="st14" d="M169.4,139.8c0,0-0.8,0-0.8-0.1c0,0,0,0,0.1-0.1c0,0-0.1,0-0.1,0.4c0,0.4,0.6,4.3,1.2,5c0,0,0.2,0.2,0.5,0.2"
		/>
	<path class="st14" d="M170.4,139.9c0,0-0.7,0.3-1-0.1c0,0,0.5,4.9,0.9,5.3c0,0,0.2,0.4,0.6,0.1"/>
	<path class="st14" d="M171.5,139.9c0,0-0.4,0.3-1.1,0c0,0,0.2,5.1,0.5,5.5c0,0,0.3,0.4,0.6,0C171.5,145.4,171.5,139.9,171.5,139.9z
		"/>
	<path class="st14" d="M168.1,139.6c-0.1-0.1,0.2-0.1,0.2-0.1c-0.9-0.2,0-0.2,0-0.2c-0.4-0.3,0.3-0.2,0.3-0.2
		c-0.4-0.3,0.6-0.2,0.6-0.2c-0.1-0.4,0.7-0.2,0.7-0.2c0.2-0.3,0.7,0,0.7,0c0.5-0.4,0.9-0.1,0.9-0.1l0.1,0.1c0,0,0.5-0.3,0.9,0
		c0,0,0.5-0.3,0.6,0c0,0,0.7-0.2,0.6,0.1c0,0,0.9-0.1,0.6,0.1c0,0,0.7-0.1,0.3,0.2c0,0,0.9,0,0,0.2c0,0,0.2,0,0.2,0.1"/>
	<path class="st14" d="M183,139.4c0,0,3-0.5,3-0.5l3.4,0.6l0,0l-0.1,0.6l-1.9,1l-4.5-0.8l-0.4,0.3l-0.2-1
		C182.2,139.6,183,139.6,183,139.4z"/>
	<path class="st14" d="M182.2,139.6c0,0,0,2.1,0.8,4.1"/>
	<path class="st14" d="M189.4,139.6c0,0-0.2,2.9-0.8,4.1"/>
	<path class="st14" d="M188.6,139.9c0,0,0.8,0,0.6-0.1c0,0,0.1,0,0,0.5c-0.1,0.5-0.4,3.7-1.3,4.7c0,0-0.1,0.2-0.6,0.4"/>
	<path class="st14" d="M187.9,140.1c0,0,0.8,0,0.8-0.1c0,0,0,0-0.1-0.1c0,0,0.1,0,0.1,0.4c0,0.4-0.6,4.3-1.2,5c0,0-0.2,0.2-0.5,0.2"
		/>
	<path class="st14" d="M186.9,140.2c0,0,0.6,0.3,1-0.1c0,0-0.5,4.9-0.9,5.3c0,0-0.2,0.4-0.6,0.1"/>
	<path class="st14" d="M185.8,140.2c0,0,0.4,0.3,1.1,0c0,0-0.2,5.1-0.5,5.5c0,0-0.3,0.4-0.6,0C185.8,145.6,185.8,140.2,185.8,140.2z
		"/>
	<path class="st14" d="M183,140c0,0-0.8,0-0.6-0.1c0,0-0.1,0,0,0.5c0.1,0.5,0.4,3.7,1.3,4.7c0,0,0.1,0.2,0.6,0.4"/>
	<path class="st14" d="M183.7,140.1c0,0-0.8,0-0.8-0.1c0,0,0,0,0.1-0.1c0,0-0.1,0-0.1,0.4c0,0.4,0.6,4.3,1.2,5c0,0,0.2,0.2,0.5,0.2"
		/>
	<path class="st14" d="M184.8,140.2c0,0-0.7,0.3-1-0.1c0,0,0.5,4.9,0.9,5.3c0,0,0.2,0.4,0.6,0.1"/>
	<path class="st14" d="M185.8,140.2c0,0-0.4,0.3-1.1,0c0,0,0.2,5.1,0.5,5.5c0,0,0.3,0.4,0.6,0C185.8,145.7,185.8,140.2,185.8,140.2z
		"/>
	<path class="st14" d="M182.4,139.9c-0.1-0.1,0.2-0.1,0.2-0.1c-0.9-0.2,0-0.2,0-0.2c-0.4-0.3,0.3-0.2,0.3-0.2
		c-0.4-0.3,0.6-0.2,0.6-0.2c-0.1-0.4,0.7-0.2,0.7-0.2c0.2-0.3,0.7,0,0.7,0c0.5-0.4,0.9-0.1,0.9-0.1l0.1,0.1c0,0,0.5-0.3,0.9,0
		c0,0,0.5-0.3,0.6,0c0,0,0.7-0.2,0.6,0.1c0,0,0.9-0.1,0.6,0.1c0,0,0.7-0.1,0.3,0.2c0,0,0.9,0,0,0.2c0,0,0.2,0,0.2,0.1"/>
	<path class="st14" d="M197.3,139.2c0,0,3-0.5,3-0.5l3.4,0.6l0,0l-0.1,0.6l-1.9,1l-4.5-0.8l-0.4,0.3l-0.2-1
		C196.6,139.4,197.3,139.3,197.3,139.2z"/>
	<path class="st14" d="M196.6,139.4c0,0,0,2.1,0.8,4.1"/>
	<path class="st14" d="M203.7,139.3c0,0-0.2,2.9-0.8,4.1"/>
	<path class="st14" d="M202.9,139.7c0,0,0.8,0,0.6-0.1c0,0,0.1,0,0,0.5c-0.1,0.5-0.4,3.7-1.3,4.7c0,0-0.1,0.2-0.6,0.4"/>
	<path class="st14" d="M202.2,139.9c0,0,0.8,0,0.8-0.1c0,0,0,0-0.1-0.1c0,0,0.1,0,0.1,0.4c0,0.4-0.6,4.3-1.2,5c0,0-0.2,0.2-0.5,0.2"
		/>
	<path class="st14" d="M201.2,139.9c0,0,0.6,0.3,1-0.1c0,0-0.5,4.9-0.9,5.3c0,0-0.2,0.4-0.6,0.1"/>
	<path class="st14" d="M200.2,139.9c0,0,0.4,0.3,1.1,0c0,0-0.2,5.1-0.5,5.5c0,0-0.3,0.4-0.6,0C200.1,145.4,200.2,139.9,200.2,139.9z
		"/>
	<path class="st14" d="M197.3,139.7c0,0-0.8,0-0.6-0.1c0,0-0.1,0,0,0.5c0.1,0.5,0.4,3.7,1.3,4.7c0,0,0.1,0.2,0.6,0.4"/>
	<path class="st14" d="M198.1,139.9c0,0-0.8,0-0.8-0.1c0,0,0,0,0.1-0.1c0,0-0.1,0-0.1,0.4c0,0.4,0.6,4.3,1.2,5c0,0,0.2,0.2,0.5,0.2"
		/>
	<path class="st14" d="M199.1,139.9c0,0-0.7,0.3-1-0.1c0,0,0.5,4.9,0.9,5.3c0,0,0.2,0.4,0.6,0.1"/>
	<path class="st14" d="M200.2,139.9c0,0-0.4,0.3-1.1,0c0,0,0.2,5.1,0.5,5.5c0,0,0.3,0.4,0.6,0C200.2,145.4,200.2,139.9,200.2,139.9z
		"/>
	<path class="st14" d="M196.7,139.6c-0.1-0.1,0.2-0.1,0.2-0.1c-0.9-0.2,0-0.2,0-0.2c-0.4-0.3,0.3-0.2,0.3-0.2
		c-0.4-0.3,0.6-0.2,0.6-0.2c-0.1-0.4,0.7-0.2,0.7-0.2c0.2-0.3,0.7,0,0.7,0c0.5-0.4,0.9-0.1,0.9-0.1l0.1,0.1c0,0,0.5-0.3,0.9,0
		c0,0,0.5-0.3,0.6,0c0,0,0.7-0.2,0.6,0.1c0,0,0.9-0.1,0.6,0.1c0,0,0.7-0.1,0.3,0.2c0,0,0.9,0,0,0.2c0,0,0.2,0,0.2,0.1"/>
</g>
<line class="st13" x1="158" y1="129.4" x2="213.7" y2="129.4"/>
<g>
	<path class="st14" d="M168.6,123c0,0,3-0.5,3-0.5l3.4,0.6l0,0l-0.1,0.6l-1.9,1l-4.5-0.8l-0.4,0.3l-0.2-1
		C167.9,123.2,168.6,123.1,168.6,123z"/>
	<path class="st14" d="M167.9,123.2c0,0,0,2.1,0.8,4.1"/>
	<path class="st14" d="M175,123.1c0,0-0.2,2.9-0.8,4.1"/>
	<path class="st14" d="M174.3,123.5c0,0,0.8,0,0.6-0.1c0,0,0.1,0,0,0.5c-0.1,0.5-0.4,3.7-1.3,4.7c0,0-0.1,0.2-0.6,0.4"/>
	<path class="st14" d="M173.5,123.7c0,0,0.8,0,0.8-0.1c0,0,0,0-0.1-0.1c0,0,0.1,0,0.1,0.4c0,0.4-0.6,4.3-1.2,5c0,0-0.2,0.2-0.5,0.2"
		/>
	<path class="st14" d="M172.5,123.7c0,0,0.6,0.3,1-0.1c0,0-0.5,4.9-0.9,5.3c0,0-0.2,0.4-0.6,0.1"/>
	<path class="st14" d="M171.5,123.7c0,0,0.4,0.3,1.1,0c0,0-0.2,5.1-0.5,5.5c0,0-0.3,0.4-0.6,0C171.5,129.2,171.5,123.7,171.5,123.7z
		"/>
	<path class="st14" d="M168.7,123.5c0,0-0.8,0-0.6-0.1c0,0-0.1,0,0,0.5c0.1,0.5,0.4,3.7,1.3,4.7c0,0,0.1,0.2,0.6,0.4"/>
	<path class="st14" d="M169.4,123.7c0,0-0.8,0-0.8-0.1c0,0,0,0,0.1-0.1c0,0-0.1,0-0.1,0.4c0,0.4,0.6,4.3,1.2,5c0,0,0.2,0.2,0.5,0.2"
		/>
	<path class="st14" d="M170.4,123.7c0,0-0.7,0.3-1-0.1c0,0,0.5,4.9,0.9,5.3c0,0,0.2,0.4,0.6,0.1"/>
	<path class="st14" d="M171.5,123.7c0,0-0.4,0.3-1.1,0c0,0,0.2,5.1,0.5,5.5c0,0,0.3,0.4,0.6,0C171.5,129.2,171.5,123.7,171.5,123.7z
		"/>
	<path class="st14" d="M168.1,123.4c-0.1-0.1,0.2-0.1,0.2-0.1c-0.9-0.2,0-0.2,0-0.2c-0.4-0.3,0.3-0.2,0.3-0.2
		c-0.4-0.3,0.6-0.2,0.6-0.2c-0.1-0.4,0.7-0.2,0.7-0.2c0.2-0.3,0.7,0,0.7,0c0.5-0.4,0.9-0.1,0.9-0.1l0.1,0.1c0,0,0.5-0.3,0.9,0
		c0,0,0.5-0.3,0.6,0c0,0,0.7-0.2,0.6,0.1c0,0,0.9-0.1,0.6,0.1c0,0,0.7-0.1,0.3,0.2c0,0,0.9,0,0,0.2c0,0,0.2,0,0.2,0.1"/>
	<path class="st14" d="M183,123.3c0,0,3-0.5,3-0.5l3.4,0.6l0,0l-0.1,0.6l-1.9,1l-4.5-0.8l-0.4,0.3l-0.2-1
		C182.2,123.5,183,123.4,183,123.3z"/>
	<path class="st14" d="M182.2,123.5c0,0,0,2.1,0.8,4.1"/>
	<path class="st14" d="M189.4,123.4c0,0-0.2,2.9-0.8,4.1"/>
	<path class="st14" d="M188.6,123.8c0,0,0.8,0,0.6-0.1c0,0,0.1,0,0,0.5c-0.1,0.5-0.4,3.7-1.3,4.7c0,0-0.1,0.2-0.6,0.4"/>
	<path class="st14" d="M187.9,123.9c0,0,0.8,0,0.8-0.1c0,0,0,0-0.1-0.1c0,0,0.1,0,0.1,0.4c0,0.4-0.6,4.3-1.2,5c0,0-0.2,0.2-0.5,0.2"
		/>
	<path class="st14" d="M186.9,124c0,0,0.6,0.3,1-0.1c0,0-0.5,4.9-0.9,5.3c0,0-0.2,0.4-0.6,0.1"/>
	<path class="st14" d="M185.8,124c0,0,0.4,0.3,1.1,0c0,0-0.2,5.1-0.5,5.5c0,0-0.3,0.4-0.6,0C185.8,129.5,185.8,124,185.8,124z"/>
	<path class="st14" d="M183,123.8c0,0-0.8,0-0.6-0.1c0,0-0.1,0,0,0.5c0.1,0.5,0.4,3.7,1.3,4.7c0,0,0.1,0.2,0.6,0.4"/>
	<path class="st14" d="M183.7,124c0,0-0.8,0-0.8-0.1c0,0,0,0,0.1-0.1c0,0-0.1,0-0.1,0.4c0,0.4,0.6,4.3,1.2,5c0,0,0.2,0.2,0.5,0.2"/>
	<path class="st14" d="M184.8,124c0,0-0.7,0.3-1-0.1c0,0,0.5,4.9,0.9,5.3c0,0,0.2,0.4,0.6,0.1"/>
	<path class="st14" d="M185.8,124c0,0-0.4,0.3-1.1,0c0,0,0.2,5.1,0.5,5.5c0,0,0.3,0.4,0.6,0C185.8,129.5,185.8,124,185.8,124z"/>
	<path class="st14" d="M182.4,123.7c-0.1-0.1,0.2-0.1,0.2-0.1c-0.9-0.2,0-0.2,0-0.2c-0.4-0.3,0.3-0.2,0.3-0.2
		c-0.4-0.3,0.6-0.2,0.6-0.2c-0.1-0.4,0.7-0.2,0.7-0.2c0.2-0.3,0.7,0,0.7,0c0.5-0.4,0.9-0.1,0.9-0.1l0.1,0.1c0,0,0.5-0.3,0.9,0
		c0,0,0.5-0.3,0.6,0c0,0,0.7-0.2,0.6,0.1c0,0,0.9-0.1,0.6,0.1c0,0,0.7-0.1,0.3,0.2c0,0,0.9,0,0,0.2c0,0,0.2,0,0.2,0.1"/>
	<path class="st14" d="M197.3,123c0,0,3-0.5,3-0.5l3.4,0.6l0,0l-0.1,0.6l-1.9,1l-4.5-0.8l-0.4,0.3l-0.2-1
		C196.6,123.2,197.3,123.2,197.3,123z"/>
	<path class="st14" d="M196.6,123.2c0,0,0,2.1,0.8,4.1"/>
	<path class="st14" d="M203.7,123.1c0,0-0.2,2.9-0.8,4.1"/>
	<path class="st14" d="M202.9,123.5c0,0,0.8,0,0.6-0.1c0,0,0.1,0,0,0.5c-0.1,0.5-0.4,3.7-1.3,4.7c0,0-0.1,0.2-0.6,0.4"/>
	<path class="st14" d="M202.2,123.7c0,0,0.8,0,0.8-0.1c0,0,0,0-0.1-0.1c0,0,0.1,0,0.1,0.4c0,0.4-0.6,4.3-1.2,5c0,0-0.2,0.2-0.5,0.2"
		/>
	<path class="st14" d="M201.2,123.8c0,0,0.6,0.3,1-0.1c0,0-0.5,4.9-0.9,5.3c0,0-0.2,0.4-0.6,0.1"/>
	<path class="st14" d="M200.2,123.7c0,0,0.4,0.3,1.1,0c0,0-0.2,5.1-0.5,5.5c0,0-0.3,0.4-0.6,0C200.1,129.2,200.2,123.7,200.2,123.7z
		"/>
	<path class="st14" d="M197.3,123.5c0,0-0.8,0-0.6-0.1c0,0-0.1,0,0,0.5c0.1,0.5,0.4,3.7,1.3,4.7c0,0,0.1,0.2,0.6,0.4"/>
	<path class="st14" d="M198.1,123.7c0,0-0.8,0-0.8-0.1c0,0,0,0,0.1-0.1c0,0-0.1,0-0.1,0.4c0,0.4,0.6,4.3,1.2,5c0,0,0.2,0.2,0.5,0.2"
		/>
	<path class="st14" d="M199.1,123.8c0,0-0.7,0.3-1-0.1c0,0,0.5,4.9,0.9,5.3c0,0,0.2,0.4,0.6,0.1"/>
	<path class="st14" d="M200.2,123.8c0,0-0.4,0.3-1.1,0c0,0,0.2,5.1,0.5,5.5c0,0,0.3,0.4,0.6,0C200.2,129.3,200.2,123.8,200.2,123.8z
		"/>
	<path class="st14" d="M196.7,123.4c-0.1-0.1,0.2-0.1,0.2-0.1c-0.9-0.2,0-0.2,0-0.2c-0.4-0.3,0.3-0.2,0.3-0.2
		c-0.4-0.3,0.6-0.2,0.6-0.2c-0.1-0.4,0.7-0.2,0.7-0.2c0.2-0.3,0.7,0,0.7,0c0.5-0.4,0.9-0.1,0.9-0.1l0.1,0.1c0,0,0.5-0.3,0.9,0
		c0,0,0.5-0.3,0.6,0c0,0,0.7-0.2,0.6,0.1c0,0,0.9-0.1,0.6,0.1c0,0,0.7-0.1,0.3,0.2c0,0,0.9,0,0,0.2c0,0,0.2,0,0.2,0.1"/>
</g>
<circle class="st13" cx="129.6" cy="134.6" r="1"/>
<line class="st13" x1="159.3" y1="145.3" x2="212" y2="145.3"/>
<path class="st13" d="M125.7,70.6h5.5l-16.3,22.5V98c0,0-0.4,3.8-4.2,3.8c0,0-3.5,0-4.2-3.1c0-2.4,0-5.5,0-5.5L125.7,70.6z"/>
<path class="st13" d="M137.4,70.6h-5.5l-16.3,22.9V98c0,0,0,3.5,3.5,3.5c0,0,2.8,0.7,4.5-2.8c0-0.7,0.4-5.9,0.4-5.9L137.4,70.6z"/>
<path class="st13" d="M138.2,70.6h5.2l-11.1,22.5v5.2c0,0-0.7,3.1-3.8,3.1c0,0-3.5,0.4-3.8-2.4c0-1,0-5.9,0-5.9L138.2,70.6z"/>
<path class="st13" d="M144,70.6h5.2l-8.3,22.5v5.2c0,0-0.7,3.1-4.2,3.1c0,0-2.8,0-3.5-2.4v-5.9L144,70.6z"/>
<path class="st13" d="M149.9,70.6h5.5l-5.9,22.5V98c0,0-0.4,3.1-3.5,3.5c0,0-3.8,0-4.2-2.8v-5.5L149.9,70.6z"/>
<path class="st13" d="M156.2,70.6h5.2l-3.1,22.2v5.5c0,0-0.7,3.5-3.8,3.1c0,0-3.8,0.4-3.8-3.5s0-4.8,0-4.8L156.2,70.6z"/>
<path class="st13" d="M162.1,70.6h5.2v23.2v4.5c0,0-1,3.1-4.2,3.1c0,0-3.1,0-3.8-2.8v-5.3L162.1,70.6z"/>
<path class="st13" d="M209.5,70.6H204l16.3,22.5V98c0,0,0.4,3.8,4.2,3.8c0,0,3.5,0,4.2-3.1c0-2.4,0-5.5,0-5.5L209.5,70.6z"/>
<path class="st13" d="M197.7,70.6h5.5l16.3,22.9V98c0,0,0,3.5-3.5,3.5c0,0-2.8,0.7-4.5-2.8c0-0.7-0.4-5.9-0.4-5.9L197.7,70.6z"/>
<path class="st13" d="M197,70.6h-5.2l11.1,22.5v5.2c0,0,0.7,3.1,3.8,3.1c0,0,3.5,0.4,3.8-2.4c0-1,0-5.9,0-5.9L197,70.6z"/>
<path class="st13" d="M191.2,70.6H186l8.3,22.5v5.2c0,0,0.7,3.1,4.2,3.1c0,0,2.8,0,3.5-2.4v-5.9L191.2,70.6z"/>
<path class="st13" d="M185.3,70.6h-5.6l5.9,22.5V98c0,0,0.4,3.1,3.5,3.5c0,0,3.8,0,4.2-2.8v-5.5L185.3,70.6z"/>
<path class="st13" d="M179,70.6h-5.2l3.1,22.2v5.5c0,0,0.7,3.5,3.8,3.1c0,0,3.8,0.4,3.8-3.5s0-4.8,0-4.8L179,70.6z"/>
<path class="st13" d="M173.1,70.6h-5.2v23.2v4.5c0,0,1,3.1,4.2,3.1c0,0,3.1,0,3.8-2.8v-5.3L173.1,70.6z"/>
</svg>
