<?xml version="1.0" encoding="utf-8"?>
<!-- Generator: Adobe Illustrator 22.1.0, SVG Export Plug-In . SVG Version: 6.00 Build 0)  -->
<svg version="1.1" id="Layer_1" xmlns="http://www.w3.org/2000/svg" xmlns:xlink="http://www.w3.org/1999/xlink" x="0px" y="0px"
	 viewBox="0 0 150 150" style="enable-background:new 0 0 150 150;" xml:space="preserve">
<style type="text/css">
	.st0{fill:none;}
	.st1{fill:none;stroke:#353535;stroke-width:3;stroke-linecap:round;stroke-linejoin:round;stroke-miterlimit:10;}
	.st2{fill:none;stroke:#000000;stroke-linecap:round;stroke-linejoin:round;stroke-miterlimit:10;}
	.st3{fill:#353535;}
	.st4{fill:#575790;}
	.st5{fill:#A60000;}
	.st6{fill:#002A73;}
	.st7{fill:#6B532F;}
	.st8{fill:#FC5500;}
	.st9{fill:#FFD8A4;}
	.st10{fill:#95725E;}
	.st11{fill:none;stroke:#575790;stroke-width:3;stroke-linecap:round;stroke-linejoin:round;stroke-miterlimit:10;}
	.st12{fill:#FFFFFF;stroke:#333333;stroke-width:2;stroke-miterlimit:10;}
	.st13{fill:#333333;}
	.st14{fill:none;stroke:#333333;stroke-width:2;stroke-miterlimit:10;}
</style>
<g>
	<g>
		<path class="st5" d="M71.1,111C58.5,98,46.6,83.3,39.7,66.3c-1.9-4.8-3.9-10.3-2.9-15.5c1.1-5.7,5.6-9.6,11.4-8.6
			c10.5,1.7,13.5,13.3,15.6,22.1c0.4,1.5,2.5,1.4,2.9,0C70.2,53.5,73.5,42,81,33.2c3.9-4.6,8.7-8.1,15-7.6
			c7.1,0.6,12.6,5.5,13.9,12.6c2.4,13.8-5.7,28.6-13.5,39.3C88,89.2,79.3,100.9,69,111c-1.4,1.4,0.7,3.5,2.1,2.1
			c6.5-6.3,12.1-13.3,17.6-20.5c5.2-6.8,10.6-13.5,15-20.8c6.6-11,14.6-29.6,6.2-41.7c-6.4-9.3-19.6-9.8-27.7-2.7
			C72,36.7,67.9,50.8,63.9,63.5c1,0,1.9,0,2.9,0c-2.2-9.2-5.3-20-15.2-23.6c-8.8-3.2-16.9,2.6-17.9,11.7
			C32.6,62.3,39.5,74.2,44.9,83C51.7,94,60,103.9,69,113.2C70.3,114.6,72.5,112.4,71.1,111L71.1,111z"/>
	</g>
</g>
</svg>
