<?xml version="1.0" encoding="utf-8"?>
<!-- Generator: Adobe Illustrator 22.1.0, SVG Export Plug-In . SVG Version: 6.00 Build 0)  -->
<svg version="1.1" id="Layer_1" xmlns="http://www.w3.org/2000/svg" xmlns:xlink="http://www.w3.org/1999/xlink" x="0px" y="0px"
	 viewBox="0 0 150 150" style="enable-background:new 0 0 150 150;" xml:space="preserve">
<style type="text/css">
	.st0{fill:none;}
	.st1{fill:none;stroke:#353535;stroke-width:3;stroke-linecap:round;stroke-linejoin:round;stroke-miterlimit:10;}
	.st2{fill:none;stroke:#000000;stroke-linecap:round;stroke-linejoin:round;stroke-miterlimit:10;}
	.st3{fill:#353535;}
	.st4{fill:#575790;}
	.st5{fill:#A60000;}
	.st6{fill:#002A73;}
	.st7{fill:#6B532F;}
	.st8{fill:#FC5500;}
	.st9{fill:#FFD8A4;}
	.st10{fill:#95725E;}
	.st11{fill:none;stroke:#575790;stroke-width:3;stroke-linecap:round;stroke-linejoin:round;stroke-miterlimit:10;}
	.st12{fill:#FFFFFF;stroke:#333333;stroke-width:2;stroke-miterlimit:10;}
	.st13{fill:#333333;}
	.st14{fill:none;stroke:#333333;stroke-width:2;stroke-miterlimit:10;}
</style>
<g>
	<g>
		<path class="st3" d="M72.3,114.5c-12.6-13-24.5-27.7-31.4-44.8c-1.9-4.8-3.9-10.3-2.9-15.5c1.1-5.7,5.6-9.6,11.4-8.6
			C60.1,47.4,63,58.9,65.1,67.7c0.4,1.5,2.5,1.4,2.9,0c3.4-10.8,6.7-22.3,14.2-31.1c3.9-4.6,8.7-8.1,15-7.6
			c7.1,0.6,12.6,5.5,13.9,12.6c2.4,13.8-5.7,28.6-13.5,39.3c-8.4,11.7-17.1,23.5-27.4,33.6c-1.4,1.4,0.7,3.5,2.1,2.1
			c6.5-6.3,12.1-13.3,17.6-20.5c5.2-6.8,10.6-13.5,15-20.8c6.6-11,14.6-29.6,6.2-41.7c-6.4-9.3-19.6-9.8-27.7-2.7
			c-10.2,9.1-14.3,23.3-18.3,35.9c1,0,1.9,0,2.9,0c-2.2-9.2-5.3-20-15.2-23.6C44,40.2,35.9,45.9,35,55.1
			c-1.2,10.7,5.8,22.6,11.2,31.4c6.8,11,15.1,20.9,24.1,30.2C71.6,118,73.7,115.9,72.3,114.5L72.3,114.5z"/>
	</g>
</g>
</svg>
