<?xml version="1.0" encoding="utf-8"?>
<!-- Generator: Adobe Illustrator 22.1.0, SVG Export Plug-In . SVG Version: 6.00 Build 0)  -->
<svg version="1.1" id="Layer_1" xmlns="http://www.w3.org/2000/svg" xmlns:xlink="http://www.w3.org/1999/xlink" x="0px" y="0px"
	 viewBox="0 0 150 150" style="enable-background:new 0 0 150 150;" xml:space="preserve">
<style type="text/css">
	.st0{fill:none;}
	.st1{fill:none;stroke:#353535;stroke-width:3;stroke-linecap:round;stroke-linejoin:round;stroke-miterlimit:10;}
	.st2{fill:none;stroke:#353535;stroke-miterlimit:10;}
	.st3{fill:#353535;}
	.st4{fill:#575790;}
	.st5{fill:#A60000;}
	.st6{fill:#002A73;}
	.st7{fill:#6B532F;}
	.st8{fill:#FC5500;}
	.st9{fill:#FFD8A4;}
	.st10{fill:#95725E;}
	.st11{fill:none;stroke:#000000;stroke-linecap:round;stroke-linejoin:round;stroke-miterlimit:10;}
	.st12{fill:none;stroke:#575790;stroke-width:3;stroke-linecap:round;stroke-linejoin:round;stroke-miterlimit:10;}
	.st13{fill:#FFFFFF;stroke:#333333;stroke-width:2;stroke-miterlimit:10;}
	.st14{fill:#333333;}
	.st15{fill:none;stroke:#333333;stroke-width:2;stroke-miterlimit:10;}
	.st16{fill:#424242;stroke:#FFFFFF;stroke-miterlimit:10;}
</style>
<path class="st16" d="M69.8,116.6c-14.4-14.7-26.1-30.7-32-46.1c-1.6-4.1-3-8.3-2.9-12.7c0.1-4.4,1.9-8.9,5.6-11.3
	c5.5-3.5,13.1-0.8,17.3,4.1s5.8,11.5,7.3,17.8c3.7-11.6,8.6-28.5,20.1-37c7.7-5.7,20.4-2.5,24.4,6.2c1.8,3.9,2,8.4,1.6,12.8
	c-1.3,12.9-7.9,24.7-15.8,35.1S79.8,106.9,69.8,116.6"/>
</svg>
