<?xml version="1.0" encoding="utf-8"?>
<!-- Generator: Adobe Illustrator 22.1.0, SVG Export Plug-In . SVG Version: 6.00 Build 0)  -->
<svg version="1.1" id="Layer_1" xmlns="http://www.w3.org/2000/svg" xmlns:xlink="http://www.w3.org/1999/xlink" x="0px" y="0px"
	 viewBox="0 0 150 150" style="enable-background:new 0 0 150 150;" xml:space="preserve">
<style type="text/css">
	.st0{fill:none;}
	.st1{fill:none;stroke:#353535;stroke-width:3;stroke-linecap:round;stroke-linejoin:round;stroke-miterlimit:10;}
	.st2{fill:none;stroke:#000000;stroke-linecap:round;stroke-linejoin:round;stroke-miterlimit:10;}
	.st3{fill:#353535;}
	.st4{fill:#575790;}
	.st5{fill:#A60000;}
	.st6{fill:#002A73;}
	.st7{fill:#6B532F;}
	.st8{fill:#FC5500;}
	.st9{fill:#FFD8A4;}
	.st10{fill:#95725E;}
	.st11{fill:none;stroke:#575790;stroke-width:3;stroke-linecap:round;stroke-linejoin:round;stroke-miterlimit:10;}
	.st12{fill:#FFFFFF;stroke:#333333;stroke-width:2;stroke-miterlimit:10;}
	.st13{fill:#333333;}
	.st14{fill:none;stroke:#333333;stroke-width:2;stroke-miterlimit:10;}
</style>
<g>
	<g>
		<path class="st9" d="M115.5,116.3c7.8-7.2,14.2-18.3,17-28.5c1.6-5.8-0.2-10.8-1.5-16.4c-1.7-7.5-0.9-15.2-1.9-22.7
			c-0.3-2.6-0.5-7-4.1-7.1c-4-0.1-7.3,4.3-8.8,7.4c-5,10.2-4,23.2,0,33.6c0.7,1.8,3.6,1,2.9-0.8c-3.6-9.2-4.5-19.6-1.2-29
			c0.8-2.3,1.9-4.8,3.8-6.4c4.3-3.8,4.2,0.9,4.6,4.2c0.5,4.7,0.3,9.4,0.6,14c0.3,4,1.2,7.8,2.2,11.7c1.6,6.2,0.8,10.7-1.7,16.5
			c-3.5,7.8-7.7,15.7-14.1,21.5C112,115.5,114.1,117.6,115.5,116.3L115.5,116.3z"/>
	</g>
</g>
<g>
	<g>
		<path class="st9" d="M118.1,48.5c-4.1-6.8-8.8-13.2-14-19.1c-2.1-2.4-7.5-10-11.6-7.8c-4.4,2.3-2.8,9.8-1.3,13.2
			c3,6.8,6.7,13.9,10.9,20.1c1.1,1.6,3.7,0.1,2.6-1.5c-2.5-3.6-16.5-25.6-10.6-28c2.2-0.9,4.5,2.4,6,4.1c1.8,2,3.6,4,5.3,6.1
			c3.7,4.6,7,9.4,10,14.4C116.5,51.7,119.1,50.2,118.1,48.5L118.1,48.5z"/>
	</g>
</g>
<g>
	<g>
		<path class="st9" d="M90.4,24.7c-6.4-0.8-7.9,6.8-7.3,11.7c1.1,8.8,5.9,16.8,10.4,24.2c1,1.7,3.6,0.1,2.6-1.5
			c-2.6-4.4-5.2-8.5-7.1-13.4c-1.2-3-7.1-19.1,1.3-18C92.3,28,92.3,25,90.4,24.7L90.4,24.7z"/>
	</g>
</g>
<g>
	<g>
		<path class="st9" d="M83.3,31c-5,3.6-4.9,10.5-3.7,16c1.6,7.4,6.4,13.6,9.6,20.3c0.8,1.7,3.4,0.2,2.6-1.5
			c-2.2-4.6-4.9-8.8-7.1-13.3c-2.3-4.9-5.4-15,0.1-18.9C86.3,32.5,84.8,29.9,83.3,31L83.3,31z"/>
	</g>
</g>
<g>
	<g>
		<path class="st9" d="M78.1,46.5c-1.6,4.4-1.9,9-0.8,13.6c1.2,4.9,4.1,8.7,6.2,13.2c1.2,2.7,1.9,3.7,0.9,6.4
			c-0.8,2.2-1.7,4.2-1.9,6.5c-0.9,7.6,2.8,16.1,7.1,22.1c2.2,3.1,5.1,6.3,8.7,7.7c5,1.9,11.1,1.2,16.3,0.8c1.9-0.1,1.9-3.1,0-3
			c-5.2,0.4-12,1.4-16.7-1.3c-3.9-2.3-6.7-6.6-8.7-10.5C86,95.7,84,89,86.4,82.3c1-2.7,2.1-4.7,1-7.5c-1.2-3.4-3.4-6.5-5.1-9.7
			c-3-5.7-3.5-11.8-1.4-17.8C81.7,45.5,78.8,44.7,78.1,46.5L78.1,46.5z"/>
	</g>
</g>
<g>
	<g>
		<path class="st9" d="M101.8,86.7c2.6-4.9,8-6.2,12.9-7.3c1.9-0.4,1.1-3.3-0.8-2.9c-5.7,1.3-11.8,3.1-14.7,8.7
			C98.3,86.9,100.9,88.4,101.8,86.7L101.8,86.7z"/>
	</g>
</g>
<g>
	<g>
		<path class="st9" d="M37.4,48.7c2.9-4.8,6-9.3,9.5-13.7c1.8-2.2,9.2-12.6,11.9-11c4.6,2.7-1.7,12-3.4,15.2
			c-2.2,4.4-4.4,8.7-7.2,12.8c-1.1,1.6,1.5,3.1,2.6,1.5c4.2-6.1,8-13.2,10.9-20.1c1.5-3.4,3-10.9-1.3-13.2
			c-4.1-2.2-9.5,5.4-11.6,7.8c-5.2,6-9.9,12.4-14,19.1C33.8,48.8,36.4,50.3,37.4,48.7L37.4,48.7z"/>
	</g>
</g>
<g>
	<g>
		<path class="st9" d="M62.4,26.3c8.5-1.1,2.5,15,1.3,18c-1.9,4.8-4.4,9-7.1,13.4c-1,1.7,1.6,3.2,2.6,1.5
			c4.5-7.5,9.3-15.4,10.4-24.2c0.6-4.9-0.8-12.5-7.3-11.7C60.5,23.6,60.5,26.6,62.4,26.3L62.4,26.3z"/>
	</g>
</g>
<g>
	<g>
		<path class="st9" d="M68.1,33.3c5.5,4,2.4,14,0.1,18.9c-2.2,4.5-4.9,8.8-7.1,13.3c-0.8,1.7,1.8,3.3,2.6,1.5
			c3.2-6.7,7.9-13,9.6-20.3c1.2-5.5,1.3-12.4-3.7-16C68,29.6,66.5,32.2,68.1,33.3L68.1,33.3z"/>
	</g>
</g>
<g>
	<g>
		<path class="st9" d="M71.9,45.9c3.1,8.7-0.3,14.9-4.2,22.5c-1.3,2.5-3.2,5.4-2.8,8.3c0.3,2.3,1.7,4.4,2.3,6.7
			c1.3,5.5-0.7,11.2-3.1,16.2c-1.4,3-3.2,5.9-5.5,8.4c-3.4,3.6-7.1,4.6-12.1,4.7c-4.1,0.1-7.4,0.2-10.2-3c-2.5-2.9-4.6-6.1-6.5-9.4
			c-3.7-6.6-8.4-14.6-7-22.4c1.3-7,3-13.3,3.2-20.5c0.1-2.6-0.7-12.7,1.7-13.9c3.7-1.8,7.1,7.4,7.7,9.9c2.4,9,1.5,18.3-1.9,26.8
			c-0.7,1.8,2.2,2.6,2.9,0.8c3.2-8.3,4.2-17.2,2.5-25.9c-1-5.2-4.2-15-11-15c-6.1,0-4.8,13.6-4.9,17.3c-0.2,5.7-0.9,11-2.3,16.5
			c-1.1,4.2-1.7,8.2-0.5,12.4c2.2,8,6.9,16.2,11.8,22.8c1.5,1.9,3.6,5.2,5.9,6.1c3.5,1.4,9.9,0.6,13.5,0c12.1-2,20.9-20.2,18.9-31.5
			c-0.4-2.1-1.3-4-2-6c-0.8-2.5-0.1-3.5,1.1-5.9c2.1-4.4,5-8.3,6.2-13.2c1.1-4.6,0.8-9.2-0.8-13.6C74.1,43.3,71.2,44.1,71.9,45.9
			L71.9,45.9z"/>
	</g>
</g>
<g>
	<g>
		<path class="st9" d="M53.7,83.8c-3-5.6-9-7.4-14.7-8.7c-1.9-0.4-2.7,2.5-0.8,2.9c5,1.1,10.4,2.4,12.9,7.3
			C52,87,54.6,85.5,53.7,83.8L53.7,83.8z"/>
	</g>
</g>
<g>
	<path class="st9" d="M36.4,48.3C42,39.6,48.6,31.5,56,24.2c0.4-0.4,0.8-0.8,1.3-0.9c0.6-0.1,1.2,0.2,1.7,0.4
		c4.7,2.6,6.3,0.4,8.5,5.3c2.1,4.9,4.3,5.8,5,11.1c0.4,3.3,2.2,18.1,0.6,21.1c-0.8,1.6-1.9,4.6-3,6.1c-3.3,4.4-1.9,9.9-1.5,15.4
		c0.3,3.7-0.5,7.7-0.6,11.3c-0.2,7.5-5.7,12.8-11.7,17.3c-2.4,1.8-5.1,3.2-8.1,3.7c-6.2,1-11.6-2.8-15.7-7.5s-7.3-10.2-9.4-16.1
		c-1.3-3.7-2.4-7.5-2.6-11.4c-0.3-6.6,2.1-12.9,3.4-19.3c0.7-3.2,1-6.4,1.3-9.7c0.2-2.1-0.6-6,0.6-7.6c1.2-1.7,4.8-0.7,6.3,0.7
		c0.8,0.8,1,1.9,1.5,2.9c0.5,1,1.5,1.9,2.6,1.5c0.5-0.2,0.8-0.5,1.1-0.9c1.1-1.3,2.1-2.7,2.9-4.3"/>
</g>
<g>
	<path class="st9" d="M116.7,49.7c-5.6-8.7-12.2-16.8-19.6-24.1c-0.4-0.4-0.8-0.8-1.3-0.9c-0.6-0.1-1.2,0.2-1.7,0.4
		c-4.7,2.6-6.3,0.4-8.5,5.3c-2.1,4.9-4.3,5.8-5,11.1c-0.4,3.3-2.2,18.1-0.6,21.1c0.8,1.6,1.9,4.6,3,6.1c3.3,4.4,1.9,9.9,1.5,15.4
		c-0.3,3.7,0.5,7.7,0.6,11.3c0.2,7.5,5.7,12.8,11.7,17.3c2.4,1.8,5.1,3.2,8.1,3.7c6.2,1,11.6-2.8,15.7-7.5s7.3-10.2,9.4-16.1
		c1.3-3.7,2.4-7.5,2.6-11.4c0.3-6.6-2.1-12.9-3.4-19.3c-0.7-3.2-1-6.4-1.3-9.7c-0.2-2.1,0.6-6-0.6-7.6c-1.2-1.7-4.8-0.7-6.3,0.7
		c-0.8,0.8-1,1.9-1.5,2.9c-0.5,1-1.5,1.9-2.6,1.5c-0.5-0.2-0.8-0.5-1.1-0.9c-1.1-1.3-2.1-2.7-2.9-4.3"/>
</g>
</svg>
