<?xml version="1.0" encoding="utf-8"?>
<!-- Generator: Adobe Illustrator 22.1.0, SVG Export Plug-In . SVG Version: 6.00 Build 0)  -->
<svg version="1.1" id="Layer_1" xmlns="http://www.w3.org/2000/svg" xmlns:xlink="http://www.w3.org/1999/xlink" x="0px" y="0px"
	 viewBox="0 0 150 150" style="enable-background:new 0 0 150 150;" xml:space="preserve">
<style type="text/css">
	.st0{fill:none;}
	.st1{fill:none;stroke:#353535;stroke-width:3;stroke-linecap:round;stroke-linejoin:round;stroke-miterlimit:10;}
	.st2{fill:none;stroke:#000000;stroke-linecap:round;stroke-linejoin:round;stroke-miterlimit:10;}
	.st3{fill:#353535;}
	.st4{fill:#575790;}
	.st5{fill:#A60000;}
	.st6{fill:#002A73;}
	.st7{fill:#6B532F;}
	.st8{fill:#FC5500;}
	.st9{fill:#FFD8A4;}
	.st10{fill:#95725E;}
	.st11{fill:none;stroke:#575790;stroke-width:3;stroke-linecap:round;stroke-linejoin:round;stroke-miterlimit:10;}
	.st12{fill:#FFFFFF;stroke:#333333;stroke-width:2;stroke-miterlimit:10;}
	.st13{fill:#333333;}
	.st14{fill:none;stroke:#333333;stroke-width:2;stroke-miterlimit:10;}
</style>
<g>
	<g>
		<path class="st9" d="M116.2,114.8c7.8-7.2,14.2-18.3,17-28.5c1.6-5.8-0.2-10.8-1.5-16.4c-1.7-7.5-0.9-15.2-1.9-22.7
			c-0.3-2.6-0.5-7-4.1-7.1c-4-0.1-7.3,4.3-8.8,7.4c-5,10.2-4,23.2,0,33.6c0.7,1.8,3.6,1,2.9-0.8c-3.6-9.2-4.5-19.6-1.2-29
			c0.8-2.3,1.9-4.8,3.8-6.4c4.3-3.8,4.2,0.9,4.6,4.2c0.5,4.7,0.3,9.4,0.6,14c0.3,4,1.2,7.8,2.2,11.7c1.6,6.2,0.8,10.7-1.7,16.5
			c-3.5,7.8-7.7,15.7-14.1,21.5C112.7,114,114.8,116.1,116.2,114.8L116.2,114.8z"/>
	</g>
</g>
<g>
	<g>
		<path class="st9" d="M118.8,47.1c-4.1-6.8-8.8-13.2-14-19.1c-2.1-2.4-7.5-10-11.6-7.8c-4.4,2.3-2.8,9.8-1.3,13.2
			c3,6.8,6.7,13.9,10.9,20.1c1.1,1.6,3.7,0.1,2.6-1.5c-2.5-3.6-16.5-25.6-10.6-28c2.2-0.9,4.5,2.4,6,4.1c1.8,2,3.6,4,5.3,6.1
			c3.7,4.6,7,9.4,10,14.4C117.2,50.2,119.8,48.7,118.8,47.1L118.8,47.1z"/>
	</g>
</g>
<g>
	<g>
		<path class="st9" d="M91.1,23.3c-6.4-0.8-7.9,6.8-7.3,11.7c1.1,8.8,5.9,16.8,10.4,24.2c1,1.7,3.6,0.1,2.6-1.5
			c-2.6-4.4-5.2-8.5-7.1-13.4c-1.2-3-7.1-19.1,1.3-18C93,26.5,93,23.5,91.1,23.3L91.1,23.3z"/>
	</g>
</g>
<g>
	<g>
		<path class="st9" d="M83.9,29.6c-5,3.6-4.9,10.5-3.7,16c1.6,7.4,6.4,13.6,9.6,20.3c0.8,1.7,3.4,0.2,2.6-1.5
			c-2.2-4.6-4.9-8.8-7.1-13.3c-2.3-4.9-5.4-15,0.1-18.9C87,31.1,85.5,28.4,83.9,29.6L83.9,29.6z"/>
	</g>
</g>
<g>
	<g>
		<path class="st9" d="M78.8,45c-1.6,4.4-1.9,9-0.8,13.6c1.2,4.9,4.1,8.7,6.2,13.2c1.2,2.7,1.9,3.7,0.9,6.4
			c-0.8,2.2-1.7,4.2-1.9,6.5c-0.9,7.6,2.8,16.1,7.1,22.1c2.2,3.1,5.1,6.3,8.7,7.7c5,1.9,11.1,1.2,16.3,0.8c1.9-0.1,1.9-3.1,0-3
			c-5.2,0.4-12,1.4-16.7-1.3c-3.9-2.3-6.7-6.6-8.7-10.5c-3.1-6.2-5.2-12.8-2.7-19.5c1-2.7,2.1-4.7,1-7.5c-1.2-3.4-3.4-6.5-5.1-9.7
			c-3-5.7-3.5-11.8-1.4-17.8C82.3,44,79.4,43.2,78.8,45L78.8,45z"/>
	</g>
</g>
<g>
	<g>
		<path class="st9" d="M102.5,85.3c2.6-4.9,8-6.2,12.9-7.3c1.9-0.4,1.1-3.3-0.8-2.9c-5.7,1.3-11.8,3.1-14.7,8.7
			C99,85.5,101.6,87,102.5,85.3L102.5,85.3z"/>
	</g>
</g>
<g>
	<g>
		<path class="st9" d="M38.1,47.2c2.9-4.8,6-9.3,9.5-13.7c1.8-2.2,9.2-12.6,11.9-11c4.6,2.7-1.7,12-3.4,15.2
			c-2.2,4.4-4.4,8.7-7.2,12.8c-1.1,1.6,1.5,3.1,2.6,1.5c4.2-6.1,8-13.2,10.9-20.1c1.5-3.4,3-10.9-1.3-13.2
			c-4.1-2.2-9.5,5.4-11.6,7.8c-5.2,6-9.9,12.4-14,19.1C34.5,47.3,37.1,48.9,38.1,47.2L38.1,47.2z"/>
	</g>
</g>
<g>
	<g>
		<path class="st9" d="M63.1,24.9c8.5-1.1,2.5,15,1.3,18c-1.9,4.8-4.4,9-7.1,13.4c-1,1.7,1.6,3.2,2.6,1.5
			c4.5-7.5,9.3-15.4,10.4-24.2c0.6-4.9-0.8-12.5-7.3-11.7C61.2,22.1,61.2,25.1,63.1,24.9L63.1,24.9z"/>
	</g>
</g>
<g>
	<g>
		<path class="st9" d="M68.8,31.8c5.5,4,2.4,14,0.1,18.9c-2.2,4.5-4.9,8.8-7.1,13.3c-0.8,1.7,1.8,3.3,2.6,1.5
			c3.2-6.7,7.9-13,9.6-20.3c1.2-5.5,1.3-12.4-3.7-16C68.7,28.1,67.2,30.7,68.8,31.8L68.8,31.8z"/>
	</g>
</g>
<g>
	<g>
		<path class="st9" d="M72.6,44.4c3.1,8.7-0.3,14.9-4.2,22.5c-1.3,2.5-3.2,5.4-2.8,8.3c0.3,2.3,1.7,4.4,2.3,6.7
			c1.3,5.5-0.7,11.2-3.1,16.2c-1.4,3-3.2,5.9-5.5,8.4c-3.4,3.6-7.1,4.6-12.1,4.7c-4.1,0.1-7.4,0.2-10.2-3c-2.5-2.9-4.6-6.1-6.5-9.4
			c-3.7-6.6-8.4-14.6-7-22.4c1.3-7,3-13.3,3.2-20.5c0.1-2.6-0.7-12.7,1.7-13.9c3.7-1.8,7.1,7.4,7.7,9.9c2.4,9,1.5,18.3-1.9,26.8
			c-0.7,1.8,2.2,2.6,2.9,0.8c3.2-8.3,4.2-17.2,2.5-25.9c-1-5.2-4.2-15-11-15c-6.1,0-4.8,13.6-4.9,17.3c-0.2,5.7-0.9,11-2.3,16.5
			c-1.1,4.2-1.7,8.2-0.5,12.4c2.2,8,6.9,16.2,11.8,22.8c1.5,1.9,3.6,5.2,5.9,6.1c3.5,1.4,9.9,0.6,13.5,0c12.1-2,20.9-20.2,18.9-31.5
			c-0.4-2.1-1.3-4-2-6c-0.8-2.5-0.1-3.5,1.1-5.9c2.1-4.4,5-8.3,6.2-13.2c1.1-4.6,0.8-9.2-0.8-13.6C74.8,41.8,71.9,42.6,72.6,44.4
			L72.6,44.4z"/>
	</g>
</g>
<g>
	<g>
		<path class="st9" d="M54.4,82.4c-3-5.6-9-7.4-14.7-8.7c-1.9-0.4-2.7,2.5-0.8,2.9c5,1.1,10.4,2.4,12.9,7.3
			C52.7,85.6,55.3,84.1,54.4,82.4L54.4,82.4z"/>
	</g>
</g>
</svg>
