<?xml version="1.0" encoding="utf-8"?>
<!-- Generator: Adobe Illustrator 22.1.0, SVG Export Plug-In . SVG Version: 6.00 Build 0)  -->
<svg version="1.1" id="Layer_1" xmlns="http://www.w3.org/2000/svg" xmlns:xlink="http://www.w3.org/1999/xlink" x="0px" y="0px"
	 viewBox="0 0 150 150" style="enable-background:new 0 0 150 150;" xml:space="preserve">
<style type="text/css">
	.st0{fill:none;}
	.st1{fill:none;stroke:#353535;stroke-width:3;stroke-linecap:round;stroke-linejoin:round;stroke-miterlimit:10;}
	.st2{fill:none;stroke:#353535;stroke-miterlimit:10;}
	.st3{fill:#353535;}
	.st4{fill:#575790;}
	.st5{fill:#A60000;}
	.st6{fill:#002A73;}
	.st7{fill:#6B532F;}
	.st8{fill:#FC5500;}
	.st9{fill:#FFD8A4;}
	.st10{fill:#95725E;}
	.st11{fill:none;stroke:#000000;stroke-linecap:round;stroke-linejoin:round;stroke-miterlimit:10;}
	.st12{fill:none;stroke:#575790;stroke-width:3;stroke-linecap:round;stroke-linejoin:round;stroke-miterlimit:10;}
	.st13{fill:#FFFFFF;stroke:#333333;stroke-width:2;stroke-miterlimit:10;}
	.st14{fill:#333333;}
	.st15{fill:none;stroke:#333333;stroke-width:2;stroke-miterlimit:10;}
	.st16{fill:#424242;stroke:#FFFFFF;stroke-miterlimit:10;}
</style>
<g id="Håndlavet_1_">
	<polygon class="st16" points="55.8,34.8 71.6,40.8 74,56.9 60.5,88.5 32.8,83.9 33.8,61.6 	"/>
	<path class="st16" d="M53.4,86.4c-5.4-7.9-13.9-6.7-13.9-6.7c1.3-27.5-2.7-29.4-3.4-30.6c-8.5-7.8-7.2,2.5-7.4,5.5
		c-0.4,9.5-1.7,18.7-4,24.9c-2.6,7.3,0,11.2,0,11.2l11.4,18.7c0,0,11.6,13.3,29.7,0c0,0,7.4-14.5,6-21.1c-1.4-6.6-3.7-10.6-2.9-13.6
		c0.8-3,9.3-15.5,7.4-25.8c0,0-0.8-3.4-1.7-3.4c-0.9,0-7.7,23.4-13.1,27.8"/>
	<path class="st16" d="M38.3,53.8c0,0,16.7-21.3,17.7-22.7c0.9-1.2,5.8-3.4,6.3-0.2c0.6,3.2-4.5,12.4-4.9,13.3
		C56.9,45.1,46.3,65,43.1,69"/>
	<path class="st16" d="M52,72c4-2,17.7-35.1,20.6-35.7c1.6-0.3,2.1,1.4,2.4,2.9c0.2,1.1-0.8,6.8-0.8,6.8"/>
	<path class="st16" d="M60.5,37.6c0-0.1,4.5-7.5,6.3-7c1.6,0.4,5.1,2.4,1.3,12.6"/>
	<polygon class="st16" points="97.3,34.4 81.5,40.4 79.1,56.5 92.6,88.2 120.3,83.6 119.3,61.2 	"/>
	<path class="st16" d="M99.8,86.1c5.4-7.9,13.9-6.7,13.9-6.7c-1.3-27.5,2.7-29.4,3.4-30.6c8.5-7.8,7.2,2.5,7.4,5.5
		c0.4,9.5,1.7,18.7,4,24.9c2.6,7.3,0,11.2,0,11.2l-11.4,18.7c0,0-11.6,13.3-29.7,0c0,0-7.4-14.5-6-21.1c1.4-6.6,3.7-10.6,2.9-13.6
		c-0.8-3-9.3-15.5-7.4-25.8c0,0,0.8-3.4,1.7-3.4s7.7,23.4,13.1,27.8"/>
	<path class="st16" d="M114.8,53.4c0,0-16.7-21.3-17.7-22.7c-0.9-1.2-5.8-3.4-6.3-0.2c-0.6,3.2,4.5,12.4,4.9,13.3
		c0.5,0.9,11.1,20.8,14.2,24.8"/>
	<path class="st16" d="M101.1,71.6c-4-2-17.7-35.1-20.6-35.7c-1.6-0.3-2.1,1.4-2.4,2.9c-0.2,1.1,0.8,6.8,0.8,6.8"/>
	<path class="st16" d="M92.6,37.3c0-0.1-4.5-7.5-6.3-7c-1.6,0.4-5.1,2.4-1.3,12.6"/>
</g>
</svg>
