<?xml version="1.0" encoding="utf-8"?>
<!-- Generator: Adobe Illustrator 22.1.0, SVG Export Plug-In . SVG Version: 6.00 Build 0)  -->
<svg version="1.1" id="Layer_1" xmlns="http://www.w3.org/2000/svg" xmlns:xlink="http://www.w3.org/1999/xlink" x="0px" y="0px"
	 viewBox="0 0 150 150" style="enable-background:new 0 0 150 150;" xml:space="preserve">
<style type="text/css">
	.st0{fill:none;}
	.st1{fill:none;stroke:#353535;stroke-width:3;stroke-linecap:round;stroke-linejoin:round;stroke-miterlimit:10;}
	.st2{fill:none;stroke:#000000;stroke-linecap:round;stroke-linejoin:round;stroke-miterlimit:10;}
	.st3{fill:#353535;}
	.st4{fill:#575790;}
	.st5{fill:#A60000;}
	.st6{fill:#002A73;}
	.st7{fill:#6B532F;}
	.st8{fill:#FC5500;}
	.st9{fill:#FFD8A4;}
	.st10{fill:#95725E;}
	.st11{fill:none;stroke:#575790;stroke-width:3;stroke-linecap:round;stroke-linejoin:round;stroke-miterlimit:10;}
	.st12{fill:#FFFFFF;stroke:#333333;stroke-width:2;stroke-miterlimit:10;}
	.st13{fill:#333333;}
	.st14{fill:none;stroke:#333333;stroke-width:2;stroke-miterlimit:10;}
</style>
<g>
	<g>
		<path class="st3" d="M114.5,118.3c7.8-7.2,14.2-18.3,17-28.5c1.6-5.8-0.2-10.8-1.5-16.4c-1.7-7.5-0.9-15.2-1.9-22.7
			c-0.3-2.6-0.5-7-4.1-7.1c-4-0.1-7.3,4.3-8.8,7.4c-5,10.2-4,23.2,0,33.6c0.7,1.8,3.6,1,2.9-0.8c-3.6-9.2-4.5-19.6-1.2-29
			c0.8-2.3,1.9-4.8,3.8-6.4c4.3-3.8,4.2,0.9,4.6,4.2c0.5,4.7,0.3,9.4,0.6,14c0.3,4,1.2,7.8,2.2,11.7c1.6,6.2,0.8,10.7-1.7,16.5
			c-3.5,7.8-7.7,15.7-14.1,21.5C111,117.5,113.1,119.6,114.5,118.3L114.5,118.3z"/>
	</g>
</g>
<g>
	<g>
		<path class="st3" d="M117.1,50.5c-4.1-6.8-8.8-13.2-14-19.1c-2.1-2.4-7.5-10-11.6-7.8c-4.4,2.3-2.8,9.8-1.3,13.2
			c3,6.8,6.7,13.9,10.9,20.1c1.1,1.6,3.7,0.1,2.6-1.5c-2.5-3.6-16.5-25.6-10.6-28c2.2-0.9,4.5,2.4,6,4.1c1.8,2,3.6,4,5.3,6.1
			c3.7,4.6,7,9.4,10,14.4C115.5,53.7,118.1,52.2,117.1,50.5L117.1,50.5z"/>
	</g>
</g>
<g>
	<g>
		<path class="st3" d="M89.4,26.7c-6.4-0.8-7.9,6.8-7.3,11.7c1.1,8.8,5.9,16.8,10.4,24.2c1,1.7,3.6,0.1,2.6-1.5
			c-2.6-4.4-5.2-8.5-7.1-13.4c-1.2-3-7.1-19.1,1.3-18C91.3,30,91.3,27,89.4,26.7L89.4,26.7z"/>
	</g>
</g>
<g>
	<g>
		<path class="st3" d="M82.3,33c-5,3.6-4.9,10.5-3.7,16c1.6,7.4,6.4,13.6,9.6,20.3c0.8,1.7,3.4,0.2,2.6-1.5
			c-2.2-4.6-4.9-8.8-7.1-13.3c-2.3-4.9-5.4-15,0.1-18.9C85.3,34.5,83.8,31.9,82.3,33L82.3,33z"/>
	</g>
</g>
<g>
	<g>
		<path class="st3" d="M77.1,48.5c-1.6,4.4-1.9,9-0.8,13.6c1.2,4.9,4.1,8.7,6.2,13.2c1.2,2.7,1.9,3.7,0.9,6.4
			c-0.8,2.2-1.7,4.2-1.9,6.5c-0.9,7.6,2.8,16.1,7.1,22.1c2.2,3.1,5.1,6.3,8.7,7.7c5,1.9,11.1,1.2,16.3,0.8c1.9-0.1,1.9-3.1,0-3
			c-5.2,0.4-12,1.4-16.7-1.3c-3.9-2.3-6.7-6.6-8.7-10.5C85,97.7,83,91,85.4,84.3c1-2.7,2.1-4.7,1-7.5c-1.2-3.4-3.4-6.5-5.1-9.7
			c-3-5.7-3.5-11.8-1.4-17.8C80.7,47.5,77.8,46.7,77.1,48.5L77.1,48.5z"/>
	</g>
</g>
<g>
	<g>
		<path class="st3" d="M100.8,88.7c2.6-4.9,8-6.2,12.9-7.3c1.9-0.4,1.1-3.3-0.8-2.9c-5.7,1.3-11.8,3.1-14.7,8.7
			C97.3,88.9,99.9,90.4,100.8,88.7L100.8,88.7z"/>
	</g>
</g>
<g>
	<g>
		<path class="st3" d="M38.4,114.8c-6.4-5.8-10.6-13.7-14.1-21.5c-2.6-5.8-3.3-10.3-1.7-16.5c1-3.9,1.9-7.7,2.2-11.7
			c0.3-4.7,0.2-9.4,0.6-14c0.3-3.3,0.2-8,4.6-4.2c1.9,1.6,3,4.1,3.8,6.4c3.3,9.4,2.3,19.8-1.2,29c-0.7,1.8,2.2,2.6,2.9,0.8
			c4-10.3,5.1-23.4,0-33.6c-1.5-3.1-4.7-7.4-8.6-7.4c-3.7,0-3.9,4.3-4.3,7.1c-1,7.3-0.2,14.7-1.7,21.9c-1.2,5.9-3.4,11.2-1.7,17.2
			c2.8,10.2,9.2,21.4,17,28.5C37.7,118.2,39.9,116.1,38.4,114.8L38.4,114.8z"/>
	</g>
</g>
<g>
	<g>
		<path class="st3" d="M36.4,50.7c2.9-4.8,6-9.3,9.5-13.7c1.8-2.2,9.2-12.6,11.9-11c4.6,2.7-1.7,12-3.4,15.2
			c-2.2,4.4-4.4,8.7-7.2,12.8c-1.1,1.6,1.5,3.1,2.6,1.5c4.2-6.1,8-13.2,10.9-20.1c1.5-3.4,3-10.9-1.3-13.2
			c-4.1-2.2-9.5,5.4-11.6,7.8c-5.2,6-9.9,12.4-14,19.1C32.8,50.8,35.4,52.3,36.4,50.7L36.4,50.7z"/>
	</g>
</g>
<g>
	<g>
		<path class="st3" d="M61.4,28.3c8.5-1.1,2.5,15,1.3,18c-1.9,4.8-4.4,9-7.1,13.4c-1,1.7,1.6,3.2,2.6,1.5
			c4.5-7.5,9.3-15.4,10.4-24.2c0.6-4.9-0.8-12.5-7.3-11.7C59.5,25.6,59.5,28.6,61.4,28.3L61.4,28.3z"/>
	</g>
</g>
<g>
	<g>
		<path class="st3" d="M67.1,35.3c5.5,4,2.4,14,0.1,18.9c-2.2,4.5-4.9,8.8-7.1,13.3c-0.8,1.7,1.8,3.3,2.6,1.5
			c3.2-6.7,7.9-13,9.6-20.3c1.2-5.5,1.3-12.4-3.7-16C67,31.6,65.5,34.2,67.1,35.3L67.1,35.3z"/>
	</g>
</g>
<g>
	<g>
		<path class="st3" d="M70.9,47.9c2,5.6,1.7,11.1-0.8,16.5c-1.7,3.7-4.1,7-5.6,10.8c-1.1,3-0.1,4.9,0.9,7.8
			c2.4,6.4,0.6,12.7-2.3,18.7c-1.9,4.1-4.7,8.5-8.5,11c-4.8,3.1-11.8,2.1-17.3,1.7c-1.9-0.1-1.9,2.9,0,3c10.1,0.7,18.1,0.7,24.5-7.8
			c4.6-6.1,8.5-14.9,7.6-22.7c-0.3-2.2-1.1-4.2-1.8-6.2c-1-2.6-0.7-3.4,0.5-6c4.3-9.3,9.5-16.8,5.6-27.4
			C73.1,45.3,70.2,46.1,70.9,47.9L70.9,47.9z"/>
	</g>
</g>
<g>
	<g>
		<path class="st3" d="M52.7,85.8c-3-5.6-9-7.4-14.7-8.7c-1.9-0.4-2.7,2.5-0.8,2.9c5,1.1,10.4,2.4,12.9,7.3
			C51,89,53.6,87.5,52.7,85.8L52.7,85.8z"/>
	</g>
</g>
</svg>
