<?xml version="1.0" encoding="utf-8"?>
<!-- Generator: Adobe Illustrator 22.1.0, SVG Export Plug-In . SVG Version: 6.00 Build 0)  -->
<svg version="1.1" id="Layer_1" xmlns="http://www.w3.org/2000/svg" xmlns:xlink="http://www.w3.org/1999/xlink" x="0px" y="0px"
	 viewBox="0 0 150 150" style="enable-background:new 0 0 150 150;" xml:space="preserve">
<style type="text/css">
	.st0{fill:none;}
	.st1{fill:none;stroke:#353535;stroke-width:3;stroke-linecap:round;stroke-linejoin:round;stroke-miterlimit:10;}
	.st2{fill:none;stroke:#353535;stroke-miterlimit:10;}
	.st3{fill:#353535;}
	.st4{fill:#575790;}
	.st5{fill:#A60000;}
	.st6{fill:#002A73;}
	.st7{fill:#6B532F;}
	.st8{fill:#FC5500;}
	.st9{fill:#FFD8A4;}
	.st10{fill:#95725E;}
	.st11{fill:none;stroke:#000000;stroke-linecap:round;stroke-linejoin:round;stroke-miterlimit:10;}
	.st12{fill:none;stroke:#575790;stroke-width:3;stroke-linecap:round;stroke-linejoin:round;stroke-miterlimit:10;}
	.st13{fill:#FFFFFF;stroke:#333333;stroke-width:2;stroke-miterlimit:10;}
	.st14{fill:#333333;}
	.st15{fill:none;stroke:#333333;stroke-width:2;stroke-miterlimit:10;}
	.st16{fill:#424242;stroke:#FFFFFF;stroke-miterlimit:10;}
</style>
<path class="st16" d="M67.7,118.4c-2.4,0.7-3.5-0.4-5.7-1.6c-4.3-2.4-8.8-5-11.9-9.2c-3.7-5-4.9-11.8-5-18.3c0-3,0.1-6-0.5-8.8
	s-2.1-5.7-4.5-6.9c5.3,1.8,9.4,7.4,9.9,13.5c2-2.9,1.8-7,0.7-10.5c-1.1-3.5-3-6.5-4.1-10c-1.2-3.8-1.4-8.1-0.6-12
	c0.7-3.4,2.4-6.8,5.3-8.3c-2.8,7.6-0.8,17.1,4.7,22.6c2.1,2.1,4.8,3.8,5.8,6.8c0.8-3.6,0.1-7.5-1.1-11c-1.2-3.5-2.7-6.9-3.5-10.6
	c-1.1-4.8-0.7-10.1,1.3-14.5s5.9-7.8,10.3-8.6c-2.2-0.4-4.2,1.5-5.1,3.8c-1.5,3.7-0.6,8.2,1.2,11.6s4.7,6.2,7.6,8.7
	c2.8,2.6,5.7,5.1,7.9,8.4c3.4,5.3,4.4,12.2,3.8,18.8c2.2-10.3-0.3-21.8-6.7-29.8c6.7,1.5,12.2,7.4,14.9,14.4
	c2.7,7,2.8,14.9,1.6,22.4c3-3.5,4.9-8.2,5.3-13c0.1,6.5,0.1,13.1-1.4,19.4c-1.5,6.3-4.6,12.3-9.5,15.9C82.3,116,74.6,116,67.7,118.4
	"/>
<path class="st16" d="M84.2,47.3c-0.1-0.8-1.2-2.8-1.5-3.6c-0.6-1.5-0.5-3.2,0-4.7c0.5-1.5,1.4-2.9,2.2-4.3
	c-0.1,1.2-0.1,2.4,0.2,3.5c0.2,0.5,0.4,1,0.6,1.5C86.8,42.2,86.1,45.3,84.2,47.3"/>
<path class="st16" d="M76.9,34.7c1.7-2,3.5-4,4.3-6.3c1.7-4.8-1.2-9.7-4.9-13.9c0.2,1.9-0.1,3.8-0.8,5.6c-0.3,0.7-0.7,1.4-0.9,2.1
	c-0.3,0.8-0.4,1.5-0.5,2.3c-0.3,1.5-0.5,3.1,0.1,4.6c0.8,1.8,2.8,3.4,2.6,5.3"/>
</svg>
