<?xml version="1.0" encoding="utf-8"?>
<!-- Generator: Adobe Illustrator 22.1.0, SVG Export Plug-In . SVG Version: 6.00 Build 0)  -->
<svg version="1.1" id="Layer_1" xmlns="http://www.w3.org/2000/svg" xmlns:xlink="http://www.w3.org/1999/xlink" x="0px" y="0px"
	 viewBox="0 0 150 150" style="enable-background:new 0 0 150 150;" xml:space="preserve">
<style type="text/css">
	.st0{fill:none;}
	.st1{fill:none;stroke:#353535;stroke-width:3;stroke-linecap:round;stroke-linejoin:round;stroke-miterlimit:10;}
	.st2{fill:none;stroke:#000000;stroke-linecap:round;stroke-linejoin:round;stroke-miterlimit:10;}
	.st3{fill:#353535;}
	.st4{fill:#575790;}
	.st5{fill:#A60000;}
	.st6{fill:#002A73;}
	.st7{fill:#6B532F;}
	.st8{fill:#FC5500;}
	.st9{fill:#FFD8A4;}
	.st10{fill:#95725E;}
	.st11{fill:none;stroke:#575790;stroke-width:3;stroke-linecap:round;stroke-linejoin:round;stroke-miterlimit:10;}
	.st12{fill:#FFFFFF;stroke:#333333;stroke-width:2;stroke-miterlimit:10;}
	.st13{fill:#333333;}
	.st14{fill:none;stroke:#333333;stroke-width:2;stroke-miterlimit:10;}
</style>
<g>
	<g>
		<path class="st8" d="M69.2,112.6c-4.7,0.6-11.3-4.1-14.7-7.1c-4.5-4.1-6.7-9.8-7.4-15.7c-0.9-7.5,1.4-17.2-6-22
			c-0.4,0.9-0.8,1.8-1.2,2.7c5.1,2,8.1,6.8,8.8,12.1c0.2,1.4,2,2.2,2.8,0.8c2.9-5,1.6-10.1-0.5-15.2c-3-7.3-7.4-19.5,1.3-25.1
			c-0.7-0.6-1.5-1.1-2.2-1.7c-1.7,5.3-1.7,11.1,0.3,16.3c0.8,2,1.8,3.9,3.1,5.6c2.2,2.9,5.7,4.8,7.2,8.2c0.5,1.2,2.6,1.7,2.9,0
			c1.3-7.5-2.2-13.5-4.1-20.6c-2.4-8.9-0.1-20.6,10.2-23.1c1.7-0.4,1.3-3-0.4-2.9c-10.2,0-7.5,14.5-3.8,19.8
			c3.3,4.6,8.1,7.8,11.8,12.1c5.2,5.9,6.4,13.4,5.9,21c-0.1,1.7,2.6,2.1,2.9,0.4c2.1-10.9-0.1-22-6.8-30.9c-0.6,0.7-1.1,1.5-1.7,2.2
			c14.9,4.1,17.4,22,15.4,35c-0.2,1.3,1.5,2.8,2.5,1.5c3.3-4.2,5.1-8.7,5.7-14c-1,0-2,0-3,0c0.1,9.8,0.1,20.5-5.5,28.9
			c-5.8,8.7-15.9,8.7-25,11.7c-1.8,0.6-1,3.5,0.8,2.9c9.4-3.1,19.5-3.3,25.9-11.8c6.7-9,7-20.9,6.9-31.7c0-2-2.8-1.9-3,0
			c-0.5,4.4-2.1,8.4-4.8,11.9c0.8,0.5,1.7,1,2.5,1.5c2.2-14.6-0.9-34.1-17.5-38.7c-1.2-0.3-2.5,1.1-1.7,2.2
			c6.2,8.2,8.5,18.5,6.5,28.6c1,0.1,2,0.3,2.9,0.4c0.5-8.1-0.9-16.2-6.2-22.5c-2.9-3.4-6.4-6-9.4-9.2c-2.2-2.4-4.1-5-5-8.1
			c-0.9-3.1-0.9-10,3.8-10c-0.1-1-0.3-2-0.4-2.9c-7.5,1.8-12.1,8.5-13.1,16c-1.4,10.5,6.7,19.5,5,29.8c1,0,1.9,0,2.9,0
			c-1.8-4.4-6-6.5-8.5-10.4C51.5,55,51,48.3,53,42.2c0.4-1.2-1.1-2.4-2.2-1.7c-5.2,3.3-6.7,9.7-6.5,15.6c0.4,8.3,9.1,17.8,4.6,25.7
			c0.9,0.3,1.9,0.5,2.8,0.8c-0.8-6.8-4.5-12.4-11-15c-1.6-0.6-2.5,1.9-1.2,2.7c6.1,3.9,3.9,13.3,4.6,19.4c0.5,4.5,1.7,9,4,12.9
			c2.2,3.5,5.3,6.2,8.7,8.4c3.6,2.3,7.8,5.2,12.2,4.6C71.1,115.3,71.1,112.3,69.2,112.6L69.2,112.6z"/>
	</g>
</g>
<g>
	<g>
		<path class="st8" d="M85.3,41c-0.5-1.9-1.5-3.3-1.1-5.4c0.4-1.7,1.4-3.2,2.3-4.7c-0.9-0.3-1.9-0.5-2.8-0.8
			c-0.2,4.1,2.8,7.9-0.3,11.5c-1.3,1.4,0.8,3.6,2.1,2.1c1.4-1.6,2.4-3.6,2.5-5.7c0.1-2.8-1.4-5.1-1.3-7.9c0.1-1.5-2-2-2.8-0.8
			c-1.2,1.9-2.4,3.9-2.7,6.2c-0.4,2.4,0.7,4,1.2,6.2C82.9,43.7,85.8,42.9,85.3,41L85.3,41z"/>
	</g>
</g>
<g>
	<g>
		<path class="st8" d="M78.2,31.3c2.8-3.2,5.5-6.5,5.2-11c-0.2-4.4-3.1-8.2-5.8-11.4C76.8,8,75,8.8,75.1,10c0.2,4-2.1,7.3-2.5,11.2
			c-0.1,1.3-0.1,2.6,0.3,3.8c0.6,1.7,2.4,3.1,2.6,4.9c0.1,1.9,3.1,1.9,3,0c-0.3-3.7-3.5-5.5-2.8-9.5c0.6-3.7,2.5-6.5,2.3-10.4
			c-0.9,0.4-1.7,0.7-2.6,1.1c2.1,2.4,4.2,5.2,4.8,8.4c0.7,3.9-1.9,6.9-4.2,9.6C74.8,30.6,76.9,32.7,78.2,31.3L78.2,31.3z"/>
	</g>
</g>
</svg>
