<?xml version="1.0" encoding="utf-8"?>
<!-- Generator: Adobe Illustrator 22.1.0, SVG Export Plug-In . SVG Version: 6.00 Build 0)  -->
<svg version="1.1" id="Layer_1" xmlns="http://www.w3.org/2000/svg" xmlns:xlink="http://www.w3.org/1999/xlink" x="0px" y="0px"
	 viewBox="0 0 150 150" style="enable-background:new 0 0 150 150;" xml:space="preserve">
<style type="text/css">
	.st0{fill:none;}
	.st1{fill:none;stroke:#353535;stroke-width:3;stroke-linecap:round;stroke-linejoin:round;stroke-miterlimit:10;}
	.st2{fill:none;stroke:#000000;stroke-linecap:round;stroke-linejoin:round;stroke-miterlimit:10;}
	.st3{fill:#353535;}
	.st4{fill:#575790;}
	.st5{fill:#A60000;}
	.st6{fill:#002A73;}
	.st7{fill:#6B532F;}
	.st8{fill:#FC5500;}
	.st9{fill:#FFD8A4;}
	.st10{fill:#95725E;}
	.st11{fill:none;stroke:#575790;stroke-width:3;stroke-linecap:round;stroke-linejoin:round;stroke-miterlimit:10;}
	.st12{fill:#FFFFFF;stroke:#333333;stroke-width:2;stroke-miterlimit:10;}
	.st13{fill:#333333;}
	.st14{fill:none;stroke:#333333;stroke-width:2;stroke-miterlimit:10;}
</style>
<path class="st4" d="M41.9,38.4c0.1-0.6,35.6-5.7,35.6-5.7l39.9,7.1l0.6,0.3l-1.1,7.1L94.1,59.8l-54.2-9.7l-5,3.1l-2.1-12.5
	C32.8,40.7,41.6,40.1,41.9,38.4z"/>
<path class="st4" d="M32.8,40.7c0,0,0.6,25.9,9.7,49.1"/>
<path class="st4" d="M118,39.8c0,0-2,35.6-9.7,49.9"/>
<path class="st4" d="M108.9,44.4c0,0,9.1-0.3,7.1-1.7c0,0,1.1-0.3,0.3,6.3c-0.9,6.6-5.1,44.2-15.4,56.5c0,0-1.1,2.6-7.1,4.8"/>
<path class="st4" d="M100.1,46.4c0,0,9.8,0.2,9.6-1.2c0-0.2-0.3-0.5-0.8-0.7c0,0,1.4-0.3,0.9,4.6c-0.6,4.8-7.4,52.2-14.8,60.5
	c0,0-2.3,2.9-5.7,2"/>
<path class="st4" d="M88.4,47.2c0,0,7.4,3.4,11.7-0.9c0,0-6,59.6-10.3,64.5c0,0-2.9,4.3-6.8,1.4"/>
<path class="st4" d="M75.7,47.1c0,0,4.3,3.7,12.5,0c0.1,0.1-2.1,62-5.6,66c0,0-3.1,4.3-7.1,0.3C75.5,113.4,75.7,47.1,75.7,47.1z"/>
<path class="st4" d="M42.2,44.7c0,0-9.1-0.3-7.1-1.7c0,0-1.1-0.3-0.3,6.3c0.9,6.6,5.1,44.2,15.4,56.5c0,0,1.1,2.6,7.1,4.8"/>
<path class="st4" d="M51,46.7c0,0-9.8,0.2-9.6-1.2c0-0.2,0.3-0.5,0.8-0.7c0,0-1.4-0.3-0.9,4.6c0.6,4.8,7.4,52.2,14.8,60.5
	c0,0,2.3,2.9,5.7,2"/>
<path class="st4" d="M63.3,47.5c0,0-8,3.4-12.3-0.9c0,0,6,59.6,10.3,64.5c0,0,2.9,4.3,6.8,1.4"/>
<path class="st4" d="M75.7,47.4c0,0-4.3,3.7-12.5,0c-0.1,0.1,2.1,62,5.6,66c0,0,3.1,4.3,7.1,0.3C75.8,113.7,75.7,47.4,75.7,47.4z"/>
<path class="st4" d="M35,43.4c-0.6-0.9,2.8-1.2,2.8-1.2c-11.2-1.9,0.3-2.5,0.3-2.5c-5.3-3.8,3.8-2.8,3.8-2.8
	c-4.7-3.7,7.2-1.9,7.2-1.9c-1.2-4.4,7.8-1.9,7.8-1.9c2.5-3.8,8.4,0,8.4,0c5.9-5,10.9-1.2,10.9-1.2l1.4,0.8c0,0,5.4-4,10.8,0.6
	c0,0,5.4-3.4,7.7,0c0,0,8.3-2.3,7.1,1.7c0,0,10.8-1.7,6.6,1.7c0,0,8.3-0.9,3.4,2.6c0,0,10.5,0.6,0.3,2.3c0,0,2,0.3,2.6,1.1"/>
</svg>
