<?xml version="1.0" encoding="utf-8"?>
<!-- Generator: Adobe Illustrator 22.1.0, SVG Export Plug-In . SVG Version: 6.00 Build 0)  -->
<svg version="1.1" id="Layer_1" xmlns="http://www.w3.org/2000/svg" xmlns:xlink="http://www.w3.org/1999/xlink" x="0px" y="0px"
	 viewBox="0 0 107.5 85" style="enable-background:new 0 0 107.5 85;" xml:space="preserve">
<style type="text/css">
	.st0{fill:none;stroke:#333333;stroke-width:2;stroke-miterlimit:10;}
</style>
<path class="st0" d="M85,27.5H20c-0.2,0-0.3,0.1-0.4,0.2L2.5,41.5c-0.4,0.3-0.2,1,0.4,1h101.3c0.6,0,0.9-0.8,0.4-1.1L85.4,27.5
	C85.2,27.5,85.1,27.5,85,27.5z"/>
<path class="st0" d="M81.6,84H25.5c-1.1,0-2-0.4-2.4-1.1L1.3,45.1c-0.7-1.2,0.5-2.5,2.4-2.5h99.7c1.9,0,3.1,1.3,2.4,2.5L83.9,82.9
	C83.7,83.5,82.7,84,81.6,84z"/>
<polyline class="st0" points="19.8,27.5 26.8,42.6 81.1,42.6 85.2,27.5 "/>
<path class="st0" d="M92.1,37.2l-5.9-35C86,1.5,85.4,1,84.6,1H22.2c-0.8,0-1.4,0.6-1.5,1.3l-3.9,35"/>
</svg>
