<?xml version="1.0" encoding="utf-8"?>
<!-- Generator: Adobe Illustrator 22.1.0, SVG Export Plug-In . SVG Version: 6.00 Build 0)  -->
<svg version="1.1" id="Layer_1" xmlns="http://www.w3.org/2000/svg" xmlns:xlink="http://www.w3.org/1999/xlink" x="0px" y="0px"
	 viewBox="0 0 150 150" style="enable-background:new 0 0 150 150;" xml:space="preserve">
<style type="text/css">
	.st0{fill:none;}
	.st1{fill:none;stroke:#353535;stroke-width:3;stroke-linecap:round;stroke-linejoin:round;stroke-miterlimit:10;}
	.st2{fill:none;stroke:#353535;stroke-miterlimit:10;}
	.st3{fill:#353535;}
	.st4{fill:#575790;}
	.st5{fill:#A60000;}
	.st6{fill:#002A73;}
	.st7{fill:#6B532F;}
	.st8{fill:#FC5500;}
	.st9{fill:#FFD8A4;}
	.st10{fill:#95725E;}
	.st11{fill:none;stroke:#000000;stroke-linecap:round;stroke-linejoin:round;stroke-miterlimit:10;}
	.st12{fill:none;stroke:#575790;stroke-width:3;stroke-linecap:round;stroke-linejoin:round;stroke-miterlimit:10;}
	.st13{fill:#FFFFFF;stroke:#333333;stroke-width:2;stroke-miterlimit:10;}
	.st14{fill:#333333;}
	.st15{fill:none;stroke:#333333;stroke-width:2;stroke-miterlimit:10;}
	.st16{fill:#424242;stroke:#FFFFFF;stroke-miterlimit:10;}
</style>
<g>
	<path class="st16" d="M58.2,62.2c1.3-5.4,2.6-10.9,3.9-16.3c0.1-0.5,0.3-1.1,0.6-1.6c0.4-0.7,1.2-1,2-1.3c2.4-0.9,5.2-1,7.2-2.5
		c0.8-0.6,1.5-1.4,2.3-2.1c2.2-1.8,5.1-2.1,7.9-2.4c3.5-0.3,7-0.7,10.4-0.3c5.2,0.6,10.1,2.9,15.3,3.1c0.9,0,1.9,0,2.7,0.3
		c0.7,0.3,1.4,0.8,1.9,1.3c2.5,2.3,4.7,4.9,6.6,7.7c0.4,0.6,0.9,1.3,1.6,1.4c0.5,0.1,0.9-0.1,1.4-0.3c1.1-0.4,2.1-0.8,3.2-1.2
		c0.4-0.2,0.9-0.3,1.3-0.2c0.4,0.1,0.7,0.5,0.9,0.8c2.8,3.5,5.7,7.2,6,11.6c0.1,2-0.2,4-0.7,6c-0.9,4.2-2,8.3-3.2,12.4
		c-0.2,0.5-0.3,1-0.6,1.5c-0.5,0.7-1.2,1.1-1.9,1.5c-4.1,2.3-7.6,5.7-10.1,9.6c-0.4,0.7-0.9,1.4-1.6,1.6c-0.6,0.2-1.3,0-1.9-0.2
		c-4.4-1.5-8.9-3.6-13.6-3.1c-2.9,0.3-5.7,1.7-7.8,3.9c-0.4,0.4-0.8,0.9-1.4,1.1c-0.5,0.2-1.1,0.1-1.6-0.1
		c-5.5-1.2-11.1-2.4-16.6-3.6c-1.2-0.3-2.5-0.6-3.6-1.2c-1.1-0.7-1.9-1.8-2.5-3c-4.2-7.2-4-16.4-8.2-23.6"/>
	<path class="st16" d="M75.7,39.4c1.7,1.3,2.3,3.6,3.6,5.4c0.8,1.1,1.9,1.9,2.9,2.8c1.5,1.2,2.9,2.3,4.4,3.5
		c0.7,0.5,1.4,1.1,1.7,1.9c0.3,0.6,0.2,1.3,0.2,2c-0.1,2.2-0.4,4.4-0.8,6.5c1,1.4,3.2,1.5,4.8,0.8c1.6-0.6,3-1.8,4.6-2.5
		c1.8-0.7,3.8-0.9,5.6-0.3c1.7,0.5,3.6,1.5,5.1,0.6c0.5-0.3,0.9-0.8,1.2-1.3c1.8-2.7,2.5-6,2.7-9.3s-0.3-6.5-0.8-9.8"/>
	<path class="st16" d="M109.4,60.2c0.3,3.3,1.3,6.6,3,9.5c1.1-1.9,1.4-4.2,1.9-6.4s1.6-4.4,3.6-5.4c0.2-0.1,0.4-0.2,0.6-0.4
		c0.1-0.1,0.2-0.3,0.2-0.5c0.6-2.5,1.2-4.9,1.8-7.4"/>
	<path class="st16" d="M115.3,65.9c1.3-0.2,2.5-0.4,3.8-0.7c0.5-0.1,1.1-0.2,1.5-0.5c0.5-0.3,0.8-0.8,1.1-1.2c1-1.4,2.1-2.9,3.1-4.3
		c1.5-2.1,3.1-4.3,5.1-5.9"/>
	<path class="st16" d="M112.6,71.3c-0.3,3.4-0.7,6.9-1,10.3c-0.1,1-0.2,2-0.1,3c0.1,1.5,0.6,3,1.1,4.5c0.4,1.3,0.9,2.5,1.3,3.8"/>
	<path class="st16" d="M87.7,61.6c-0.9,4.3-1.8,8.6-2.7,12.8c-0.2,0.8-0.3,1.6-0.3,2.4c0.1,0.9,0.4,1.7,0.7,2.6
		c1.3,3.3,2.6,6.7,3.9,10c0.7,1.7,1.4,3.5,1.6,5.3"/>
	<path class="st16" d="M85.2,50.8c-2.5,1.4-4.2,4.1-4.3,7c-2.5-3.3-5.1-6.6-7.6-9.9c-0.5-0.6-0.9-1.2-1.6-1.6
		c-0.7-0.4-1.5-0.5-2.3-0.6c-1.6-0.2-3.2-0.3-4.7-0.5"/>
	<path class="st16" d="M61.7,50.5c0.5,2.1,2.3,3.6,3.8,5.1c1,1,1.8,2.1,2.7,3.2c3.8,4.8,7.7,9.6,11.5,14.4c1-3.5,0.7-7.4-0.8-10.7
		c-0.3-0.6-0.6-1.2-0.7-1.9c-0.2-1.4,0.6-2.9,1.9-3.4"/>
	<path class="st16" d="M79.4,74.3c0,1.5,0.1,2.9,0.3,4.3c0.1,0.5,0.2,0.9,0.4,1.3c0.3,0.5,0.8,0.8,1.3,1.1c4.5,3.2,7.9,7.9,9.5,13.3
		"/>
	<path class="st16" d="M68.1,60.3c-0.4,2.6,1.1,5.1,1.1,7.7c0,1.1-0.3,2.2-0.5,3.3c-0.3,1.8-0.3,3.7-0.3,5.5
		c0.1,4.8,0.3,9.6,0.8,14.4"/>
	<path class="st16" d="M68.6,79.8c1.6-0.2,3.1-0.6,4.6-1.1c1.1-0.3,2.1-0.6,3.2-0.9c0.9-0.3,1.9-0.6,2.6-1.1"/>
</g>
<g>
	<path class="st16" d="M34,61.8c-2.6,3.2-7.2,3.5-11.3,3.7c-0.7,0-1.5,0.1-2.2,0.5c-0.7,0.4-1.2,1.2-1.5,2c-1.4,2.8-2.9,5.7-2.7,8.8
		c0.1,1.2,0.4,2.3,0.7,3.5c0.5,1.8,1,3.6,1.4,5.3c0.6,2.3,1.2,4.6,2.4,6.6c1.2,2,3,3.7,5.1,4.7c1.5,0.7,3.1,1.2,4.7,1.6
		c2.6,0.7,5.2,1.4,7.8,2.1c1.3,0.4,2.6,0.7,4,0.8c1.9,0.1,3.8-0.5,5.7-0.8c3.4-0.5,6.8-0.3,10.2-0.7c3.4-0.4,6.9-1.7,8.9-4.5
		c2-2.8,2-6.5,2-10"/>
	<path class="st16" d="M69.2,85c-2.2,0-3.9-2.1-4.8-4.1c-1.4-3.1-2-6.5-1.7-9.8c0.1-0.7,0.2-1.5-0.2-2.1c-0.7-1-2.2-0.6-3.3-0.8
		c-2.3-0.4-3.5-2.7-5.2-4.2c-2.5-2.1-6-2.4-9.2-2.6c-3.8-0.2-6.7,0.7-10.5,0.5"/>
	<path class="st16" d="M65.7,84.4c-1.6,1.2-3.1,2.4-4.6,3.8c-0.3,0.3-0.7,0.6-0.9,1c-0.3,0.6-0.5,1.2-0.6,1.8
		c-0.6,3.1-1.1,5.6-1.7,8.7"/>
	<path class="st16" d="M58.3,93.2c-1.6-0.2-3.2-0.4-4.9-0.5c-0.3,0-0.6-0.1-0.9-0.3c-0.3-0.2-0.5-0.7-0.7-1
		c-0.3-0.5-0.7-0.9-1.2-1.2c-0.5-0.3-1.1-0.4-1.4-0.9c-0.3-0.4-0.2-0.9-0.2-1.4c0.3-2.7,1-5.4,2-8c0.2-0.4,0.3-0.8,0.4-1.2
		c0-0.9-0.6-1.7-1.1-2.4c-0.6-0.8-1.1-1.7-1.5-2.7c-0.1-0.3-0.2-0.6-0.2-0.8c0-0.3,0.3-0.6,0.5-0.8c1.9-2.2,3.9-4.4,5.8-6.7"/>
	<path class="st16" d="M52.8,77.2c1-1.3,2-2.6,3.1-3.8c0.5-0.5,1-1,1.6-1.3C58,72,58.4,72,58.9,72c0.9,0,1.8-0.1,2.8-0.1"/>
	<path class="st16" d="M32.1,63.8c-2,4.4-2.7,9.3-2,14.1c2.6-1.2,5.4-2,8.2-2.4c0.2,0,0.4,0,0.6,0c0.3,0.1,0.4,0.4,0.6,0.6
		c0.7,1.2,1.4,2.4,2.2,3.6c0.2,0.2,0.3,0.5,0.5,0.7c0.4,0.3,1,0.3,1.5,0.2c1.4-0.3,2.5-1.4,3.2-2.6c0.7-1.2,1.1-2.6,1.4-3.9"/>
	<path class="st16" d="M43.7,81.5c0.5,1.2,1,2.5,1.5,3.7c0.3,0.8,0.7,1.7,0.7,2.6c0,0.9-0.3,1.7-0.7,2.5c-1.4,3.5-2.9,6.9-4.5,10.3"
		/>
	<path class="st16" d="M29.4,79.2c-0.5,1.4-1,2.7-1.5,4.1c-0.2,0.6-0.5,1.2-0.5,1.9c-0.1,0.9,0.2,1.8,0.5,2.6c0.8,2.9,1,5.9,0.5,8.8
		"/>
	<path class="st16" d="M20,68.8c0.3,2.9,1.1,5.8,1.8,8.7c0.1,0.5,0.4,1.2,0.9,1.4c0.4,0.2,0.8,0,1.2-0.1c1.8-0.6,3.7-0.9,5.6-0.8"/>
</g>
<g>
	<path class="st16" d="M67.7,104.7c0.4-1.6,0.8-3.3,1.2-4.9c0-0.2,0.1-0.3,0.2-0.5c0.1-0.2,0.4-0.3,0.6-0.4c0.7-0.3,1.6-0.3,2.2-0.8
		c0.2-0.2,0.4-0.4,0.7-0.6c0.7-0.5,1.6-0.6,2.4-0.7c1-0.1,2.1-0.2,3.1-0.1c1.6,0.2,3.1,0.9,4.6,0.9c0.3,0,0.6,0,0.8,0.1
		c0.2,0.1,0.4,0.2,0.6,0.4c0.8,0.7,1.4,1.5,2,2.3c0.1,0.2,0.3,0.4,0.5,0.4c0.1,0,0.3,0,0.4-0.1c0.3-0.1,0.6-0.2,1-0.4
		c0.1,0,0.3-0.1,0.4-0.1c0.1,0,0.2,0.1,0.3,0.2c0.8,1,1.7,2.2,1.8,3.5c0,0.6-0.1,1.2-0.2,1.8c-0.3,1.3-0.6,2.5-1,3.8
		c0,0.2-0.1,0.3-0.2,0.4c-0.1,0.2-0.4,0.3-0.6,0.4c-1.2,0.7-2.3,1.7-3.1,2.9c-0.1,0.2-0.3,0.4-0.5,0.5c-0.2,0.1-0.4,0-0.6-0.1
		c-1.3-0.5-2.7-1.1-4.1-0.9c-0.9,0.1-1.7,0.5-2.3,1.2c-0.1,0.1-0.2,0.3-0.4,0.3c-0.2,0.1-0.3,0-0.5,0c-1.7-0.4-3.4-0.7-5-1.1
		c-0.4-0.1-0.8-0.2-1.1-0.4c-0.3-0.2-0.6-0.6-0.8-0.9c-1.3-2.2-1.2-5-2.5-7.1"/>
	<path class="st16" d="M73,97.8c0.5,0.4,0.7,1.1,1.1,1.6c0.2,0.3,0.6,0.6,0.9,0.8c0.4,0.4,0.9,0.7,1.3,1.1c0.2,0.2,0.4,0.3,0.5,0.6
		c0.1,0.2,0.1,0.4,0.1,0.6c0,0.7-0.1,1.3-0.2,2c0.3,0.4,1,0.4,1.5,0.3c0.5-0.2,0.9-0.5,1.4-0.8c0.5-0.2,1.1-0.3,1.7-0.1
		c0.5,0.2,1.1,0.5,1.6,0.2c0.2-0.1,0.3-0.2,0.4-0.4c0.5-0.8,0.8-1.8,0.8-2.8s-0.1-2-0.2-3"/>
	<path class="st16" d="M83.2,104.1c0.1,1,0.4,2,0.9,2.9c0.3-0.6,0.4-1.3,0.6-1.9c0.2-0.7,0.5-1.3,1.1-1.6c0.1,0,0.1-0.1,0.2-0.1
		c0,0,0-0.1,0.1-0.2c0.2-0.7,0.4-1.5,0.5-2.2"/>
	<path class="st16" d="M85,105.8c0.4-0.1,0.8-0.1,1.1-0.2c0.2,0,0.3-0.1,0.5-0.2c0.1-0.1,0.2-0.2,0.3-0.4c0.3-0.4,0.6-0.9,0.9-1.3
		c0.5-0.6,0.9-1.3,1.5-1.8"/>
	<path class="st16" d="M84.2,107.5c-0.1,1-0.2,2.1-0.3,3.1c0,0.3-0.1,0.6,0,0.9c0,0.5,0.2,0.9,0.3,1.4c0.1,0.4,0.3,0.8,0.4,1.2"/>
	<path class="st16" d="M76.6,104.5c-0.3,1.3-0.5,2.6-0.8,3.9c0,0.2-0.1,0.5-0.1,0.7c0,0.3,0.1,0.5,0.2,0.8c0.4,1,0.8,2,1.2,3
		c0.2,0.5,0.4,1.1,0.5,1.6"/>
	<path class="st16" d="M75.8,101.3c-0.8,0.4-1.3,1.2-1.3,2.1c-0.8-1-1.5-2-2.3-3c-0.1-0.2-0.3-0.4-0.5-0.5c-0.2-0.1-0.5-0.2-0.7-0.2
		c-0.5,0-1-0.1-1.4-0.1"/>
	<path class="st16" d="M68.7,101.2c0.2,0.6,0.7,1.1,1.2,1.5c0.3,0.3,0.6,0.6,0.8,1c1.2,1.5,2.3,2.9,3.5,4.4c0.3-1.1,0.2-2.2-0.2-3.2
		c-0.1-0.2-0.2-0.4-0.2-0.6c-0.1-0.4,0.2-0.9,0.6-1"/>
	<path class="st16" d="M74.1,108.4c0,0.4,0,0.9,0.1,1.3c0,0.1,0.1,0.3,0.1,0.4c0.1,0.1,0.2,0.2,0.4,0.3c1.4,1,2.4,2.4,2.9,4"/>
	<path class="st16" d="M70.7,104.2c-0.1,0.8,0.3,1.5,0.3,2.3c0,0.3-0.1,0.7-0.1,1c-0.1,0.5-0.1,1.1-0.1,1.7c0,1.5,0.1,2.9,0.2,4.4"
		/>
	<path class="st16" d="M70.8,110.1c0.5-0.1,0.9-0.2,1.4-0.3c0.3-0.1,0.6-0.2,1-0.3c0.3-0.1,0.6-0.2,0.8-0.3"/>
</g>
</svg>
