<?xml version="1.0" encoding="utf-8"?>
<!-- Generator: Adobe Illustrator 22.1.0, SVG Export Plug-In . SVG Version: 6.00 Build 0)  -->
<svg version="1.1" id="Layer_1" xmlns="http://www.w3.org/2000/svg" xmlns:xlink="http://www.w3.org/1999/xlink" x="0px" y="0px"
	 viewBox="0 0 150 150" style="enable-background:new 0 0 150 150;" xml:space="preserve">
<style type="text/css">
	.st0{fill:none;}
	.st1{fill:none;stroke:#353535;stroke-width:3;stroke-linecap:round;stroke-linejoin:round;stroke-miterlimit:10;}
	.st2{fill:none;stroke:#000000;stroke-linecap:round;stroke-linejoin:round;stroke-miterlimit:10;}
	.st3{fill:#353535;}
	.st4{fill:#575790;}
	.st5{fill:#A60000;}
	.st6{fill:#002A73;}
	.st7{fill:#6B532F;}
	.st8{fill:#FC5500;}
	.st9{fill:#FFD8A4;}
	.st10{fill:#95725E;}
	.st11{fill:none;stroke:#575790;stroke-width:3;stroke-linecap:round;stroke-linejoin:round;stroke-miterlimit:10;}
	.st12{fill:#FFFFFF;stroke:#333333;stroke-width:2;stroke-miterlimit:10;}
	.st13{fill:#333333;}
	.st14{fill:none;stroke:#333333;stroke-width:2;stroke-miterlimit:10;}
</style>
<g>
	<g>
		<path class="st10" d="M69.9,79c-6.8-1.2-4.2-9.8-5.3-14c-0.5-1.8-1.1-2-2.7-2.7c-2.5-1.2-4.4-2.2-6.6-4c-0.9-0.8-1.9-1.3-3-1.8
			c-2.7-1.2-6.2-1.4-9.1-1.3c-2.7,0.1-7.6-0.2-9.9,1.1c-2.8,1.5-4.1,2.7-7.5,3.1c-1.3,0.1-2.6,0-3.9,0.3c-4.7,1.1-7,8.5-6.8,12.8
			c0.2,4,1.8,8.6,3.1,12.4c1,2.8,2.4,5.2,4.7,7.1c2.7,2.2,5.9,3,9.2,3.8c3.2,0.9,6.6,2.1,9.9,2.4c3.8,0.3,7.7-0.9,11.5-1.1
			c3.4-0.2,6.8-0.2,10-1.5c6.4-2.6,7.6-8.4,7.5-14.8c0-1.9-3-1.9-3,0c0,4.4,0,9.1-4.5,11.5c-3,1.7-6.7,1.6-10,1.8
			c-2.9,0.1-5.6,0.6-8.4,1c-3.2,0.4-6.1-0.5-9.2-1.3c-3.4-0.9-7.3-1.5-10.3-3.4c-3.4-2.2-4.6-6-5.6-9.7c-1.2-4.1-2.6-8.3-1.3-12.5
			c1.3-4.3,3.5-5.4,7.7-5.9c4.5-0.5,7.8-3.2,12.3-3.6c3.4-0.3,6.7-0.7,10,0c3.5,0.7,4.8,2.9,7.4,4.9c0.5,0.4,1,0.8,1.6,1
			c-0.6-0.3,3.4,1,2.9,0.6c1.7,1.5,0.8,5.4,1.3,7.6c0.9,3.9,2.8,8.4,7.1,9.1C71,82.2,71.8,79.4,69.9,79L69.9,79z"/>
	</g>
</g>
<g>
	<g>
		<path class="st10" d="M65.2,78.6c-2,1.5-4.9,3.3-6.1,5.5c-0.8,1.4-0.9,3.2-1.2,4.8c-0.4,2-0.8,4-1.2,5.9c-0.3,1.9,2.5,2.7,2.9,0.8
			c0.5-2.9,0.9-5.9,1.7-8.7c0.7-2.6,3.3-4.2,5.4-5.8C68.3,80,66.8,77.4,65.2,78.6L65.2,78.6z"/>
	</g>
</g>
<g>
	<g>
		<path class="st10" d="M58.6,87.2c-2.4-0.3-4.7-0.3-6.2-2.3c-2.6-3.3,0-6.2,0.6-9.7c0.3-1.9-0.6-2.5-1.1-4.1
			c-0.7-2.3-0.6-2.9,0.9-5.1c1-1.4,2.4-2.7,3.5-4c1.3-1.5-0.9-3.6-2.1-2.1c-1.8,2-6.4,5.6-6.7,8.5c-0.2,1.6,1.3,3,1.8,4.3
			c1.1,2.7-0.5,5.2-1.1,8c-0.6,3-0.5,4.3,1.5,6.2c3.1,3,4.3,2.9,8.8,3.4C60.5,90.4,60.5,87.4,58.6,87.2L58.6,87.2z"/>
	</g>
</g>
<g>
	<g>
		<path class="st10" d="M54.2,73.8c0.9-1.2,1.9-2.4,2.9-3.5c0.7-0.7,1-1.1,2-1.2c0.9-0.1,1.9-0.1,2.8-0.1c1.9-0.1,1.9-3.1,0-3
			c-2,0.1-4.2-0.2-5.8,1.1c-1.6,1.3-2.8,3-4,4.6C50.9,73.2,53,75.3,54.2,73.8L54.2,73.8z"/>
	</g>
</g>
<g>
	<g>
		<path class="st10" d="M31,58.9c-2,4.7-2.6,9.5-2.1,14.5c0.1,1.2,1.2,1.8,2.3,1.3c1.6-0.7,3.7-1.7,5.4-1.8c2-0.1,2.2,0.3,3.4,1.9
			c1,1.3,1.4,2.7,3.3,2.9c4.1,0.3,6-4.5,6.8-7.7c0.5-1.9-2.4-2.7-2.9-0.8c-0.2,0.8-0.7,3.1-1.3,3.6c-1.1,0.2-2.2,0.3-3.3,0.5
			c-0.2-0.4-0.5-0.8-0.7-1.2c-0.8-1-1.1-2.1-2.4-2.5c-2.8-0.8-7.2,1.4-9.8,2.6c0.8,0.4,1.5,0.9,2.3,1.3c-0.5-4.8,0.1-9.3,2-13.7
			C34.6,58,31.7,57.2,31,58.9L31,58.9z"/>
	</g>
</g>
<g>
	<g>
		<path class="st10" d="M42.5,77.4c1.3,3.1,2.6,5.4,1.3,8.7c-1.2,3.1-2.6,6.2-4.1,9.3c-0.8,1.7,1.8,3.3,2.6,1.5
			c1.6-3.5,3.4-7.1,4.6-10.7c1.3-3.6-0.1-6.2-1.6-9.7C44.7,74.9,41.8,75.6,42.5,77.4L42.5,77.4z"/>
	</g>
</g>
<g>
	<g>
		<path class="st10" d="M28.2,74.3c-0.9,2.3-2.3,4.9-2,7.4c0.4,3.6,1.4,6.7,0.9,10.4c-0.2,1.9,2.8,1.9,3,0c0.4-2.9,0.3-5.8-0.4-8.6
			c-0.8-3.2,0.3-5.4,1.4-8.4C31.8,73.3,28.9,72.5,28.2,74.3L28.2,74.3z"/>
	</g>
</g>
<g>
	<g>
		<path class="st10" d="M18.8,64.3c0.2,1.9,0.6,3.7,1,5.5c0.4,1.5,0.6,3.4,1.4,4.8c0.6,1.1,1.7,1.4,2.9,1.3c2-0.3,3.7-0.9,5.8-0.9
			c1.9,0,1.9-3,0-3c-1.2,0-2.4,0.1-3.6,0.3c-0.6,0.1-1.2,0.2-1.7,0.4c-1.1,0.4-0.5,0.5-0.9,0c-0.6-0.6-0.7-2.8-0.9-3.6
			c-0.4-1.6-0.7-3.1-0.9-4.7C21.5,62.5,18.5,62.4,18.8,64.3L18.8,64.3z"/>
	</g>
</g>
<g>
	<g>
		<g>
			<path class="st10" d="M59.9,58.1c1.1-4.6,1.6-10.1,3.4-14.5c0.1-2,1.2-3.4,3.4-4.1c1-0.2,2-0.5,3-0.8c1.3-0.5,2.2-0.9,3.4-1.7
				c2.4-1.6,3.7-3.2,6.7-3.8c2.5-0.5,5.1-0.6,7.6-0.7c5.3-0.2,9.9,1.4,15,2.5c1.9,0.4,3.7,0.5,5.5,0.8c3.4,0.6,5,2.4,7.1,4.8
				c1.6,1.8,3,5.5,5.7,5.9c1.7,0.3,3.5-1.8,5-1.5c1.8,0.3,3.6,3.7,4.5,5.4c2.9,5.1,1.5,10.1,0.2,15.4c-0.5,2-0.9,4.3-1.6,6.2
				c-1.2,2.8-2.6,3.8-5,5.5c-2.9,2-4.7,4.8-7.2,7.2c-2.4,2.3-3,1.9-6.1,0.8c-2.2-0.8-4.4-1.5-6.8-1.8c-3-0.4-6.1,0-8.8,1.4
				c-1.3,0.7-2.6,2.4-3.8,2.9c-2.6,1-6.3-0.4-8.9-1c-4.6-1-11.8-1.1-14.5-5.5c-4.4-7.1-4.2-16.2-8.2-23.6c-0.9-1.7-3.5-0.2-2.6,1.5
				c4,7.4,3.8,16.4,8.2,23.6c3.9,6.4,13.4,6.3,20,7.7c2.6,0.6,5.2,1.6,7.5,0c1.8-1.2,2.9-2.7,5.1-3.4c3.5-1.2,7-0.5,10.4,0.6
				c2.2,0.7,5.5,2.8,7.9,1.9c3-1.1,4.8-5.7,7.2-7.9c2.2-2,5.7-3.1,7.3-5.6c2.4-3.6,3-9.8,3.9-14.1c1.5-7.1-0.3-13.9-5.7-19
				c-2.3-2.2-3.3-0.4-6.1-0.1c-3.1,0.4-6.5-6.2-9-8.2c-2.3-2-4.3-1.9-7.2-2.3c-4.7-0.5-9.1-2.4-13.8-2.9c-4.4-0.5-9.2-0.2-13.6,0.7
				c-4.4,0.9-6.8,4.2-10.9,5.6c-3,1.1-5.6,1-7,4.2c-2.3,5-2.9,11.7-4.1,17.1C56.6,59.2,59.5,60,59.9,58.1L59.9,58.1z"/>
		</g>
	</g>
	<g>
		<g>
			<path class="st10" d="M75,35.9c2.4,2.4,3.3,5.5,6,7.7c1.5,1.3,3.7,2.4,4.9,3.9c2.3,2.8,1.3,5.8,0.7,9c-0.1,0.5,0,1.1,0.4,1.5
				c2.4,2.1,5,1.9,7.8,0.5c3-1.5,5-2.7,8.5-1.9c1.7,0.4,3,1.1,4.7,0.6c7.7-2.3,5.5-17,4.7-22.4c-0.3-1.9-3.2-1.1-2.9,0.8
				c0.6,4.3,1.3,8.7,0.3,13c-0.3,1.3-0.7,4.1-2,4.9c-2.1,1.4-4.1,0-6.1-0.3c-1.7-0.2-3.4,0-5,0.6c-2.1,0.8-6,4.3-7.1,1.1
				c-0.5-1.5,0.7-4,0.4-5.7c-0.3-1.8-1.1-2.6-2.3-3.8c-2-1.9-4.5-3.2-6.4-5.3c-1.8-2-2.6-4.5-4.5-6.4C75.7,32.5,73.6,34.6,75,35.9
				L75,35.9z"/>
		</g>
	</g>
	<g>
		<g>
			<path class="st10" d="M108.2,55.7c0.4,3.7,1.4,7,3.2,10.2c0.5,1,2.1,1,2.6,0c0.8-1.6,1.2-3.1,1.6-4.8c0.2-1,0.4-2.1,0.7-3
				c0.6-1.7,1.7-2.2,2.9-3.6c2.1-2.3,2.2-6,2.9-9c0.4-1.9-2.4-2.7-2.9-0.8c-0.5,1.9-0.6,4.9-1.6,6.7c-0.6,1-1.5,1.4-2.4,2.4
				c-2.5,3-2.2,7.2-3.9,10.6c0.9,0,1.7,0,2.6,0c-1.5-2.8-2.4-5.6-2.7-8.7C111,53.8,108,53.8,108.2,55.7L108.2,55.7z"/>
		</g>
	</g>
	<g>
		<g>
			<path class="st10" d="M116,62.8c3.3-0.5,5.6-0.8,7.6-3.6c2.4-3.3,4.5-6.8,7.7-9.5c1.5-1.3-0.7-3.4-2.1-2.1
				c-2.2,1.9-3.9,4.3-5.7,6.7c-0.9,1.2-1.7,2.9-2.8,3.9c-1.5,1.4-3.6,1.5-5.5,1.8C113.3,60.2,114.1,63.1,116,62.8L116,62.8z"/>
		</g>
	</g>
	<g>
		<g>
			<path class="st10" d="M111.4,66.8c-0.4,4.1-1.2,8.4-1.1,12.6c0.1,3.3,1.4,6.4,2.4,9.5c0.6,1.8,3.5,1,2.9-0.8
				c-1.1-3.4-2.4-6.5-2.3-10.2c0.2-3.7,0.7-7.4,1.1-11.1C114.6,64.9,111.6,64.9,111.4,66.8L111.4,66.8z"/>
		</g>
	</g>
	<g>
		<g>
			<path class="st10" d="M86.5,56.7c-1,4.9-3.4,11-2.9,16c0.6,6.1,5,11.8,6.2,17.9c0.4,1.9,3.2,1.1,2.9-0.8c-1-5.4-4-10.1-5.4-15.3
				c-1.4-5.2,1.1-11.8,2.2-17C89.8,55.6,86.9,54.8,86.5,56.7L86.5,56.7z"/>
		</g>
	</g>
	<g>
		<g>
			<path class="st10" d="M84.7,45.1c-3.1,2-4.7,4.7-5,8.3c0.9-0.3,1.9-0.5,2.8-0.8c-2.7-3.5-5.2-7.4-8.2-10.6
				c-2.4-2.6-6.1-2.3-9.4-2.7c-1.9-0.2-1.9,2.8,0,3c1.5,0.2,4.2,0.1,5.6,0.6c1.7,0.7,2.7,2.4,3.7,3.8c1.9,2.5,3.8,4.9,5.7,7.4
				c0.9,1.2,2.6,0.8,2.8-0.8c0.3-2.6,1.4-4.3,3.5-5.7C87.8,46.6,86.3,44,84.7,45.1L84.7,45.1z"/>
		</g>
	</g>
	<g>
		<g>
			<path class="st10" d="M60.6,46.4c1.5,3.8,4.9,6.5,7.4,9.6c3.7,4.6,7.3,9.2,11,13.8c0.7,0.9,2.3,0.4,2.5-0.7
				c0.5-2.3,0.7-4.5,0.5-6.8c-0.2-1.6-2.7-7-0.7-8.3c1.6-1,0.1-3.6-1.5-2.6c-1.8,1.1-2.7,2.5-2.6,4.7c0,1.2,1,2.7,1.3,3.7
				c0.9,2.8,0.9,5.6,0.2,8.5c0.8-0.2,1.7-0.4,2.5-0.7c-3-3.7-5.9-7.4-8.9-11.1c-2.6-3.2-7.3-7.1-8.7-10.9
				C62.8,43.8,59.9,44.6,60.6,46.4L60.6,46.4z"/>
		</g>
	</g>
	<g>
		<g>
			<path class="st10" d="M78.2,69.8c0.1,3.4,0.1,5.9,2.8,8.1c4.2,3.4,7.1,7.2,8.8,12.4c0.6,1.8,3.5,1,2.9-0.8
				c-1.1-3.3-2.6-6.3-4.7-9c-1.1-1.4-2.4-2.7-3.7-3.8c-2.5-2-2.9-3.4-3-6.8C81.1,67.9,78.1,67.9,78.2,69.8L78.2,69.8z"/>
		</g>
	</g>
	<g>
		<g>
			<path class="st10" d="M66.9,55.8c-0.1,2.2,0.6,4.2,0.9,6.3c0.3,2.7-0.5,5.6-0.5,8.3c-0.1,5.4,0.3,10.9,0.8,16.3
				c0.2,1.9,3.2,1.9,3,0c-0.5-5.4-1-10.9-0.8-16.3c0.1-2.3,0.8-4.7,0.8-7c0-2.6-1.2-5-1.1-7.7C69.9,53.9,66.9,53.9,66.9,55.8
				L66.9,55.8z"/>
		</g>
	</g>
	<g>
		<g>
			<path class="st10" d="M69.3,76.8c2.1-0.3,4.1-1,6.2-1.6c1.6-0.5,3.2-0.8,4.6-1.8c1.6-1.1,0.1-3.7-1.5-2.6
				c-1.4,0.9-3.1,1.2-4.6,1.7c-1.8,0.5-3.6,1.1-5.4,1.3C66.6,74.2,67.4,77.1,69.3,76.8L69.3,76.8z"/>
		</g>
	</g>
</g>
<g>
	<g>
		<g>
			<path class="st10" d="M69.4,100.6c0.2-1,0.4-4.2,1.2-4.9c0.1-0.1,2-0.6,2.3-0.7c3.2-1,6.7-1.7,10.1-0.3c1.5,0.7,2.1,3,3.9,3.3
				c0.5,0.1,1.4-0.6,1.8-0.5c0.5,0.2,0.3,4.3,0,5.5c-0.4,1.7-1.5,3.1-3.2,4c-1.8,1-3.9-0.3-5.9,0.3c-2.6,0.8-2.8,1.9-6,0.4
				c-2.9-1.3-3-5.2-4.3-7.9c-0.8-1.7-3.4-0.2-2.6,1.5c1.3,2.7,1.2,7.1,4.2,8.7c1.7,0.9,4.6,1.5,6.5,1.5c1.9,0.1,3.6-1.2,5.6-1.1
				c1.3,0.1,1.8,0.8,3.1,0.4c1.3-0.4,3.4-2.8,4.1-3.8c1.4-1.8,2.3-5.1,2.1-7.5c-0.2-2.2-1.7-4.5-3.8-5c-0.5-0.1-1.3,0.6-1.6,0.4
				c0.3,0.1-1-1.8-0.9-1.8c-1-1.2-1.8-1.2-3.2-1.5c-3.7-1-7.4-1.5-10.9,0.2c-4.4,2.2-4.1,2.9-5.3,8C66.1,101.7,69,102.5,69.4,100.6
				L69.4,100.6z"/>
		</g>
	</g>
	<g>
		<g>
			<path class="st10" d="M72.2,94.4c0.7,0.8,1.1,1.7,2,2.5c1.2,1.1,1.6,1,1.3,2.8c-0.1,0.7,0.1,1.3,0.7,1.7c1.2,0.9,2.2,0.5,3.4,0
				c0.8-0.4,1.1-0.4,2-0.3c0.7,0.1,1.2,0.3,1.8,0c2.9-1.1,2.3-5.7,2-8c-0.3-1.9-3.2-1.1-2.9,0.8c0.1,1,0.5,2.6,0,3.6
				c-0.4,1-0.4,0.5-1.4,0.4c-0.6,0-1.2,0-1.7,0.2C79,98.2,78,99,77.7,98.7c0.2,0.6,0.5,1.1,0.7,1.7c0.3-1.4,0.6-3-0.3-4.2
				c-0.5-0.7-1.4-1.1-2-1.7c-0.7-0.7-1.1-1.5-1.7-2.3C73.1,90.8,71,92.9,72.2,94.4L72.2,94.4z"/>
		</g>
	</g>
	<g>
		<g>
			<path class="st10" d="M82,99.6c0.2,1.3,0.5,2.5,1.1,3.6c0.5,1,2.1,1,2.6,0c0.5-0.9,0.5-2.4,1.2-3.1c1-0.9,1.1-2.1,1.4-3.4
				c0.4-1.9-2.4-2.7-2.9-0.8c-0.2,0.8-0.3,1.7-0.6,2.4c0.2-0.3,0.5-0.6,0.7-0.9c-0.7,0.4-1.2,0.9-1.6,1.6c-0.4,0.8-0.4,1.8-0.8,2.6
				c0.9,0,1.7,0,2.6,0c-0.4-0.7-0.6-1.4-0.7-2.1C84.7,97.7,81.7,97.7,82,99.6L82,99.6z"/>
		</g>
	</g>
	<g>
		<g>
			<path class="st10" d="M85.7,102.8c1.3-0.2,2.1-0.5,2.9-1.6c0.7-0.9,1.3-1.9,2.2-2.7c1.5-1.3-0.7-3.4-2.1-2.1
				c-0.7,0.6-1.3,1.4-1.9,2.2c-0.2,0.3-0.5,1-0.8,1.2c0.3-0.2-0.1-0.1-0.2-0.1c-0.3,0-0.6,0.1-0.9,0.2c-0.8,0.1-1.2,1.1-1,1.8
				C84,102.6,84.9,102.9,85.7,102.8L85.7,102.8z"/>
		</g>
	</g>
	<g>
		<g>
			<path class="st10" d="M82.9,103c-0.1,1.3-0.4,2.6-0.3,3.8c0,1.1,0.4,2.1,0.8,3.1c0.6,1.8,3.5,1,2.9-0.8c-0.3-0.9-0.7-1.8-0.7-2.8
				c0.1-1.1,0.2-2.2,0.3-3.4C86.1,101.1,83.1,101.1,82.9,103L82.9,103z"/>
		</g>
	</g>
	<g>
		<g>
			<path class="st10" d="M75.5,99.7c-0.4,1.7-1.3,4-0.8,5.8c0.4,1.7,1.5,3.3,1.8,5c0.4,1.9,3.2,1.1,2.9-0.8c-0.3-1.4-0.9-2.7-1.4-4
				c-0.7-1.7,0.1-3.5,0.4-5.2C78.7,98.6,75.8,97.8,75.5,99.7L75.5,99.7z"/>
		</g>
	</g>
	<g>
		<g>
			<path class="st10" d="M75.4,95.5c-1.3,0.8-1.9,1.9-2,3.4c0.9-0.3,1.9-0.5,2.8-0.8c-0.9-1.1-1.7-2.4-2.6-3.4c-0.9-1-2.3-1-3.6-1.1
				c-1.9-0.2-1.9,2.8,0,3c0.3,0,1.1,0,1.4,0.1c-0.1,0,0.5,0.6,0.5,0.7c0.6,0.7,1.1,1.5,1.7,2.2c0.9,1.2,2.6,0.8,2.8-0.8
				c0-0.4,0.2-0.6,0.5-0.8C78.5,97.1,77,94.5,75.4,95.5L75.4,95.5z"/>
		</g>
	</g>
	<g>
		<g>
			<path class="st10" d="M67.6,97.1c0.5,1.4,1.6,2.3,2.5,3.4c1.1,1.4,2.2,2.8,3.3,4.2c0.7,0.9,2.3,0.4,2.5-0.7
				c0.2-0.8,0.3-1.6,0.2-2.5c0-0.4-0.1-0.8-0.2-1.1c-0.1-0.1-0.1-0.3-0.2-0.4c-0.1-0.5-0.2-0.5-0.3,0.1c1.6-1,0.1-3.6-1.5-2.6
				c-0.8,0.5-1.4,1.3-1.3,2.3c0.1,1.2,0.8,2.1,0.5,3.4c0.8-0.2,1.7-0.4,2.5-0.7c-0.9-1.1-1.8-2.2-2.7-3.4c-0.4-0.5-0.8-1-1.2-1.5
				c-0.3-0.4-1-0.9-1.2-1.4C69.8,94.5,66.9,95.3,67.6,97.1L67.6,97.1z"/>
		</g>
	</g>
	<g>
		<g>
			<path class="st10" d="M72.9,103.9c0,1.5,0.2,2.4,1.4,3.4c1,0.8,1.8,1.8,2.2,3.1c0.6,1.8,3.5,1,2.9-0.8c-0.4-1.2-0.9-2.2-1.7-3.2
				c-0.3-0.4-0.7-0.8-1.1-1.1c-0.2-0.2-0.6-0.3-0.7-0.6c0.3,0.6,0.1-0.7,0.1-0.8C75.8,102,72.8,102,72.9,103.9L72.9,103.9z"/>
		</g>
	</g>
	<g>
		<g>
			<path class="st10" d="M69.5,99.7c0,0.8,0.3,1.5,0.3,2.3c0,0.6-0.2,1.2-0.2,1.8c-0.1,1.7,0.1,3.5,0.2,5.2c0.2,1.9,3.2,1.9,3,0
				c-0.1-1.7-0.3-3.5-0.2-5.2c0-0.6,0.2-1.2,0.2-1.8c0-0.8-0.3-1.5-0.3-2.3C72.5,97.7,69.5,97.7,69.5,99.7L69.5,99.7z"/>
		</g>
	</g>
	<g>
		<g>
			<path class="st10" d="M71.5,107c0.6-0.1,1.3-0.3,1.9-0.5c0.6-0.2,1.1-0.3,1.6-0.6c0.7-0.5,1-1.3,0.5-2.1c-0.4-0.7-1.4-1-2.1-0.5
				c-0.3,0.2-0.7,0.3-1.2,0.4c-0.5,0.2-1.1,0.3-1.6,0.4c-0.8,0.1-1.2,1.1-1,1.8C69.9,106.8,70.7,107.1,71.5,107L71.5,107z"/>
		</g>
	</g>
</g>
</svg>
