<?xml version="1.0" encoding="utf-8"?>
<!-- Generator: Adobe Illustrator 22.1.0, SVG Export Plug-In . SVG Version: 6.00 Build 0)  -->
<svg version="1.1" id="Layer_1" xmlns="http://www.w3.org/2000/svg" xmlns:xlink="http://www.w3.org/1999/xlink" x="0px" y="0px"
	 viewBox="0 0 150 150" style="enable-background:new 0 0 150 150;" xml:space="preserve">
<style type="text/css">
	.st0{fill:none;}
	.st1{fill:none;stroke:#353535;stroke-width:3;stroke-linecap:round;stroke-linejoin:round;stroke-miterlimit:10;}
	.st2{fill:none;stroke:#353535;stroke-miterlimit:10;}
	.st3{fill:#353535;}
	.st4{fill:#575790;}
	.st5{fill:#A60000;}
	.st6{fill:#002A73;}
	.st7{fill:#6B532F;}
	.st8{fill:#FC5500;}
	.st9{fill:#FFD8A4;}
	.st10{fill:#95725E;}
	.st11{fill:none;stroke:#000000;stroke-linecap:round;stroke-linejoin:round;stroke-miterlimit:10;}
	.st12{fill:none;stroke:#575790;stroke-width:3;stroke-linecap:round;stroke-linejoin:round;stroke-miterlimit:10;}
	.st13{fill:#FFFFFF;stroke:#333333;stroke-width:2;stroke-miterlimit:10;}
	.st14{fill:#333333;}
	.st15{fill:none;stroke:#333333;stroke-width:2;stroke-miterlimit:10;}
	.st16{fill:#424242;stroke:#FFFFFF;stroke-miterlimit:10;}
</style>
<path class="st16" d="M64.8,93.5c10.5-23.4,22.6-46.1,36.1-67.8c1.3-2,3.5-4.4,5.7-3.2c2.1,1.1,1.4,4.3,0.4,6.5
	c-6.8,14.8-13.6,29.5-20.4,44.3c-3.2,6.9-6.4,13.9-10.6,20.2c-1.4,2.1-3.2,4.3-5.6,5.1C67.8,99.3,64.3,97.3,64.8,93.5"/>
<path class="st16" d="M74.7,72.6c0.6,4.7,6.3,6.3,9.8,5.2"/>
<path class="st16" d="M65,101.3c-1.6-1.8-5.3-1.6-7.2-0.2s-3,3.8-3.7,6.1c-0.7,2.3-1.2,4.8-2.4,6.9c-1.2,2.1-3.4,3.9-5.8,3.8
	c0.4,0.5,1,0.7,1.5,0.8c2.7,0.8,5.4,1.5,8.1,1.1c3.3-0.5,6.2-2.7,8.4-5.2c1.7-1.9,3.1-4.1,3.5-6.6C67.8,105.6,67.1,102.8,65,101.3"
	/>
<path class="st16" d="M53.4,110.2c1-0.2,3.3-0.6,4.2-0.8c0.5-0.1,1.2-0.2,1.6,0.2c0.9,0.9-0.8,2.9,0.3,3.6c0.2,0.2,0.5,0.2,0.8,0.2
	c1.1,0,3.4,0,4.5,0"/>
</svg>
