<?xml version="1.0" encoding="utf-8"?>
<!-- Generator: Adobe Illustrator 22.1.0, SVG Export Plug-In . SVG Version: 6.00 Build 0)  -->
<svg version="1.1" id="Layer_1" xmlns="http://www.w3.org/2000/svg" xmlns:xlink="http://www.w3.org/1999/xlink" x="0px" y="0px"
	 viewBox="0 0 150 150" style="enable-background:new 0 0 150 150;" xml:space="preserve">
<style type="text/css">
	.st0{fill:none;}
	.st1{fill:none;stroke:#353535;stroke-width:3;stroke-linecap:round;stroke-linejoin:round;stroke-miterlimit:10;}
	.st2{fill:none;stroke:#000000;stroke-linecap:round;stroke-linejoin:round;stroke-miterlimit:10;}
	.st3{fill:#353535;}
	.st4{fill:#575790;}
	.st5{fill:#A60000;}
	.st6{fill:#002A73;}
	.st7{fill:#6B532F;}
	.st8{fill:#FC5500;}
	.st9{fill:#FFD8A4;}
	.st10{fill:#95725E;}
	.st11{fill:none;stroke:#575790;stroke-width:3;stroke-linecap:round;stroke-linejoin:round;stroke-miterlimit:10;}
	.st12{fill:#FFFFFF;stroke:#333333;stroke-width:2;stroke-miterlimit:10;}
	.st13{fill:#333333;}
	.st14{fill:none;stroke:#333333;stroke-width:2;stroke-miterlimit:10;}
</style>
<g>
	<g>
		<path class="st7" d="M66.4,89.8c5.4-12,11.2-23.8,17.4-35.3c3.1-5.8,6.3-11.5,9.6-17.2c1.6-2.7,3.2-5.4,4.8-8.1
			c0.8-1.3,1.6-2.7,2.4-4c0.3-0.5,4.8-8.3,6.2-4.3c0.8,2.2-3.1,7.9-4,10c-1.4,3-2.7,5.9-4.1,8.9c-2.9,6.2-5.7,12.4-8.6,18.6
			c-2.7,5.9-5.4,11.9-8.2,17.7c-1.3,2.6-2.6,5.2-4.1,7.8c-0.9,1.5-1.8,3-2.8,4.5c-0.6,0.7-1.1,1.5-1.7,2.2c-1.9,2.6-4.2,2.6-6.9-0.2
			c-0.3-1.9-3.2-1.1-2.9,0.8c0.9,5.3,6.9,5.6,10.5,2.9c5.7-4.4,9-13.3,12-19.6c4.1-8.6,8-17.4,12-26c2.2-4.7,4.4-9.4,6.5-14.2
			c1.6-3.6,3.9-7.2,4.9-11c1-3.8-1.2-8.6-5.8-6.4c-2.6,1.3-4.2,4.6-5.6,6.9c-2.6,4.3-5.2,8.6-7.7,12.9
			c-9.7,16.8-18.5,34.1-26.5,51.7C63,90,65.6,91.6,66.4,89.8L66.4,89.8z"/>
	</g>
</g>
<g>
	<g>
		<path class="st7" d="M74.8,70c1.8,4,6.5,6.1,10.6,4.8c1.9-0.5,1.1-3.4-0.8-2.9c-3,0.9-6-0.7-7.2-3.5C76.6,66.7,74,68.2,74.8,70
			L74.8,70z"/>
	</g>
</g>
<g>
	<g>
		<path class="st7" d="M65.8,95.8c-2.7-2.4-6.5-2.3-9.2,0.1c-4.5,4-3.5,15.3-10.4,16c-1.5,0.1-2,1.9-0.8,2.8
			c6.1,4.6,14.7,2.1,19.5-3c4.1-4.4,6.7-11.3,1.5-15.9c-1.4-1.3-3.6,0.8-2.1,2.1c4.2,3.8,0.9,9.4-2.4,12.6c-3.8,3.6-10.4,5-14.9,1.7
			c-0.3,0.9-0.5,1.9-0.8,2.8c3.4-0.3,5.8-2.2,7.4-5.2c1.5-2.9,4-17.1,10.1-11.8C65.1,99.2,67.2,97.1,65.8,95.8L65.8,95.8z"/>
	</g>
</g>
<g>
	<g>
		<path class="st7" d="M55.4,107c0.7-0.1,1.6-0.2,2.4-0.4c0.5,0.1,0.7,0,0.6-0.3c0-0.3-0.1-0.2-0.1,0.1c-0.1,0.8-0.5,1.6-0.2,2.4
			c0.7,2.4,4.1,1.7,5.9,1.7c1.9,0,1.9-3,0-3c-0.8,0-1.9-0.2-2.6,0c-0.7-0.2-0.9,0-0.4,0.4c0.1-0.2,0.1-0.5,0.2-0.7
			c0.2-0.8,0.3-1.7-0.1-2.5c-1.2-2.2-4.5-1-6.4-0.6C52.7,104.4,53.5,107.3,55.4,107L55.4,107z"/>
	</g>
</g>
</svg>
