<?xml version="1.0" encoding="utf-8"?>
<!-- Generator: Adobe Illustrator 22.1.0, SVG Export Plug-In . SVG Version: 6.00 Build 0)  -->
<svg version="1.1" id="Layer_1" xmlns="http://www.w3.org/2000/svg" xmlns:xlink="http://www.w3.org/1999/xlink" x="0px" y="0px"
	 viewBox="0 0 150 150" style="enable-background:new 0 0 150 150;" xml:space="preserve">
<style type="text/css">
	.st0{fill:none;}
	.st1{fill:none;stroke:#353535;stroke-width:3;stroke-linecap:round;stroke-linejoin:round;stroke-miterlimit:10;}
	.st2{fill:none;stroke:#000000;stroke-linecap:round;stroke-linejoin:round;stroke-miterlimit:10;}
	.st3{fill:#353535;}
	.st4{fill:#575790;}
	.st5{fill:#A60000;}
	.st6{fill:#002A73;}
	.st7{fill:#6B532F;}
	.st8{fill:#FC5500;}
	.st9{fill:#FFD8A4;}
	.st10{fill:#95725E;}
	.st11{fill:none;stroke:#575790;stroke-width:3;stroke-linecap:round;stroke-linejoin:round;stroke-miterlimit:10;}
	.st12{fill:#FFFFFF;stroke:#333333;stroke-width:2;stroke-miterlimit:10;}
	.st13{fill:#333333;}
	.st14{fill:none;stroke:#333333;stroke-width:2;stroke-miterlimit:10;}
</style>
<g>
	<g>
		<path class="st3" d="M23.2,90.5C20.7,80.1,26,69.1,33.7,61.6c1-1,2.1-2,3.4-2.6c1.2-0.5,2.5-0.7,3.8-0.8
			c6.9-0.3,13.4,2.7,19.5,5.9c3,1.6,6.1,3.3,8.3,6c3.2,3.9,4.1,9.1,5,14c0.5,2.9,1,5.9,1.4,8.8c0.1,0.3,0.1,0.7-0.1,1
			c-0.2,0.4-0.6,0.5-1,0.6c-3.1,0.9-6.4,0.2-9.6,0c-3.2-0.2-6.8,0-9.1,2.3c-0.9,0.9-1.7,2.1-2.8,2.7c-1.8,1-3.9,0.4-5.8-0.2
			c-7.9-2.6-15.7-5.1-23.6-7.7"/>
	</g>
	<g>
		<path class="st3" d="M23.9,89.9c3-2.3,7.6-6.2,10.6-8.5c1.6-1.2,3.4-2.5,5.3-2.2c1.6,0.3,2.8,1.5,4,2.4c2.1,1.6,4.6,2.7,7.3,3
			c0.7,0.1,1.5,0.1,2,0.6c0.6,0.4,0.9,1.2,1.1,1.9c1,3.5-0.5,6.8-0.1,11.2"/>
	</g>
	<g>
		<path class="st3" d="M26.5,71.4c3-1.8,7.4-2.4,9.7-4.7c0.4-0.4,0.9-1,1.1-1.4c0.2-0.4,0-1.3,0-1.7c0.1-1.2-0.3-2.2-0.2-3.5"/>
	</g>
	<g>
		<path class="st3" d="M35.7,67.5c0.8,4.3,1.4,7.4,2.5,11.7"/>
	</g>
	<g>
		<path class="st3" d="M37.3,64.7c1.5,1.6,4,1.6,6,2.4c1.7,0.7,3.1,2,4.9,2.4c2.1,0.5,4.3-0.3,6.4-0.9c3.9-1.2,6.3-1.7,10.4-1.4"/>
	</g>
	<g>
		<path class="st3" d="M54.1,85.4c1.6-1.4,3.2-2.8,4.8-4.1c0.6-0.5,1.3-1.1,2-1.4c0.7-0.3,1.5-0.3,2.3-0.3c1.4,0,2.8,0.1,4.2,0.4
			c0.3,0.1,0.6,0.1,0.9,0c0.2-0.1,0.3-0.3,0.5-0.4c1.1-1.5,1.4-1.9,2.6-3.4"/>
	</g>
</g>
<g>
	<g>
		<path class="st3" d="M111.9,35.2c4.5,2.6,9.1,5.2,13.6,7.8c1.7,1,3.6,2.2,4.3,4.1c0.4,1.2,0.2,2.4,0.1,3.7
			c-1.3,10-2.6,19.9-4,29.9c-0.1,0.8-0.2,1.7-0.8,2.2c-1.1,1-3,0.3-4.2,1.2c-0.9,0.7-1,2-1.6,2.9c-1.2,1.6-3.6,1.3-5.5,1
			c-6.8-1-13.8-0.3-20.3,2c-0.9,0.3-1.9,0.7-2.9,0.6c-0.8-0.1-1.6-0.4-2.3-0.8c-3.5-1.7-7-3.3-10.5-5c-0.5-0.2-1-0.5-1.2-1
			c-0.2-0.5-0.1-1,0.1-1.5c1.3-4.7,3-10.3-0.1-14c-1.2-1.4-3-2.3-3.9-4c-0.8-1.5-0.7-3.3-0.5-4.9c0.3-2.8,0.7-5.6,1.3-8.4
			c0.1-0.6,0.3-1.3,0.7-1.7c0.6-0.5,1.5-0.5,2.3-0.7c1.8-0.3,3.4-1.3,4.9-2.3C90.9,40.3,100.7,36.3,111.9,35.2"/>
	</g>
	<g>
		<path class="st3" d="M111,35.7c1.7,5.9,3.7,11.9,4.7,18c0.1,0.3,0.1,0.7,0.4,1c0.3,0.3,0.7,0.3,1.1,0.3c1.4,0,2.7-0.2,4.1-0.5
			c0.3,3.5,1.2,7,2.5,10.4c1.5,3.8,2.7,7.6,2.7,11.7"/>
	</g>
	<g>
		<path class="st3" d="M111.7,42.5c-4.5,0.1-10.1,1.6-13.6,4.3c-0.6,0.5-1.3,1.1-2.1,1.3c-0.6,0.2-1.3,0.1-1.9,0.1
			c-6.6-0.3-13.2,0-19.7,1"/>
	</g>
	<g>
		<path class="st3" d="M99.7,46.8c2.4,3,4.5,4.7,7.6,6.8c-1.9,1-3.9,1.9-5.8,2.9c-0.7,0.3-1.4,0.7-1.7,1.4c-0.3,0.6-0.1,1.4,0,2.1
			c0.6,2.7,1.4,5.3,2.2,7.9c0.2,0.5,0.4,1.1,0.7,1.5c0.4,0.4,0.9,0.6,1.5,0.8c4.2,1.4,8.5,2.5,12.8,3.3c0.4,0.1,0.9,0.2,1.2,0.5
			c0.2,0.3,0.3,0.6,0.3,0.9c0.4,3.5,0.8,7,1.2,10.6"/>
	</g>
	<g>
		<path class="st3" d="M100.1,62.2c-4-0.2-8.1-0.5-12.1-0.7c-1.2-0.1-2.5-0.1-3.4,0.7c-0.7,0.6-0.9,1.6-1.1,2.5
			c-1.1,4.8-1.9,7.4-5.1,11.2"/>
	</g>
	<g>
		<path class="st3" d="M83.8,68.7c1.4-0.3,2.8,0.8,3,2.1c0.1,0.7-0.1,1.6,0.4,2.1c0.2,0.2,0.5,0.3,0.8,0.4c1.4,0.5,2.9,0.8,4.4,1
			c0.4,0.1,0.9,0.1,1.2,0.4c0.6,0.4,0.8,1.2,1,1.9c1.4,5.4,6.7,7.4,11.3,10.4"/>
	</g>
</g>
<g>
	<g>
		<path class="st3" d="M80.6,116.1c-1.6-1.5-3.2-3.1-4.8-4.6c-0.6-0.6-1.3-1.3-1.3-2.1c0-0.5,0.2-1,0.4-1.5c1.6-4,3.1-8,4.7-11.9
			c0.1-0.3,0.3-0.7,0.6-0.8c0.6-0.3,1.3,0.2,1.9-0.1c0.4-0.2,0.6-0.7,1-1c0.7-0.5,1.6-0.2,2.4,0.1c2.7,1.1,5.7,1.6,8.6,1.3
			c0.4,0,0.8-0.1,1.2,0c0.3,0.1,0.6,0.3,0.9,0.6c1.3,1.1,2.6,2.1,3.8,3.2c0.2,0.1,0.4,0.3,0.4,0.5c0,0.2-0.1,0.4-0.2,0.6
			c-1,1.8-2.3,3.9-1.4,5.8c0.3,0.7,1,1.3,1.2,2c0.2,0.7,0,1.4-0.3,2.1c-0.4,1.1-0.9,2.3-1.4,3.3c-0.1,0.2-0.2,0.5-0.5,0.6
			c-0.3,0.2-0.7,0.1-1,0c-0.8-0.1-1.5,0.2-2.3,0.4C89.9,116.2,85.4,116.8,80.6,116.1"/>
	</g>
	<g>
		<path class="st3" d="M81.1,116c-0.1-2.6-0.3-5.3-0.1-7.9c0-0.1,0-0.3-0.1-0.4c-0.1-0.1-0.3-0.2-0.4-0.2c-0.6-0.1-1.2-0.2-1.7-0.2
			c0.2-1.5,0.2-3,0-4.5c-0.2-1.7-0.3-3.4,0.1-5.1"/>
	</g>
	<g>
		<path class="st3" d="M81.5,113.1c1.8,0.4,4.3,0.4,6.1-0.4c0.3-0.1,0.6-0.3,1-0.3c0.3,0,0.5,0.1,0.8,0.2c2.7,0.8,5.5,1.4,8.2,1.6"
			/>
	</g>
	<g>
		<path class="st3" d="M86.9,112.6c-0.7-1.5-1.4-2.4-2.5-3.6c0.9-0.2,1.8-0.4,2.7-0.6c0.3-0.1,0.6-0.2,0.8-0.4
			c0.2-0.2,0.2-0.6,0.2-0.9c0-1.2,0-2.3-0.1-3.5c0-0.2,0-0.5-0.2-0.7c-0.1-0.2-0.3-0.3-0.5-0.5c-1.6-1-3.3-1.9-5-2.7
			c-0.2-0.1-0.4-0.2-0.4-0.3c-0.1-0.1,0-0.3,0-0.4c0.2-1.5,0.4-3,0.6-4.5"/>
	</g>
	<g>
		<path class="st3" d="M88.3,106.2c1.6,0.5,3.3,1,4.9,1.5c0.5,0.1,1,0.3,1.5,0c0.3-0.2,0.5-0.6,0.7-0.9c1-1.9,1.6-2.9,3.3-4.1"/>
	</g>
	<g>
		<path class="st3" d="M95.7,105.2c-0.6,0-1.1-0.6-1-1.2c0-0.3,0.2-0.6,0-0.9c-0.1-0.1-0.2-0.2-0.3-0.3c-0.5-0.3-1.1-0.6-1.7-0.9
			c-0.2-0.1-0.4-0.1-0.5-0.3c-0.2-0.2-0.2-0.6-0.2-0.9c0-2.4-2-3.7-3.6-5.5"/>
	</g>
</g>
</svg>
