<?xml version="1.0" encoding="utf-8"?>
<!-- Generator: Adobe Illustrator 22.1.0, SVG Export Plug-In . SVG Version: 6.00 Build 0)  -->
<svg version="1.1" id="Layer_1" xmlns="http://www.w3.org/2000/svg" xmlns:xlink="http://www.w3.org/1999/xlink" x="0px" y="0px"
	 viewBox="0 0 150 150" style="enable-background:new 0 0 150 150;" xml:space="preserve">
<style type="text/css">
	.st0{fill:none;}
	.st1{fill:none;stroke:#353535;stroke-width:3;stroke-linecap:round;stroke-linejoin:round;stroke-miterlimit:10;}
	.st2{fill:none;stroke:#000000;stroke-linecap:round;stroke-linejoin:round;stroke-miterlimit:10;}
	.st3{fill:#353535;}
	.st4{fill:#575790;}
	.st5{fill:#A60000;}
	.st6{fill:#002A73;}
	.st7{fill:#6B532F;}
	.st8{fill:#FC5500;}
	.st9{fill:#FFD8A4;}
	.st10{fill:#95725E;}
	.st11{fill:none;stroke:#575790;stroke-width:3;stroke-linecap:round;stroke-linejoin:round;stroke-miterlimit:10;}
	.st12{fill:#FFFFFF;stroke:#333333;stroke-width:2;stroke-miterlimit:10;}
	.st13{fill:#333333;}
	.st14{fill:none;stroke:#333333;stroke-width:2;stroke-miterlimit:10;}
</style>
<g>
	<g>
		<g>
			<path class="st3" d="M23.7,92.1c-1.3-6.2,0-12.3,2.9-17.9c2.6-4.9,7.3-12,13.4-12.4c6.6-0.5,13.1,2.7,18.7,5.7
				c5.7,3,9.7,6.7,11.4,13.1c0.7,2.5,1,5.2,1.5,7.7c0.2,1.1,0.6,2.4,0.6,3.5c0.7,1.3,0.4,2.2-1,2.8c-0.7,1-1.7,1.3-2.9,1
				c-4.2,0.3-8.2-1.3-12.3,0.5c-1.7,0.8-2.6,2.3-4.1,3.2c-3.5,2.1-6.8,0.3-10.4-0.8c-6.3-2.1-12.7-4.1-19-6.2
				c-1.8-0.6-2.6,2.3-0.8,2.9c4.8,1.6,9.7,3.2,14.5,4.7c3.8,1.3,8,3.3,12,3.7c2.1,0.2,3.7-0.3,5.3-1.7c2.3-2,3.7-3.6,7-3.8
				c1.5-0.1,3,0.1,4.4,0.2c2.6,0.2,6.3,1,8.8-0.3c2.3-1.2,1.8-2.8,1.5-5.1c-1.1-6.7-1.4-14.5-5.4-20.3c-3.6-5.3-10.3-8.3-16-10.7
				c-5.3-2.3-12.9-4.7-18.6-2.1c-5.3,2.5-9.7,9.2-12.1,14.3c-2.9,6-3.8,12.3-2.5,18.8C21.1,94.8,24,94,23.7,92.1L23.7,92.1z"/>
		</g>
	</g>
	<g>
		<g>
			<path class="st3" d="M24,92.9c2.2-1.7,4.3-3.5,6.4-5.2c1.1-0.9,2.1-1.8,3.2-2.6c3-2.3,5.9-1.4,9.1,0.2c2.3,1.2,6.1,1.9,8,3.4
				c2.5,2.1,0.8,8.4,0.9,11.5c0.1,1.9,3.1,1.9,3,0c-0.1-3.8,1.8-9.7-0.6-13.1c-0.9-1.2-1.6-1.5-3-1.9c-3.4-0.9-5.7-2-8.7-3.9
				c-7.5-4.7-15,5.2-20.5,9.5C20.4,92,22.5,94.1,24,92.9L24,92.9z"/>
		</g>
	</g>
	<g>
		<g>
			<path class="st3" d="M26.3,74.7c3-1.7,6.6-2.2,9.3-4.4c1-0.8,2.1-1.9,2.3-3.2c0.2-1.6-0.2-3.3-0.2-5c0-1.9-3-1.9-3,0
				c0,1.3,0.4,2.6,0.2,3.8c-0.2,1.5-1.3,2.3-2.6,2.9c-2.4,1.2-5.1,1.8-7.5,3.2C23.1,73.1,24.6,75.6,26.3,74.7L26.3,74.7z"/>
		</g>
	</g>
	<g>
		<g>
			<path class="st3" d="M33.3,69.9c0.7,3.9,1.5,7.8,2.5,11.7c0.5,1.9,3.4,1.1,2.9-0.8c-1-3.9-1.8-7.7-2.5-11.7
				C35.8,67.2,32.9,68,33.3,69.9L33.3,69.9z"/>
		</g>
	</g>
	<g>
		<g>
			<path class="st3" d="M35.2,67.8c1.8,1.4,3.4,1.7,5.4,2.3c2.2,0.7,4.1,2.4,6.3,2.9c2.4,0.5,4.7-0.3,7-0.9c3.4-0.9,6.5-1.5,10-1.4
				c1.9,0.1,1.9-2.9,0-3c-4.1-0.2-7.6,0.7-11.6,1.7c-3.5,0.9-5.5,0.2-8.7-1.3c-2-1-4.6-1.1-6.4-2.4C35.9,64.5,33.7,66.6,35.2,67.8
				L35.2,67.8z"/>
		</g>
	</g>
	<g>
		<g>
			<path class="st3" d="M54.2,88.5c1.7-1.5,3.4-3.4,5.3-4.5c2.5-1.5,4.4-0.5,7-0.5c2.6,0,3.8-2.7,5.2-4.6c1.2-1.5-1.4-3-2.6-1.5
				c-1,1.4-1.6,2.8-3.5,2.9c-1.7,0.1-3.3-0.5-5-0.2c-3.4,0.6-6.1,4.1-8.6,6.2C50.6,87.6,52.8,89.7,54.2,88.5L54.2,88.5z"/>
		</g>
	</g>
</g>
<g>
	<g>
		<g>
			<path class="st3" d="M110.2,38.5c4,2.3,7.9,4.6,11.9,6.8c1.2,0.7,3.5,1.7,4.4,2.9c1.7,2,0.9,4.2,0.6,6.5
				c-0.5,4.4-1.2,8.7-1.7,13.1c-0.5,3.6-0.5,7.7-1.5,11.2c-1.1,3.9-3.3,4.6-5.8,7c-1.4,1.4,0.4,2.1-3,2.9c-1.2,0.3-2.9-0.3-4.2-0.4
				c-3.6-0.3-7.1-0.3-10.7,0.2c-4.4,0.6-8.9,3-13.2,1.6c-1.7-0.6-9.7-3.5-10.1-5.4c-0.2-0.7,1-3.6,1.2-4.4c0.3-1.3,0.5-2.7,0.5-4.1
				c0.1-2.5-0.5-4.7-2-6.7c-0.7-0.9-1.6-1.4-2.3-2.2c-2.7-3.1-2-5.7-1.5-9.1c0.4-2.7,0.1-4.8,2.8-6.1c0.9-0.4,2-0.6,2.9-1
				c3.1-1.5,5.9-3.6,8.9-5.1c7.4-3.8,15.2-6.2,23.4-7.2c1.9-0.2,1.9-3.2,0-3c-6.8,0.8-13.4,2.4-19.7,5.1c-3.5,1.5-7,3.3-10.3,5.3
				c-1.3,0.8-2.5,1.7-3.8,2.3c-1.5,0.7-3.5,0.5-4.8,1.5c-2.9,2.3-3.4,11.9-2.7,15.2c0.7,3.4,3.8,4.2,5.4,7.1c2.3,4.3-0.9,8.3-1,12.5
				c0,1.4,0.3,2.1,1.3,3c2.7,2.4,7.9,4,11.3,5.4c2.4,1,3.8,1,6.4,0.3c4.3-1.2,8.5-2.3,13-2.4c3.3-0.1,7.2,1.2,10.5,0.5
				c2.1-0.4,2.4-1.5,3.7-2.9c1.6-1.8,3.8-1.4,5.3-3.1c1.8-2,1.5-6.1,1.8-8.6c0.7-5,1.3-10,2-14.9c0.5-3.9,2.4-9.5,1.1-13.4
				c-0.7-2.2-2.6-3.5-4.4-4.7c-4.6-2.9-9.4-5.4-14.1-8.1C110,34.9,108.5,37.5,110.2,38.5L110.2,38.5z"/>
		</g>
	</g>
	<g>
		<g>
			<path class="st3" d="M108.5,38.1c0.9,3,1.8,6,2.6,9c0.8,2.9,1,6.9,2.3,9.5c1.4,2.7,4.6,1.9,7.3,1.3c-0.6-0.5-1.3-1-1.9-1.4
				c0.9,7.6,5,14.4,5.2,22c0,1.9,3,1.9,3,0c-0.2-7.7-4.2-14.4-5.2-22c-0.1-1-0.9-1.7-1.9-1.4c-3.1,0.7-3.1,1-4.1-1.5
				c-0.6-1.6-0.8-3.8-1.3-5.4c-0.9-3.6-2-7.2-3.1-10.8C110.9,35.4,108,36.2,108.5,38.1L108.5,38.1z"/>
		</g>
	</g>
	<g>
		<g>
			<path class="st3" d="M110.7,43c-2.8,0.1-5.6,0.5-8.3,1.5c-2.7,0.9-4.6,2.8-7.1,3.8c-3.1,1.3-7.9,0.3-11.2,0.4
				c-3.7,0.2-7.4,0.6-11.1,1.1c-1.9,0.3-1.1,3.2,0.8,2.9c4-0.6,8.1-1,12.1-1.1c2.8-0.1,5.9,0.5,8.5,0.1c2.3-0.4,3.7-2,5.7-3.1
				c3.2-1.7,6.9-2.5,10.5-2.6C112.7,45.9,112.7,42.9,110.7,43L110.7,43z"/>
		</g>
	</g>
	<g>
		<g>
			<path class="st3" d="M97.7,49.8c2.3,2.8,5,5,8,7.1c0-0.9,0-1.7,0-2.6c-2.6,1.3-7.5,2.5-8.3,5.7c-0.7,2.9,1.2,8.6,2.6,11.1
				c1.4,2.5,4,2.8,6.6,3.6c2.7,0.8,8.4,1.1,9.8,4c1.1,2.2,0.7,6.3,1,8.8c0.2,1.9,3.2,1.9,3,0c-0.3-2.3-0.5-4.7-0.8-7
				c-0.1-1.3,0.1-3.7-0.7-4.9c-1.4-2.1-4.6-2-6.8-2.6c-2.1-0.5-4.4-0.9-6.4-1.7c-2.8-1.2-3.1-1.9-3.9-4.9c-0.6-2.1-2-4.7-0.3-6.6
				c1.2-1.3,4.2-2.1,5.8-2.9c1.1-0.5,0.9-2,0-2.6c-2.8-1.9-5.2-4-7.3-6.6C98.6,46.2,96.4,48.4,97.7,49.8L97.7,49.8z"/>
		</g>
	</g>
	<g>
		<g>
			<path class="st3" d="M99.1,62.7c-3.5-0.2-7.1-0.4-10.6-0.6c-1.9-0.1-4.2-0.4-5.8,1c-1.3,1.2-1.5,3-2,4.6
				c-0.9,3.4-2.1,6.3-4.4,9.1c-1.2,1.5,0.9,3.6,2.1,2.1c2.6-3.2,4.1-6.4,5.2-10.4c0.5-1.8,0.2-2,1.9-2.9c1.5-0.8,2.8-0.5,4.4-0.4
				c3,0.2,6.1,0.3,9.1,0.5C101,65.8,101,62.8,99.1,62.7L99.1,62.7z"/>
		</g>
	</g>
	<g>
		<g>
			<path class="st3" d="M82.8,72.2c1.1,0,2.2,3.7,3.5,4.5c1.2,0.7,2.7,0.5,4,1c1.7,0.7,1.7,1.5,2.5,2.9c2.7,4.8,6.9,6.9,11.5,9.8
				c1.6,1,3.1-1.6,1.5-2.6c-2.9-1.8-6.5-3.4-8.7-6c-1.6-1.8-1.6-4.9-3.6-6.3c-1.3-0.9-3.2-0.4-4.5-1.1c-1.4-0.8-1.3-1.8-2-2.8
				c-1.1-1.6-2.2-2.2-4.1-2.3C80.9,69.2,80.9,72.2,82.8,72.2L82.8,72.2z"/>
		</g>
	</g>
</g>
<g>
	<g>
		<g>
			<path class="st3" d="M80.2,117.6c-3-2.9-6.1-4.8-4.9-9.3c0.7-2.7,2.6-8.8,4.8-10.5c0.1-0.1,3.1-0.8,3-0.8c1.8-0.3,3.5,0.8,5.3,1
				c1.2,0.2,2.5,0,3.7,0.2c1.5,0.2,4.1,0.9,5,2.4c2.1,3.6-0.1,1.8-0.1,4.4c0,2,0.3,2.7,0.8,4.5c1.9,8.4-13,8.4-18.1,7.9
				c-1-0.1-1,1.4,0,1.5c5.6,0.6,10.8-0.4,16.1-1.9c2.3-0.7,3.8-2.8,3.9-5.6c0.1-0.9-0.3-1.4-0.4-2.2c-0.9-1.5-1-3.2-0.3-5.2
				c0.3-0.5,0.5-0.9,0.8-1.4c0-0.3,0.3-0.6,0.3-0.9c-0.2-1.7-4-4.6-5.6-5c-2-0.6-4.5,0.1-6.6-0.3c-1.4-0.3-3.5-1.6-5-1.4
				c-1.2,0.1-3.6,1-4.4,1.7c-1.4,1.2-2,4.5-2.7,6.1c-0.9,2.4-3.2,5.8-3,8.3c0.2,3,4.4,5.7,6.3,7.5C79.8,119.3,80.9,118.3,80.2,117.6
				L80.2,117.6z"/>
		</g>
	</g>
	<g>
		<g>
			<path class="st3" d="M80.8,118c-0.1-1.8-0.2-3.5-0.2-5.3c0-0.8,0.4-2.5,0-3.3c-0.6-1-1.9-0.9-2.9-1c0.3,0.3,0.5,0.5,0.8,0.8
				c0.4-3.2-0.5-6.3,0.1-9.4c0.2-0.9-1.3-1.3-1.4-0.4c-0.6,3.3,0.2,6.5-0.2,9.8c0,0.4,0.4,0.7,0.8,0.8c2.2,0.1,1.5,6.7,1.6,8.1
				C79.4,119,80.9,119,80.8,118L80.8,118z"/>
		</g>
	</g>
	<g>
		<g>
			<path class="st3" d="M80.3,115.8c2.4,0.5,4.1,0.1,6.5-0.4c1.7-0.3,3.2,0.4,4.9,0.7c1.6,0.3,3.3,0.6,5,0.7c1,0.1,1-1.4,0-1.5
				c-1.9-0.2-3.8-0.5-5.7-0.9c-1-0.2-2.2-0.9-3.2-0.8c-2.5,0.1-4.3,1.2-7,0.7C79.7,114.2,79.3,115.7,80.3,115.8L80.3,115.8z"/>
		</g>
	</g>
	<g>
		<g>
			<path class="st3" d="M86.5,114.2c-0.7-1.4-1.6-2.6-2.6-3.8c-0.1,0.4-0.2,0.8-0.3,1.3c1.3-0.3,3.3-0.3,4.1-1.5
				c0.7-1.1,0.4-4.1,0-5.1c-0.5-1.3-1.7-1.7-2.9-2.4c-0.6-0.3-2.8-1-3.1-1.7c-0.4-0.8,0.5-3.6,0.6-4.5c0.1-1-1.4-0.9-1.5,0
				c-0.2,1.9-1.3,4.3,0.1,5.8c0.7,0.8,2.3,1.1,3.2,1.7c3.1,2.1,3,5.4-0.9,6.3c-0.6,0.1-0.7,0.9-0.3,1.3c1,1.2,1.7,2.1,2.3,3.5
				C85.7,115.8,87,115.1,86.5,114.2L86.5,114.2z"/>
		</g>
	</g>
	<g>
		<g>
			<path class="st3" d="M87.1,108.9c1.4,0.4,2.8,0.9,4.2,1.3c0.8,0.3,1.8,0.7,2.7,0.2c0.8-0.4,1.1-1.3,1.5-2c0.7-1.2,1.4-2.2,2.6-3
				c0.8-0.6,0-1.9-0.8-1.3c-1.3,0.9-2.2,2-3,3.3c-0.7,1.3-1.5,1.7-2.9,1.2c-1.3-0.4-2.6-0.8-3.9-1.2
				C86.6,107.2,86.2,108.6,87.1,108.9L87.1,108.9z"/>
		</g>
	</g>
	<g>
		<g>
			<path class="st3" d="M94.9,106.4c-0.4-0.1-0.5-1.8-1-2.2c-0.4-0.3-0.9-0.5-1.3-0.7c-0.8-0.5-0.7-0.5-1-1.5
				c-0.7-2.3-2.1-3.6-3.8-5.3c-0.7-0.7-1.7,0.4-1.1,1.1c1,1,2.2,2,2.9,3.2c0.6,1,0.2,2.4,1,3.2c0.4,0.5,1.2,0.5,1.7,0.9
				c0.8,0.7,0.2,0.6,0.5,1.4c0.3,0.8,0.7,1.2,1.5,1.4C95.5,108.1,95.8,106.7,94.9,106.4L94.9,106.4z"/>
		</g>
	</g>
</g>
</svg>
