<?xml version="1.0" encoding="utf-8"?>
<!-- Generator: Adobe Illustrator 22.1.0, SVG Export Plug-In . SVG Version: 6.00 Build 0)  -->
<svg version="1.1" id="Layer_1" xmlns="http://www.w3.org/2000/svg" xmlns:xlink="http://www.w3.org/1999/xlink" x="0px" y="0px"
	 viewBox="0 0 150 150" style="enable-background:new 0 0 150 150;" xml:space="preserve">
<style type="text/css">
	.st0{fill:none;}
	.st1{fill:none;stroke:#353535;stroke-width:3;stroke-linecap:round;stroke-linejoin:round;stroke-miterlimit:10;}
	.st2{fill:none;stroke:#353535;stroke-miterlimit:10;}
	.st3{fill:#353535;}
	.st4{fill:#575790;}
	.st5{fill:#A60000;}
	.st6{fill:#002A73;}
	.st7{fill:#6B532F;}
	.st8{fill:#FC5500;}
	.st9{fill:#FFD8A4;}
	.st10{fill:#95725E;}
	.st11{fill:none;stroke:#000000;stroke-linecap:round;stroke-linejoin:round;stroke-miterlimit:10;}
	.st12{fill:none;stroke:#575790;stroke-width:3;stroke-linecap:round;stroke-linejoin:round;stroke-miterlimit:10;}
	.st13{fill:#FFFFFF;stroke:#333333;stroke-width:2;stroke-miterlimit:10;}
	.st14{fill:#333333;}
	.st15{fill:none;stroke:#333333;stroke-width:2;stroke-miterlimit:10;}
	.st16{fill:#424242;stroke:#FFFFFF;stroke-miterlimit:10;}
</style>
<g>
	<path class="st16" d="M20.7,93.5c-2.5-10.4,2.8-21.4,10.5-28.9c1-1,2.1-2,3.4-2.6c1.2-0.5,2.5-0.7,3.8-0.8C45.4,61,51.9,64,58,67.2
		c3,1.6,6.1,3.3,8.3,6c3.2,3.9,4.1,9.1,5,14c0.5,3,1,5.9,1.4,8.9c0.1,0.3,0.1,0.7-0.1,1c-0.2,0.4-0.6,0.5-1,0.6
		c-3.1,0.9-6.4,0.2-9.6,0c-3.2-0.2-6.8,0-9.1,2.3c-0.9,0.9-1.7,2.1-2.8,2.7c-1.8,1-3.9,0.4-5.8-0.2C36.4,99.8,28.5,96.1,20.7,93.5"
		/>
	<path class="st16" d="M20.7,93.5c3-2.3,8.3-6.9,11.3-9.2c1.6-1.2,3.4-2.5,5.3-2.2c1.6,0.3,2.8,1.5,4,2.4c2.1,1.6,4.6,2.7,7.3,3
		c0.7,0.1,1.5,0.1,2,0.6c0.6,0.4,0.9,1.2,1.1,1.9c1,3.5-0.5,6.8-0.1,11.2"/>
	<path class="st16" d="M24,74.4c3-1.8,7.4-2.4,9.7-4.7c0.4-0.4,0.9-1,1.1-1.4c0.2-0.4,0-1.3,0-1.7c0.1-1.2-0.3-2.2-0.2-3.5"/>
	<path class="st16" d="M33.2,70.5c0.8,4.3,1.4,7.4,2.5,11.7"/>
	<path class="st16" d="M34.8,67.7c1.5,1.6,4,1.6,6,2.4c1.7,0.7,3.1,2,4.9,2.4c2.1,0.5,4.3-0.3,6.4-0.9c3.9-1.2,6.3-1.7,10.4-1.4"/>
	<path class="st16" d="M51.6,88.4c1.6-1.4,3.2-2.8,4.8-4.1c0.6-0.5,1.3-1.1,2-1.4c0.7-0.3,1.5-0.3,2.3-0.3c1.4,0,2.8,0.1,4.2,0.4
		c0.3,0.1,0.6,0.1,0.9,0c0.2-0.1,0.3-0.3,0.5-0.4c1.1-1.5,1.4-1.9,2.6-3.4"/>
</g>
<g>
	<path class="st16" d="M109.4,38.2c4.5,2.6,9.1,5.2,13.6,7.8c1.7,1,3.6,2.2,4.3,4.1c0.4,1.2,0.2,2.4,0.1,3.7
		c-1.3,10-2.6,19.9-4,29.9c-0.1,0.8-0.2,1.7-0.8,2.2c-1.1,1-3,0.3-4.2,1.2c-0.9,0.7-1,2-1.6,2.9c-1.2,1.6-3.6,1.3-5.5,1
		c-6.8-1-13.8-0.3-20.3,2c-0.9,0.3-1.9,0.7-2.9,0.6c-0.8-0.1-1.6-0.4-2.3-0.8c-3.5-1.7-7-3.3-10.5-5c-0.5-0.2-1-0.5-1.2-1
		c-0.2-0.5-0.1-1,0.1-1.5c1.3-4.7,3-10.3-0.1-14c-1.2-1.4-3-2.3-3.9-4c-0.8-1.5-0.7-3.3-0.5-4.9c0.3-2.8,0.7-5.6,1.3-8.4
		c0.1-0.6,0.3-1.3,0.7-1.7c0.6-0.5,1.5-0.5,2.3-0.7c1.8-0.3,3.4-1.3,4.9-2.3C88.4,43.3,98.2,39.3,109.4,38.2"/>
	<path class="st16" d="M108.5,38.7c1.7,5.9,3.7,11.9,4.7,18c0.1,0.3,0.1,0.7,0.4,1c0.3,0.3,0.7,0.3,1.1,0.3c1.4,0,2.7-0.2,4.1-0.5
		c0.3,3.5,1.2,7,2.5,10.4c1.5,3.8,2.7,7.6,2.7,11.7"/>
	<path class="st16" d="M109.2,45.5c-4.5,0.1-10.1,1.6-13.6,4.3c-0.6,0.5-1.3,1.1-2.1,1.3c-0.6,0.2-1.3,0.1-1.9,0.1
		c-6.6-0.3-13.2,0-19.7,1"/>
	<path class="st16" d="M97.2,49.8c2.4,3,4.5,4.7,7.6,6.8c-1.9,1-3.9,1.9-5.8,2.9c-0.7,0.3-1.4,0.7-1.7,1.4c-0.3,0.6-0.1,1.4,0,2.1
		c0.6,2.7,1.4,5.3,2.2,7.9c0.2,0.5,0.4,1.1,0.7,1.5c0.4,0.4,0.9,0.6,1.5,0.8c4.2,1.4,8.5,2.5,12.8,3.3c0.4,0.1,0.9,0.2,1.2,0.5
		c0.2,0.3,0.3,0.6,0.3,0.9c0.4,3.5,0.8,7,1.2,10.6"/>
	<path class="st16" d="M97.6,65.2c-4-0.2-8.1-0.5-12.1-0.7c-1.2-0.1-2.5-0.1-3.4,0.7c-0.7,0.6-0.9,1.6-1.1,2.5
		c-1.1,4.8-1.9,7.4-5.1,11.2"/>
	<path class="st16" d="M81.3,71.7c1.4-0.3,2.8,0.8,3,2.1c0.1,0.7-0.1,1.6,0.4,2.1c0.2,0.2,0.5,0.3,0.8,0.4c1.4,0.5,2.9,0.8,4.4,1
		c0.4,0.1,0.9,0.1,1.2,0.4c0.6,0.4,0.8,1.2,1,1.9c1.4,5.4,6.7,7.4,11.3,10.4"/>
</g>
<g>
	<path class="st16" d="M78.1,119.1c-1.6-1.5-3.2-3.1-4.8-4.6c-0.6-0.6-1.3-1.3-1.3-2.1c0-0.5,0.2-1,0.4-1.5c1.6-4,3.1-8,4.7-11.9
		c0.1-0.3,0.3-0.7,0.6-0.8c0.6-0.3,1.3,0.2,1.9-0.1c0.4-0.2,0.6-0.7,1-1c0.7-0.5,1.6-0.2,2.4,0.1c2.7,1.1,5.7,1.6,8.6,1.3
		c0.4,0,0.8-0.1,1.2,0c0.3,0.1,0.6,0.3,0.9,0.6c1.3,1.1,2.6,2.1,3.8,3.2c0.2,0.1,0.4,0.3,0.4,0.5c0,0.2-0.1,0.4-0.2,0.6
		c-1,1.8-2.3,3.9-1.4,5.8c0.3,0.7,1,1.3,1.2,2c0.2,0.7,0,1.4-0.3,2.1c-0.4,1.1-0.9,2.3-1.4,3.3c-0.1,0.2-0.2,0.5-0.5,0.6
		c-0.3,0.2-0.7,0.1-1,0c-0.8-0.1-1.5,0.2-2.3,0.4C87.3,119.2,82.9,119.8,78.1,119.1"/>
	<path class="st16" d="M78.6,119c-0.1-2.6-0.3-5.3-0.1-7.9c0-0.1,0-0.3-0.1-0.4c-0.1-0.1-0.3-0.2-0.4-0.2c-0.6-0.1-1.2-0.2-1.7-0.2
		c0.2-1.5,0.2-3,0-4.5c-0.2-1.7-0.3-3.4,0.1-5.1"/>
	<path class="st16" d="M78.9,116.1c1.8,0.4,4.3,0.4,6.1-0.4c0.3-0.1,0.6-0.3,1-0.3c0.3,0,0.5,0.1,0.8,0.2c2.7,0.8,5.5,1.4,8.2,1.6"
		/>
	<path class="st16" d="M84.3,115.6c-0.7-1.5-1.4-2.4-2.5-3.6c0.9-0.2,1.8-0.4,2.7-0.6c0.3-0.1,0.6-0.2,0.8-0.4
		c0.2-0.2,0.2-0.6,0.2-0.9c0-1.2,0-2.3-0.1-3.5c0-0.2,0-0.5-0.2-0.7c-0.1-0.2-0.3-0.3-0.5-0.5c-1.6-1-3.3-1.9-5-2.7
		c-0.2-0.1-0.4-0.2-0.4-0.3c-0.1-0.1,0-0.3,0-0.4c0.2-1.5,0.4-3,0.6-4.5"/>
	<path class="st16" d="M85.8,109.2c1.6,0.5,3.3,1,4.9,1.5c0.5,0.1,1,0.3,1.5,0c0.3-0.2,0.5-0.6,0.7-0.9c1-1.9,1.6-2.9,3.3-4.1"/>
	<path class="st16" d="M93.2,108.2c-0.6,0-1.1-0.6-1-1.2c0-0.3,0.2-0.6,0-0.9c-0.1-0.1-0.2-0.2-0.3-0.3c-0.5-0.3-1.1-0.6-1.7-0.9
		c-0.2-0.1-0.4-0.1-0.5-0.3c-0.2-0.2-0.2-0.6-0.2-0.9c0-2.4-2-3.7-3.6-5.5"/>
</g>
</svg>
