<?xml version="1.0" encoding="utf-8"?>
<!-- Generator: Adobe Illustrator 22.1.0, SVG Export Plug-In . SVG Version: 6.00 Build 0)  -->
<svg version="1.1" id="Layer_1" xmlns="http://www.w3.org/2000/svg" xmlns:xlink="http://www.w3.org/1999/xlink" x="0px" y="0px"
	 viewBox="0 0 330 190" style="enable-background:new 0 0 330 190;" xml:space="preserve">
<style type="text/css">
	.st0{fill:none;}
	.st1{fill:none;stroke:#353535;stroke-width:3;stroke-linecap:round;stroke-linejoin:round;stroke-miterlimit:10;}
	.st2{fill:none;stroke:#000000;stroke-linecap:round;stroke-linejoin:round;stroke-miterlimit:10;}
	.st3{fill:#353535;}
	.st4{fill:#575790;}
	.st5{fill:#A60000;}
	.st6{fill:#002A73;}
	.st7{fill:#6B532F;}
	.st8{fill:#FC5500;}
	.st9{fill:#FFD8A4;}
	.st10{fill:#95725E;}
	.st11{fill:none;stroke:#575790;stroke-width:3;stroke-linecap:round;stroke-linejoin:round;stroke-miterlimit:10;}
	.st12{fill:#FFFFFF;stroke:#333333;stroke-width:2;stroke-miterlimit:10;}
	.st13{fill:#333333;}
	.st14{fill:none;stroke:#333333;stroke-width:2;stroke-miterlimit:10;}
</style>
<g>
	<g>
		<path class="st3" d="M118.1,120.8c-2.8-0.4-7.8-1.2-5.2-6.3c1.6-3,5.8-3.1,8.7-3.2c7.4-0.2,14.9,1.7,22.3,2
			c13.9,0.7,27.9-0.4,41.8-0.8c7-0.2,14-0.2,21,0.3c2.8,0.2,5.6,0.5,8.4,0.8c1.3,0.1,2.7,0.1,3.9,0.5c3.3,1.1,3.7,5.3,0.4,6.8
			c-3.2,1.5-5,0-7,2.9c-2,3-3.6,6.3-5.4,9.5c-4.2,7.7-7.8,15.5-10.9,23.6c-1.2,3.3-1.8,3.8-5,4.4c-2.9,0.6-5.9,0.7-8.9,0.9
			c-14.1,0.8-28.4,0.6-42.5-0.6c-1.2-0.1-3.5,0-4.3-0.6c-2.3-1.5-3.8-6.6-4.9-8.9c-4.5-9.8-8.5-20.1-11.5-30.4
			c-0.5-1.8-3.4-1.1-2.9,0.8c3.1,10.8,7.3,21.5,12,31.7c2.2,4.7,3.6,9.6,9.1,10.2c16.2,1.9,33.6,2.1,49.9,0.4
			c2.5-0.2,5.4-0.4,7.7-1.4c3.1-1.5,3.9-5.1,4.9-8.1c3.4-10,9-19.8,14.5-28.9c1.3-2.1,1.1-1.7,3.6-2c2.2-0.3,4.5-1.6,5.9-3.3
			c2.5-3.1,1.1-7.7-2.4-9.4c-4.7-2.3-12.6-1.9-17.6-2.1c-8.9-0.4-17.8-0.2-26.6,0.2c-9.8,0.4-19.6,0.9-29.4,0.6
			c-4.8-0.1-9.6-0.4-14.4-1c-4.8-0.6-9.6-1.5-14.4-1c-4.3,0.5-9,2.4-9.7,7.3c-0.7,5,3.8,7.3,8,7.9
			C119.2,123.9,120.1,121,118.1,120.8L118.1,120.8z"/>
	</g>
</g>
<g>
	<g>
		<path class="st3" d="M136,123.6c-0.1,6,0.5,11.9,2,17.6c1.3,4.7,3.1,10.9,6.7,14.3c1.4,1.3,3.5-0.8,2.1-2.1
			c-3.7-3.5-5.2-9.9-6.4-14.7c-1.2-5-1.6-10-1.5-15.1C139,121.7,136,121.7,136,123.6L136,123.6z"/>
	</g>
</g>
<g>
	<g>
		<path class="st3" d="M152.8,122.9c0.3,11.1,0.9,22.2,6.4,32.1c0.9,1.7,3.5,0.2,2.6-1.5c-5.2-9.4-5.7-20.1-6-30.6
			C155.8,121,152.8,121,152.8,122.9L152.8,122.9z"/>
	</g>
</g>
<g>
	<g>
		<path class="st3" d="M195.2,122.3c-2,9.2-2.8,21.4-8.9,28.9c-1.2,1.5,0.9,3.6,2.1,2.1c6.7-8.2,7.5-20.3,9.7-30.3
			C198.5,121.2,195.6,120.4,195.2,122.3L195.2,122.3z"/>
	</g>
</g>
<g>
	<g>
		<path class="st3" d="M174.7,123.2c-0.1,10-1.4,19.8-3.9,29.4c-0.5,1.9,2.4,2.7,2.9,0.8c2.6-9.9,4-20,4-30.2
			C177.8,121.3,174.8,121.3,174.7,123.2L174.7,123.2z"/>
	</g>
</g>
<g>
	<g>
		<path class="st3" d="M133.7,115c10.2-14.8,23.1-27.6,32.2-43.3c2-3.3-3.2-6.4-5.2-3c-9.1,15.6-22,28.4-32.2,43.3
			C126.3,115.2,131.5,118.2,133.7,115L133.7,115z"/>
	</g>
</g>
<g>
	<g>
		<path class="st3" d="M203.8,111.5c-13.8-12.2-25.2-26.6-34-42.8c-1.8-3.4-7-0.4-5.2,3c9,16.6,20.7,31.5,34.9,44
			C202.5,118.3,206.7,114.1,203.8,111.5L203.8,111.5z"/>
	</g>
</g>
<g>
	<g>
		<path class="st3" d="M185.4,29.7c0.2,4.2,0.6,8.4,1.3,12.6c0.4,2.7,0.4,8.4,2.4,10.5c4.6,4.5,7.3-6.1,7.7-8.5
			c-0.8,0.2-1.7,0.4-2.5,0.7c1.9,1.7,6.9,10.8,10.1,5.5c1.4-2.3,0.4-5.8,0.4-8.3c0-4.5,0.3-9,0.8-13.4c0.2-1.9-2.8-1.9-3,0
			c-0.6,4.7-0.9,9.5-0.8,14.3c0,1.7,0.8,5.7-1.6,4.1c-1.3-0.9-2.5-3.1-3.7-4.2c-0.7-0.7-2.3-0.5-2.5,0.7c-0.2,1.1-1,7.3-2.7,6.6
			c-0.6-0.2-1-5.2-1.1-6c-0.8-4.8-1.3-9.6-1.5-14.4C188.3,27.8,185.3,27.8,185.4,29.7L185.4,29.7z"/>
	</g>
</g>
<g>
	<g>
		<path class="st3" d="M207.8,31.6c0.5,3.4,0.9,6.8,1.4,10.1c0.4,2.8,0.3,6.7,1.6,9.3c1.7,3.4,6.1,2.7,9.1,1.7
			c1.8-0.6,1-3.5-0.8-2.9c-2.8,1-4.8,1-6-1.8c-0.6-1.5-0.5-3.8-0.8-5.5c-0.5-3.9-1.1-7.8-1.6-11.7C210.5,28.9,207.6,29.7,207.8,31.6
			L207.8,31.6z"/>
	</g>
</g>
<g>
	<g>
		<path class="st3" d="M210.1,32.6c2.7,1,5.5,1.1,8.3,0.4c1.9-0.5,1.1-3.4-0.8-2.9c-2.3,0.6-4.5,0.4-6.7-0.4
			C209.1,29,208.3,31.9,210.1,32.6L210.1,32.6z"/>
	</g>
</g>
<g>
	<g>
		<path class="st3" d="M213,42.7c1.5,0.2,3,0,4.4-0.5c0.8-0.3,1.3-1,1-1.8c-0.2-0.7-1.1-1.3-1.8-1c-1.2,0.4-2.3,0.6-3.6,0.4
			c-0.8-0.1-1.5,0.8-1.5,1.5C211.5,42.1,212.2,42.6,213,42.7L213,42.7z"/>
	</g>
</g>
<g>
	<g>
		<path class="st3" d="M226.8,50.9c0.6-4.8-0.3-9.3-1.1-14.1c-0.3-1.7-1.5-4.6,1.9-4.6c1.3,0,2.3,1.6,2.2,2.6
			c-0.1,1.9-2.8,1.7-4.1,3.1c-0.7,0.8-0.5,2.2,0.7,2.5c2.6,0.6,7.4,1.2,7.5,4.4c0.1,3.2-4.3,4.2-7,4.3c-1.9,0-1.9,3,0,3
			c3.7,0,10.4-2.1,10.9-6.6c0.6-5.2-7.1-7-10.6-7.9c0.2,0.8,0.4,1.7,0.7,2.5c1.7-2,6.8-1.6,6.5-5.5c-0.2-2.8-5.4-5.6-7.7-6
			c-3.2-0.5-4.5,2.1-4.3,5c0.3,5.8,2.2,11.3,1.5,17.3C223.6,52.8,226.6,52.8,226.8,50.9L226.8,50.9z"/>
	</g>
</g>
<g>
	<g>
		<path class="st3" d="M245.8,27c-5.7-1.6-9,4.8-6.5,9.6c1,1.9,2.6,2.6,4.7,2.9c0.5,0.1,1.2-0.5,1.7-0.4c1.8,0.4,3.4,2.1,3.8,3.8
			c1.2,4.5-3.9,5.4-7.1,5.7c-1.9,0.2-1.9,3.2,0,3c5.3-0.4,11-1.5,10.3-8c-0.3-2.4-1.5-5-3.5-6.4c-0.7-0.5-1.5-1-2.4-1.1
			c-0.4,0-0.9,0.2-1.2,0.1c-1,0.3-1.7-0.1-2.3-1.3c-2.8-1.5-2.2-3.2,1.8-4.9C246.8,30.4,247.6,27.5,245.8,27L245.8,27z"/>
	</g>
</g>
<g>
	<g>
		<path class="st3" d="M255,27.4c1.4,7.4,1.6,14.8,0.5,22.2c-0.3,1.9,2.6,2.7,2.9,0.8c1.2-8,1-15.9-0.5-23.8
			C257.5,24.8,254.6,25.6,255,27.4L255,27.4z"/>
	</g>
</g>
<g>
	<g>
		<path class="st3" d="M259.8,39.5c1.3-0.2,2.7-0.3,4-0.5c0.8-0.1,1.5-0.6,1.5-1.5c0-0.7-0.7-1.6-1.5-1.5c-1.3,0.2-2.7,0.3-4,0.5
			c-0.8,0.1-1.5,0.6-1.5,1.5C258.3,38.7,258.9,39.6,259.8,39.5L259.8,39.5z"/>
	</g>
</g>
<g>
	<g>
		<path class="st3" d="M263.8,26.5c1.7,7.4,1.7,14.9,1.6,22.4c0,1.9,3,1.9,3,0c0.1-7.8,0-15.5-1.7-23.2
			C266.3,23.9,263.4,24.7,263.8,26.5L263.8,26.5z"/>
	</g>
</g>
<g>
	<g>
		<path class="st3" d="M278.7,25.4c-5.4,1.7-6.4,7.3-7.3,12.2c-0.9,5.2-0.1,10.2,5.8,11.9c4.9,1.4,7.4-2.6,8.1-6.9
			c0.5-3.2,1-6.7,0.5-9.9c-0.1-1-0.4-2.1-0.9-2.9c-0.6-1-1.9-1.6-2.3-2.6c-0.7-1.8-3.6-1-2.9,0.8c1,2.5,2.9,2.8,3.2,5.9
			c0.3,3,0,6.8-0.8,9.7c-0.8,3-5.1,4-6.9,1.2c-1.5-2.2-1-5.6-0.6-8c0.6-3.3,1.2-7.4,4.9-8.6C281.4,27.8,280.6,24.9,278.7,25.4
			L278.7,25.4z"/>
	</g>
</g>
<g>
	<g>
		<path class="st3" d="M33.4,20.7c1.4,9.8,2.1,19.6,2,29.5c0,1.9,3,1.9,3,0c0.1-10.2-0.6-20.3-2.1-30.3C36,18,33.1,18.8,33.4,20.7
			L33.4,20.7z"/>
	</g>
</g>
<g>
	<g>
		<path class="st3" d="M43.9,19.2c0.5,6.8,0,13.3-6.9,16.5c-1,0.5-0.9,2.1,0,2.6c2.4,1.3,4.8,2.6,6.5,4.8c1.4,1.9,1.8,4.3,3,6.3
			c1.6,2.4,3.7,3.3,6.5,2.9c1.9-0.3,1.1-3.2-0.8-2.9c-2.8,0.4-5.2-7-6.9-8.9c-1.9-2.1-4.4-3.5-6.8-4.8c0,0.9,0,1.7,0,2.6
			c7.9-3.7,9-11.2,8.4-19.1C46.8,17.3,43.8,17.3,43.9,19.2L43.9,19.2z"/>
	</g>
</g>
<g>
	<g>
		<path class="st3" d="M59.1,27.7c-5.6,1.8-6.2,7.7-6.9,12.8c-0.6,4.6,1.9,8.2,6.5,9.3c4.6,1.1,7.2-2.3,7.8-6.5
			c0.4-2.9,0.7-6.6-0.1-9.5c-0.2-0.9-0.6-1.8-1.2-2.6c-0.7-0.9-1.9-1.2-2.4-2.2c-0.9-1.7-3.5-0.2-2.6,1.5c1.1,2.2,3.3,3,3.5,5.9
			c0.1,2.2,0.8,7.5-0.9,9.2c-1.3,0.4-2.6,0.8-3.9,1.2c-1.1-0.4-2.1-1-2.9-1.8c-1.5-1.9-0.8-4.4-0.5-6.5c0.5-3.1,0.9-6.7,4.4-7.9
			C61.8,30,61,27.1,59.1,27.7L59.1,27.7z"/>
	</g>
</g>
<g>
	<g>
		<path class="st3" d="M73.2,50.5c0.6-5.2-0.4-10.1-1.1-15.2c-0.3-1.9-1.7-5.2,2.2-5.1c1.5,0.1,2.5,1.8,2.4,2.9
			c-0.1,2.2-3,1.8-4.4,3.5c-0.7,0.8-0.5,2.2,0.7,2.5c2.9,0.7,8.1,1.3,8.2,4.9c0.1,3.6-4.7,4.7-7.7,4.8c-1.9,0-1.9,3,0,3
			c3.9,0,11.2-2.2,11.7-7.1c0.7-5.5-7.7-7.5-11.4-8.4c0.2,0.8,0.4,1.7,0.7,2.5c1.8-2.1,7.3-1.8,7-5.9c-0.2-3-5.8-6-8.3-6.4
			c-3.4-0.5-4.7,2.2-4.6,5.3c0.4,6.3,2.4,12.3,1.6,18.7C69.9,52.4,73,52.4,73.2,50.5L73.2,50.5z"/>
	</g>
</g>
<g>
	<g>
		<path class="st3" d="M87.3,27.5c-0.2,3.4,1,6.5,1.2,9.9c0.2,3.4-0.5,6.9-0.1,10.3c0.6,4.3,5,3.8,8.7,4.5c1.9,0.3,2.7-2.6,0.8-2.9
			c-1.2-0.2-5.4-0.3-6.2-1.1c-1-1-0.2-5.2-0.2-6.4c0.1-4.7-1.6-9.6-1.2-14.1C90.5,25.6,87.5,25.6,87.3,27.5L87.3,27.5z"/>
	</g>
</g>
<g>
	<g>
		<path class="st3" d="M89.3,28.5c1.5,0.2,3,0.4,4.5,0.6c0.8,0.1,1.5-0.8,1.5-1.5c0-0.9-0.7-1.4-1.5-1.5c-1.5-0.2-3-0.4-4.5-0.6
			c-0.8-0.1-1.5,0.8-1.5,1.5C87.8,27.9,88.5,28.4,89.3,28.5L89.3,28.5z"/>
	</g>
</g>
<g>
	<g>
		<path class="st3" d="M92.5,40.9c1.2-0.5,2.4-0.8,3.7-1c0.8-0.1,1.2-1.1,1-1.8c-0.2-0.9-1-1.2-1.8-1c-1.5,0.2-3,0.7-4.4,1.3
			c-0.7,0.3-0.9,1.4-0.5,2.1C90.9,41.2,91.8,41.3,92.5,40.9L92.5,40.9z"/>
	</g>
</g>
<g>
	<g>
		<path class="st3" d="M106.7,26.3c-5.9-1.4-8.6,5.3-6.2,10.1c1,2,2.7,2.8,4.8,3c0.6,0,1.1-0.5,1.6-0.4c2.4,0.2,4.2,2.5,4.3,4.8
			c0.2,4.1-4.1,5-7.3,5.4c-1.9,0.3-1.1,3.2,0.8,2.9c5.8-0.9,11-2.7,9.3-9.6c-0.5-2.2-1.8-4.6-3.8-5.8c-0.9-0.6-1.5-0.6-2.5-0.9
			c-0.6,0.1-1.1,0.2-1.6,0.3c-4.6-1-4.7-3.3-0.3-6.8C107.8,29.7,108.6,26.8,106.7,26.3L106.7,26.3z"/>
	</g>
</g>
<g>
	<g>
		<path class="st3" d="M151.3,29.1c-0.8,7.3,0.9,14.3,1.5,21.6c0.1,1.9,3.1,1.9,3,0c-0.5-7.2-2.3-14.3-1.5-21.6
			C154.5,27.2,151.5,27.2,151.3,29.1L151.3,29.1z"/>
	</g>
</g>
<g>
	<g>
		<path class="st3" d="M60.8,24.1c-1.4,9.6-3.3,19.1-5.7,28.6c-0.5,1.9,2.4,2.7,2.9,0.8c2.4-9.4,4.3-18.9,5.7-28.6
			C64,23,61.1,22.2,60.8,24.1L60.8,24.1z"/>
	</g>
</g>
<g>
	<g>
		<path class="st3" d="M293.6,50.7c-1.7-8.3-2.5-16.7-2.4-25.1c0-1.9-3-1.9-3,0c-0.1,8.8,0.8,17.4,2.5,25.9
			C291.1,53.3,294,52.5,293.6,50.7L293.6,50.7z"/>
	</g>
</g>
<g>
	<g>
		<path class="st3" d="M289.3,26.3c2.7,0.7,5.9,2.5,6.9,5.4c0.8,2.4-0.3,3.3-2.1,4.5c-1.4,0.8-2.7,1.6-4.1,2.4
			c-1.7,1-0.1,3.6,1.5,2.6c3.5-2.1,9.3-4.2,8-9.3c-1.1-4.4-5.1-7.4-9.3-8.5C288.3,23,287.5,25.9,289.3,26.3L289.3,26.3z"/>
	</g>
</g>
</svg>
