<?xml version="1.0" encoding="utf-8"?>
<!-- Generator: Adobe Illustrator 22.1.0, SVG Export Plug-In . SVG Version: 6.00 Build 0)  -->
<svg version="1.1" id="Layer_1" xmlns="http://www.w3.org/2000/svg" xmlns:xlink="http://www.w3.org/1999/xlink" x="0px" y="0px"
	 viewBox="0 0 330 190" style="enable-background:new 0 0 330 190;" xml:space="preserve">
<style type="text/css">
	.st0{fill:none;}
	.st1{fill:none;stroke:#353535;stroke-width:3;stroke-linecap:round;stroke-linejoin:round;stroke-miterlimit:10;}
	.st2{fill:none;stroke:#000000;stroke-linecap:round;stroke-linejoin:round;stroke-miterlimit:10;}
	.st3{fill:#353535;}
	.st4{fill:#575790;}
	.st5{fill:#A60000;}
	.st6{fill:#002A73;}
	.st7{fill:#6B532F;}
	.st8{fill:#FC5500;}
	.st9{fill:#FFD8A4;}
	.st10{fill:#95725E;}
	.st11{fill:none;stroke:#575790;stroke-width:3;stroke-linecap:round;stroke-linejoin:round;stroke-miterlimit:10;}
	.st12{fill:#FFFFFF;stroke:#333333;stroke-width:2;stroke-miterlimit:10;}
	.st13{fill:#333333;}
	.st14{fill:none;stroke:#333333;stroke-width:2;stroke-miterlimit:10;}
</style>
<g>
	<g>
		<path class="st3" d="M127.8,164.4c0.5-16.5-1.8-33.3-4.8-49.5c-0.7-3.7-2.8-8.7-1.3-12.2c1.2-2.9,3.6-2.7,6.5-3.4
			c2.7-0.6,5.5-1.1,8.2-1.5c10.9-1.7,22.1-2.1,33.1-1.8c10.4,0.2,20.7,1.1,31,2.1c5,0.5,13.1-0.2,15.1,5.3c1.9,5.1,3.2,10.6,4.4,16
			c2.2,10.4,3.1,21,2.8,31.6c-0.1,2.5-0.2,4.9-0.4,7.3c-0.1,1.5,0,2.9-0.9,4.1c-1.3,1.7-1.4,1.4-3.7,1.3c-5.6-0.1-11.2-0.1-16.7-0.2
			c-25-0.2-49.9-0.5-74.9-0.7c-1.9,0-1.9,3,0,3c26.3,0.2,52.5,0.5,78.8,0.7c3.3,0,6.6,0.1,9.9,0.1c2.2,0,5,0.6,7.1,0
			c3.4-1,3.1-4.5,3.4-7.5c1-11.7,0.5-23.6-1.4-35.2c-0.9-5.4-2.1-10.8-3.7-16.1c-1.1-3.7-2-9-5.8-10.9c-3.7-1.8-8.9-1.4-13-1.8
			c-6.3-0.6-12.5-1.2-18.8-1.6c-12.5-0.8-25-1-37.4,0.1c-5.7,0.5-11.4,1.3-17,2.5c-3.1,0.6-8.4,1-10.2,4.2
			c-1.8,3.2,0.6,8.4,1.2,11.7c1.1,5.5,2,11,2.8,16.5c1.7,11.8,2.9,23.8,2.6,35.8C124.7,166.4,127.7,166.4,127.8,164.4L127.8,164.4z"
			/>
	</g>
</g>
<g>
	<g>
		<path class="st3" d="M143.8,163.1c1.7-6.8,2.4-13.8,2.3-20.8c0-3.8-0.2-7.5-0.4-11.3c-0.1-1.3-0.9-4.4-0.4-5.6
			c1.5-3.4,5.8-2.8,8.7-2.5c3.9,0.5,8.9,1.2,10.3,5.2c1.1,3.4,0.9,8.1,1.2,11.7c0.6,7.9,0.7,15.7,0.6,23.6c0,1.9,3,1.9,3,0
			c0.3-10.7-0.2-21.4-1.4-32.1c-0.3-2.5-0.2-6.2-2.3-8.1c-2.5-2.2-7.9-2.9-11-3.3c-3.1-0.4-7.6-0.6-10.3,1.4
			c-2.4,1.7-1.8,4.3-1.6,6.9c0.7,11.5,1.3,22.9-1.6,34.1C140.4,164.1,143.3,164.9,143.8,163.1L143.8,163.1z"/>
	</g>
</g>
<g>
	<g>
		<path class="st3" d="M172.8,110.3c2.5,10.8,3.8,21.9,5.4,32.8c0.3,2.2,0.1,5.2,1.8,6.8c1.6,1.5,5.2,1.5,7.2,1.7
			c4.2,0.4,8.5,0.2,12.7,0c4.6-0.2,12.1,1.9,13.4-4c1.7-7.4-0.9-16.8-2.8-24c-1.1-4.2-2.1-9.2-4-13.1c-0.9-1.7-1.6-1.9-3.4-2.3
			c-4.3-0.9-9.3-0.7-13.7-1c-5.2-0.4-10.4-0.8-15.7-1.2c-1.9-0.1-1.9,2.9,0,3c7.2,0.5,14.4,1.1,21.5,1.6c4.7,0.4,8.4,0.4,10,5.6
			c1,3.3,2.1,6.7,2.9,10.1c1,3.8,1.8,7.7,2.1,11.7c0.3,2.8,1.6,9.2-1.7,10.6c-1,0.4-2.9-0.1-4-0.1c-1.8,0-3.7,0.1-5.5,0.2
			c-3.3,0.1-6.7,0.3-10,0.1c-1.6-0.1-6.2,0-7.2-1.4c-0.4-0.5-0.3-2.2-0.4-2.8c-0.5-3.5-1-7-1.5-10.6c-1.2-8.2-2.3-16.5-4.2-24.6
			C175.2,107.6,172.3,108.4,172.8,110.3L172.8,110.3z"/>
	</g>
</g>
<g>
	<g>
		<path class="st3" d="M148.7,145.3c1.9,0,1.9-3,0-3C146.8,142.3,146.8,145.3,148.7,145.3L148.7,145.3z"/>
	</g>
</g>
<g>
	<path class="st3" d="M120.6,69.7c-2.1,10.3-8.7,29.5,5.1,29.9c13,0.4,12.2-18.2,11.8-29.4"/>
	<g>
		<path class="st3" d="M119.1,69.3c-1.8,8.6-9.3,30,5.3,31.7c16.1,1.9,14.9-20.5,14.6-30.8c-0.1-1.9-3.1-1.9-3,0
			c0.3,8.1,2.2,29.5-11.1,27.8c-11.5-1.5-4.3-21.1-2.8-27.9C122.4,68.2,119.5,67.4,119.1,69.3L119.1,69.3z"/>
	</g>
</g>
<g>
	<path class="st3" d="M139.8,69.2c-2.6,9.5-8.7,31.2,6.5,31.1c15.7,0,13.2-18.7,13.1-30.3"/>
	<g>
		<path class="st3" d="M138.4,68.8c-2.5,9.1-9,30.7,5.9,32.9c18.5,2.7,16.9-19.8,16.8-31.7c0-1.9-3-1.9-3,0
			c0.1,9.7,2.8,30.3-12.7,28.8c-12.7-1.2-6-21.7-4-29.2C141.8,67.7,138.9,66.9,138.4,68.8L138.4,68.8z"/>
	</g>
</g>
<g>
	<path class="st3" d="M162.9,69.4c-0.4,7.1-4.8,13.6-3.1,20.9c1.5,6.3,6.2,11.4,11.7,9.9c11-2.9,9.9-20.1,9.4-30.4"/>
	<g>
		<path class="st3" d="M161.4,69.4c-0.8,8.4-5.6,16-2,24.5c2.3,5.5,7.6,9.7,13.7,7.4c11.5-4.3,9.8-21.8,9.3-31.4
			c-0.1-1.9-3.1-1.9-3,0c0.4,8,2,20.2-4.2,26.5c-6.4,6.5-13.4-1-14.1-7.9c-0.7-6.4,2.7-12.7,3.3-19.1
			C164.6,67.5,161.6,67.5,161.4,69.4L161.4,69.4z"/>
	</g>
</g>
<g>
	<path class="st3" d="M182.3,70.3c-0.8,10.1-4.8,30.2,10.1,30.3c16.3,0.1,14.5-17.7,12.6-29.5"/>
	<g>
		<path class="st3" d="M180.8,70.3c-0.9,10.6-4.7,31.5,11.6,31.8c17.3,0.3,16-19.4,14.1-31.4c-0.3-1.9-3.2-1.1-2.9,0.8
			c1.6,10.1,3.5,29.3-12.3,27.6c-12.5-1.3-8.1-20.5-7.4-28.7C184,68.3,181,68.4,180.8,70.3L180.8,70.3z"/>
	</g>
</g>
<g>
	<path class="st3" d="M204.5,70.1c-0.7,11.3-3.3,32.5,9.3,31.4c12.9-1.1,10.9-17.8,9.3-30.2"/>
	<g>
		<path class="st3" d="M203,70.1c-0.6,8.6-4.5,31.2,8.7,32.8c17.1,2.2,14.2-21.7,12.9-31.7c-0.2-1.9-3.2-1.9-3,0
			c0.7,5.6,1.5,11.4,1,17.1c-0.5,5.9-4.1,13.8-11.6,11.4c-9.1-2.9-5.5-22.7-5-29.7C206.2,68.1,203.2,68.1,203,70.1L203,70.1z"/>
	</g>
</g>
<g>
	<g>
		<path class="st3" d="M120,73.7c7.7,1.8,16.4-0.4,24.3-0.5c8.7,0,17.4,0.4,26.1,0.7c17.6,0.4,35.2,0.6,52.7,1.2
			c3.9,0.1,3.9-5.9,0-6c-16.9-0.6-33.9-0.7-50.8-1.1c-8.4-0.2-16.8-0.6-25.1-0.7c-4.2,0-8.4,0-12.6,0.3c-4.3,0.3-8.8,1.4-13.1,0.4
			C117.8,67.1,116.2,72.8,120,73.7L120,73.7z"/>
	</g>
</g>
<g>
	<path class="st3" d="M119.7,69.7c-2.8,6-7.3,13.1-9,19.7c-0.4,1.6-0.8,3.3-0.7,5s0.6,3.4,1.7,4.4c1.9,1.6,4.5,0.6,6.5-0.9"/>
	<g>
		<path class="st3" d="M118.4,68.9c-3.7,7.6-9.7,15.8-9.9,24.6c-0.2,6.7,5,9.2,10.4,5.7c1.6-1.1,0.1-3.6-1.5-2.6c-2,1.8-4,1.1-6-2.3
			c0-1.6,0.3-3.1,0.7-4.6c0.6-2.6,1.7-5,2.8-7.4c1.9-4.1,4.1-7.9,6.1-11.9C121.9,68.7,119.3,67.2,118.4,68.9L118.4,68.9z"/>
	</g>
</g>
<g>
	<path class="st3" d="M225.7,72.1c1.9,7,3.4,14.2,4.4,21.5c0.3,2.3,0.6,4.8-0.2,6.9c-0.8,1.9-2.5,3.2-4.2,3.1
		c-1.7,0-3.4-1.3-4.2-3.2"/>
	<g>
		<path class="st3" d="M224.2,72.5c1.1,4.1,2.1,8.3,2.9,12.4c0.4,1.8,0.7,3.6,1,5.4c0.3,1.7,0.5,3.3,0.7,5c0.7,3.2-1.3,4.6-6,4.3
			c-1-1.7-3.5-0.2-2.6,1.5c3,5.2,9.6,4.9,11.3-1.2c1.1-3.9-0.2-8.4-0.9-12.3c-0.9-5.4-2.2-10.7-3.6-16
			C226.6,69.8,223.7,70.6,224.2,72.5L224.2,72.5z"/>
	</g>
</g>
<g>
	<g>
		<path class="st3" d="M50.2,20.8c1.4,9.8,2.1,19.6,2,29.5c0,1.9,3,1.9,3,0c0.1-10.2-0.6-20.3-2.1-30.3
			C52.8,18.1,49.9,18.9,50.2,20.8L50.2,20.8z"/>
	</g>
</g>
<g>
	<g>
		<path class="st3" d="M60.7,19.4c0.5,6.8,0,13.3-6.9,16.5c-1,0.5-0.9,2.1,0,2.6c2.4,1.3,4.8,2.6,6.5,4.8c1.4,1.9,1.8,4.3,3,6.3
			c1.6,2.4,3.7,3.3,6.5,2.9c1.9-0.3,1.1-3.2-0.8-2.9c-2.8,0.4-5.2-7-6.9-8.9c-1.9-2.1-4.4-3.5-6.8-4.8c0,0.9,0,1.7,0,2.6
			c7.9-3.7,9-11.2,8.4-19.1C63.5,17.5,60.5,17.4,60.7,19.4L60.7,19.4z"/>
	</g>
</g>
<g>
	<g>
		<path class="st3" d="M75.9,27.8c-5.6,1.8-6.2,7.7-6.9,12.8c-0.6,4.6,1.9,8.2,6.5,9.3c4.6,1.1,7.2-2.3,7.8-6.5
			c0.4-2.9,0.7-6.6-0.1-9.5c-0.2-0.9-0.6-1.8-1.2-2.6c-0.7-0.9-1.9-1.2-2.4-2.2c-0.9-1.7-3.5-0.2-2.6,1.5c1.1,2.2,3.3,3,3.5,5.9
			c0.1,2.2,0.8,7.5-0.9,9.2c-1.3,0.4-2.6,0.8-3.9,1.2c-1.1-0.4-2.1-1-2.9-1.8c-1.5-1.9-0.8-4.4-0.5-6.5c0.5-3.1,0.9-6.7,4.4-7.9
			C78.5,30.1,77.7,27.2,75.9,27.8L75.9,27.8z"/>
	</g>
</g>
<g>
	<g>
		<path class="st3" d="M90,49.2c0.3-2.9,0.2-5.8-0.1-8.8c-0.3-2.6-2-7.4-1.3-9.7c-0.4-0.9,0-1.5,1.1-1.7c0.8-1.1,1.5-1.1,2.3,0
			c2.4,1,2.3,2.8,0.2,4.1c-1.7,1-2.2,0.6-3.4,2.2c-0.6,0.8,0.1,2,0.9,2.2c2.4,0.7,6.7,1.4,7.9,4.1c1.7,3.8-4.7,5.9-7.4,6
			c-1.9,0-1.9,3,0,3c3.9-0.1,10.7-2.7,10.9-7.5c0.3-5.3-6.8-7.4-10.6-8.5c0.3,0.7,0.6,1.5,0.9,2.2c0.8-1.1,3.3-1.3,4.4-2.3
			c0.8-0.7,1.8-1.8,1.9-3c0.2-3-5.2-6.4-7.6-6.8c-3.2-0.6-4.6,1.7-4.6,4.6c0,6.7,2.2,13.2,1.5,20C86.8,51.1,89.8,51.1,90,49.2
			L90,49.2z"/>
	</g>
</g>
<g>
	<g>
		<path class="st3" d="M103.1,25.6c-0.2,3.4,1,6.5,1.2,9.9c0.2,3.4-0.5,6.9-0.1,10.3c0.6,4.3,5,3.8,8.7,4.5c1.9,0.3,2.7-2.6,0.8-2.9
			c-1.2-0.2-5.4-0.3-6.2-1.1c-1-1-0.2-5.2-0.2-6.4c0.1-4.7-1.6-9.6-1.2-14.1C106.2,23.7,103.2,23.7,103.1,25.6L103.1,25.6z"/>
	</g>
</g>
<g>
	<g>
		<path class="st3" d="M105,26.6c1.5,0.2,3,0.4,4.5,0.6c0.8,0.1,1.5-0.8,1.5-1.5c0-0.9-0.7-1.4-1.5-1.5c-1.5-0.2-3-0.4-4.5-0.6
			c-0.8-0.1-1.5,0.8-1.5,1.5C103.5,26,104.2,26.5,105,26.6L105,26.6z"/>
	</g>
</g>
<g>
	<g>
		<path class="st3" d="M108.3,38.1c1.2-0.5,2.4-0.8,3.7-1c0.8-0.1,1.2-1.1,1-1.8c-0.2-0.9-1-1.2-1.8-1c-1.5,0.2-3,0.7-4.4,1.3
			c-0.7,0.3-0.9,1.4-0.5,2.1C106.7,38.4,107.5,38.5,108.3,38.1L108.3,38.1z"/>
	</g>
</g>
<g>
	<g>
		<path class="st3" d="M123.1,23.1c-6.1-1.5-8.5,5.8-6.2,10.5c1,2.1,2.6,2.8,4.8,3.1c0.6,0.1,1.1-0.5,1.6-0.5
			c2.5,0.4,4.2,2.8,4.3,5.1c0.2,4.2-3.9,5.3-7.3,5.8c-1.9,0.3-1.1,3.2,0.8,2.9c6.3-1,11.3-3.4,9.2-10.7c-0.7-2.2-2.2-5-4.5-5.9
			c-0.7-0.3-1.4-0.3-2.1-0.4c-1.7,0.7-3.2,0.1-4.6-1.6c-1.1-3,0-4.8,3-5.4C124.2,26.4,125,23.6,123.1,23.1L123.1,23.1z"/>
	</g>
</g>
<g>
	<g>
		<path class="st3" d="M203.3,48.8c0-5.6-0.4-11.2-1.2-16.7c-0.2-1.3-0.4-2.5-0.6-3.8c-0.2-1.1-0.4-2.2-0.5-3.3c1.9,0,3.8,0,5.8,0
			c3.8,2.7-0.5,6.2-3.1,7.1c-1.5,0.5-1.4,2.4,0,2.9c3.7,1.4,7.7,1.3,7.7,6.7C211.3,45.8,207.5,48.5,203.3,48.8
			c-1.8,0.2-1.8,3.2,0.1,3.1c5.2-0.4,11-3.8,11-9.4c0-2.7-0.3-5.6-2.2-7.7c-2.2-2.4-4.9-1.7-7.7-2.8c0,1,0,1.9,0,2.9
			c3.3-1.2,7.3-2.8,6.7-6.8c-0.5-3.6-3.2-7.8-7-8.4c-3.5-0.6-6.1,1.8-6.2,5.3c-0.1,3.4,1.1,7,1.5,10.4c0.5,4.5,0.8,9,0.8,13.5
			C200.3,50.7,203.3,50.7,203.3,48.8L203.3,48.8z"/>
	</g>
</g>
<g>
	<g>
		<path class="st3" d="M216.3,27.4c0.2,5.5-0.3,11.7,0.7,17.1c0.7,3.5,4.1,5.8,7.5,6c3.2,0.2,5-1.8,5.3-4.9
			c0.5-5.8-0.6-12.1-1.8-17.8c-0.4-1.9-3.3-1.1-2.9,0.8c0.7,3.4,1.3,6.8,1.5,10.3c0.2,2.8,1.2,9.3-3.2,8.3
			c-5.4-1.2-3.9-15.5-4.1-19.9C219.2,25.5,216.2,25.5,216.3,27.4L216.3,27.4z"/>
	</g>
</g>
<g>
	<g>
		<path class="st3" d="M240.1,28.4c0.4,6.7,0.9,13.8,0.1,20.5c-0.2,1.9,2.8,1.9,3,0c0.8-6.7,0.3-13.8-0.1-20.5
			C243,26.5,240,26.5,240.1,28.4L240.1,28.4z"/>
	</g>
</g>
<g>
	<g>
		<path class="st3" d="M253.3,27.5c-0.3,3.9,0.9,7.7,0.7,11.6c-0.2,3.6-1.1,7-1,10.7c0.1,1.9,3.1,1.9,3,0c-0.1-3.6,0.8-7.1,1-10.7
			c0.2-3.9-1-7.7-0.7-11.6C256.4,25.6,253.4,25.6,253.3,27.5L253.3,27.5z"/>
	</g>
</g>
<g>
	<g>
		<path class="st3" d="M262.4,25.8c-0.1,8.1-0.2,16.3-0.3,24.4c0,1.9,3,1.9,3,0c0.1-8.1,0.2-16.3,0.3-24.4
			C265.4,23.9,262.4,23.9,262.4,25.8L262.4,25.8z"/>
	</g>
</g>
<g>
	<g>
		<path class="st3" d="M266.1,38c4.3-2.5,7.5-6.4,9.2-11.1c0.7-1.8-2.2-2.6-2.9-0.8c-1.5,4-4.2,7.2-7.9,9.3
			C262.9,36.4,264.4,39,266.1,38L266.1,38z"/>
	</g>
</g>
<g>
	<g>
		<path class="st3" d="M266.6,38.8c1.8,0.2,2.5,2.8,3.3,4.1c0.7,1.1,1.5,2,2.5,2.8c2.5,2,5.5,3.4,8.3,5c1.7,1,3.2-1.6,1.5-2.6
			c-3.5-2-8.2-3.8-10.1-7.6c-1.3-2.5-2.4-4.5-5.4-4.8C264.7,35.6,264.7,38.6,266.6,38.8L266.6,38.8z"/>
	</g>
</g>
<g>
	<g>
		<path class="st3" d="M77.6,24.3c-1.4,9.6-3.3,19.1-5.7,28.6c-0.5,1.9,2.4,2.7,2.9,0.8c2.4-9.4,4.3-18.9,5.7-28.6
			C80.7,23.2,77.8,22.4,77.6,24.3L77.6,24.3z"/>
	</g>
</g>
<g>
	<g>
		<path class="st3" d="M160.4,24.7c-0.8,8.6,0.9,17.1,1.5,25.6c0.1,1.9,3.1,1.9,3,0c-0.5-8.6-2.3-17-1.5-25.6
			C163.6,22.7,160.6,22.7,160.4,24.7L160.4,24.7z"/>
	</g>
</g>
<g>
	<g>
		<path class="st3" d="M233.8,27.2c4.8-1.2,10.8,0.1,15.7,0.4c1.9,0.1,1.9-2.9,0-3c-5.2-0.3-11.4-1.5-16.5-0.2
			C231.1,24.8,231.9,27.7,233.8,27.2L233.8,27.2z"/>
	</g>
</g>
</svg>
