<?xml version="1.0" encoding="utf-8"?>
<!-- Generator: Adobe Illustrator 22.1.0, SVG Export Plug-In . SVG Version: 6.00 Build 0)  -->
<svg version="1.1" id="Layer_1" xmlns="http://www.w3.org/2000/svg" xmlns:xlink="http://www.w3.org/1999/xlink" x="0px" y="0px"
	 viewBox="0 0 330 190" style="enable-background:new 0 0 330 190;" xml:space="preserve">
<style type="text/css">
	.st0{fill:none;}
	.st1{fill:none;stroke:#353535;stroke-width:3;stroke-linecap:round;stroke-linejoin:round;stroke-miterlimit:10;}
	.st2{fill:none;stroke:#000000;stroke-linecap:round;stroke-linejoin:round;stroke-miterlimit:10;}
	.st3{fill:#353535;}
	.st4{fill:#575790;}
	.st5{fill:#A60000;}
	.st6{fill:#002A73;}
	.st7{fill:#6B532F;}
	.st8{fill:#FC5500;}
	.st9{fill:#FFD8A4;}
	.st10{fill:#95725E;}
	.st11{fill:none;stroke:#575790;stroke-width:3;stroke-linecap:round;stroke-linejoin:round;stroke-miterlimit:10;}
	.st12{fill:#FFFFFF;stroke:#333333;stroke-width:2;stroke-miterlimit:10;}
	.st13{fill:#333333;}
	.st14{fill:none;stroke:#333333;stroke-width:2;stroke-miterlimit:10;}
</style>
<g>
	<g>
		<path class="st3" d="M105.5,163.8c1.2-20.7,0.6-41.6-1.3-62.2c-0.4-4.4-1.8-9.6-1.3-14c0.8-6.9,8.4-7.9,14-8.8
			c13.9-2.2,27.9-3.7,42-4.4c12.9-0.7,25.8-0.9,38.8-0.4c3.9,0.1,8.3,0,10.5,3.9c1.5,2.8,1.6,6.2,1.9,9.3c0.6,6.5,1.1,12.9,1.5,19.4
			c0.9,13.6,1.6,27.2,2,40.9c0.1,3,0.9,6-1,8.3c-1.9,2.3-5.4,2.7-8.2,3.1c-7.2,1.1-14.6,0.6-21.9,0.8c-14.2,0.4-28.4,1.9-42.7,2.4
			c-11.9,0.4-23.9-1.2-35.8,0.2c-1.9,0.2-1.9,3.2,0,3c12.5-1.5,25.1,0.3,37.7-0.3c14.9-0.6,29.7-2.2,44.6-2.4
			c6.3-0.1,12.6,0.1,18.9-0.9c4-0.7,10.4-1.5,11.5-6.2c0.6-2.5,0.1-5.6,0-8.1c-0.1-3.9-0.2-7.8-0.4-11.7c-0.3-7.8-0.7-15.6-1.2-23.4
			c-0.5-7.8-1.1-15.6-1.8-23.3c-0.4-4.6-0.4-10.3-3.4-14.2c-3.2-4-8.4-3.9-13.1-4c-8.1-0.3-16.2-0.3-24.2-0.1
			c-15.5,0.4-31,1.6-46.4,3.6c-7.7,1-22,0.8-25.5,9.7c-2.1,5.4,0.2,13.2,0.7,18.9c0.6,6.7,0.9,13.4,1.2,20.1
			c0.5,13.5,0.7,27.1-0.1,40.6C102.4,165.7,105.4,165.7,105.5,163.8L105.5,163.8z"/>
	</g>
</g>
<g>
	<g>
		<path class="st3" d="M205.8,120.3c14.3,0.4,28.5,0.7,42.8,1.1c3.9,0.1,3.9-5.9,0-6c-14.3-0.4-28.5-0.7-42.8-1.1
			C201.9,114.2,201.9,120.2,205.8,120.3L205.8,120.3z"/>
	</g>
</g>
<g>
	<g>
		<path class="st3" d="M233.5,106c2.4,2,4.7,4,7.1,6c0.8,0.7,7,4.9,7.1,6c0-0.3-2.2,1.7-2.2,1.8c-1.1,1.1-2,2.3-3,3.4
			c-2.2,2.5-4.5,5-6.7,7.5c-2.6,2.9,1.7,7.1,4.2,4.2c3.3-3.7,6.5-7.3,9.8-11c1.6-1.8,4.3-4,4.2-6.6c-0.1-2.8-2.9-4.5-4.8-6.1
			c-3.8-3.2-7.5-6.4-11.3-9.6C234.8,99.2,230.5,103.5,233.5,106L233.5,106z"/>
	</g>
</g>
<g>
	<g>
		<path class="st3" d="M104.5,83.6c6.4,9.4,14,17.7,23,24.5c4.8,3.7,10,6.9,15.3,9.7c3.2,1.7,8.1,5.5,11.9,5.2
			c3.2-0.3,6.4-3.1,8.8-4.9c4.9-3.6,9.5-7.6,14-11.6c10.1-8.8,19.7-18,29.2-27.4c1.4-1.4-0.7-3.5-2.1-2.1
			c-8.1,8-16.3,15.9-24.7,23.4c-4.1,3.7-8.3,7.3-12.6,10.8c-3.3,2.7-7,6.3-11,8c-4,1.6-9.8-2.8-13.4-4.8c-4.4-2.4-8.6-5-12.6-8
			c-9.1-6.7-16.8-15-23.2-24.4C106,80.5,103.4,82,104.5,83.6L104.5,83.6z"/>
	</g>
</g>
<g>
	<g>
		<path class="st3" d="M169.6,112.5c2.5,3.8,5.6,7.1,8.6,10.5c3.6,4.2,6.8,8.6,10.7,12.5c7.4,7.5,16.1,14.8,21.5,23.9
			c1,1.7,3.6,0.1,2.6-1.5c-5-8.4-12.7-15.1-19.5-22c-3.9-4-7.5-8-11-12.4c-3.4-4.3-7.4-8-10.4-12.6
			C171.2,109.3,168.6,110.8,169.6,112.5L169.6,112.5z"/>
	</g>
</g>
<g>
	<g>
		<path class="st3" d="M138.6,114.1c-6.8,5.7-11.6,14.7-16.5,22c-6.2,9.1-12.4,17.9-19.2,26.6c-1.2,1.5,0.9,3.6,2.1,2.1
			c6.5-8.3,12.6-16.6,18.4-25.4c5.1-7.6,10.2-17.2,17.3-23.2C142.2,115,140.1,112.9,138.6,114.1L138.6,114.1z"/>
	</g>
</g>
<g>
	<g>
		<path class="st3" d="M106,52.9c-1.7-8.3-2.5-16.7-2.4-25.1c0-1.9-3-1.9-3,0c-0.1,8.8,0.8,17.4,2.5,25.9
			C103.5,55.5,106.4,54.7,106,52.9L106,52.9z"/>
	</g>
</g>
<g>
	<g>
		<path class="st3" d="M101.7,28.5c2.7,0.7,5.9,2.5,6.9,5.4c0.8,2.4-0.3,3.3-2.1,4.5c-1.4,0.8-2.7,1.6-4.1,2.4
			c-1.7,1-0.1,3.6,1.5,2.6c3.5-2.1,9.3-4.2,8-9.3c-1.1-4.4-5.1-7.4-9.3-8.5C100.7,25.2,99.9,28.1,101.7,28.5L101.7,28.5z"/>
	</g>
</g>
<g>
	<g>
		<path class="st3" d="M118.7,51.1c-0.3-2.8-0.6-5.7-0.9-8.5c-0.3-2.7-1.8-6.7,2-7.1c4.2-0.4,4,4.6,4.3,7.6c0.3,2.7,0.7,5.4,1.1,8.1
			c0.3,1.9,3.2,1.1,2.9-0.8c-0.8-4.4-0.4-10-2.2-14.2c-1.1-2.5-3.5-4.5-6.4-4.1c-2.3,0.3-5.1,1.8-5.4,4.3c-0.2,2.1,0.4,4.7,0.6,6.8
			c0.3,2.6,0.5,5.2,0.8,7.8C115.9,53,118.9,53,118.7,51.1L118.7,51.1z"/>
	</g>
</g>
<g>
	<g>
		<path class="st3" d="M120,45.7c1.5-0.5,3-0.9,4.6-1c1.9-0.1,1.9-3.1,0-3c-1.9,0.1-3.7,0.5-5.4,1.1C117.4,43.4,118.2,46.3,120,45.7
			L120,45.7z"/>
	</g>
</g>
<g>
	<g>
		<path class="st3" d="M159.2,51.2c0.6-5.2-0.4-10.2-1.2-15.4c-0.3-2-1.7-5.3,2.3-5.2c1.5,0.1,2.5,1.8,2.5,3c-0.1,2.3-3,1.9-4.4,3.6
			c-0.7,0.8-0.5,2.2,0.7,2.5c2.9,0.7,8.2,1.3,8.3,4.9c0.1,3.6-4.8,4.8-7.8,4.8c-1.9,0-1.9,3,0,3c4,0,11.3-2.3,11.9-7.2
			c0.7-5.6-7.8-7.6-11.5-8.5c0.2,0.8,0.4,1.7,0.7,2.5c1.8-2.1,7.4-1.8,7.1-5.9c-0.2-3-5.8-6.1-8.4-6.4c-3.5-0.5-4.8,2.3-4.6,5.3
			c0.4,6.4,2.4,12.5,1.7,19C156,53.1,159,53.1,159.2,51.2L159.2,51.2z"/>
	</g>
</g>
<g>
	<g>
		<path class="st3" d="M173.1,27.7c0.5,3.7,1,7.4,1.5,11.2c0.4,3.1,0.3,7.4,1.7,10.2c1.9,3.6,6.6,2.9,9.8,1.7c1.8-0.6,1-3.5-0.8-2.9
			c-3.1,1.1-5.4,1.1-6.8-2.1c-0.7-1.6-0.6-4.2-0.8-6c-0.6-4.3-1.2-8.6-1.8-12.9C175.8,25,172.9,25.9,173.1,27.7L173.1,27.7z"/>
	</g>
</g>
<g>
	<g>
		<path class="st3" d="M175.5,28.7c2.9,1.1,6,1.2,9,0.4c1.9-0.5,1.1-3.4-0.8-2.9c-2.5,0.7-5,0.5-7.4-0.4
			C174.5,25.2,173.7,28.1,175.5,28.7L175.5,28.7z"/>
	</g>
</g>
<g>
	<g>
		<path class="st3" d="M178.7,39.8c1.6,0.2,3.3,0,4.8-0.6c0.8-0.3,1.3-1,1-1.8c-0.2-0.7-1.1-1.3-1.8-1c-1.3,0.5-2.6,0.6-4,0.5
			c-0.8-0.1-1.5,0.8-1.5,1.5C177.2,39.2,177.9,39.7,178.7,39.8L178.7,39.8z"/>
	</g>
</g>
<g>
	<g>
		<path class="st3" d="M196.5,24.5c-6.2-1.4-9.6,5.7-6.5,10.8c1.3,2,3,2.5,5.2,2.7c1.5,0.1,2.9-0.6,4.5,0.6c1,0.8,2.6,3.9,2.2,5.2
			c-1,3.6-5.2,4.2-8.3,4.6c-1.9,0.3-1.1,3.2,0.8,2.9c5.6-0.8,11.4-2.2,10.4-9.1c-0.4-2.5-1.8-5.2-4-6.7c-0.8-0.6-1.6-1-2.6-1.2
			c-0.3-0.1-0.5-0.1-0.8,0c-3.3,1.1-3.8-1.2-1.7-7C197.6,27.9,198.4,25,196.5,24.5L196.5,24.5z"/>
	</g>
</g>
<g>
	<g>
		<path class="st3" d="M204.4,28.2c4.2,0,8.4,0,12.6,0c1.9,0,1.9-3,0-3c-4.2,0-8.4,0-12.6,0C202.5,25.2,202.5,28.2,204.4,28.2
			L204.4,28.2z"/>
	</g>
</g>
<g>
	<g>
		<path class="st3" d="M209.2,27.7c0.6,4,2.3,6.7,1.7,10.8c-0.5,3.6-1.1,7.3-1.6,10.9c-0.3,1.9,2.6,2.7,2.9,0.8
			c0.6-4.2,1.4-8.4,1.8-12.6c0.4-4-1.3-6.9-2-10.7C211.8,25,208.9,25.8,209.2,27.7L209.2,27.7z"/>
	</g>
</g>
<g>
	<g>
		<path class="st3" d="M223,26.2c-0.3,4.3,1,8.4,0.8,12.7c-0.2,4-1.2,7.7-1.1,11.7c0.1,1.9,3.1,1.9,3,0c-0.1-4,0.9-7.8,1.1-11.7
			c0.2-4.3-1.1-8.4-0.8-12.7C226.1,24.3,223.1,24.3,223,26.2L223,26.2z"/>
	</g>
</g>
<g>
	<g>
		<path class="st3" d="M233.5,26.6c-0.2,3.7,1,7.2,1,11c0,3.9-1.1,7.7-0.8,11.7c0.1,1.9,3.1,1.9,3,0c-0.2-3.9,0.9-7.7,0.8-11.7
			c0-3.7-1.3-7.2-1-11C236.6,24.7,233.6,24.7,233.5,26.6L233.5,26.6z"/>
	</g>
</g>
<g>
	<g>
		<path class="st3" d="M245.3,48.2c-4-0.1-8.1-0.2-12.1-0.3c-1.9-0.1-1.9,2.9,0,3c4,0.1,8.1,0.2,12.1,0.3
			C247.2,51.2,247.2,48.2,245.3,48.2L245.3,48.2z"/>
	</g>
</g>
<g>
	<g>
		<path class="st3" d="M251.4,27.1c-0.2,3.7,1,7.2,1,11c0,3.9-1.1,7.7-0.8,11.7c0.1,1.9,3.1,1.9,3,0c-0.2-3.9,0.9-7.7,0.8-11.7
			c0-3.7-1.3-7.2-1-11C254.5,25.2,251.5,25.2,251.4,27.1L251.4,27.1z"/>
	</g>
</g>
<g>
	<g>
		<path class="st3" d="M263.2,48.7c-4-0.1-8.1-0.2-12.1-0.3c-1.9-0.1-1.9,2.9,0,3c4,0.1,8.1,0.2,12.1,0.3
			C265.1,51.8,265.1,48.8,263.2,48.7L263.2,48.7z"/>
	</g>
</g>
<g>
	<g>
		<path class="st3" d="M267.6,26.8c-0.3,3.8,0.8,7.4,0.8,11.1c-0.1,4-1.2,7.8-1.1,11.8c0.1,1.9,3.1,1.9,3,0c-0.1-4,1-7.8,1.1-11.8
			c0.1-3.8-1.1-7.4-0.8-11.1C270.8,24.9,267.8,24.9,267.6,26.8L267.6,26.8z"/>
	</g>
</g>
<g>
	<g>
		<path class="st3" d="M278.4,48.1c-0.1-7.2,0.1-14.3,0.6-21.5c-0.9,0.3-1.9,0.5-2.8,0.8c1.7,3.9,3.1,8.2,5.5,11.6
			c0.9,1.3,2.1,2.3,3.2,3.5c2,2.1,2.9,4.5,3.7,7.3c0.4,1.6,3,1.3,2.9-0.4c-0.2-7.7,0.1-15.4,1-23.1c0.2-1.9-2.8-1.9-3,0
			c-0.9,7.7-1.2,15.4-1,23.1c1-0.1,2-0.3,2.9-0.4c-1.1-3.9-2.5-6.6-5.4-9.5c-3.7-3.7-5.4-8.9-7.4-13.6c-0.6-1.5-2.7-0.6-2.8,0.8
			c-0.5,7.2-0.7,14.3-0.6,21.5C275.4,50,278.4,50,278.4,48.1L278.4,48.1z"/>
	</g>
</g>
<g>
	<g>
		<path class="st3" d="M308.8,23.8c-6,0.6-11.7,3.2-13.1,9.6c-1,5-1.7,14.1,4.1,16.2c4.1,1.5,11.1,5.5,12.5-1.6
			c0.9-4.6-2.4-9.8-7.4-8.2c-1.8,0.6-1,3.5,0.8,2.9c1.2,0.9,2.4,1.8,3.5,2.7c-1.2,1-2.5,2-3.7,3c0.3,0-1.9-0.9-2.1-1
			c-0.7-0.3-1.7-0.2-2.3-0.6c-1.9-1.2-2.5-4.2-2.7-6.4c-0.3-2.8-0.2-6.5,1.1-9c1.6-3.2,6-4.3,9.3-4.7
			C310.7,26.6,310.7,23.6,308.8,23.8L308.8,23.8z"/>
	</g>
</g>
<g>
	<g>
		<path class="st3" d="M119.2,20.3c-2.1,0.8-3.6,2.9-3,5.2c0.6,2.3,3.2,3.8,5.5,2.9c2-0.9,3.1-3.6,2.9-5.6c-0.3-2.5-2.7-3.9-4.9-2.9
			c-1.8,0.8-0.2,3.4,1.5,2.6c0.5-0.2,0.4,1.4,0.4,1.5c-0.1,0.5-0.5,1.6-1,1.8c-1.4,0.5-1.9-2-0.5-2.5
			C121.8,22.6,121,19.7,119.2,20.3L119.2,20.3z"/>
	</g>
</g>
<g>
	<g>
		<path class="st3" d="M23.2,20.8c1.4,9.8,2.1,19.6,2,29.5c0,1.9,3,1.9,3,0C28.3,40.2,27.6,30,26.1,20C25.9,18.1,23,18.9,23.2,20.8
			L23.2,20.8z"/>
	</g>
</g>
<g>
	<g>
		<path class="st3" d="M33.7,19.3c0.5,6.8,0,13.3-6.9,16.5c-1,0.5-0.9,2.1,0,2.6c2.4,1.3,4.8,2.6,6.5,4.8c1.4,1.9,1.8,4.3,3,6.3
			c1.6,2.4,3.7,3.3,6.5,2.9c1.9-0.3,1.1-3.2-0.8-2.9c-2.8,0.4-5.2-7-6.9-8.9c-1.9-2.1-4.4-3.5-6.8-4.8c0,0.9,0,1.7,0,2.6
			c7.9-3.7,9-11.2,8.4-19.1C36.6,17.4,33.6,17.4,33.7,19.3L33.7,19.3z"/>
	</g>
</g>
<g>
	<g>
		<path class="st3" d="M45.6,30.2c0.2,5.2-0.3,10.9,0.6,16c0.5,3,3.4,5.5,6.5,5.7c3.3,0.2,4.6-2.1,4.8-5.1
			c0.3-5.3-0.6-10.9-1.6-16.2c-0.4-1.9-3.3-1.1-2.9,0.8c0.6,3.2,1.1,6.4,1.3,9.6c0.2,2.5,1.2,8.8-3.2,7.2c-2.8-1.1-2.1-6.9-2.2-9.4
			c-0.1-2.9-0.2-5.7-0.3-8.6C48.5,28.3,45.5,28.3,45.6,30.2L45.6,30.2z"/>
	</g>
</g>
<g>
	<g>
		<path class="st3" d="M62.8,50.4c-0.1-7,0.1-13.9,0.5-20.9c-1,0.1-2,0.3-2.9,0.4c1.5,3.6,2.7,7.6,4.7,10.9c0.9,1.4,1.9,2.5,3,3.7
			c2,2.3,3,4.5,3.7,7.4c0.4,1.6,3,1.3,2.9-0.4c-0.2-7.5,0.1-15,0.9-22.4c0.2-1.9-2.8-1.9-3,0c-0.8,7.5-1.1,14.9-0.9,22.4
			c1-0.1,2-0.3,2.9-0.4c-0.9-3.5-2.1-6.1-4.5-8.8c-3.5-3.9-5-8.5-7-13.3c-0.6-1.5-2.8-1.4-2.9,0.4c-0.4,7-0.6,13.9-0.5,20.9
			C59.8,52.3,62.8,52.3,62.8,50.4L62.8,50.4z"/>
	</g>
</g>
</svg>
