<?xml version="1.0" encoding="utf-8"?>
<!-- Generator: Adobe Illustrator 22.1.0, SVG Export Plug-In . SVG Version: 6.00 Build 0)  -->
<svg version="1.1" id="Layer_1" xmlns="http://www.w3.org/2000/svg" xmlns:xlink="http://www.w3.org/1999/xlink" x="0px" y="0px"
	 viewBox="0 0 150 150" style="enable-background:new 0 0 150 150;" xml:space="preserve">
<style type="text/css">
	.st0{fill:none;}
	.st1{fill:none;stroke:#353535;stroke-width:3;stroke-linecap:round;stroke-linejoin:round;stroke-miterlimit:10;}
	.st2{fill:none;stroke:#000000;stroke-linecap:round;stroke-linejoin:round;stroke-miterlimit:10;}
	.st3{fill:#353535;}
	.st4{fill:#575790;}
	.st5{fill:#A60000;}
	.st6{fill:#002A73;}
	.st7{fill:#6B532F;}
	.st8{fill:#FC5500;}
	.st9{fill:#FFD8A4;}
	.st10{fill:#95725E;}
	.st11{fill:none;stroke:#575790;stroke-width:3;stroke-linecap:round;stroke-linejoin:round;stroke-miterlimit:10;}
	.st12{fill:#FFFFFF;stroke:#333333;stroke-width:2;stroke-miterlimit:10;}
	.st13{fill:#333333;}
	.st14{fill:none;stroke:#333333;stroke-width:2;stroke-miterlimit:10;}
</style>
<line class="st2" x1="76.5" y1="83.5" x2="80.1" y2="83.5"/>
<line class="st2" x1="76.5" y1="75.9" x2="80.1" y2="75.9"/>
<line class="st2" x1="76.5" y1="68.8" x2="80.1" y2="68.8"/>
<line class="st2" x1="76.5" y1="61.5" x2="80.1" y2="61.5"/>
<line class="st2" x1="76.5" y1="54.5" x2="80.1" y2="54.5"/>
<line class="st2" x1="76.5" y1="46.8" x2="80.1" y2="46.8"/>
<g>
	<path d="M70.5,93.6c0.4-14.5-0.4-33.5,0-48c0.1-3.5-0.1-7.2,0.5-10.6c0.5-2.6,1.2-6.7,6.2-6.7c4.1,0,3.8,3.7,4.1,5.2
		c0.2,1.6,0,3.5,0,5.1c-0.5,17.8-0.6,36.9-1.6,54.7"/>
</g>
<g>
	<path d="M70.1,93.7c-3.1,0.5-5.8,2.6-7.3,5.3s-1.9,6-1.1,8.9c1.5,5.3,7.2,9.3,12,9.3c7.3,0,11.3-0.7,14.6-7.1
		c0.4-0.8,0.9-3.9,0.9-4.8c0-0.8-0.6-4-0.9-4.7c-2-4.8-4.3-4.5-8.6-7.4"/>
</g>
<g>
	<path d="M73.5,97.8c0.2-7.7,1-49,1-58c0-1.3,0.9-1,1-1c0.1,0,1-0.2,1,1c0,9,0.4,48.6,0,58"/>
</g>
<g>
	<path d="M73.6,97.8c-1.5,0.3-4.4,1.4-5.1,3c-0.7,1.6-1,3.6-0.5,5.4c0.7,3.2,3.6,5.6,6,5.6c3.7,0,5.6-0.4,7.2-4.3
		c0.2-0.5,0.4-2.4,0.4-2.9c0-0.5-0.3-2.4-0.4-2.8c-1-2.9-2.4-2.3-4.6-4"/>
</g>
</svg>
