<?xml version="1.0" encoding="utf-8"?>
<!-- Generator: Adobe Illustrator 22.1.0, SVG Export Plug-In . SVG Version: 6.00 Build 0)  -->
<svg version="1.1" id="Layer_1" xmlns="http://www.w3.org/2000/svg" xmlns:xlink="http://www.w3.org/1999/xlink" x="0px" y="0px"
	 viewBox="0 0 150 150" style="enable-background:new 0 0 150 150;" xml:space="preserve">
<style type="text/css">
	.st0{fill:none;}
	.st1{fill:none;stroke:#353535;stroke-width:3;stroke-linecap:round;stroke-linejoin:round;stroke-miterlimit:10;}
	.st2{fill:none;stroke:#000000;stroke-linecap:round;stroke-linejoin:round;stroke-miterlimit:10;}
	.st3{fill:#353535;}
	.st4{fill:#575790;}
	.st5{fill:#A60000;}
	.st6{fill:#002A73;}
	.st7{fill:#6B532F;}
	.st8{fill:#FC5500;}
	.st9{fill:#FFD8A4;}
	.st10{fill:#95725E;}
	.st11{fill:none;stroke:#575790;stroke-width:3;stroke-linecap:round;stroke-linejoin:round;stroke-miterlimit:10;}
	.st12{fill:#FFFFFF;stroke:#333333;stroke-width:2;stroke-miterlimit:10;}
	.st13{fill:#333333;}
	.st14{fill:none;stroke:#333333;stroke-width:2;stroke-miterlimit:10;}
</style>
<line class="st2" x1="74.2" y1="82.1" x2="77.8" y2="82.1"/>
<line class="st2" x1="74.3" y1="74.4" x2="77.9" y2="74.4"/>
<line class="st2" x1="74.3" y1="67.3" x2="77.9" y2="67.3"/>
<line class="st2" x1="74.3" y1="60.1" x2="77.9" y2="60.1"/>
<line class="st2" x1="74.3" y1="53" x2="77.9" y2="53"/>
<line class="st2" x1="74.3" y1="45.4" x2="77.9" y2="45.4"/>
<g>
	<g>
		<path d="M69.7,92.1c0.3-10.3,0-20.6-0.1-30.9c0-5.2-0.1-10.4,0-15.6c0.1-4.4-1.1-11.5,1.6-15.2c2.1-2.8,5.6-2.5,6.1,1
			c0.3,2.2,0.1,4.4,0,6.6c-0.2,6-0.3,11.9-0.4,17.9c-0.2,12-0.5,24-1.1,35.9c-0.1,1.9,2.9,1.9,3,0c0.8-15.4,1-30.9,1.4-46.3
			c0.1-5.4,3.4-22.2-7.1-20c-9.1,1.9-6.5,18.6-6.5,24.9c-0.1,13.9,0.4,27.8,0.1,41.7C66.7,94,69.7,94,69.7,92.1L69.7,92.1z"/>
	</g>
</g>
<g>
	<g>
		<path d="M67.5,90.8c-7.6,1.9-11.9,10-9,17.4c3,7.6,11,9.8,18.4,8.8c6.3-0.8,10.9-5.5,11.4-11.9c0.3-2.9-0.3-6.1-1.9-8.5
			c-1.9-3.1-5.3-4.3-8.2-6.1c-1.6-1-3.1,1.6-1.5,2.6c4.1,2.6,7.9,4,8.6,9.4c0.6,4.6-1.7,9.5-6.3,11c-4.7,1.6-11,1.1-14.7-2.3
			c-6-5.5-4-15.5,4.1-17.5C70.1,93.3,69.3,90.4,67.5,90.8L67.5,90.8z"/>
	</g>
</g>
<g>
	<path d="M71.2,96.3c0.2-7.7,1-49,1-58c0-1.3,0.9-1,1-1c0.1,0,1-0.2,1,1c0,9,0.4,48.6,0,58"/>
</g>
<g>
	<path d="M71.4,96.3c-1.5,0.3-4.4,1.4-5.1,3c-0.7,1.6-1,3.6-0.5,5.4c0.7,3.2,3.6,5.6,6,5.6c3.7,0,5.6-0.4,7.2-4.3
		c0.2-0.5,0.4-2.4,0.4-2.9c0-0.5-0.3-2.4-0.4-2.8c-1-2.9-2.4-2.3-4.6-4"/>
</g>
</svg>
