<?xml version="1.0" encoding="utf-8"?>
<!-- Generator: Adobe Illustrator 22.1.0, SVG Export Plug-In . SVG Version: 6.00 Build 0)  -->
<svg version="1.1" id="Layer_1" xmlns="http://www.w3.org/2000/svg" xmlns:xlink="http://www.w3.org/1999/xlink" x="0px" y="0px"
	 viewBox="0 0 150 150" style="enable-background:new 0 0 150 150;" xml:space="preserve">
<style type="text/css">
	.st0{fill:none;}
	.st1{fill:none;stroke:#353535;stroke-width:3;stroke-linecap:round;stroke-linejoin:round;stroke-miterlimit:10;}
	.st2{fill:none;stroke:#000000;stroke-linecap:round;stroke-linejoin:round;stroke-miterlimit:10;}
	.st3{fill:#353535;}
	.st4{fill:#575790;}
	.st5{fill:#A60000;}
	.st6{fill:#002A73;}
	.st7{fill:#6B532F;}
	.st8{fill:#FC5500;}
	.st9{fill:#FFD8A4;}
	.st10{fill:#95725E;}
	.st11{fill:none;stroke:#575790;stroke-width:3;stroke-linecap:round;stroke-linejoin:round;stroke-miterlimit:10;}
	.st12{fill:#FFFFFF;stroke:#333333;stroke-width:2;stroke-miterlimit:10;}
	.st13{fill:#333333;}
	.st14{fill:none;stroke:#333333;stroke-width:2;stroke-miterlimit:10;}
</style>
<g>
	<g>
		<path class="st6" d="M86.9,63.9c-0.9,10.2-9.3,17.8-8.5,28.4c0.5,6.9,5.4,9.5,12,9.3c7-0.2,11.4-4.6,10.4-11.8
			c-1.2-9.6-9.9-16.1-10.8-25.9c-0.2-1.9-3.2-1.9-3,0c0.6,6.6,3.8,11.5,7.1,17.1c3.7,6.2,6.8,17.3-3.8,17.6
			c-2.8,0.1-6.5-0.2-8.3-2.8c-2.2-3.2-0.6-9.3,0.6-12.7c2.5-6.7,6.5-11.9,7.2-19.2C90.1,62,87.1,62,86.9,63.9L86.9,63.9z"/>
	</g>
</g>
<g>
	<g>
		<path class="st6" d="M93.3,42.5c-0.7,5.1-5.1,8.8-4,14.2c0.6,3.1,3.4,4.1,6.3,4.1c3.4-0.1,5.8-2.2,5.7-5.7
			c-0.2-4.7-4.4-7.9-4.8-12.5C96.3,40.6,93.3,40.6,93.3,42.5c0.3,2.5,1.1,4.5,2.3,6.6c0.8,1.3,1.7,2.7,2.2,4.2
			c0.6,2-0.1,4.1-2.3,4.4c-4.8,0.7-3.2-5.2-2-7.7c1.3-2.5,2.4-4.7,2.8-7.5C96.6,40.6,93.6,40.6,93.3,42.5L93.3,42.5z"/>
	</g>
</g>
<g>
	<g>
		<path class="st6" d="M49.9,39.5c-1.3,13.5-12.6,23.3-12.4,37.2c0.1,4.2,0.6,8.3,4.1,10.9c3.3,2.4,7.9,3,11.8,2.9
			c10.1-0.2,15.4-7.1,13.6-17.1c-2.2-12.4-13-21.1-13.9-34c-0.1-1.9-3.1-1.9-3,0c0.6,9.3,5.5,16.5,9.9,24.5
			c2.4,4.3,4.4,8.9,4.4,13.8c-0.1,6.8-4.9,9.6-11,9.7c-3.7,0.1-8.7-0.4-11.2-3.5c-3.4-4.2-1.7-12.4-0.1-17.1
			c3.2-9.6,9.7-17.1,10.8-27.5C53.1,37.6,50.1,37.6,49.9,39.5L49.9,39.5z"/>
	</g>
</g>
<g>
	<g>
		<path class="st6" d="M64,94.4c-0.7,5.3-5.3,9.2-4.3,14.9c0.6,3.2,3.5,4.2,6.5,4.2c3.6-0.1,6.1-2.3,5.9-6c-0.2-4.9-4.6-8.3-5-13.1
			C67,92.5,64,92.5,64,94.4c0.3,2.6,1.2,4.7,2.4,6.9c0.8,1.4,1.8,2.8,2.3,4.4c0.7,2.1-0.1,4.4-2.5,4.7c-5.1,0.7-3.5-5.5-2.1-8.2
			c1.3-2.6,2.5-4.9,2.9-7.9C67.3,92.5,64.3,92.5,64,94.4L64,94.4z"/>
	</g>
</g>
<g>
	<g>
		<path class="st6" d="M73.1,18c-1.1,9-8.7,15.5-7.5,25c0.7,5.5,5.7,7.2,10.8,7c5.8-0.3,9.2-4.2,8.6-10c-0.9-8.1-8-13.7-8.7-21.9
			c-0.2-1.9-3.2-1.9-3,0c0.4,5,2.5,9,5,13.3c1.3,2.3,2.7,4.6,3.4,7.2c1,4.1-0.7,8.2-5.2,8.5c-2.1,0.1-5.2,0-6.8-1.7
			c-2.8-3-0.6-9.5,0.8-12.5c2.3-5,5-9.1,5.7-14.8C76.3,16.1,73.3,16.1,73.1,18L73.1,18z"/>
	</g>
</g>
</svg>
