<?xml version="1.0" encoding="utf-8"?>
<!-- Generator: Adobe Illustrator 22.1.0, SVG Export Plug-In . SVG Version: 6.00 Build 0)  -->
<svg version="1.1" id="Layer_1" xmlns="http://www.w3.org/2000/svg" xmlns:xlink="http://www.w3.org/1999/xlink" x="0px" y="0px"
	 viewBox="0 0 150 150" style="enable-background:new 0 0 150 150;" xml:space="preserve">
<style type="text/css">
	.st0{fill:none;}
	.st1{fill:none;stroke:#353535;stroke-width:3;stroke-linecap:round;stroke-linejoin:round;stroke-miterlimit:10;}
	.st2{fill:none;stroke:#000000;stroke-linecap:round;stroke-linejoin:round;stroke-miterlimit:10;}
	.st3{fill:#353535;}
	.st4{fill:#575790;}
	.st5{fill:#A60000;}
	.st6{fill:#002A73;}
	.st7{fill:#6B532F;}
	.st8{fill:#FC5500;}
	.st9{fill:#FFD8A4;}
	.st10{fill:#95725E;}
	.st11{fill:none;stroke:#575790;stroke-width:3;stroke-linecap:round;stroke-linejoin:round;stroke-miterlimit:10;}
	.st12{fill:#FFFFFF;stroke:#333333;stroke-width:2;stroke-miterlimit:10;}
	.st13{fill:#333333;}
	.st14{fill:none;stroke:#333333;stroke-width:2;stroke-miterlimit:10;}
</style>
<g>
	<path class="st6" d="M90.6,65.4c-0.2,3.5-2,8.7-3.5,11.4c-3.9,6.9-6,12.1-4.7,19.4c1.1,6.2,10.9,5.8,14.1,4.8
		c2.2-0.6,3.8-2.2,4.6-3.9c0.8-1.7,0.7-4.1,0.5-5.9c-1.2-9-10.2-15.4-10.8-25.9"/>
</g>
<g>
	<path class="st6" d="M97.1,44c-0.1,1.6-1,4-1.7,5.2c-1.8,3.2-2.9,5.6-2.3,8.9c0.5,2.9,5,2.7,6.5,2.4c1-0.3,1.8-1,2.2-1.8
		c0.4-0.8,0.4-1.9,0.3-2.7C101.4,51.8,97.3,48.8,97.1,44"/>
</g>
<g>
	<path class="st6" d="M53.7,41c-0.3,4.8-2.9,11.8-5.1,15.5c-5.4,9.3-8.5,16.5-6.9,26.5c1.4,8.5,14.8,8.1,19.1,7
		c3-0.8,5.3-2.9,6.4-5.2s1.1-5.6,0.8-8.1C66.6,64.3,54.4,55.2,53.9,41"/>
</g>
<g>
	<path class="st6" d="M67.8,95.9c-0.1,1.7-1,4.2-1.8,5.5c-1.9,3.3-3,5.9-2.5,9.4c0.5,3,5.3,2.9,6.8,2.5c1.1-0.3,1.9-1,2.3-1.9
		s0.4-2,0.3-2.9C72.4,104.2,68.1,101,67.8,95.9"/>
</g>
<g>
	<path class="st6" d="M76.8,19.5c-0.2,2.9-1.8,7.3-3.1,9.5c-3.3,5.7-5.2,10.1-4.2,16.3c0.8,5.2,9.1,5,11.8,4.3
		c1.8-0.5,3.2-1.8,3.9-3.2c0.7-1.4,0.7-3.5,0.5-5c-0.9-7.6-8.4-13.1-8.7-21.9"/>
</g>
</svg>
