<?xml version="1.0" encoding="utf-8"?>
<!-- Generator: Adobe Illustrator 22.1.0, SVG Export Plug-In . SVG Version: 6.00 Build 0)  -->
<svg version="1.1" id="Layer_1" xmlns="http://www.w3.org/2000/svg" xmlns:xlink="http://www.w3.org/1999/xlink" x="0px" y="0px"
	 viewBox="0 0 80.6 75.2" style="enable-background:new 0 0 80.6 75.2;" xml:space="preserve">
<style type="text/css">
	.st0{fill:none;stroke:#000000;stroke-miterlimit:10;}
	.st1{fill:#FFFFFF;}
	.st2{fill:#7F5056;}
	.st3{fill:#9F6166;}
	.st4{fill:#B57D86;}
	.st5{fill:#4A1B25;}
	.st6{opacity:0.42;}
	.st7{fill:#CCAAA2;}
	.st8{fill:#915960;}
	.st9{opacity:6.000000e-02;fill:#FFFFFF;}
	.st10{opacity:0.49;}
	.st11{fill:#4F3136;}
	.st12{fill:#362222;}
	.st13{fill:#002A73;stroke:#002A73;stroke-width:0.25;stroke-miterlimit:10;}
	.st14{fill:#FFFFFF;stroke:#000000;stroke-miterlimit:10;}
	.st15{fill:#95725E;stroke:#FFFFFF;stroke-width:0.25;stroke-miterlimit:10;}
	.st16{fill:#353535;stroke:#FFFFFF;stroke-width:0.25;stroke-miterlimit:10;}
	.st17{fill:#FC5500;}
	.st18{fill:none;stroke:#000000;stroke-width:0.5;stroke-miterlimit:10;}
	.st19{fill:#3F2E19;}
	.st20{fill:none;stroke:#FFFFFF;stroke-width:0.25;stroke-miterlimit:10;}
	.st21{fill:none;}
	.st22{fill:#9F6166;stroke:#FFFFFF;stroke-width:0.25;stroke-miterlimit:10;}
	.st23{fill:#A60000;stroke:#FFFFFF;stroke-width:0.25;stroke-miterlimit:10;}
	.st24{fill:#1B8B00;}
	.st25{fill:#F7CCAD;stroke:#FFFFFF;stroke-width:0.25;stroke-miterlimit:10;}
	.st26{stroke:#FFFFFF;stroke-width:0.25;stroke-miterlimit:10;}
	.st27{fill:#A60000;}
</style>
<g>
	<path class="st3" d="M29.4,29.8c-2,0.3-6.1,0.4-5.5,2.7c0.1,0.4,0.8,0.3,1.1,0.7c0.3,0.4,0.4,1.1,0.2,1.6c-0.1,0.2-0.4,0.4-0.6,0.4
		c-2.7,1.2-3.9,2-3.9,3.5c0,2,2.1,2.3,5,1.2c0.4-0.1,0.9-0.3,1,0.2c0.1,0.2,0.1,0.5,0.1,0.8c0.1,1.4,1.3,2.2,2.3,1.9
		c1-0.3,1.8-1.3,2.6-2.1c1.6-1.4,3.5-1.8,5.3-1.3c1.6,0.4,3.5,1.5,4.5-0.2c0.2-0.3,0.3-0.6,0.3-1c0-0.4-0.2-0.7-0.4-1
		c-1.2-2.1-2.7-4.3-4.5-4.6c-0.3-0.1-0.7-0.1-1-0.5c-0.3-0.5-0.1-1.2-0.3-1.7c-0.4-0.9-1.3-0.4-2,0c-1.1,0.6-1.3-0.4-2.7-0.7
		C30.7,29.5,29.6,29.7,29.4,29.8z"/>
</g>
<g>
	<path class="st7" d="M35.9,36.3c-1.4-0.2-2.9-0.3-4.3,0.4c-1.4,0.7-2.6,2.5-2.5,4.6c0,0.5,0.1,1.1-0.1,1.5
		c-0.2,0.4-0.5,0.5-0.7,0.7c-0.9,0.4-2.3,0.4-2.6,1.3c-1,3.2,4.7,4,7,2.3c0.3-0.2,0.6-0.5,1-0.5c0.9,0,1.3,1.8,2,2.7
		c0.7,1,1.9,0.9,2.9,0.4c0.9-0.5,1.8-1.3,2.7-1.9c3.5-2,10.7-0.6,7.9-5.1c-3.4-5.5-3.9,0-6.3-3.5c-0.4-0.7-0.8-1.5-1.3-2
		c-1.4-1.5-3.5-0.4-5-1.5L35.9,36.3z"/>
</g>
<g>
	<path class="st5" d="M34.9,31.8c-0.3,0.2-0.6,0.6-0.7,1c-0.1,0.6,0.1,1.3,0.5,1.8c0.8,1,2,1.4,2.3,2.8c0.3,1.2-0.2,2.7,0.4,3.6
		c0.3,0.5,0.7,0.7,1.1,0.9c1.8,0.7,3.6,1.3,5.4,0.6c1.1-0.5,2.1-1.5,3.2-1.8c1.4-0.4,3.2,0,4-1.7c0.2-0.5,0.4-1.2,0.4-1.8
		c0.1-1.8-0.6-3.6-1.6-4.5c-1-0.9-2.4-1-3.5-0.1c-0.4,0.3-0.7,0.7-1.1,0.9c-0.6,0.3-1.4,0-1.8-0.7c-0.5-0.7,0.7-2.2-0.3-2.7
		C41.2,29.1,36.7,30.7,34.9,31.8z"/>
</g>
</svg>
