<?xml version="1.0" encoding="utf-8"?>
<!-- Generator: Adobe Illustrator 22.1.0, SVG Export Plug-In . SVG Version: 6.00 Build 0)  -->
<svg version="1.1" id="Layer_1" xmlns="http://www.w3.org/2000/svg" xmlns:xlink="http://www.w3.org/1999/xlink" x="0px" y="0px"
	 viewBox="0 0 80.6 75.2" style="enable-background:new 0 0 80.6 75.2;" xml:space="preserve">
<style type="text/css">
	.st0{fill:none;stroke:#000000;stroke-miterlimit:10;}
	.st1{fill:#FFFFFF;}
	.st2{fill:#7F5056;}
	.st3{fill:#9F6166;}
	.st4{fill:#B57D86;}
	.st5{fill:#4A1B25;}
	.st6{opacity:0.42;}
	.st7{fill:#CCAAA2;}
	.st8{fill:#915960;}
	.st9{opacity:6.000000e-02;fill:#FFFFFF;}
	.st10{opacity:0.49;}
	.st11{fill:#4F3136;}
	.st12{fill:#362222;}
	.st13{fill:#002A73;stroke:#002A73;stroke-width:0.25;stroke-miterlimit:10;}
	.st14{fill:#FFFFFF;stroke:#000000;stroke-miterlimit:10;}
	.st15{fill:#95725E;stroke:#FFFFFF;stroke-width:0.25;stroke-miterlimit:10;}
	.st16{fill:#353535;stroke:#FFFFFF;stroke-width:0.25;stroke-miterlimit:10;}
	.st17{fill:#FC5500;}
	.st18{fill:none;stroke:#000000;stroke-width:0.5;stroke-miterlimit:10;}
	.st19{fill:#3F2E19;}
	.st20{fill:none;stroke:#FFFFFF;stroke-width:0.25;stroke-miterlimit:10;}
	.st21{fill:none;}
	.st22{fill:#9F6166;stroke:#FFFFFF;stroke-width:0.25;stroke-miterlimit:10;}
	.st23{fill:#A60000;stroke:#FFFFFF;stroke-width:0.25;stroke-miterlimit:10;}
	.st24{fill:#1B8B00;}
	.st25{fill:#F7CCAD;stroke:#FFFFFF;stroke-width:0.25;stroke-miterlimit:10;}
	.st26{stroke:#FFFFFF;stroke-width:0.25;stroke-miterlimit:10;}
	.st27{fill:#A60000;}
</style>
<g>
	<g>
		<path class="st24" d="M42.1,51.8c-0.6-2.2-0.7-4.4-0.6-6.6c0.1-2.2,0.5-4.5,1.2-6.6c0.3-1.1,0.8-2.1,1.3-3.1
			c0.3-0.5,0.6-1,0.9-1.4c0.2-0.2,0.3-0.5,0.5-0.7l0.5-0.7c1.3-1.8,3.1-3.2,4.9-4.5c-0.4,0.4-0.8,0.8-1.2,1.2
			c-0.4,0.4-0.8,0.7-1.1,1.2l-1.1,1.2c-0.3,0.4-0.6,0.9-0.9,1.3c-1.2,1.8-2.2,3.7-2.9,5.8c-0.7,2-1.2,4.2-1.4,6.3
			c-0.1,1.1-0.2,2.2-0.2,3.3C42,49.6,42,50.7,42.1,51.8z"/>
	</g>
	<path class="st24" d="M41.7,42.4c-0.3-1.1-1.3-1.9-2.2-2.6c-1-0.7-2-1.2-2.8-2.1c-1-1-1.5-2.5-1.5-3.9c0-0.5,0.1-1,0.2-1.5
		c0.2-1.6,0.3-3.3-0.5-4.8c3.6,1.8,6.3,5.6,6.6,9.6c0.1,1.1,0.1,2,0.1,3.1C41.6,41.1,41.6,41.6,41.7,42.4"/>
	<path class="st24" d="M49.4,29.4c0.5-0.5,1.2-0.7,1.9-0.8c0.7-0.1,1.4-0.1,2.1-0.3c0.8-0.3,1.5-0.9,1.8-1.7
		c0.1-0.3,0.2-0.6,0.3-0.9c0.3-0.9,0.7-1.9,1.5-2.5c-2.5-0.1-4.9,1.2-6.1,3.4c-0.3,0.6-0.6,1.1-0.9,1.7C49.8,28.7,49.7,29,49.4,29.4
		"/>
	<path class="st24" d="M44.9,35.9c0.8-0.5,1.8-0.6,2.7-0.4s1.9,0.3,2.8,0.2c1.1-0.1,2.2-0.7,2.9-1.7c0.2-0.3,0.4-0.7,0.6-1.1
		c0.7-1.2,1.5-2.3,2.7-2.8c-3.2-0.8-6.9,0.1-9.1,2.5c-0.6,0.6-1.1,1.2-1.6,1.9C45.6,35.1,45.4,35.5,44.9,35.9"/>
</g>
</svg>
