<?xml version="1.0" encoding="utf-8"?>
<!-- Generator: Adobe Illustrator 22.1.0, SVG Export Plug-In . SVG Version: 6.00 Build 0)  -->
<svg version="1.1" id="Layer_1" xmlns="http://www.w3.org/2000/svg" xmlns:xlink="http://www.w3.org/1999/xlink" x="0px" y="0px"
	 viewBox="0 0 80.6 75.2" style="enable-background:new 0 0 80.6 75.2;" xml:space="preserve">
<style type="text/css">
	.st0{fill:none;stroke:#000000;stroke-miterlimit:10;}
	.st1{fill:#FFFFFF;}
	.st2{fill:#7F5056;}
	.st3{fill:#9F6166;}
	.st4{fill:#B57D86;}
	.st5{fill:#4A1B25;}
	.st6{opacity:0.42;}
	.st7{fill:#CCAAA2;}
	.st8{fill:#915960;}
	.st9{opacity:6.000000e-02;fill:#FFFFFF;}
	.st10{opacity:0.49;}
	.st11{fill:#4F3136;}
	.st12{fill:#362222;}
	.st13{fill:#002A73;stroke:#002A73;stroke-width:0.25;stroke-miterlimit:10;}
	.st14{fill:#FFFFFF;stroke:#000000;stroke-miterlimit:10;}
	.st15{fill:#95725E;stroke:#FFFFFF;stroke-width:0.25;stroke-miterlimit:10;}
	.st16{fill:#353535;stroke:#FFFFFF;stroke-width:0.25;stroke-miterlimit:10;}
	.st17{fill:#FC5500;}
	.st18{fill:none;stroke:#000000;stroke-width:0.5;stroke-miterlimit:10;}
	.st19{fill:#3F2E19;}
	.st20{fill:none;stroke:#FFFFFF;stroke-width:0.25;stroke-miterlimit:10;}
	.st21{fill:none;}
	.st22{fill:#9F6166;stroke:#FFFFFF;stroke-width:0.25;stroke-miterlimit:10;}
	.st23{fill:#A60000;stroke:#FFFFFF;stroke-width:0.25;stroke-miterlimit:10;}
	.st24{fill:#1B8B00;}
	.st25{fill:#F7CCAD;stroke:#FFFFFF;stroke-width:0.25;stroke-miterlimit:10;}
	.st26{stroke:#FFFFFF;stroke-width:0.25;stroke-miterlimit:10;}
	.st27{fill:#A60000;}
</style>
<g>
	<path class="st21" d="M52.7,32.2c-1.4-2.3-3-4.5-4.9-6.4c-0.4-0.4-0.8-0.8-1.3-1c-0.1,0-0.2-0.1-0.3,0c-0.1,0-0.2,0.1-0.2,0.2
		c-0.5,0.6-0.6,1.4-0.4,2.2c0.2,0.7,0.5,1.4,0.9,2.1c0.8,1.5,1.4,2.9,2.5,4.4"/>
</g>
<g>
	<path class="st21" d="M45.3,25.7c-0.4-0.1-0.8,0-1.1,0.3c-0.3,0.3-0.4,0.6-0.5,1c-0.4,1.6,0.4,3.2,1,4.8c0.4,1.2,1.2,2.3,1.9,3.4"
		/>
</g>
<g>
	<path class="st21" d="M43.5,27.5c-0.8,0.4-1,1.4-1,2.3c-0.1,3,1.6,4.6,2.8,7.4"/>
</g>
<g>
	<path class="st21" d="M42.2,31.6c-0.8,2-0.3,4.3,0.9,6.2c0.4,0.5,0.6,1.2,0.9,1.8c0.9,1.6-2.3,2.3,0.6,8c0.6,1.2,2,2.9,3.3,3.2
		c1.3,0.3,2.7,0.2,4.1,0.1"/>
</g>
<g>
	<path class="st21" d="M48.1,42.6c0.3-0.7,1-1.2,1.7-1.6c0.7-0.3,1.5-0.5,2.2-0.7"/>
</g>
<g>
	<path class="st21" d="M30,31.8c1.4-2.3,3-4.5,4.9-6.4c0.4-0.4,0.8-0.8,1.3-1c0.1,0,0.2-0.1,0.3,0c0.1,0,0.2,0.1,0.2,0.2
		c0.5,0.6,0.6,1.4,0.4,2.2c-0.2,0.7-0.5,1.4-0.9,2.1c-0.8,1.5-1.4,2.9-2.5,4.4"/>
</g>
<g>
	<path class="st21" d="M37.4,25.4c0.4-0.1,0.8,0,1.1,0.3c0.3,0.3,0.4,0.6,0.5,1c0.4,1.6-0.4,3.2-1,4.8c-0.4,1.2-1.2,2.3-1.9,3.4"/>
</g>
<g>
	<path class="st21" d="M39.2,27.4c0.8,0.4,1,1.4,1,2.3c0.1,3-1.6,4.6-2.8,7.4"/>
</g>
<g>
	<path class="st21" d="M40.5,31.2c0.8,2,0.3,4.3-0.9,6.2c-0.4,0.5-0.6,1.2-0.9,1.8c-0.9,1.6,2.3,2.3-0.6,8c-0.6,1.2-2,2.9-3.3,3.2
		s-2.7,0.2-4.1,0.1c-1.9-1.6-3.4-4.6-4.3-6.9c-0.3-0.6-0.5-1.3-0.5-1.9c-0.1-1.2,0.4-2.4,0.7-3.6c0.5-2.4,0.1-4.9,0.7-7.3
		c0-0.2,0.1-0.4,0.3-0.5c0.2-0.1,0.3-0.1,0.5,0c1.2,0.4,1.9,1.7,2.3,2.9c0.7,2.6,0.6,5.5-0.5,8"/>
</g>
<g>
	<path class="st21" d="M34.6,42.2c-0.3-0.7-1-1.2-1.7-1.6s-1.5-0.5-2.2-0.7"/>
</g>
<g id="Håndlavet_2_">
	<polygon class="st25" points="34.8,27 39.1,28.6 39.7,33 36.1,41.6 28.5,40.3 28.8,34.3 	"/>
	<path class="st25" d="M34.1,41c-1.5-2.1-3.8-1.8-3.8-1.8c0.4-7.4-0.7-8-0.9-8.3c-2.3-2.1-2,0.7-2,1.5c-0.1,2.6-0.5,5.1-1.1,6.7
		c-0.7,2,0,3,0,3l3.1,5.1c0,0,3.2,3.6,8,0c0,0,2-3.9,1.6-5.7c-0.4-1.8-1-2.9-0.8-3.7c0.2-0.8,2.5-4.2,2-7c0,0-0.2-0.9-0.5-0.9
		c-0.2,0-2.1,6.3-3.5,7.5"/>
	<path class="st25" d="M30,32.1c0,0,4.5-5.8,4.8-6.1c0.2-0.3,1.6-0.9,1.7-0.1s-1.2,3.4-1.3,3.6c-0.1,0.2-3,5.6-3.9,6.7"/>
	<path class="st25" d="M33.7,37.1c1.1-0.5,4.8-9.5,5.6-9.7c0.4-0.1,0.6,0.4,0.7,0.8c0.1,0.3-0.2,1.8-0.2,1.8"/>
	<path class="st25" d="M36.1,27.8c0,0,1.2-2,1.7-1.9c0.4,0.1,1.4,0.6,0.3,3.4"/>
	<polygon class="st25" points="46,26.9 41.8,28.5 41.1,32.9 44.8,41.5 52.3,40.2 52,34.2 	"/>
	<path class="st25" d="M46.7,40.9c1.5-2.1,3.8-1.8,3.8-1.8c-0.4-7.4,0.7-8,0.9-8.3c2.3-2.1,2,0.7,2,1.5c0.1,2.6,0.5,5.1,1.1,6.7
		c0.7,2,0,3,0,3l-3.1,5.1c0,0-3.2,3.6-8,0c0,0-2-3.9-1.6-5.7c0.4-1.8,1-2.9,0.8-3.7c-0.2-0.8-2.5-4.2-2-7c0,0,0.2-0.9,0.5-0.9
		c0.2,0,2.1,6.3,3.5,7.5"/>
	<path class="st25" d="M50.8,32c0,0-4.5-5.8-4.8-6.1c-0.2-0.3-1.6-0.9-1.7-0.1c-0.2,0.9,1.2,3.4,1.3,3.6c0.1,0.2,3,5.6,3.9,6.7"/>
	<path class="st25" d="M47.1,37c-1.1-0.5-4.8-9.5-5.6-9.7c-0.4-0.1-0.6,0.4-0.7,0.8c-0.1,0.3,0.2,1.8,0.2,1.8"/>
	<path class="st25" d="M44.8,27.7c0,0-1.2-2-1.7-1.9c-0.4,0.1-1.4,0.6-0.3,3.4"/>
</g>
</svg>
