<?xml version="1.0" encoding="utf-8"?>
<!-- Generator: Adobe Illustrator 22.1.0, SVG Export Plug-In . SVG Version: 6.00 Build 0)  -->
<svg version="1.1" id="Layer_1" xmlns="http://www.w3.org/2000/svg" xmlns:xlink="http://www.w3.org/1999/xlink" x="0px" y="0px"
	 viewBox="0 0 80.6 75.2" style="enable-background:new 0 0 80.6 75.2;" xml:space="preserve">
<style type="text/css">
	.st0{fill:none;stroke:#000000;stroke-miterlimit:10;}
	.st1{fill:#FFFFFF;}
	.st2{fill:#7F5056;}
	.st3{fill:#9F6166;}
	.st4{fill:#B57D86;}
	.st5{fill:#4A1B25;}
	.st6{opacity:0.42;}
	.st7{fill:#CCAAA2;}
	.st8{fill:#915960;}
	.st9{opacity:6.000000e-02;fill:#FFFFFF;}
	.st10{opacity:0.49;}
	.st11{fill:#4F3136;}
	.st12{fill:#362222;}
	.st13{fill:#002A73;stroke:#002A73;stroke-width:0.25;stroke-miterlimit:10;}
	.st14{fill:#FFFFFF;stroke:#000000;stroke-miterlimit:10;}
	.st15{fill:#95725E;stroke:#FFFFFF;stroke-width:0.25;stroke-miterlimit:10;}
	.st16{fill:#353535;stroke:#FFFFFF;stroke-width:0.25;stroke-miterlimit:10;}
	.st17{fill:#FC5500;}
	.st18{fill:none;stroke:#000000;stroke-width:0.5;stroke-miterlimit:10;}
	.st19{fill:#3F2E19;}
	.st20{fill:none;stroke:#FFFFFF;stroke-width:0.25;stroke-miterlimit:10;}
	.st21{fill:none;}
	.st22{fill:#9F6166;stroke:#FFFFFF;stroke-width:0.25;stroke-miterlimit:10;}
	.st23{fill:#A60000;stroke:#FFFFFF;stroke-width:0.25;stroke-miterlimit:10;}
	.st24{fill:#1B8B00;}
	.st25{fill:#F7CCAD;stroke:#FFFFFF;stroke-width:0.25;stroke-miterlimit:10;}
	.st26{stroke:#FFFFFF;stroke-width:0.25;stroke-miterlimit:10;}
	.st27{fill:#A60000;}
</style>
<g id="Håndlavet_3_">
	<polygon class="st26" points="33.7,27.6 37.5,29.1 38.1,32.9 34.9,40.5 28.2,39.4 28.5,34.1 	"/>
	<path class="st26" d="M33.1,40c-1.3-1.9-3.3-1.6-3.3-1.6c0.3-6.6-0.6-7-0.8-7.3c-2-1.9-1.7,0.6-1.8,1.3c-0.1,2.3-0.4,4.5-0.9,6
		c-0.6,1.7,0,2.7,0,2.7l2.7,4.5c0,0,2.8,3.2,7.1,0c0,0,1.8-3.5,1.4-5c-0.3-1.6-0.9-2.5-0.7-3.2c0.2-0.7,2.2-3.7,1.8-6.2
		c0,0-0.2-0.8-0.4-0.8s-1.8,5.6-3.1,6.7"/>
	<path class="st26" d="M29.5,32.2c0,0,4-5.1,4.2-5.4c0.2-0.3,1.4-0.8,1.5-0.1c0.1,0.8-1.1,3-1.2,3.2s-2.7,5-3.4,5.9"/>
	<path class="st26" d="M32.8,36.5c0.9-0.5,4.2-8.4,4.9-8.5c0.4-0.1,0.5,0.3,0.6,0.7c0.1,0.3-0.2,1.6-0.2,1.6"/>
	<path class="st26" d="M34.8,28.3c0,0,1.1-1.8,1.5-1.7c0.4,0.1,1.2,0.6,0.3,3"/>
	<polygon class="st26" points="43.7,27.6 39.9,29 39.3,32.9 42.5,40.4 49.2,39.3 48.9,34 	"/>
	<path class="st26" d="M44.2,39.9c1.3-1.9,3.3-1.6,3.3-1.6c-0.3-6.6,0.6-7,0.8-7.3c2-1.9,1.7,0.6,1.8,1.3c0.1,2.3,0.4,4.5,0.9,6
		c0.6,1.7,0,2.7,0,2.7l-2.7,4.5c0,0-2.8,3.2-7.1,0c0,0-1.8-3.5-1.4-5c0.3-1.6,0.9-2.5,0.7-3.2c-0.2-0.7-2.2-3.7-1.8-6.2
		c0,0,0.2-0.8,0.4-0.8c0.2,0,1.8,5.6,3.1,6.7"/>
	<path class="st26" d="M47.9,32.1c0,0-4-5.1-4.2-5.4c-0.2-0.3-1.4-0.8-1.5-0.1c-0.1,0.8,1.1,3,1.2,3.2c0.1,0.2,2.7,5,3.4,5.9"/>
	<path class="st26" d="M44.6,36.5c-0.9-0.5-4.2-8.4-4.9-8.5c-0.4-0.1-0.5,0.3-0.6,0.7c-0.1,0.3,0.2,1.6,0.2,1.6"/>
	<path class="st26" d="M42.5,28.3c0,0-1.1-1.8-1.5-1.7c-0.4,0.1-1.2,0.6-0.3,3"/>
</g>
</svg>
