<?xml version="1.0" encoding="utf-8"?>
<!-- Generator: Adobe Illustrator 22.1.0, SVG Export Plug-In . SVG Version: 6.00 Build 0)  -->
<svg version="1.1" id="Layer_1" xmlns="http://www.w3.org/2000/svg" xmlns:xlink="http://www.w3.org/1999/xlink" x="0px" y="0px"
	 viewBox="0 0 150 150" style="enable-background:new 0 0 150 150;" xml:space="preserve">
<style type="text/css">
	.st0{fill:none;}
	.st1{fill:none;stroke:#353535;stroke-width:3;stroke-linecap:round;stroke-linejoin:round;stroke-miterlimit:10;}
	.st2{fill:none;stroke:#353535;stroke-miterlimit:10;}
	.st3{fill:#353535;}
	.st4{fill:#575790;}
	.st5{fill:#A60000;}
	.st6{fill:#002A73;}
	.st7{fill:#6B532F;}
	.st8{fill:#FC5500;}
	.st9{fill:#FFD8A4;}
	.st10{fill:#95725E;}
	.st11{fill:none;stroke:#000000;stroke-linecap:round;stroke-linejoin:round;stroke-miterlimit:10;}
	.st12{fill:none;stroke:#575790;stroke-width:3;stroke-linecap:round;stroke-linejoin:round;stroke-miterlimit:10;}
	.st13{fill:#FFFFFF;stroke:#333333;stroke-width:2;stroke-miterlimit:10;}
	.st14{fill:#333333;}
	.st15{fill:none;stroke:#333333;stroke-width:2;stroke-miterlimit:10;}
</style>
<g>
	<g>
		<g>
			<path class="st3" d="M34.5,59.8c-4,4-9.2,1.4-13.3,4.1c-2.8,1.8-4.6,7.4-4.8,10.4C16,79.1,18.2,85.6,20.1,90
				c1.7,3.8,4.5,6.4,8.3,7.9c4.2,1.7,9.5,3.2,14,3.8c2.2,0.3,4.1-0.1,6.2-0.4c3.2-0.5,6.4-0.5,9.6-0.8c3.8-0.3,7.9-1.2,10.7-4
				c3.2-3.2,3.4-7.9,3.4-12.2c0-1.9-3-1.9-3,0c0.1,5.6-0.8,10.6-6.9,12.4c-4.1,1.2-8.6,0.7-12.7,1.3c-3.3,0.5-6,0.9-9.3,0.1
				c-3.8-0.9-8.7-1.7-12.2-3.6c-4.4-2.3-5.8-6.7-7.1-11.3c-1.3-4.8-2.7-9.5,0-14.1c3-5.1,11.1-2.8,15.5-7.3
				C38,60.5,35.8,58.4,34.5,59.8L34.5,59.8z"/>
		</g>
	</g>
	<g>
		<g>
			<path class="st3" d="M71.1,82.5c-4.1-0.7-5.2-6.7-5.4-10c-0.1-1.5,0.4-3.1-0.1-4.5c-0.4-1.1-0.8-1.3-1.8-2
				c-0.2-0.2-0.5-0.1-0.8-0.2c-1.7-0.8-3.5-1.1-5.1-2.5c-6.7-6-13.7-4-22.2-4.1c-1.9,0-1.9,3,0,3c5.2,0.1,10.5-1.4,15.6,0.2
				c3.7,1.2,5.6,4.8,9.2,6.2c1.1,0.4,1.5,0,2.1,1.4c0.3,0.7-0.1,2.5,0,3.4c0.2,2.1,0.7,4.2,1.4,6.1c1.2,2.9,2.9,5.4,6.1,5.9
				C72.2,85.7,73,82.8,71.1,82.5L71.1,82.5z"/>
		</g>
	</g>
	<g>
		<g>
			<path class="st3" d="M66.5,82.1c-2,1.5-4.9,3.3-6.1,5.5c-0.8,1.4-0.9,3.2-1.2,4.8c-0.4,2-0.8,4-1.2,5.9c-0.3,1.9,2.5,2.7,2.9,0.8
				c0.5-2.9,0.9-5.9,1.7-8.7c0.7-2.6,3.3-4.2,5.4-5.8C69.5,83.5,68,80.9,66.5,82.1L66.5,82.1z"/>
		</g>
	</g>
	<g>
		<g>
			<path class="st3" d="M59.8,90.7c-2.4-0.3-4.7-0.3-6.2-2.3c-2.6-3.3,0-6.2,0.6-9.7c0.3-1.9-0.6-2.5-1.1-4.1
				c-0.7-2.3-0.6-2.9,0.9-5.1c1-1.4,2.4-2.7,3.5-4c1.3-1.5-0.9-3.6-2.1-2.1c-1.8,2-6.4,5.6-6.7,8.5c-0.2,1.6,1.3,3,1.8,4.3
				c1.1,2.7-0.5,5.2-1.1,8c-0.6,3-0.5,4.3,1.5,6.2c3.1,3,4.3,2.9,8.8,3.4C61.7,93.9,61.7,90.9,59.8,90.7L59.8,90.7z"/>
		</g>
	</g>
	<g>
		<g>
			<path class="st3" d="M55.4,77.2c0.9-1.2,1.9-2.4,2.9-3.5c0.7-0.7,1-1.1,2-1.2c0.9-0.1,1.9-0.1,2.8-0.1c1.9-0.1,1.9-3.1,0-3
				c-2,0.1-4.2-0.2-5.8,1.1c-1.6,1.3-2.8,3-4,4.6C52.1,76.6,54.2,78.8,55.4,77.2L55.4,77.2z"/>
		</g>
	</g>
	<g>
		<g>
			<path class="st3" d="M32.2,62.4c-2,4.7-2.6,9.5-2.1,14.5c0.1,1.2,1.2,1.8,2.3,1.3c1.6-0.7,3.7-1.7,5.4-1.8c2-0.1,2.2,0.3,3.4,1.9
				c1,1.3,1.4,2.7,3.3,2.9c4.1,0.3,6-4.5,6.8-7.7c0.5-1.9-2.4-2.7-2.9-0.8c-0.2,0.8-0.7,3.1-1.3,3.6c-1.1,0.2-2.2,0.3-3.3,0.5
				c-0.2-0.4-0.5-0.8-0.7-1.2c-0.8-1-1.1-2.1-2.4-2.5c-2.8-0.8-7.2,1.4-9.8,2.6c0.8,0.4,1.5,0.9,2.3,1.3c-0.5-4.8,0.1-9.3,2-13.7
				C35.8,61.4,32.9,60.7,32.2,62.4L32.2,62.4z"/>
		</g>
	</g>
	<g>
		<g>
			<path class="st3" d="M43.7,80.9c1.3,3.1,2.6,5.4,1.3,8.7c-1.2,3.1-2.6,6.2-4.1,9.3c-0.8,1.7,1.8,3.3,2.6,1.5
				c1.6-3.5,3.4-7.1,4.6-10.7c1.3-3.6-0.1-6.2-1.6-9.7C45.9,78.3,43,79.1,43.7,80.9L43.7,80.9z"/>
		</g>
	</g>
	<g>
		<g>
			<path class="st3" d="M29.4,77.8c-0.9,2.3-2.3,4.9-2,7.4c0.4,3.6,1.4,6.7,0.9,10.4c-0.2,1.9,2.8,1.9,3,0c0.4-2.9,0.3-5.8-0.4-8.6
				c-0.8-3.2,0.3-5.4,1.4-8.4C33,76.8,30.1,76,29.4,77.8L29.4,77.8z"/>
		</g>
	</g>
	<g>
		<g>
			<path class="st3" d="M20,67.8c0.2,1.9,0.6,3.7,1,5.5c0.4,1.5,0.6,3.4,1.4,4.8c0.6,1.1,1.7,1.4,2.9,1.3c2-0.3,3.7-0.9,5.8-0.9
				c1.9,0,1.9-3,0-3c-1.2,0-2.4,0.1-3.6,0.3c-0.6,0.1-1.2,0.2-1.7,0.4c-1.1,0.4-0.5,0.5-0.9,0c-0.6-0.6-0.7-2.8-0.9-3.6
				c-0.4-1.6-0.7-3.1-0.9-4.7C22.8,65.9,19.8,65.9,20,67.8L20,67.8z"/>
		</g>
	</g>
</g>
<g>
	<g>
		<g>
			<path class="st3" d="M61.1,61.6c1.1-4.6,1.6-10.1,3.4-14.5c0.1-2,1.2-3.4,3.4-4.1c1-0.2,2-0.5,3-0.8c1.3-0.5,2.2-0.9,3.4-1.7
				c2.4-1.6,3.7-3.2,6.7-3.8c2.5-0.5,5.1-0.6,7.6-0.7c5.3-0.2,9.9,1.4,15,2.5c1.9,0.4,3.7,0.5,5.5,0.8c3.4,0.6,5,2.4,7.1,4.8
				c1.6,1.8,3,5.5,5.7,5.9c1.7,0.3,3.5-1.8,5-1.5c1.8,0.3,3.6,3.7,4.5,5.4c2.9,5.1,1.5,10.1,0.2,15.4c-0.5,2-0.9,4.3-1.6,6.2
				c-1.2,2.8-2.6,3.8-5,5.5c-2.9,2-4.7,4.8-7.2,7.2c-2.4,2.3-3,1.9-6.1,0.8c-2.2-0.8-4.4-1.5-6.8-1.8c-3-0.4-6.1,0-8.8,1.4
				c-1.3,0.7-2.6,2.4-3.8,2.9c-2.6,1-6.3-0.4-8.9-1c-4.6-1-11.8-1.1-14.5-5.5c-4.4-7.1-4.2-16.2-8.2-23.6c-0.9-1.7-3.5-0.2-2.6,1.5
				c4,7.4,3.8,16.4,8.2,23.6c3.9,6.4,13.4,6.3,20,7.7c2.6,0.6,5.2,1.6,7.5,0c1.8-1.2,2.9-2.7,5.1-3.4c3.5-1.2,7-0.5,10.4,0.6
				c2.2,0.7,5.5,2.8,7.9,1.9c3-1.1,4.8-5.7,7.2-7.9c2.2-2,5.7-3.1,7.3-5.6c2.4-3.6,3-9.8,3.9-14.1c1.5-7.1-0.3-13.9-5.7-19
				c-2.3-2.2-3.3-0.4-6.1-0.1c-3.1,0.4-6.5-6.2-9-8.2c-2.3-2-4.3-1.9-7.2-2.3c-4.7-0.5-9.1-2.4-13.8-2.9c-4.4-0.5-9.2-0.2-13.6,0.7
				c-4.4,0.9-6.8,4.2-10.9,5.6c-3,1.1-5.6,1-7,4.2c-2.3,5-2.9,11.7-4.1,17.1C57.8,62.7,60.7,63.5,61.1,61.6L61.1,61.6z"/>
		</g>
	</g>
	<g>
		<g>
			<path class="st3" d="M76.2,39.4c2.4,2.4,3.3,5.5,6,7.7c1.5,1.3,3.7,2.4,4.9,3.9c2.3,2.8,1.3,5.8,0.7,9c-0.1,0.5,0,1.1,0.4,1.5
				c2.4,2.1,5,1.9,7.8,0.5c3-1.5,5-2.7,8.5-1.9c1.7,0.4,3,1.1,4.7,0.6c7.7-2.3,5.5-17,4.7-22.4c-0.3-1.9-3.2-1.1-2.9,0.8
				c0.6,4.3,1.3,8.7,0.3,13c-0.3,1.3-0.7,4.1-2,4.9c-2.1,1.4-4.1,0-6.1-0.3c-1.7-0.2-3.4,0-5,0.6c-2.1,0.8-6,4.3-7.1,1.1
				c-0.5-1.5,0.7-4,0.4-5.7c-0.3-1.8-1.1-2.6-2.3-3.8c-2-1.9-4.5-3.2-6.4-5.3c-1.8-2-2.6-4.5-4.5-6.4C77,35.9,74.8,38,76.2,39.4
				L76.2,39.4z"/>
		</g>
	</g>
	<g>
		<g>
			<path class="st3" d="M109.4,59.2c0.4,3.7,1.4,7,3.2,10.2c0.5,1,2.1,1,2.6,0c0.8-1.6,1.2-3.1,1.6-4.8c0.2-1,0.4-2.1,0.7-3
				c0.6-1.7,1.7-2.2,2.9-3.6c2.1-2.3,2.2-6,2.9-9c0.4-1.9-2.4-2.7-2.9-0.8c-0.5,1.9-0.6,4.9-1.6,6.7c-0.6,1-1.5,1.4-2.4,2.4
				c-2.5,3-2.2,7.2-3.9,10.6c0.9,0,1.7,0,2.6,0c-1.5-2.8-2.4-5.6-2.7-8.7C112.2,57.3,109.2,57.3,109.4,59.2L109.4,59.2z"/>
		</g>
	</g>
	<g>
		<g>
			<path class="st3" d="M117.3,66.3c3.3-0.5,5.6-0.8,7.6-3.6c2.4-3.3,4.5-6.8,7.7-9.5c1.5-1.3-0.7-3.4-2.1-2.1
				c-2.2,1.9-3.9,4.3-5.7,6.7c-0.9,1.2-1.7,2.9-2.8,3.9c-1.5,1.4-3.6,1.5-5.5,1.8C114.6,63.7,115.4,66.6,117.3,66.3L117.3,66.3z"/>
		</g>
	</g>
	<g>
		<g>
			<path class="st3" d="M112.6,70.2c-0.4,4.1-1.2,8.4-1.1,12.6c0.1,3.3,1.4,6.4,2.4,9.5c0.6,1.8,3.5,1,2.9-0.8
				c-1.1-3.4-2.4-6.5-2.3-10.2c0.2-3.7,0.7-7.4,1.1-11.1C115.8,68.3,112.8,68.3,112.6,70.2L112.6,70.2z"/>
		</g>
	</g>
	<g>
		<g>
			<path class="st3" d="M87.8,60.2c-1,4.9-3.4,11-2.9,16c0.6,6.1,5,11.8,6.2,17.9c0.4,1.9,3.2,1.1,2.9-0.8c-1-5.4-4-10.1-5.4-15.3
				c-1.4-5.2,1.1-11.8,2.2-17C91.1,59.1,88.2,58.3,87.8,60.2L87.8,60.2z"/>
		</g>
	</g>
	<g>
		<g>
			<path class="st3" d="M85.9,48.5c-3.1,2-4.7,4.7-5,8.3c0.9-0.3,1.9-0.5,2.8-0.8c-2.7-3.5-5.2-7.4-8.2-10.6
				c-2.4-2.6-6.1-2.3-9.4-2.7c-1.9-0.2-1.9,2.8,0,3c1.5,0.2,4.2,0.1,5.6,0.6c1.7,0.7,2.7,2.4,3.7,3.8c1.9,2.5,3.8,4.9,5.7,7.4
				c0.9,1.2,2.6,0.8,2.8-0.8c0.3-2.6,1.4-4.3,3.5-5.7C89,50.1,87.5,47.5,85.9,48.5L85.9,48.5z"/>
		</g>
	</g>
	<g>
		<g>
			<path class="st3" d="M61.8,49.9c1.5,3.8,4.9,6.5,7.4,9.6c3.7,4.6,7.3,9.2,11,13.8c0.7,0.9,2.3,0.4,2.5-0.7
				c0.5-2.3,0.7-4.5,0.5-6.8c-0.2-1.6-2.7-7-0.7-8.3c1.6-1,0.1-3.6-1.5-2.6c-1.8,1.1-2.7,2.5-2.6,4.7c0,1.2,1,2.7,1.3,3.7
				c0.9,2.8,0.9,5.6,0.2,8.5c0.8-0.2,1.7-0.4,2.5-0.7c-3-3.7-5.9-7.4-8.9-11.1c-2.6-3.2-7.3-7.1-8.7-10.9
				C64,47.3,61.1,48.1,61.8,49.9L61.8,49.9z"/>
		</g>
	</g>
	<g>
		<g>
			<path class="st3" d="M79.4,73.3c0.1,3.4,0.1,5.9,2.8,8.1c4.2,3.4,7.1,7.2,8.8,12.4c0.6,1.8,3.5,1,2.9-0.8c-1.1-3.3-2.6-6.3-4.7-9
				c-1.1-1.4-2.4-2.7-3.7-3.8c-2.5-2-2.9-3.4-3-6.8C82.4,71.3,79.4,71.3,79.4,73.3L79.4,73.3z"/>
		</g>
	</g>
	<g>
		<g>
			<path class="st3" d="M68.1,59.3c-0.1,2.2,0.6,4.2,0.9,6.3c0.3,2.7-0.5,5.6-0.5,8.3c-0.1,5.4,0.3,10.9,0.8,16.3
				c0.2,1.9,3.2,1.9,3,0c-0.5-5.4-1-10.9-0.8-16.3c0.1-2.3,0.8-4.7,0.8-7c0-2.6-1.2-5-1.1-7.7C71.2,57.4,68.2,57.4,68.1,59.3
				L68.1,59.3z"/>
		</g>
	</g>
	<g>
		<g>
			<path class="st3" d="M70.5,80.2c2.1-0.3,4.1-1,6.2-1.6c1.6-0.5,3.2-0.8,4.6-1.8c1.6-1.1,0.1-3.7-1.5-2.6
				c-1.4,0.9-3.1,1.2-4.6,1.7c-1.8,0.5-3.6,1.1-5.4,1.3C67.8,77.6,68.6,80.5,70.5,80.2L70.5,80.2z"/>
		</g>
	</g>
</g>
<g>
	<g>
		<g>
			<path class="st3" d="M69.9,103.9c0.3-1.1,0.4-4.1,1.2-4.9c0.3-0.4,2-0.9,2.6-1.2c3-1.2,7.3-1.9,10.5-0.4c1.6,0.8,2.3,2.6,3.9,3.3
				c0.5,0.2,1.2-0.6,1.6-0.5c2,0.5,1.3,4.8,0.9,6.5c-0.5,1.8-1.7,3.3-3.4,4.3c-2.4,1.4-3.9-0.2-6.3,0.5c-0.6,0.2-1.7,1.1-2,1.1
				c-1,0.2-3.4-0.3-4.4-0.7c-3.3-1.4-3.3-5.3-4.7-8.2c-0.4-0.9-1.7-0.1-1.3,0.8c1.1,2.4,1.2,6.8,3.7,8.4c1.5,0.9,4.6,1.4,6.3,1.5
				c1.9,0.1,3.8-1.2,5.8-1.1c1.1,0,1.5,0.7,2.5,0.5c1.2-0.3,3.5-2.9,4.1-3.8c1.1-1.6,1.9-4.7,1.7-6.7c-0.2-1.8-1.3-3.7-2.9-4.4
				c-0.3-0.1-1.4,0.5-1.5,0.4c-0.4-0.1-1.2-1.6-1.6-1.9c-1.1-1-1.3-1-2.7-1.3c-3.6-0.9-6.9-1.4-10.4,0.1c-4.4,1.8-3.9,2.8-5.1,7.6
				C68.3,104.4,69.7,104.8,69.9,103.9L69.9,103.9z"/>
		</g>
	</g>
	<g>
		<g>
			<path class="st3" d="M74,97.3c0.7,0.8,1.1,1.7,2,2.5c1.4,1.2,1.8,1.6,1.5,3.5c-0.1,0.4,0.1,0.6,0.3,0.8c1,0.7,1.7,0.4,2.7,0
				c1-0.3,1.6-0.5,2.6-0.4c0.6,0.1,0.9,0.3,1.4,0c2.4-1,1.7-5.2,1.5-7.1c-0.1-1-1.6-0.5-1.4,0.4c0.2,1.1,0.5,2.9,0,4
				c-0.8,1.9-1.1,1-2.3,0.9c-1-0.1-3,1.3-3.7,0.8c0.1,0.3,0.2,0.6,0.3,0.8c0.2-1.2,0.6-2.6-0.2-3.6c-0.5-0.6-1.3-1-1.9-1.6
				c-0.7-0.7-1.1-1.5-1.7-2.3C74.4,95.5,73.3,96.6,74,97.3L74,97.3z"/>
		</g>
	</g>
	<g>
		<g>
			<path class="st3" d="M84,103.1c0.1,1.2,0.4,2.2,1,3.3c0.3,0.5,1.1,0.5,1.3,0c0.6-1.2,0.5-2.4,1.5-3.3c0.8-0.7,0.8-1.9,1-2.9
				c0.2-0.9-1.2-1.3-1.4-0.4c-0.2,0.7-0.3,1.4-0.5,2c-0.1,0.4,0.2-0.1-0.2,0.2c-0.2,0.1-0.3,0.3-0.4,0.4c-0.8,0.9-0.7,2.2-1.2,3.2
				c0.4,0,0.9,0,1.3,0c-0.4-0.8-0.7-1.6-0.8-2.5C85.3,102.2,83.8,102.1,84,103.1L84,103.1z"/>
		</g>
	</g>
	<g>
		<g>
			<path class="st3" d="M86.7,105.5c1.1-0.2,1.8-0.3,2.5-1.2c0.7-1,1.3-2,2.3-2.8c0.7-0.6-0.3-1.7-1.1-1.1c-0.7,0.6-1.2,1.3-1.8,2.1
				c-0.3,0.4-0.5,0.9-0.8,1.2c-0.4,0.3-1,0.3-1.5,0.4C85.3,104.2,85.7,105.7,86.7,105.5L86.7,105.5z"/>
		</g>
	</g>
	<g>
		<g>
			<path class="st3" d="M84.9,106.5c-0.1,1.3-0.4,2.6-0.3,3.8c0,1,0.4,2,0.7,2.9c0.3,0.9,1.8,0.5,1.4-0.4c-0.3-1-0.7-1.9-0.7-3
				c0-1.1,0.2-2.2,0.3-3.4C86.5,105.5,85,105.5,84.9,106.5L84.9,106.5z"/>
		</g>
	</g>
	<g>
		<g>
			<path class="st3" d="M77.4,103.3c-0.3,1.7-1.2,3.7-0.8,5.4c0.4,1.7,1.5,3.3,1.8,5c0.2,0.9,1.6,0.5,1.4-0.4
				c-0.3-1.4-0.9-2.7-1.4-4c-0.7-1.8,0.1-3.7,0.4-5.6C79,102.8,77.6,102.4,77.4,103.3L77.4,103.3z"/>
		</g>
	</g>
	<g>
		<g>
			<path class="st3" d="M77,99.6c-1,0.7-1.5,1.6-1.7,2.8c0.5-0.1,0.9-0.3,1.4-0.4c-0.8-1.1-1.6-2.3-2.5-3.3c-0.8-0.9-2-0.8-3.1-0.9
				c-1-0.1-1,1.4,0,1.5c0.4,0,1.2,0,1.6,0.2c0.4,0.2,0.7,0.7,1,1c0.6,0.7,1.1,1.5,1.7,2.2c0.5,0.6,1.3,0.4,1.4-0.4
				c0.1-0.7,0.4-1.1,0.9-1.5C78.5,100.4,77.8,99.1,77,99.6L77,99.6z"/>
		</g>
	</g>
	<g>
		<g>
			<path class="st3" d="M69.5,100.4c0.5,1.2,1.5,2,2.3,3c1.1,1.4,2.2,2.8,3.3,4.2c0.4,0.4,1.1,0.2,1.3-0.3c0.2-0.7,0.2-1.4,0.1-2.2
				c0-0.3-0.7-2-0.4-2.2c0.8-0.5,0.1-1.8-0.8-1.3c-0.6,0.4-1,0.9-0.9,1.7c0,0.4,0.3,0.8,0.4,1.2c0.3,0.8,0.3,1.6,0.1,2.4
				c0.4-0.1,0.8-0.2,1.3-0.3c-0.9-1.1-1.8-2.2-2.7-3.4c-0.4-0.5-0.8-1-1.2-1.5c-0.5-0.5-1.1-1-1.4-1.7
				C70.6,99.1,69.2,99.5,69.5,100.4L69.5,100.4z"/>
		</g>
	</g>
	<g>
		<g>
			<path class="st3" d="M74.9,107.4c0,1.1,0.1,2,1,2.7c1.2,1,2.1,2.1,2.5,3.6c0.3,0.9,1.7,0.5,1.4-0.4c-0.3-1-0.8-2-1.5-2.9
				c-0.3-0.4-0.7-0.8-1.1-1.1c-0.7-0.6-0.8-0.8-0.8-1.9C76.3,106.4,74.8,106.4,74.9,107.4L74.9,107.4z"/>
		</g>
	</g>
	<g>
		<g>
			<path class="st3" d="M71.4,103.1c0,0.8,0.3,1.5,0.3,2.3c0,0.6-0.2,1.2-0.2,1.8c-0.1,1.7,0.1,3.5,0.2,5.2c0.1,1,1.6,1,1.5,0
				c-0.1-1.7-0.3-3.5-0.2-5.2c0-0.6,0.2-1.2,0.2-1.8c0-0.8-0.3-1.5-0.3-2.3C72.9,102.2,71.4,102.2,71.4,103.1L71.4,103.1z"/>
		</g>
	</g>
	<g>
		<g>
			<path class="st3" d="M72.5,109.8c0.6-0.1,1.3-0.3,1.9-0.5c0.5-0.1,1-0.3,1.4-0.6c0.8-0.5,0-1.8-0.8-1.3c-0.4,0.3-0.9,0.4-1.3,0.5
				c-0.5,0.2-1.1,0.3-1.6,0.4C71.2,108.5,71.6,109.9,72.5,109.8L72.5,109.8z"/>
		</g>
	</g>
</g>
</svg>
