<?xml version="1.0" encoding="utf-8"?>
<!-- Generator: Adobe Illustrator 22.1.0, SVG Export Plug-In . SVG Version: 6.00 Build 0)  -->
<svg version="1.1" id="Layer_1" xmlns="http://www.w3.org/2000/svg" xmlns:xlink="http://www.w3.org/1999/xlink" x="0px" y="0px"
	 viewBox="0 0 877.5 918.1" style="enable-background:new 0 0 877.5 918.1;" xml:space="preserve">
<style type="text/css">
	.st0{fill:none;stroke:#000000;stroke-miterlimit:10;}
	.st1{fill:#FFFFFF;}
	.st2{fill:#7F5056;}
	.st3{fill:#9F6166;}
	.st4{fill:#B57D86;}
	.st5{fill:#4A1B25;}
	.st6{opacity:0.42;}
	.st7{fill:#CCAAA2;}
	.st8{fill:#915960;}
	.st9{opacity:6.000000e-02;fill:#FFFFFF;}
	.st10{opacity:0.49;}
	.st11{fill:#4F3136;}
	.st12{fill:#362222;}
	.st13{fill:#002A73;stroke:#002A73;stroke-width:0.25;stroke-miterlimit:10;}
	.st14{fill:#FFFFFF;stroke:#000000;stroke-miterlimit:10;}
	.st15{fill:#95725E;stroke:#FFFFFF;stroke-width:0.25;stroke-miterlimit:10;}
	.st16{fill:#353535;stroke:#FFFFFF;stroke-width:0.25;stroke-miterlimit:10;}
	.st17{fill:#FC5500;}
	.st18{fill:none;stroke:#000000;stroke-width:0.5;stroke-miterlimit:10;}
	.st19{fill:#3F2E19;}
	.st20{fill:none;stroke:#FFFFFF;stroke-width:0.25;stroke-miterlimit:10;}
	.st21{fill:none;}
	.st22{fill:#9F6166;stroke:#FFFFFF;stroke-width:0.25;stroke-miterlimit:10;}
	.st23{fill:#A60000;stroke:#FFFFFF;stroke-width:0.25;stroke-miterlimit:10;}
	.st24{fill:#1B8B00;}
	.st25{fill:#F7CCAD;stroke:#FFFFFF;stroke-width:0.25;stroke-miterlimit:10;}
	.st26{font-family:'BookmanOldStyle';}
	.st27{font-size:26.3422px;}
	.st28{font-size:18.394px;}
	.st29{font-size:9.9962px;}
	.st30{stroke:#FFFFFF;stroke-width:0.25;stroke-miterlimit:10;}
	.st31{font-size:11.669px;}
	.st32{font-size:22.3633px;}
	.st33{fill:#A60000;}
</style>
<path class="st0" d="M267.4,625.6l18.9,8.7c-58.8,35-132.6,0-132.6,0"/>
<path class="st2" d="M427.6,144.8c-19.1,1.2-37.1,4-37.1,4c-37.6-5.7-59.8,1.1-59.8,1.1c-35.9-1.6-54.5,4.5-54.5,4.5
	c-27.6,2.2-36,6.6-36,17c0,19.7,16.7,118,206.1,118.2c166,0.2,169-98.7,169-119.4c0-10.4-7-12-34.6-14.2c0,0-24.2-10.6-60.8-7.3
	c0,0-21.4-5.7-59,0.1c0,0-10.7-2.8-29.7-4H427.6z"/>
<g>
	<path class="st3" d="M586.9,155.9c-3.7,0-7.6-0.6-10.6-2.1c-1,18.6-4.1,46.3-11.8,86.7c-13.7,72.2-33.9,161.1-37.9,209.9
		c-5.8,70.3,5,224-4.7,265.9c0,0,18.8-0.3,21.9-35.1c1.6-17.5,2.6-33.4,3.4-49.4c1.7-34.8,2.2-69.5,5.2-119.5
		c1-17.5,2.4-36.8,4.1-58.6c2.7-32.8,8.8-66.7,16.1-100.6l0.1,0c6.8-31.3,14.6-62.7,21.8-93.4c7.5-32,14-64.7,17.9-95.5
		c-5-1.7-9.7-3.9-14.2-6.4C594.3,157.3,590.5,156.7,586.9,155.9z"/>
	<path class="st3" d="M574.2,152.5c0,0-0.1-0.1-0.1-0.1c-1.7-0.4-3.5-0.8-5.2-1.2c-0.6-0.1-1.3-0.1-1.9-0.2
		c-1.5-0.1-2.9-0.4-4.4-0.8c-1.3-0.3-2.5-0.7-3.7-1.2c-2.6-0.3-5.2-0.7-7.8-1.1c-0.7-0.1-1.3-0.2-1.7-0.3c-1.6-0.1-3.2-0.3-4.8-0.6
		c-1,0.2-2,0.4-3.1,0.5c-2.8,0.4-5,0.1-7.8-0.1c-0.9-0.1-1.8-0.2-2.6-0.3c-2.6,0.3-5.2,0.5-7.8,0.5c0.9,18.4,2,46.5,0.7,57.5
		C511,321,493.6,452.4,490.5,560.4c-2.6,90.5,0.9,158-4.4,166.6c0,0,23,11.4,35.7-10.8c0,0,9.5-9,3.9-152.3
		c-4.6-119,46.8-315.7,50.9-410C575.8,153.5,575,153,574.2,152.5z"/>
	<path class="st3" d="M522.1,147.6c-9,0-17.6-1.3-25.7-3.7c-3.6,0.1-7.2,0.1-10.8-0.2c-8.9,3.1-18.1,4.7-27.7,5
		c-0.2,14.4-0.4,38.1-0.8,67.9c-2.1,159.5-7.5,494-16.1,515.1c0,0,22.7,18.2,45.2-4.8c0,0,9.6-22.7,7.4-110.3
		c-1.6-64.6,2.4-139.1,12.2-223c13.9-119.3,23.9-187.7,18.6-246.2C523.6,147.6,522.9,147.6,522.1,147.6z"/>
	<path class="st3" d="M422.8,144.8c-0.5,198.2-0.5,394.7-0.4,595.9"/>
	<path class="st3" d="M329.1,450.3c-4-48.8-24.2-137.7-37.9-209.9c-7.8-41.2-10.9-69.3-11.8-87.9c-0.6,0.1-1.3,0.2-1.9,0.3
		c-0.8,0.1-1.6,0.2-2.4,0.3c-0.4,0-0.8,0.1-1.2,0.1c-0.3,0-0.5,0-0.8,0c-0.2,0-0.4,0-0.7,0c-1.7,0.4-3.4,0.6-5.2,0.6
		c-3.2-0.1-3.5,0-1.1,0.1c-1.6,0.7-3.3,1.4-5,2c-2.2,0.7-4.4,1.3-6.6,1.9c-1.2,0.9-2.5,1.9-3.7,2.8c-0.6,0.4-1.2,0.9-1.8,1.3
		c-0.7,0.5-1.4,0.8-2.1,1.2c-0.9,1.8-1.9,3.5-3,5c4,29.6,10.3,60.9,17.4,91.6c7.2,30.7,15,62.1,21.8,93.4l0.1,0
		c7.3,33.9,13.4,67.8,16.1,100.6c1.8,21.8,3.1,41.2,4.1,58.6c3,49.9,3.5,84.7,5.2,119.5c0.8,16,1.8,31.9,3.4,49.4
		c3.2,34.9,21.9,35.1,21.9,35.1C324,674.3,334.9,520.6,329.1,450.3z"/>
	<path class="st3" d="M365.1,560.4c-3.1-108-20.4-239.4-33.4-355.3c-1.2-11-0.2-38.9,0.7-57.3c-4.2,0.6-8.5,1-12.8,1
		c-2.3,0-4.6-0.1-6.9-0.3c-1.8,0.4-3.6,0.6-5.2,0.4c-1.9-0.2-3.8-0.5-5.7-0.8c-0.2,0-0.5,0-0.7,0c-0.1,0-0.1,0-0.2,0
		c-2,0.4-4.1,0.6-6.2,0.6c-3.6,1.2-7.4,2.1-11.1,2.8c-0.7,0.2-1.5,0.5-2.2,0.6c-0.7,0.1-1.5,0.3-2.4,0.4c0,0-0.1,0-0.1,0
		c3.7,93.7,55.6,291.7,51,411.3c-5.5,143.3,3.9,152.3,3.9,152.3c12.7,22.2,35.7,10.8,35.7,10.8C364.1,718.4,367.7,651,365.1,560.4z"
		/>
	<path class="st3" d="M398.5,216.6c-0.4-30.4-0.7-54.4-0.8-68.7c-10.9,1.8-20.9-3.1-32.7-2.4c-0.3-0.1-0.5-0.1-0.8-0.2
		c-2.2,0.6-4.6,1-7.3,1c-3.8,0-7.2-0.7-10.1-2c-5,1.6-10.2,2.9-15.5,3.6c-5.2,58.4,4.8,126.8,18.6,245.8
		c9.8,83.9,13.8,158.4,12.2,223c-2.2,87.6,7.4,110.3,7.4,110.3c22.5,23,45.2,4.8,45.2,4.8C406,710.6,400.6,376.2,398.5,216.6z"/>
	<path class="st3" d="M455.6,148.8c-8.1-1.1-16.3-2.2-24.4-3.3c-3-0.7-5.8-1.6-8.6-2.7c-6.7,2.5-13.7,4-20.9,4.3
		c-2.5,0.6-5.1,1-7.6,1.2c-5.9,34.6-4.4,92.7-0.9,162.5c5.5,108,13.5,178.7,11.1,288.3c-2,91.4,1.8,132.3,1.8,132.3
		c7.2,10.1,17,9.8,23,10.1c6.3,0.3,14.8,0.2,21.5-9.1c0,0,2.8-41.9,0.8-133.3c-2.4-109.6,5.7-180.3,11.1-288.3
		c3.5-69.7,5-127.7-0.9-162.3C459.6,148.7,457.6,148.8,455.6,148.8z"/>
</g>
<g>
	<g>
		<path class="st4" d="M281.8,165c3.8,21.3,7.4,42.6,11.1,63.8c3.6,21.3,7.1,42.6,10.5,63.9c3.4,21.3,6.5,42.7,9.5,64.1
			c1.5,10.7,2.9,21.4,4.2,32.1l1,8c0.3,2.7,0.5,5.4,0.8,8.1c0.5,5.4,1,10.8,1.4,16.2c3.2,43.1,3.7,86.4,4.2,129.6
			c0.2,21.6,0.5,43.2,1.2,64.7c0.6,21.6,1.8,43.1,3.5,64.7c-2.4-21.5-3.8-43-4.9-64.6c-1-21.6-1.6-43.2-2.1-64.8
			c-0.5-21.6-0.8-43.2-1.5-64.7c-0.7-21.6-1.7-43.1-3.4-64.6c-0.3-5.4-0.9-10.7-1.3-16.1c-0.3-2.7-0.4-5.4-0.7-8l-1-8
			c-1.3-10.7-2.7-21.4-4.1-32.1c-2.8-21.4-6-42.8-9.1-64.1c-3.1-21.4-6.4-42.7-9.7-64.1C288.3,207.7,284.9,186.4,281.8,165z"/>
	</g>
	<g>
		<path class="st4" d="M326.1,155.8c1.3,22.4,3.4,44.7,6.3,67c2.8,22.2,6.1,44.4,9.6,66.6c3.4,22.2,6.7,44.4,9.5,66.7
			c1.4,11.1,2.5,22.3,3.6,33.5c1,11.2,1.9,22.4,2.5,33.6c2.7,44.9,3,89.8,2.7,134.7c-0.1,11.2-0.2,22.4-0.2,33.7
			c0,11.2,0.1,22.4,0.4,33.6c0.3,11.2,0.7,22.4,1.5,33.6c0.4,5.6,0.8,11.2,1.3,16.8c0.5,5.6,1.1,11.2,1.7,16.7
			c-0.8-5.5-1.6-11.1-2.3-16.7c-0.7-5.6-1.3-11.2-1.8-16.7c-1-11.2-1.8-22.4-2.4-33.6c-1-22.4-1.2-44.9-1.3-67.4
			c-0.2-22.4-0.3-44.9-0.9-67.3c-0.5-22.4-1.3-44.8-2.7-67.2c-0.6-11.2-1.5-22.4-2.4-33.5c-1-11.2-2.1-22.3-3.5-33.4
			c-2.6-22.3-5.8-44.5-8.8-66.7c-3-22.2-6-44.5-8.5-66.8c-1.1-11.2-2.2-22.4-2.9-33.6C326.7,178.3,326.3,167.1,326.1,155.8z"/>
	</g>
	<g>
		<path class="st4" d="M572.2,157.7c-2.9,21.8-6.1,43.5-9.3,65.2l-10,65.1l-5.1,32.5c-0.8,5.4-1.8,10.8-2.5,16.3l-2.2,16.3
			c-2.7,21.8-5,43.6-6.8,65.5c-3.7,43.7-5.4,87.6-6.4,131.5c-0.5,21.9-0.8,43.9-1,65.9l-0.4,32.9l-0.1,8.2c0,2.8-0.4,5.5-1,8.2
			c-1.3,5.4-3.3,10.5-5.5,15.5c2.1-5.1,3.9-10.3,5.1-15.6c0.6-2.7,0.9-5.4,0.8-8.1l-0.1-8.2l-0.3-32.9c-0.1-22-0.1-43.9,0.2-65.9
			c0.2-22,0.8-43.9,1.7-65.9c0.9-22,2.2-43.9,3.9-65.8c1.9-21.9,4.2-43.8,7-65.6l2.3-16.3c0.8-5.4,1.7-10.9,2.6-16.3
			c1.7-10.8,3.6-21.7,5.4-32.5l10.9-65l5.4-32.5L572.2,157.7z"/>
	</g>
	<g>
		<path class="st4" d="M525.6,156.7c0.7,5,0.9,10.2,0.7,15.3c-0.2,5.1-0.7,10.2-1.2,15.2c-0.6,5.1-1.2,10.1-1.7,15.2
			c-0.5,5.1-0.9,10.1-0.8,15.1c0,0,0,0.1,0,0.1l0,0l-8.9,59c-2.9,19.7-5.8,39.3-8.4,59c-1.3,9.8-2.6,19.7-3.8,29.6
			c-1.2,9.9-2.3,19.7-3.4,29.6c-0.8,9.9-1.7,19.7-2.1,29.7l-0.4,7.4c-0.1,2.5-0.2,5-0.3,7.4c-0.2,5-0.4,9.9-0.5,14.9l-0.3,14.9
			l-0.2,14.9c-0.1,5-0.1,9.9-0.1,14.9l0,14.9l0.1,29.8c0,9.9,0,19.9-0.1,29.8c0,5-0.1,9.9-0.2,14.9c-0.1,5-0.1,10-0.3,14.9
			l-0.5,14.9c-0.2,5-0.5,9.9-0.8,14.9c-1.3,19.9-3.1,39.7-6,59.4c4.5-39.5,5.3-79.3,5-119.1l-0.7-59.7c-0.2-19.9-0.2-39.8,0.3-59.7
			c0.1-5,0.3-10,0.5-14.9c0.1-2.5,0.2-5,0.3-7.5l0.4-7.5c0.5-10,1.4-19.9,2.2-29.8c2.1-19.8,4.6-39.6,7.5-59.3
			c1.4-9.9,2.9-19.7,4.4-29.5l4.8-29.5c3.3-19.6,6.6-39.2,9.9-58.8l0,0.1c0.1-5.1,0.6-10.2,1.2-15.3c0.6-5.1,1.4-10.1,2.1-15.1
			c0.7-5,1.3-10.1,1.6-15.2C526.1,166.9,526.2,161.8,525.6,156.7z"/>
	</g>
	<g>
		<path class="st4" d="M390.6,154.7c1.6,22.5,2.9,45,4.4,67.5l1.9,33.8l1.8,33.8c2.3,45.1,4.1,90.1,5.6,135.2l1,33.8l0.9,33.8
			c0.5,22.6,1,45.1,1.2,67.7l0.3,33.8l0.2,33.8c-0.1,22.6-0.1,45.1-0.4,67.7l-1.6-67.6l-0.8-33.8l-0.9-33.8l-1.9-67.6l-1-33.8
			l-1.1-33.8c-1.4-45.1-3.1-90.2-4.6-135.2L390.6,154.7z"/>
	</g>
	<g>
		<path class="st4" d="M460.9,158.7c0.1,22.4-0.2,44.8-0.2,67.2l-0.7,67.2c-0.5,44.8-1.5,89.6-2.7,134.3l-1,33.6l-1.1,33.6
			c-0.9,22.4-1.7,44.8-2.8,67.1l-1.7,33.5l-1.8,33.5l-2.1,33.5l-1.2,16.8l-1.2,16.8l2.6-67.1L448,595l1.1-33.6l2.1-67.1l2-67.1
			l3.7-134.3l1.9-67.1l1.1-33.6l0.5-16.8L460.9,158.7z"/>
	</g>
	<g>
		<path class="st5" d="M280.8,165c3.4,21.2,6.9,42.5,10.1,63.7c3.3,21.3,6.4,42.5,9.4,63.8c6,42.6,11.4,85.3,15.7,128.1
			c1,10.7,2.1,21.4,2.9,32.1l1.3,16.1l1.2,16.1l0.6,8l0.5,8.1l1,16.1l0.8,16.1c0.3,5.4,0.5,10.7,0.7,16.1l0.5,16.1
			c0.1,2.7,0.1,5.4,0.2,8.1l0.1,8.1L326,614l0.1,8.1l0,4l0,4c-0.1,5.4-0.2,10.8-0.1,16.1c0.1,5.4,0.4,10.7,1.2,16.1
			c0.8,5.3,2,10.6,3.9,15.6c-1.9-5-3.2-10.3-4-15.6c-0.8-5.3-1.2-10.7-1.3-16.1c-0.2-5.4-0.1-10.8-0.1-16.1l0-4l-0.1-4l-0.1-8.1
			l-0.4-32.3l-0.1-8.1c0-2.7-0.1-5.4-0.2-8.1l-0.6-16.1c-0.2-5.4-0.4-10.7-0.7-16.1l-0.8-16.1l-1-16.1l-0.5-8l-0.6-8l-1.2-16.1
			l-1.4-16.1c-0.9-10.7-2-21.4-3-32.1c-4.2-42.8-9.5-85.5-15.4-128.1c-3-21.3-6-42.6-9.3-63.9C287.3,207.5,284.1,186.3,280.8,165z"
			/>
	</g>
	<g>
		<path class="st5" d="M327.7,154.6c2.1,44.8,9,89.2,15.6,133.6c3.3,22.2,6.5,44.4,8.9,66.7c2.4,22.3,4.2,44.7,5.6,67.1
			c2.7,44.8,3.9,89.7,4.1,134.5c0.1,22.4,0,44.9-0.1,67.3l-0.1,16.8c-0.1,5.6-0.4,11.2-0.5,16.8c-0.1,5.6,0,11.2,0.7,16.8
			c0.7,5.5,2.1,11.1,5.1,15.9c-3-4.7-4.5-10.3-5.3-15.8c-0.8-5.6-0.9-11.2-0.9-16.8c0-5.6,0.3-11.2,0.3-16.8l-0.1-16.8
			c-0.1-22.4-0.1-44.9-0.4-67.3c-0.5-44.8-1.6-89.7-4.5-134.4c-1.4-22.4-3.1-44.7-5.5-67c-2.4-22.3-5.6-44.5-8.7-66.7
			c-3.2-22.2-6.4-44.4-9.1-66.7C330.5,199.4,328.5,177,327.7,154.6z"/>
	</g>
	<g>
		<path class="st5" d="M574.1,158.1c-1.4,21.8-3.9,43.5-7.2,65c-3.3,21.6-7.2,43-11.1,64.5c-3.9,21.5-7.7,42.9-10.9,64.5
			c-3.3,21.6-5.5,43.3-7.2,65c-3.5,43.5-4.6,87.1-6.3,130.7c-0.9,21.8-1.8,43.6-3,65.4c-1.2,21.8-2.7,43.6-4.5,65.3
			c1.7-21.7,3-43.5,4-65.3c1.1-21.8,2-43.6,2.8-65.4c1.6-43.6,2.6-87.2,6-130.8c1.8-21.7,4.1-43.5,7.4-65c3.3-21.6,7.2-43,11.1-64.5
			c3.9-21.5,7.9-42.9,11.2-64.5C569.9,201.5,572.6,179.8,574.1,158.1z"/>
	</g>
	<g>
		<path class="st5" d="M527.3,156.6c-1.2,22.3-3.4,44.5-6.1,66.7c-2.8,22.1-6.1,44.2-9.2,66.3c-3.1,22.1-6.2,44.2-8.3,66.4
			c-2.2,22.2-3.8,44.5-5.2,66.7c-2.9,44.5-4.4,89.1-5,133.8c-0.3,22.3-0.4,44.6-1.1,66.9c-0.7,22.3-2,44.6-4.1,66.8
			c1.9-22.2,2.9-44.5,3.4-66.8c0.6-22.3,0.5-44.6,0.7-66.9c0.4-44.6,1.9-89.3,4.7-133.8c1.5-22.3,3.2-44.5,5.4-66.8
			c2.2-22.2,5.2-44.4,8.5-66.4c3.3-22.1,6.7-44.1,9.6-66.2C523.5,201,525.9,178.8,527.3,156.6z"/>
	</g>
	<g>
		<path class="st5" d="M392.3,155.3c0.6,22.4,1.6,44.8,2.8,67.2c1.2,22.4,2.6,44.8,4,67.2c2.7,44.8,5.6,89.6,6.1,134.5
			c0.4,22.4,0.5,44.9,0.6,67.3l0.3,67.3c0.1,22.4,0.4,44.9,0.9,67.3c0.5,22.4,1.2,44.8,2.3,67.3c-1.4-22.4-2.5-44.8-3.3-67.2
			c-0.7-22.4-1.2-44.9-1.5-67.3c-0.6-44.9-0.6-89.7-1.4-134.6c-0.4-44.9-3.3-89.6-5.7-134.4c-1.2-22.4-2.4-44.8-3.4-67.2
			C393.3,200.2,392.6,177.8,392.3,155.3z"/>
	</g>
	<g>
		<path class="st5" d="M462.9,159.3l-1.1,33.4l-0.8,33.4l-0.6,33.4l-0.4,33.4l-0.9,133.6c-0.5,44.5-1.3,89.1-3.2,133.6l-1.7,33.4
			l-2.1,33.3l-2.7,33.3l-3.3,33.2l2.8-33.3l2.2-33.3l1.8-33.3l1.4-33.4c1.6-44.5,2.4-89,2.7-133.6c0.5-44.5,0.7-89.1,1.4-133.6
			l0.6-33.4L460,226l1.3-33.4L462.9,159.3z"/>
	</g>
</g>
<path class="st6" d="M427.6,144.8c-19.1,1.2-37.1,4-37.1,4c-37.6-5.7-59.8,1.1-59.8,1.1c-35.9-1.6-54.5,4.5-54.5,4.5
	c-27.6,2.2-36,6.6-36,17c0,19.7,13.8,104.6,177.6,104.6c188.6,0,197.5-85.1,197.5-105.8c0-10.4-7-12.8-34.6-15
	c0,0-24.2-9.7-60.8-6.4c0,0-21.4-5.7-59,0.1c0,0-10.7-2.8-29.7-4H427.6z"/>
<path class="st7" d="M325.1,765.8c0,0-2.3,10.2,0,22.9c0.5,2.4,18.9,43.9,110.8,43.9c89.9,0,102.4-39.2,102.8-43.9
	c1-9.9,0-22.9,0-22.9H325.1z"/>
<path class="st8" d="M325.1,768c0,0-2.3,9.2,0,20.8c0.5,2.2,18.9,39.8,110.8,39.8c89.9,0,102.4-35.5,102.8-39.8c1-9,0-20.8,0-20.8
	H325.1z"/>
<path class="st9" d="M326,768.9c0,0-2.3,9.2,0,20.8c0.5,2.2,18.9,39.8,110.8,39.8c89.9,0,102.4-35.5,102.8-39.8c1-9,0-20.8,0-20.8
	H326z"/>
<path class="st3" d="M557.2,700c-0.8,16-1.8,31.9-3.4,49.4c-3.2,34.9-21.9,35.1-21.9,35.1c-12.7,22.2-35.7,10.8-35.7,10.8
	c-22.5,23-45.2,4.8-45.2,4.8c-7.6,10.4-18.7,9-18.7,9s-12.4,1.3-19.3-9c0,0-22.7,18.2-45.2-4.8c0,0-23,11.4-35.7-10.8
	c0,0-18.8-0.3-21.9-35.1c-1.6-17.8-2.6-34.1-3.4-50.5c0,0,56.5,31.3,124.9,31.3C500.1,730.2,557.2,700,557.2,700z"/>
<path class="st3" d="M281.2,420c7.5,34.4,13.7,68.7,16.4,102c1.5,17.9,3.2,43.7,4.1,58.6c0,0,57.8,32.4,130,32.4
	c71.2,0,130.6-32.4,130.6-32.4c1-17.5,2.4-36.8,4.1-58.6c2.7-32.8,8.8-66.7,16.1-100.6c0,0-55.7,33-150.8,33S281.2,420,281.2,420z"
	/>
<path class="st3" d="M301.7,580.6c3.4,54.6,3.4,81.8,5.1,118.4c0,0,54.5,31.3,124.9,31.3c66.2,0,125.4-30.2,125.4-30.2
	c1.7-34.8,2.2-69.5,5.2-119.5c0,0-60.8,32.4-130.6,32.4C357.5,612.9,301.7,580.6,301.7,580.6z"/>
<path class="st11" d="M281.3,420c-6.5-30-14-60-20.9-89.4c-13-55.2-21.1-118.1-20.1-164.2c0,0,3.5,19.1,41,19.1
	c0,0,13.9,12.1,48.5,13.7c0,0,27.9,8.1,66.4,2.4c0,0,15.3,2.2,34.7,3.4h2.5c19.5-1.2,34.7-3.4,34.7-3.4c38.4,6.5,59.1-4.8,59.1-4.8
	c37.3,0.2,49.4-11.3,49.4-11.3c38.3-5.9,42-20.5,42-20.5c1,45.4-1.4,108.8-14.1,163c-7.2,30.7-15,62.1-21.8,93.4
	c0,0-41.4,32.4-154.5,32.4C319.3,453.8,281.3,420,281.3,420z"/>
<g>
	<path class="st4" d="M274.2,193.5c0.4,24.9,2.9,49.7,6.3,74.3c3.3,24.7,7.4,49.2,11.6,73.7c4.3,24.5,8.4,49.1,12.3,73.7l2.8,18.5
		l1.4,9.2l1.3,9.2l2.6,18.5l2.3,18.5l1.1,9.3l1,9.3l2,18.6c0.6,6.2,1.1,12.4,1.6,18.6l0.8,9.3c0.3,3.1,0.6,6.2,0.7,9.3l1.2,18.6
		l0.6,9.3l0.5,9.3c0.6,12.4,0.9,24.9,1.1,37.4c0.4,24.9,0.2,49.8,0.1,74.7c-0.1,12.4-0.2,24.9,0.1,37.3c0.1,6.2,0.3,12.4,0.8,18.6
		c0.2,3.1,0.5,6.2,1,9.3c0.1,0.8,0.3,1.5,0.4,2.3c0.1,0.8,0.3,1.5,0.5,2.3c0.1,0.4,0.2,0.8,0.3,1.1l0.4,1.1c0.2,0.8,0.7,1.4,1.1,2.1
		c-0.4-0.7-0.9-1.3-1.1-2.1l-0.4-1.1c-0.1-0.4-0.2-0.7-0.3-1.1c-0.2-0.7-0.4-1.5-0.6-2.3c-0.2-0.8-0.4-1.5-0.5-2.3
		c-0.6-3.1-0.9-6.2-1.3-9.3c-0.6-6.2-0.9-12.4-1.1-18.7c-0.5-12.4-0.6-24.9-0.7-37.3c-0.2-24.9-0.2-49.8-0.9-74.7
		c-0.3-12.4-0.8-24.9-1.4-37.3l-0.5-9.3l-0.6-9.3l-1.3-18.6c-0.2-3.1-0.5-6.2-0.8-9.3l-0.8-9.3c-0.6-6.2-1-12.4-1.7-18.6l-2-18.5
		l-1-9.3l-1.2-9.3l-2.3-18.5l-2.5-18.5l-1.3-9.2l-1.4-9.2l-2.8-18.5c-3.8-24.6-8-49.1-11.9-73.7c-3.9-24.6-7.8-49.2-10.8-73.9
		l-1.1-9.3c-0.3-3.1-0.7-6.2-1-9.3c-0.5-6.2-1.1-12.4-1.6-18.6l-1-18.7L274.2,193.5z"/>
</g>
<g>
	<path class="st4" d="M327.7,201.6l-0.8,18.7c-0.1,6.2-0.1,12.5-0.1,18.7c0,1.6,0.1,3.1,0.1,4.7l0.2,4.7l0.3,9.4
		c0.3,6.2,0.9,12.5,1.3,18.7c2,24.9,5.6,49.6,9.4,74.4c3.8,24.7,7.5,49.5,10.9,74.3l2.4,18.6l2.1,18.7l1.1,9.3l0.9,9.3l1.8,18.7
		l1.4,18.7c0.5,6.2,1,12.5,1.3,18.7l1.1,18.8c0.4,6.2,0.7,12.5,0.9,18.8c0.9,25,1.4,50.1,1.3,75.1c0,25-0.4,50-0.6,75.1
		c-0.2,12.5-0.3,25-0.1,37.5c0.1,6.2,0.3,12.5,0.8,18.7c0.2,3.1,0.6,6.2,1.1,9.3c0.3,1.5,0.6,3.1,1,4.6c0.4,1.5,1,3,2,4.2
		c-1-1.2-1.6-2.7-2.1-4.2c-0.5-1.5-0.9-3-1.2-4.6c-0.6-3.1-1-6.2-1.4-9.3c-0.6-6.2-1-12.5-1.2-18.7c-0.5-12.5-0.7-25-0.8-37.5
		c-0.2-25-0.1-50-0.5-75c-0.4-25-0.9-50-2-75c-0.5-12.5-1.4-24.9-2.1-37.4c-0.3-6.2-0.9-12.5-1.3-18.7l-1.5-18.7
		c-2.2-24.9-4.8-49.7-8-74.5c-0.7-6.2-1.6-12.4-2.4-18.6l-1.2-9.3l-1.3-9.3l-5.2-37.2c-3.4-24.8-6.6-49.6-8.3-74.7
		C325.2,251.6,325.3,226.5,327.7,201.6z"/>
</g>
<g>
	<path class="st4" d="M585.5,194.1l-0.2,18.7l-1,18.7c-0.4,6.2-1.1,12.4-1.6,18.6c-0.2,3.1-0.6,6.2-1,9.3l-1.1,9.3
		c-3,24.7-6.9,49.3-10.8,73.9c-3.9,24.6-8.1,49.1-11.9,73.7l-2.8,18.5l-1.4,9.2l-1.3,9.2l-2.5,18.5l-2.3,18.5l-1.2,9.3l-1,9.3
		l-2,18.5c-0.7,6.2-1.1,12.4-1.7,18.6l-0.8,9.3c-0.3,3.1-0.6,6.2-0.8,9.3l-1.3,18.6l-0.6,9.3l-0.5,9.3c-0.6,12.4-1,24.8-1.4,37.3
		c-0.7,24.9-0.7,49.8-0.9,74.7c-0.1,12.4-0.3,24.9-0.7,37.3c-0.2,6.2-0.5,12.4-1.1,18.7c-0.3,3.1-0.7,6.2-1.3,9.3
		c-0.1,0.8-0.3,1.5-0.5,2.3c-0.2,0.8-0.4,1.5-0.6,2.3c-0.1,0.4-0.2,0.8-0.3,1.1l-0.4,1.1c-0.2,0.7-0.7,1.4-1.1,2.1
		c0.4-0.7,0.8-1.3,1.1-2.1l0.4-1.1c0.1-0.4,0.2-0.7,0.3-1.1c0.2-0.7,0.4-1.5,0.5-2.3c0.1-0.8,0.3-1.5,0.4-2.3c0.5-3.1,0.8-6.2,1-9.3
		c0.5-6.2,0.7-12.4,0.8-18.6c0.2-12.4,0.1-24.9,0.1-37.3c-0.1-24.9-0.3-49.8,0.1-74.7c0.2-12.5,0.5-24.9,1.1-37.4l0.5-9.3l0.6-9.3
		l1.2-18.6c0.2-3.1,0.5-6.2,0.7-9.3l0.8-9.3c0.6-6.2,1-12.4,1.6-18.6l2-18.6l1-9.3l1.1-9.3l2.3-18.5l2.6-18.5l1.3-9.2l1.4-9.2
		l2.8-18.5c4-24.6,8-49.1,12.3-73.7c4.2-24.5,8.3-49.1,11.6-73.7C582.6,243.8,585.1,219,585.5,194.1z"/>
</g>
<g>
	<path class="st4" d="M532.1,201.8c2.5,24.9,2.5,50,1,75c-1.6,25-4.9,49.9-8.3,74.7l-5.2,37.2l-1.3,9.3l-1.2,9.3
		c-0.8,6.2-1.7,12.4-2.4,18.6c-3.2,24.8-5.8,49.6-8,74.5l-1.5,18.7c-0.5,6.2-1,12.5-1.3,18.7c-0.7,12.5-1.6,24.9-2.1,37.4
		c-1.1,25-1.6,50-2,75c-0.4,25-0.3,50-0.5,75c-0.1,12.5-0.3,25-0.8,37.5c-0.3,6.3-0.6,12.5-1.2,18.7c-0.3,3.1-0.8,6.2-1.4,9.3
		c-0.3,1.5-0.7,3.1-1.2,4.6c-0.5,1.5-1.1,3-2.1,4.2c1-1.2,1.5-2.7,2-4.2c0.4-1.5,0.8-3,1-4.6c0.5-3.1,0.8-6.2,1.1-9.3
		c0.5-6.2,0.7-12.5,0.8-18.7c0.2-12.5,0.1-25-0.1-37.5c-0.2-25-0.6-50-0.6-75.1c-0.1-25,0.4-50.1,1.3-75.1
		c0.2-6.3,0.5-12.5,0.9-18.8l1.1-18.8c0.3-6.3,0.8-12.5,1.3-18.7l1.4-18.7l1.8-18.7l0.9-9.3l1.1-9.3l2.1-18.7l2.4-18.6
		c3.3-24.8,7.1-49.6,10.9-74.3c3.8-24.7,7.3-49.5,9.4-74.4c0.4-6.2,0.9-12.5,1.3-18.7l0.3-9.4l0.2-4.7c0-1.6,0.1-3.1,0.1-4.7
		c0-6.2,0-12.5-0.1-18.7L532.1,201.8z"/>
</g>
<g>
	<path class="st4" d="M394.1,204c-1,25-0.4,49.9,0.6,74.9c1,24.9,2.4,49.9,4,74.8l4.7,74.8c1.5,24.9,2.8,49.9,3.9,74.8
		c2,49.9,2.6,99.9,2.5,149.9c0,25-0.2,49.9-0.4,74.9c-0.1,12.5-0.3,25-0.3,37.4c0,6.2,0,12.5,0.1,18.7c0,3.1,0.1,6.2,0.3,9.4
		c0.1,1.6,0.2,3.1,0.3,4.7c0.1,0.8,0.2,1.5,0.3,2.3c0.1,0.4,0.1,0.8,0.2,1.1c0.1,0.4,0.2,0.8,0.6,1c-0.4-0.2-0.5-0.6-0.6-1
		c-0.1-0.4-0.2-0.8-0.3-1.1c-0.2-0.8-0.3-1.5-0.4-2.3c-0.2-1.6-0.3-3.1-0.5-4.7c-0.2-3.1-0.4-6.2-0.6-9.4
		c-0.3-6.2-0.4-12.5-0.6-18.7c-0.3-12.5-0.5-25-0.6-37.5l-0.7-74.9c-0.4-25-0.6-49.9-1.2-74.9c-0.5-25-1.2-49.9-2.3-74.8
		c-2.1-49.9-5.2-99.7-7.7-149.6c-1.2-24.9-2.3-49.9-2.9-74.9c-0.2-12.5-0.3-25-0.2-37.5l0-4.7l0.1-4.7l0.3-9.4
		c0.1-3.1,0.3-6.2,0.5-9.4L394.1,204z"/>
</g>
<g>
	<path class="st4" d="M466,204c0.3,6.2,0.6,12.5,0.8,18.7c0.1,6.2,0.4,12.5,0.4,18.7c0.2,12.5,0.2,25,0.1,37.5
		c-0.3,25-1,50-1.8,74.9c-1.5,49.9-3.3,99.8-3.7,149.7c-0.2,24.9-0.1,49.9-0.5,74.9c-0.4,25-0.8,50-1.6,74.9
		c-0.8,25-1.7,49.9-2.9,74.9c-0.7,12.5-1.4,24.9-2.4,37.4c-0.5,6.2-1,12.5-1.7,18.7c-0.4,3.1-0.7,6.2-1.2,9.3
		c-0.2,1.5-0.5,3.1-0.8,4.6c-0.2,0.8-0.3,1.5-0.6,2.3c-0.1,0.4-0.2,0.7-0.4,1.1c-0.2,0.4-0.3,0.7-0.7,1c0.3-0.2,0.5-0.6,0.6-1
		c0.1-0.4,0.3-0.7,0.4-1.1c0.2-0.8,0.4-1.5,0.5-2.3c0.3-1.5,0.5-3.1,0.7-4.6c0.4-3.1,0.7-6.2,0.9-9.3c0.5-6.2,0.9-12.4,1.2-18.7
		c0.7-12.5,1.1-24.9,1.5-37.4c0.9-24.9,1.4-49.9,1.8-74.9c0.3-25,0.7-49.9,0.9-74.9l0.2-37.4l0.1-37.5c0.3-25,0.9-50,1.7-74.9
		c0.9-25,1.8-49.9,3-74.9c1.1-24.9,2.2-49.9,2.9-74.8C466.2,253.9,466.5,228.9,466,204z"/>
</g>
<g>
	<path class="st5" d="M276.3,191.1c0.1,24.9,2.5,49.7,5.8,74.4c3.2,24.7,7.2,49.3,11.3,73.8c4.1,24.5,8.3,49.1,12.2,73.7l2.8,18.5
		l1.4,9.2l1.3,9.2l2.6,18.5l2.3,18.5l1.1,9.3l1,9.3l2,18.6c0.6,6.2,1.1,12.4,1.7,18.6l0.8,9.3c0.3,3.1,0.6,6.2,0.7,9.3l1.2,18.6
		l0.6,9.3l0.5,9.3c0.6,12.4,0.9,24.9,1.2,37.3c0.5,24.9,0.4,49.8,0.4,74.7c0,12.4,0,24.9,0.3,37.3c0.2,6.2,0.4,12.4,0.9,18.6
		c0.3,3.1,0.6,6.2,1.1,9.3c0.1,0.8,0.3,1.5,0.4,2.3c0.1,0.8,0.3,1.5,0.6,2.3c0.1,0.4,0.2,0.8,0.3,1.1l0.4,1.1
		c0.2,0.7,0.7,1.4,1.1,2.1c-0.4-0.7-0.8-1.3-1.1-2.1l-0.4-1.1c-0.1-0.4-0.2-0.7-0.3-1.1c-0.2-0.7-0.4-1.5-0.6-2.3
		c-0.2-0.8-0.4-1.5-0.5-2.3c-0.5-3.1-0.9-6.2-1.2-9.3c-0.6-6.2-0.8-12.4-1-18.6c-0.4-12.4-0.5-24.9-0.5-37.3
		c-0.1-24.9,0-49.8-0.6-74.7c-0.3-12.4-0.7-24.9-1.3-37.3l-0.5-9.3l-0.6-9.3l-1.2-18.6c-0.2-3.1-0.5-6.2-0.8-9.3l-0.8-9.3
		c-0.6-6.2-1-12.4-1.7-18.6l-2-18.6l-1-9.3l-1.2-9.3l-2.3-18.5l-2.6-18.5l-1.3-9.2l-1.4-9.2l-2.8-18.5c-3.9-24.6-8-49.1-12-73.7
		c-4-24.6-8-49.1-11.1-73.8C278.5,240.9,276.2,216,276.3,191.1z"/>
</g>
<g>
	<path class="st5" d="M329.8,199.2c-1.9,25-1.6,50,0.3,74.9c1.9,24.9,5.4,49.7,9,74.5c3.7,24.7,7.4,49.5,10.6,74.3
		c3.3,24.8,5.9,49.7,8.2,74.6l1.4,18.7c0.5,6.2,1,12.5,1.3,18.7l1.1,18.7c0.4,6.2,0.7,12.5,0.9,18.7c1,25,1.5,50,1.6,75
		c0.1,25-0.1,50-0.3,75c-0.1,12.5-0.1,25,0.2,37.5c0.2,6.2,0.4,12.5,0.9,18.7c0.3,3.1,0.6,6.2,1.2,9.3c0.3,1.5,0.6,3.1,1.1,4.6
		c0.5,1.5,1,3,2,4.2c-1-1.2-1.6-2.7-2.1-4.2c-0.5-1.5-0.8-3-1.1-4.6c-0.6-3.1-1-6.2-1.3-9.3c-0.6-6.2-0.9-12.5-1.1-18.7
		c-0.4-12.5-0.5-25-0.6-37.5c0-25,0.1-50-0.2-75c-0.3-25-0.7-50-1.8-75c-0.3-6.2-0.6-12.5-0.9-18.7l-1.1-18.7
		c-0.3-6.2-0.9-12.5-1.3-18.7l-1.5-18.7c-2.3-24.9-4.8-49.8-8.1-74.6c-3.2-24.8-6.9-49.5-10.4-74.3c-3.5-24.8-6.9-49.6-8.6-74.6
		C327.6,249.2,327.6,224.1,329.8,199.2z"/>
</g>
<g>
	<path class="st5" d="M587.5,191.7c0.1,24.9-2.2,49.8-5.3,74.5c-3.1,24.7-7.1,49.3-11.1,73.8c-4.1,24.6-8.2,49.1-12,73.7l-2.8,18.5
		l-1.4,9.2l-1.3,9.2l-2.6,18.5l-2.3,18.5l-1.2,9.3l-1,9.3l-2,18.6c-0.7,6.2-1.1,12.4-1.7,18.6l-0.8,9.3c-0.3,3.1-0.6,6.2-0.8,9.3
		l-1.2,18.6l-0.6,9.3l-0.5,9.3c-0.6,12.4-1,24.9-1.3,37.3c-0.5,24.9-0.5,49.8-0.6,74.7c-0.1,12.4-0.1,24.9-0.5,37.3
		c-0.2,6.2-0.5,12.4-1,18.6c-0.3,3.1-0.6,6.2-1.2,9.3c-0.1,0.8-0.3,1.5-0.5,2.3c-0.1,0.8-0.4,1.5-0.6,2.3c-0.1,0.4-0.2,0.8-0.3,1.1
		l-0.4,1.1c-0.2,0.7-0.7,1.4-1.1,2.1c0.4-0.7,0.8-1.3,1.1-2.1l0.4-1.1c0.1-0.4,0.2-0.7,0.3-1.1c0.2-0.7,0.4-1.5,0.6-2.3
		c0.1-0.8,0.3-1.5,0.4-2.3c0.5-3.1,0.8-6.2,1.1-9.3c0.5-6.2,0.7-12.4,0.9-18.6c0.3-12.4,0.3-24.9,0.3-37.3c0-24.9-0.1-49.8,0.4-74.7
		c0.2-12.4,0.6-24.9,1.2-37.3l0.5-9.3l0.6-9.3l1.2-18.6c0.2-3.1,0.5-6.2,0.7-9.3l0.8-9.3c0.6-6.2,1-12.4,1.7-18.6l2-18.6l1-9.3
		l1.1-9.3l2.3-18.5l2.6-18.5l1.3-9.2l1.4-9.2l2.8-18.5c3.9-24.6,8.1-49.1,12.2-73.7c4.1-24.6,8.1-49.1,11.3-73.8
		C585,241.4,587.4,216.6,587.5,191.7z"/>
</g>
<g>
	<path class="st5" d="M534.1,199.4c2.1,24.9,2.1,50,0.4,75c-1.7,25-5.1,49.8-8.6,74.6c-3.5,24.8-7.2,49.5-10.4,74.3
		c-3.3,24.8-5.8,49.7-8.1,74.6l-1.5,18.7c-0.5,6.2-1,12.5-1.3,18.7l-1.1,18.7c-0.4,6.2-0.7,12.5-0.9,18.7c-1.1,25-1.5,50-1.8,75
		c-0.2,25-0.1,50-0.2,75c-0.1,12.5-0.1,25-0.6,37.5c-0.2,6.3-0.5,12.5-1.1,18.7c-0.3,3.1-0.7,6.2-1.3,9.3c-0.3,1.5-0.6,3.1-1.1,4.6
		c-0.5,1.5-1.1,3-2.1,4.2c1-1.2,1.6-2.7,2-4.2c0.5-1.5,0.8-3,1.1-4.6c0.5-3.1,0.9-6.2,1.2-9.3c0.5-6.2,0.8-12.5,0.9-18.7
		c0.3-12.5,0.3-25,0.2-37.5c-0.1-25-0.4-50-0.3-75c0.1-25,0.6-50,1.6-75c0.2-6.3,0.5-12.5,0.9-18.7l1.1-18.7
		c0.3-6.2,0.8-12.5,1.3-18.7l1.4-18.7c2.3-24.9,4.9-49.8,8.2-74.6c3.3-24.8,6.9-49.6,10.6-74.3c3.6-24.7,7.1-49.5,9-74.5
		C535.8,249.5,536,224.4,534.1,199.4z"/>
</g>
<g>
	<path class="st5" d="M396.2,201.6c-1.3,24.9-0.7,49.9,0.2,74.9c0.9,24.9,2.2,49.9,3.7,74.8c3,49.8,6.2,99.7,8.4,149.6
		c1,25,1.7,49.9,2.1,74.9c0.4,25,0.7,49.9,0.7,74.9c0,25,0,49.9-0.1,74.9c-0.1,12.5-0.1,25-0.1,37.5c0,6.2,0.1,12.5,0.2,18.7
		c0.1,3.1,0.2,6.2,0.4,9.4c0.1,1.6,0.2,3.1,0.4,4.7c0.1,0.8,0.2,1.5,0.3,2.3c0.1,0.4,0.1,0.8,0.3,1.1c0.1,0.4,0.2,0.8,0.6,1
		c-0.3-0.2-0.5-0.6-0.6-1c-0.1-0.4-0.2-0.8-0.3-1.1c-0.1-0.8-0.3-1.5-0.4-2.3c-0.2-1.6-0.3-3.1-0.4-4.7c-0.2-3.1-0.4-6.2-0.5-9.4
		c-0.2-6.2-0.4-12.5-0.5-18.7c-0.2-12.5-0.3-25-0.4-37.5l-0.5-74.9c-0.5-49.9-1.1-99.9-3.2-149.7c-1.1-24.9-2.3-49.9-3.7-74.8
		c-1.4-24.9-2.9-49.9-4.2-74.8c-1.3-24.9-2.5-49.9-3.2-74.9C394.8,251.5,394.6,226.5,396.2,201.6z"/>
</g>
<g>
	<path class="st5" d="M468.1,201.6c1.1,25,1.2,49.9,0.8,74.9c-0.4,25-1.2,49.9-2,74.9c-0.8,25-1.8,49.9-2.5,74.9
		c-0.7,25-1.3,49.9-1.5,74.9c-0.2,25-0.2,49.9-0.5,74.9c-0.3,25-0.7,49.9-1.4,74.9c-0.7,25-1.5,49.9-2.7,74.9
		c-0.6,12.5-1.3,24.9-2.2,37.4c-0.5,6.2-1,12.5-1.6,18.7c-0.3,3.1-0.7,6.2-1.1,9.3c-0.2,1.5-0.5,3.1-0.8,4.6
		c-0.2,0.8-0.3,1.5-0.6,2.3c-0.1,0.4-0.2,0.7-0.4,1.1c-0.2,0.4-0.3,0.7-0.6,1c0.3-0.2,0.5-0.6,0.6-1c0.1-0.4,0.3-0.7,0.4-1.1
		c0.2-0.8,0.4-1.5,0.5-2.3c0.3-1.5,0.5-3.1,0.7-4.6c0.4-3.1,0.7-6.2,1-9.3c0.6-6.2,1-12.4,1.3-18.7c0.7-12.5,1.3-24.9,1.7-37.4
		c1-25,1.6-49.9,2.1-74.9c0.5-25,0.9-49.9,1.1-74.9c0.3-25,0.1-49.9,0.3-74.9c0.6-50,2.4-99.9,4.4-149.8c1-25,2-49.9,2.6-74.9
		C468.6,251.5,468.9,226.6,468.1,201.6z"/>
</g>
<g>
	<path class="st7" d="M276.4,152.8c-7,0.4-14,1.6-20.4,4.1c-3.2,1.3-6.3,2.8-8.9,5c-1.2,1.1-2.4,2.3-3,3.7c-0.6,1.4-0.5,2.9,0.3,4.1
		c0.2,0.3,0.4,0.6,0.7,0.9c0.3,0.3,0.6,0.6,0.9,0.9c0.6,0.6,1.2,1.2,1.9,1.8c0.6,0.6,1.3,1.1,1.9,1.7c0.7,0.5,1.3,1.1,2,1.6
		c2.8,2,5.8,3.7,9,5c6.4,2.5,13.5,3.4,20.5,3.8c-7,0.3-14.2,0-21-2.4c-3.4-1.1-6.6-2.8-9.6-4.9c-0.7-0.5-1.4-1.1-2.1-1.6
		c-0.7-0.6-1.4-1.1-2-1.8c-0.7-0.6-1.3-1.2-1.9-1.8c-0.3-0.3-0.6-0.6-1-1c-0.3-0.4-0.6-0.8-0.9-1.2c-0.5-0.9-0.9-1.9-0.9-2.9
		c0-1.1,0.2-2.1,0.6-3c0.8-1.8,2.1-3.2,3.6-4.4c2.9-2.3,6.2-3.9,9.6-5C262.2,153.2,269.4,152.5,276.4,152.8z"/>
</g>
<g>
	<path class="st7" d="M581,154.5c7,0.6,13.9,1.7,20.8,3.4c3.4,0.9,6.8,1.9,10.1,3.4c1.6,0.8,3.4,1.7,4.5,3.6c0.5,1,0.7,2.2,0.4,3.2
		c-0.2,1.1-0.7,1.9-1.3,2.7c-1.1,1.5-2.6,2.7-4,3.8c-1.5,1.1-3,2-4.6,2.8c-3.1,1.7-6.4,3-9.7,4.2c-3.3,1.1-6.7,2.1-10.2,2.8
		c-3.4,0.7-6.9,1.2-10.4,1.1c3.5-0.3,6.9-1,10.3-2c3.4-0.9,6.7-2,9.9-3.3c3.2-1.3,6.4-2.7,9.4-4.4c1.5-0.8,2.9-1.8,4.3-2.8
		c1.3-1,2.6-2.1,3.6-3.4c0.9-1.3,1.3-2.7,0.7-3.8c-0.7-1.2-2.1-2.1-3.6-2.8c-1.5-0.7-3.1-1.4-4.7-1.9c-1.6-0.6-3.3-1.1-4.9-1.6
		c-3.3-1-6.7-1.8-10.1-2.7C587.8,156.1,584.4,155.3,581,154.5z"/>
</g>
<g>
	<path class="st7" d="M281,185.5c3.5,2.4,7.5,4.1,11.5,5.5c4,1.4,8.2,2.5,12.3,3.3c4.2,0.8,8.4,1.3,12.7,1.6
		c4.2,0.3,8.5,0.4,12.8,0.4l0.1,0l0.1,0c5.3,1.1,10.7,1.8,16.1,2.4c5.4,0.6,10.8,1,16.2,1.2c2.7,0.1,5.4,0.2,8.1,0.2l4.1,0
		c1.4,0,2.7,0,4.1-0.1c5.4-0.1,10.8-0.7,16.2-1.3l0.1,0l0.1,0c5.7,0.9,11.5,1.6,17.2,2.1c5.8,0.5,11.6,0.8,17.4,0.9
		c5.8,0.1,11.6,0,17.4-0.4c2.9-0.2,5.8-0.5,8.6-0.9c2.9-0.4,5.7-0.9,8.5-1.5l0.1,0l0.1,0c5.2,0.5,10.4,0.8,15.7,1
		c5.2,0.2,10.5,0.3,15.7,0.2c5.2-0.1,10.5-0.3,15.6-0.9c5.2-0.6,10.4-1.4,15.2-3.3l0.1,0l0.1,0c4.2-0.2,8.5-0.6,12.7-1
		c4.2-0.5,8.4-1,12.6-1.8c4.2-0.8,8.3-1.7,12.4-2.9c4.1-1.3,8.1-2.7,11.7-5c-3.5,2.4-7.5,4-11.6,5.4c-4.1,1.3-8.2,2.4-12.4,3.2
		c-4.2,0.8-8.4,1.5-12.6,2.1c-4.2,0.5-8.5,1-12.8,1.2l0.2,0c-5,2-10.2,2.9-15.5,3.6c-5.2,0.6-10.5,1-15.8,1.1
		c-5.3,0.1-10.5,0-15.8-0.1c-5.3-0.2-10.5-0.5-15.8-1l0.3,0c-2.9,0.6-5.8,1.2-8.7,1.6c-2.9,0.4-5.8,0.7-8.7,0.9
		c-5.8,0.4-11.7,0.6-17.5,0.5c-5.8-0.1-11.7-0.5-17.5-1c-5.8-0.5-11.6-1.2-17.4-2.2l0.3,0c-5.4,0.6-10.9,1.1-16.3,1.2
		c-1.4,0.1-2.7,0.1-4.1,0.1l-4.1,0c-2.7-0.1-5.5-0.1-8.2-0.3c-5.5-0.3-10.9-0.8-16.3-1.5c-5.4-0.7-10.8-1.5-16.2-2.7l0.1,0
		c-8.6,0-17.2-0.7-25.6-2.5c-4.2-0.9-8.3-2.1-12.3-3.6C288.4,189.9,284.5,188.1,281,185.5z"/>
</g>
<g>
	<path class="st7" d="M581,154.5c-4.8-1.6-9.7-2.8-14.6-3.7c-4.9-0.9-9.9-1.6-14.9-2c-5-0.4-10-0.6-15-0.5c-2.5,0-5,0.2-7.5,0.3
		c-2.5,0.1-5,0.4-7.5,0.6l-0.1,0l-0.1,0c-4.8-1.5-9.8-2.4-14.8-3c-5-0.6-10-0.9-15.1-1c-5,0-10.1,0.2-15.1,0.7
		c-5,0.5-10,1.3-14.9,2.4l-0.2,0l-0.2-0.1c-5.7-1.3-11.5-2.3-17.4-2.9c-5.8-0.7-11.7-1-17.6-1c-5.9,0-11.8,0.4-17.6,1
		c-5.8,0.7-11.7,1.6-17.4,2.9l-0.2,0.1l-0.2-0.1c-4.9-1.3-10-2.1-15.1-2.6c-5.1-0.5-10.2-0.6-15.4-0.4c-5.1,0.1-10.3,0.6-15.3,1.3
		c-5.1,0.7-10.2,1.6-15.1,2.9l-0.1,0l-0.1,0c-4.4-0.5-8.8-0.9-13.3-1c-4.4-0.1-8.9,0-13.3,0.3c-4.4,0.3-8.9,0.9-13.2,1.6
		c-4.4,0.8-8.8,1.7-13,3c4.2-1.4,8.6-2.5,13-3.4c4.4-0.9,8.8-1.5,13.3-1.9c4.5-0.4,8.9-0.7,13.4-0.6c4.5,0,9,0.3,13.4,0.8l-0.2,0
		c5-1.4,10.1-2.4,15.2-3.2c5.1-0.8,10.3-1.3,15.5-1.5c5.2-0.2,10.4-0.1,15.6,0.3c5.2,0.4,10.3,1.3,15.4,2.6l-0.5,0
		c5.8-1.4,11.7-2.3,17.6-3c5.9-0.7,11.9-1.1,17.8-1.1c6,0,11.9,0.4,17.8,1.1c5.9,0.7,11.8,1.6,17.6,3.1l-0.4,0
		c10-2.1,20.2-3.1,30.4-2.9c5.1,0.1,10.2,0.5,15.3,1.2c5.1,0.7,10.1,1.7,15,3.3l-0.3,0c2.5-0.2,5-0.4,7.6-0.5c2.5-0.1,5-0.2,7.6-0.2
		c5-0.1,10.1,0.3,15.1,0.8c5,0.5,10,1.3,14.9,2.4C571.4,151.4,576.3,152.7,581,154.5z"/>
</g>
<path class="st0" d="M644.3,265.7l-17.6,16.1c100.9-5.9,125.8-60.6,125.8-60.6"/>
<text transform="matrix(1 0 0 1 254.3412 62.1704)" class="st26 st27">Hannes håndværks anatomi</text>
<rect x="728.3" y="191.6" class="st21" width="62.4" height="24.1"/>
<text transform="matrix(1 0 0 1 728.2686 204.7374)" class="st26 st28">Glasur</text>
<rect x="96.5" y="334.6" class="st21" width="92.6" height="24.1"/>
<text transform="matrix(1 0 0 1 96.5283 347.7393)" class="st26 st28">Brænding</text>
<rect x="104.3" y="606.3" class="st21" width="93.3" height="24.1"/>
<text transform="matrix(1 0 0 1 104.3232 619.4493)" class="st26 st28">Materialer</text>
<rect x="686.7" y="512" class="st21" width="68.7" height="24.1"/>
<text transform="matrix(1 0 0 1 686.7256 525.1602)" class="st26 st28">Design</text>
<g>

		<image style="overflow:visible;opacity:0.75;" width="171" height="146" xlink:href="681BAE9D.png"  transform="matrix(1 0 0 1 674.8828 206.9251)">
	</image>
	<g>
		<rect x="689.6" y="217.3" class="st1" width="139.3" height="114.2"/>
		<rect x="689.6" y="217.3" class="st0" width="139.3" height="114.2"/>
	</g>
</g>
<line class="st0" x1="646.6" y1="291.3" x2="625.4" y2="281.4"/>
<path class="st0" d="M625.6,509.3l-23.9-2.6c39.9,51.6,112.9,24.6,112.9,24.6"/>
<line class="st0" x1="608.6" y1="531.3" x2="601.8" y2="505.6"/>
<path class="st0" d="M238.4,385.3l15.3,14.2c-66.8,15-96.8-31.7-96.8-31.7"/>
<line class="st0" x1="241" y1="414.5" x2="254.3" y2="398.6"/>
<line class="st0" x1="278.9" y1="652.6" x2="286.6" y2="633.3"/>
<rect x="731.1" y="230.8" class="st21" width="89" height="48.6"/>
<text transform="matrix(0.6473 0 0 1 731.1279 238.002)"><tspan x="0" y="0" class="st26 st29">Flere lag glasur for at skabe </tspan><tspan x="0" y="15" class="st26 st29">et rigt farvespil og en </tspan><tspan x="0" y="30" class="st26 st29">spændende stoflighed</tspan></text>
<g>
	<path class="st30" d="M87.6,610.4c0.2-1,0.5-2.1,0.7-3.1c0-0.1,0-0.2,0.1-0.3c0.1-0.1,0.2-0.2,0.4-0.3c0.5-0.2,1-0.2,1.4-0.5
		c0.2-0.1,0.3-0.3,0.4-0.4c0.4-0.3,1-0.4,1.5-0.5c0.7-0.1,1.3-0.1,2-0.1c1,0.1,1.9,0.6,2.9,0.6c0.2,0,0.4,0,0.5,0.1
		c0.1,0.1,0.3,0.2,0.4,0.3c0.5,0.4,0.9,0.9,1.3,1.5c0.1,0.1,0.2,0.3,0.3,0.3c0.1,0,0.2,0,0.3,0c0.2-0.1,0.4-0.2,0.6-0.2
		c0.1,0,0.2-0.1,0.3,0c0.1,0,0.1,0.1,0.2,0.2c0.5,0.7,1.1,1.4,1.1,2.2c0,0.4,0,0.8-0.1,1.1c-0.2,0.8-0.4,1.6-0.6,2.4
		c0,0.1-0.1,0.2-0.1,0.3c-0.1,0.1-0.2,0.2-0.4,0.3c-0.8,0.4-1.5,1.1-1.9,1.8c-0.1,0.1-0.2,0.3-0.3,0.3c-0.1,0-0.2,0-0.4,0
		c-0.9-0.3-1.7-0.7-2.6-0.6c-0.6,0.1-1.1,0.3-1.5,0.7c-0.1,0.1-0.2,0.2-0.3,0.2c-0.1,0-0.2,0-0.3,0c-1.1-0.2-2.1-0.5-3.2-0.7
		c-0.2-0.1-0.5-0.1-0.7-0.2c-0.2-0.1-0.4-0.3-0.5-0.6c-0.8-1.4-0.8-3.1-1.6-4.5"/>
	<path class="st30" d="M91,606c0.3,0.3,0.4,0.7,0.7,1c0.2,0.2,0.4,0.4,0.6,0.5c0.3,0.2,0.6,0.4,0.8,0.7c0.1,0.1,0.3,0.2,0.3,0.4
		c0,0.1,0,0.3,0,0.4c0,0.4-0.1,0.8-0.2,1.2c0.2,0.3,0.6,0.3,0.9,0.2s0.6-0.3,0.9-0.5c0.3-0.1,0.7-0.2,1.1-0.1c0.3,0.1,0.7,0.3,1,0.1
		c0.1-0.1,0.2-0.2,0.2-0.3c0.3-0.5,0.5-1.2,0.5-1.8c0-0.6-0.1-1.2-0.2-1.9"/>
	<path class="st30" d="M97.4,610c0.1,0.6,0.2,1.3,0.6,1.8c0.2-0.4,0.3-0.8,0.4-1.2s0.3-0.8,0.7-1c0,0,0.1,0,0.1-0.1c0,0,0-0.1,0-0.1
		c0.1-0.5,0.2-0.9,0.3-1.4"/>
	<path class="st30" d="M98.5,611.1c0.2,0,0.5-0.1,0.7-0.1c0.1,0,0.2,0,0.3-0.1c0.1-0.1,0.2-0.1,0.2-0.2c0.2-0.3,0.4-0.5,0.6-0.8
		c0.3-0.4,0.6-0.8,1-1.1"/>
	<path class="st30" d="M98,612.1c-0.1,0.7-0.1,1.3-0.2,2c0,0.2,0,0.4,0,0.6c0,0.3,0.1,0.6,0.2,0.9c0.1,0.2,0.2,0.5,0.2,0.7"/>
	<path class="st30" d="M93.3,610.3c-0.2,0.8-0.3,1.6-0.5,2.5c0,0.2-0.1,0.3-0.1,0.5c0,0.2,0.1,0.3,0.1,0.5c0.2,0.6,0.5,1.3,0.7,1.9
		c0.1,0.3,0.3,0.7,0.3,1"/>
	<path class="st30" d="M92.8,608.2c-0.5,0.3-0.8,0.8-0.8,1.3c-0.5-0.6-1-1.3-1.5-1.9c-0.1-0.1-0.2-0.2-0.3-0.3
		c-0.1-0.1-0.3-0.1-0.4-0.1c-0.3,0-0.6-0.1-0.9-0.1"/>
	<path class="st30" d="M88.3,608.2c0.1,0.4,0.4,0.7,0.7,1c0.2,0.2,0.4,0.4,0.5,0.6c0.7,0.9,1.5,1.8,2.2,2.8c0.2-0.7,0.1-1.4-0.2-2.1
		c-0.1-0.1-0.1-0.2-0.1-0.4c0-0.3,0.1-0.5,0.4-0.6"/>
	<path class="st30" d="M91.7,612.7c0,0.3,0,0.6,0.1,0.8c0,0.1,0,0.2,0.1,0.3c0.1,0.1,0.2,0.2,0.2,0.2c0.9,0.6,1.5,1.5,1.8,2.5"/>
	<path class="st30" d="M89.5,610c-0.1,0.5,0.2,1,0.2,1.5c0,0.2-0.1,0.4-0.1,0.6c-0.1,0.3-0.1,0.7,0,1c0,0.9,0.1,1.8,0.1,2.8"/>
	<path class="st30" d="M89.6,613.8c0.3,0,0.6-0.1,0.9-0.2c0.2-0.1,0.4-0.1,0.6-0.2c0.2-0.1,0.4-0.1,0.5-0.2"/>
</g>
<g>
	<path class="st30" d="M85.6,618c0.1-0.6,0.3-1.3,0.4-1.9c0-0.1,0-0.1,0.1-0.2c0.1-0.1,0.1-0.1,0.2-0.2c0.3-0.1,0.6-0.1,0.8-0.3
		c0.1-0.1,0.2-0.2,0.3-0.2c0.3-0.2,0.6-0.2,0.9-0.3c0.4,0,0.8-0.1,1.2,0c0.6,0.1,1.2,0.3,1.8,0.4c0.1,0,0.2,0,0.3,0
		c0.1,0,0.2,0.1,0.2,0.2c0.3,0.3,0.5,0.6,0.8,0.9c0,0.1,0.1,0.2,0.2,0.2c0.1,0,0.1,0,0.2,0c0.1,0,0.2-0.1,0.4-0.1c0,0,0.1,0,0.2,0
		c0,0,0.1,0.1,0.1,0.1c0.3,0.4,0.7,0.8,0.7,1.3c0,0.2,0,0.5-0.1,0.7c-0.1,0.5-0.2,1-0.4,1.4c0,0.1,0,0.1-0.1,0.2
		c-0.1,0.1-0.1,0.1-0.2,0.2c-0.5,0.3-0.9,0.7-1.2,1.1c0,0.1-0.1,0.2-0.2,0.2c-0.1,0-0.2,0-0.2,0c-0.5-0.2-1-0.4-1.6-0.4
		c-0.3,0-0.7,0.2-0.9,0.4c0,0-0.1,0.1-0.2,0.1c-0.1,0-0.1,0-0.2,0c-0.6-0.1-1.3-0.3-1.9-0.4c-0.1,0-0.3-0.1-0.4-0.1
		c-0.1-0.1-0.2-0.2-0.3-0.3c-0.5-0.8-0.5-1.9-1-2.7"/>
	<path class="st30" d="M87.6,615.3c0.2,0.2,0.3,0.4,0.4,0.6c0.1,0.1,0.2,0.2,0.3,0.3c0.2,0.1,0.3,0.3,0.5,0.4
		c0.1,0.1,0.2,0.1,0.2,0.2c0,0.1,0,0.2,0,0.2c0,0.3,0,0.5-0.1,0.8c0.1,0.2,0.4,0.2,0.6,0.1s0.3-0.2,0.5-0.3c0.2-0.1,0.4-0.1,0.6,0
		c0.2,0.1,0.4,0.2,0.6,0.1c0.1,0,0.1-0.1,0.1-0.2c0.2-0.3,0.3-0.7,0.3-1.1c0-0.4,0-0.8-0.1-1.1"/>
	<path class="st30" d="M91.5,617.7c0,0.4,0.2,0.8,0.3,1.1c0.1-0.2,0.2-0.5,0.2-0.7c0.1-0.3,0.2-0.5,0.4-0.6c0,0,0.1,0,0.1,0
		c0,0,0,0,0-0.1c0.1-0.3,0.1-0.6,0.2-0.9"/>
	<path class="st30" d="M92.2,618.4c0.1,0,0.3,0,0.4-0.1c0.1,0,0.1,0,0.2-0.1c0.1,0,0.1-0.1,0.1-0.1c0.1-0.2,0.2-0.3,0.4-0.5
		c0.2-0.2,0.4-0.5,0.6-0.7"/>
	<path class="st30" d="M91.9,619c0,0.4-0.1,0.8-0.1,1.2c0,0.1,0,0.2,0,0.3c0,0.2,0.1,0.4,0.1,0.5c0,0.1,0.1,0.3,0.1,0.4"/>
	<path class="st30" d="M89,617.9c-0.1,0.5-0.2,1-0.3,1.5c0,0.1,0,0.2,0,0.3c0,0.1,0,0.2,0.1,0.3c0.1,0.4,0.3,0.8,0.4,1.2
		c0.1,0.2,0.2,0.4,0.2,0.6"/>
	<path class="st30" d="M88.7,616.6c-0.3,0.2-0.5,0.5-0.5,0.8c-0.3-0.4-0.6-0.8-0.9-1.1c-0.1-0.1-0.1-0.1-0.2-0.2
		c-0.1,0-0.2-0.1-0.3-0.1c-0.2,0-0.4,0-0.5-0.1"/>
	<path class="st30" d="M86,616.6c0.1,0.2,0.3,0.4,0.4,0.6c0.1,0.1,0.2,0.2,0.3,0.4c0.4,0.6,0.9,1.1,1.3,1.7c0.1-0.4,0.1-0.9-0.1-1.2
		c0-0.1-0.1-0.1-0.1-0.2c0-0.2,0.1-0.3,0.2-0.4"/>
	<path class="st30" d="M88,619.4c0,0.2,0,0.3,0,0.5c0,0.1,0,0.1,0,0.2c0,0.1,0.1,0.1,0.1,0.1c0.5,0.4,0.9,0.9,1.1,1.5"/>
	<path class="st30" d="M86.7,617.7c0,0.3,0.1,0.6,0.1,0.9c0,0.1,0,0.3-0.1,0.4c0,0.2,0,0.4,0,0.6c0,0.6,0,1.1,0.1,1.7"/>
	<path class="st30" d="M86.8,620c0.2,0,0.4-0.1,0.5-0.1c0.1,0,0.2-0.1,0.4-0.1c0.1,0,0.2-0.1,0.3-0.1"/>
</g>
<g>
	<path d="M88.2,348.7c-0.4,0.1-0.8-0.1-1.1-0.3c-0.7-0.4-1.4-0.8-1.9-1.5c-0.6-0.8-0.8-1.9-0.8-3c0-0.5,0-1-0.1-1.4
		c-0.1-0.5-0.3-0.9-0.7-1.1c0.9,0.3,1.5,1.2,1.6,2.2c0.3-0.5,0.3-1.2,0.1-1.7s-0.5-1.1-0.7-1.6c-0.2-0.6-0.2-1.3-0.1-2
		c0.1-0.6,0.4-1.1,0.9-1.4c-0.5,1.3-0.1,2.8,0.8,3.7c0.3,0.3,0.8,0.6,0.9,1.1c0.1-0.6,0-1.2-0.2-1.8c-0.2-0.6-0.4-1.1-0.6-1.7
		c-0.2-0.8-0.1-1.7,0.2-2.4c0.3-0.7,1-1.3,1.7-1.4c-0.4-0.1-0.7,0.2-0.8,0.6c-0.2,0.6-0.1,1.3,0.2,1.9c0.3,0.6,0.8,1,1.2,1.4
		s0.9,0.8,1.3,1.4c0.6,0.9,0.7,2,0.6,3.1c0.4-1.7-0.1-3.6-1.1-4.9c1.1,0.3,2,1.2,2.4,2.4c0.4,1.1,0.5,2.4,0.3,3.7
		c0.5-0.6,0.8-1.3,0.9-2.1c0,1.1,0,2.1-0.2,3.2c-0.2,1-0.8,2-1.6,2.6c-1,0.7-2.3,0.7-3.4,1.1"/>
</g>
<g>
	<path d="M90.6,336.8c0-0.1-0.1-0.2-0.1-0.4c-0.1-0.2-0.1-0.5,0-0.8c0.1-0.3,0.2-0.5,0.4-0.7c0,0.2,0,0.4,0,0.6
		c0,0.1,0.1,0.2,0.1,0.2c0.2,0.4,0.1,0.9-0.3,1.2"/>
</g>
<g>
	<path d="M89.5,334.9c0.3-0.3,0.6-0.7,0.7-1c0.3-0.8-0.2-1.6-0.8-2.3c0,0.3,0,0.6-0.1,0.9c0,0.1-0.1,0.2-0.1,0.3
		c0,0.1-0.1,0.3-0.1,0.4c0,0.3-0.1,0.5,0,0.8C89.2,334.3,89.5,334.6,89.5,334.9"/>
</g>
<g>
	<path class="st19" d="M708.1,254.4c3.5-7.7,7.4-15.2,11.9-22.3c0.4-0.7,1.2-1.4,1.9-1.1c0.7,0.4,0.5,1.4,0.1,2.2
		c-2.2,4.9-4.5,9.7-6.7,14.6c-1.1,2.3-2.1,4.6-3.5,6.7c-0.5,0.7-1,1.4-1.9,1.7c-0.8,0.2-1.9-0.3-1.9-1.1"/>
	<path class="st1" d="M708.1,254.4c1.9-4.5,4-8.9,6.4-13.2c1.1-2.2,2.4-4.3,3.6-6.4c0.6-1.1,1.2-2.1,1.9-3.1
		c0.2-0.3,0.4-0.5,0.7-0.7c0.3-0.2,0.7-0.3,1.1-0.2c0.4,0.1,0.7,0.5,0.7,0.8c0.1,0.4,0,0.7-0.1,1c-0.2,0.6-0.5,1.2-0.7,1.7l-0.8,1.7
		l-1.5,3.3l-3.1,6.7c-1.1,2.2-2,4.4-3.3,6.6c-0.3,0.5-0.6,1.1-1,1.6c-0.3,0.5-0.7,1-1.2,1.4c-0.5,0.4-1.1,0.7-1.7,0.6
		c-0.6-0.1-1.2-0.6-1.2-1.2c0,0.6,0.6,1.1,1.2,1.1c0.6,0.1,1.2-0.2,1.6-0.6c0.4-0.4,0.8-0.9,1.1-1.5c0.3-0.5,0.6-1,0.9-1.6
		c1.2-2.1,2.1-4.4,3.1-6.6l3-6.7l1.5-3.3l0.8-1.7c0.2-0.6,0.6-1.1,0.7-1.6c0.2-0.5,0.1-1.1-0.3-1.3c-0.4-0.1-0.9,0.3-1.3,0.7
		c-0.7,1-1.3,2.1-1.9,3.1c-1.3,2.1-2.5,4.2-3.7,6.3C712.5,245.6,710.2,249.9,708.1,254.4z"/>
</g>
<path class="st20" d="M710.7,247.8c0.6,1.4,2.3,2.2,3.8,1.7"/>
<g>
	<path class="st19" d="M708,256.9c-0.5-0.6-1.5-0.6-2.2-0.1c-0.6,0.5-1,1.3-1.2,2c-0.2,0.8-0.4,1.6-0.8,2.3s-1.1,1.3-1.9,1.3
		c0.1,0.2,0.3,0.2,0.5,0.3c0.9,0.3,1.8,0.5,2.7,0.4c1.1-0.2,2-0.9,2.8-1.7c0.5-0.6,1-1.4,1.1-2.2c0.1-0.8-0.1-1.7-0.8-2.2"/>
</g>
<path class="st20" d="M703.6,259.7c0.5-0.1,1-0.1,1.6-0.2c0.3,0,0.6-0.1,0.8,0.1c0.5,0.4-0.4,1.2,0.2,1.5c0.1,0.1,0.3,0.1,0.4,0.1
	c0.6,0,1.2,0,1.8,0"/>
<g>
	<path class="st21" d="M684.7,564.3c1.9-1.6,3.4-4.6,4.3-6.9c0.3-0.6,0.5-1.3,0.5-1.9c0.1-1.2-0.4-2.4-0.7-3.6
		c-0.5-2.4-0.1-4.9-0.7-7.3c0-0.2-0.1-0.4-0.3-0.5c-0.2-0.1-0.3-0.1-0.5,0c-1.2,0.4-1.9,1.7-2.3,2.9c-0.7,2.6-0.6,5.5,0.5,8"/>
</g>
<g>
	<path class="st21" d="M685.3,545.8c-1.4-2.3-3-4.5-4.9-6.4c-0.4-0.4-0.8-0.8-1.3-1c-0.1,0-0.2-0.1-0.3,0c-0.1,0-0.2,0.1-0.2,0.2
		c-0.5,0.6-0.6,1.4-0.4,2.2s0.5,1.4,0.9,2.1c0.8,1.5,1.4,2.9,2.5,4.4"/>
</g>
<g>
	<path class="st21" d="M677.9,539.3c-0.4-0.1-0.8,0-1.1,0.3c-0.3,0.3-0.4,0.6-0.5,1c-0.4,1.6,0.4,3.2,1,4.8c0.4,1.2,1.2,2.3,1.9,3.4
		"/>
</g>
<g>
	<path class="st21" d="M676.1,541c-0.8,0.4-1,1.4-1,2.3c-0.1,3,1.6,4.6,2.8,7.4"/>
</g>
<g>
	<path class="st21" d="M674.8,545.1c-0.8,2-0.3,4.3,0.9,6.2c0.4,0.5,0.6,1.2,0.9,1.8c0.9,1.6-2.3,2.3,0.6,8c0.6,1.2,2,2.9,3.3,3.2
		c1.3,0.3,2.7,0.2,4.1,0.1"/>
</g>
<g>
	<path class="st21" d="M680.7,556.1c0.3-0.7,1-1.2,1.7-1.6c0.7-0.3,1.5-0.5,2.2-0.7"/>
</g>
<g>
	<path class="st21" d="M662.6,545.4c1.4-2.3,3-4.5,4.9-6.4c0.4-0.4,0.8-0.8,1.3-1c0.1,0,0.2-0.1,0.3,0c0.1,0,0.2,0.1,0.2,0.2
		c0.5,0.6,0.6,1.4,0.4,2.2c-0.2,0.7-0.5,1.4-0.9,2.1c-0.8,1.5-1.4,2.9-2.5,4.4"/>
</g>
<g>
	<path class="st21" d="M670,538.9c0.4-0.1,0.8,0,1.1,0.3c0.3,0.3,0.4,0.6,0.5,1c0.4,1.6-0.4,3.2-1,4.8c-0.4,1.2-1.2,2.3-1.9,3.4"/>
</g>
<g>
	<path class="st21" d="M671.8,540.9c0.8,0.4,1,1.4,1,2.3c0.1,3-1.6,4.6-2.8,7.4"/>
</g>
<g>
	<path class="st21" d="M673.1,544.7c0.8,2,0.3,4.3-0.9,6.2c-0.4,0.5-0.6,1.2-0.9,1.8c-0.9,1.6,2.3,2.3-0.6,8c-0.6,1.2-2,2.9-3.3,3.2
		c-1.3,0.3-2.7,0.2-4.1,0.1c-1.9-1.6-3.4-4.6-4.3-6.9c-0.3-0.6-0.5-1.3-0.5-1.9c-0.1-1.2,0.4-2.4,0.7-3.6c0.5-2.4,0.1-4.9,0.7-7.3
		c0-0.2,0.1-0.4,0.3-0.5c0.2-0.1,0.3-0.1,0.5,0c1.2,0.4,1.9,1.7,2.3,2.9c0.7,2.6,0.6,5.5-0.5,8"/>
</g>
<g>
	<path class="st21" d="M667.2,555.7c-0.3-0.7-1-1.2-1.7-1.6c-0.7-0.3-1.5-0.5-2.2-0.7"/>
</g>
<g>
	<path class="st3" d="M707.9,297.7c-2,0.3-6.1,0.4-5.5,2.7c0.1,0.4,0.8,0.3,1.1,0.7s0.4,1.1,0.2,1.6c-0.1,0.2-0.4,0.4-0.6,0.4
		c-2.7,1.2-3.9,2-3.9,3.5c0,2,2.1,2.3,5,1.2c0.4-0.1,0.9-0.3,1,0.2c0.1,0.2,0.1,0.5,0.1,0.8c0.1,1.4,1.3,2.2,2.3,1.9
		c1-0.3,1.8-1.3,2.6-2.1c1.6-1.4,3.5-1.8,5.3-1.3c1.6,0.4,3.5,1.5,4.5-0.2c0.2-0.3,0.3-0.6,0.3-1c0-0.4-0.2-0.7-0.4-1
		c-1.2-2.1-2.7-4.3-4.5-4.6c-0.3-0.1-0.7-0.1-1-0.5c-0.3-0.5-0.1-1.2-0.3-1.7c-0.4-0.9-1.3-0.4-2,0c-1.1,0.6-1.3-0.4-2.7-0.7
		C709.2,297.5,708.1,297.7,707.9,297.7z"/>
</g>
<g>
	<path class="st7" d="M714.4,304.2c-1.4-0.2-2.9-0.3-4.3,0.4c-1.4,0.7-2.6,2.5-2.5,4.6c0,0.5,0.1,1.1-0.1,1.5
		c-0.2,0.4-0.5,0.5-0.7,0.7c-0.9,0.4-2.3,0.4-2.6,1.3c-1,3.2,4.7,4,7,2.3c0.3-0.2,0.6-0.5,1-0.5c0.9,0,1.3,1.8,2,2.7
		c0.7,1,1.9,0.9,2.9,0.4s1.8-1.3,2.7-1.9c3.5-2,10.7-0.6,7.9-5.1c-3.4-5.5-3.9,0-6.3-3.5c-0.4-0.7-0.8-1.5-1.3-2
		c-1.4-1.5-3.5-0.4-5-1.5L714.4,304.2z"/>
</g>
<g>
	<path class="st5" d="M713.5,299.8c-0.3,0.2-0.6,0.6-0.7,1c-0.1,0.6,0.1,1.3,0.5,1.8c0.8,1,2,1.4,2.3,2.8c0.3,1.2-0.2,2.7,0.4,3.6
		c0.3,0.5,0.7,0.7,1.1,0.9c1.8,0.7,3.6,1.3,5.4,0.6c1.1-0.5,2.1-1.5,3.2-1.8c1.4-0.4,3.2,0,4-1.7c0.2-0.5,0.4-1.2,0.4-1.8
		c0.1-1.8-0.6-3.6-1.6-4.5c-1-0.9-2.4-1-3.5-0.1c-0.4,0.3-0.7,0.7-1.1,0.9c-0.6,0.3-1.4,0-1.8-0.7s0.7-2.2-0.3-2.7
		C719.7,297,715.2,298.7,713.5,299.8z"/>
</g>
<g id="Håndlavet_1_">
	<polygon class="st30" points="671.2,511.6 673.6,512.5 674,515.1 671.9,520 667.6,519.3 667.7,515.8 	"/>
	<path class="st30" d="M670.8,519.7c-0.8-1.2-2.2-1-2.2-1c0.2-4.3-0.4-4.6-0.5-4.8c-1.3-1.2-1.1,0.4-1.2,0.9
		c-0.1,1.5-0.3,2.9-0.6,3.9c-0.4,1.1,0,1.8,0,1.8l1.8,2.9c0,0,1.8,2.1,4.7,0c0,0,1.2-2.3,0.9-3.3c-0.2-1-0.6-1.7-0.5-2.1
		c0.1-0.5,1.5-2.4,1.2-4c0,0-0.1-0.5-0.3-0.5s-1.2,3.7-2,4.4"/>
	<path class="st30" d="M668.4,514.6c0,0,2.6-3.3,2.8-3.6c0.1-0.2,0.9-0.5,1,0c0.1,0.5-0.7,1.9-0.8,2.1c-0.1,0.1-1.7,3.3-2.2,3.9"/>
	<path class="st30" d="M670.6,517.4c0.6-0.3,2.8-5.5,3.2-5.6c0.3,0,0.3,0.2,0.4,0.5c0,0.2-0.1,1.1-0.1,1.1"/>
	<path class="st30" d="M671.9,512c0,0,0.7-1.2,1-1.1c0.3,0.1,0.8,0.4,0.2,2"/>
	<polygon class="st30" points="677.7,511.5 675.2,512.5 674.8,515 676.9,520 681.3,519.2 681.1,515.7 	"/>
	<path class="st30" d="M678.1,519.6c0.8-1.2,2.2-1,2.2-1c-0.2-4.3,0.4-4.6,0.5-4.8c1.3-1.2,1.1,0.4,1.2,0.9c0.1,1.5,0.3,2.9,0.6,3.9
		c0.4,1.1,0,1.8,0,1.8l-1.8,2.9c0,0-1.8,2.1-4.7,0c0,0-1.2-2.3-0.9-3.3c0.2-1,0.6-1.7,0.5-2.1c-0.1-0.5-1.5-2.4-1.2-4
		c0,0,0.1-0.5,0.3-0.5s1.2,3.7,2,4.4"/>
	<path class="st30" d="M680.4,514.5c0,0-2.6-3.3-2.8-3.6c-0.1-0.2-0.9-0.5-1,0c-0.1,0.5,0.7,1.9,0.8,2.1c0.1,0.1,1.7,3.3,2.2,3.9"/>
	<path class="st30" d="M678.3,517.4c-0.6-0.3-2.8-5.5-3.2-5.6c-0.3,0-0.3,0.2-0.4,0.5c0,0.2,0.1,1.1,0.1,1.1"/>
	<path class="st30" d="M676.9,512c0,0-0.7-1.2-1-1.1c-0.3,0.1-0.8,0.4-0.2,2"/>
</g>
<polygon points="201,612 214.1,612 207.5,618.4 "/>
<polygon points="189.1,340.3 202.3,340.3 195.7,346.6 "/>
<polygon points="752,517.4 765.1,517.4 758.5,523.8 "/>
<polygon points="794.5,197.2 807.6,197.2 801,203.6 "/>
<text transform="matrix(0.8921 0 0 1 380.0425 78.7161)" class="st26 st31">Tryk på de forskellige punkter for at læse mere</text>
<polygon points="621.1,73.8 628.9,73.8 625,77.6 "/>
<g>
	<polygon points="818.8,210.9 824.9,199.1 810.9,199.3 	"/>
	<rect x="826.2" y="199" transform="matrix(0.4569 -0.8895 0.8895 0.4569 264.5703 850.2302)" width="4.8" height="18.8"/>
</g>
<g>
	<path d="M718.3,202.8c1.7-3.9,3.7-7.6,6-11.2c0.2-0.3,0.6-0.7,0.9-0.5c0.4,0.2,0.2,0.7,0.1,1.1c-1.1,2.4-2.2,4.9-3.4,7.3
		c-0.5,1.1-1.1,2.3-1.8,3.3c-0.2,0.4-0.5,0.7-0.9,0.8c-0.4,0.1-0.9-0.1-0.9-0.6"/>
	<path class="st1" d="M718.3,202.8c0.9-2.3,1.9-4.5,3.1-6.7c0.6-1.1,1.2-2.2,1.8-3.2c0.3-0.5,0.6-1,1-1.6c0.1-0.1,0.2-0.3,0.4-0.4
		c0.2-0.1,0.4-0.2,0.6-0.1c0.2,0.1,0.4,0.3,0.5,0.5c0,0.2,0,0.4,0,0.6c-0.5,1.2-1,2.2-1.5,3.4c-0.5,1.1-1,2.2-1.6,3.3
		c-0.5,1.1-1,2.2-1.7,3.3c-0.3,0.5-0.6,1.1-1.1,1.5c-0.2,0.2-0.6,0.4-0.9,0.3c-0.3,0-0.6-0.3-0.6-0.6c0,0.3,0.3,0.5,0.6,0.6
		c0.3,0,0.6-0.1,0.8-0.3c0.4-0.4,0.7-1,1-1.5c0.6-1.1,1-2.2,1.5-3.3c1-2.2,2.1-4.5,3-6.7c0.2-0.6-0.2-0.7-0.6-0.2
		c-0.3,0.5-0.6,1-1,1.5c-0.6,1-1.2,2.1-1.8,3.2C720.6,198.4,719.4,200.6,718.3,202.8z"/>
</g>
<path class="st30" d="M719.6,199.5c0.3,0.7,1.2,1.1,1.9,0.9"/>
<g>
	<path d="M718.3,204.1c-0.3-0.3-0.8-0.3-1.1,0s-0.5,0.6-0.6,1s-0.2,0.8-0.4,1.1c-0.2,0.3-0.6,0.6-1,0.6c0.1,0.1,0.2,0.1,0.3,0.1
		c0.4,0.1,0.9,0.3,1.3,0.2c0.5-0.1,1-0.4,1.4-0.9c0.3-0.3,0.5-0.7,0.6-1.1C718.8,204.8,718.7,204.3,718.3,204.1"/>
</g>
<path class="st20" d="M716,205.4c0.3,0,0.5-0.1,0.8-0.1c0.1,0,0.3,0,0.4,0c0.2,0.2-0.2,0.6,0.1,0.8c0.1,0,0.1,0,0.2,0
	c0.3,0,0.6,0,0.9,0"/>
<text transform="matrix(0.892 0 0 1 129.1134 868.8666)"><tspan x="0" y="0" class="st26 st32">Ved hover, åbner den markerede funktion/drop down info boks</tspan><tspan x="231.5" y="33.6" class="st26 st32">og vasen skifter farve</tspan></text>
</svg>
