<?xml version="1.0" encoding="utf-8"?>
<!-- Generator: Adobe Illustrator 22.1.0, SVG Export Plug-In . SVG Version: 6.00 Build 0)  -->
<svg version="1.1" id="Layer_1" xmlns="http://www.w3.org/2000/svg" xmlns:xlink="http://www.w3.org/1999/xlink" x="0px" y="0px"
	 viewBox="0 0 877.5 906" style="enable-background:new 0 0 877.5 906;" xml:space="preserve">
<style type="text/css">
	.st0{fill:none;stroke:#000000;stroke-miterlimit:10;}
	.st1{fill:#FFFFFF;}
	.st2{fill:#7F5056;}
	.st3{fill:#9F6166;}
	.st4{fill:#B57D86;}
	.st5{fill:#4A1B25;}
	.st6{opacity:0.42;}
	.st7{fill:#CCAAA2;}
	.st8{fill:#915960;}
	.st9{opacity:6.000000e-02;fill:#FFFFFF;}
	.st10{opacity:0.49;}
	.st11{fill:#4F3136;}
	.st12{fill:#362222;}
	.st13{fill:#002A73;stroke:#002A73;stroke-width:0.25;stroke-miterlimit:10;}
	.st14{font-family:'BookmanOldStyle';}
	.st15{font-size:26.3422px;}
	.st16{fill:none;}
	.st17{font-size:18.394px;}
	.st18{fill:#FFFFFF;stroke:#000000;stroke-miterlimit:10;}
	.st19{font-size:9.9962px;}
	.st20{fill:#95725E;stroke:#FFFFFF;stroke-width:0.25;stroke-miterlimit:10;}
	.st21{fill:#353535;stroke:#FFFFFF;stroke-width:0.25;stroke-miterlimit:10;}
	.st22{fill:#FC5500;}
	.st23{fill:none;stroke:#000000;stroke-width:0.5;stroke-miterlimit:10;}
	.st24{fill:#3F2E19;}
	.st25{fill:none;stroke:#FFFFFF;stroke-width:0.25;stroke-miterlimit:10;}
	.st26{fill:#9F6166;stroke:#FFFFFF;stroke-width:0.25;stroke-miterlimit:10;}
	.st27{fill:#A60000;stroke:#FFFFFF;stroke-width:0.25;stroke-miterlimit:10;}
	.st28{fill:#1B8B00;}
	.st29{fill:#F7CCAD;stroke:#FFFFFF;stroke-width:0.25;stroke-miterlimit:10;}
	.st30{font-size:11.669px;}
	.st31{stroke:#FFFFFF;stroke-width:0.25;stroke-miterlimit:10;}
	.st32{font-size:24.6022px;}
	.st33{fill:#A60000;}
</style>
<path class="st0" d="M264.2,623.1l18.9,8.7c-58.8,35-132.6,0-132.6,0"/>
<g>

		<image style="overflow:visible;opacity:0.75;" width="174" height="230" xlink:href="AE0D5A52.png"  transform="matrix(1 0 0 1 62.7671 615.3898)">
	</image>
	<g>
		<rect x="77.5" y="625.8" class="st1" width="142" height="197.5"/>
		<rect x="77.5" y="625.8" class="st0" width="142" height="197.5"/>
	</g>
</g>
<path class="st2" d="M424.5,142.3c-19.1,1.2-37.1,4-37.1,4c-37.6-5.7-59.8,1.1-59.8,1.1c-35.9-1.6-54.5,4.5-54.5,4.5
	c-27.6,2.2-36,6.6-36,17c0,19.7,16.7,118,206.1,118.2c166,0.2,169-98.7,169-119.4c0-10.4-7-12-34.6-14.2c0,0-24.2-10.6-60.8-7.3
	c0,0-21.4-5.7-59,0.1c0,0-10.7-2.8-29.7-4H424.5z"/>
<g>
	<path class="st3" d="M583.7,153.3c-3.7,0-7.6-0.6-10.6-2.1c-1,18.6-4.1,46.3-11.8,86.7C547.7,310,527.5,399,523.5,447.8
		c-5.8,70.3,5,224-4.7,265.9c0,0,18.8-0.3,21.9-35.1c1.6-17.5,2.6-33.4,3.4-49.4c1.7-34.8,2.2-69.5,5.2-119.5
		c1-17.5,2.4-36.8,4.1-58.6c2.7-32.8,8.8-66.7,16.1-100.6l0.1,0c6.8-31.3,14.6-62.7,21.8-93.4c7.5-32,14-64.7,17.9-95.5
		c-5-1.7-9.7-3.9-14.2-6.4C591.2,154.8,587.4,154.2,583.7,153.3z"/>
	<path class="st3" d="M571.1,149.9c0,0-0.1-0.1-0.1-0.1c-1.7-0.4-3.5-0.8-5.2-1.2c-0.6-0.1-1.3-0.1-1.9-0.2
		c-1.5-0.1-2.9-0.4-4.4-0.8c-1.3-0.3-2.5-0.7-3.7-1.2c-2.6-0.3-5.2-0.7-7.8-1.1c-0.7-0.1-1.3-0.2-1.7-0.3c-1.6-0.1-3.2-0.3-4.8-0.6
		c-1,0.2-2,0.4-3.1,0.5c-2.8,0.4-5,0.1-7.8-0.1c-0.9-0.1-1.8-0.2-2.6-0.3c-2.6,0.3-5.2,0.5-7.8,0.5c0.9,18.4,2,46.5,0.7,57.5
		c-12.9,115.9-30.3,247.3-33.4,355.3c-2.6,90.5,0.9,158-4.4,166.6c0,0,23,11.4,35.7-10.8c0,0,9.5-9,3.9-152.3
		c-4.6-119,46.8-315.7,50.9-410C572.7,151,571.8,150.5,571.1,149.9z"/>
	<path class="st3" d="M519,145.1c-9,0-17.6-1.3-25.7-3.7c-3.6,0.1-7.2,0.1-10.8-0.2c-8.9,3.1-18.1,4.7-27.7,5
		c-0.2,14.4-0.4,38.1-0.8,67.9c-2.1,159.5-7.5,494-16.1,515.1c0,0,22.7,18.2,45.2-4.8c0,0,9.6-22.7,7.4-110.3
		c-1.6-64.6,2.4-139.1,12.2-223c13.9-119.3,23.9-187.7,18.6-246.2C520.5,145,519.8,145.1,519,145.1z"/>
	<path class="st3" d="M419.7,142.3c-0.5,198.2-0.5,394.7-0.4,595.9"/>
	<path class="st3" d="M325.9,447.8c-4-48.8-24.2-137.7-37.9-209.9c-7.8-41.2-10.9-69.3-11.8-87.9c-0.6,0.1-1.3,0.2-1.9,0.3
		c-0.8,0.1-1.6,0.2-2.4,0.3c-0.4,0-0.8,0.1-1.2,0.1c-0.3,0-0.5,0-0.8,0c-0.2,0-0.4,0-0.7,0c-1.7,0.4-3.4,0.6-5.2,0.6
		c-3.2-0.1-3.5,0-1.1,0.1c-1.6,0.7-3.3,1.4-5,2c-2.2,0.7-4.4,1.3-6.6,1.9c-1.2,0.9-2.5,1.9-3.7,2.8c-0.6,0.4-1.2,0.9-1.8,1.3
		c-0.7,0.5-1.4,0.8-2.1,1.2c-0.9,1.8-1.9,3.5-3,5c4,29.6,10.3,60.9,17.4,91.6c7.2,30.7,15,62.1,21.8,93.4l0.1,0
		c7.3,33.9,13.4,67.8,16.1,100.6c1.8,21.8,3.1,41.2,4.1,58.6c3,49.9,3.5,84.7,5.2,119.5c0.8,16,1.8,31.9,3.4,49.4
		c3.2,34.9,21.9,35.1,21.9,35.1C320.9,671.8,331.7,518,325.9,447.8z"/>
	<path class="st3" d="M362,557.9c-3.1-108-20.4-239.4-33.4-355.3c-1.2-11-0.2-38.9,0.7-57.3c-4.2,0.6-8.5,1-12.8,1
		c-2.3,0-4.6-0.1-6.9-0.3c-1.8,0.4-3.6,0.6-5.2,0.4c-1.9-0.2-3.8-0.5-5.7-0.8c-0.2,0-0.5,0-0.7,0c-0.1,0-0.1,0-0.2,0
		c-2,0.4-4.1,0.6-6.2,0.6c-3.6,1.2-7.4,2.1-11.1,2.8c-0.7,0.2-1.5,0.5-2.2,0.6c-0.7,0.1-1.5,0.3-2.4,0.4c0,0-0.1,0-0.1,0
		c3.7,93.7,55.6,291.7,51,411.3c-5.5,143.3,3.9,152.3,3.9,152.3c12.7,22.2,35.7,10.8,35.7,10.8C361,715.9,364.6,648.4,362,557.9z"/>
	<path class="st3" d="M395.4,214.1c-0.4-30.4-0.7-54.4-0.8-68.7c-10.9,1.8-20.9-3.1-32.7-2.4c-0.3-0.1-0.5-0.1-0.8-0.2
		c-2.2,0.6-4.6,1-7.3,1c-3.8,0-7.2-0.7-10.1-2c-5,1.6-10.2,2.9-15.5,3.6c-5.2,58.4,4.8,126.8,18.6,245.8
		c9.8,83.9,13.8,158.4,12.2,223c-2.2,87.6,7.4,110.3,7.4,110.3c22.5,23,45.2,4.8,45.2,4.8C402.9,708.1,397.5,373.6,395.4,214.1z"/>
	<path class="st3" d="M452.5,146.3c-8.1-1.1-16.3-2.2-24.4-3.3c-3-0.7-5.8-1.6-8.6-2.7c-6.7,2.5-13.7,4-20.9,4.3
		c-2.5,0.6-5.1,1-7.6,1.2c-5.9,34.6-4.4,92.7-0.9,162.5c5.5,108,13.5,178.7,11.1,288.3c-2,91.4,1.8,132.3,1.8,132.3
		c7.2,10.1,17,9.8,23,10.1c6.3,0.3,14.8,0.2,21.5-9.1c0,0,2.8-41.9,0.8-133.3c-2.4-109.6,5.7-180.3,11.1-288.3
		c3.5-69.7,5-127.7-0.9-162.3C456.5,146.2,454.5,146.3,452.5,146.3z"/>
</g>
<g>
	<g>
		<path class="st4" d="M278.7,162.5c3.8,21.3,7.4,42.6,11.1,63.8c3.6,21.3,7.1,42.6,10.5,63.9c3.4,21.3,6.5,42.7,9.5,64.1
			c1.5,10.7,2.9,21.4,4.2,32.1l1,8c0.3,2.7,0.5,5.4,0.8,8.1c0.5,5.4,1,10.8,1.4,16.2c3.2,43.1,3.7,86.4,4.2,129.6
			c0.2,21.6,0.5,43.2,1.2,64.7c0.6,21.6,1.8,43.1,3.5,64.7c-2.4-21.5-3.8-43-4.9-64.6c-1-21.6-1.6-43.2-2.1-64.8
			c-0.5-21.6-0.8-43.2-1.5-64.7c-0.7-21.6-1.7-43.1-3.4-64.6c-0.3-5.4-0.9-10.7-1.3-16.1c-0.3-2.7-0.4-5.4-0.7-8l-1-8
			c-1.3-10.7-2.7-21.4-4.1-32.1c-2.8-21.4-6-42.8-9.1-64.1c-3.1-21.4-6.4-42.7-9.7-64.1C285.1,205.2,281.8,183.8,278.7,162.5z"/>
	</g>
	<g>
		<path class="st4" d="M322.9,153.3c1.3,22.4,3.4,44.7,6.3,67c2.8,22.2,6.1,44.4,9.6,66.6c3.4,22.2,6.7,44.4,9.5,66.7
			c1.4,11.1,2.5,22.3,3.6,33.5c1,11.2,1.9,22.4,2.5,33.6c2.7,44.9,3,89.8,2.7,134.7c-0.1,11.2-0.2,22.4-0.2,33.7
			c0,11.2,0.1,22.4,0.4,33.6c0.3,11.2,0.7,22.4,1.5,33.6c0.4,5.6,0.8,11.2,1.3,16.8c0.5,5.6,1.1,11.2,1.7,16.7
			c-0.8-5.5-1.6-11.1-2.3-16.7c-0.7-5.6-1.3-11.2-1.8-16.7c-1-11.2-1.8-22.4-2.4-33.6c-1-22.4-1.2-44.9-1.3-67.4
			c-0.2-22.4-0.3-44.9-0.9-67.3c-0.5-22.4-1.3-44.8-2.7-67.2c-0.6-11.2-1.5-22.4-2.4-33.5c-1-11.2-2.1-22.3-3.5-33.4
			c-2.6-22.3-5.8-44.5-8.8-66.7c-3-22.2-6-44.5-8.5-66.8c-1.1-11.2-2.2-22.4-2.9-33.6C323.6,175.8,323.2,164.5,322.9,153.3z"/>
	</g>
	<g>
		<path class="st4" d="M569.1,155.2c-2.9,21.8-6.1,43.5-9.3,65.2l-10,65.1l-5.1,32.5c-0.8,5.4-1.8,10.8-2.5,16.3l-2.2,16.3
			c-2.7,21.8-5,43.6-6.8,65.5c-3.7,43.7-5.4,87.6-6.4,131.5c-0.5,21.9-0.8,43.9-1,65.9l-0.4,32.9l-0.1,8.2c0,2.8-0.4,5.5-1,8.2
			c-1.3,5.4-3.3,10.5-5.5,15.5c2.1-5.1,3.9-10.3,5.1-15.6c0.6-2.7,0.9-5.4,0.8-8.1l-0.1-8.2l-0.3-32.9c-0.1-22-0.1-43.9,0.2-65.9
			c0.2-22,0.8-43.9,1.7-65.9c0.9-22,2.2-43.9,3.9-65.8c1.9-21.9,4.2-43.8,7-65.6l2.3-16.3c0.8-5.4,1.7-10.9,2.6-16.3
			c1.7-10.8,3.6-21.7,5.4-32.5l10.9-65l5.4-32.5L569.1,155.2z"/>
	</g>
	<g>
		<path class="st4" d="M522.5,154.2c0.7,5,0.9,10.2,0.7,15.3c-0.2,5.1-0.7,10.2-1.2,15.2c-0.6,5.1-1.2,10.1-1.7,15.2
			c-0.5,5.1-0.9,10.1-0.8,15.1c0,0,0,0.1,0,0.1l0,0l-8.9,59c-2.9,19.7-5.8,39.3-8.4,59c-1.3,9.8-2.6,19.7-3.8,29.6
			c-1.2,9.9-2.3,19.7-3.4,29.6c-0.8,9.9-1.7,19.7-2.1,29.7l-0.4,7.4c-0.1,2.5-0.2,5-0.3,7.4c-0.2,5-0.4,9.9-0.5,14.9l-0.3,14.9
			l-0.2,14.9c-0.1,5-0.1,9.9-0.1,14.9l0,14.9l0.1,29.8c0,9.9,0,19.9-0.1,29.8c0,5-0.1,9.9-0.2,14.9c-0.1,5-0.1,10-0.3,14.9
			l-0.5,14.9c-0.2,5-0.5,9.9-0.8,14.9c-1.3,19.9-3.1,39.7-6,59.4c4.5-39.5,5.3-79.3,5-119.1l-0.7-59.6c-0.2-19.9-0.2-39.8,0.3-59.7
			c0.1-5,0.3-10,0.5-14.9c0.1-2.5,0.2-5,0.3-7.5l0.4-7.5c0.5-10,1.4-19.9,2.2-29.8c2.1-19.8,4.6-39.6,7.5-59.3
			c1.4-9.9,2.9-19.7,4.4-29.5l4.8-29.5c3.3-19.6,6.6-39.2,9.9-58.8l0,0.1c0.1-5.1,0.6-10.2,1.2-15.3c0.6-5.1,1.4-10.1,2.1-15.1
			c0.7-5,1.3-10.1,1.6-15.2C523,164.3,523.1,159.2,522.5,154.2z"/>
	</g>
	<g>
		<path class="st4" d="M387.5,152.2c1.6,22.5,2.9,45,4.4,67.5l1.9,33.8l1.8,33.8c2.3,45.1,4.1,90.1,5.6,135.2l1,33.8l0.9,33.8
			c0.5,22.6,1,45.1,1.2,67.7l0.3,33.8l0.2,33.8c-0.1,22.6-0.1,45.1-0.4,67.7l-1.6-67.6l-0.8-33.8l-0.9-33.8l-1.9-67.6l-1-33.8
			l-1.1-33.8c-1.4-45.1-3.1-90.2-4.6-135.2L387.5,152.2z"/>
	</g>
	<g>
		<path class="st4" d="M457.8,156.1c0.1,22.4-0.2,44.8-0.2,67.2l-0.7,67.2c-0.5,44.8-1.5,89.6-2.7,134.3l-1,33.6l-1.1,33.6
			c-0.9,22.4-1.7,44.8-2.8,67.1l-1.7,33.5l-1.8,33.5l-2.1,33.5l-1.2,16.8l-1.2,16.8l2.6-67.1l1.3-33.6l1.1-33.6l2.1-67.1l2-67.1
			l3.7-134.3l1.9-67.1l1.1-33.6l0.5-16.8L457.8,156.1z"/>
	</g>
	<g>
		<path class="st5" d="M277.7,162.5c3.4,21.2,6.9,42.5,10.1,63.7c3.3,21.3,6.4,42.5,9.4,63.8c6,42.6,11.4,85.3,15.7,128.1
			c1,10.7,2.1,21.4,2.9,32.1l1.3,16.1l1.2,16.1l0.6,8l0.5,8.1l1,16.1l0.8,16.1c0.3,5.4,0.5,10.7,0.7,16.1l0.5,16.1
			c0.1,2.7,0.1,5.4,0.2,8.1l0.1,8.1l0.3,32.3l0.1,8.1l0,4l0,4c-0.1,5.4-0.2,10.8-0.1,16.1c0.1,5.4,0.4,10.7,1.2,16.1
			c0.8,5.3,2,10.6,3.9,15.6c-1.9-5-3.2-10.3-4-15.6c-0.8-5.3-1.2-10.7-1.3-16.1c-0.2-5.4-0.1-10.8-0.1-16.1l0-4l-0.1-4l-0.1-8.1
			l-0.4-32.3l-0.1-8.1c0-2.7-0.1-5.4-0.2-8.1l-0.6-16.1c-0.2-5.4-0.4-10.7-0.7-16.1l-0.8-16.1l-1-16.1l-0.5-8l-0.6-8l-1.2-16.1
			l-1.4-16.1c-0.9-10.7-2-21.4-3-32.1c-4.2-42.8-9.5-85.5-15.4-128.1c-3-21.3-6-42.6-9.3-63.9C284.2,205,281,183.7,277.7,162.5z"/>
	</g>
	<g>
		<path class="st5" d="M324.6,152.1c2.1,44.8,9,89.2,15.6,133.6c3.3,22.2,6.5,44.4,8.9,66.7c2.4,22.3,4.2,44.7,5.6,67.1
			c2.7,44.8,3.9,89.7,4.1,134.5c0.1,22.4,0,44.9-0.1,67.3l-0.1,16.8c-0.1,5.6-0.4,11.2-0.5,16.8c-0.1,5.6,0,11.2,0.7,16.8
			c0.7,5.5,2.1,11.1,5.1,15.9c-3-4.7-4.5-10.3-5.3-15.8c-0.8-5.6-0.9-11.2-0.9-16.8c0-5.6,0.3-11.2,0.3-16.8l-0.1-16.8
			c-0.1-22.4-0.1-44.9-0.4-67.3c-0.5-44.8-1.6-89.7-4.5-134.4c-1.4-22.4-3.1-44.7-5.5-67c-2.4-22.3-5.6-44.5-8.7-66.7
			c-3.2-22.2-6.4-44.4-9.1-66.7C327.3,196.9,325.4,174.5,324.6,152.1z"/>
	</g>
	<g>
		<path class="st5" d="M571,155.5c-1.4,21.8-3.9,43.5-7.2,65c-3.3,21.6-7.2,43-11.1,64.5c-3.9,21.5-7.7,42.9-10.9,64.5
			c-3.3,21.6-5.5,43.3-7.2,65c-3.5,43.5-4.6,87.1-6.3,130.7c-0.9,21.8-1.8,43.6-3,65.4c-1.2,21.8-2.7,43.6-4.5,65.3
			c1.7-21.7,3-43.5,4-65.3c1.1-21.8,2-43.6,2.8-65.4c1.6-43.6,2.6-87.2,6-130.8c1.8-21.7,4.1-43.5,7.4-65c3.3-21.6,7.2-43,11.1-64.5
			c3.9-21.5,7.9-42.9,11.2-64.5C566.8,199,569.4,177.3,571,155.5z"/>
	</g>
	<g>
		<path class="st5" d="M524.2,154c-1.2,22.3-3.4,44.5-6.1,66.7c-2.8,22.1-6.1,44.2-9.2,66.3c-3.1,22.1-6.2,44.2-8.3,66.4
			c-2.2,22.2-3.8,44.5-5.2,66.7c-2.9,44.5-4.4,89.1-5,133.8c-0.3,22.3-0.4,44.6-1.1,66.9c-0.7,22.3-2,44.6-4.1,66.8
			c1.9-22.2,2.9-44.5,3.4-66.8c0.6-22.3,0.5-44.6,0.7-66.9c0.4-44.6,1.9-89.3,4.7-133.8c1.5-22.3,3.2-44.5,5.4-66.8
			c2.2-22.2,5.2-44.4,8.5-66.4c3.3-22.1,6.7-44.1,9.6-66.2C520.4,198.5,522.8,176.3,524.2,154z"/>
	</g>
	<g>
		<path class="st5" d="M389.2,152.8c0.6,22.4,1.6,44.8,2.8,67.2c1.2,22.4,2.6,44.8,4,67.2c2.7,44.8,5.6,89.6,6.1,134.5
			c0.4,22.4,0.5,44.9,0.6,67.3l0.3,67.3c0.1,22.4,0.4,44.9,0.9,67.3c0.5,22.4,1.2,44.8,2.3,67.3c-1.4-22.4-2.5-44.8-3.3-67.2
			c-0.7-22.4-1.2-44.9-1.5-67.3c-0.6-44.9-0.6-89.7-1.4-134.6c-0.4-44.9-3.3-89.6-5.7-134.4c-1.2-22.4-2.4-44.8-3.4-67.2
			C390.1,197.7,389.5,175.2,389.2,152.8z"/>
	</g>
	<g>
		<path class="st5" d="M459.8,156.8l-1.1,33.4l-0.8,33.4l-0.6,33.4l-0.4,33.4L456,424c-0.5,44.5-1.3,89.1-3.2,133.6l-1.7,33.4
			l-2.1,33.3l-2.7,33.3l-3.3,33.2l2.8-33.3l2.2-33.3l1.8-33.3l1.4-33.4c1.6-44.5,2.4-89,2.7-133.6c0.5-44.5,0.7-89.1,1.4-133.6
			l0.6-33.4l0.9-33.4l1.3-33.4L459.8,156.8z"/>
	</g>
</g>
<path class="st6" d="M424.5,142.3c-19.1,1.2-37.1,4-37.1,4c-37.6-5.7-59.8,1.1-59.8,1.1c-35.9-1.6-54.5,4.5-54.5,4.5
	c-27.6,2.2-36,6.6-36,17c0,19.7,13.8,104.6,177.6,104.6c188.6,0,197.5-85.1,197.5-105.8c0-10.4-7-12.8-34.6-15
	c0,0-24.2-9.7-60.8-6.4c0,0-21.4-5.7-59,0.1c0,0-10.7-2.8-29.7-4H424.5z"/>
<path class="st7" d="M322,763.2c0,0-2.3,10.2,0,22.9c0.5,2.4,18.9,43.9,110.8,43.9c89.9,0,102.4-39.2,102.8-43.9
	c1-9.9,0-22.9,0-22.9H322z"/>
<path class="st8" d="M322,765.5c0,0-2.3,9.2,0,20.8c0.5,2.2,18.9,39.8,110.8,39.8c89.9,0,102.4-35.5,102.8-39.8c1-9,0-20.8,0-20.8
	H322z"/>
<path class="st9" d="M322.9,766.4c0,0-2.3,9.2,0,20.8c0.5,2.2,18.9,39.8,110.8,39.8c89.9,0,102.4-35.5,102.8-39.8c1-9,0-20.8,0-20.8
	H322.9z"/>
<path class="st3" d="M554,697.5c-0.8,16-1.8,31.9-3.4,49.4c-3.2,34.9-21.9,35.1-21.9,35.1c-12.7,22.2-35.7,10.8-35.7,10.8
	c-22.5,23-45.2,4.8-45.2,4.8c-7.6,10.4-18.7,9-18.7,9s-12.4,1.3-19.3-9c0,0-22.7,18.2-45.2-4.8c0,0-23,11.4-35.7-10.8
	c0,0-18.8-0.3-21.9-35.1c-1.6-17.8-2.6-34.1-3.4-50.5c0,0,56.5,31.3,124.9,31.3C496.9,727.7,554,697.5,554,697.5z"/>
<path class="st3" d="M278.1,417.4c7.5,34.4,13.7,68.7,16.4,102c1.5,17.9,3.2,43.7,4.1,58.6c0,0,57.8,32.4,130,32.4
	c71.2,0,130.6-32.4,130.6-32.4c1-17.5,2.4-36.8,4.1-58.6c2.7-32.8,8.8-66.7,16.1-100.6c0,0-55.7,33-150.8,33
	S278.1,417.4,278.1,417.4z"/>
<path class="st3" d="M298.6,578c3.4,54.6,3.4,81.8,5.1,118.4c0,0,54.5,31.3,124.9,31.3c66.2,0,125.4-30.2,125.4-30.2
	c1.7-34.8,2.2-69.5,5.2-119.5c0,0-60.8,32.4-130.6,32.4C354.4,610.4,298.6,578,298.6,578z"/>
<path class="st11" d="M278.2,417.5c-6.5-30-14-60-20.9-89.4c-13-55.2-21.1-118.1-20.1-164.2c0,0,3.5,19.1,41,19.1
	c0,0,13.9,12.1,48.5,13.7c0,0,27.9,8.1,66.4,2.4c0,0,15.3,2.2,34.7,3.4h2.5c19.5-1.2,34.7-3.4,34.7-3.4c38.4,6.5,59.1-4.8,59.1-4.8
	c37.3,0.2,49.4-11.3,49.4-11.3c38.3-5.9,42-20.5,42-20.5c1,45.4-1.4,108.8-14.1,163c-7.2,30.7-15,62.1-21.8,93.4
	c0,0-41.4,32.4-154.5,32.4C316.2,451.3,278.2,417.5,278.2,417.5z"/>
<g>
	<path class="st4" d="M271.1,190.9c0.4,24.9,2.9,49.7,6.3,74.3c3.3,24.7,7.4,49.2,11.6,73.7c4.3,24.5,8.4,49.1,12.3,73.7l2.8,18.5
		l1.4,9.2l1.3,9.2l2.6,18.5l2.3,18.5l1.1,9.3l1,9.3l2,18.6c0.6,6.2,1.1,12.4,1.6,18.6l0.8,9.3c0.3,3.1,0.6,6.2,0.7,9.3l1.2,18.6
		l0.6,9.3l0.5,9.3c0.6,12.4,0.9,24.9,1.1,37.4c0.4,24.9,0.2,49.8,0.1,74.7c-0.1,12.4-0.2,24.9,0.1,37.3c0.1,6.2,0.3,12.4,0.8,18.6
		c0.2,3.1,0.5,6.2,1,9.3c0.1,0.8,0.3,1.5,0.4,2.3c0.1,0.8,0.3,1.5,0.5,2.3c0.1,0.4,0.2,0.8,0.3,1.1l0.4,1.1c0.2,0.8,0.7,1.4,1.1,2.1
		c-0.4-0.7-0.9-1.3-1.1-2.1l-0.4-1.1c-0.1-0.4-0.2-0.7-0.3-1.1c-0.2-0.7-0.4-1.5-0.6-2.3c-0.2-0.8-0.4-1.5-0.5-2.3
		c-0.6-3.1-0.9-6.2-1.3-9.3c-0.6-6.2-0.9-12.4-1.1-18.7c-0.5-12.4-0.6-24.9-0.7-37.3c-0.2-24.9-0.2-49.8-0.9-74.7
		c-0.3-12.4-0.8-24.9-1.4-37.3l-0.5-9.3l-0.6-9.3l-1.3-18.6c-0.2-3.1-0.5-6.2-0.8-9.3l-0.8-9.3c-0.6-6.2-1-12.4-1.7-18.6l-2-18.5
		l-1-9.3l-1.2-9.3l-2.3-18.5l-2.5-18.5l-1.3-9.2l-1.4-9.2l-2.8-18.5c-3.8-24.6-8-49.1-11.9-73.7c-3.9-24.6-7.8-49.2-10.8-73.9
		l-1.1-9.3c-0.3-3.1-0.7-6.2-1-9.3c-0.5-6.2-1.1-12.4-1.6-18.6l-1-18.7L271.1,190.9z"/>
</g>
<g>
	<path class="st4" d="M324.6,199.1l-0.8,18.7c-0.1,6.2-0.1,12.5-0.1,18.7c0,1.6,0.1,3.1,0.1,4.7l0.2,4.7l0.3,9.4
		c0.3,6.2,0.9,12.5,1.3,18.7c2,24.9,5.6,49.6,9.4,74.4c3.8,24.7,7.5,49.5,10.9,74.3l2.4,18.6l2.1,18.7l1.1,9.3l0.9,9.3l1.8,18.7
		l1.4,18.7c0.5,6.2,1,12.5,1.3,18.7l1.1,18.8c0.4,6.2,0.7,12.5,0.9,18.8c0.9,25,1.4,50.1,1.3,75.1c0,25-0.4,50-0.6,75.1
		c-0.2,12.5-0.3,25-0.1,37.5c0.1,6.2,0.3,12.5,0.8,18.7c0.2,3.1,0.6,6.2,1.1,9.3c0.3,1.5,0.6,3.1,1,4.6c0.4,1.5,1,3,2,4.2
		c-1-1.2-1.6-2.7-2.1-4.2c-0.5-1.5-0.9-3-1.2-4.6c-0.6-3.1-1-6.2-1.4-9.3c-0.6-6.2-1-12.5-1.2-18.7c-0.5-12.5-0.7-25-0.8-37.5
		c-0.2-25-0.1-50-0.5-75c-0.4-25-0.9-50-2-75c-0.5-12.5-1.4-24.9-2.1-37.4c-0.3-6.2-0.9-12.5-1.3-18.7l-1.5-18.7
		c-2.2-24.9-4.8-49.7-8-74.5c-0.7-6.2-1.6-12.4-2.4-18.6l-1.2-9.3l-1.3-9.3l-5.2-37.2c-3.4-24.8-6.6-49.6-8.3-74.7
		C322.1,249.1,322.1,224,324.6,199.1z"/>
</g>
<g>
	<path class="st4" d="M582.3,191.5l-0.2,18.7l-1,18.7c-0.4,6.2-1.1,12.4-1.6,18.6c-0.2,3.1-0.6,6.2-1,9.3l-1.1,9.3
		c-3,24.7-6.9,49.3-10.8,73.9c-3.9,24.6-8.1,49.1-11.9,73.7l-2.8,18.5l-1.4,9.2l-1.3,9.2l-2.5,18.5l-2.3,18.5l-1.2,9.3l-1,9.3
		l-2,18.5c-0.7,6.2-1.1,12.4-1.7,18.6l-0.8,9.3c-0.3,3.1-0.6,6.2-0.8,9.3l-1.3,18.6l-0.6,9.3l-0.5,9.3c-0.6,12.4-1,24.8-1.4,37.3
		c-0.7,24.9-0.7,49.8-0.9,74.7c-0.1,12.4-0.3,24.9-0.7,37.3c-0.2,6.2-0.5,12.4-1.1,18.7c-0.3,3.1-0.7,6.2-1.3,9.3
		c-0.1,0.8-0.3,1.5-0.5,2.3c-0.2,0.8-0.4,1.5-0.6,2.3c-0.1,0.4-0.2,0.8-0.3,1.1l-0.4,1.1c-0.2,0.7-0.7,1.4-1.1,2.1
		c0.4-0.7,0.8-1.3,1.1-2.1l0.4-1.1c0.1-0.4,0.2-0.7,0.3-1.1c0.2-0.7,0.4-1.5,0.5-2.3c0.1-0.8,0.3-1.5,0.4-2.3c0.5-3.1,0.8-6.2,1-9.3
		c0.5-6.2,0.7-12.4,0.8-18.6c0.2-12.4,0.1-24.9,0.1-37.3c-0.1-24.9-0.3-49.8,0.1-74.7c0.2-12.5,0.5-24.9,1.1-37.4l0.5-9.3l0.6-9.3
		l1.2-18.6c0.2-3.1,0.5-6.2,0.7-9.3l0.8-9.3c0.6-6.2,1-12.4,1.6-18.6l2-18.6l1-9.3l1.1-9.3l2.3-18.5l2.6-18.5l1.3-9.2l1.4-9.2
		l2.8-18.5c4-24.6,8-49.1,12.3-73.7c4.2-24.5,8.3-49.1,11.6-73.7C579.5,241.2,582,216.4,582.3,191.5z"/>
</g>
<g>
	<path class="st4" d="M528.9,199.3c2.5,24.9,2.5,50,1,75c-1.6,25-4.9,49.9-8.3,74.7l-5.2,37.2l-1.3,9.3l-1.2,9.3
		c-0.8,6.2-1.7,12.4-2.4,18.6c-3.2,24.8-5.8,49.6-8,74.5l-1.5,18.7c-0.5,6.2-1,12.5-1.3,18.7c-0.7,12.5-1.6,24.9-2.1,37.4
		c-1.1,25-1.6,50-2,75c-0.4,25-0.3,50-0.5,75c-0.1,12.5-0.3,25-0.8,37.5c-0.3,6.3-0.6,12.5-1.2,18.7c-0.3,3.1-0.8,6.2-1.4,9.3
		c-0.3,1.5-0.7,3.1-1.2,4.6c-0.5,1.5-1.1,3-2.1,4.2c1-1.2,1.5-2.7,2-4.2c0.4-1.5,0.8-3,1-4.6c0.5-3.1,0.8-6.2,1.1-9.3
		c0.5-6.2,0.7-12.5,0.8-18.7c0.2-12.5,0.1-25-0.1-37.5c-0.2-25-0.6-50-0.6-75.1c-0.1-25,0.4-50.1,1.3-75.1
		c0.2-6.3,0.5-12.5,0.9-18.8l1.1-18.8c0.3-6.3,0.8-12.5,1.3-18.7l1.4-18.7l1.8-18.7l0.9-9.3l1.1-9.3l2.1-18.7l2.4-18.6
		c3.3-24.8,7.1-49.6,10.9-74.3c3.8-24.7,7.3-49.5,9.4-74.4c0.4-6.2,0.9-12.5,1.3-18.7l0.3-9.4l0.2-4.7c0-1.6,0.1-3.1,0.1-4.7
		c0-6.2,0-12.5-0.1-18.7L528.9,199.3z"/>
</g>
<g>
	<path class="st4" d="M391,201.4c-1,25-0.4,49.9,0.6,74.9c1,24.9,2.4,49.9,4,74.8l4.7,74.8c1.5,24.9,2.8,49.9,3.9,74.8
		c2,49.9,2.6,99.9,2.5,149.9c0,25-0.2,49.9-0.4,74.9c-0.1,12.5-0.3,25-0.3,37.4c0,6.2,0,12.5,0.1,18.7c0,3.1,0.1,6.2,0.3,9.4
		c0.1,1.6,0.2,3.1,0.3,4.7c0.1,0.8,0.2,1.5,0.3,2.3c0.1,0.4,0.1,0.8,0.2,1.1c0.1,0.4,0.2,0.8,0.6,1c-0.4-0.2-0.5-0.6-0.6-1
		c-0.1-0.4-0.2-0.8-0.3-1.1c-0.2-0.8-0.3-1.5-0.4-2.3c-0.2-1.6-0.3-3.1-0.5-4.7c-0.2-3.1-0.4-6.2-0.6-9.4
		c-0.3-6.2-0.4-12.5-0.6-18.7c-0.3-12.5-0.5-25-0.6-37.5l-0.7-74.9c-0.4-25-0.6-49.9-1.2-74.9c-0.5-25-1.2-49.9-2.3-74.8
		c-2.1-49.9-5.2-99.7-7.7-149.6c-1.2-24.9-2.3-49.9-2.9-74.9c-0.2-12.5-0.3-25-0.2-37.5l0-4.7l0.1-4.7l0.3-9.4
		c0.1-3.1,0.3-6.2,0.5-9.4L391,201.4z"/>
</g>
<g>
	<path class="st4" d="M462.9,201.4c0.3,6.2,0.6,12.5,0.8,18.7c0.1,6.2,0.4,12.5,0.4,18.7c0.2,12.5,0.2,25,0.1,37.5
		c-0.3,25-1,50-1.8,74.9c-1.5,49.9-3.3,99.8-3.7,149.7c-0.2,24.9-0.1,49.9-0.5,74.9c-0.4,25-0.8,50-1.6,74.9
		c-0.8,25-1.7,49.9-2.9,74.9c-0.7,12.5-1.4,24.9-2.4,37.4c-0.5,6.2-1,12.5-1.7,18.7c-0.4,3.1-0.7,6.2-1.2,9.3
		c-0.2,1.5-0.5,3.1-0.8,4.6c-0.2,0.8-0.3,1.5-0.6,2.3c-0.1,0.4-0.2,0.7-0.4,1.1c-0.2,0.4-0.3,0.7-0.7,1c0.3-0.2,0.5-0.6,0.6-1
		c0.1-0.4,0.3-0.7,0.4-1.1c0.2-0.8,0.4-1.5,0.5-2.3c0.3-1.5,0.5-3.1,0.7-4.6c0.4-3.1,0.7-6.2,0.9-9.3c0.5-6.2,0.9-12.4,1.2-18.7
		c0.7-12.5,1.1-24.9,1.5-37.4c0.9-24.9,1.4-49.9,1.8-74.9c0.3-25,0.7-49.9,0.9-74.9l0.2-37.4l0.1-37.5c0.3-25,0.9-50,1.7-74.9
		c0.9-25,1.8-49.9,3-74.9c1.1-24.9,2.2-49.9,2.9-74.8C463.1,251.4,463.4,226.4,462.9,201.4z"/>
</g>
<g>
	<path class="st5" d="M273.2,188.6c0.1,24.9,2.5,49.7,5.8,74.4c3.2,24.7,7.2,49.3,11.3,73.8c4.1,24.5,8.3,49.1,12.2,73.7l2.8,18.5
		l1.4,9.2l1.3,9.2l2.6,18.5l2.3,18.5l1.1,9.3l1,9.3l2,18.6c0.6,6.2,1.1,12.4,1.7,18.6l0.8,9.3c0.3,3.1,0.6,6.2,0.7,9.3l1.2,18.6
		l0.6,9.3l0.5,9.3c0.6,12.4,0.9,24.9,1.2,37.3c0.5,24.9,0.4,49.8,0.4,74.7c0,12.4,0,24.9,0.3,37.3c0.2,6.2,0.4,12.4,0.9,18.6
		c0.3,3.1,0.6,6.2,1.1,9.3c0.1,0.8,0.3,1.5,0.4,2.3c0.1,0.8,0.3,1.5,0.6,2.3c0.1,0.4,0.2,0.8,0.3,1.1l0.4,1.1
		c0.2,0.7,0.7,1.4,1.1,2.1c-0.4-0.7-0.8-1.3-1.1-2.1l-0.4-1.1c-0.1-0.4-0.2-0.7-0.3-1.1c-0.2-0.7-0.4-1.5-0.6-2.3
		c-0.2-0.8-0.4-1.5-0.5-2.3c-0.5-3.1-0.9-6.2-1.2-9.3c-0.6-6.2-0.8-12.4-1-18.6c-0.4-12.4-0.5-24.9-0.5-37.3
		c-0.1-24.9,0-49.8-0.6-74.7c-0.3-12.4-0.7-24.9-1.3-37.3l-0.5-9.3l-0.6-9.3l-1.2-18.6c-0.2-3.1-0.5-6.2-0.8-9.3l-0.8-9.3
		c-0.6-6.2-1-12.4-1.7-18.6l-2-18.6l-1-9.3l-1.2-9.3l-2.3-18.5l-2.6-18.5l-1.3-9.2l-1.4-9.2l-2.8-18.5c-3.9-24.6-8-49.1-12-73.7
		c-4-24.6-8-49.1-11.1-73.8C275.4,238.3,273.1,213.5,273.2,188.6z"/>
</g>
<g>
	<path class="st5" d="M326.6,196.7c-1.9,25-1.6,50,0.3,74.9c1.9,24.9,5.4,49.7,9,74.5c3.7,24.7,7.4,49.5,10.6,74.3
		c3.3,24.8,5.9,49.7,8.2,74.6l1.4,18.7c0.5,6.2,1,12.5,1.3,18.7l1.1,18.7c0.4,6.2,0.7,12.5,0.9,18.7c1,25,1.5,50,1.6,75
		c0.1,25-0.1,50-0.3,75c-0.1,12.5-0.1,25,0.2,37.5c0.2,6.2,0.4,12.5,0.9,18.7c0.3,3.1,0.6,6.2,1.2,9.3c0.3,1.5,0.6,3.1,1.1,4.6
		c0.5,1.5,1,3,2,4.2c-1-1.2-1.6-2.7-2.1-4.2c-0.5-1.5-0.8-3-1.1-4.6c-0.6-3.1-1-6.2-1.3-9.3c-0.6-6.2-0.9-12.5-1.1-18.7
		c-0.4-12.5-0.5-25-0.6-37.5c0-25,0.1-50-0.2-75c-0.3-25-0.7-50-1.8-75c-0.3-6.2-0.6-12.5-0.9-18.7l-1.1-18.7
		c-0.3-6.2-0.9-12.5-1.3-18.7l-1.5-18.7c-2.3-24.9-4.8-49.8-8.1-74.6c-3.2-24.8-6.9-49.5-10.4-74.3c-3.5-24.8-6.9-49.6-8.6-74.6
		C324.5,246.7,324.5,221.6,326.6,196.7z"/>
</g>
<g>
	<path class="st5" d="M584.4,189.2c0.1,24.9-2.2,49.8-5.3,74.5c-3.1,24.7-7.1,49.3-11.1,73.8c-4.1,24.6-8.2,49.1-12,73.7l-2.8,18.5
		l-1.4,9.2l-1.3,9.2l-2.6,18.5l-2.3,18.5l-1.2,9.3l-1,9.3l-2,18.6c-0.7,6.2-1.1,12.4-1.7,18.6l-0.8,9.3c-0.3,3.1-0.6,6.2-0.8,9.3
		l-1.2,18.6l-0.6,9.3l-0.5,9.3c-0.6,12.4-1,24.9-1.3,37.3c-0.5,24.9-0.5,49.8-0.6,74.7c-0.1,12.4-0.1,24.9-0.5,37.3
		c-0.2,6.2-0.5,12.4-1,18.6c-0.3,3.1-0.6,6.2-1.2,9.3c-0.1,0.8-0.3,1.5-0.5,2.3c-0.1,0.8-0.4,1.5-0.6,2.3c-0.1,0.4-0.2,0.8-0.3,1.1
		l-0.4,1.1c-0.2,0.7-0.7,1.4-1.1,2.1c0.4-0.7,0.8-1.3,1.1-2.1l0.4-1.1c0.1-0.4,0.2-0.7,0.3-1.1c0.2-0.7,0.4-1.5,0.6-2.3
		c0.1-0.8,0.3-1.5,0.4-2.3c0.5-3.1,0.8-6.2,1.1-9.3c0.5-6.2,0.7-12.4,0.9-18.6c0.3-12.4,0.3-24.9,0.3-37.3c0-24.9-0.1-49.8,0.4-74.7
		c0.2-12.4,0.6-24.9,1.2-37.3l0.5-9.3l0.6-9.3l1.2-18.6c0.2-3.1,0.5-6.2,0.7-9.3l0.8-9.3c0.6-6.2,1-12.4,1.7-18.6l2-18.6l1-9.3
		l1.1-9.3l2.3-18.5l2.6-18.5l1.3-9.2l1.4-9.2l2.8-18.5c3.9-24.6,8.1-49.1,12.2-73.7c4.1-24.6,8.1-49.1,11.3-73.8
		C581.8,238.9,584.3,214.1,584.4,189.2z"/>
</g>
<g>
	<path class="st5" d="M531,196.9c2.1,24.9,2.1,50,0.4,75c-1.7,25-5.1,49.8-8.6,74.6c-3.5,24.8-7.2,49.5-10.4,74.3
		c-3.3,24.8-5.8,49.7-8.1,74.6l-1.5,18.7c-0.5,6.2-1,12.5-1.3,18.7l-1.1,18.7c-0.4,6.2-0.7,12.5-0.9,18.7c-1.1,25-1.5,50-1.8,75
		c-0.2,25-0.1,50-0.2,75c-0.1,12.5-0.1,25-0.6,37.5c-0.2,6.3-0.5,12.5-1.1,18.7c-0.3,3.1-0.7,6.2-1.3,9.3c-0.3,1.5-0.6,3.1-1.1,4.6
		c-0.5,1.5-1.1,3-2.1,4.2c1-1.2,1.6-2.7,2-4.2c0.5-1.5,0.8-3,1.1-4.6c0.5-3.1,0.9-6.2,1.2-9.3c0.5-6.2,0.8-12.5,0.9-18.7
		c0.3-12.5,0.3-25,0.2-37.5c-0.1-25-0.4-50-0.3-75c0.1-25,0.6-50,1.6-75c0.2-6.3,0.5-12.5,0.9-18.7l1.1-18.7
		c0.3-6.2,0.8-12.5,1.3-18.7l1.4-18.7c2.3-24.9,4.9-49.8,8.2-74.6c3.3-24.8,6.9-49.6,10.6-74.3c3.6-24.7,7.1-49.5,9-74.5
		C532.6,246.9,532.9,221.8,531,196.9z"/>
</g>
<g>
	<path class="st5" d="M393,199.1c-1.3,24.9-0.7,49.9,0.2,74.9c0.9,24.9,2.2,49.9,3.7,74.8c3,49.8,6.2,99.7,8.4,149.6
		c1,25,1.7,49.9,2.1,74.9c0.4,25,0.7,49.9,0.7,74.9c0,25,0,49.9-0.1,74.9c-0.1,12.5-0.1,25-0.1,37.5c0,6.2,0.1,12.5,0.2,18.7
		c0.1,3.1,0.2,6.2,0.4,9.4c0.1,1.6,0.2,3.1,0.4,4.7c0.1,0.8,0.2,1.5,0.3,2.3c0.1,0.4,0.1,0.8,0.3,1.1c0.1,0.4,0.2,0.8,0.6,1
		c-0.3-0.2-0.5-0.6-0.6-1c-0.1-0.4-0.2-0.8-0.3-1.1c-0.1-0.8-0.3-1.5-0.4-2.3c-0.2-1.6-0.3-3.1-0.4-4.7c-0.2-3.1-0.4-6.2-0.5-9.4
		c-0.2-6.2-0.4-12.5-0.5-18.7c-0.2-12.5-0.3-25-0.4-37.5l-0.5-74.9c-0.5-49.9-1.1-99.9-3.2-149.7c-1.1-24.9-2.3-49.9-3.7-74.8
		c-1.4-24.9-2.9-49.9-4.2-74.8c-1.3-24.9-2.5-49.9-3.2-74.9C391.7,249,391.5,224,393,199.1z"/>
</g>
<g>
	<path class="st5" d="M465,199.1c1.1,25,1.2,49.9,0.8,74.9c-0.4,25-1.2,49.9-2,74.9c-0.8,25-1.8,49.9-2.5,74.9
		c-0.7,25-1.3,49.9-1.5,74.9c-0.2,25-0.2,49.9-0.5,74.9c-0.3,25-0.7,49.9-1.4,74.9c-0.7,25-1.5,49.9-2.7,74.9
		c-0.6,12.5-1.3,24.9-2.2,37.4c-0.5,6.2-1,12.5-1.6,18.7c-0.3,3.1-0.7,6.2-1.1,9.3c-0.2,1.5-0.5,3.1-0.8,4.6
		c-0.2,0.8-0.3,1.5-0.6,2.3c-0.1,0.4-0.2,0.7-0.4,1.1c-0.2,0.4-0.3,0.7-0.6,1c0.3-0.2,0.5-0.6,0.6-1c0.1-0.4,0.3-0.7,0.4-1.1
		c0.2-0.8,0.4-1.5,0.5-2.3c0.3-1.5,0.5-3.1,0.7-4.6c0.4-3.1,0.7-6.2,1-9.3c0.6-6.2,1-12.4,1.3-18.7c0.7-12.5,1.3-24.9,1.7-37.4
		c1-25,1.6-49.9,2.1-74.9c0.5-25,0.9-49.9,1.1-74.9c0.3-25,0.1-49.9,0.3-74.9c0.6-50,2.4-99.9,4.4-149.8c1-25,2-49.9,2.6-74.9
		C465.5,249,465.7,224,465,199.1z"/>
</g>
<g>
	<path class="st7" d="M273.3,150.3c-7,0.4-14,1.6-20.4,4.1c-3.2,1.3-6.3,2.8-8.9,5c-1.2,1.1-2.4,2.3-3,3.7c-0.6,1.4-0.5,2.9,0.3,4.1
		c0.2,0.3,0.4,0.6,0.7,0.9c0.3,0.3,0.6,0.6,0.9,0.9c0.6,0.6,1.2,1.2,1.9,1.8c0.6,0.6,1.3,1.1,1.9,1.7c0.7,0.5,1.3,1.1,2,1.6
		c2.8,2,5.8,3.7,9,5c6.4,2.5,13.5,3.4,20.5,3.8c-7,0.3-14.2,0-21-2.4c-3.4-1.1-6.6-2.8-9.6-4.9c-0.7-0.5-1.4-1.1-2.1-1.6
		c-0.7-0.6-1.4-1.1-2-1.8c-0.7-0.6-1.3-1.2-1.9-1.8c-0.3-0.3-0.6-0.6-1-1c-0.3-0.4-0.6-0.8-0.9-1.2c-0.5-0.9-0.9-1.9-0.9-2.9
		c0-1.1,0.2-2.1,0.6-3c0.8-1.8,2.1-3.2,3.6-4.4c2.9-2.3,6.2-3.9,9.6-5C259.1,150.7,266.3,149.9,273.3,150.3z"/>
</g>
<g>
	<path class="st7" d="M577.9,152c7,0.6,13.9,1.7,20.8,3.4c3.4,0.9,6.8,1.9,10.1,3.4c1.6,0.8,3.4,1.7,4.5,3.6c0.5,1,0.7,2.2,0.4,3.2
		c-0.2,1.1-0.7,1.9-1.3,2.7c-1.1,1.5-2.6,2.7-4,3.8c-1.5,1.1-3,2-4.6,2.8c-3.1,1.7-6.4,3-9.7,4.2c-3.3,1.1-6.7,2.1-10.2,2.8
		c-3.4,0.7-6.9,1.2-10.4,1.1c3.5-0.3,6.9-1,10.3-2c3.4-0.9,6.7-2,9.9-3.3c3.2-1.3,6.4-2.7,9.4-4.4c1.5-0.8,2.9-1.8,4.3-2.8
		c1.3-1,2.6-2.1,3.6-3.4c0.9-1.3,1.3-2.7,0.7-3.8c-0.7-1.2-2.1-2.1-3.6-2.8c-1.5-0.7-3.1-1.4-4.7-1.9c-1.6-0.6-3.3-1.1-4.9-1.6
		c-3.3-1-6.7-1.8-10.1-2.7C584.7,153.5,581.3,152.7,577.9,152z"/>
</g>
<g>
	<path class="st7" d="M277.9,183c3.5,2.4,7.5,4.1,11.5,5.5c4,1.4,8.2,2.5,12.3,3.3c4.2,0.8,8.4,1.3,12.7,1.6
		c4.2,0.3,8.5,0.4,12.8,0.4l0.1,0l0.1,0c5.3,1.1,10.7,1.8,16.1,2.4c5.4,0.6,10.8,1,16.2,1.2c2.7,0.1,5.4,0.2,8.1,0.2l4.1,0
		c1.4,0,2.7,0,4.1-0.1c5.4-0.1,10.8-0.7,16.2-1.3l0.1,0l0.1,0c5.7,0.9,11.5,1.6,17.2,2.1c5.8,0.5,11.6,0.8,17.4,0.9
		c5.8,0.1,11.6,0,17.4-0.4c2.9-0.2,5.8-0.5,8.6-0.9c2.9-0.4,5.7-0.9,8.5-1.5l0.1,0l0.1,0c5.2,0.5,10.4,0.8,15.7,1
		c5.2,0.2,10.5,0.3,15.7,0.2c5.2-0.1,10.5-0.3,15.6-0.9c5.2-0.6,10.4-1.4,15.2-3.3l0.1,0l0.1,0c4.2-0.2,8.5-0.6,12.7-1
		c4.2-0.5,8.4-1,12.6-1.8c4.2-0.8,8.3-1.7,12.4-2.9c4.1-1.3,8.1-2.7,11.7-5c-3.5,2.4-7.5,4-11.6,5.4c-4.1,1.3-8.2,2.4-12.4,3.2
		c-4.2,0.8-8.4,1.5-12.6,2.1c-4.2,0.5-8.5,1-12.8,1.2l0.2,0c-5,2-10.2,2.9-15.5,3.6c-5.2,0.6-10.5,1-15.8,1.1
		c-5.3,0.1-10.5,0-15.8-0.1c-5.3-0.2-10.5-0.5-15.8-1l0.3,0c-2.9,0.6-5.8,1.2-8.7,1.6c-2.9,0.4-5.8,0.7-8.7,0.9
		c-5.8,0.4-11.7,0.6-17.5,0.5c-5.8-0.1-11.7-0.5-17.5-1c-5.8-0.5-11.6-1.2-17.4-2.2l0.3,0c-5.4,0.6-10.9,1.1-16.3,1.2
		c-1.4,0.1-2.7,0.1-4.1,0.1l-4.1,0c-2.7-0.1-5.5-0.1-8.2-0.3c-5.5-0.3-10.9-0.8-16.3-1.5c-5.4-0.7-10.8-1.5-16.2-2.7l0.1,0
		c-8.6,0-17.2-0.7-25.6-2.5c-4.2-0.9-8.3-2.1-12.3-3.6C285.3,187.4,281.3,185.5,277.9,183z"/>
</g>
<g>
	<path class="st7" d="M577.9,152c-4.8-1.6-9.7-2.8-14.6-3.7c-4.9-0.9-9.9-1.6-14.9-2c-5-0.4-10-0.6-15-0.5c-2.5,0-5,0.2-7.5,0.3
		c-2.5,0.1-5,0.4-7.5,0.6l-0.1,0l-0.1,0c-4.8-1.5-9.8-2.4-14.8-3c-5-0.6-10-0.9-15.1-1c-5,0-10.1,0.2-15.1,0.7
		c-5,0.5-10,1.3-14.9,2.4l-0.2,0l-0.2-0.1c-5.7-1.3-11.5-2.3-17.4-2.9c-5.8-0.7-11.7-1-17.6-1c-5.9,0-11.8,0.4-17.6,1
		c-5.8,0.7-11.7,1.6-17.4,2.9l-0.2,0.1l-0.2-0.1c-4.9-1.3-10-2.1-15.1-2.6c-5.1-0.5-10.2-0.6-15.4-0.4c-5.1,0.1-10.3,0.6-15.3,1.3
		c-5.1,0.7-10.2,1.6-15.1,2.9l-0.1,0l-0.1,0c-4.4-0.5-8.8-0.9-13.3-1c-4.4-0.1-8.9,0-13.3,0.3c-4.4,0.3-8.9,0.9-13.2,1.6
		c-4.4,0.8-8.8,1.7-13,3c4.2-1.4,8.6-2.5,13-3.4c4.4-0.9,8.8-1.5,13.3-1.9c4.5-0.4,8.9-0.7,13.4-0.6c4.5,0,9,0.3,13.4,0.8l-0.2,0
		c5-1.4,10.1-2.4,15.2-3.2c5.1-0.8,10.3-1.3,15.5-1.5c5.2-0.2,10.4-0.1,15.6,0.3c5.2,0.4,10.3,1.3,15.4,2.6l-0.5,0
		c5.8-1.4,11.7-2.3,17.6-3c5.9-0.7,11.9-1.1,17.8-1.1c6,0,11.9,0.4,17.8,1.1c5.9,0.7,11.8,1.6,17.6,3.1l-0.4,0
		c10-2.1,20.2-3.1,30.4-2.9c5.1,0.1,10.2,0.5,15.3,1.2c5.1,0.7,10.1,1.7,15,3.3l-0.3,0c2.5-0.2,5-0.4,7.6-0.5c2.5-0.1,5-0.2,7.6-0.2
		c5-0.1,10.1,0.3,15.1,0.8c5,0.5,10,1.3,14.9,2.4C568.3,148.9,573.2,150.2,577.9,152z"/>
</g>
<path class="st13" d="M113.9,778.6c-0.1,1.5-0.9,3.8-1.7,5c-1.8,3-2.8,5.4-2.2,8.6c0.5,2.7,5.2,2.5,6.7,2.1c1-0.3,1.8-1,2.2-1.7
	c0.4-0.8,0.3-1.8,0.2-2.6C118.5,786.1,114.2,783.2,113.9,778.6"/>
<path class="st13" d="M116.9,769.2c0,0.7-0.5,1.8-0.8,2.3c-0.9,1.4-1.4,2.5-1.1,3.9c0.2,1.3,2.4,1.2,3.1,1c0.5-0.1,0.8-0.4,1-0.8
	c0.2-0.3,0.2-0.8,0.1-1.2C119,772.6,117.1,771.3,116.9,769.2"/>
<path class="st13" d="M96.4,767.8c-0.1,2.1-1.4,5.2-2.4,6.8c-2.6,4.1-4,7.3-3.3,11.7c0.6,3.8,7,3.6,9,3.1c1.4-0.4,2.5-1.3,3-2.3
	c0.5-1,0.5-2.5,0.4-3.6c-0.7-5.4-6.4-9.4-6.7-15.7"/>
<path class="st13" d="M103.1,792.1c-0.1,0.8-0.5,1.8-0.9,2.4c-0.9,1.5-1.4,2.6-1.2,4.2c0.2,1.3,2.5,1.3,3.2,1.1
	c0.5-0.1,0.9-0.5,1.1-0.8c0.2-0.4,0.2-0.9,0.1-1.3C105.3,795.8,103.2,794.3,103.1,792.1"/>
<path class="st13" d="M107.4,758.4c-0.1,1.3-0.8,3.2-1.5,4.2c-1.6,2.5-2.5,4.5-2,7.2c0.4,2.3,4.3,2.2,5.6,1.9
	c0.9-0.2,1.5-0.8,1.9-1.4c0.3-0.6,0.3-1.5,0.2-2.2C111.1,764.7,107.6,762.2,107.4,758.4"/>
<path class="st0" d="M641.1,263.2l-17.6,16.1c100.9-5.9,125.8-60.6,125.8-60.6"/>
<text transform="matrix(1 0 0 1 251.2255 59.6351)" class="st14 st15">Hannes håndværks anatomi</text>
<rect x="725.2" y="189" class="st16" width="62.4" height="24.1"/>
<text transform="matrix(1 0 0 1 725.1528 202.2021)" class="st14 st17">Glasur</text>
<rect x="93.4" y="332" class="st16" width="92.6" height="24.1"/>
<text transform="matrix(1 0 0 1 93.4126 345.204)" class="st14 st17">Brænding</text>
<rect x="101.2" y="603.7" class="st16" width="93.3" height="24.1"/>
<text transform="matrix(1 0 0 1 101.2075 616.914)" class="st14 st17">Materialer</text>
<rect x="683.6" y="494.5" class="st16" width="68.7" height="24.1"/>
<text transform="matrix(1 0 0 1 683.6099 507.625)" class="st14 st17">Design</text>
<g>

		<image style="overflow:visible;opacity:0.75;" width="171" height="146" xlink:href="AE0D5A56.png"  transform="matrix(1 0 0 1 671.7671 204.3898)">
	</image>
	<g>
		<rect x="686.5" y="214.7" class="st1" width="139.3" height="114.2"/>
		<rect x="686.5" y="214.7" class="st0" width="139.3" height="114.2"/>
	</g>
</g>
<line class="st0" x1="643.5" y1="288.8" x2="622.3" y2="278.9"/>
<rect x="645.5" y="520.8" class="st18" width="142" height="191"/>
<path class="st0" d="M622.5,506.8l-23.9-2.6c39.9,51.6,112.9,24.6,112.9,24.6"/>
<line class="st0" x1="605.5" y1="528.8" x2="598.7" y2="503.1"/>
<path class="st0" d="M235.3,382.7l15.3,14.2c-66.8,15-96.8-31.7-96.8-31.7"/>
<line class="st0" x1="237.9" y1="412" x2="251.2" y2="396.1"/>
<line class="st0" x1="275.8" y1="650" x2="283.5" y2="630.8"/>
<rect x="728" y="228.3" class="st16" width="89" height="48.6"/>
<text transform="matrix(0.6473 0 0 1 728.0122 235.4668)"><tspan x="0" y="0" class="st14 st19">Flere lag glasur for at skabe </tspan><tspan x="0" y="15" class="st14 st19">et rigt farvespil og en </tspan><tspan x="0" y="30" class="st14 st19">spændende stoflighed</tspan></text>
<g>

		<image style="overflow:visible;opacity:0.75;" width="174" height="223" xlink:href="AE0D5A51.png"  transform="matrix(1 0 0 1 630.7671 510.3898)">
	</image>
	<g>
		<rect x="645.5" y="520.8" class="st1" width="142" height="191"/>
		<rect x="645.5" y="520.8" class="st0" width="142" height="191"/>
	</g>
</g>
<rect x="694.3" y="534.3" class="st16" width="89" height="171.1"/>
<text transform="matrix(0.6473 0 0 1 694.3457 541.4667)"><tspan x="0" y="0" class="st14 st19">Håndlavet.</tspan><tspan x="0" y="15" class="st14 st19">Hver ting har sine egen </tspan><tspan x="0" y="30" class="st14 st19">nerve</tspan><tspan x="0" y="45" class="st14 st19">‘fejl’ – farveplet eller en </tspan><tspan x="0" y="60" class="st14 st19">skævhed – kan være </tspan><tspan x="0" y="75" class="st14 st19">velkomme.</tspan><tspan x="0" y="90" class="st14 st19">Lerets og materialer har </tspan><tspan x="0" y="105" class="st14 st19">deres egne “fingeraftryk” </tspan><tspan x="0" y="135" class="st14 st19">Glæde ved keramikken og </tspan><tspan x="0" y="150" class="st14 st19">de fantastiske materialer</tspan></text>
<g>

		<image style="overflow:visible;opacity:0.75;" width="197" height="211" xlink:href="AE0D5A53.png"  transform="matrix(1 0 0 1 39.7671 346.3898)">
	</image>
	<g>
		<rect x="54.8" y="356.8" class="st1" width="164.7" height="178.5"/>
		<rect x="54.8" y="356.8" class="st0" width="164.7" height="178.5"/>
	</g>
</g>
<g>
	<g>
		<path d="M139.5,640.7h0.5v6.5h3.8l-0.1,0.5h-4.2V640.7z"/>
		<path d="M148.8,645.2c0,1.4-0.8,2.6-2.3,2.6c-1.3,0-2.2-1.1-2.2-2.6c0-1.4,0.8-2.6,2.2-2.6C147.9,642.6,148.8,643.6,148.8,645.2z
			 M144.9,645.2c0,1.2,0.6,2.1,1.7,2.1c1.1,0,1.7-0.9,1.7-2.1c0-1.2-0.6-2.1-1.7-2.1C145.4,643,144.9,644,144.9,645.2z"/>
		<path d="M150.1,644c0-0.8,0-1.2,0-1.4h0.5c0,0.2,0,0.5,0,1.1c0.3-0.8,0.9-1.2,1.7-1.2v0.5c-1,0.1-1.7,0.8-1.7,2v2.6h-0.5V644z"/>
		<path d="M153.4,645.2c0,1.3,0.7,2.1,1.6,2.1c0.9,0,1.3-0.5,1.4-0.9h0.5c-0.2,0.7-0.7,1.4-2,1.4c-1.5,0-2.1-1.3-2.1-2.6
			c0-1.4,0.7-2.7,2.2-2.7c1.5,0,2,1.3,2,2.3c0,0.1,0,0.3,0,0.4H153.4z M156.6,644.8c0-1-0.5-1.8-1.5-1.8c-1,0-1.5,0.7-1.6,1.8H156.6
			z"/>
		<path d="M158.3,644c0-0.4,0-0.9,0-1.3h0.5c0,0.2,0,0.6,0,0.9c0.2-0.5,0.7-1,1.5-1c0.7,0,1.2,0.3,1.4,1c0.3-0.5,0.8-1,1.6-1
			c0.8,0,1.6,0.4,1.6,1.8v3.3h-0.5v-3.2c0-0.7-0.2-1.4-1.2-1.4c-1,0-1.4,0.8-1.4,1.8v2.9h-0.5v-3.2c0-0.7-0.2-1.4-1.1-1.4
			c-1,0-1.4,0.9-1.4,1.9v2.7h-0.5V644z"/>
		<path d="M169.2,640.3h0.5v1h-0.5V640.3z M169.2,642.7h0.5v5h-0.5V642.7z"/>
		<path d="M171.9,646.9v2.7h-0.5v-5.8c0-0.4,0-0.8,0-1.2h0.5c0,0.2,0,0.5,0,0.9c0.3-0.6,0.9-1,1.8-1c1.2,0,2,1,2,2.5
			c0,1.8-1,2.7-2.2,2.7C172.6,647.8,172.1,647.4,171.9,646.9z M175.1,645.1c0-1.2-0.6-2-1.5-2c-1.2,0-1.7,0.8-1.7,2.1
			c0,1.3,0.4,2.2,1.6,2.2C174.5,647.3,175.1,646.5,175.1,645.1z"/>
		<path d="M176.9,646.3c0.2,0.6,0.6,1,1.4,1c0.9,0,1.2-0.4,1.2-1c0-0.6-0.2-0.8-1.4-1.1c-1.3-0.3-1.6-0.7-1.6-1.4
			c0-0.7,0.5-1.3,1.6-1.3c1.1,0,1.7,0.7,1.7,1.4h-0.5c-0.1-0.4-0.4-0.9-1.3-0.9c-0.9,0-1.1,0.4-1.1,0.8c0,0.5,0.2,0.7,1.2,0.9
			c1.4,0.3,1.8,0.8,1.8,1.5c0,0.9-0.7,1.5-1.8,1.5c-1.1,0-1.8-0.6-1.9-1.5H176.9z"/>
		<path d="M185,646.2c0,0.5,0,1.3,0,1.5h-0.5c0-0.1,0-0.5,0-0.9c-0.2,0.6-0.7,1-1.6,1c-0.7,0-1.6-0.3-1.6-1.8v-3.3h0.5v3.2
			c0,0.7,0.2,1.4,1.2,1.4c1.1,0,1.5-0.6,1.5-2.1v-2.6h0.5V646.2z"/>
		<path d="M186.7,644c0-0.4,0-0.9,0-1.3h0.5c0,0.2,0,0.6,0,0.9c0.2-0.5,0.7-1,1.5-1c0.7,0,1.2,0.3,1.4,1c0.3-0.5,0.8-1,1.6-1
			c0.8,0,1.6,0.4,1.6,1.8v3.3h-0.5v-3.2c0-0.7-0.2-1.4-1.2-1.4c-1,0-1.4,0.8-1.4,1.8v2.9h-0.5v-3.2c0-0.7-0.2-1.4-1.1-1.4
			c-1,0-1.4,0.9-1.4,1.9v2.7h-0.5V644z"/>
		<path d="M143.2,652.3v5.9c0,0.5,0,0.9,0,1.4h-0.5c0-0.1,0-0.6,0-0.8c-0.3,0.6-0.8,1-1.7,1c-1.3,0-2.1-1.1-2.1-2.6
			c0-1.5,0.8-2.7,2.2-2.7c1,0,1.4,0.4,1.5,0.8v-3H143.2z M139.5,657.2c0,1.4,0.7,2.1,1.6,2.1c1.3,0,1.7-0.9,1.7-2.3
			c0-1.3-0.3-2-1.6-2C140.1,655,139.5,655.8,139.5,657.2z"/>
		<path d="M148.9,657.2c0,1.4-0.8,2.6-2.3,2.6c-1.3,0-2.2-1.1-2.2-2.6c0-1.4,0.8-2.6,2.2-2.6C148,654.6,148.9,655.6,148.9,657.2z
			 M145,657.2c0,1.2,0.6,2.1,1.7,2.1c1.1,0,1.7-0.9,1.7-2.1c0-1.2-0.6-2.1-1.7-2.1C145.5,655,145,656,145,657.2z"/>
		<path d="M150.1,659.7v-7.4h0.5v7.4H150.1z"/>
		<path d="M156.3,657.2c0,1.4-0.8,2.6-2.3,2.6c-1.3,0-2.2-1.1-2.2-2.6c0-1.4,0.8-2.6,2.2-2.6C155.4,654.6,156.3,655.6,156.3,657.2z
			 M152.4,657.2c0,1.2,0.6,2.1,1.7,2.1c1.1,0,1.7-0.9,1.7-2.1c0-1.2-0.6-2.1-1.7-2.1C152.9,655,152.4,656,152.4,657.2z"/>
		<path d="M157.6,656c0-0.8,0-1.2,0-1.4h0.5c0,0.2,0,0.5,0,1.1c0.3-0.8,0.9-1.2,1.7-1.2v0.5c-1,0.1-1.7,0.8-1.7,2v2.6h-0.5V656z"/>
		<path d="M163.4,658.3c0.2,0.6,0.6,1,1.4,1c0.9,0,1.2-0.4,1.2-1c0-0.6-0.2-0.8-1.4-1.1c-1.3-0.3-1.6-0.7-1.6-1.4
			c0-0.7,0.5-1.3,1.6-1.3c1.1,0,1.7,0.7,1.7,1.4H166c-0.1-0.4-0.4-0.9-1.3-0.9c-0.9,0-1.1,0.4-1.1,0.8c0,0.5,0.2,0.7,1.2,0.9
			c1.4,0.3,1.8,0.8,1.8,1.5c0,0.9-0.7,1.5-1.8,1.5c-1.1,0-1.8-0.6-1.9-1.5H163.4z"/>
		<path d="M167.8,652.3h0.5v1h-0.5V652.3z M167.8,654.7h0.5v5h-0.5V654.7z"/>
		<path d="M169.2,654.7h0.9v-1.6h0.5v1.6h1.2v0.5h-1.2v3.2c0,0.6,0.1,0.9,0.6,0.9c0.2,0,0.4,0,0.5-0.1v0.4c-0.2,0.1-0.4,0.1-0.6,0.1
			c-0.6,0-1-0.3-1-1.1v-3.5h-0.9V654.7z"/>
		<path d="M178.9,658.7c0,0.4,0,0.8,0.1,0.9h-0.5c0-0.1-0.1-0.3-0.1-0.8c-0.2,0.4-0.6,0.9-1.6,0.9c-1.2,0-1.7-0.8-1.7-1.5
			c0-1.1,0.8-1.6,2.3-1.6c0.4,0,0.7,0,0.9,0v-0.5c0-0.5-0.2-1.2-1.3-1.2c-1,0-1.2,0.5-1.3,0.9h-0.5c0.1-0.5,0.4-1.4,1.8-1.4
			c1.1,0,1.8,0.5,1.8,1.6V658.7z M178.4,657.1c-0.2,0-0.6,0-1,0c-1.1,0-1.8,0.3-1.8,1.1c0,0.6,0.5,1.1,1.1,1.1c1.4,0,1.6-0.9,1.6-2
			V657.1z"/>
		<path d="M180.5,656c0-0.4,0-0.9,0-1.3h0.5c0,0.2,0,0.6,0,0.9c0.2-0.5,0.7-1,1.5-1c0.7,0,1.2,0.3,1.4,1c0.3-0.5,0.8-1,1.6-1
			c0.8,0,1.6,0.4,1.6,1.8v3.3h-0.5v-3.2c0-0.7-0.2-1.4-1.2-1.4c-1,0-1.4,0.8-1.4,1.8v2.9h-0.5v-3.2c0-0.7-0.2-1.4-1.1-1.4
			c-1,0-1.4,0.9-1.4,1.9v2.7h-0.5V656z"/>
		<path d="M188.9,657.2c0,1.3,0.7,2.1,1.6,2.1c0.9,0,1.3-0.5,1.4-0.9h0.5c-0.2,0.7-0.7,1.4-2,1.4c-1.5,0-2.1-1.3-2.1-2.6
			c0-1.4,0.7-2.7,2.2-2.7c1.5,0,2,1.3,2,2.3c0,0.1,0,0.3,0,0.4H188.9z M192.1,656.8c0-1-0.5-1.8-1.5-1.8c-1,0-1.5,0.7-1.6,1.8H192.1
			z"/>
		<path d="M193.1,654.7h0.9v-1.6h0.5v1.6h1.2v0.5h-1.2v3.2c0,0.6,0.1,0.9,0.6,0.9c0.2,0,0.4,0,0.5-0.1v0.4c-0.2,0.1-0.4,0.1-0.6,0.1
			c-0.6,0-1-0.3-1-1.1v-3.5h-0.9V654.7z"/>
		<path d="M195.9,660.8c0.5-1,0.7-1.9,0.7-2.4h0.5c-0.1,0.8-0.4,1.8-0.7,2.4H195.9z"/>
		<path d="M143,670.2c-0.2,0.9-0.8,1.6-1.9,1.6c-1.2,0-2.1-0.9-2.1-2.6c0-1.4,0.7-2.6,2.2-2.6c1.3,0,1.8,0.9,1.9,1.6h-0.5
			c-0.2-0.6-0.5-1.1-1.4-1.1c-1.1,0-1.7,0.9-1.7,2.1c0,1.2,0.6,2.1,1.6,2.1c0.7,0,1.2-0.4,1.4-1.1H143z"/>
		<path d="M148.2,669.2c0,1.4-0.8,2.6-2.3,2.6c-1.3,0-2.2-1.1-2.2-2.6c0-1.4,0.8-2.6,2.2-2.6C147.3,666.6,148.2,667.6,148.2,669.2z
			 M144.3,669.2c0,1.2,0.6,2.1,1.7,2.1c1.1,0,1.7-0.9,1.7-2.1c0-1.2-0.6-2.1-1.7-2.1C144.8,667,144.3,668,144.3,669.2z"/>
		<path d="M149.5,667.9c0-0.4,0-0.9,0-1.3h0.5c0,0.2,0,0.8,0,0.9c0.2-0.5,0.6-1.1,1.7-1.1c0.9,0,1.7,0.5,1.7,1.9v3.2h-0.5v-3.2
			c0-0.9-0.4-1.5-1.2-1.5c-1.2,0-1.6,1-1.6,2.1v2.5h-0.5V667.9z"/>
		<path d="M154.9,670.3c0.2,0.6,0.6,1,1.4,1c0.9,0,1.3-0.4,1.3-1c0-0.6-0.2-0.8-1.4-1.1c-1.3-0.3-1.6-0.7-1.6-1.4
			c0-0.7,0.5-1.3,1.6-1.3c1.1,0,1.7,0.7,1.7,1.4h-0.5c-0.1-0.4-0.4-0.9-1.3-0.9c-0.9,0-1.1,0.4-1.1,0.8c0,0.5,0.2,0.7,1.2,0.9
			c1.4,0.3,1.8,0.8,1.8,1.5c0,0.9-0.7,1.5-1.8,1.5c-1.1,0-1.8-0.6-1.9-1.5H154.9z"/>
		<path d="M159.5,669.2c0,1.3,0.7,2.1,1.6,2.1c0.9,0,1.3-0.5,1.4-0.9h0.5c-0.2,0.7-0.7,1.4-2,1.4c-1.5,0-2.1-1.3-2.1-2.6
			c0-1.4,0.7-2.7,2.2-2.7c1.5,0,2,1.3,2,2.3c0,0.1,0,0.3,0,0.4H159.5z M162.7,668.8c0-1-0.5-1.8-1.5-1.8c-1,0-1.5,0.7-1.6,1.8H162.7
			z"/>
		<path d="M168.1,670.2c-0.2,0.9-0.8,1.6-1.9,1.6c-1.2,0-2.1-0.9-2.1-2.6c0-1.4,0.7-2.6,2.2-2.6c1.3,0,1.8,0.9,1.9,1.6h-0.5
			c-0.2-0.6-0.5-1.1-1.4-1.1c-1.1,0-1.7,0.9-1.7,2.1c0,1.2,0.6,2.1,1.6,2.1c0.7,0,1.2-0.4,1.4-1.1H168.1z"/>
		<path d="M168.5,666.7h0.9v-1.6h0.5v1.6h1.2v0.5h-1.2v3.2c0,0.6,0.1,0.9,0.6,0.9c0.2,0,0.4,0,0.5-0.1v0.4c-0.2,0.1-0.4,0.1-0.6,0.1
			c-0.6,0-1-0.3-1-1.1v-3.5h-0.9V666.7z"/>
		<path d="M172.2,669.2c0,1.3,0.7,2.1,1.6,2.1c0.9,0,1.3-0.5,1.4-0.9h0.5c-0.2,0.7-0.7,1.4-2,1.4c-1.5,0-2.1-1.3-2.1-2.6
			c0-1.4,0.7-2.7,2.2-2.7c1.5,0,2,1.3,2,2.3c0,0.1,0,0.3,0,0.4H172.2z M175.4,668.8c0-1-0.5-1.8-1.5-1.8c-1,0-1.5,0.7-1.6,1.8H175.4
			z"/>
		<path d="M176.4,666.7h0.9v-1.6h0.5v1.6h1.2v0.5h-1.2v3.2c0,0.6,0.1,0.9,0.6,0.9c0.2,0,0.4,0,0.5-0.1v0.4c-0.2,0.1-0.4,0.1-0.6,0.1
			c-0.6,0-1-0.3-1-1.1v-3.5h-0.9V666.7z"/>
		<path d="M183.8,670.2c0,0.5,0,1.3,0,1.5h-0.5c0-0.1,0-0.5,0-0.9c-0.2,0.6-0.7,1-1.6,1c-0.7,0-1.6-0.3-1.6-1.8v-3.3h0.5v3.2
			c0,0.7,0.2,1.4,1.2,1.4c1.1,0,1.5-0.6,1.5-2.1v-2.6h0.5V670.2z"/>
		<path d="M185.5,669.2c0,1.3,0.7,2.1,1.6,2.1c0.9,0,1.3-0.5,1.4-0.9h0.5c-0.2,0.7-0.7,1.4-2,1.4c-1.5,0-2.1-1.3-2.1-2.6
			c0-1.4,0.7-2.7,2.2-2.7c1.5,0,2,1.3,2,2.3c0,0.1,0,0.3,0,0.4H185.5z M188.7,668.8c0-1-0.5-1.8-1.5-1.8c-1,0-1.5,0.7-1.6,1.8H188.7
			z"/>
		<path d="M190.4,668c0-0.8,0-1.2,0-1.4h0.5c0,0.2,0,0.5,0,1.1c0.3-0.8,0.9-1.2,1.7-1.2v0.5c-1,0.1-1.7,0.8-1.7,2v2.6h-0.5V668z"/>
		<path d="M142.8,694.7c0,0.4,0,0.8,0.1,0.9h-0.5c0-0.1-0.1-0.3-0.1-0.8c-0.2,0.4-0.6,0.9-1.6,0.9c-1.2,0-1.7-0.8-1.7-1.5
			c0-1.1,0.8-1.6,2.3-1.6c0.4,0,0.7,0,0.9,0v-0.5c0-0.5-0.2-1.2-1.3-1.2c-1,0-1.2,0.5-1.3,0.9h-0.5c0.1-0.5,0.4-1.4,1.8-1.4
			c1.1,0,1.8,0.5,1.8,1.6V694.7z M142.3,693.1c-0.2,0-0.6,0-1,0c-1.1,0-1.8,0.3-1.8,1.1c0,0.6,0.5,1.1,1.1,1.1c1.4,0,1.6-0.9,1.6-2
			V693.1z"/>
		<path d="M148.3,688.3v5.9c0,0.5,0,0.9,0,1.4h-0.5c0-0.1,0-0.6,0-0.8c-0.3,0.6-0.8,1-1.7,1c-1.3,0-2.1-1.1-2.1-2.6
			c0-1.5,0.8-2.7,2.2-2.7c1,0,1.4,0.4,1.5,0.8v-3H148.3z M144.5,693.2c0,1.4,0.7,2.1,1.6,2.1c1.3,0,1.7-0.9,1.7-2.3
			c0-1.3-0.3-2-1.6-2C145.2,691,144.5,691.8,144.5,693.2z"/>
		<path d="M149.9,688.3h0.5v1h-0.5V688.3z M149.9,690.7h0.5v5h-0.5V690.7z"/>
		<path d="M152.6,694.9v2.7h-0.5v-5.8c0-0.4,0-0.8,0-1.2h0.5c0,0.2,0,0.5,0,0.9c0.3-0.6,0.9-1,1.8-1c1.2,0,2,1,2,2.5
			c0,1.8-1,2.7-2.2,2.7C153.3,695.8,152.8,695.4,152.6,694.9z M155.8,693.1c0-1.2-0.6-2-1.5-2c-1.2,0-1.7,0.8-1.7,2.1
			c0,1.3,0.4,2.2,1.6,2.2C155.2,695.3,155.8,694.5,155.8,693.1z"/>
		<path d="M157.6,688.3h0.5v1h-0.5V688.3z M157.6,690.7h0.5v5h-0.5V690.7z"/>
		<path d="M159.7,694.3c0.2,0.6,0.6,1,1.4,1c0.9,0,1.3-0.4,1.3-1c0-0.6-0.2-0.8-1.4-1.1c-1.3-0.3-1.6-0.7-1.6-1.4
			c0-0.7,0.5-1.3,1.6-1.3c1.1,0,1.7,0.7,1.7,1.4h-0.5c-0.1-0.4-0.4-0.9-1.3-0.9c-0.9,0-1.1,0.4-1.1,0.8c0,0.5,0.2,0.7,1.2,0.9
			c1.4,0.3,1.8,0.8,1.8,1.5c0,0.9-0.7,1.5-1.8,1.5c-1.1,0-1.8-0.6-1.9-1.5H159.7z"/>
		<path d="M167.8,694.2c-0.2,0.9-0.8,1.6-1.9,1.6c-1.2,0-2.1-0.9-2.1-2.6c0-1.4,0.7-2.6,2.2-2.6c1.3,0,1.8,0.9,1.9,1.6h-0.5
			c-0.2-0.6-0.5-1.1-1.4-1.1c-1.1,0-1.7,0.9-1.7,2.1c0,1.2,0.6,2.1,1.6,2.1c0.7,0,1.2-0.4,1.4-1.1H167.8z"/>
		<path d="M169,688.3h0.5v1H169V688.3z M169,690.7h0.5v5H169V690.7z"/>
		<path d="M171.1,691.9c0-0.4,0-0.9,0-1.3h0.5c0,0.2,0,0.8,0,0.9c0.2-0.5,0.6-1.1,1.7-1.1c0.9,0,1.7,0.5,1.7,1.9v3.2h-0.5v-3.2
			c0-0.9-0.4-1.5-1.2-1.5c-1.2,0-1.6,1-1.6,2.1v2.5h-0.5V691.9z"/>
		<path d="M180.4,695.3c0,1.6-0.7,2.4-2.2,2.4c-1.3,0-1.8-0.7-2-1.5h0.5c0.2,0.7,0.8,1,1.5,1c1.3,0,1.7-0.8,1.7-2.1v-0.5
			c-0.3,0.6-0.8,1-1.7,1c-1.2,0-2.1-0.9-2.1-2.5c0-1.7,1-2.6,2.1-2.6c1,0,1.5,0.5,1.6,0.9c0-0.3,0-0.6,0-0.8h0.5c0,0.2,0,1,0,1.4
			V695.3z M176.7,693.2c0,1.2,0.6,2,1.6,2c1.2,0,1.6-0.8,1.6-2.1c0-1.3-0.4-2-1.6-2C177.2,691,176.7,692,176.7,693.2z"/>
		<path d="M184.8,693.2c0,1.3,0.7,2.1,1.6,2.1c0.9,0,1.3-0.5,1.4-0.9h0.5c-0.2,0.7-0.7,1.4-2,1.4c-1.5,0-2.1-1.3-2.1-2.6
			c0-1.4,0.7-2.7,2.2-2.7c1.5,0,2,1.3,2,2.3c0,0.1,0,0.3,0,0.4H184.8z M187.9,692.8c0-1-0.5-1.8-1.5-1.8c-1,0-1.5,0.7-1.6,1.8H187.9
			z"/>
		<path d="M189.7,695.7v-7.4h0.5v7.4H189.7z"/>
		<path d="M191.8,688.3h0.5v1h-0.5V688.3z M191.8,690.7h0.5v5h-0.5V690.7z"/>
		<path d="M193.2,690.7h0.9v-1.6h0.5v1.6h1.2v0.5h-1.2v3.2c0,0.6,0.1,0.9,0.6,0.9c0.2,0,0.4,0,0.5-0.1v0.4c-0.2,0.1-0.4,0.1-0.6,0.1
			c-0.6,0-1-0.3-1-1.1v-3.5h-0.9V690.7z"/>
		<path d="M196,696.8c0.5-1,0.7-1.9,0.7-2.4h0.5c-0.1,0.8-0.4,1.8-0.7,2.4H196z"/>
		<path d="M139.3,706.3c0.2,0.6,0.6,1,1.4,1c0.9,0,1.3-0.4,1.3-1c0-0.6-0.2-0.8-1.4-1.1c-1.3-0.3-1.6-0.7-1.6-1.4
			c0-0.7,0.5-1.3,1.6-1.3c1.1,0,1.7,0.7,1.7,1.4h-0.5c-0.1-0.4-0.4-0.9-1.3-0.9c-0.9,0-1.1,0.4-1.1,0.8c0,0.5,0.2,0.7,1.2,0.9
			c1.4,0.3,1.8,0.8,1.8,1.5c0,0.9-0.7,1.5-1.8,1.5c-1.1,0-1.8-0.6-1.9-1.5H139.3z"/>
		<path d="M143.9,705.2c0,1.3,0.7,2.1,1.6,2.1c0.9,0,1.3-0.5,1.4-0.9h0.5c-0.2,0.7-0.7,1.4-2,1.4c-1.5,0-2.1-1.3-2.1-2.6
			c0-1.4,0.7-2.7,2.2-2.7c1.5,0,2,1.3,2,2.3c0,0.1,0,0.3,0,0.4H143.9z M147,704.8c0-1-0.5-1.8-1.5-1.8c-1,0-1.5,0.7-1.6,1.8H147z"/>
		<path d="M152.6,700.3v5.9c0,0.5,0,0.9,0,1.4h-0.5c0-0.1,0-0.6,0-0.8c-0.3,0.6-0.8,1-1.7,1c-1.3,0-2.1-1.1-2.1-2.6
			c0-1.5,0.8-2.7,2.2-2.7c1,0,1.4,0.4,1.5,0.8v-3H152.6z M148.9,705.2c0,1.4,0.7,2.1,1.6,2.1c1.3,0,1.7-0.9,1.7-2.3
			c0-1.3-0.3-2-1.6-2C149.6,703,148.9,703.8,148.9,705.2z"/>
		<path d="M160.7,700.3v5.9c0,0.5,0,0.9,0,1.4h-0.5c0-0.1,0-0.6,0-0.8c-0.3,0.6-0.8,1-1.7,1c-1.3,0-2.1-1.1-2.1-2.6
			c0-1.5,0.8-2.7,2.2-2.7c1,0,1.4,0.4,1.5,0.8v-3H160.7z M157,705.2c0,1.4,0.7,2.1,1.6,2.1c1.3,0,1.7-0.9,1.7-2.3c0-1.3-0.3-2-1.6-2
			C157.7,703,157,703.8,157,705.2z"/>
		<path d="M162.4,700.3h0.5v1h-0.5V700.3z M162.4,702.7h0.5v5h-0.5V702.7z"/>
		<path d="M168,706.7c0,0.4,0,0.8,0.1,0.9h-0.5c0-0.1-0.1-0.3-0.1-0.8c-0.2,0.4-0.6,0.9-1.6,0.9c-1.2,0-1.7-0.8-1.7-1.5
			c0-1.1,0.8-1.6,2.3-1.6c0.4,0,0.7,0,0.9,0v-0.5c0-0.5-0.2-1.2-1.3-1.2c-1,0-1.2,0.5-1.3,0.9h-0.5c0.1-0.5,0.4-1.4,1.8-1.4
			c1.1,0,1.8,0.5,1.8,1.6V706.7z M167.5,705.1c-0.2,0-0.6,0-1,0c-1.1,0-1.8,0.3-1.8,1.1c0,0.6,0.5,1.1,1.1,1.1c1.4,0,1.6-0.9,1.6-2
			V705.1z"/>
		<path d="M169.6,704c0-0.4,0-0.9,0-1.3h0.5c0,0.2,0,0.6,0,0.9c0.2-0.5,0.7-1,1.5-1c0.7,0,1.2,0.3,1.4,1c0.3-0.5,0.8-1,1.6-1
			c0.8,0,1.6,0.4,1.6,1.8v3.3h-0.5v-3.2c0-0.7-0.2-1.4-1.2-1.4c-1,0-1.4,0.8-1.4,1.8v2.9h-0.5v-3.2c0-0.7-0.2-1.4-1.1-1.4
			c-1,0-1.4,0.9-1.4,1.9v2.7h-0.5V704z"/>
		<path d="M139.3,715.9c0-0.4,0-0.9,0-1.3h0.5c0,0.2,0,0.8,0,0.9c0.2-0.5,0.6-1.1,1.7-1.1c0.9,0,1.7,0.5,1.7,1.9v3.2h-0.5v-3.2
			c0-0.9-0.4-1.5-1.2-1.5c-1.2,0-1.6,1-1.6,2.1v2.5h-0.5V715.9z"/>
		<path d="M148.9,717.2c0,1.4-0.8,2.6-2.3,2.6c-1.3,0-2.2-1.1-2.2-2.6c0-1.4,0.8-2.6,2.2-2.6C148,714.6,148.9,715.6,148.9,717.2z
			 M144.9,717.2c0,1.2,0.6,2.1,1.7,2.1c1.1,0,1.7-0.9,1.7-2.1c0-1.2-0.6-2.1-1.7-2.1C145.5,715,144.9,716,144.9,717.2z"/>
		<path d="M150.1,715.9c0-0.4,0-0.9,0-1.3h0.5c0,0.2,0,0.8,0,0.9c0.2-0.5,0.6-1.1,1.7-1.1c0.9,0,1.7,0.5,1.7,1.9v3.2h-0.5v-3.2
			c0-0.9-0.4-1.5-1.2-1.5c-1.2,0-1.6,1-1.6,2.1v2.5h-0.5V715.9z"/>
		<path d="M159.3,718.2c0,0.5,0,1.3,0,1.5h-0.5c0-0.1,0-0.5,0-0.9c-0.2,0.6-0.7,1-1.6,1c-0.7,0-1.6-0.3-1.6-1.8v-3.3h0.5v3.2
			c0,0.7,0.2,1.4,1.2,1.4c1.1,0,1.5-0.6,1.5-2.1v-2.6h0.5V718.2z"/>
		<path d="M161,716c0-0.4,0-0.9,0-1.3h0.5c0,0.2,0,0.6,0,0.9c0.2-0.5,0.7-1,1.5-1c0.7,0,1.2,0.3,1.4,1c0.3-0.5,0.8-1,1.6-1
			c0.8,0,1.6,0.4,1.6,1.8v3.3h-0.5v-3.2c0-0.7-0.2-1.4-1.2-1.4c-1,0-1.4,0.8-1.4,1.8v2.9H164v-3.2c0-0.7-0.2-1.4-1.1-1.4
			c-1,0-1.4,0.9-1.4,1.9v2.7H161V716z"/>
		<path d="M169.3,716c0-0.4,0-0.9,0-1.3h0.5c0,0.2,0,0.6,0,0.9c0.2-0.5,0.7-1,1.5-1c0.7,0,1.2,0.3,1.4,1c0.3-0.5,0.8-1,1.6-1
			c0.8,0,1.6,0.4,1.6,1.8v3.3h-0.5v-3.2c0-0.7-0.2-1.4-1.2-1.4c-1,0-1.4,0.8-1.4,1.8v2.9h-0.5v-3.2c0-0.7-0.2-1.4-1.1-1.4
			c-1,0-1.4,0.9-1.4,1.9v2.7h-0.5V716z"/>
		<path d="M177.4,714.7c1,2.9,1.4,4,1.6,4.6h0c0.2-0.6,0.6-1.8,1.6-4.6h0.5l-1.9,5.3c-0.5,1.5-0.9,1.8-1.8,1.8c-0.2,0-0.3,0-0.5,0
			v-0.5c0.1,0,0.3,0,0.4,0c0.7,0,0.9-0.3,1.3-1.4l-1.9-5.2H177.4z"/>
		<path d="M184.7,715.9c0-0.4,0-0.9,0-1.3h0.5c0,0.2,0,0.8,0,0.9c0.2-0.5,0.6-1.1,1.7-1.1c0.9,0,1.7,0.5,1.7,1.9v3.2H188v-3.2
			c0-0.9-0.4-1.5-1.2-1.5c-1.2,0-1.6,1-1.6,2.1v2.5h-0.5V715.9z"/>
		<path d="M190.2,712.3h0.5v1h-0.5V712.3z M190.2,714.7h0.5v5h-0.5V714.7z"/>
		<path d="M192.3,712.3h0.5v3.2c0.2-0.5,0.7-1,1.7-1c1.2,0,2,1,2,2.5c0,1.6-0.8,2.7-2.2,2.7c-0.8,0-1.3-0.3-1.6-0.9
			c0,0.3,0,0.7,0,0.8h-0.5c0-0.6,0-1.1,0-1.7V712.3z M196,717.1c0-1.2-0.6-2-1.6-2c-1.2,0-1.7,0.8-1.7,2.2c0,1.2,0.4,2.1,1.6,2.1
			C195.4,719.3,196,718.5,196,717.1z"/>
		<path d="M198.3,712.3v3.2c0.3-0.5,0.8-1,1.6-1c0.7,0,1.7,0.4,1.7,1.9v3.2h-0.5v-3.1c0-1-0.4-1.5-1.3-1.5c-1,0-1.6,0.6-1.6,1.8v2.8
			h-0.5v-7.4H198.3z"/>
		<path d="M139.4,729.2c0,1.3,0.7,2.1,1.6,2.1c0.9,0,1.3-0.5,1.4-0.9h0.5c-0.2,0.7-0.7,1.4-2,1.4c-1.5,0-2.1-1.3-2.1-2.6
			c0-1.4,0.7-2.7,2.2-2.7c1.5,0,2,1.3,2,2.3c0,0.1,0,0.3,0,0.4H139.4z M142.6,728.8c0-1-0.5-1.8-1.5-1.8c-1,0-1.5,0.7-1.6,1.8H142.6
			z"/>
		<path d="M148.1,730.2c0,0.5,0,1.3,0,1.5h-0.5c0-0.1,0-0.5,0-0.9c-0.2,0.6-0.7,1-1.6,1c-0.7,0-1.6-0.3-1.6-1.8v-3.3h0.5v3.2
			c0,0.7,0.2,1.4,1.2,1.4c1.1,0,1.5-0.6,1.5-2.1v-2.6h0.5V730.2z"/>
		<path d="M149.7,724.3h0.5v1h-0.5V724.3z M149.7,726.7h0.5v5h-0.5V726.7z"/>
		<path d="M151.9,730.3c0.2,0.6,0.6,1,1.4,1c0.9,0,1.3-0.4,1.3-1c0-0.6-0.2-0.8-1.4-1.1c-1.3-0.3-1.6-0.7-1.6-1.4
			c0-0.7,0.5-1.3,1.6-1.3c1.1,0,1.7,0.7,1.7,1.4h-0.5c-0.1-0.4-0.4-0.9-1.3-0.9c-0.9,0-1.1,0.4-1.1,0.8c0,0.5,0.2,0.7,1.2,0.9
			c1.4,0.3,1.8,0.8,1.8,1.5c0,0.9-0.7,1.5-1.8,1.5c-1.1,0-1.8-0.6-1.9-1.5H151.9z"/>
		<path d="M156.3,728c0-0.4,0-0.9,0-1.3h0.5c0,0.2,0,0.6,0,0.9c0.2-0.5,0.7-1,1.5-1c0.7,0,1.2,0.3,1.4,1c0.3-0.5,0.8-1,1.6-1
			c0.8,0,1.6,0.4,1.6,1.8v3.3h-0.5v-3.2c0-0.7-0.2-1.4-1.2-1.4c-1,0-1.4,0.8-1.4,1.8v2.9h-0.5v-3.2c0-0.7-0.2-1.4-1.1-1.4
			c-1,0-1.4,0.9-1.4,1.9v2.7h-0.5V728z"/>
		<path d="M168.6,729.2c0,1.4-0.8,2.6-2.3,2.6c-1.3,0-2.2-1.1-2.2-2.6c0-1.4,0.8-2.6,2.2-2.6C167.8,726.6,168.6,727.6,168.6,729.2z
			 M164.7,729.2c0,1.2,0.6,2.1,1.7,2.1c1.1,0,1.7-0.9,1.7-2.1c0-1.2-0.6-2.1-1.7-2.1C165.3,727,164.7,728,164.7,729.2z"/>
		<path d="M173.7,724.3v5.9c0,0.5,0,0.9,0,1.4h-0.5c0-0.1,0-0.6,0-0.8c-0.3,0.6-0.8,1-1.7,1c-1.3,0-2.1-1.1-2.1-2.6
			c0-1.5,0.8-2.7,2.2-2.7c1,0,1.4,0.4,1.5,0.8v-3H173.7z M170,729.2c0,1.4,0.7,2.1,1.6,2.1c1.3,0,1.7-0.9,1.7-2.3c0-1.3-0.3-2-1.6-2
			C170.7,727,170,727.8,170,729.2z"/>
		<path d="M138.6,738.7h0.9v-1.6h0.5v1.6h1.2v0.5H140v3.2c0,0.6,0.1,0.9,0.6,0.9c0.2,0,0.4,0,0.5-0.1v0.4c-0.2,0.1-0.4,0.1-0.6,0.1
			c-0.6,0-1-0.3-1-1.1v-3.5h-0.9V738.7z"/>
		<path d="M142.2,736.3h0.5v1h-0.5V736.3z M142.2,738.7h0.5v5h-0.5V738.7z"/>
		<path d="M144.4,739.9c0-0.4,0-0.9,0-1.3h0.5c0,0.2,0,0.8,0,0.9c0.2-0.5,0.6-1.1,1.7-1.1c0.9,0,1.7,0.5,1.7,1.9v3.2h-0.5v-3.2
			c0-0.9-0.4-1.5-1.2-1.5c-1.2,0-1.6,1-1.6,2.1v2.5h-0.5V739.9z"/>
		<path d="M153.5,742.2c-0.2,0.9-0.8,1.6-1.9,1.6c-1.2,0-2.1-0.9-2.1-2.6c0-1.4,0.7-2.6,2.2-2.6c1.3,0,1.8,0.9,1.9,1.6H153
			c-0.2-0.6-0.5-1.1-1.4-1.1c-1.1,0-1.7,0.9-1.7,2.1c0,1.2,0.6,2.1,1.6,2.1c0.7,0,1.2-0.4,1.4-1.1H153.5z"/>
		<path d="M154.7,736.3h0.5v1h-0.5V736.3z M154.7,738.7h0.5v5h-0.5V738.7z"/>
		<path d="M160.7,736.3v5.9c0,0.5,0,0.9,0,1.4h-0.5c0-0.1,0-0.6,0-0.8c-0.3,0.6-0.8,1-1.7,1c-1.3,0-2.1-1.1-2.1-2.6
			c0-1.5,0.8-2.7,2.2-2.7c1,0,1.4,0.4,1.5,0.8v-3H160.7z M157,741.2c0,1.4,0.7,2.1,1.6,2.1c1.3,0,1.7-0.9,1.7-2.3c0-1.3-0.3-2-1.6-2
			C157.6,739,157,739.8,157,741.2z"/>
		<path d="M166.1,742.2c0,0.5,0,1.3,0,1.5h-0.5c0-0.1,0-0.5,0-0.9c-0.2,0.6-0.7,1-1.6,1c-0.7,0-1.6-0.3-1.6-1.8v-3.3h0.5v3.2
			c0,0.7,0.2,1.4,1.2,1.4c1.1,0,1.5-0.6,1.5-2.1v-2.6h0.5V742.2z"/>
		<path d="M167.7,739.9c0-0.4,0-0.9,0-1.3h0.5c0,0.2,0,0.8,0,0.9c0.2-0.5,0.6-1.1,1.7-1.1c0.9,0,1.7,0.5,1.7,1.9v3.2H171v-3.2
			c0-0.9-0.4-1.5-1.2-1.5c-1.2,0-1.6,1-1.6,2.1v2.5h-0.5V739.9z"/>
		<path d="M172.4,738.7h0.9v-1.6h0.5v1.6h1.2v0.5h-1.2v3.2c0,0.6,0.1,0.9,0.6,0.9c0.2,0,0.4,0,0.5-0.1v0.4c-0.2,0.1-0.4,0.1-0.6,0.1
			c-0.6,0-1-0.3-1-1.1v-3.5h-0.9V738.7z"/>
		<path d="M182.4,742.2c0,0.5,0,1.3,0,1.5h-0.5c0-0.1,0-0.5,0-0.9c-0.2,0.6-0.7,1-1.6,1c-0.7,0-1.6-0.3-1.6-1.8v-3.3h0.5v3.2
			c0,0.7,0.2,1.4,1.2,1.4c1.1,0,1.5-0.6,1.5-2.1v-2.6h0.5V742.2z"/>
		<path d="M183.3,738.7h0.9v-1.6h0.5v1.6h1.2v0.5h-1.2v3.2c0,0.6,0.1,0.9,0.6,0.9c0.2,0,0.4,0,0.5-0.1v0.4c-0.2,0.1-0.4,0.1-0.6,0.1
			c-0.6,0-1-0.3-1-1.1v-3.5h-0.9V738.7z"/>
		<path d="M142.8,766.7c0,0.4,0,0.8,0.1,0.9h-0.5c0-0.1-0.1-0.3-0.1-0.8c-0.2,0.4-0.6,0.9-1.6,0.9c-1.2,0-1.7-0.8-1.7-1.5
			c0-1.1,0.8-1.6,2.3-1.6c0.4,0,0.7,0,0.9,0v-0.5c0-0.5-0.2-1.2-1.3-1.2c-1,0-1.2,0.5-1.3,0.9h-0.5c0.1-0.5,0.4-1.4,1.8-1.4
			c1.1,0,1.8,0.5,1.8,1.6V766.7z M142.3,765.1c-0.2,0-0.6,0-1,0c-1.1,0-1.8,0.3-1.8,1.1c0,0.6,0.5,1.1,1.1,1.1c1.4,0,1.6-0.9,1.6-2
			V765.1z"/>
		<path d="M148.3,760.3v5.9c0,0.5,0,0.9,0,1.4h-0.5c0-0.1,0-0.6,0-0.8c-0.3,0.6-0.8,1-1.7,1c-1.3,0-2.1-1.1-2.1-2.6
			c0-1.5,0.8-2.7,2.2-2.7c1,0,1.4,0.4,1.5,0.8v-3H148.3z M144.5,765.2c0,1.4,0.7,2.1,1.6,2.1c1.3,0,1.7-0.9,1.7-2.3
			c0-1.3-0.3-2-1.6-2C145.2,763,144.5,763.8,144.5,765.2z"/>
		<path d="M149.9,760.3h0.5v1h-0.5V760.3z M149.9,762.7h0.5v5h-0.5V762.7z"/>
		<path d="M152.6,766.9v2.7h-0.5v-5.8c0-0.4,0-0.8,0-1.2h0.5c0,0.2,0,0.5,0,0.9c0.3-0.6,0.9-1,1.8-1c1.2,0,2,1,2,2.5
			c0,1.8-1,2.7-2.2,2.7C153.3,767.8,152.8,767.4,152.6,766.9z M155.8,765.1c0-1.2-0.6-2-1.5-2c-1.2,0-1.7,0.8-1.7,2.1
			c0,1.3,0.4,2.2,1.6,2.2C155.2,767.3,155.8,766.5,155.8,765.1z"/>
		<path d="M157.6,760.3h0.5v1h-0.5V760.3z M157.6,762.7h0.5v5h-0.5V762.7z"/>
		<path d="M159.7,766.3c0.2,0.6,0.6,1,1.4,1c0.9,0,1.3-0.4,1.3-1c0-0.6-0.2-0.8-1.4-1.1c-1.3-0.3-1.6-0.7-1.6-1.4
			c0-0.7,0.5-1.3,1.6-1.3c1.1,0,1.7,0.7,1.7,1.4h-0.5c-0.1-0.4-0.4-0.9-1.3-0.9c-0.9,0-1.1,0.4-1.1,0.8c0,0.5,0.2,0.7,1.2,0.9
			c1.4,0.3,1.8,0.8,1.8,1.5c0,0.9-0.7,1.5-1.8,1.5c-1.1,0-1.8-0.6-1.9-1.5H159.7z"/>
		<path d="M167.8,766.2c-0.2,0.9-0.8,1.6-1.9,1.6c-1.2,0-2.1-0.9-2.1-2.6c0-1.4,0.7-2.6,2.2-2.6c1.3,0,1.8,0.9,1.9,1.6h-0.5
			c-0.2-0.6-0.5-1.1-1.4-1.1c-1.1,0-1.7,0.9-1.7,2.1c0,1.2,0.6,2.1,1.6,2.1c0.7,0,1.2-0.4,1.4-1.1H167.8z"/>
		<path d="M169,760.3h0.5v1H169V760.3z M169,762.7h0.5v5H169V762.7z"/>
		<path d="M171.1,763.9c0-0.4,0-0.9,0-1.3h0.5c0,0.2,0,0.8,0,0.9c0.2-0.5,0.6-1.1,1.7-1.1c0.9,0,1.7,0.5,1.7,1.9v3.2h-0.5v-3.2
			c0-0.9-0.4-1.5-1.2-1.5c-1.2,0-1.6,1-1.6,2.1v2.5h-0.5V763.9z"/>
		<path d="M180.4,767.3c0,1.6-0.7,2.4-2.2,2.4c-1.3,0-1.8-0.7-2-1.5h0.5c0.2,0.7,0.8,1,1.5,1c1.3,0,1.7-0.8,1.7-2.1v-0.5
			c-0.3,0.6-0.8,1-1.7,1c-1.2,0-2.1-0.9-2.1-2.5c0-1.7,1-2.6,2.1-2.6c1,0,1.5,0.5,1.6,0.9c0-0.3,0-0.6,0-0.8h0.5c0,0.2,0,1,0,1.4
			V767.3z M176.7,765.2c0,1.2,0.6,2,1.6,2c1.2,0,1.6-0.8,1.6-2.1c0-1.3-0.4-2-1.6-2C177.2,763,176.7,764,176.7,765.2z"/>
		<path d="M184.8,765.2c0,1.3,0.7,2.1,1.6,2.1c0.9,0,1.3-0.5,1.4-0.9h0.5c-0.2,0.7-0.7,1.4-2,1.4c-1.5,0-2.1-1.3-2.1-2.6
			c0-1.4,0.7-2.7,2.2-2.7c1.5,0,2,1.3,2,2.3c0,0.1,0,0.3,0,0.4H184.8z M187.9,764.8c0-1-0.5-1.8-1.5-1.8c-1,0-1.5,0.7-1.6,1.8H187.9
			z"/>
		<path d="M189.7,767.7v-7.4h0.5v7.4H189.7z"/>
		<path d="M191.8,760.3h0.5v1h-0.5V760.3z M191.8,762.7h0.5v5h-0.5V762.7z"/>
		<path d="M193.2,762.7h0.9v-1.6h0.5v1.6h1.2v0.5h-1.2v3.2c0,0.6,0.1,0.9,0.6,0.9c0.2,0,0.4,0,0.5-0.1v0.4c-0.2,0.1-0.4,0.1-0.6,0.1
			c-0.6,0-1-0.3-1-1.1v-3.5h-0.9V762.7z"/>
		<path d="M196,768.8c0.5-1,0.7-1.9,0.7-2.4h0.5c-0.1,0.8-0.4,1.8-0.7,2.4H196z"/>
		<path d="M139.3,778.3c0.2,0.6,0.6,1,1.4,1c0.9,0,1.3-0.4,1.3-1c0-0.6-0.2-0.8-1.4-1.1c-1.3-0.3-1.6-0.7-1.6-1.4
			c0-0.7,0.5-1.3,1.6-1.3c1.1,0,1.7,0.7,1.7,1.4h-0.5c-0.1-0.4-0.4-0.9-1.3-0.9c-0.9,0-1.1,0.4-1.1,0.8c0,0.5,0.2,0.7,1.2,0.9
			c1.4,0.3,1.8,0.8,1.8,1.5c0,0.9-0.7,1.5-1.8,1.5c-1.1,0-1.8-0.6-1.9-1.5H139.3z"/>
		<path d="M143.9,777.2c0,1.3,0.7,2.1,1.6,2.1c0.9,0,1.3-0.5,1.4-0.9h0.5c-0.2,0.7-0.7,1.4-2,1.4c-1.5,0-2.1-1.3-2.1-2.6
			c0-1.4,0.7-2.7,2.2-2.7c1.5,0,2,1.3,2,2.3c0,0.1,0,0.3,0,0.4H143.9z M147,776.8c0-1-0.5-1.8-1.5-1.8c-1,0-1.5,0.7-1.6,1.8H147z"/>
		<path d="M152.6,772.3v5.9c0,0.5,0,0.9,0,1.4h-0.5c0-0.1,0-0.6,0-0.8c-0.3,0.6-0.8,1-1.7,1c-1.3,0-2.1-1.1-2.1-2.6
			c0-1.5,0.8-2.7,2.2-2.7c1,0,1.4,0.4,1.5,0.8v-3H152.6z M148.9,777.2c0,1.4,0.7,2.1,1.6,2.1c1.3,0,1.7-0.9,1.7-2.3
			c0-1.3-0.3-2-1.6-2C149.6,775,148.9,775.8,148.9,777.2z"/>
		<path d="M160.7,772.3v5.9c0,0.5,0,0.9,0,1.4h-0.5c0-0.1,0-0.6,0-0.8c-0.3,0.6-0.8,1-1.7,1c-1.3,0-2.1-1.1-2.1-2.6
			c0-1.5,0.8-2.7,2.2-2.7c1,0,1.4,0.4,1.5,0.8v-3H160.7z M157,777.2c0,1.4,0.7,2.1,1.6,2.1c1.3,0,1.7-0.9,1.7-2.3c0-1.3-0.3-2-1.6-2
			C157.7,775,157,775.8,157,777.2z"/>
		<path d="M162.4,772.3h0.5v1h-0.5V772.3z M162.4,774.7h0.5v5h-0.5V774.7z"/>
		<path d="M168,778.7c0,0.4,0,0.8,0.1,0.9h-0.5c0-0.1-0.1-0.3-0.1-0.8c-0.2,0.4-0.6,0.9-1.6,0.9c-1.2,0-1.7-0.8-1.7-1.5
			c0-1.1,0.8-1.6,2.3-1.6c0.4,0,0.7,0,0.9,0v-0.5c0-0.5-0.2-1.2-1.3-1.2c-1,0-1.2,0.5-1.3,0.9h-0.5c0.1-0.5,0.4-1.4,1.8-1.4
			c1.1,0,1.8,0.5,1.8,1.6V778.7z M167.5,777.1c-0.2,0-0.6,0-1,0c-1.1,0-1.8,0.3-1.8,1.1c0,0.6,0.5,1.1,1.1,1.1c1.4,0,1.6-0.9,1.6-2
			V777.1z"/>
		<path d="M169.6,776c0-0.4,0-0.9,0-1.3h0.5c0,0.2,0,0.6,0,0.9c0.2-0.5,0.7-1,1.5-1c0.7,0,1.2,0.3,1.4,1c0.3-0.5,0.8-1,1.6-1
			c0.8,0,1.6,0.4,1.6,1.8v3.3h-0.5v-3.2c0-0.7-0.2-1.4-1.2-1.4c-1,0-1.4,0.8-1.4,1.8v2.9h-0.5v-3.2c0-0.7-0.2-1.4-1.1-1.4
			c-1,0-1.4,0.9-1.4,1.9v2.7h-0.5V776z"/>
		<path d="M139.3,787.9c0-0.4,0-0.9,0-1.3h0.5c0,0.2,0,0.8,0,0.9c0.2-0.5,0.6-1.1,1.7-1.1c0.9,0,1.7,0.5,1.7,1.9v3.2h-0.5v-3.2
			c0-0.9-0.4-1.5-1.2-1.5c-1.2,0-1.6,1-1.6,2.1v2.5h-0.5V787.9z"/>
		<path d="M148.9,789.2c0,1.4-0.8,2.6-2.3,2.6c-1.3,0-2.2-1.1-2.2-2.6c0-1.4,0.8-2.6,2.2-2.6C148,786.6,148.9,787.6,148.9,789.2z
			 M144.9,789.2c0,1.2,0.6,2.1,1.7,2.1c1.1,0,1.7-0.9,1.7-2.1c0-1.2-0.6-2.1-1.7-2.1C145.5,787,144.9,788,144.9,789.2z"/>
		<path d="M150.1,787.9c0-0.4,0-0.9,0-1.3h0.5c0,0.2,0,0.8,0,0.9c0.2-0.5,0.6-1.1,1.7-1.1c0.9,0,1.7,0.5,1.7,1.9v3.2h-0.5v-3.2
			c0-0.9-0.4-1.5-1.2-1.5c-1.2,0-1.6,1-1.6,2.1v2.5h-0.5V787.9z"/>
		<path d="M159.3,790.2c0,0.5,0,1.3,0,1.5h-0.5c0-0.1,0-0.5,0-0.9c-0.2,0.6-0.7,1-1.6,1c-0.7,0-1.6-0.3-1.6-1.8v-3.3h0.5v3.2
			c0,0.7,0.2,1.4,1.2,1.4c1.1,0,1.5-0.6,1.5-2.1v-2.6h0.5V790.2z"/>
		<path d="M161,788c0-0.4,0-0.9,0-1.3h0.5c0,0.2,0,0.6,0,0.9c0.2-0.5,0.7-1,1.5-1c0.7,0,1.2,0.3,1.4,1c0.3-0.5,0.8-1,1.6-1
			c0.8,0,1.6,0.4,1.6,1.8v3.3h-0.5v-3.2c0-0.7-0.2-1.4-1.2-1.4c-1,0-1.4,0.8-1.4,1.8v2.9H164v-3.2c0-0.7-0.2-1.4-1.1-1.4
			c-1,0-1.4,0.9-1.4,1.9v2.7H161V788z"/>
		<path d="M169.3,788c0-0.4,0-0.9,0-1.3h0.5c0,0.2,0,0.6,0,0.9c0.2-0.5,0.7-1,1.5-1c0.7,0,1.2,0.3,1.4,1c0.3-0.5,0.8-1,1.6-1
			c0.8,0,1.6,0.4,1.6,1.8v3.3h-0.5v-3.2c0-0.7-0.2-1.4-1.2-1.4c-1,0-1.4,0.8-1.4,1.8v2.9h-0.5v-3.2c0-0.7-0.2-1.4-1.1-1.4
			c-1,0-1.4,0.9-1.4,1.9v2.7h-0.5V788z"/>
		<path d="M177.4,786.7c1,2.9,1.4,4,1.6,4.6h0c0.2-0.6,0.6-1.8,1.6-4.6h0.5l-1.9,5.3c-0.5,1.5-0.9,1.8-1.8,1.8c-0.2,0-0.3,0-0.5,0
			v-0.5c0.1,0,0.3,0,0.4,0c0.7,0,0.9-0.3,1.3-1.4l-1.9-5.2H177.4z"/>
		<path d="M184.7,787.9c0-0.4,0-0.9,0-1.3h0.5c0,0.2,0,0.8,0,0.9c0.2-0.5,0.6-1.1,1.7-1.1c0.9,0,1.7,0.5,1.7,1.9v3.2H188v-3.2
			c0-0.9-0.4-1.5-1.2-1.5c-1.2,0-1.6,1-1.6,2.1v2.5h-0.5V787.9z"/>
		<path d="M190.2,784.3h0.5v1h-0.5V784.3z M190.2,786.7h0.5v5h-0.5V786.7z"/>
		<path d="M192.3,784.3h0.5v3.2c0.2-0.5,0.7-1,1.7-1c1.2,0,2,1,2,2.5c0,1.6-0.8,2.7-2.2,2.7c-0.8,0-1.3-0.3-1.6-0.9
			c0,0.3,0,0.7,0,0.8h-0.5c0-0.6,0-1.1,0-1.7V784.3z M196,789.1c0-1.2-0.6-2-1.6-2c-1.2,0-1.7,0.8-1.7,2.2c0,1.2,0.4,2.1,1.6,2.1
			C195.4,791.3,196,790.5,196,789.1z"/>
		<path d="M198.3,784.3v3.2c0.3-0.5,0.8-1,1.6-1c0.7,0,1.7,0.4,1.7,1.9v3.2h-0.5v-3.1c0-1-0.4-1.5-1.3-1.5c-1,0-1.6,0.6-1.6,1.8v2.8
			h-0.5v-7.4H198.3z"/>
		<path d="M139.4,801.2c0,1.3,0.7,2.1,1.6,2.1c0.9,0,1.3-0.5,1.4-0.9h0.5c-0.2,0.7-0.7,1.4-2,1.4c-1.5,0-2.1-1.3-2.1-2.6
			c0-1.4,0.7-2.7,2.2-2.7c1.5,0,2,1.3,2,2.3c0,0.1,0,0.3,0,0.4H139.4z M142.6,800.8c0-1-0.5-1.8-1.5-1.8c-1,0-1.5,0.7-1.6,1.8H142.6
			z"/>
		<path d="M148.1,802.2c0,0.5,0,1.3,0,1.5h-0.5c0-0.1,0-0.5,0-0.9c-0.2,0.6-0.7,1-1.6,1c-0.7,0-1.6-0.3-1.6-1.8v-3.3h0.5v3.2
			c0,0.7,0.2,1.4,1.2,1.4c1.1,0,1.5-0.6,1.5-2.1v-2.6h0.5V802.2z"/>
		<path d="M149.7,796.3h0.5v1h-0.5V796.3z M149.7,798.7h0.5v5h-0.5V798.7z"/>
		<path d="M151.9,802.3c0.2,0.6,0.6,1,1.4,1c0.9,0,1.3-0.4,1.3-1c0-0.6-0.2-0.8-1.4-1.1c-1.3-0.3-1.6-0.7-1.6-1.4
			c0-0.7,0.5-1.3,1.6-1.3c1.1,0,1.7,0.7,1.7,1.4h-0.5c-0.1-0.4-0.4-0.9-1.3-0.9c-0.9,0-1.1,0.4-1.1,0.8c0,0.5,0.2,0.7,1.2,0.9
			c1.4,0.3,1.8,0.8,1.8,1.5c0,0.9-0.7,1.5-1.8,1.5c-1.1,0-1.8-0.6-1.9-1.5H151.9z"/>
		<path d="M156.3,800c0-0.4,0-0.9,0-1.3h0.5c0,0.2,0,0.6,0,0.9c0.2-0.5,0.7-1,1.5-1c0.7,0,1.2,0.3,1.4,1c0.3-0.5,0.8-1,1.6-1
			c0.8,0,1.6,0.4,1.6,1.8v3.3h-0.5v-3.2c0-0.7-0.2-1.4-1.2-1.4c-1,0-1.4,0.8-1.4,1.8v2.9h-0.5v-3.2c0-0.7-0.2-1.4-1.1-1.4
			c-1,0-1.4,0.9-1.4,1.9v2.7h-0.5V800z"/>
		<path d="M168.6,801.2c0,1.4-0.8,2.6-2.3,2.6c-1.3,0-2.2-1.1-2.2-2.6c0-1.4,0.8-2.6,2.2-2.6C167.8,798.6,168.6,799.6,168.6,801.2z
			 M164.7,801.2c0,1.2,0.6,2.1,1.7,2.1c1.1,0,1.7-0.9,1.7-2.1c0-1.2-0.6-2.1-1.7-2.1C165.3,799,164.7,800,164.7,801.2z"/>
		<path d="M173.7,796.3v5.9c0,0.5,0,0.9,0,1.4h-0.5c0-0.1,0-0.6,0-0.8c-0.3,0.6-0.8,1-1.7,1c-1.3,0-2.1-1.1-2.1-2.6
			c0-1.5,0.8-2.7,2.2-2.7c1,0,1.4,0.4,1.5,0.8v-3H173.7z M170,801.2c0,1.4,0.7,2.1,1.6,2.1c1.3,0,1.7-0.9,1.7-2.3c0-1.3-0.3-2-1.6-2
			C170.7,799,170,799.8,170,801.2z"/>
	</g>
</g>
<path class="st20" d="M105.6,659.3c-0.9,0-1.5-0.8-1.8-1.6c-0.5-1.2-0.8-2.5-0.6-3.8c0-0.3,0.1-0.6-0.1-0.8
	c-0.3-0.4-0.8-0.2-1.3-0.3c-0.9-0.1-1.3-1-2-1.6c-0.9-0.8-2.3-0.9-3.5-1c-1.4-0.1-2.7,0.3-4.1,0.2c-1,1.2-2.8,1.3-4.3,1.4
	c-0.3,0-0.6,0-0.8,0.2c-0.3,0.2-0.4,0.5-0.6,0.8c-0.5,1.1-1.1,2.2-1,3.4c0,0.5,0.1,0.9,0.3,1.3c0.2,0.7,0.4,1.4,0.5,2
	c0.2,0.9,0.5,1.7,0.9,2.5c0.5,0.8,1.1,1.4,1.9,1.8c0.6,0.3,1.2,0.5,1.8,0.6c1,0.3,2,0.5,3,0.8c0.5,0.1,1,0.3,1.5,0.3
	c0.7,0,1.5-0.2,2.2-0.3c1.3-0.2,2.6-0.1,3.9-0.3c1.3-0.2,2.6-0.6,3.4-1.7c0.8-1.1,0.8-2.5,0.8-3.8"/>
<path class="st20" d="M104.3,659.1c-0.6,0.5-1.2,0.9-1.8,1.4c-0.1,0.1-0.3,0.2-0.4,0.4c-0.1,0.2-0.2,0.5-0.2,0.7
	c-0.2,1.2-0.4,2.1-0.6,3.3"/>
<path class="st20" d="M101.5,662.4c-0.6-0.1-1.2-0.1-1.9-0.2c-0.1,0-0.2,0-0.3-0.1c-0.1-0.1-0.2-0.2-0.3-0.4
	c-0.1-0.2-0.3-0.4-0.5-0.5c-0.2-0.1-0.4-0.2-0.5-0.3c-0.1-0.2-0.1-0.3-0.1-0.5c0.1-1,0.4-2.1,0.8-3.1c0.1-0.1,0.1-0.3,0.1-0.5
	c0-0.3-0.2-0.6-0.4-0.9c-0.2-0.3-0.4-0.7-0.6-1c0-0.1-0.1-0.2-0.1-0.3c0-0.1,0.1-0.2,0.2-0.3c0.7-0.9,1.5-1.7,2.2-2.6"/>
<path class="st20" d="M99.4,656.3c0.4-0.5,0.8-1,1.2-1.4c0.2-0.2,0.4-0.4,0.6-0.5c0.2-0.1,0.3-0.1,0.5-0.1c0.4,0,0.7,0,1.1,0"/>
<path class="st20" d="M91.4,651.2c-0.8,1.7-1,3.6-0.8,5.4c1-0.5,2.1-0.8,3.1-0.9c0.1,0,0.2,0,0.2,0c0.1,0,0.2,0.1,0.2,0.2
	c0.3,0.5,0.6,0.9,0.8,1.4c0.1,0.1,0.1,0.2,0.2,0.3c0.2,0.1,0.4,0.1,0.6,0.1c0.5-0.1,0.9-0.5,1.2-1c0.3-0.5,0.4-1,0.5-1.5"/>
<path class="st20" d="M95.9,658c0.2,0.5,0.4,0.9,0.6,1.4c0.1,0.3,0.3,0.7,0.3,1c0,0.3-0.1,0.7-0.3,1c-0.5,1.3-1.1,2.6-1.7,4"/>
<path class="st20" d="M90.4,657.1c-0.2,0.5-0.4,1-0.6,1.6c-0.1,0.2-0.2,0.5-0.2,0.7c0,0.3,0.1,0.7,0.2,1c0.3,1.1,0.4,2.3,0.2,3.4"/>
<path class="st20" d="M86.8,653.1c0.1,1.1,0.4,2.2,0.7,3.3c0.1,0.2,0.1,0.4,0.3,0.5c0.2,0.1,0.3,0,0.5,0c0.7-0.2,1.4-0.3,2.1-0.3"/>
<g>
	<path class="st20" d="M101.4,650.6c0.5-2.1,1-4.2,1.5-6.2c0-0.2,0.1-0.4,0.2-0.6c0.2-0.3,0.5-0.4,0.7-0.5c0.9-0.3,2-0.4,2.8-1
		c0.3-0.2,0.6-0.6,0.9-0.8c0.8-0.7,2-0.8,3-0.9c1.3-0.1,2.7-0.3,4-0.1c2,0.2,3.9,1.1,5.9,1.2c0.4,0,0.7,0,1,0.1
		c0.3,0.1,0.5,0.3,0.7,0.5c1,0.9,1.8,1.9,2.5,2.9c0.2,0.2,0.3,0.5,0.6,0.6c0.2,0,0.4,0,0.5-0.1c0.4-0.2,0.8-0.3,1.2-0.5
		c0.2-0.1,0.3-0.1,0.5-0.1c0.2,0,0.3,0.2,0.4,0.3c1.1,1.3,2.2,2.8,2.3,4.4c0.1,0.8-0.1,1.5-0.3,2.3c-0.3,1.6-0.8,3.2-1.2,4.8
		c-0.1,0.2-0.1,0.4-0.2,0.6c-0.2,0.3-0.5,0.4-0.7,0.6c-1.6,0.9-2.9,2.2-3.9,3.7c-0.2,0.3-0.3,0.5-0.6,0.6c-0.2,0.1-0.5,0-0.7-0.1
		c-1.7-0.6-3.4-1.4-5.2-1.2c-1.1,0.1-2.2,0.7-3,1.5c-0.2,0.2-0.3,0.3-0.5,0.4c-0.2,0.1-0.4,0-0.6,0c-2.1-0.5-4.2-0.9-6.4-1.4
		c-0.5-0.1-1-0.2-1.4-0.5c-0.4-0.3-0.7-0.7-1-1.1c-1.6-2.8-1.5-6.3-3.1-9"/>
	<path class="st20" d="M108.1,641.9c0.6,0.5,0.9,1.4,1.4,2c0.3,0.4,0.7,0.7,1.1,1.1c0.6,0.4,1.1,0.9,1.7,1.3
		c0.3,0.2,0.5,0.4,0.7,0.7c0.1,0.2,0.1,0.5,0.1,0.8c0,0.8-0.1,1.7-0.3,2.5c0.4,0.5,1.2,0.6,1.8,0.3c0.6-0.2,1.1-0.7,1.8-1
		c0.7-0.3,1.4-0.3,2.1-0.1c0.7,0.2,1.4,0.6,2,0.2c0.2-0.1,0.3-0.3,0.5-0.5c0.7-1,1-2.3,1-3.6s-0.1-2.5-0.3-3.7"/>
	<path class="st20" d="M121,649.8c0.1,1.3,0.5,2.5,1.1,3.6c0.4-0.7,0.5-1.6,0.7-2.4c0.2-0.8,0.6-1.7,1.4-2c0.1,0,0.2-0.1,0.2-0.1
		c0-0.1,0.1-0.1,0.1-0.2c0.2-0.9,0.4-1.9,0.7-2.8"/>
	<path class="st20" d="M123.3,652c0.5-0.1,1-0.2,1.4-0.3c0.2,0,0.4-0.1,0.6-0.2c0.2-0.1,0.3-0.3,0.4-0.5c0.4-0.5,0.8-1.1,1.2-1.6
		c0.6-0.8,1.2-1.6,2-2.3"/>
	<path class="st20" d="M122.2,654.1c-0.1,1.3-0.3,2.6-0.4,4c0,0.4-0.1,0.8,0,1.1c0,0.6,0.2,1.2,0.4,1.7c0.2,0.5,0.3,1,0.5,1.5"/>
	<path class="st20" d="M112.7,650.4c-0.3,1.6-0.7,3.3-1,4.9c-0.1,0.3-0.1,0.6-0.1,0.9c0,0.3,0.1,0.7,0.3,1c0.5,1.3,1,2.6,1.5,3.8
		c0.3,0.7,0.5,1.3,0.6,2"/>
	<path class="st20" d="M111.7,646.3c-1,0.5-1.6,1.6-1.6,2.7c-1-1.3-1.9-2.5-2.9-3.8c-0.2-0.2-0.4-0.5-0.6-0.6
		c-0.3-0.2-0.6-0.2-0.9-0.2c-0.6-0.1-1.2-0.1-1.8-0.2"/>
	<path class="st20" d="M102.8,646.1c0.2,0.8,0.9,1.4,1.5,2c0.4,0.4,0.7,0.8,1,1.2c1.5,1.8,2.9,3.7,4.4,5.5c0.4-1.4,0.3-2.8-0.3-4.1
		c-0.1-0.2-0.2-0.5-0.3-0.7c-0.1-0.5,0.2-1.1,0.7-1.3"/>
	<path class="st20" d="M109.5,655.2c0,0.6,0,1.1,0.1,1.7c0,0.2,0.1,0.4,0.2,0.5c0.1,0.2,0.3,0.3,0.5,0.4c1.7,1.2,3,3,3.6,5.1"/>
	<path class="st20" d="M105.2,649.9c-0.2,1,0.4,1.9,0.4,2.9c0,0.4-0.1,0.9-0.2,1.3c-0.1,0.7-0.1,1.4-0.1,2.1c0,1.8,0.1,3.7,0.3,5.5"
		/>
	<path class="st20" d="M105.4,657.3c0.6-0.1,1.2-0.2,1.8-0.4c0.4-0.1,0.8-0.2,1.2-0.4c0.4-0.1,0.7-0.2,1-0.4"/>
</g>
<g>
	<path class="st20" d="M105,666.9c0.1-0.6,0.3-1.3,0.4-1.9c0-0.1,0-0.1,0.1-0.2c0.1-0.1,0.1-0.1,0.2-0.2c0.3-0.1,0.6-0.1,0.8-0.3
		c0.1-0.1,0.2-0.2,0.3-0.2c0.3-0.2,0.6-0.2,0.9-0.3c0.4,0,0.8-0.1,1.2,0c0.6,0.1,1.2,0.3,1.8,0.4c0.1,0,0.2,0,0.3,0
		c0.1,0,0.2,0.1,0.2,0.2c0.3,0.3,0.5,0.6,0.8,0.9c0,0.1,0.1,0.2,0.2,0.2c0.1,0,0.1,0,0.2,0c0.1,0,0.2-0.1,0.4-0.1c0,0,0.1,0,0.2,0
		c0,0,0.1,0.1,0.1,0.1c0.3,0.4,0.7,0.8,0.7,1.3c0,0.2,0,0.5-0.1,0.7c-0.1,0.5-0.2,1-0.4,1.4c0,0.1,0,0.1-0.1,0.2
		c-0.1,0.1-0.1,0.1-0.2,0.2c-0.5,0.3-0.9,0.7-1.2,1.1c0,0.1-0.1,0.2-0.2,0.2c-0.1,0-0.2,0-0.2,0c-0.5-0.2-1-0.4-1.6-0.4
		c-0.3,0-0.7,0.2-0.9,0.4c0,0-0.1,0.1-0.2,0.1c-0.1,0-0.1,0-0.2,0c-0.6-0.1-1.3-0.3-1.9-0.4c-0.1,0-0.3-0.1-0.4-0.1
		c-0.1-0.1-0.2-0.2-0.3-0.3c-0.5-0.8-0.5-1.9-1-2.7"/>
	<path class="st20" d="M107.1,664.2c0.2,0.2,0.3,0.4,0.4,0.6c0.1,0.1,0.2,0.2,0.3,0.3c0.2,0.1,0.3,0.3,0.5,0.4
		c0.1,0.1,0.2,0.1,0.2,0.2c0,0.1,0,0.2,0,0.2c0,0.3,0,0.5-0.1,0.8c0.1,0.2,0.4,0.2,0.6,0.1s0.3-0.2,0.5-0.3c0.2-0.1,0.4-0.1,0.6,0
		c0.2,0.1,0.4,0.2,0.6,0.1c0.1,0,0.1-0.1,0.1-0.2c0.2-0.3,0.3-0.7,0.3-1.1c0-0.4,0-0.8-0.1-1.1"/>
	<path class="st20" d="M111,666.6c0,0.4,0.2,0.8,0.3,1.1c0.1-0.2,0.2-0.5,0.2-0.7c0.1-0.3,0.2-0.5,0.4-0.6c0,0,0.1,0,0.1,0
		c0,0,0,0,0-0.1c0.1-0.3,0.1-0.6,0.2-0.9"/>
	<path class="st20" d="M111.7,667.3c0.1,0,0.3,0,0.4-0.1c0.1,0,0.1,0,0.2-0.1c0.1,0,0.1-0.1,0.1-0.1c0.1-0.2,0.2-0.3,0.4-0.5
		c0.2-0.2,0.4-0.5,0.6-0.7"/>
	<path class="st20" d="M111.3,667.9c0,0.4-0.1,0.8-0.1,1.2c0,0.1,0,0.2,0,0.3c0,0.2,0.1,0.4,0.1,0.5c0,0.1,0.1,0.3,0.1,0.4"/>
	<path class="st20" d="M108.5,666.8c-0.1,0.5-0.2,1-0.3,1.5c0,0.1,0,0.2,0,0.3c0,0.1,0,0.2,0.1,0.3c0.1,0.4,0.3,0.8,0.4,1.2
		c0.1,0.2,0.2,0.4,0.2,0.6"/>
	<path class="st20" d="M108.2,665.6c-0.3,0.2-0.5,0.5-0.5,0.8c-0.3-0.4-0.6-0.8-0.9-1.1c-0.1-0.1-0.1-0.1-0.2-0.2
		c-0.1,0-0.2-0.1-0.3-0.1c-0.2,0-0.4,0-0.5-0.1"/>
	<path class="st20" d="M105.5,665.5c0.1,0.2,0.3,0.4,0.4,0.6c0.1,0.1,0.2,0.2,0.3,0.4c0.4,0.6,0.9,1.1,1.3,1.7
		c0.1-0.4,0.1-0.9-0.1-1.2c0-0.1-0.1-0.1-0.1-0.2c0-0.2,0.1-0.3,0.2-0.4"/>
	<path class="st20" d="M107.5,668.3c0,0.2,0,0.3,0,0.5c0,0.1,0,0.1,0,0.2c0,0.1,0.1,0.1,0.1,0.1c0.5,0.4,0.9,0.9,1.1,1.5"/>
	<path class="st20" d="M106.2,666.7c0,0.3,0.1,0.6,0.1,0.9c0,0.1,0,0.3-0.1,0.4c0,0.2,0,0.4,0,0.6c0,0.6,0,1.1,0.1,1.7"/>
	<path class="st20" d="M106.2,668.9c0.2,0,0.4-0.1,0.5-0.1c0.1,0,0.2-0.1,0.4-0.1c0.1,0,0.2-0.1,0.3-0.1"/>
</g>
<g>
	<path class="st21" d="M84,717.7c-0.9-4,1.1-8.2,4-11c0.4-0.4,0.8-0.8,1.3-1c0.5-0.2,1-0.3,1.5-0.3c2.6-0.1,5.1,1,7.4,2.2
		c1.2,0.6,2.3,1.3,3.2,2.3c1.2,1.5,1.6,3.5,1.9,5.4c0.2,1.1,0.4,2.3,0.5,3.4c0,0.1,0,0.3,0,0.4c-0.1,0.1-0.2,0.2-0.4,0.2
		c-1.2,0.3-2.4,0.1-3.7,0s-2.6,0-3.5,0.9c-0.4,0.3-0.6,0.8-1.1,1c-0.7,0.4-1.5,0.1-2.2-0.1c-3-1-6-2-9-2.9"/>
	<path class="st21" d="M84.3,717.5c1.1-0.9,2.9-2.4,4-3.3c0.6-0.5,1.3-0.9,2-0.8c0.6,0.1,1.1,0.6,1.5,0.9c0.8,0.6,1.8,1,2.8,1.1
		c0.3,0,0.6,0.1,0.8,0.2c0.2,0.2,0.3,0.5,0.4,0.7c0.4,1.3-0.2,2.6,0,4.3"/>
	<path class="st21" d="M85.3,710.4c1.1-0.7,2.8-0.9,3.7-1.8c0.1-0.1,0.3-0.4,0.4-0.5c0.1-0.1,0-0.5,0-0.6c0-0.5-0.1-0.9-0.1-1.3"/>
	<path class="st21" d="M88.8,708.9c0.3,1.6,0.5,2.8,0.9,4.4"/>
	<path class="st21" d="M89.4,707.9c0.6,0.6,1.5,0.6,2.3,0.9c0.6,0.3,1.2,0.8,1.9,0.9c0.8,0.2,1.6-0.1,2.4-0.3c1.5-0.4,2.4-0.6,4-0.5
		"/>
	<path class="st21" d="M95.8,715.8c0.6-0.5,1.2-1.1,1.8-1.6c0.2-0.2,0.5-0.4,0.8-0.5c0.3-0.1,0.6-0.1,0.9-0.1c0.5,0,1.1,0.1,1.6,0.2
		c0.1,0,0.2,0,0.3,0c0.1,0,0.1-0.1,0.2-0.2c0.4-0.6,0.5-0.7,1-1.3"/>
</g>
<g>
	<path class="st21" d="M117.9,696.6c1.7,1,3.5,2,5.2,3c0.7,0.4,1.4,0.8,1.6,1.6c0.1,0.4,0.1,0.9,0,1.4c-0.5,3.8-1,7.6-1.5,11.4
		c0,0.3-0.1,0.6-0.3,0.8c-0.4,0.4-1.2,0.1-1.6,0.5c-0.3,0.3-0.4,0.8-0.6,1.1c-0.5,0.6-1.4,0.5-2.1,0.4c-2.6-0.4-5.3-0.1-7.7,0.8
		c-0.4,0.1-0.7,0.3-1.1,0.2c-0.3,0-0.6-0.2-0.9-0.3c-1.3-0.6-2.7-1.3-4-1.9c-0.2-0.1-0.4-0.2-0.5-0.4c-0.1-0.2,0-0.4,0-0.6
		c0.5-1.8,1.2-3.9,0-5.3c-0.5-0.5-1.1-0.9-1.5-1.5c-0.3-0.6-0.3-1.2-0.2-1.9c0.1-1.1,0.3-2.2,0.5-3.2c0-0.2,0.1-0.5,0.3-0.6
		c0.2-0.2,0.6-0.2,0.9-0.2c0.7-0.1,1.3-0.5,1.9-0.9C109.9,698.5,113.6,697,117.9,696.6"/>
	<path class="st21" d="M117.5,696.8c0.7,2.3,1.4,4.6,1.8,6.9c0,0.1,0.1,0.3,0.1,0.4c0.1,0.1,0.3,0.1,0.4,0.1c0.5,0,1-0.1,1.6-0.2
		c0.1,1.4,0.5,2.7,1,4c0.6,1.5,1,2.9,1,4.5"/>
	<path class="st21" d="M117.8,699.4c-1.7,0-3.8,0.6-5.2,1.7c-0.2,0.2-0.5,0.4-0.8,0.5c-0.2,0.1-0.5,0.1-0.7,0c-2.5-0.1-5,0-7.5,0.4"
		/>
	<path class="st21" d="M113.2,701c0.9,1.1,1.7,1.8,2.9,2.6c-0.7,0.4-1.5,0.7-2.2,1.1c-0.3,0.1-0.5,0.3-0.6,0.5
		c-0.1,0.2-0.1,0.5,0,0.8c0.2,1,0.5,2,0.8,3c0.1,0.2,0.1,0.4,0.3,0.6c0.1,0.2,0.4,0.2,0.6,0.3c1.6,0.5,3.2,0.9,4.9,1.3
		c0.2,0,0.3,0.1,0.4,0.2c0.1,0.1,0.1,0.2,0.1,0.4c0.2,1.3,0.3,2.7,0.5,4"/>
	<path class="st21" d="M113.4,706.9c-1.5-0.1-3.1-0.2-4.6-0.3c-0.5,0-1,0-1.3,0.3c-0.3,0.2-0.3,0.6-0.4,0.9c-0.4,1.8-0.7,2.8-2,4.3"
		/>
	<path class="st21" d="M107.1,709.4c0.5-0.1,1.1,0.3,1.2,0.8c0,0.3,0,0.6,0.2,0.8c0.1,0.1,0.2,0.1,0.3,0.2c0.5,0.2,1.1,0.3,1.7,0.4
		c0.2,0,0.3,0,0.5,0.1c0.2,0.2,0.3,0.5,0.4,0.7c0.5,2.1,2.5,2.8,4.3,4"/>
</g>
<g>
	<path class="st21" d="M105.9,727.5c-0.6-0.6-1.2-1.2-1.8-1.8c-0.2-0.2-0.5-0.5-0.5-0.8c0-0.2,0.1-0.4,0.1-0.6
		c0.6-1.5,1.2-3,1.8-4.6c0-0.1,0.1-0.3,0.2-0.3c0.2-0.1,0.5,0.1,0.7,0c0.2-0.1,0.2-0.3,0.4-0.4c0.2-0.2,0.6-0.1,0.9,0.1
		c1,0.4,2.2,0.6,3.3,0.5c0.2,0,0.3,0,0.5,0c0.1,0,0.2,0.1,0.3,0.2c0.5,0.4,1,0.8,1.5,1.2c0.1,0.1,0.1,0.1,0.2,0.2
		c0,0.1,0,0.2-0.1,0.2c-0.4,0.7-0.9,1.5-0.5,2.2c0.1,0.3,0.4,0.5,0.5,0.8c0.1,0.3,0,0.5-0.1,0.8c-0.2,0.4-0.3,0.9-0.5,1.3
		c0,0.1-0.1,0.2-0.2,0.2c-0.1,0.1-0.3,0-0.4,0c-0.3,0-0.6,0.1-0.9,0.2C109.5,727.5,107.8,727.8,105.9,727.5"/>
	<path class="st21" d="M106.1,727.5c0-1-0.1-2,0-3c0-0.1,0-0.1,0-0.2c0-0.1-0.1-0.1-0.2-0.1c-0.2-0.1-0.4-0.1-0.7-0.1
		c0.1-0.6,0.1-1.2,0-1.7c-0.1-0.7-0.1-1.3,0-1.9"/>
	<path class="st21" d="M106.3,726.3c0.7,0.2,1.6,0.1,2.3-0.1c0.1-0.1,0.2-0.1,0.4-0.1c0.1,0,0.2,0,0.3,0.1c1,0.3,2.1,0.5,3.1,0.6"/>
	<path class="st21" d="M108.3,726.1c-0.3-0.6-0.5-0.9-0.9-1.4c0.3-0.1,0.7-0.2,1-0.2c0.1,0,0.2-0.1,0.3-0.2c0.1-0.1,0.1-0.2,0.1-0.3
		c0-0.4,0-0.9,0-1.3c0-0.1,0-0.2-0.1-0.3c0-0.1-0.1-0.1-0.2-0.2c-0.6-0.4-1.2-0.7-1.9-1c-0.1,0-0.1-0.1-0.2-0.1c0,0,0-0.1,0-0.2
		c0.1-0.6,0.2-1.1,0.2-1.7"/>
	<path class="st21" d="M108.9,723.7c0.6,0.2,1.3,0.4,1.9,0.6c0.2,0.1,0.4,0.1,0.6,0c0.1-0.1,0.2-0.2,0.3-0.3
		c0.4-0.7,0.6-1.1,1.2-1.6"/>
	<path class="st21" d="M111.7,723.3c-0.2,0-0.4-0.2-0.4-0.5c0-0.1,0.1-0.2,0-0.3c0,0-0.1-0.1-0.1-0.1c-0.2-0.1-0.4-0.2-0.6-0.3
		c-0.1,0-0.1-0.1-0.2-0.1c-0.1-0.1-0.1-0.2-0.1-0.3c0-0.9-0.8-1.4-1.4-2.1"/>
</g>
<g>
	<path class="st22" d="M76.9,404c-0.7,0.2-1.5-0.2-2.2-0.6c-1.4-0.8-2.8-1.6-3.7-2.9c-1.2-1.6-1.5-3.7-1.6-5.7c0-0.9,0-1.9-0.2-2.8
		c-0.2-0.9-0.7-1.8-1.4-2.2c1.7,0.6,3,2.3,3.1,4.3c0.6-0.9,0.6-2.2,0.2-3.3c-0.3-1.1-0.9-2.1-1.3-3.1c-0.4-1.2-0.4-2.5-0.2-3.8
		c0.2-1.1,0.8-2.1,1.6-2.6c-0.9,2.4-0.3,5.4,1.5,7.1c0.7,0.7,1.5,1.2,1.8,2.1c0.3-1.1,0-2.4-0.3-3.5c-0.4-1.1-0.8-2.2-1.1-3.3
		c-0.3-1.5-0.2-3.2,0.4-4.6s1.9-2.5,3.2-2.7c-0.7-0.1-1.3,0.5-1.6,1.2c-0.5,1.2-0.2,2.6,0.4,3.7c0.6,1.1,1.5,1.9,2.4,2.7
		s1.8,1.6,2.5,2.6c1.1,1.7,1.4,3.8,1.2,5.9c0.7-3.2-0.1-6.8-2.1-9.3c2.1,0.5,3.8,2.3,4.7,4.5c0.8,2.2,0.9,4.7,0.5,7
		c0.9-1.1,1.5-2.6,1.7-4.1c0,2,0,4.1-0.5,6.1c-0.5,2-1.4,3.9-3,5c-1.9,1.4-4.3,1.4-6.5,2.1"/>
</g>
<g>
	<path class="st22" d="M81.5,381.2c0-0.2-0.2-0.5-0.3-0.7c-0.2-0.5-0.2-1,0-1.5c0.2-0.5,0.4-0.9,0.7-1.3c0,0.4,0,0.7,0.1,1.1
		c0.1,0.2,0.1,0.3,0.2,0.5c0.3,0.8,0.1,1.8-0.5,2.4"/>
</g>
<g>
	<path class="st22" d="M79.4,377.6c0.5-0.6,1.1-1.3,1.4-2c0.5-1.5-0.4-3.1-1.5-4.4c0.1,0.6,0,1.2-0.3,1.8c-0.1,0.2-0.2,0.4-0.3,0.7
		c-0.1,0.2-0.1,0.5-0.2,0.7c-0.1,0.5-0.2,1,0,1.4C78.8,376.5,79.4,377,79.4,377.6"/>
</g>
<path class="st23" d="M77.9,450c1.6,1.1,2.5,1,3.3,2.8c0.1,0.3,0.3,1.5,0.3,1.8c0,0.3-0.2,1.5-0.3,1.8c-1.2,2.4-2.8,2.7-5.5,2.7
	c-1.8,0-4-1.5-4.6-3.5c-0.3-1.1-0.2-2.4,0.4-3.4s1.6-1.8,2.8-2l0,0c0.2-5.6,0-12.7,0.1-18.3c0-1.3,0-2.8,0.2-4.1
	c0.2-1,0.5-2.6,2.4-2.6c1.6,0,1.5,1.4,1.5,2c0.1,0.6,0,1.3,0,2c-0.2,6.9-0.2,14.2-0.6,21"/>
<path d="M75.5,451.7c0.1-2.9,0.4-18.7,0.4-22.1c0-0.5,0.3-0.4,0.4-0.4c0,0,0.4-0.1,0.4,0.4c0,3.4,0.2,18.5,0,22.1"/>
<path d="M75.5,451.7c-0.6,0.1-1.7,0.5-2,1.2c-0.3,0.6-0.4,1.4-0.2,2c0.3,1.2,1.4,2.1,2.3,2.1c1.4,0,2.1-0.2,2.8-1.6
	c0.1-0.2,0.2-0.9,0.2-1.1c0-0.2-0.1-0.9-0.2-1.1c-0.4-1.1-0.9-0.9-1.7-1.5"/>
<line class="st23" x1="76.6" y1="446.3" x2="78" y2="446.3"/>
<line class="st23" x1="76.7" y1="443.4" x2="78" y2="443.4"/>
<line class="st23" x1="76.7" y1="440.7" x2="78" y2="440.7"/>
<line class="st23" x1="76.7" y1="437.9" x2="78" y2="437.9"/>
<line class="st23" x1="76.7" y1="435.2" x2="78" y2="435.2"/>
<line class="st23" x1="76.7" y1="432.3" x2="78" y2="432.3"/>
<g>
	<path class="st24" d="M705,251.8c3.5-7.7,7.4-15.2,11.9-22.3c0.4-0.7,1.2-1.4,1.9-1.1c0.7,0.4,0.5,1.4,0.1,2.2
		c-2.2,4.9-4.5,9.7-6.7,14.6c-1.1,2.3-2.1,4.6-3.5,6.7c-0.5,0.7-1,1.4-1.9,1.7s-1.9-0.3-1.9-1.1"/>
	<path class="st1" d="M705,251.8c1.9-4.5,4-8.9,6.4-13.2c1.1-2.2,2.4-4.3,3.6-6.4c0.6-1.1,1.2-2.1,1.9-3.1c0.2-0.3,0.4-0.5,0.7-0.7
		c0.3-0.2,0.7-0.3,1.1-0.2c0.4,0.1,0.7,0.5,0.7,0.8c0.1,0.4,0,0.7-0.1,1c-0.2,0.6-0.5,1.2-0.7,1.7l-0.8,1.7l-1.5,3.3l-3.1,6.7
		c-1.1,2.2-2,4.4-3.3,6.6c-0.3,0.5-0.6,1.1-1,1.6c-0.3,0.5-0.7,1-1.2,1.4c-0.5,0.4-1.1,0.7-1.7,0.6c-0.6-0.1-1.2-0.6-1.2-1.2
		c0,0.6,0.6,1.1,1.2,1.1c0.6,0.1,1.2-0.2,1.6-0.6c0.4-0.4,0.8-0.9,1.1-1.5c0.3-0.5,0.6-1,0.9-1.6c1.2-2.1,2.1-4.4,3.1-6.6l3-6.7
		l1.5-3.3l0.8-1.7c0.2-0.6,0.6-1.1,0.7-1.6c0.2-0.5,0.1-1.1-0.3-1.3c-0.4-0.1-0.9,0.3-1.3,0.7c-0.7,1-1.3,2.1-1.9,3.1
		c-1.3,2.1-2.5,4.2-3.7,6.3C709.3,243,707.1,247.4,705,251.8z"/>
</g>
<path class="st25" d="M707.6,245.3c0.6,1.4,2.3,2.2,3.8,1.7"/>
<g>
	<path class="st24" d="M704.9,254.4c-0.5-0.6-1.5-0.6-2.2-0.1c-0.6,0.5-1,1.3-1.2,2c-0.2,0.8-0.4,1.6-0.8,2.3s-1.1,1.3-1.9,1.3
		c0.1,0.2,0.3,0.2,0.5,0.3c0.9,0.3,1.8,0.5,2.7,0.4c1.1-0.2,2-0.9,2.8-1.7c0.5-0.6,1-1.4,1.1-2.2c0.1-0.8-0.1-1.7-0.8-2.2"/>
</g>
<path class="st25" d="M700.5,257.1c0.5-0.1,1-0.1,1.6-0.2c0.3,0,0.6-0.1,0.8,0.1c0.5,0.4-0.4,1.2,0.2,1.5c0.1,0.1,0.3,0.1,0.4,0.1
	c0.6,0,1.2,0,1.8,0"/>
<g>
	<path class="st16" d="M681.5,561.8c1.9-1.6,3.4-4.6,4.3-6.9c0.3-0.6,0.5-1.3,0.5-1.9c0.1-1.2-0.4-2.4-0.7-3.6
		c-0.5-2.4-0.1-4.9-0.7-7.3c0-0.2-0.1-0.4-0.3-0.5c-0.2-0.1-0.3-0.1-0.5,0c-1.2,0.4-1.9,1.7-2.3,2.9c-0.7,2.6-0.6,5.5,0.5,8"/>
</g>
<g>
	<path class="st16" d="M682.2,543.2c-1.4-2.3-3-4.5-4.9-6.4c-0.4-0.4-0.8-0.8-1.3-1c-0.1,0-0.2-0.1-0.3,0c-0.1,0-0.2,0.1-0.2,0.2
		c-0.5,0.6-0.6,1.4-0.4,2.2s0.5,1.4,0.9,2.1c0.8,1.5,1.4,2.9,2.5,4.4"/>
</g>
<g>
	<path class="st16" d="M674.8,536.7c-0.4-0.1-0.8,0-1.1,0.3c-0.3,0.3-0.4,0.6-0.5,1c-0.4,1.6,0.4,3.2,1,4.8c0.4,1.2,1.2,2.3,1.9,3.4
		"/>
</g>
<g>
	<path class="st16" d="M673,538.4c-0.8,0.4-1,1.4-1,2.3c-0.1,3,1.6,4.6,2.8,7.4"/>
</g>
<g>
	<path class="st16" d="M671.7,542.5c-0.8,2-0.3,4.3,0.9,6.2c0.4,0.5,0.6,1.2,0.9,1.8c0.9,1.6-2.3,2.3,0.6,8c0.6,1.2,2,2.9,3.3,3.2
		c1.3,0.3,2.7,0.2,4.1,0.1"/>
</g>
<g>
	<path class="st16" d="M677.6,553.5c0.3-0.7,1-1.2,1.7-1.6c0.7-0.3,1.5-0.5,2.2-0.7"/>
</g>
<g>
	<path class="st16" d="M659.5,542.8c1.4-2.3,3-4.5,4.9-6.4c0.4-0.4,0.8-0.8,1.3-1c0.1,0,0.2-0.1,0.3,0c0.1,0,0.2,0.1,0.2,0.2
		c0.5,0.6,0.6,1.4,0.4,2.2c-0.2,0.7-0.5,1.4-0.9,2.1c-0.8,1.5-1.4,2.9-2.5,4.4"/>
</g>
<g>
	<path class="st16" d="M666.9,536.3c0.4-0.1,0.8,0,1.1,0.3c0.3,0.3,0.4,0.6,0.5,1c0.4,1.6-0.4,3.2-1,4.8c-0.4,1.2-1.2,2.3-1.9,3.4"
		/>
</g>
<g>
	<path class="st16" d="M668.7,538.3c0.8,0.4,1,1.4,1,2.3c0.1,3-1.6,4.6-2.8,7.4"/>
</g>
<g>
	<path class="st16" d="M670,542.1c0.8,2,0.3,4.3-0.9,6.2c-0.4,0.5-0.6,1.2-0.9,1.8c-0.9,1.6,2.3,2.3-0.6,8c-0.6,1.2-2,2.9-3.3,3.2
		c-1.3,0.3-2.7,0.2-4.1,0.1c-1.9-1.6-3.4-4.6-4.3-6.9c-0.3-0.6-0.5-1.3-0.5-1.9c-0.1-1.2,0.4-2.4,0.7-3.6c0.5-2.4,0.1-4.9,0.7-7.3
		c0-0.2,0.1-0.4,0.3-0.5c0.2-0.1,0.3-0.1,0.5,0c1.2,0.4,1.9,1.7,2.3,2.9c0.7,2.6,0.6,5.5-0.5,8"/>
</g>
<g>
	<path class="st16" d="M664.1,553.2c-0.3-0.7-1-1.2-1.7-1.6c-0.7-0.3-1.5-0.5-2.2-0.7"/>
</g>
<path class="st26" d="M659.8,605c0-0.2,10.1-1.6,10.1-1.6l11.4,2l0.2,0.1l-0.3,2l-6.5,3.6l-15.4-2.8l-1.4,0.9l-0.6-3.6
	C657.2,605.6,659.7,605.5,659.8,605z"/>
<path class="st26" d="M657.2,605.6c0,0,0.2,7.4,2.8,14"/>
<path class="st26" d="M681.4,605.4c0,0-0.6,10.1-2.8,14.2"/>
<path class="st26" d="M678.8,606.7c0,0,2.6-0.1,2-0.5c0,0,0.3-0.1,0.1,1.8c-0.2,1.9-1.5,12.6-4.4,16.1c0,0-0.3,0.7-2,1.4"/>
<path class="st26" d="M676.3,607.3c0,0,2.8,0.1,2.7-0.4c0-0.1-0.1-0.1-0.2-0.2c0,0,0.4-0.1,0.2,1.3c-0.2,1.4-2.1,14.8-4.2,17.2
	c0,0-0.6,0.8-1.6,0.6"/>
<path class="st26" d="M673,607.5c0,0,2.1,1,3.3-0.2c0,0-1.7,17-2.9,18.3c0,0-0.8,1.2-1.9,0.4"/>
<path class="st26" d="M669.4,607.5c0,0,1.2,1.1,3.6,0c0,0-0.6,17.6-1.6,18.8c0,0-0.9,1.2-2,0.1C669.3,626.3,669.4,607.5,669.4,607.5
	z"/>
<path class="st26" d="M659.9,606.8c0,0-2.6-0.1-2-0.5c0,0-0.3-0.1-0.1,1.8c0.2,1.9,1.5,12.6,4.4,16.1c0,0,0.3,0.7,2,1.4"/>
<path class="st26" d="M662.4,607.3c0,0-2.8,0.1-2.7-0.4c0-0.1,0.1-0.1,0.2-0.2c0,0-0.4-0.1-0.2,1.3c0.2,1.4,2.1,14.8,4.2,17.2
	c0,0,0.6,0.8,1.6,0.6"/>
<path class="st26" d="M665.9,607.6c0,0-2.3,1-3.5-0.2c0,0,1.7,17,2.9,18.3c0,0,0.8,1.2,1.9,0.4"/>
<path class="st26" d="M669.4,607.5c0,0-1.2,1.1-3.6,0c0,0,0.6,17.6,1.6,18.8c0,0,0.9,1.2,2,0.1C669.4,626.4,669.4,607.5,669.4,607.5
	z"/>
<path class="st26" d="M657.8,606.4c-0.2-0.3,0.8-0.4,0.8-0.4c-3.2-0.5,0.1-0.7,0.1-0.7c-1.5-1.1,1.1-0.8,1.1-0.8
	c-1.3-1.1,2-0.5,2-0.5c-0.4-1.2,2.2-0.5,2.2-0.5c0.7-1.1,2.4,0,2.4,0c1.7-1.4,3.1-0.3,3.1-0.3l0.4,0.2c0,0,1.5-1.1,3.1,0.2
	c0,0,1.5-1,2.2,0c0,0,2.4-0.6,2,0.5c0,0,3.1-0.5,1.9,0.5c0,0,2.4-0.2,1,0.7c0,0,3,0.2,0.1,0.6c0,0,0.6,0.1,0.7,0.3"/>
<path class="st27" d="M668.5,686.7c-4.3-3.8-7.8-8-9.6-12c-0.5-1.1-0.9-2.2-0.9-3.3c0-1.1,0.6-2.3,1.7-2.9c1.6-0.9,3.9-0.2,5.2,1.1
	c1.3,1.3,1.7,3,2.2,4.6c1.1-3,2.6-7.4,6-9.6c2.3-1.5,6.1-0.6,7.3,1.6c0.5,1,0.6,2.2,0.5,3.3c-0.4,3.4-2.4,6.4-4.7,9.1
	C673.8,681.3,671.5,684.2,668.5,686.7"/>
<text transform="matrix(0.6473 0 0 1 93.7866 379.7106)"><tspan x="0" y="0" class="st14 st19">CO2-venlig brænding</tspan><tspan x="0" y="22" class="st14 st19">Brænding af flere elementer samtidig</tspan><tspan x="0" y="44" class="st14 st19">Ingen farlige eller skadelige stoffer</tspan><tspan x="0" y="66" class="st14 st19">Udnytte ovnbrændingerne bedre</tspan><tspan x="0" y="88" class="st14 st19">Mindske forbruget af strøm.</tspan><tspan x="0" y="110" class="st14 st19">Bæredygtighed</tspan><tspan x="0" y="132" class="st14 st19">Designet og Produkceret </tspan></text>
<g>
	<path class="st28" d="M74.7,505.9c-0.6-2.2-0.7-4.4-0.6-6.6c0.1-2.2,0.5-4.5,1.2-6.6c0.3-1.1,0.8-2.1,1.3-3.1
		c0.3-0.5,0.6-1,0.9-1.4c0.2-0.2,0.3-0.5,0.5-0.7l0.5-0.7c1.3-1.8,3.1-3.2,4.9-4.5c-0.4,0.4-0.8,0.8-1.2,1.2
		c-0.4,0.4-0.8,0.7-1.1,1.2l-1.1,1.2c-0.3,0.4-0.6,0.9-0.9,1.3c-1.2,1.8-2.2,3.7-2.9,5.8c-0.7,2-1.2,4.2-1.4,6.3
		c-0.1,1.1-0.2,2.2-0.2,3.3C74.5,503.7,74.6,504.8,74.7,505.9z"/>
</g>
<path class="st28" d="M74.2,496.5c-0.3-1.1-1.3-1.9-2.2-2.6c-1-0.7-2-1.2-2.8-2.1c-1-1-1.5-2.5-1.5-3.9c0-0.5,0.1-1,0.2-1.5
	c0.2-1.6,0.3-3.3-0.5-4.8c3.6,1.8,6.3,5.6,6.6,9.6c0.1,1.1,0.1,2,0.1,3.1C74.2,495.2,74.1,495.7,74.2,496.5"/>
<path class="st28" d="M82,483.5c0.5-0.5,1.2-0.7,1.9-0.8s1.4-0.1,2.1-0.3c0.8-0.3,1.5-0.9,1.8-1.7c0.1-0.3,0.2-0.6,0.3-0.9
	c0.3-0.9,0.7-1.9,1.5-2.5c-2.5-0.1-4.9,1.2-6.1,3.4c-0.3,0.6-0.6,1.1-0.9,1.7C82.4,482.8,82.2,483.1,82,483.5"/>
<path class="st28" d="M77.5,490c0.8-0.5,1.8-0.6,2.7-0.4c0.9,0.1,1.9,0.3,2.8,0.2c1.1-0.1,2.2-0.7,2.9-1.7c0.2-0.3,0.4-0.7,0.6-1.1
	c0.7-1.2,1.5-2.3,2.7-2.8c-3.2-0.8-6.9,0.1-9.1,2.5c-0.6,0.6-1.1,1.2-1.6,1.9C78.2,489.2,78,489.6,77.5,490"/>
<g>
	<path class="st3" d="M704.8,295.2c-2,0.3-6.1,0.4-5.5,2.7c0.1,0.4,0.8,0.3,1.1,0.7s0.4,1.1,0.2,1.6c-0.1,0.2-0.4,0.4-0.6,0.4
		c-2.7,1.2-3.9,2-3.9,3.5c0,2,2.1,2.3,5,1.2c0.4-0.1,0.9-0.3,1,0.2c0.1,0.2,0.1,0.5,0.1,0.8c0.1,1.4,1.3,2.2,2.3,1.9
		c1-0.3,1.8-1.3,2.6-2.1c1.6-1.4,3.5-1.8,5.3-1.3c1.6,0.4,3.5,1.5,4.5-0.2c0.2-0.3,0.3-0.6,0.3-1c0-0.4-0.2-0.7-0.4-1
		c-1.2-2.1-2.7-4.3-4.5-4.6c-0.3-0.1-0.7-0.1-1-0.5c-0.3-0.5-0.1-1.2-0.3-1.7c-0.4-0.9-1.3-0.4-2,0c-1.1,0.6-1.3-0.4-2.7-0.7
		C706.1,294.9,705,295.2,704.8,295.2z"/>
</g>
<g>
	<path class="st7" d="M711.3,301.7c-1.4-0.2-2.9-0.3-4.3,0.4c-1.4,0.7-2.6,2.5-2.5,4.6c0,0.5,0.1,1.1-0.1,1.5
		c-0.2,0.4-0.5,0.5-0.7,0.7c-0.9,0.4-2.3,0.4-2.6,1.3c-1,3.2,4.7,4,7,2.3c0.3-0.2,0.6-0.5,1-0.5c0.9,0,1.3,1.8,2,2.7
		c0.7,1,1.9,0.9,2.9,0.4c0.9-0.5,1.8-1.3,2.7-1.9c3.5-2,10.7-0.6,7.9-5.1c-3.4-5.5-3.9,0-6.3-3.5c-0.4-0.7-0.8-1.5-1.3-2
		c-1.4-1.5-3.5-0.4-5-1.5L711.3,301.7z"/>
</g>
<g>
	<path class="st5" d="M710.3,297.2c-0.3,0.2-0.6,0.6-0.7,1c-0.1,0.6,0.1,1.3,0.5,1.8c0.8,1,2,1.4,2.3,2.8c0.3,1.2-0.2,2.7,0.4,3.6
		c0.3,0.5,0.7,0.7,1.1,0.9c1.8,0.7,3.6,1.3,5.4,0.6c1.1-0.5,2.1-1.5,3.2-1.8c1.4-0.4,3.2,0,4-1.7c0.2-0.5,0.4-1.2,0.4-1.8
		c0.1-1.8-0.6-3.6-1.6-4.5c-1-0.9-2.4-1-3.5-0.1c-0.4,0.3-0.7,0.7-1.1,0.9c-0.6,0.3-1.4,0-1.8-0.7s0.7-2.2-0.3-2.7
		C716.6,294.5,712.1,296.1,710.3,297.2z"/>
</g>
<g id="Håndlavet">
	<polygon class="st29" points="664.3,538 668.5,539.6 669.2,544 665.5,552.5 658,551.3 658.3,545.3 	"/>
	<path class="st29" d="M663.6,552c-1.5-2.1-3.8-1.8-3.8-1.8c0.4-7.4-0.7-8-0.9-8.3c-2.3-2.1-2,0.7-2,1.5c-0.1,2.6-0.5,5.1-1.1,6.7
		c-0.7,2,0,3,0,3l3.1,5.1c0,0,3.2,3.6,8,0c0,0,2-3.9,1.6-5.7c-0.4-1.8-1-2.9-0.8-3.7c0.2-0.8,2.5-4.2,2-7c0,0-0.2-0.9-0.5-0.9
		c-0.2,0-2.1,6.3-3.5,7.5"/>
	<path class="st29" d="M659.5,543.1c0,0,4.5-5.8,4.8-6.1c0.2-0.3,1.6-0.9,1.7-0.1s-1.2,3.4-1.3,3.6c-0.1,0.2-3,5.6-3.9,6.7"/>
	<path class="st29" d="M663.2,548.1c1.1-0.5,4.8-9.5,5.6-9.7c0.4-0.1,0.6,0.4,0.7,0.8c0.1,0.3-0.2,1.8-0.2,1.8"/>
	<path class="st29" d="M665.5,538.8c0,0,1.2-2,1.7-1.9c0.4,0.1,1.4,0.6,0.3,3.4"/>
	<polygon class="st29" points="675.5,537.9 671.2,539.5 670.6,543.9 674.2,552.5 681.7,551.2 681.5,545.2 	"/>
	<path class="st29" d="M676.2,551.9c1.5-2.1,3.8-1.8,3.8-1.8c-0.4-7.4,0.7-8,0.9-8.3c2.3-2.1,2,0.7,2,1.5c0.1,2.6,0.5,5.1,1.1,6.7
		c0.7,2,0,3,0,3l-3.1,5.1c0,0-3.2,3.6-8,0c0,0-2-3.9-1.6-5.7c0.4-1.8,1-2.9,0.8-3.7c-0.2-0.8-2.5-4.2-2-7c0,0,0.2-0.9,0.5-0.9
		c0.2,0,2.1,6.3,3.5,7.5"/>
	<path class="st29" d="M680.3,543c0,0-4.5-5.8-4.8-6.1c-0.2-0.3-1.6-0.9-1.7-0.1c-0.2,0.9,1.2,3.4,1.3,3.6c0.1,0.2,3,5.6,3.9,6.7"/>
	<path class="st29" d="M676.5,548c-1.1-0.5-4.8-9.5-5.6-9.7c-0.4-0.1-0.6,0.4-0.7,0.8c-0.1,0.3,0.2,1.8,0.2,1.8"/>
	<path class="st29" d="M674.2,538.7c0,0-1.2-2-1.7-1.9c-0.4,0.1-1.4,0.6-0.3,3.4"/>
</g>
<polygon points="197.8,609.4 211,609.4 204.4,615.8 "/>
<polygon points="186,337.7 199.2,337.7 192.6,344.1 "/>
<polygon points="748.8,499.9 762,499.9 755.4,506.3 "/>
<polygon points="791.3,194.7 804.5,194.7 797.9,201.1 "/>
<text transform="matrix(0.8921 0 0 1 376.9268 76.1808)" class="st14 st30">Tryk på de forskellige punkter for at læse mere</text>
<polygon points="618,71.2 625.8,71.2 621.9,75 "/>
<g>
	<polygon points="815.7,208.4 821.8,196.5 807.8,196.8 	"/>
	<rect x="823.1" y="196.5" transform="matrix(0.4569 -0.8895 0.8895 0.4569 265.1334 846.082)" width="4.8" height="18.8"/>
</g>
<text transform="matrix(0.9246 0 0 1 254.3413 883.134)" class="st14 st32">Alle dropdown info bokse åbne</text>
<rect x="725.1" y="189" class="st16" width="62.4" height="24.1"/>
<text transform="matrix(1 0 0 1 725.1436 202.2099)" class="st14 st17">Glasur</text>
<polygon points="791.3,194.7 804.5,194.7 797.9,201.1 "/>
<g>
	<polygon points="815.7,208.4 821.8,196.5 807.7,196.8 	"/>
	<rect x="823.1" y="196.5" transform="matrix(0.4569 -0.8895 0.8895 0.4569 265.1214 846.078)" width="4.8" height="18.8"/>
</g>
<g>
	<path d="M715.2,200.2c1.7-3.9,3.7-7.6,6-11.2c0.2-0.3,0.6-0.7,0.9-0.5c0.4,0.2,0.2,0.7,0.1,1.1c-1.1,2.4-2.2,4.9-3.4,7.3
		c-0.5,1.1-1.1,2.3-1.8,3.3c-0.2,0.4-0.5,0.7-0.9,0.8c-0.4,0.1-0.9-0.1-0.9-0.6"/>
	<path class="st1" d="M715.2,200.2c0.9-2.3,1.9-4.5,3.1-6.7c0.6-1.1,1.2-2.2,1.8-3.2c0.3-0.5,0.6-1,1-1.6c0.1-0.1,0.2-0.3,0.4-0.4
		c0.2-0.1,0.4-0.2,0.6-0.1c0.2,0.1,0.4,0.3,0.5,0.5c0,0.2,0,0.4,0,0.6c-0.5,1.2-1,2.2-1.5,3.4c-0.5,1.1-1,2.2-1.6,3.3
		c-0.5,1.1-1,2.2-1.7,3.3c-0.3,0.5-0.6,1.1-1.1,1.5c-0.2,0.2-0.6,0.4-0.9,0.3c-0.3,0-0.6-0.3-0.6-0.6c0,0.3,0.3,0.5,0.6,0.6
		c0.3,0,0.6-0.1,0.8-0.3c0.4-0.4,0.7-1,1-1.5c0.6-1.1,1-2.2,1.5-3.3c1-2.2,2.1-4.5,3-6.7c0.2-0.6-0.2-0.7-0.6-0.2
		c-0.3,0.5-0.6,1-1,1.5c-0.6,1-1.2,2.1-1.8,3.2C717.4,195.9,716.3,198,715.2,200.2z"/>
</g>
<path class="st31" d="M716.5,197c0.3,0.7,1.2,1.1,1.9,0.9"/>
<rect x="93.4" y="332" class="st16" width="92.6" height="24.1"/>
<text transform="matrix(1 0 0 1 93.3916 345.1976)" class="st14 st17">Brænding</text>
<rect x="101.2" y="603.7" class="st16" width="93.3" height="24.1"/>
<text transform="matrix(1 0 0 1 101.1865 616.9076)" class="st14 st17">Materialer</text>
<g>
	<path class="st31" d="M84.5,607.9c0.2-1,0.5-2.1,0.7-3.1c0-0.1,0-0.2,0.1-0.3c0.1-0.1,0.2-0.2,0.4-0.3c0.5-0.2,1-0.2,1.4-0.5
		c0.2-0.1,0.3-0.3,0.4-0.4c0.4-0.3,1-0.4,1.5-0.5c0.7-0.1,1.3-0.1,2-0.1c1,0.1,1.9,0.6,2.9,0.6c0.2,0,0.4,0,0.5,0.1
		c0.1,0.1,0.3,0.2,0.4,0.3c0.5,0.4,0.9,0.9,1.3,1.5c0.1,0.1,0.2,0.3,0.3,0.3c0.1,0,0.2,0,0.3,0c0.2-0.1,0.4-0.2,0.6-0.2
		c0.1,0,0.2-0.1,0.3,0c0.1,0,0.1,0.1,0.2,0.2c0.5,0.7,1.1,1.4,1.1,2.2c0,0.4,0,0.8-0.1,1.1c-0.2,0.8-0.4,1.6-0.6,2.4
		c0,0.1-0.1,0.2-0.1,0.3c-0.1,0.1-0.2,0.2-0.4,0.3c-0.8,0.4-1.5,1.1-1.9,1.8c-0.1,0.1-0.2,0.3-0.3,0.3c-0.1,0-0.2,0-0.4,0
		c-0.9-0.3-1.7-0.7-2.6-0.6c-0.6,0.1-1.1,0.3-1.5,0.7c-0.1,0.1-0.2,0.2-0.3,0.2c-0.1,0-0.2,0-0.3,0c-1.1-0.2-2.1-0.5-3.2-0.7
		c-0.2-0.1-0.5-0.1-0.7-0.2c-0.2-0.1-0.4-0.3-0.5-0.6c-0.8-1.4-0.8-3.1-1.6-4.5"/>
	<path class="st31" d="M87.8,603.5c0.3,0.3,0.4,0.7,0.7,1c0.2,0.2,0.4,0.4,0.6,0.5c0.3,0.2,0.6,0.4,0.8,0.7c0.1,0.1,0.3,0.2,0.3,0.4
		c0,0.1,0,0.3,0,0.4c0,0.4-0.1,0.8-0.2,1.2c0.2,0.3,0.6,0.3,0.9,0.2s0.6-0.3,0.9-0.5c0.3-0.1,0.7-0.2,1.1-0.1c0.3,0.1,0.7,0.3,1,0.1
		c0.1-0.1,0.2-0.2,0.2-0.3c0.3-0.5,0.5-1.2,0.5-1.8c0-0.6-0.1-1.2-0.2-1.9"/>
	<path class="st31" d="M94.3,607.5c0.1,0.6,0.2,1.3,0.6,1.8c0.2-0.4,0.3-0.8,0.4-1.2c0.1-0.4,0.3-0.8,0.7-1c0,0,0.1,0,0.1-0.1
		c0,0,0-0.1,0-0.1c0.1-0.5,0.2-0.9,0.3-1.4"/>
	<path class="st31" d="M95.4,608.6c0.2,0,0.5-0.1,0.7-0.1c0.1,0,0.2,0,0.3-0.1c0.1-0.1,0.2-0.1,0.2-0.2c0.2-0.3,0.4-0.5,0.6-0.8
		c0.3-0.4,0.6-0.8,1-1.1"/>
	<path class="st31" d="M94.9,609.6c-0.1,0.7-0.1,1.3-0.2,2c0,0.2,0,0.4,0,0.6c0,0.3,0.1,0.6,0.2,0.9c0.1,0.2,0.2,0.5,0.2,0.7"/>
	<path class="st31" d="M90.1,607.7c-0.2,0.8-0.3,1.6-0.5,2.5c0,0.2-0.1,0.3-0.1,0.5c0,0.2,0.1,0.3,0.1,0.5c0.2,0.6,0.5,1.3,0.7,1.9
		c0.1,0.3,0.3,0.7,0.3,1"/>
	<path class="st31" d="M89.6,605.7c-0.5,0.3-0.8,0.8-0.8,1.3c-0.5-0.6-1-1.3-1.5-1.9c-0.1-0.1-0.2-0.2-0.3-0.3
		c-0.1-0.1-0.3-0.1-0.4-0.1c-0.3,0-0.6-0.1-0.9-0.1"/>
	<path class="st31" d="M85.2,605.6c0.1,0.4,0.4,0.7,0.7,1c0.2,0.2,0.4,0.4,0.5,0.6c0.7,0.9,1.5,1.8,2.2,2.8c0.2-0.7,0.1-1.4-0.2-2.1
		c-0.1-0.1-0.1-0.2-0.1-0.4c0-0.3,0.1-0.5,0.4-0.6"/>
	<path class="st31" d="M88.5,610.2c0,0.3,0,0.6,0.1,0.8c0,0.1,0,0.2,0.1,0.3c0.1,0.1,0.2,0.2,0.2,0.2c0.9,0.6,1.5,1.5,1.8,2.5"/>
	<path class="st31" d="M86.4,607.5c-0.1,0.5,0.2,1,0.2,1.5c0,0.2-0.1,0.4-0.1,0.6c-0.1,0.3-0.1,0.7,0,1c0,0.9,0.1,1.8,0.1,2.8"/>
	<path class="st31" d="M86.5,611.2c0.3,0,0.6-0.1,0.9-0.2c0.2-0.1,0.4-0.1,0.6-0.2c0.2-0.1,0.4-0.1,0.5-0.2"/>
</g>
<g>
	<path class="st31" d="M82.4,615.4c0.1-0.6,0.3-1.3,0.4-1.9c0-0.1,0-0.1,0.1-0.2c0.1-0.1,0.1-0.1,0.2-0.2c0.3-0.1,0.6-0.1,0.8-0.3
		c0.1-0.1,0.2-0.2,0.3-0.2c0.3-0.2,0.6-0.2,0.9-0.3c0.4,0,0.8-0.1,1.2,0c0.6,0.1,1.2,0.3,1.8,0.4c0.1,0,0.2,0,0.3,0
		c0.1,0,0.2,0.1,0.2,0.2c0.3,0.3,0.5,0.6,0.8,0.9c0,0.1,0.1,0.2,0.2,0.2c0.1,0,0.1,0,0.2,0c0.1,0,0.2-0.1,0.4-0.1c0,0,0.1,0,0.2,0
		c0,0,0.1,0.1,0.1,0.1c0.3,0.4,0.7,0.8,0.7,1.3c0,0.2,0,0.5-0.1,0.7c-0.1,0.5-0.2,1-0.4,1.4c0,0.1,0,0.1-0.1,0.2
		c-0.1,0.1-0.1,0.1-0.2,0.2c-0.5,0.3-0.9,0.7-1.2,1.1c0,0.1-0.1,0.2-0.2,0.2c-0.1,0-0.2,0-0.2,0c-0.5-0.2-1-0.4-1.6-0.4
		c-0.3,0-0.7,0.2-0.9,0.4c0,0-0.1,0.1-0.2,0.1c-0.1,0-0.1,0-0.2,0c-0.6-0.1-1.3-0.3-1.9-0.4c-0.1,0-0.3-0.1-0.4-0.1
		c-0.1-0.1-0.2-0.2-0.3-0.3c-0.5-0.8-0.5-1.9-1-2.7"/>
	<path class="st31" d="M84.5,612.8c0.2,0.2,0.3,0.4,0.4,0.6c0.1,0.1,0.2,0.2,0.3,0.3c0.2,0.1,0.3,0.3,0.5,0.4
		c0.1,0.1,0.2,0.1,0.2,0.2c0,0.1,0,0.2,0,0.2c0,0.3,0,0.5-0.1,0.8c0.1,0.2,0.4,0.2,0.6,0.1s0.3-0.2,0.5-0.3c0.2-0.1,0.4-0.1,0.6,0
		c0.2,0.1,0.4,0.2,0.6,0.1c0.1,0,0.1-0.1,0.1-0.2c0.2-0.3,0.3-0.7,0.3-1.1c0-0.4,0-0.8-0.1-1.1"/>
	<path class="st31" d="M88.4,615.2c0,0.4,0.2,0.8,0.3,1.1c0.1-0.2,0.2-0.5,0.2-0.7c0.1-0.3,0.2-0.5,0.4-0.6c0,0,0.1,0,0.1,0
		c0,0,0,0,0-0.1c0.1-0.3,0.1-0.6,0.2-0.9"/>
	<path class="st31" d="M89,615.8c0.1,0,0.3,0,0.4-0.1c0.1,0,0.1,0,0.2-0.1c0.1,0,0.1-0.1,0.1-0.1c0.1-0.2,0.2-0.3,0.4-0.5
		c0.2-0.2,0.4-0.5,0.6-0.7"/>
	<path class="st31" d="M88.7,616.5c0,0.4-0.1,0.8-0.1,1.2c0,0.1,0,0.2,0,0.3c0,0.2,0.1,0.4,0.1,0.5c0,0.1,0.1,0.3,0.1,0.4"/>
	<path class="st31" d="M85.9,615.3c-0.1,0.5-0.2,1-0.3,1.5c0,0.1,0,0.2,0,0.3c0,0.1,0,0.2,0.1,0.3c0.1,0.4,0.3,0.8,0.4,1.2
		c0.1,0.2,0.2,0.4,0.2,0.6"/>
	<path class="st31" d="M85.6,614.1c-0.3,0.2-0.5,0.5-0.5,0.8c-0.3-0.4-0.6-0.8-0.9-1.1c-0.1-0.1-0.1-0.1-0.2-0.2
		c-0.1,0-0.2-0.1-0.3-0.1c-0.2,0-0.4,0-0.5-0.1"/>
	<path class="st31" d="M82.8,614.1c0.1,0.2,0.3,0.4,0.4,0.6c0.1,0.1,0.2,0.2,0.3,0.4c0.4,0.6,0.9,1.1,1.3,1.7
		c0.1-0.4,0.1-0.9-0.1-1.2c0-0.1-0.1-0.1-0.1-0.2c0-0.2,0.1-0.3,0.2-0.4"/>
	<path class="st31" d="M84.9,616.8c0,0.2,0,0.3,0,0.5c0,0.1,0,0.1,0,0.2c0,0.1,0.1,0.1,0.1,0.1c0.5,0.4,0.9,0.9,1.1,1.5"/>
	<path class="st31" d="M83.6,615.2c0,0.3,0.1,0.6,0.1,0.9c0,0.1,0,0.3-0.1,0.4c0,0.2,0,0.4,0,0.6c0,0.6,0,1.1,0.1,1.7"/>
	<path class="st31" d="M83.6,617.5c0.2,0,0.4-0.1,0.5-0.1c0.1,0,0.2-0.1,0.4-0.1c0.1,0,0.2-0.1,0.3-0.1"/>
</g>
<g>
	<path d="M85.1,346.1c-0.4,0.1-0.8-0.1-1.1-0.3c-0.7-0.4-1.4-0.8-1.9-1.5c-0.6-0.8-0.8-1.9-0.8-3c0-0.5,0-1-0.1-1.4
		c-0.1-0.5-0.3-0.9-0.7-1.1c0.9,0.3,1.5,1.2,1.6,2.2c0.3-0.5,0.3-1.2,0.1-1.7s-0.5-1.1-0.7-1.6c-0.2-0.6-0.2-1.3-0.1-2
		c0.1-0.6,0.4-1.1,0.9-1.4c-0.5,1.3-0.1,2.8,0.8,3.7c0.3,0.3,0.8,0.6,0.9,1.1c0.1-0.6,0-1.2-0.2-1.8c-0.2-0.6-0.4-1.1-0.6-1.7
		c-0.2-0.8-0.1-1.7,0.2-2.4c0.3-0.7,1-1.3,1.7-1.4c-0.4-0.1-0.7,0.2-0.8,0.6c-0.2,0.6-0.1,1.3,0.2,1.9c0.3,0.6,0.8,1,1.2,1.4
		s0.9,0.8,1.3,1.4c0.6,0.9,0.7,2,0.6,3.1c0.4-1.7-0.1-3.6-1.1-4.9c1.1,0.3,2,1.2,2.4,2.4c0.4,1.1,0.5,2.4,0.3,3.7
		c0.5-0.6,0.8-1.3,0.9-2.1c0,1.1,0,2.1-0.2,3.2c-0.2,1-0.8,2-1.6,2.6c-1,0.7-2.3,0.7-3.4,1.1"/>
</g>
<g>
	<path d="M87.5,334.2c0-0.1-0.1-0.2-0.1-0.4c-0.1-0.2-0.1-0.5,0-0.8c0.1-0.3,0.2-0.5,0.4-0.7c0,0.2,0,0.4,0,0.6
		c0,0.1,0.1,0.2,0.1,0.2c0.2,0.4,0.1,0.9-0.3,1.2"/>
</g>
<g>
	<path d="M86.4,332.4c0.3-0.3,0.6-0.7,0.7-1c0.3-0.8-0.2-1.6-0.8-2.3c0,0.3,0,0.6-0.1,0.9c0,0.1-0.1,0.2-0.1,0.3
		c0,0.1-0.1,0.3-0.1,0.4c0,0.3-0.1,0.5,0,0.8C86.1,331.8,86.4,332,86.4,332.4"/>
</g>
<g id="Håndlavet_4_">
	<polygon class="st31" points="668,496 670.5,497 670.9,499.5 668.8,504.5 664.4,503.7 664.6,500.3 	"/>
	<path class="st31" d="M667.6,504.1c-0.8-1.2-2.2-1-2.2-1c0.2-4.3-0.4-4.6-0.5-4.8c-1.3-1.2-1.1,0.4-1.2,0.9
		c-0.1,1.5-0.3,2.9-0.6,3.9c-0.4,1.1,0,1.8,0,1.8l1.8,2.9c0,0,1.8,2.1,4.7,0c0,0,1.2-2.3,0.9-3.3c-0.2-1-0.6-1.7-0.5-2.1
		c0.1-0.5,1.5-2.4,1.2-4c0,0-0.1-0.5-0.3-0.5s-1.2,3.7-2,4.4"/>
	<path class="st31" d="M665.3,499c0,0,2.6-3.3,2.8-3.6c0.1-0.2,0.9-0.5,1,0c0.1,0.5-0.7,1.9-0.8,2.1c-0.1,0.1-1.7,3.3-2.2,3.9"/>
	<path class="st31" d="M667.4,501.9c0.6-0.3,2.8-5.5,3.2-5.6c0.3,0,0.3,0.2,0.4,0.5c0,0.2-0.1,1.1-0.1,1.1"/>
	<path class="st31" d="M668.8,496.5c0,0,0.7-1.2,1-1.1c0.3,0.1,0.8,0.4,0.2,2"/>
	<polygon class="st31" points="674.5,496 672.1,496.9 671.7,499.5 673.8,504.4 678.1,503.7 678,500.2 	"/>
	<path class="st31" d="M674.9,504.1c0.8-1.2,2.2-1,2.2-1c-0.2-4.3,0.4-4.6,0.5-4.8c1.3-1.2,1.1,0.4,1.2,0.9c0.1,1.5,0.3,2.9,0.6,3.9
		c0.4,1.1,0,1.8,0,1.8l-1.8,2.9c0,0-1.8,2.1-4.7,0c0,0-1.2-2.3-0.9-3.3c0.2-1,0.6-1.7,0.5-2.1c-0.1-0.5-1.5-2.4-1.2-4
		c0,0,0.1-0.5,0.3-0.5s1.2,3.7,2,4.4"/>
	<path class="st31" d="M677.3,499c0,0-2.6-3.3-2.8-3.6c-0.1-0.2-0.9-0.5-1,0c-0.1,0.5,0.7,1.9,0.8,2.1c0.1,0.1,1.7,3.3,2.2,3.9"/>
	<path class="st31" d="M675.1,501.8c-0.6-0.3-2.8-5.5-3.2-5.6c-0.3,0-0.3,0.2-0.4,0.5c0,0.2,0.1,1.1,0.1,1.1"/>
	<path class="st31" d="M673.8,496.4c0,0-0.7-1.2-1-1.1c-0.3,0.1-0.8,0.4-0.2,2"/>
</g>
<polygon points="197.8,609.4 211,609.4 204.4,615.8 "/>
<polygon points="186,337.7 199.2,337.7 192.6,344.1 "/>
</svg>
