<?xml version="1.0" encoding="utf-8"?>
<!-- Generator: Adobe Illustrator 22.1.0, SVG Export Plug-In . SVG Version: 6.00 Build 0)  -->
<svg version="1.1" id="Layer_1" xmlns="http://www.w3.org/2000/svg" xmlns:xlink="http://www.w3.org/1999/xlink" x="0px" y="0px"
	 viewBox="0 0 80.6 75.2" style="enable-background:new 0 0 80.6 75.2;" xml:space="preserve">
<style type="text/css">
	.st0{fill:none;stroke:#000000;stroke-miterlimit:10;}
	.st1{fill:#FFFFFF;}
	.st2{fill:#7F5056;}
	.st3{fill:#9F6166;}
	.st4{fill:#B57D86;}
	.st5{fill:#4A1B25;}
	.st6{opacity:0.42;}
	.st7{fill:#CCAAA2;}
	.st8{fill:#915960;}
	.st9{opacity:6.000000e-02;fill:#FFFFFF;}
	.st10{opacity:0.49;}
	.st11{fill:#4F3136;}
	.st12{fill:#362222;}
	.st13{fill:#002A73;stroke:#002A73;stroke-width:0.25;stroke-miterlimit:10;}
	.st14{fill:#FFFFFF;stroke:#000000;stroke-miterlimit:10;}
	.st15{fill:#95725E;stroke:#FFFFFF;stroke-width:0.25;stroke-miterlimit:10;}
	.st16{fill:#353535;stroke:#FFFFFF;stroke-width:0.25;stroke-miterlimit:10;}
	.st17{fill:#FC5500;}
	.st18{fill:none;stroke:#000000;stroke-width:0.5;stroke-miterlimit:10;}
	.st19{fill:#3F2E19;}
	.st20{fill:none;stroke:#FFFFFF;stroke-width:0.25;stroke-miterlimit:10;}
	.st21{fill:none;}
	.st22{fill:#9F6166;stroke:#FFFFFF;stroke-width:0.25;stroke-miterlimit:10;}
	.st23{fill:#A60000;stroke:#FFFFFF;stroke-width:0.25;stroke-miterlimit:10;}
	.st24{fill:#1B8B00;}
	.st25{fill:#F7CCAD;stroke:#FFFFFF;stroke-width:0.25;stroke-miterlimit:10;}
	.st26{stroke:#FFFFFF;stroke-width:0.25;stroke-miterlimit:10;}
	.st27{fill:#A60000;}
</style>
<g>
	<g>
		<path class="st17" d="M39.7,52.8c-0.7,0.2-1.5-0.2-2.2-0.6c-1.4-0.8-2.8-1.6-3.7-2.9c-1.2-1.6-1.5-3.7-1.6-5.7
			c0-0.9,0-1.9-0.2-2.8c-0.2-0.9-0.7-1.8-1.4-2.2c1.7,0.6,3,2.3,3.1,4.3c0.6-0.9,0.6-2.2,0.2-3.3s-0.9-2.1-1.3-3.1
			c-0.4-1.2-0.4-2.5-0.2-3.8c0.2-1.1,0.8-2.1,1.6-2.6c-0.9,2.4-0.3,5.4,1.5,7.1c0.7,0.7,1.5,1.2,1.8,2.1c0.3-1.1,0-2.4-0.3-3.5
			c-0.4-1.1-0.8-2.2-1.1-3.3c-0.3-1.5-0.2-3.2,0.4-4.6c0.6-1.4,1.9-2.5,3.2-2.7c-0.7-0.1-1.3,0.5-1.6,1.2c-0.5,1.2-0.2,2.6,0.4,3.7
			s1.5,1.9,2.4,2.7c0.9,0.8,1.8,1.6,2.5,2.6c1.1,1.7,1.4,3.8,1.2,5.9c0.7-3.2-0.1-6.8-2.1-9.3c2.1,0.5,3.8,2.3,4.7,4.5
			s0.9,4.7,0.5,7c0.9-1.1,1.5-2.6,1.7-4.1c0,2,0,4.1-0.5,6.1c-0.5,2-1.4,3.9-3,5c-1.9,1.4-4.3,1.4-6.5,2.1"/>
	</g>
	<g>
		<path class="st17" d="M44.3,30c0-0.2-0.2-0.5-0.3-0.7c-0.2-0.5-0.2-1,0-1.5c0.2-0.5,0.4-0.9,0.7-1.3c0,0.4,0,0.7,0.1,1.1
			c0.1,0.2,0.1,0.3,0.2,0.5c0.3,0.8,0.1,1.8-0.5,2.4"/>
	</g>
	<g>
		<path class="st17" d="M42.2,26.5c0.5-0.6,1.1-1.3,1.4-2c0.5-1.5-0.4-3.1-1.5-4.4c0.1,0.6,0,1.2-0.3,1.8c-0.1,0.2-0.2,0.4-0.3,0.7
			c-0.1,0.2-0.1,0.5-0.2,0.7c-0.1,0.5-0.2,1,0,1.4C41.5,25.3,42.2,25.8,42.2,26.5"/>
	</g>
</g>
</svg>
