<?xml version="1.0" encoding="utf-8"?>
<!-- Generator: Adobe Illustrator 22.1.0, SVG Export Plug-In . SVG Version: 6.00 Build 0)  -->
<svg version="1.1" id="Layer_1" xmlns="http://www.w3.org/2000/svg" xmlns:xlink="http://www.w3.org/1999/xlink" x="0px" y="0px"
	 viewBox="0 0 330 190" style="enable-background:new 0 0 330 190;" xml:space="preserve">
<style type="text/css">
	.st0{fill:none;}
	.st1{fill:none;stroke:#353535;stroke-width:3;stroke-linecap:round;stroke-linejoin:round;stroke-miterlimit:10;}
	.st2{fill:none;stroke:#353535;stroke-miterlimit:10;}
	.st3{fill:#353535;}
	.st4{fill:#575790;}
	.st5{fill:#A60000;}
	.st6{fill:#002A73;}
	.st7{fill:#6B532F;}
	.st8{fill:#FC5500;}
	.st9{fill:#FFD8A4;}
	.st10{fill:#95725E;}
	.st11{fill:none;stroke:#000000;stroke-linecap:round;stroke-linejoin:round;stroke-miterlimit:10;}
	.st12{fill:none;stroke:#575790;stroke-width:3;stroke-linecap:round;stroke-linejoin:round;stroke-miterlimit:10;}
	.st13{fill:none;stroke:#333333;stroke-width:2;stroke-miterlimit:10;}
	.st14{fill:#333333;}
	.st15{fill:#FFFFFF;stroke:#333333;stroke-width:2;stroke-miterlimit:10;}
	.st16{fill:#424242;stroke:#FFFFFF;stroke-miterlimit:10;}
</style>
<path class="st13" d="M207.8,92.5h-73.5c-0.2,0-0.3,0.1-0.4,0.2l-19.4,16.1c-0.5,0.4-0.2,1.2,0.4,1.2h114.7c0.7,0,1-0.9,0.4-1.3
	l-21.7-16.1C208.1,92.6,207.9,92.5,207.8,92.5z"/>
<path class="st13" d="M204,158h-63.5c-1.2,0-2.3-0.5-2.7-1.3l-24.7-43.7c-0.8-1.4,0.6-2.9,2.7-2.9h112.8c2.1,0,3.5,1.5,2.7,2.9
	l-24.7,43.7C206.3,157.4,205.2,158,204,158z"/>
<polyline class="st13" points="134,92.5 141.9,110 203.4,110 208,92.5 "/>
<path class="st13" d="M215.8,103.8l-6.7-40.6c-0.1-0.8-0.8-1.4-1.7-1.4h-70.6c-0.9,0-1.6,0.7-1.7,1.5l-4.4,40.5"/>
</svg>
