<?xml version="1.0" encoding="utf-8"?>
<!-- Generator: Adobe Illustrator 22.1.0, SVG Export Plug-In . SVG Version: 6.00 Build 0)  -->
<svg version="1.1" id="Layer_1" xmlns="http://www.w3.org/2000/svg" xmlns:xlink="http://www.w3.org/1999/xlink" x="0px" y="0px"
	 viewBox="0 0 80.6 75.2" style="enable-background:new 0 0 80.6 75.2;" xml:space="preserve">
<style type="text/css">
	.st0{fill:none;stroke:#000000;stroke-miterlimit:10;}
	.st1{fill:#FFFFFF;}
	.st2{fill:#7F5056;}
	.st3{fill:#9F6166;}
	.st4{fill:#B57D86;}
	.st5{fill:#4A1B25;}
	.st6{opacity:0.42;}
	.st7{fill:#CCAAA2;}
	.st8{fill:#915960;}
	.st9{opacity:6.000000e-02;fill:#FFFFFF;}
	.st10{opacity:0.49;}
	.st11{fill:#4F3136;}
	.st12{fill:#362222;}
	.st13{fill:#002A73;stroke:#002A73;stroke-width:0.25;stroke-miterlimit:10;}
	.st14{fill:#FFFFFF;stroke:#000000;stroke-miterlimit:10;}
	.st15{fill:#95725E;stroke:#FFFFFF;stroke-width:0.25;stroke-miterlimit:10;}
	.st16{fill:#353535;stroke:#FFFFFF;stroke-width:0.25;stroke-miterlimit:10;}
	.st17{fill:#FC5500;}
	.st18{fill:none;stroke:#000000;stroke-width:0.5;stroke-miterlimit:10;}
	.st19{fill:#3F2E19;}
	.st20{fill:none;stroke:#FFFFFF;stroke-width:0.25;stroke-miterlimit:10;}
	.st21{fill:none;}
	.st22{fill:#9F6166;stroke:#FFFFFF;stroke-width:0.25;stroke-miterlimit:10;}
	.st23{fill:#A60000;stroke:#FFFFFF;stroke-width:0.25;stroke-miterlimit:10;}
	.st24{fill:#1B8B00;}
	.st25{fill:#F7CCAD;stroke:#FFFFFF;stroke-width:0.25;stroke-miterlimit:10;}
	.st26{stroke:#FFFFFF;stroke-width:0.25;stroke-miterlimit:10;}
	.st27{fill:#A60000;}
</style>
<g>
	<path class="st15" d="M38.5,42.5c-0.9,0-1.5-0.8-1.8-1.6c-0.5-1.2-0.8-2.5-0.6-3.8c0-0.3,0.1-0.6-0.1-0.8c-0.3-0.4-0.8-0.2-1.3-0.3
		c-0.9-0.1-1.3-1-2-1.6c-0.9-0.8-2.3-0.9-3.5-1c-1.4-0.1-2.7,0.3-4.1,0.2c-1,1.2-2.8,1.3-4.3,1.4c-0.3,0-0.6,0-0.8,0.2
		c-0.3,0.2-0.4,0.5-0.6,0.8c-0.5,1.1-1.1,2.2-1,3.4c0,0.5,0.1,0.9,0.3,1.3c0.2,0.7,0.4,1.4,0.5,2c0.2,0.9,0.5,1.7,0.9,2.5
		c0.5,0.8,1.1,1.4,1.9,1.8c0.6,0.3,1.2,0.5,1.8,0.6c1,0.3,2,0.5,3,0.8c0.5,0.1,1,0.3,1.5,0.3c0.7,0,1.5-0.2,2.2-0.3
		c1.3-0.2,2.6-0.1,3.9-0.3c1.3-0.2,2.6-0.6,3.4-1.7c0.8-1.1,0.8-2.5,0.8-3.8"/>
	<path class="st15" d="M37.1,42.3c-0.6,0.5-1.2,0.9-1.8,1.4c-0.1,0.1-0.3,0.2-0.4,0.4c-0.1,0.2-0.2,0.5-0.2,0.7
		c-0.2,1.2-0.4,2.1-0.6,3.3"/>
	<path class="st15" d="M34.3,45.7c-0.6-0.1-1.2-0.1-1.9-0.2c-0.1,0-0.2,0-0.3-0.1c-0.1-0.1-0.2-0.2-0.3-0.4
		c-0.1-0.2-0.3-0.4-0.5-0.5c-0.2-0.1-0.4-0.2-0.5-0.3c-0.1-0.2-0.1-0.3-0.1-0.5c0.1-1,0.4-2.1,0.8-3.1c0.1-0.1,0.1-0.3,0.1-0.5
		c0-0.3-0.2-0.6-0.4-0.9c-0.2-0.3-0.4-0.7-0.6-1c0-0.1-0.1-0.2-0.1-0.3c0-0.1,0.1-0.2,0.2-0.3c0.7-0.9,1.5-1.7,2.2-2.6"/>
	<path class="st15" d="M32.2,39.5c0.4-0.5,0.8-1,1.2-1.4c0.2-0.2,0.4-0.4,0.6-0.5c0.2-0.1,0.3-0.1,0.5-0.1c0.4,0,0.7,0,1.1,0"/>
	<path class="st15" d="M24.3,34.4c-0.8,1.7-1,3.6-0.8,5.4c1-0.5,2.1-0.8,3.1-0.9c0.1,0,0.2,0,0.2,0c0.1,0,0.2,0.1,0.2,0.2
		c0.3,0.5,0.6,0.9,0.8,1.4c0.1,0.1,0.1,0.2,0.2,0.3c0.2,0.1,0.4,0.1,0.6,0.1c0.5-0.1,0.9-0.5,1.2-1c0.3-0.5,0.4-1,0.5-1.5"/>
	<path class="st15" d="M28.7,41.2c0.2,0.5,0.4,0.9,0.6,1.4c0.1,0.3,0.3,0.7,0.3,1c0,0.3-0.1,0.7-0.3,1c-0.5,1.3-1.1,2.6-1.7,4"/>
	<path class="st15" d="M23.2,40.3c-0.2,0.5-0.4,1-0.6,1.6c-0.1,0.2-0.2,0.5-0.2,0.7c0,0.3,0.1,0.7,0.2,1c0.3,1.1,0.4,2.3,0.2,3.4"/>
	<path class="st15" d="M19.7,36.3c0.1,1.1,0.4,2.2,0.7,3.3c0.1,0.2,0.1,0.4,0.3,0.5c0.2,0.1,0.3,0,0.5,0c0.7-0.2,1.4-0.3,2.1-0.3"/>
	<g>
		<path class="st15" d="M34.3,33.8c0.5-2.1,1-4.2,1.5-6.2c0-0.2,0.1-0.4,0.2-0.6c0.2-0.3,0.5-0.4,0.7-0.5c0.9-0.3,2-0.4,2.8-1
			c0.3-0.2,0.6-0.6,0.9-0.8c0.8-0.7,2-0.8,3-0.9c1.3-0.1,2.7-0.3,4-0.1c2,0.2,3.9,1.1,5.9,1.2c0.4,0,0.7,0,1,0.1
			c0.3,0.1,0.5,0.3,0.7,0.5c1,0.9,1.8,1.9,2.5,2.9c0.2,0.2,0.3,0.5,0.6,0.6c0.2,0,0.4,0,0.5-0.1c0.4-0.2,0.8-0.3,1.2-0.5
			c0.2-0.1,0.3-0.1,0.5-0.1c0.2,0,0.3,0.2,0.4,0.3c1.1,1.3,2.2,2.8,2.3,4.4c0.1,0.8-0.1,1.5-0.3,2.3c-0.3,1.6-0.8,3.2-1.2,4.8
			c-0.1,0.2-0.1,0.4-0.2,0.6c-0.2,0.3-0.5,0.4-0.7,0.6c-1.6,0.9-2.9,2.2-3.9,3.7c-0.2,0.3-0.3,0.5-0.6,0.6c-0.2,0.1-0.5,0-0.7-0.1
			c-1.7-0.6-3.4-1.4-5.2-1.2c-1.1,0.1-2.2,0.7-3,1.5c-0.2,0.2-0.3,0.3-0.5,0.4c-0.2,0.1-0.4,0-0.6,0c-2.1-0.5-4.2-0.9-6.4-1.4
			c-0.5-0.1-1-0.2-1.4-0.5c-0.4-0.3-0.7-0.7-1-1.1c-1.6-2.8-1.5-6.3-3.1-9"/>
		<path class="st15" d="M41,25.1c0.6,0.5,0.9,1.4,1.4,2c0.3,0.4,0.7,0.7,1.1,1.1c0.6,0.4,1.1,0.9,1.7,1.3c0.3,0.2,0.5,0.4,0.7,0.7
			c0.1,0.2,0.1,0.5,0.1,0.8c0,0.8-0.1,1.7-0.3,2.5c0.4,0.5,1.2,0.6,1.8,0.3c0.6-0.2,1.1-0.7,1.8-1c0.7-0.3,1.4-0.3,2.1-0.1
			c0.7,0.2,1.4,0.6,2,0.2c0.2-0.1,0.3-0.3,0.5-0.5c0.7-1,1-2.3,1-3.6c0-1.2-0.1-2.5-0.3-3.7"/>
		<path class="st15" d="M53.9,33c0.1,1.3,0.5,2.5,1.1,3.6c0.4-0.7,0.5-1.6,0.7-2.4s0.6-1.7,1.4-2c0.1,0,0.2-0.1,0.2-0.1
			c0-0.1,0.1-0.1,0.1-0.2c0.2-0.9,0.4-1.9,0.7-2.8"/>
		<path class="st15" d="M56.1,35.2c0.5-0.1,1-0.2,1.4-0.3c0.2,0,0.4-0.1,0.6-0.2c0.2-0.1,0.3-0.3,0.4-0.5c0.4-0.5,0.8-1.1,1.2-1.6
			c0.6-0.8,1.2-1.6,2-2.3"/>
		<path class="st15" d="M55.1,37.3c-0.1,1.3-0.3,2.6-0.4,4c0,0.4-0.1,0.8,0,1.1c0,0.6,0.2,1.2,0.4,1.7c0.2,0.5,0.3,1,0.5,1.5"/>
		<path class="st15" d="M45.6,33.6c-0.3,1.6-0.7,3.3-1,4.9c-0.1,0.3-0.1,0.6-0.1,0.9c0,0.3,0.1,0.7,0.3,1c0.5,1.3,1,2.6,1.5,3.8
			c0.3,0.7,0.5,1.3,0.6,2"/>
		<path class="st15" d="M44.6,29.5c-1,0.5-1.6,1.6-1.6,2.7c-1-1.3-1.9-2.5-2.9-3.8c-0.2-0.2-0.4-0.5-0.6-0.6
			c-0.3-0.2-0.6-0.2-0.9-0.2c-0.6-0.1-1.2-0.1-1.8-0.2"/>
		<path class="st15" d="M35.6,29.3c0.2,0.8,0.9,1.4,1.5,2c0.4,0.4,0.7,0.8,1,1.2c1.5,1.8,2.9,3.7,4.4,5.5c0.4-1.4,0.3-2.8-0.3-4.1
			c-0.1-0.2-0.2-0.5-0.3-0.7c-0.1-0.5,0.2-1.1,0.7-1.3"/>
		<path class="st15" d="M42.4,38.4c0,0.6,0,1.1,0.1,1.7c0,0.2,0.1,0.4,0.2,0.5c0.1,0.2,0.3,0.3,0.5,0.4c1.7,1.2,3,3,3.6,5.1"/>
		<path class="st15" d="M38.1,33.1c-0.2,1,0.4,1.9,0.4,2.9c0,0.4-0.1,0.9-0.2,1.3c-0.1,0.7-0.1,1.4-0.1,2.1c0,1.8,0.1,3.7,0.3,5.5"
			/>
		<path class="st15" d="M38.2,40.5c0.6-0.1,1.2-0.2,1.8-0.4c0.4-0.1,0.8-0.2,1.2-0.4c0.4-0.1,0.7-0.2,1-0.4"/>
	</g>
	<g>
		<path class="st15" d="M37.9,50.1c0.1-0.6,0.3-1.3,0.4-1.9c0-0.1,0-0.1,0.1-0.2c0.1-0.1,0.1-0.1,0.2-0.2c0.3-0.1,0.6-0.1,0.8-0.3
			c0.1-0.1,0.2-0.2,0.3-0.2c0.3-0.2,0.6-0.2,0.9-0.3c0.4,0,0.8-0.1,1.2,0c0.6,0.1,1.2,0.3,1.8,0.4c0.1,0,0.2,0,0.3,0
			c0.1,0,0.2,0.1,0.2,0.2c0.3,0.3,0.5,0.6,0.8,0.9c0,0.1,0.1,0.2,0.2,0.2c0.1,0,0.1,0,0.2,0c0.1,0,0.2-0.1,0.4-0.1c0,0,0.1,0,0.2,0
			c0,0,0.1,0.1,0.1,0.1c0.3,0.4,0.7,0.8,0.7,1.3c0,0.2,0,0.5-0.1,0.7c-0.1,0.5-0.2,1-0.4,1.4c0,0.1,0,0.1-0.1,0.2
			c-0.1,0.1-0.1,0.1-0.2,0.2c-0.5,0.3-0.9,0.7-1.2,1.1c0,0.1-0.1,0.2-0.2,0.2c-0.1,0-0.2,0-0.2,0c-0.5-0.2-1-0.4-1.6-0.4
			c-0.3,0-0.7,0.2-0.9,0.4c0,0-0.1,0.1-0.2,0.1c-0.1,0-0.1,0-0.2,0c-0.6-0.1-1.3-0.3-1.9-0.4c-0.1,0-0.3-0.1-0.4-0.1
			c-0.1-0.1-0.2-0.2-0.3-0.3c-0.5-0.8-0.5-1.9-1-2.7"/>
		<path class="st15" d="M39.9,47.4c0.2,0.2,0.3,0.4,0.4,0.6c0.1,0.1,0.2,0.2,0.3,0.3c0.2,0.1,0.3,0.3,0.5,0.4
			c0.1,0.1,0.2,0.1,0.2,0.2c0,0.1,0,0.2,0,0.2c0,0.3,0,0.5-0.1,0.8c0.1,0.2,0.4,0.2,0.6,0.1c0.2-0.1,0.3-0.2,0.5-0.3
			c0.2-0.1,0.4-0.1,0.6,0c0.2,0.1,0.4,0.2,0.6,0.1c0.1,0,0.1-0.1,0.1-0.2c0.2-0.3,0.3-0.7,0.3-1.1c0-0.4,0-0.8-0.1-1.1"/>
		<path class="st15" d="M43.8,49.8c0,0.4,0.2,0.8,0.3,1.1c0.1-0.2,0.2-0.5,0.2-0.7s0.2-0.5,0.4-0.6c0,0,0.1,0,0.1,0c0,0,0,0,0-0.1
			c0.1-0.3,0.1-0.6,0.2-0.9"/>
		<path class="st15" d="M44.5,50.5c0.1,0,0.3,0,0.4-0.1c0.1,0,0.1,0,0.2-0.1c0.1,0,0.1-0.1,0.1-0.1c0.1-0.2,0.2-0.3,0.4-0.5
			c0.2-0.2,0.4-0.5,0.6-0.7"/>
		<path class="st15" d="M44.2,51.1c0,0.4-0.1,0.8-0.1,1.2c0,0.1,0,0.2,0,0.3c0,0.2,0.1,0.4,0.1,0.5c0,0.1,0.1,0.3,0.1,0.4"/>
		<path class="st15" d="M41.3,50c-0.1,0.5-0.2,1-0.3,1.5c0,0.1,0,0.2,0,0.3c0,0.1,0,0.2,0.1,0.3c0.1,0.4,0.3,0.8,0.4,1.2
			c0.1,0.2,0.2,0.4,0.2,0.6"/>
		<path class="st15" d="M41,48.8c-0.3,0.2-0.5,0.5-0.5,0.8c-0.3-0.4-0.6-0.8-0.9-1.1c-0.1-0.1-0.1-0.1-0.2-0.2
			c-0.1,0-0.2-0.1-0.3-0.1c-0.2,0-0.4,0-0.5-0.1"/>
		<path class="st15" d="M38.3,48.7c0.1,0.2,0.3,0.4,0.4,0.6c0.1,0.1,0.2,0.2,0.3,0.4c0.4,0.6,0.9,1.1,1.3,1.7
			c0.1-0.4,0.1-0.9-0.1-1.2c0-0.1-0.1-0.1-0.1-0.2c0-0.2,0.1-0.3,0.2-0.4"/>
		<path class="st15" d="M40.3,51.5c0,0.2,0,0.3,0,0.5c0,0.1,0,0.1,0,0.2c0,0.1,0.1,0.1,0.1,0.1c0.5,0.4,0.9,0.9,1.1,1.5"/>
		<path class="st15" d="M39,49.9c0,0.3,0.1,0.6,0.1,0.9c0,0.1,0,0.3-0.1,0.4c0,0.2,0,0.4,0,0.6c0,0.6,0,1.1,0.1,1.7"/>
		<path class="st15" d="M39.1,52.1c0.2,0,0.4-0.1,0.5-0.1c0.1,0,0.2-0.1,0.4-0.1c0.1,0,0.2-0.1,0.3-0.1"/>
	</g>
</g>
</svg>
