<?xml version="1.0" encoding="utf-8"?>
<!-- Generator: Adobe Illustrator 22.1.0, SVG Export Plug-In . SVG Version: 6.00 Build 0)  -->
<svg version="1.1" id="Layer_1" xmlns="http://www.w3.org/2000/svg" xmlns:xlink="http://www.w3.org/1999/xlink" x="0px" y="0px"
	 viewBox="0 0 80.6 75.2" style="enable-background:new 0 0 80.6 75.2;" xml:space="preserve">
<style type="text/css">
	.st0{fill:none;stroke:#000000;stroke-miterlimit:10;}
	.st1{fill:#FFFFFF;}
	.st2{fill:#7F5056;}
	.st3{fill:#9F6166;}
	.st4{fill:#B57D86;}
	.st5{fill:#4A1B25;}
	.st6{opacity:0.42;}
	.st7{fill:#CCAAA2;}
	.st8{fill:#915960;}
	.st9{opacity:6.000000e-02;fill:#FFFFFF;}
	.st10{opacity:0.49;}
	.st11{fill:#4F3136;}
	.st12{fill:#362222;}
	.st13{fill:#002A73;stroke:#002A73;stroke-width:0.25;stroke-miterlimit:10;}
	.st14{fill:#FFFFFF;stroke:#000000;stroke-miterlimit:10;}
	.st15{fill:#95725E;stroke:#FFFFFF;stroke-width:0.25;stroke-miterlimit:10;}
	.st16{fill:#353535;stroke:#FFFFFF;stroke-width:0.25;stroke-miterlimit:10;}
	.st17{fill:#FC5500;}
	.st18{fill:none;stroke:#000000;stroke-width:0.5;stroke-miterlimit:10;}
	.st19{fill:#3F2E19;}
	.st20{fill:none;stroke:#FFFFFF;stroke-width:0.25;stroke-miterlimit:10;}
	.st21{fill:none;}
	.st22{fill:#9F6166;stroke:#FFFFFF;stroke-width:0.25;stroke-miterlimit:10;}
	.st23{fill:#A60000;stroke:#FFFFFF;stroke-width:0.25;stroke-miterlimit:10;}
	.st24{fill:#1B8B00;}
	.st25{fill:#F7CCAD;stroke:#FFFFFF;stroke-width:0.25;stroke-miterlimit:10;}
	.st26{stroke:#FFFFFF;stroke-width:0.25;stroke-miterlimit:10;}
	.st27{fill:#A60000;}
</style>
<g>
	<path class="st26" d="M32.8,34.2c0.4-1.5,0.7-3,1.1-4.5c0-0.1,0.1-0.3,0.2-0.4c0.1-0.2,0.3-0.3,0.5-0.4c0.7-0.2,1.4-0.3,2-0.7
		c0.2-0.2,0.4-0.4,0.6-0.6c0.6-0.5,1.4-0.6,2.2-0.7c0.9-0.1,1.9-0.2,2.8-0.1c1.4,0.2,2.8,0.8,4.2,0.8c0.3,0,0.5,0,0.7,0.1
		c0.2,0.1,0.4,0.2,0.5,0.4c0.7,0.6,1.3,1.3,1.8,2.1c0.1,0.2,0.2,0.4,0.4,0.4c0.1,0,0.3,0,0.4-0.1c0.3-0.1,0.6-0.2,0.9-0.3
		c0.1,0,0.2-0.1,0.4-0.1c0.1,0,0.2,0.1,0.3,0.2c0.8,0.9,1.5,2,1.6,3.2c0,0.5-0.1,1.1-0.2,1.6c-0.2,1.1-0.5,2.3-0.9,3.4
		c0,0.1-0.1,0.3-0.2,0.4c-0.1,0.2-0.3,0.3-0.5,0.4c-1.1,0.6-2.1,1.5-2.8,2.6c-0.1,0.2-0.2,0.4-0.4,0.4c-0.2,0.1-0.4,0-0.5-0.1
		c-1.2-0.4-2.4-1-3.7-0.8c-0.8,0.1-1.6,0.5-2.1,1.1c-0.1,0.1-0.2,0.2-0.4,0.3c-0.1,0-0.3,0-0.4,0c-1.5-0.3-3-0.7-4.5-1
		c-0.3-0.1-0.7-0.2-1-0.3c-0.3-0.2-0.5-0.5-0.7-0.8c-1.1-2-1.1-4.5-2.2-6.4"/>
	<path class="st26" d="M37.6,28c0.5,0.4,0.6,1,1,1.5c0.2,0.3,0.5,0.5,0.8,0.8c0.4,0.3,0.8,0.6,1.2,1c0.2,0.1,0.4,0.3,0.5,0.5
		c0.1,0.2,0.1,0.4,0.1,0.5c0,0.6-0.1,1.2-0.2,1.8c0.3,0.4,0.9,0.4,1.3,0.2c0.4-0.2,0.8-0.5,1.3-0.7c0.5-0.2,1-0.2,1.5-0.1
		c0.5,0.1,1,0.4,1.4,0.2c0.1-0.1,0.2-0.2,0.3-0.4c0.5-0.7,0.7-1.6,0.7-2.5s-0.1-1.8-0.2-2.7"/>
	<path class="st26" d="M46.7,33.7c0.1,0.9,0.4,1.8,0.8,2.6c0.3-0.5,0.4-1.1,0.5-1.7s0.4-1.2,1-1.5c0.1,0,0.1-0.1,0.2-0.1
		c0,0,0-0.1,0.1-0.1c0.2-0.7,0.3-1.3,0.5-2"/>
	<path class="st26" d="M48.4,35.2c0.3-0.1,0.7-0.1,1-0.2c0.1,0,0.3-0.1,0.4-0.1c0.1-0.1,0.2-0.2,0.3-0.3c0.3-0.4,0.6-0.8,0.8-1.2
		c0.4-0.6,0.8-1.2,1.4-1.6"/>
	<path class="st26" d="M47.6,36.7c-0.1,0.9-0.2,1.9-0.3,2.8c0,0.3-0.1,0.5,0,0.8c0,0.4,0.2,0.8,0.3,1.2c0.1,0.3,0.2,0.7,0.4,1"/>
	<path class="st26" d="M40.8,34.1c-0.2,1.2-0.5,2.3-0.7,3.5c0,0.2-0.1,0.4-0.1,0.7c0,0.2,0.1,0.5,0.2,0.7c0.4,0.9,0.7,1.8,1.1,2.7
		c0.2,0.5,0.4,1,0.4,1.5"/>
	<path class="st26" d="M40.1,31.1c-0.7,0.4-1.2,1.1-1.2,1.9c-0.7-0.9-1.4-1.8-2.1-2.7c-0.1-0.2-0.3-0.3-0.4-0.4
		c-0.2-0.1-0.4-0.1-0.6-0.2c-0.4,0-0.9-0.1-1.3-0.1"/>
	<path class="st26" d="M33.7,31.1c0.1,0.6,0.6,1,1,1.4c0.3,0.3,0.5,0.6,0.7,0.9c1,1.3,2.1,2.6,3.1,3.9c0.3-1,0.2-2-0.2-2.9
		c-0.1-0.2-0.2-0.3-0.2-0.5c-0.1-0.4,0.2-0.8,0.5-0.9"/>
	<path class="st26" d="M38.5,37.5c0,0.4,0,0.8,0.1,1.2c0,0.1,0,0.3,0.1,0.4c0.1,0.1,0.2,0.2,0.3,0.3c1.2,0.9,2.2,2.2,2.6,3.6"/>
	<path class="st26" d="M35.5,33.7c-0.1,0.7,0.3,1.4,0.3,2.1c0,0.3-0.1,0.6-0.1,0.9c-0.1,0.5-0.1,1-0.1,1.5c0,1.3,0.1,2.6,0.2,3.9"/>
	<path class="st26" d="M35.6,39.1c0.4-0.1,0.8-0.2,1.3-0.3c0.3-0.1,0.6-0.2,0.9-0.3c0.3-0.1,0.5-0.2,0.7-0.3"/>
</g>
<g>
	<path class="st26" d="M29.8,45c0.2-0.9,0.4-1.8,0.6-2.7c0-0.1,0-0.2,0.1-0.3c0.1-0.1,0.2-0.2,0.3-0.2c0.4-0.1,0.9-0.2,1.2-0.4
		c0.1-0.1,0.2-0.2,0.4-0.3c0.4-0.3,0.8-0.4,1.3-0.4c0.6-0.1,1.1-0.1,1.7,0c0.9,0.1,1.7,0.5,2.5,0.5c0.2,0,0.3,0,0.4,0.1
		c0.1,0,0.2,0.1,0.3,0.2c0.4,0.4,0.8,0.8,1.1,1.3c0.1,0.1,0.1,0.2,0.3,0.2c0.1,0,0.2,0,0.2,0c0.2-0.1,0.4-0.1,0.5-0.2
		c0.1,0,0.1-0.1,0.2,0c0.1,0,0.1,0.1,0.2,0.1c0.5,0.6,0.9,1.2,1,1.9c0,0.3,0,0.7-0.1,1c-0.2,0.7-0.3,1.4-0.5,2.1
		c0,0.1-0.1,0.2-0.1,0.2c-0.1,0.1-0.2,0.2-0.3,0.2c-0.7,0.4-1.3,0.9-1.7,1.6c-0.1,0.1-0.1,0.2-0.3,0.3c-0.1,0-0.2,0-0.3,0
		c-0.7-0.2-1.5-0.6-2.2-0.5c-0.5,0.1-0.9,0.3-1.3,0.6c-0.1,0.1-0.1,0.1-0.2,0.2c-0.1,0-0.2,0-0.3,0c-0.9-0.2-1.8-0.4-2.7-0.6
		c-0.2,0-0.4-0.1-0.6-0.2c-0.2-0.1-0.3-0.3-0.4-0.5c-0.7-1.2-0.7-2.7-1.4-3.9"/>
	<path class="st26" d="M32.7,41.3c0.3,0.2,0.4,0.6,0.6,0.9c0.1,0.2,0.3,0.3,0.5,0.5c0.2,0.2,0.5,0.4,0.7,0.6
		c0.1,0.1,0.2,0.2,0.3,0.3c0,0.1,0,0.2,0,0.3c0,0.4-0.1,0.7-0.1,1.1c0.2,0.2,0.5,0.2,0.8,0.1s0.5-0.3,0.8-0.4
		c0.3-0.1,0.6-0.1,0.9-0.1c0.3,0.1,0.6,0.3,0.9,0.1c0.1-0.1,0.2-0.1,0.2-0.2c0.3-0.5,0.4-1,0.4-1.5s-0.1-1.1-0.1-1.6"/>
	<path class="st26" d="M38.3,44.7c0,0.5,0.2,1.1,0.5,1.6c0.2-0.3,0.2-0.7,0.3-1.1c0.1-0.4,0.3-0.7,0.6-0.9c0,0,0.1,0,0.1-0.1
		c0,0,0-0.1,0-0.1c0.1-0.4,0.2-0.8,0.3-1.2"/>
	<path class="st26" d="M39.3,45.7c0.2,0,0.4-0.1,0.6-0.1c0.1,0,0.2,0,0.2-0.1c0.1-0.1,0.1-0.1,0.2-0.2c0.2-0.2,0.3-0.5,0.5-0.7
		c0.3-0.4,0.5-0.7,0.8-1"/>
	<path class="st26" d="M38.8,46.5c-0.1,0.6-0.1,1.1-0.2,1.7c0,0.2,0,0.3,0,0.5c0,0.3,0.1,0.5,0.2,0.7c0.1,0.2,0.1,0.4,0.2,0.6"/>
	<path class="st26" d="M34.7,44.9c-0.1,0.7-0.3,1.4-0.4,2.1c0,0.1-0.1,0.3,0,0.4c0,0.1,0.1,0.3,0.1,0.4c0.2,0.6,0.4,1.1,0.6,1.7
		c0.1,0.3,0.2,0.6,0.3,0.9"/>
	<path class="st26" d="M34.3,43.2c-0.4,0.2-0.7,0.7-0.7,1.2c-0.4-0.5-0.8-1.1-1.3-1.6c-0.1-0.1-0.2-0.2-0.3-0.3
		c-0.1-0.1-0.3-0.1-0.4-0.1c-0.3,0-0.5-0.1-0.8-0.1"/>
	<path class="st26" d="M30.4,43.1c0.1,0.3,0.4,0.6,0.6,0.8c0.2,0.2,0.3,0.3,0.4,0.5c0.6,0.8,1.3,1.6,1.9,2.4
		c0.2-0.6,0.1-1.2-0.1-1.8c0-0.1-0.1-0.2-0.1-0.3c0-0.2,0.1-0.5,0.3-0.6"/>
	<path class="st26" d="M33.3,47c0,0.2,0,0.5,0.1,0.7c0,0.1,0,0.2,0.1,0.2c0,0.1,0.1,0.1,0.2,0.2c0.7,0.5,1.3,1.3,1.6,2.2"/>
	<path class="st26" d="M31.5,44.7c-0.1,0.4,0.2,0.8,0.2,1.3c0,0.2-0.1,0.4-0.1,0.6c0,0.3,0,0.6,0,0.9c0,0.8,0.1,1.6,0.1,2.4"/>
	<path class="st26" d="M31.6,48c0.3,0,0.5-0.1,0.8-0.2c0.2-0.1,0.3-0.1,0.5-0.2c0.2,0,0.3-0.1,0.4-0.2"/>
</g>
</svg>
