<?xml version="1.0" encoding="utf-8"?>
<!-- Generator: Adobe Illustrator 22.1.0, SVG Export Plug-In . SVG Version: 6.00 Build 0)  -->
<svg version="1.1" id="Layer_1" xmlns="http://www.w3.org/2000/svg" xmlns:xlink="http://www.w3.org/1999/xlink" x="0px" y="0px"
	 viewBox="0 0 80.6 75.2" style="enable-background:new 0 0 80.6 75.2;" xml:space="preserve">
<style type="text/css">
	.st0{fill:none;stroke:#000000;stroke-miterlimit:10;}
	.st1{fill:#FFFFFF;}
	.st2{fill:#7F5056;}
	.st3{fill:#9F6166;}
	.st4{fill:#B57D86;}
	.st5{fill:#4A1B25;}
	.st6{opacity:0.42;}
	.st7{fill:#CCAAA2;}
	.st8{fill:#915960;}
	.st9{opacity:6.000000e-02;fill:#FFFFFF;}
	.st10{opacity:0.49;}
	.st11{fill:#4F3136;}
	.st12{fill:#362222;}
	.st13{fill:#002A73;stroke:#002A73;stroke-width:0.25;stroke-miterlimit:10;}
	.st14{fill:#FFFFFF;stroke:#000000;stroke-miterlimit:10;}
	.st15{fill:#95725E;stroke:#FFFFFF;stroke-width:0.25;stroke-miterlimit:10;}
	.st16{fill:#353535;stroke:#FFFFFF;stroke-width:0.25;stroke-miterlimit:10;}
	.st17{fill:#FC5500;}
	.st18{fill:none;stroke:#000000;stroke-width:0.5;stroke-miterlimit:10;}
	.st19{fill:#3F2E19;}
	.st20{fill:none;stroke:#FFFFFF;stroke-width:0.25;stroke-miterlimit:10;}
	.st21{fill:none;}
	.st22{fill:#9F6166;stroke:#FFFFFF;stroke-width:0.25;stroke-miterlimit:10;}
	.st23{fill:#A60000;stroke:#FFFFFF;stroke-width:0.25;stroke-miterlimit:10;}
	.st24{fill:#1B8B00;}
	.st25{fill:#F7CCAD;stroke:#FFFFFF;stroke-width:0.25;stroke-miterlimit:10;}
	.st26{stroke:#FFFFFF;stroke-width:0.25;stroke-miterlimit:10;}
	.st27{fill:#A60000;}
</style>
<g>
	<path d="M41.1,40.1c3.3-7.5,7.2-14.7,11.5-21.7c0.4-0.7,1.1-1.4,1.8-1c0.7,0.4,0.5,1.4,0.1,2.1c-2.2,4.7-4.3,9.4-6.5,14.1
		c-1,2.2-2,4.4-3.4,6.5c-0.5,0.7-1,1.4-1.8,1.6S41,41.5,41,40.6"/>
	<path class="st1" d="M41.1,40.1c1.9-4.4,3.9-8.6,6.2-12.8c1.1-2.1,2.3-4.2,3.5-6.2c0.6-1,1.2-2,1.9-3.1c0.2-0.3,0.4-0.5,0.7-0.7
		c0.3-0.2,0.7-0.3,1-0.2c0.4,0.1,0.7,0.5,0.7,0.8c0.1,0.4,0,0.7-0.1,1c-0.2,0.6-0.5,1.1-0.7,1.7l-0.8,1.6l-1.5,3.2l-3,6.4
		c-1,2.1-2,4.3-3.2,6.4c-0.3,0.5-0.6,1-0.9,1.5c-0.3,0.5-0.7,1-1.1,1.4c-0.4,0.4-1,0.7-1.6,0.6c-0.6-0.1-1.2-0.5-1.2-1.2
		c0,0.6,0.6,1,1.2,1.1c0.6,0.1,1.1-0.2,1.6-0.6c0.4-0.4,0.7-0.9,1-1.4c0.3-0.5,0.6-1,0.9-1.5c1.1-2.1,2-4.3,3-6.4l2.9-6.5l1.5-3.2
		l0.7-1.6c0.2-0.5,0.5-1.1,0.7-1.6c0.2-0.5,0.1-1.1-0.3-1.2c-0.4-0.1-0.9,0.3-1.2,0.7c-0.6,1-1.3,2-1.9,3c-1.2,2-2.4,4.1-3.6,6.1
		C45.3,31.6,43.1,35.8,41.1,40.1z"/>
</g>
<path class="st20" d="M43.6,33.8c0.5,1.4,2.2,2.2,3.6,1.7"/>
<g>
	<path d="M41,42.6c-0.5-0.6-1.5-0.5-2.1-0.1c-0.6,0.5-1,1.2-1.2,2s-0.4,1.5-0.8,2.2s-1.1,1.2-1.9,1.2c0.1,0.1,0.3,0.2,0.5,0.3
		c0.8,0.2,1.7,0.5,2.6,0.4c1.1-0.2,2-0.9,2.7-1.7c0.5-0.6,1-1.3,1.1-2.1s-0.1-1.7-0.8-2.2"/>
</g>
<path class="st20" d="M36.7,45.2c0.5-0.1,1-0.1,1.5-0.2c0.3,0,0.6-0.1,0.8,0.1c0.5,0.4-0.4,1.2,0.2,1.5c0.1,0.1,0.3,0.1,0.4,0.1
	c0.6,0,1.1,0,1.7,0"/>
</svg>
