<?xml version="1.0" encoding="utf-8"?>
<!-- Generator: Adobe Illustrator 22.1.0, SVG Export Plug-In . SVG Version: 6.00 Build 0)  -->
<svg version="1.1" id="Layer_1" xmlns="http://www.w3.org/2000/svg" xmlns:xlink="http://www.w3.org/1999/xlink" x="0px" y="0px"
	 viewBox="0 0 80.6 75.2" style="enable-background:new 0 0 80.6 75.2;" xml:space="preserve">
<style type="text/css">
	.st0{fill:none;stroke:#000000;stroke-miterlimit:10;}
	.st1{fill:#FFFFFF;}
	.st2{fill:#7F5056;}
	.st3{fill:#9F6166;}
	.st4{fill:#B57D86;}
	.st5{fill:#4A1B25;}
	.st6{opacity:0.42;}
	.st7{fill:#CCAAA2;}
	.st8{fill:#915960;}
	.st9{opacity:6.000000e-02;fill:#FFFFFF;}
	.st10{opacity:0.49;}
	.st11{fill:#4F3136;}
	.st12{fill:#362222;}
	.st13{fill:#002A73;stroke:#002A73;stroke-width:0.25;stroke-miterlimit:10;}
	.st14{fill:#FFFFFF;stroke:#000000;stroke-miterlimit:10;}
	.st15{fill:#95725E;stroke:#FFFFFF;stroke-width:0.25;stroke-miterlimit:10;}
	.st16{fill:#353535;stroke:#FFFFFF;stroke-width:0.25;stroke-miterlimit:10;}
	.st17{fill:#FC5500;}
	.st18{fill:none;stroke:#000000;stroke-width:0.5;stroke-miterlimit:10;}
	.st19{fill:#3F2E19;}
	.st20{fill:none;stroke:#FFFFFF;stroke-width:0.25;stroke-miterlimit:10;}
	.st21{fill:none;}
	.st22{fill:#9F6166;stroke:#FFFFFF;stroke-width:0.25;stroke-miterlimit:10;}
	.st23{fill:#A60000;stroke:#FFFFFF;stroke-width:0.25;stroke-miterlimit:10;}
	.st24{fill:#1B8B00;}
	.st25{fill:#F7CCAD;stroke:#FFFFFF;stroke-width:0.25;stroke-miterlimit:10;}
	.st26{stroke:#FFFFFF;stroke-width:0.25;stroke-miterlimit:10;}
	.st27{fill:#A60000;}
</style>
<g>
	<path class="st16" d="M20,44.6c-0.9-4,1.1-8.2,4-11c0.4-0.4,0.8-0.8,1.3-1c0.5-0.2,1-0.3,1.5-0.3c2.6-0.1,5.1,1,7.4,2.2
		c1.2,0.6,2.3,1.3,3.2,2.3c1.2,1.5,1.6,3.5,1.9,5.4c0.2,1.1,0.4,2.3,0.5,3.4c0,0.1,0,0.3,0,0.4c-0.1,0.1-0.2,0.2-0.4,0.2
		c-1.2,0.3-2.4,0.1-3.7,0c-1.2-0.1-2.6,0-3.5,0.9c-0.4,0.3-0.6,0.8-1.1,1c-0.7,0.4-1.5,0.1-2.2-0.1c-3-1-6-2-9-2.9"/>
	<path class="st16" d="M20.3,44.4c1.1-0.9,2.9-2.4,4-3.3c0.6-0.5,1.3-0.9,2-0.8c0.6,0.1,1.1,0.6,1.5,0.9c0.8,0.6,1.8,1,2.8,1.1
		c0.3,0,0.6,0.1,0.8,0.2c0.2,0.2,0.3,0.5,0.4,0.7c0.4,1.3-0.2,2.6,0,4.3"/>
	<path class="st16" d="M21.3,37.3c1.1-0.7,2.8-0.9,3.7-1.8c0.1-0.1,0.3-0.4,0.4-0.5c0.1-0.1,0-0.5,0-0.6c0-0.5-0.1-0.9-0.1-1.3"/>
	<path class="st16" d="M24.8,35.8c0.3,1.6,0.5,2.8,0.9,4.4"/>
	<path class="st16" d="M25.4,34.8c0.6,0.6,1.5,0.6,2.3,0.9c0.6,0.3,1.2,0.8,1.9,0.9c0.8,0.2,1.6-0.1,2.4-0.3c1.5-0.4,2.4-0.6,4-0.5"
		/>
	<path class="st16" d="M31.8,42.7c0.6-0.5,1.2-1.1,1.8-1.6c0.2-0.2,0.5-0.4,0.8-0.5c0.3-0.1,0.6-0.1,0.9-0.1c0.5,0,1.1,0.1,1.6,0.2
		c0.1,0,0.2,0,0.3,0c0.1,0,0.1-0.1,0.2-0.2c0.4-0.6,0.5-0.7,1-1.3"/>
</g>
<g>
	<path class="st16" d="M53.9,23.5c1.7,1,3.5,2,5.2,3c0.7,0.4,1.4,0.8,1.6,1.6c0.1,0.4,0.1,0.9,0,1.4c-0.5,3.8-1,7.6-1.5,11.4
		c0,0.3-0.1,0.6-0.3,0.8c-0.4,0.4-1.2,0.1-1.6,0.5c-0.3,0.3-0.4,0.8-0.6,1.1c-0.5,0.6-1.4,0.5-2.1,0.4c-2.6-0.4-5.3-0.1-7.7,0.8
		c-0.4,0.1-0.7,0.3-1.1,0.2c-0.3,0-0.6-0.2-0.9-0.3c-1.3-0.6-2.7-1.3-4-1.9c-0.2-0.1-0.4-0.2-0.5-0.4c-0.1-0.2,0-0.4,0-0.6
		c0.5-1.8,1.2-3.9,0-5.3c-0.5-0.5-1.1-0.9-1.5-1.5c-0.3-0.6-0.3-1.2-0.2-1.9c0.1-1.1,0.3-2.2,0.5-3.2c0-0.2,0.1-0.5,0.3-0.6
		c0.2-0.2,0.6-0.2,0.9-0.2c0.7-0.1,1.3-0.5,1.9-0.9C45.8,25.5,49.6,23.9,53.9,23.5"/>
	<path class="st16" d="M53.5,23.7c0.7,2.3,1.4,4.6,1.8,6.9c0,0.1,0.1,0.3,0.1,0.4c0.1,0.1,0.3,0.1,0.4,0.1c0.5,0,1-0.1,1.6-0.2
		c0.1,1.4,0.5,2.7,1,4c0.6,1.5,1,2.9,1,4.5"/>
	<path class="st16" d="M53.8,26.3c-1.7,0-3.8,0.6-5.2,1.7c-0.2,0.2-0.5,0.4-0.8,0.5c-0.2,0.1-0.5,0.1-0.7,0c-2.5-0.1-5,0-7.5,0.4"/>
	<path class="st16" d="M49.2,27.9c0.9,1.1,1.7,1.8,2.9,2.6c-0.7,0.4-1.5,0.7-2.2,1.1c-0.3,0.1-0.5,0.3-0.6,0.5
		c-0.1,0.2-0.1,0.5,0,0.8c0.2,1,0.5,2,0.8,3c0.1,0.2,0.1,0.4,0.3,0.6c0.1,0.2,0.4,0.2,0.6,0.3c1.6,0.5,3.2,0.9,4.9,1.3
		c0.2,0,0.3,0.1,0.4,0.2c0.1,0.1,0.1,0.2,0.1,0.4c0.2,1.3,0.3,2.7,0.5,4"/>
	<path class="st16" d="M49.4,33.8c-1.5-0.1-3.1-0.2-4.6-0.3c-0.5,0-1,0-1.3,0.3c-0.3,0.2-0.3,0.6-0.4,0.9c-0.4,1.8-0.7,2.8-2,4.3"/>
	<path class="st16" d="M43.1,36.3c0.5-0.1,1.1,0.3,1.2,0.8c0,0.3,0,0.6,0.2,0.8c0.1,0.1,0.2,0.1,0.3,0.2c0.5,0.2,1.1,0.3,1.7,0.4
		c0.2,0,0.3,0,0.5,0.1c0.2,0.2,0.3,0.5,0.4,0.7c0.5,2.1,2.5,2.8,4.3,4"/>
</g>
<g>
	<path class="st16" d="M41.9,54.4c-0.6-0.6-1.2-1.2-1.8-1.8c-0.2-0.2-0.5-0.5-0.5-0.8c0-0.2,0.1-0.4,0.1-0.6c0.6-1.5,1.2-3,1.8-4.6
		c0-0.1,0.1-0.3,0.2-0.3c0.2-0.1,0.5,0.1,0.7,0c0.2-0.1,0.2-0.3,0.4-0.4c0.2-0.2,0.6-0.1,0.9,0.1c1,0.4,2.2,0.6,3.3,0.5
		c0.2,0,0.3,0,0.5,0c0.1,0,0.2,0.1,0.3,0.2c0.5,0.4,1,0.8,1.5,1.2c0.1,0.1,0.1,0.1,0.2,0.2c0,0.1,0,0.2-0.1,0.2
		c-0.4,0.7-0.9,1.5-0.5,2.2c0.1,0.3,0.4,0.5,0.5,0.8c0.1,0.3,0,0.5-0.1,0.8c-0.2,0.4-0.3,0.9-0.5,1.3c0,0.1-0.1,0.2-0.2,0.2
		c-0.1,0.1-0.3,0-0.4,0c-0.3,0-0.6,0.1-0.9,0.2C45.4,54.4,43.8,54.7,41.9,54.4"/>
	<path class="st16" d="M42.1,54.4c0-1-0.1-2,0-3c0-0.1,0-0.1,0-0.2c0-0.1-0.1-0.1-0.2-0.1C41.7,51,41.4,51,41.2,51
		c0.1-0.6,0.1-1.2,0-1.7c-0.1-0.7-0.1-1.3,0-1.9"/>
	<path class="st16" d="M42.2,53.3c0.7,0.2,1.6,0.1,2.3-0.1c0.1-0.1,0.2-0.1,0.4-0.1c0.1,0,0.2,0,0.3,0.1c1,0.3,2.1,0.5,3.1,0.6"/>
	<path class="st16" d="M44.3,53.1c-0.3-0.6-0.5-0.9-0.9-1.4c0.3-0.1,0.7-0.2,1-0.2c0.1,0,0.2-0.1,0.3-0.2c0.1-0.1,0.1-0.2,0.1-0.3
		c0-0.4,0-0.9,0-1.3c0-0.1,0-0.2-0.1-0.3c0-0.1-0.1-0.1-0.2-0.2c-0.6-0.4-1.2-0.7-1.9-1c-0.1,0-0.1-0.1-0.2-0.1c0,0,0-0.1,0-0.2
		c0.1-0.6,0.2-1.1,0.2-1.7"/>
	<path class="st16" d="M44.9,50.6c0.6,0.2,1.3,0.4,1.9,0.6c0.2,0.1,0.4,0.1,0.6,0c0.1-0.1,0.2-0.2,0.3-0.3c0.4-0.7,0.6-1.1,1.2-1.6"
		/>
	<path class="st16" d="M47.7,50.2c-0.2,0-0.4-0.2-0.4-0.5c0-0.1,0.1-0.2,0-0.3c0,0-0.1-0.1-0.1-0.1c-0.2-0.1-0.4-0.2-0.6-0.3
		c-0.1,0-0.1-0.1-0.2-0.1c-0.1-0.1-0.1-0.2-0.1-0.3c0-0.9-0.8-1.4-1.4-2.1"/>
</g>
</svg>
