<?xml version="1.0" encoding="utf-8"?>
<!-- Generator: Adobe Illustrator 22.1.0, SVG Export Plug-In . SVG Version: 6.00 Build 0)  -->
<svg version="1.1" id="Layer_1" xmlns="http://www.w3.org/2000/svg" xmlns:xlink="http://www.w3.org/1999/xlink" x="0px" y="0px"
	 viewBox="0 0 80.6 75.2" style="enable-background:new 0 0 80.6 75.2;" xml:space="preserve">
<style type="text/css">
	.st0{fill:none;stroke:#000000;stroke-miterlimit:10;}
	.st1{fill:#FFFFFF;}
	.st2{fill:#7F5056;}
	.st3{fill:#9F6166;}
	.st4{fill:#B57D86;}
	.st5{fill:#4A1B25;}
	.st6{opacity:0.42;}
	.st7{fill:#CCAAA2;}
	.st8{fill:#915960;}
	.st9{opacity:6.000000e-02;fill:#FFFFFF;}
	.st10{opacity:0.49;}
	.st11{fill:#4F3136;}
	.st12{fill:#362222;}
	.st13{fill:#002A73;stroke:#002A73;stroke-width:0.25;stroke-miterlimit:10;}
	.st14{fill:#FFFFFF;stroke:#000000;stroke-miterlimit:10;}
	.st15{fill:#95725E;stroke:#FFFFFF;stroke-width:0.25;stroke-miterlimit:10;}
	.st16{fill:#353535;stroke:#FFFFFF;stroke-width:0.25;stroke-miterlimit:10;}
	.st17{fill:#FC5500;}
	.st18{fill:none;stroke:#000000;stroke-width:0.5;stroke-miterlimit:10;}
	.st19{fill:#3F2E19;}
	.st20{fill:none;stroke:#FFFFFF;stroke-width:0.25;stroke-miterlimit:10;}
	.st21{fill:none;}
	.st22{fill:#9F6166;stroke:#FFFFFF;stroke-width:0.25;stroke-miterlimit:10;}
	.st23{fill:#A60000;stroke:#FFFFFF;stroke-width:0.25;stroke-miterlimit:10;}
	.st24{fill:#1B8B00;}
	.st25{fill:#F7CCAD;stroke:#FFFFFF;stroke-width:0.25;stroke-miterlimit:10;}
	.st26{stroke:#FFFFFF;stroke-width:0.25;stroke-miterlimit:10;}
	.st27{fill:#A60000;}
</style>
<g>
	<path class="st18" d="M43.8,45.3c1.6,1.1,2.5,1,3.3,2.8c0.1,0.3,0.3,1.5,0.3,1.8c0,0.3-0.2,1.5-0.3,1.8c-1.2,2.4-2.8,2.7-5.5,2.7
		c-1.8,0-4-1.5-4.6-3.5c-0.3-1.1-0.2-2.4,0.4-3.4c0.6-1,1.6-1.8,2.8-2l0,0c0.2-5.6,0-12.7,0.1-18.3c0-1.3,0-2.8,0.2-4.1
		c0.2-1,0.5-2.6,2.4-2.6c1.6,0,1.5,1.4,1.5,2c0.1,0.6,0,1.3,0,2c-0.2,6.9-0.2,14.2-0.6,21"/>
	<path d="M41.5,47c0.1-2.9,0.4-18.7,0.4-22.1c0-0.5,0.3-0.4,0.4-0.4c0,0,0.4-0.1,0.4,0.4c0,3.4,0.2,18.5,0,22.1"/>
	<path d="M41.5,47c-0.6,0.1-1.7,0.5-2,1.2c-0.3,0.6-0.4,1.4-0.2,2c0.3,1.2,1.4,2.1,2.3,2.1c1.4,0,2.1-0.2,2.8-1.6
		c0.1-0.2,0.2-0.9,0.2-1.1c0-0.2-0.1-0.9-0.2-1.1c-0.4-1.1-0.9-0.9-1.7-1.5"/>
	<line class="st18" x1="42.6" y1="41.6" x2="44" y2="41.6"/>
	<line class="st18" x1="42.6" y1="38.7" x2="44" y2="38.7"/>
	<line class="st18" x1="42.6" y1="36" x2="44" y2="36"/>
	<line class="st18" x1="42.6" y1="33.2" x2="44" y2="33.2"/>
	<line class="st18" x1="42.6" y1="30.5" x2="44" y2="30.5"/>
	<line class="st18" x1="42.6" y1="27.6" x2="44" y2="27.6"/>
</g>
</svg>
