<?xml version="1.0" encoding="utf-8"?>
<!-- Generator: Adobe Illustrator 22.1.0, SVG Export Plug-In . SVG Version: 6.00 Build 0)  -->
<svg version="1.1" id="Layer_1" xmlns="http://www.w3.org/2000/svg" xmlns:xlink="http://www.w3.org/1999/xlink" x="0px" y="0px"
	 viewBox="0 0 80.6 75.2" style="enable-background:new 0 0 80.6 75.2;" xml:space="preserve">
<style type="text/css">
	.st0{fill:none;stroke:#000000;stroke-miterlimit:10;}
	.st1{fill:#FFFFFF;}
	.st2{fill:#7F5056;}
	.st3{fill:#9F6166;}
	.st4{fill:#B57D86;}
	.st5{fill:#4A1B25;}
	.st6{opacity:0.42;}
	.st7{fill:#CCAAA2;}
	.st8{fill:#915960;}
	.st9{opacity:6.000000e-02;fill:#FFFFFF;}
	.st10{opacity:0.49;}
	.st11{fill:#4F3136;}
	.st12{fill:#362222;}
	.st13{fill:#002A73;stroke:#002A73;stroke-width:0.25;stroke-miterlimit:10;}
	.st14{fill:#FFFFFF;stroke:#000000;stroke-miterlimit:10;}
	.st15{fill:#95725E;stroke:#FFFFFF;stroke-width:0.25;stroke-miterlimit:10;}
	.st16{fill:#353535;stroke:#FFFFFF;stroke-width:0.25;stroke-miterlimit:10;}
	.st17{fill:#FC5500;}
	.st18{fill:none;stroke:#000000;stroke-width:0.5;stroke-miterlimit:10;}
	.st19{fill:#3F2E19;}
	.st20{fill:none;stroke:#FFFFFF;stroke-width:0.25;stroke-miterlimit:10;}
	.st21{fill:none;}
	.st22{fill:#9F6166;stroke:#FFFFFF;stroke-width:0.25;stroke-miterlimit:10;}
	.st23{fill:#A60000;stroke:#FFFFFF;stroke-width:0.25;stroke-miterlimit:10;}
	.st24{fill:#1B8B00;}
	.st25{fill:#F7CCAD;stroke:#FFFFFF;stroke-width:0.25;stroke-miterlimit:10;}
	.st26{stroke:#FFFFFF;stroke-width:0.25;stroke-miterlimit:10;}
	.st27{fill:#A60000;}
</style>
<path class="st13" d="M50.1,33.8c-0.1,1.5-0.9,3.8-1.7,5c-1.8,3-2.8,5.4-2.2,8.6c0.5,2.7,5.2,2.5,6.7,2.1c1-0.3,1.8-1,2.2-1.7
	s0.3-1.8,0.2-2.6C54.7,41.3,50.4,38.4,50.1,33.8"/>
<path class="st13" d="M53.1,24.4c0,0.7-0.5,1.8-0.8,2.3c-0.9,1.4-1.4,2.5-1.1,3.9c0.2,1.3,2.4,1.2,3.1,1c0.5-0.1,0.8-0.4,1-0.8
	c0.2-0.3,0.2-0.8,0.1-1.2C55.2,27.9,53.2,26.5,53.1,24.4"/>
<path class="st13" d="M32.6,23.1c-0.1,2.1-1.4,5.2-2.4,6.8c-2.6,4.1-4,7.3-3.3,11.7c0.6,3.8,7,3.6,9,3.1c1.4-0.4,2.5-1.3,3-2.3
	s0.5-2.5,0.4-3.6c-0.7-5.4-6.4-9.4-6.7-15.7"/>
<path class="st13" d="M39.3,47.3c-0.1,0.8-0.5,1.8-0.9,2.4c-0.9,1.5-1.4,2.6-1.2,4.2c0.2,1.3,2.5,1.3,3.2,1.1
	c0.5-0.1,0.9-0.5,1.1-0.8c0.2-0.4,0.2-0.9,0.1-1.3C41.4,51,39.4,49.6,39.3,47.3"/>
<path class="st13" d="M43.5,13.6c-0.1,1.3-0.8,3.2-1.5,4.2c-1.6,2.5-2.5,4.5-2,7.2c0.4,2.3,4.3,2.2,5.6,1.9c0.9-0.2,1.5-0.8,1.9-1.4
	c0.3-0.6,0.3-1.5,0.2-2.2C47.3,19.9,43.7,17.5,43.5,13.6"/>
</svg>
