<?xml version="1.0" encoding="utf-8"?>
<!-- Generator: Adobe Illustrator 22.1.0, SVG Export Plug-In . SVG Version: 6.00 Build 0)  -->
<svg version="1.1" id="Layer_1" xmlns="http://www.w3.org/2000/svg" xmlns:xlink="http://www.w3.org/1999/xlink" x="0px" y="0px"
	 viewBox="0 0 684 337" style="enable-background:new 0 0 684 337;" xml:space="preserve">
<style type="text/css">
	.st0{fill:none;stroke:#000000;stroke-miterlimit:10;}
	.st1{fill:#FFFFFF;}
	.st2{fill:#7F5056;}
	.st3{fill:#9F6166;}
	.st4{fill:#B57D86;}
	.st5{fill:#4A1B25;}
	.st6{opacity:0.42;}
	.st7{fill:#CCAAA2;}
	.st8{fill:#915960;}
	.st9{opacity:6.000000e-02;fill:#FFFFFF;}
	.st10{opacity:0.49;}
	.st11{fill:#4F3136;}
	.st12{fill:#362222;}
	.st13{fill:#002A73;stroke:#002A73;stroke-width:0.25;stroke-miterlimit:10;}
	.st14{fill:#FFFFFF;stroke:#000000;stroke-miterlimit:10;}
	.st15{fill:#95725E;stroke:#FFFFFF;stroke-width:0.25;stroke-miterlimit:10;}
	.st16{fill:#353535;stroke:#FFFFFF;stroke-width:0.25;stroke-miterlimit:10;}
	.st17{fill:#FC5500;}
	.st18{fill:none;stroke:#000000;stroke-width:0.5;stroke-miterlimit:10;}
	.st19{fill:#3F2E19;}
	.st20{fill:none;stroke:#FFFFFF;stroke-width:0.25;stroke-miterlimit:10;}
	.st21{fill:none;}
	.st22{fill:#9F6166;stroke:#FFFFFF;stroke-width:0.25;stroke-miterlimit:10;}
	.st23{fill:#A60000;stroke:#FFFFFF;stroke-width:0.25;stroke-miterlimit:10;}
	.st24{fill:#1B8B00;}
	.st25{fill:#F7CCAD;stroke:#FFFFFF;stroke-width:0.25;stroke-miterlimit:10;}
	.st26{stroke:#FFFFFF;stroke-width:0.25;stroke-miterlimit:10;}
	.st27{font-family:'BookmanOldStyle';}
	.st28{font-size:17.0345px;}
	.st29{fill:#A60000;}
</style>
<path class="st2" d="M85.7,36.3c-6,0.4-11.7,1.3-11.7,1.3C62.1,35.8,55.1,38,55.1,38c-11.3-0.5-17.2,1.4-17.2,1.4
	c-8.7,0.7-11.3,2.1-11.3,5.4c0,6.2,5.3,37.2,65,37.3c52.3,0.1,53.3-31.1,53.3-37.7c0-3.3-2.2-3.8-10.9-4.5c0,0-7.6-3.3-19.2-2.3
	c0,0-6.7-1.8-18.6,0c0,0-3.4-0.9-9.4-1.3H85.7z"/>
<g>
	<path class="st3" d="M135.9,39.8c-1.2,0-2.4-0.2-3.3-0.7c-0.3,5.9-1.3,14.6-3.7,27.3c-4.3,22.8-10.7,50.8-12,66.2
		c-1.8,22.2,1.6,70.7-1.5,83.9c0,0,5.9-0.1,6.9-11.1c0.5-5.5,0.8-10.5,1.1-15.6c0.5-11,0.7-21.9,1.6-37.7c0.3-5.5,0.7-11.6,1.3-18.5
		c0.8-10.3,2.8-21,5.1-31.7l0,0c2.1-9.9,4.6-19.8,6.9-29.5c2.4-10.1,4.4-20.4,5.7-30.1c-1.6-0.5-3.1-1.2-4.5-2
		C138.3,40.3,137.1,40.1,135.9,39.8z"/>
	<path class="st3" d="M131.9,38.8C131.9,38.8,131.9,38.7,131.9,38.8c-0.6-0.2-1.1-0.3-1.7-0.4c-0.2,0-0.4,0-0.6-0.1
		c-0.5,0-0.9-0.1-1.4-0.3c-0.4-0.1-0.8-0.2-1.2-0.4c-0.8-0.1-1.6-0.2-2.5-0.3c-0.2,0-0.4-0.1-0.5-0.1c-0.5,0-1-0.1-1.5-0.2
		c-0.3,0.1-0.6,0.1-1,0.2c-0.9,0.1-1.6,0-2.5,0c-0.3,0-0.6-0.1-0.8-0.1c-0.8,0.1-1.6,0.2-2.5,0.2c0.3,5.8,0.6,14.7,0.2,18.1
		c-4.1,36.6-9.5,78-10.5,112.1c-0.8,28.6,0.3,49.8-1.4,52.5c0,0,7.3,3.6,11.3-3.4c0,0,3-2.8,1.2-48C115.2,131,131.4,69,132.7,39.2
		C132.4,39.1,132.2,38.9,131.9,38.8z"/>
	<path class="st3" d="M115.5,37.2c-2.8,0-5.6-0.4-8.1-1.2c-1.1,0-2.3,0-3.4-0.1c-2.8,1-5.7,1.5-8.7,1.6c-0.1,4.5-0.1,12-0.3,21.4
		c-0.7,50.3-2.3,155.8-5.1,162.5c0,0,7.2,5.8,14.3-1.5c0,0,3-7.2,2.3-34.8c-0.5-20.4,0.7-43.9,3.8-70.3c4.4-37.6,7.5-59.2,5.9-77.7
		C116,37.2,115.7,37.2,115.5,37.2z"/>
	<path class="st3" d="M84.2,36.3C84,98.9,84,160.9,84,224.3"/>
	<path class="st3" d="M54.6,132.7c-1.3-15.4-7.6-43.4-12-66.2c-2.5-13-3.4-21.9-3.7-27.7c-0.2,0-0.4,0.1-0.6,0.1
		c-0.2,0-0.5,0.1-0.8,0.1c-0.1,0-0.2,0-0.4,0c-0.1,0-0.2,0-0.3,0c-0.1,0-0.1,0-0.2,0c-0.5,0.1-1.1,0.2-1.6,0.2c-1,0-1.1,0-0.3,0
		c-0.5,0.2-1,0.4-1.6,0.6c-0.7,0.2-1.4,0.4-2.1,0.6c-0.4,0.3-0.8,0.6-1.2,0.9c-0.2,0.1-0.4,0.3-0.6,0.4c-0.2,0.1-0.4,0.3-0.7,0.4
		c-0.3,0.6-0.6,1.1-1,1.6c1.3,9.3,3.2,19.2,5.5,28.9c2.3,9.7,4.7,19.6,6.9,29.5l0,0c2.3,10.7,4.2,21.4,5.1,31.7
		c0.6,6.9,1,13,1.3,18.5c0.9,15.7,1.1,26.7,1.6,37.7c0.2,5,0.6,10.1,1.1,15.6c1,11,6.9,11.1,6.9,11.1
		C53,203.4,56.4,154.9,54.6,132.7z"/>
	<path class="st3" d="M66,167.4c-1-34.1-6.4-75.5-10.5-112.1c-0.4-3.5-0.1-12.3,0.2-18.1c-1.3,0.2-2.7,0.3-4,0.3
		c-0.7,0-1.4,0-2.2-0.1c-0.6,0.1-1.1,0.2-1.7,0.1c-0.6-0.1-1.2-0.2-1.8-0.3c-0.1,0-0.2,0-0.2,0c0,0,0,0-0.1,0
		c-0.6,0.1-1.3,0.2-2,0.2c-1.2,0.4-2.3,0.7-3.5,0.9c-0.2,0.1-0.5,0.1-0.7,0.2c-0.2,0-0.5,0.1-0.7,0.1c0,0,0,0,0,0
		c1.2,29.6,17.5,92,16.1,129.7c-1.7,45.2,1.2,48,1.2,48c4,7,11.3,3.4,11.3,3.4C65.7,217.3,66.8,196,66,167.4z"/>
	<path class="st3" d="M76.5,59c-0.1-9.6-0.2-17.2-0.3-21.7c-3.4,0.6-6.6-1-10.3-0.8c-0.1,0-0.2,0-0.3-0.1c-0.7,0.2-1.5,0.3-2.3,0.3
		c-1.2,0-2.3-0.2-3.2-0.6c-1.6,0.5-3.2,0.9-4.9,1.1c-1.6,18.4,1.5,40,5.9,77.5c3.1,26.5,4.3,50,3.8,70.3
		c-0.7,27.6,2.3,34.8,2.3,34.8c7.1,7.3,14.3,1.5,14.3,1.5C78.9,214.8,77.2,109.3,76.5,59z"/>
	<path class="st3" d="M94.5,37.6c-2.6-0.3-5.1-0.7-7.7-1c-0.9-0.2-1.8-0.5-2.7-0.8c-2.1,0.8-4.3,1.3-6.6,1.4
		c-0.8,0.2-1.6,0.3-2.4,0.4c-1.9,10.9-1.4,29.2-0.3,51.3c1.7,34.1,4.3,56.4,3.5,90.9c-0.6,28.8,0.6,41.7,0.6,41.7
		c2.3,3.2,5.4,3.1,7.3,3.2c2,0.1,4.7,0.1,6.8-2.9c0,0,0.9-13.2,0.2-42c-0.8-34.6,1.8-56.9,3.5-90.9c1.1-22,1.6-40.3-0.3-51.2
		C95.8,37.6,95.2,37.6,94.5,37.6z"/>
</g>
<g>
	<g>
		<path class="st4" d="M39.7,42.7c2.7,13.4,5.3,26.7,7.6,40.2c1.2,6.7,2.2,13.5,3.2,20.2c0.9,6.7,1.9,13.5,2.4,20.4
			c0.5,6.8,0.8,13.7,0.9,20.5c0.1,6.8,0.2,13.6,0.2,20.5c0,13.6,0,27.2,0.7,40.8c-1-6.7-1.5-13.6-2.1-20.4c-0.4-6.8-0.7-13.6-1-20.4
			c-0.5-13.6-0.7-27.2-1.8-40.7c-0.4-6.7-1.4-13.5-2.2-20.2C46.8,96.7,45.9,90,45,83.2C43.1,69.8,41.3,56.3,39.7,42.7z"/>
	</g>
	<g>
		<path class="st4" d="M53.7,39.8c1.3,14.1,3.7,28,6.1,42c1.2,7,2.3,14,3.2,21c0.9,7.1,1.6,14.2,2,21.3c0.4,7.1,0.6,14.2,0.7,21.3
			c0,7.1,0,14.2-0.2,21.3c-0.4,14.2-0.7,28.2,0.4,42.4c-2.8-13.9-3.3-28.3-3.5-42.4c-0.2-7.1-0.2-14.1-0.5-21.2
			c-0.2-7.1-0.5-14.1-0.9-21.1c-0.7-14.1-2.6-28-4.3-42.1C54.9,68.2,53.3,54,53.7,39.8z"/>
	</g>
	<g>
		<path class="st4" d="M131.3,40.4c-1.6,13.8-3.4,27.5-5.3,41.2c-0.9,6.9-2.1,13.7-2.9,20.6c-0.8,6.9-1.5,13.7-2.1,20.6
			c-0.6,6.9-1,13.8-1.4,20.7c-0.4,6.9-0.6,13.8-0.9,20.7l-0.6,20.8l-0.3,10.4l-0.1,2.6c0,0.9-0.2,1.8-0.4,2.6
			c-0.5,1.7-1.1,3.3-1.9,4.9c0.6-1.6,1.1-3.3,1.4-5c0.2-0.8,0.3-1.7,0.2-2.5l-0.1-2.6l-0.3-10.4c-0.2-6.9-0.3-13.9-0.2-20.8
			c0-13.9,0.5-27.8,1.6-41.6c0.6-6.9,1.3-13.8,2.3-20.7l0.8-5.2l0.9-5.1l1.8-10.2C126,67.6,128.6,54,131.3,40.4z"/>
	</g>
	<g>
		<path class="st4" d="M116.6,40.1c0.6,3.2,0.4,6.5,0.2,9.7c-0.2,3.2-0.6,6.4-0.5,9.5c0,0,0,0.1,0,0.1l0,0.1
			c-1.5,12.5-3.3,24.9-4.9,37.3c-0.4,3.1-0.8,6.2-1.1,9.3c-0.4,3.1-0.7,6.2-1,9.3c-0.2,3.1-0.5,6.2-0.6,9.3
			c-0.2,3.1-0.3,6.2-0.4,9.3c-0.1,3.1-0.2,6.2-0.2,9.4l-0.1,9.4c0,6.3-0.1,12.5-0.2,18.8c-0.3,12.6-1.1,25.2-3.5,37.6
			c0.9-12.5,0.9-25,0.6-37.6l-0.4-18.8c-0.1-6.3-0.2-12.6,0-18.9c0.1-3.2,0.2-6.3,0.4-9.5c0.2-3.2,0.5-6.3,0.7-9.5
			c0.4-3.1,0.7-6.3,1.1-9.4c0.4-3.1,0.9-6.2,1.4-9.3c1.9-12.4,4.2-24.8,6.6-37.1l0,0.1c0.1-3.3,0.8-6.5,1.3-9.6
			C116.3,46.5,116.8,43.3,116.6,40.1z"/>
	</g>
	<g>
		<path class="st4" d="M74,39.5c1.6,14.2,2.7,28.4,3.6,42.6c0.5,7.1,0.8,14.2,1.2,21.3c0.3,7.1,0.6,14.2,0.9,21.3
			c0.2,7.1,0.4,14.2,0.5,21.3c0.1,7.1,0.2,14.2,0.2,21.4c0,14.2-0.3,28.5-1,42.7c-0.9-14.2-1.5-28.4-2.1-42.7
			c-0.2-3.6-0.3-7.1-0.4-10.7l-0.4-10.7l-0.7-21.3L75,103.5c-0.2-7.1-0.4-14.2-0.5-21.3C74.2,67.9,73.9,53.7,74,39.5z"/>
	</g>
	<g>
		<path class="st4" d="M96.2,40.7C96.8,54.8,96.9,69,97,83.1c0,7.1-0.1,14.1-0.1,21.2l-0.4,21.2l-0.8,21.2
			c-0.4,7.1-0.6,14.1-1.1,21.2c-0.9,14.1-2,28.2-3.6,42.3c0-14.1,0.2-28.3,0.5-42.4c0.1-3.5,0.1-7.1,0.2-10.6l0.2-10.6l0.5-21.2
			l0.7-21.2c0.3-7.1,0.5-14.1,0.8-21.2C94.4,68.9,95.1,54.8,96.2,40.7z"/>
	</g>
	<g>
		<path class="st5" d="M39.4,42.7l3.4,20.1c1.1,6.7,2.1,13.4,3.1,20.1c1.9,13.4,3.6,26.9,5,40.4c1.3,13.5,2.3,27.1,2.7,40.6
			c0.3,6.8,0.2,13.6,0.2,20.4c0,1.7,0,3.4,0,5.1c0,1.7-0.1,3.4-0.1,5.1c0,3.4,0.4,6.8,1.5,10c-1.2-3.2-1.7-6.6-1.8-10
			c-0.1-1.7-0.1-3.4-0.1-5.1c0-1.7-0.1-3.4-0.1-5.1c-0.2-6.8-0.2-13.6-0.5-20.3c-0.6-13.5-1.6-27.1-3-40.6c-1.3-13.5-3-27-4.8-40.4
			c-0.9-6.7-1.8-13.4-2.8-20.2L39.4,42.7z"/>
	</g>
	<g>
		<path class="st5" d="M54.2,39.4c0.9,14.1,3.1,28.1,5.3,42.1c1.1,7,2.1,14,2.9,21c0.8,7,1.4,14.1,1.8,21.2
			c0.8,14.1,1.2,28.3,1.2,42.5c0,7.1-0.1,14.1-0.2,21.2l-0.1,5.3c0,1.8-0.2,3.5-0.2,5.3c-0.1,1.8,0,3.5,0.2,5.3
			c0.2,1.7,0.6,3.5,1.5,5c-1-1.5-1.5-3.2-1.7-5c-0.3-1.8-0.3-3.5-0.3-5.3c0-1.8,0.1-3.5,0-5.3l-0.1-5.3c-0.1-7.1-0.1-14.1-0.3-21.2
			c-0.2-14.1-0.6-28.3-1.5-42.4c-0.4-7.1-1-14.1-1.7-21.1c-0.7-7-1.7-14-2.7-21c-1-7-1.9-14-2.7-21.1C54.9,53.6,54.3,46.5,54.2,39.4
			z"/>
	</g>
	<g>
		<path class="st5" d="M131.9,40.5c-0.4,6.9-1.1,13.7-2.1,20.5c-1,6.8-2.2,13.6-3.4,20.4c-1.2,6.8-2.4,13.5-3.4,20.3
			c-1,6.8-1.7,13.6-2.3,20.5c-1.1,13.7-1.5,27.5-2,41.2c-0.3,6.9-0.6,13.8-1,20.6c-0.4,6.9-1,13.7-1.6,20.6
			c0.5-6.9,0.8-13.7,1.1-20.6c0.3-6.9,0.5-13.7,0.8-20.6c0.4-13.8,0.8-27.5,1.8-41.3c0.6-6.9,1.3-13.7,2.4-20.5
			c1-6.8,2.3-13.6,3.6-20.3c1.3-6.8,2.6-13.5,3.7-20.3C130.5,54.2,131.4,47.4,131.9,40.5z"/>
	</g>
	<g>
		<path class="st5" d="M117.1,40.1c-0.2,7-0.9,14.1-1.7,21.1c-0.8,7-1.8,14-2.8,20.9c-0.9,7-1.9,13.9-2.5,20.9c-0.7,7-1.2,14-1.6,21
			c-1,14-1.4,28.1-1.7,42.2c-0.1,7-0.2,14.1-0.5,21.1c-0.3,7-0.7,14.1-1.6,21.1c0.5-7,0.8-14.1,0.8-21.1c0.1-7,0.1-14.1,0.1-21.1
			c0-14.1,0.5-28.2,1.4-42.2c0.5-7,1-14.1,1.7-21.1c0.7-7,1.7-14,2.8-21c1.1-7,2.2-13.9,3.2-20.9C115.8,54.1,116.6,47.1,117.1,40.1z
			"/>
	</g>
	<g>
		<path class="st5" d="M74.6,39.7c0.4,7.1,0.7,14.1,1.2,21.2c0.4,7.1,0.9,14.1,1.4,21.2c1,14.1,1.9,28.3,2.1,42.4
			c0.2,14.2,0.2,28.3,0.1,42.5c0,7.1,0,14.1,0.1,21.2c0,7.1,0.2,14.1,0.4,21.2c-0.6-7.1-1-14.1-1.4-21.2c-0.3-7.1-0.5-14.2-0.7-21.2
			c-0.3-14.2-0.3-28.3-0.6-42.4c-0.1-14.1-1-28.2-1.6-42.4C75.4,75,75,68,74.8,60.9C74.6,53.8,74.5,46.7,74.6,39.7z"/>
	</g>
	<g>
		<path class="st5" d="M96.8,40.9c0,3.5-0.1,7-0.2,10.5L96.6,62l-0.1,10.5l0,10.5l-0.1,42.1c-0.2,14.1-0.4,28.1-1.2,42.2l-0.6,10.5
			l-0.8,10.5l-1,10.5c-0.4,3.5-0.8,7-1.2,10.5c0.2-3.5,0.4-7,0.7-10.5l0.6-10.5l0.5-10.5l0.3-10.5c0.4-14,0.6-28.1,0.7-42.1
			c0.2-14,0.3-28.1,0.6-42.1l0.3-10.5L95.6,62l0.5-10.5C96.3,47.9,96.6,44.4,96.8,40.9z"/>
	</g>
</g>
<path class="st6" d="M85.7,36.3c-6,0.4-11.7,1.3-11.7,1.3C62.1,35.8,55.1,38,55.1,38c-11.3-0.5-17.2,1.4-17.2,1.4
	c-8.7,0.7-11.3,2.1-11.3,5.4c0,6.2,4.4,33,56,33c59.5,0,62.3-26.9,62.3-33.4c0-3.3-2.2-4.1-10.9-4.7c0,0-7.6-3.1-19.2-2
	c0,0-6.7-1.8-18.6,0c0,0-3.4-0.9-9.4-1.3H85.7z"/>
<path class="st7" d="M53.4,232.2c0,0-0.7,3.2,0,7.2c0.1,0.8,5.9,13.9,34.9,13.9c28.3,0,32.3-12.4,32.4-13.9c0.3-3.1,0-7.2,0-7.2
	H53.4z"/>
<path class="st8" d="M53.4,232.9c0,0-0.7,2.9,0,6.5c0.1,0.7,5.9,12.5,34.9,12.5c28.3,0,32.3-11.2,32.4-12.5c0.3-2.8,0-6.5,0-6.5
	H53.4z"/>
<path class="st9" d="M53.6,233.2c0,0-0.7,2.9,0,6.5c0.1,0.7,5.9,12.5,34.9,12.5c28.3,0,32.3-11.2,32.4-12.5c0.3-2.8,0-6.5,0-6.5
	H53.6z"/>
<path class="st3" d="M126.6,211.5c-0.2,5-0.6,10.1-1.1,15.6c-1,11-6.9,11.1-6.9,11.1c-4,7-11.3,3.4-11.3,3.4
	c-7.1,7.3-14.3,1.5-14.3,1.5c-2.4,3.3-5.9,2.8-5.9,2.8s-3.9,0.4-6.1-2.8c0,0-7.2,5.8-14.3-1.5c0,0-7.2,3.6-11.2-3.4
	c0,0-5.9-0.1-6.9-11.1c-0.5-5.6-0.8-10.8-1.1-15.9c0,0,17.8,9.9,39.4,9.9C108.5,221,126.6,211.5,126.6,211.5z"/>
<path class="st3" d="M39.5,123.1c2.4,10.8,4.3,21.7,5.2,32.2c0.5,5.7,1,13.8,1.3,18.5c0,0,18.2,10.2,41,10.2
	c22.5,0,41.2-10.2,41.2-10.2c0.3-5.5,0.7-11.6,1.3-18.5c0.8-10.3,2.8-21,5.1-31.7c0,0-17.6,10.4-47.6,10.4S39.5,123.1,39.5,123.1z"
	/>
<path class="st3" d="M46,173.8c1.1,17.2,1.1,25.8,1.6,37.3c0,0,17.2,9.9,39.4,9.9c20.9,0,39.6-9.5,39.6-9.5
	c0.5-11,0.7-21.9,1.6-37.7c0,0-19.2,10.2-41.2,10.2C63.6,184,46,173.8,46,173.8z"/>
<path class="st3" d="M39.5,123.2c-2.1-9.5-4.4-18.9-6.6-28.2c-4.1-17.4-6.7-37.2-6.4-51.8c0,0,1.1,6,12.9,6c0,0,4.4,3.8,15.3,4.3
	c0,0,8.8,2.6,20.9,0.8c0,0,4.8,0.7,10.9,1.1h0.8c6.1-0.4,10.9-1.1,10.9-1.1c12.1,2.1,18.6-1.5,18.6-1.5c11.8,0.1,15.6-3.6,15.6-3.6
	c12.1-1.8,13.3-6.5,13.3-6.5c0.3,14.3-0.4,34.3-4.4,51.4c-2.3,9.7-4.7,19.6-6.9,29.5c0,0-13.1,10.2-48.7,10.2
	C51.5,133.8,39.5,123.2,39.5,123.2z"/>
<g>
	<path class="st4" d="M37.3,51.7c0.3,7.9,1.2,15.6,2.5,23.4c1.2,7.7,2.6,15.5,4,23.2c1.4,7.7,2.8,15.5,4.1,23.2
		c0.6,3.9,1.2,7.8,1.8,11.7l0.8,5.8l0.7,5.9c1.9,15.6,3.1,31.4,3.1,47.1c0.1,7.9-0.1,15.7-0.3,23.6c-0.1,3.9-0.2,7.8-0.2,11.8
		c0,2,0,3.9,0.1,5.9c0.1,1,0.1,2,0.2,2.9c0.1,1,0.3,1.9,0.8,2.8c-0.6-0.8-0.8-1.8-1-2.8c-0.2-1-0.3-1.9-0.5-2.9
		c-0.2-2-0.4-3.9-0.5-5.9c-0.2-3.9-0.3-7.9-0.5-11.8c-0.2-7.9-0.3-15.7-0.6-23.5c-0.1-3.9-0.3-7.8-0.5-11.7
		c-0.2-3.9-0.6-7.8-0.8-11.7c-0.3-3.9-0.7-7.8-1.1-11.7c-0.4-3.9-0.8-7.8-1.3-11.7c-1.8-15.6-4.4-31-6.8-46.6
		c-1.2-7.8-2.3-15.6-3.1-23.4C37.6,67.4,37,59.6,37.3,51.7z"/>
</g>
<g>
	<path class="st4" d="M54.2,54.3c-0.2,7.9,0.1,15.8,1,23.6c0.8,7.8,2.1,15.6,3.3,23.3c1.3,7.8,2.5,15.6,3.7,23.4
		c1.1,7.8,1.9,15.7,2.7,23.6c0.6,7.9,1.1,15.8,1.4,23.7c0.2,7.9,0.3,15.8,0.2,23.7c-0.1,7.9-0.4,15.8-0.6,23.7
		c-0.1,3.9-0.3,7.9-0.3,11.8c0,2,0,3.9,0.1,5.9c0,1,0.1,2,0.2,2.9c0.2,1,0.3,2,0.8,2.8c-0.6-0.8-0.9-1.8-1.1-2.7
		c-0.2-1-0.4-1.9-0.5-2.9c-0.3-2-0.4-3.9-0.6-5.9c-0.3-4-0.4-7.9-0.5-11.9l-0.6-23.7c-0.4-15.8-1.1-31.5-2.5-47.1
		c-1.3-15.7-3.4-31.2-5.4-46.9c-1-7.8-1.9-15.7-2.2-23.7C52.9,70,53.1,62.1,54.2,54.3z"/>
</g>
<g>
	<path class="st4" d="M135.5,51.9c0.3,7.9-0.3,15.7-1,23.6c-0.8,7.8-1.9,15.6-3.1,23.4c-2.4,15.5-4.9,31-6.8,46.6
		c-0.5,3.9-0.9,7.8-1.3,11.7c-0.4,3.9-0.7,7.8-1.1,11.7c-0.3,3.9-0.6,7.8-0.8,11.7c-0.2,3.9-0.4,7.8-0.5,11.7
		c-0.3,7.8-0.4,15.7-0.6,23.5c-0.1,3.9-0.2,7.9-0.5,11.8c-0.1,2-0.2,3.9-0.5,5.9c-0.1,1-0.3,2-0.5,2.9c-0.2,1-0.4,1.9-1,2.8
		c0.5-0.9,0.6-1.8,0.8-2.8c0.1-1,0.2-1.9,0.2-2.9c0.1-2,0.1-3.9,0.1-5.9c0-3.9-0.1-7.8-0.2-11.8c-0.2-7.8-0.3-15.7-0.3-23.6
		c0-15.8,1.2-31.5,3.1-47.1l0.7-5.9l0.8-5.8c0.5-3.9,1.2-7.8,1.8-11.7c1.3-7.8,2.6-15.5,4.1-23.2c1.4-7.7,2.8-15.4,4-23.2
		C134.2,67.5,135.1,59.7,135.5,51.9z"/>
</g>
<g>
	<path class="st4" d="M118.6,54.3c1.1,7.8,1.3,15.8,1,23.7c-0.3,7.9-1.2,15.8-2.2,23.7c-2,15.7-4.1,31.2-5.4,46.9
		c-1.4,15.7-2.1,31.4-2.5,47.1l-0.6,23.7c-0.1,3.9-0.3,7.9-0.5,11.9c-0.1,2-0.3,4-0.6,5.9c-0.1,1-0.3,2-0.5,2.9
		c-0.3,1-0.5,2-1.1,2.7c0.5-0.8,0.7-1.8,0.8-2.8c0.1-1,0.2-2,0.2-2.9c0.1-2,0.1-3.9,0.1-5.9c-0.1-3.9-0.2-7.9-0.3-11.8
		c-0.2-7.9-0.5-15.8-0.6-23.7c-0.1-7.9,0-15.8,0.2-23.7c0.3-7.9,0.8-15.8,1.4-23.7c0.8-7.9,1.6-15.8,2.7-23.6
		c1.1-7.8,2.3-15.6,3.7-23.4c1.3-7.8,2.5-15.5,3.3-23.3C118.5,70.1,118.8,62.2,118.6,54.3z"/>
</g>
<g>
	<path class="st4" d="M75.1,55c0,7.9,0.4,15.7,0.9,23.6c0.5,7.9,1.1,15.7,1.7,23.5c0.6,7.8,1.1,15.7,1.7,23.6
		c0.5,7.9,0.9,15.7,1.3,23.6c0.3,7.9,0.5,15.8,0.6,23.7c0,7.9,0.1,15.8-0.1,23.7c-0.1,7.9-0.3,15.8-0.5,23.6l-0.4,11.8
		c-0.1,2-0.1,3.9-0.1,5.9c0,1,0,2,0,3c0,0.5,0,1,0,1.5c0,0.2,0,0.5,0.1,0.7c0,0.2,0,0.5,0.2,0.7c-0.2-0.2-0.2-0.4-0.3-0.7
		c-0.1-0.2-0.1-0.5-0.1-0.7c-0.1-0.5-0.1-1-0.2-1.5c-0.1-1-0.2-2-0.3-3c-0.1-2-0.3-3.9-0.4-5.9c-0.2-3.9-0.3-7.9-0.5-11.8
		c-0.2-7.9-0.5-15.7-0.6-23.6l-0.6-23.6c-0.2-7.9-0.4-15.7-0.8-23.6c-0.3-7.9-0.7-15.7-1.1-23.6c-0.3-7.9-0.8-15.7-1-23.6
		c-0.3-7.9-0.5-15.8-0.5-23.7C74.1,70.8,74.2,62.8,75.1,55z"/>
</g>
<g>
	<path class="st4" d="M97.8,55c1.4,15.7,1.2,31.6,0.9,47.3l-0.5,23.6c-0.2,7.9-0.4,15.7-0.4,23.6c-0.1,7.8-0.1,15.7-0.2,23.6
		c-0.2,7.9-0.4,15.8-0.7,23.6c-0.3,7.9-0.8,15.8-1.3,23.6c-0.3,3.9-0.6,7.9-1,11.8c-0.2,2-0.4,3.9-0.7,5.9c-0.1,1-0.3,2-0.5,2.9
		c-0.1,0.5-0.2,1-0.3,1.5c-0.1,0.5-0.2,1-0.6,1.4c0.3-0.4,0.3-0.9,0.4-1.4c0.1-0.5,0.1-1,0.2-1.5c0.1-1,0.1-2,0.2-2.9
		c0.1-2,0.2-3.9,0.2-5.9c0.1-3.9,0.2-7.9,0.2-11.8c0.1-7.9,0.1-15.7,0.2-23.6l0.1-47.2c0.1-7.9,0.3-15.8,0.6-23.7
		c0.3-7.9,0.7-15.8,1.2-23.6C96.5,86.5,97.6,70.8,97.8,55z"/>
</g>
<g>
	<path class="st5" d="M38,50.9c0.1,7.9,0.9,15.7,2,23.4c1.1,7.8,2.3,15.5,3.7,23.3c2.7,15.5,5.3,31,7.2,46.6
		c0.5,3.9,0.9,7.8,1.3,11.7c0.4,3.9,0.7,7.8,1,11.7c0.2,3.9,0.5,7.8,0.7,11.8c0.2,3.9,0.3,7.9,0.3,11.8c0.1,7.9,0.1,15.7,0,23.6
		c0,3.9-0.1,7.9,0,11.8c0,2,0.1,3.9,0.2,5.9c0.1,1,0.2,2,0.3,2.9c0.2,1,0.3,1.9,0.9,2.8c-0.5-0.8-0.7-1.8-0.9-2.8
		c-0.2-1-0.3-1.9-0.4-2.9c-0.2-2-0.3-3.9-0.4-5.9c-0.1-3.9-0.2-7.9-0.2-11.8c-0.1-7.9-0.1-15.7-0.3-23.5
		c-0.4-15.7-1.6-31.3-3.6-46.9c-0.9-7.8-2.1-15.6-3.2-23.3l-3.8-23.3C40.4,82.3,37.9,66.7,38,50.9z"/>
</g>
<g>
	<path class="st5" d="M54.8,53.5c-1.1,15.8,0.9,31.5,3.3,47.1c1.2,7.8,2.4,15.6,3.4,23.4c1.1,7.8,1.9,15.7,2.6,23.6
		c0.6,7.9,1.1,15.8,1.4,23.7c0.3,7.9,0.5,15.8,0.4,23.7c0,7.9-0.1,15.8-0.2,23.7c-0.1,3.9-0.1,7.9-0.1,11.8c0,2,0.1,3.9,0.2,5.9
		c0.1,1,0.2,2,0.3,2.9c0.2,1,0.4,2,0.9,2.8c-0.6-0.8-0.8-1.8-1-2.7c-0.2-1-0.3-2-0.4-2.9c-0.2-2-0.3-3.9-0.4-5.9
		c-0.2-3.9-0.2-7.9-0.3-11.8c-0.1-7.9-0.1-15.8-0.2-23.7c-0.1-7.9-0.3-15.8-0.6-23.6c-0.4-7.9-0.9-15.7-1.6-23.6
		c-0.7-7.8-1.5-15.7-2.5-23.5c-1-7.8-2.2-15.6-3.2-23.4C56,92.9,55,85.1,54.5,77.2C54,69.3,54,61.4,54.8,53.5z"/>
</g>
<g>
	<path class="st5" d="M136.1,51.1c0.1,15.7-2.5,31.3-4.9,46.8l-3.8,23.3c-1.2,7.8-2.3,15.5-3.2,23.3c-1.9,15.6-3.2,31.2-3.6,46.9
		c-0.2,7.8-0.2,15.7-0.3,23.5c0,3.9-0.1,7.9-0.2,11.8c-0.1,2-0.2,3.9-0.4,5.9c-0.1,1-0.2,2-0.4,2.9c-0.2,1-0.4,1.9-0.9,2.8
		c0.5-0.8,0.7-1.8,0.9-2.8c0.2-1,0.2-1.9,0.3-2.9c0.1-2,0.2-3.9,0.2-5.9c0.1-3.9,0-7.8,0-11.8c0-7.9-0.1-15.7,0-23.6
		c0.1-3.9,0.2-7.9,0.3-11.8c0.2-3.9,0.5-7.8,0.7-11.8c0.3-3.9,0.6-7.8,1-11.7c0.4-3.9,0.8-7.8,1.3-11.7c1.9-15.6,4.5-31.1,7.2-46.6
		c1.3-7.7,2.6-15.5,3.7-23.3C135.2,66.8,136,59,136.1,51.1z"/>
</g>
<g>
	<path class="st5" d="M119.3,53.6c0.8,7.9,0.8,15.8,0.4,23.7c-0.5,7.9-1.5,15.7-2.6,23.6c-1,7.8-2.2,15.6-3.2,23.4
		c-1,7.8-1.8,15.7-2.5,23.5c-0.7,7.9-1.2,15.7-1.6,23.6c-0.4,7.9-0.5,15.8-0.6,23.6c-0.1,7.9-0.1,15.8-0.2,23.7
		c-0.1,3.9-0.1,7.9-0.3,11.8c-0.1,2-0.2,3.9-0.4,5.9c-0.1,1-0.3,2-0.4,2.9c-0.2,1-0.4,2-1,2.7c0.6-0.8,0.7-1.8,0.9-2.8
		c0.1-1,0.3-2,0.3-2.9c0.1-2,0.2-3.9,0.2-5.9c0.1-3.9,0-7.9-0.1-11.8c-0.1-7.9-0.2-15.8-0.2-23.7c0-7.9,0.1-15.8,0.4-23.7
		c0.3-7.9,0.8-15.8,1.4-23.7c0.7-7.9,1.6-15.7,2.6-23.6c1.1-7.8,2.2-15.6,3.4-23.4C118.4,85.1,120.3,69.4,119.3,53.6z"/>
</g>
<g>
	<path class="st5" d="M75.8,54.3c-0.2,7.9,0,15.7,0.4,23.6c0.3,7.9,0.8,15.7,1.4,23.6c1,15.7,2,31.4,2.8,47.2
		c0.3,7.9,0.5,15.8,0.6,23.6c0.1,7.9,0.2,15.8,0.1,23.6l-0.2,23.6l-0.2,11.8c0,2,0,3.9,0,5.9c0,1,0,2,0.1,3c0,0.5,0,1,0.1,1.5
		c0,0.2,0,0.5,0.1,0.7c0.1,0.2,0.1,0.5,0.2,0.7c-0.2-0.2-0.2-0.4-0.3-0.7c-0.1-0.2-0.1-0.5-0.1-0.7c-0.1-0.5-0.1-1-0.2-1.5
		c-0.1-1-0.2-2-0.2-3c-0.1-2-0.2-3.9-0.2-5.9l-0.3-11.8l-0.3-23.6c-0.3-15.7-0.4-31.5-1.2-47.2c-0.3-7.9-0.7-15.7-1.1-23.6
		c-0.4-7.9-0.9-15.7-1.2-23.6C75.3,85.8,74.6,70,75.8,54.3z"/>
</g>
<g>
	<path class="st5" d="M98.5,54.3C99,62.1,99,70,99.1,77.9c-0.1,7.9-0.3,15.8-0.5,23.6c-0.4,15.7-1,31.5-1.1,47.2
		c-0.1,15.7-0.2,31.5-0.7,47.3c-0.3,7.9-0.6,15.8-1,23.6c-0.2,3.9-0.5,7.9-0.8,11.8c-0.2,2-0.3,3.9-0.6,5.9c-0.1,1-0.2,2-0.4,2.9
		c-0.1,0.5-0.2,1-0.3,1.5c-0.1,0.5-0.2,1-0.5,1.4c0.3-0.4,0.3-0.9,0.5-1.4c0.1-0.5,0.1-1,0.2-1.5c0.1-1,0.2-2,0.3-2.9
		c0.1-2,0.3-3.9,0.3-5.9c0.2-3.9,0.3-7.9,0.4-11.8c0.2-7.9,0.4-15.7,0.5-23.6l0.2-23.6l0-23.6c0.2-15.8,0.8-31.5,1.6-47.3
		c0.4-7.9,0.7-15.7,1-23.6C98.4,70,98.5,62.1,98.5,54.3z"/>
</g>
<g>
	<path class="st7" d="M38,38.9c-2.2,0.4-4.3,0.9-6.3,1.8c-0.9,0.4-1.9,0.9-2.6,1.6c-0.3,0.3-0.6,0.7-0.7,1c-0.1,0.3-0.1,0.5,0.1,0.7
		c0,0.1,0.1,0.1,0.1,0.2c0.1,0.1,0.2,0.2,0.3,0.3c0.2,0.2,0.4,0.4,0.6,0.6c0.4,0.4,0.8,0.7,1.2,1c0.8,0.6,1.7,1.1,2.6,1.6
		c1.9,0.9,4.1,1.3,6.3,1.7c-2.2,0.4-4.5,0.4-6.8-0.2c-1.1-0.3-2.2-0.9-3.2-1.5c-0.5-0.3-1-0.7-1.4-1.1c-0.2-0.2-0.4-0.4-0.6-0.6
		c-0.1-0.1-0.2-0.2-0.3-0.3c-0.1-0.1-0.3-0.3-0.4-0.5c-0.2-0.4-0.4-0.8-0.4-1.2c0-0.5,0.1-0.9,0.2-1.2c0.3-0.7,0.8-1.2,1.3-1.6
		c1-0.8,2.1-1.3,3.2-1.6C33.5,38.6,35.8,38.5,38,38.9z"/>
</g>
<g>
	<path class="st7" d="M134.1,39.4c2.3-0.2,4.5,0.1,6.7,0.5c1.1,0.2,2.2,0.5,3.3,1c0.5,0.2,1.2,0.6,1.7,1.4c0.2,0.4,0.3,1,0.2,1.5
		c-0.1,0.5-0.3,0.8-0.5,1.1c-0.9,1.1-1.9,1.7-3,2.2c-1,0.5-2.1,0.9-3.2,1.2c-2.2,0.6-4.4,1-6.7,0.8c2.2-0.5,4.2-1.2,6.2-2.1
		c1-0.4,1.9-0.9,2.8-1.5c0.9-0.5,1.8-1.2,2.2-1.8c0.1-0.2,0.2-0.3,0.2-0.4c0-0.1,0-0.1,0-0.1c-0.1-0.1-0.4-0.4-0.8-0.6
		c-0.9-0.4-1.9-0.8-2.9-1.1C138.3,40.9,136.2,40.2,134.1,39.4z"/>
</g>
<g>
	<path class="st7" d="M39.4,49.2c1.1,0.7,2.4,1.2,3.7,1.6c1.3,0.4,2.6,0.7,3.9,0.9c1.3,0.2,2.6,0.3,4,0.4c0.7,0,1.3,0,2,0.1l2,0
		l0.1,0l0.1,0c1.6,0.3,3.3,0.5,5,0.7c1.7,0.2,3.4,0.3,5.1,0.3c1.7,0.1,3.4,0.1,5.1,0c1.7-0.1,3.4-0.2,5-0.5l0.1,0l0.1,0
		c1.8,0.3,3.6,0.5,5.4,0.6c1.8,0.2,3.6,0.2,5.4,0.3c3.6,0.1,7.2-0.1,10.7-0.8l0.2,0l0.1,0c3.2,0.3,6.5,0.5,9.8,0.5
		c1.6,0,3.3-0.1,4.9-0.2c1.6-0.2,3.2-0.4,4.7-0.9l0.1,0l0.1,0c2.6-0.1,5.3-0.3,8-0.7c1.3-0.2,2.6-0.5,3.9-0.8
		c1.3-0.4,2.6-0.8,3.7-1.4c-1.1,0.8-2.3,1.4-3.6,1.8c-1.3,0.5-2.6,0.8-3.9,1.1c-2.6,0.6-5.3,1-8,1.2l0.2,0c-1.6,0.7-3.3,1-5,1.2
		c-1.7,0.2-3.4,0.3-5,0.4c-3.4,0.1-6.7,0-10-0.3l0.3,0c-3.7,0.8-7.5,1-11.2,1c-1.9,0-3.7-0.2-5.6-0.3c-1.9-0.2-3.7-0.4-5.5-0.7
		l0.3,0c-1.7,0.2-3.5,0.3-5.2,0.4c-1.7,0-3.5,0-5.2-0.1c-3.5-0.2-6.9-0.7-10.3-1.5l0.1,0l-2-0.1c-0.7-0.1-1.4-0.1-2-0.2
		c-1.4-0.2-2.7-0.4-4-0.7c-1.3-0.3-2.6-0.7-3.9-1.3C41.7,50.7,40.5,50,39.4,49.2z"/>
</g>
<g>
	<path class="st7" d="M134.1,39.4c-1.5-0.5-3.1-0.8-4.6-1c-1.6-0.3-3.1-0.4-4.7-0.5c-1.6-0.1-3.1-0.1-4.7,0c-1.6,0-3.1,0.2-4.7,0.4
		l-0.1,0l-0.2,0c-1.4-0.4-3-0.7-4.6-0.9c-1.6-0.2-3.1-0.3-4.7-0.2c-1.6,0-3.1,0.1-4.7,0.3c-1.6,0.2-3.1,0.4-4.6,0.8l-0.2,0L96,38
		c-1.7-0.4-3.6-0.7-5.4-0.9c-1.8-0.2-3.7-0.3-5.5-0.3c-1.8,0-3.7,0.1-5.5,0.3c-1.8,0.2-3.7,0.5-5.4,0.9L74,38.1l-0.2-0.1
		c-1.5-0.4-3.1-0.7-4.7-0.8C67.6,37.1,66,37,64.4,37c-1.6,0-3.2,0.1-4.8,0.3c-1.6,0.2-3.2,0.5-4.7,0.8l-0.2,0l-0.1,0
		c-2.7-0.4-5.5-0.5-8.3-0.4c-1.4,0.1-2.8,0.2-4.2,0.4c-1.4,0.2-2.8,0.4-4.1,0.8c2.6-1,5.4-1.6,8.2-1.9c2.8-0.4,5.7-0.4,8.5-0.1
		l-0.3,0c1.6-0.5,3.2-0.8,4.9-1.1c1.6-0.3,3.3-0.4,4.9-0.5c1.7-0.1,3.3-0.1,5,0.1c1.7,0.1,3.3,0.4,5,0.8l-0.5,0
		c1.9-0.4,3.7-0.7,5.6-1c1.9-0.2,3.8-0.4,5.7-0.4c1.9,0,3.8,0.1,5.7,0.4c1.9,0.2,3.7,0.5,5.6,1l-0.4,0c1.6-0.3,3.2-0.6,4.8-0.7
		c1.6-0.2,3.3-0.2,4.9-0.2c1.6,0.1,3.3,0.2,4.9,0.4c1.6,0.3,3.2,0.6,4.8,1.1l-0.3,0c1.6-0.1,3.2-0.2,4.8-0.1c1.6,0,3.2,0.2,4.8,0.4
		c1.6,0.2,3.2,0.5,4.7,0.9C131.1,38.3,132.6,38.8,134.1,39.4z"/>
</g>
<g>
	<path class="st4" d="M224.3,45.7c0.3,7.9,1.2,15.6,2.5,23.4c1.2,7.7,2.6,15.5,4,23.2c1.4,7.7,2.8,15.5,4.1,23.2
		c0.6,3.9,1.2,7.8,1.8,11.7l0.8,5.8l0.7,5.9c1.9,15.6,3.1,31.4,3.1,47.1c0.1,7.9-0.1,15.7-0.3,23.6c-0.1,3.9-0.2,7.8-0.2,11.8
		c0,2,0,3.9,0.1,5.9c0.1,1,0.1,2,0.2,2.9c0.1,1,0.3,1.9,0.8,2.8c-0.6-0.8-0.8-1.8-1-2.8c-0.2-1-0.3-1.9-0.5-2.9
		c-0.2-2-0.4-3.9-0.5-5.9c-0.2-3.9-0.3-7.9-0.5-11.8c-0.2-7.9-0.3-15.7-0.6-23.5c-0.1-3.9-0.3-7.8-0.5-11.7
		c-0.2-3.9-0.6-7.8-0.8-11.7c-0.3-3.9-0.7-7.8-1.1-11.7c-0.4-3.9-0.8-7.8-1.3-11.7c-1.8-15.6-4.4-31-6.8-46.6
		c-1.2-7.8-2.3-15.6-3.1-23.4C224.6,61.4,224,53.6,224.3,45.7z"/>
</g>
<g>
	<path class="st4" d="M241.2,48.3c-0.2,7.9,0.1,15.8,1,23.6c0.8,7.8,2.1,15.6,3.3,23.3c1.3,7.8,2.5,15.6,3.7,23.4
		c1.1,7.8,1.9,15.7,2.7,23.6c0.6,7.9,1.1,15.8,1.4,23.7c0.2,7.9,0.3,15.8,0.2,23.7c-0.1,7.9-0.4,15.8-0.6,23.7
		c-0.1,3.9-0.3,7.9-0.3,11.8c0,2,0,3.9,0.1,5.9c0,1,0.1,2,0.2,2.9c0.2,1,0.3,2,0.8,2.8c-0.6-0.8-0.9-1.8-1.1-2.7
		c-0.2-1-0.4-1.9-0.5-2.9c-0.3-2-0.4-3.9-0.6-5.9c-0.3-4-0.4-7.9-0.5-11.9l-0.6-23.7c-0.4-15.8-1.1-31.5-2.5-47.1
		c-1.3-15.7-3.4-31.2-5.4-46.9c-1-7.8-1.9-15.7-2.2-23.7C239.9,64,240.1,56.1,241.2,48.3z"/>
</g>
<g>
	<path class="st4" d="M322.5,45.9c0.3,7.9-0.3,15.7-1,23.6c-0.8,7.8-1.9,15.6-3.1,23.4c-2.4,15.5-4.9,31-6.8,46.6
		c-0.5,3.9-0.9,7.8-1.3,11.7c-0.4,3.9-0.7,7.8-1.1,11.7c-0.3,3.9-0.6,7.8-0.8,11.7c-0.2,3.9-0.4,7.8-0.5,11.7
		c-0.3,7.8-0.4,15.7-0.6,23.5c-0.1,3.9-0.2,7.9-0.5,11.8c-0.1,2-0.2,3.9-0.5,5.9c-0.1,1-0.3,2-0.5,2.9c-0.2,1-0.4,1.9-1,2.8
		c0.5-0.9,0.6-1.8,0.8-2.8c0.1-1,0.2-1.9,0.2-2.9c0.1-2,0.1-3.9,0.1-5.9c0-3.9-0.1-7.8-0.2-11.8c-0.2-7.8-0.3-15.7-0.3-23.6
		c0-15.8,1.2-31.5,3.1-47.1l0.7-5.9l0.8-5.8c0.5-3.9,1.2-7.8,1.8-11.7c1.3-7.8,2.6-15.5,4.1-23.2c1.4-7.7,2.8-15.4,4-23.2
		C321.2,61.5,322.1,53.7,322.5,45.9z"/>
</g>
<g>
	<path class="st4" d="M305.6,48.3c1.1,7.8,1.3,15.8,1,23.7c-0.3,7.9-1.2,15.8-2.2,23.7c-2,15.7-4.1,31.2-5.4,46.9
		c-1.4,15.7-2.1,31.4-2.5,47.1l-0.6,23.7c-0.1,3.9-0.3,7.9-0.5,11.9c-0.1,2-0.3,4-0.6,5.9c-0.1,1-0.3,2-0.5,2.9
		c-0.3,1-0.5,2-1.1,2.7c0.5-0.8,0.7-1.8,0.8-2.8c0.1-1,0.2-2,0.2-2.9c0.1-2,0.1-3.9,0.1-5.9c-0.1-3.9-0.2-7.9-0.3-11.8
		c-0.2-7.9-0.5-15.8-0.6-23.7c-0.1-7.9,0-15.8,0.2-23.7c0.3-7.9,0.8-15.8,1.4-23.7c0.8-7.9,1.6-15.8,2.7-23.6
		c1.1-7.8,2.3-15.6,3.7-23.4c1.3-7.8,2.5-15.5,3.3-23.3C305.5,64.1,305.8,56.2,305.6,48.3z"/>
</g>
<g>
	<path class="st4" d="M262.1,49c0,7.9,0.4,15.7,0.9,23.6c0.5,7.9,1.1,15.7,1.7,23.5c0.6,7.8,1.1,15.7,1.7,23.6
		c0.5,7.9,0.9,15.7,1.3,23.6c0.3,7.9,0.5,15.8,0.6,23.7c0,7.9,0.1,15.8-0.1,23.7c-0.1,7.9-0.3,15.8-0.5,23.6l-0.4,11.8
		c-0.1,2-0.1,3.9-0.1,5.9c0,1,0,2,0,3c0,0.5,0,1,0,1.5c0,0.2,0,0.5,0.1,0.7c0,0.2,0,0.5,0.2,0.7c-0.2-0.2-0.2-0.4-0.3-0.7
		c-0.1-0.2-0.1-0.5-0.1-0.7c-0.1-0.5-0.1-1-0.2-1.5c-0.1-1-0.2-2-0.3-3c-0.1-2-0.3-3.9-0.4-5.9c-0.2-3.9-0.3-7.9-0.5-11.8
		c-0.2-7.9-0.5-15.7-0.6-23.6l-0.6-23.6c-0.2-7.9-0.4-15.7-0.8-23.6c-0.3-7.9-0.7-15.7-1.1-23.6c-0.3-7.9-0.8-15.7-1-23.6
		c-0.3-7.9-0.5-15.8-0.5-23.7C261.1,64.8,261.2,56.8,262.1,49z"/>
</g>
<g>
	<path class="st4" d="M284.8,49c1.4,15.7,1.2,31.6,0.9,47.3l-0.5,23.6c-0.2,7.9-0.4,15.7-0.4,23.6c-0.1,7.8-0.1,15.7-0.2,23.6
		c-0.2,7.9-0.4,15.8-0.7,23.6c-0.3,7.9-0.8,15.8-1.3,23.6c-0.3,3.9-0.6,7.9-1,11.8c-0.2,2-0.4,3.9-0.7,5.9c-0.1,1-0.3,2-0.5,2.9
		c-0.1,0.5-0.2,1-0.3,1.5c-0.1,0.5-0.2,1-0.6,1.4c0.3-0.4,0.3-0.9,0.4-1.4c0.1-0.5,0.1-1,0.2-1.5c0.1-1,0.1-2,0.2-2.9
		c0.1-2,0.2-3.9,0.2-5.9c0.1-3.9,0.2-7.9,0.2-11.8c0.1-7.9,0.1-15.7,0.2-23.6l0.1-47.2c0.1-7.9,0.3-15.8,0.6-23.7
		c0.3-7.9,0.7-15.8,1.2-23.6C283.5,80.5,284.6,64.8,284.8,49z"/>
</g>
<g>
	<path class="st5" d="M225,44.9c0.1,7.9,0.9,15.7,2,23.4c1.1,7.8,2.3,15.5,3.7,23.3c2.7,15.5,5.3,31,7.2,46.6
		c0.5,3.9,0.9,7.8,1.3,11.7c0.4,3.9,0.7,7.8,1,11.7c0.2,3.9,0.5,7.8,0.7,11.8c0.2,3.9,0.3,7.9,0.3,11.8c0.1,7.9,0.1,15.7,0,23.6
		c0,3.9-0.1,7.9,0,11.8c0,2,0.1,3.9,0.2,5.9c0.1,1,0.2,2,0.3,2.9c0.2,1,0.3,1.9,0.9,2.8c-0.5-0.8-0.7-1.8-0.9-2.8
		c-0.2-1-0.3-1.9-0.4-2.9c-0.2-2-0.3-3.9-0.4-5.9c-0.1-3.9-0.2-7.9-0.2-11.8c-0.1-7.9-0.1-15.7-0.3-23.5
		c-0.4-15.7-1.6-31.3-3.6-46.9c-0.9-7.8-2.1-15.6-3.2-23.3l-3.8-23.3C227.4,76.3,224.9,60.7,225,44.9z"/>
</g>
<g>
	<path class="st5" d="M241.8,47.5c-1.1,15.8,0.9,31.5,3.3,47.1c1.2,7.8,2.4,15.6,3.4,23.4c1.1,7.8,1.9,15.7,2.6,23.6
		c0.6,7.9,1.1,15.8,1.4,23.7c0.3,7.9,0.5,15.8,0.4,23.7c0,7.9-0.1,15.8-0.2,23.7c-0.1,3.9-0.1,7.9-0.1,11.8c0,2,0.1,3.9,0.2,5.9
		c0.1,1,0.2,2,0.3,2.9c0.2,1,0.4,2,0.9,2.8c-0.6-0.8-0.8-1.8-1-2.7c-0.2-1-0.3-2-0.4-2.9c-0.2-2-0.3-3.9-0.4-5.9
		c-0.2-3.9-0.2-7.9-0.3-11.8c-0.1-7.9-0.1-15.8-0.2-23.7c-0.1-7.9-0.3-15.8-0.6-23.6c-0.4-7.9-0.9-15.7-1.6-23.6
		c-0.7-7.8-1.5-15.7-2.5-23.5c-1-7.8-2.2-15.6-3.2-23.4c-1.1-7.8-2.1-15.7-2.6-23.6C241,63.3,241,55.4,241.8,47.5z"/>
</g>
<g>
	<path class="st5" d="M323.1,45.1c0.1,15.7-2.5,31.3-4.9,46.8l-3.8,23.3c-1.2,7.8-2.3,15.5-3.2,23.3c-1.9,15.6-3.2,31.2-3.6,46.9
		c-0.2,7.8-0.2,15.7-0.3,23.5c0,3.9-0.1,7.9-0.2,11.8c-0.1,2-0.2,3.9-0.4,5.9c-0.1,1-0.2,2-0.4,2.9c-0.2,1-0.4,1.9-0.9,2.8
		c0.5-0.8,0.7-1.8,0.9-2.8c0.2-1,0.2-1.9,0.3-2.9c0.1-2,0.2-3.9,0.2-5.9c0.1-3.9,0-7.8,0-11.8c0-7.9-0.1-15.7,0-23.6
		c0.1-3.9,0.2-7.9,0.3-11.8c0.2-3.9,0.5-7.8,0.7-11.8c0.3-3.9,0.6-7.8,1-11.7c0.4-3.9,0.8-7.8,1.3-11.7c1.9-15.6,4.5-31.1,7.2-46.6
		c1.3-7.7,2.6-15.5,3.7-23.3C322.2,60.8,323,53,323.1,45.1z"/>
</g>
<g>
	<path class="st5" d="M306.3,47.6c0.8,7.9,0.8,15.8,0.4,23.7c-0.5,7.9-1.5,15.7-2.6,23.6c-1,7.8-2.2,15.6-3.2,23.4
		c-1,7.8-1.8,15.7-2.5,23.5c-0.7,7.9-1.2,15.7-1.6,23.6c-0.4,7.9-0.5,15.8-0.6,23.6c-0.1,7.9-0.1,15.8-0.2,23.7
		c-0.1,3.9-0.1,7.9-0.3,11.8c-0.1,2-0.2,3.9-0.4,5.9c-0.1,1-0.3,2-0.4,2.9c-0.2,1-0.4,2-1,2.7c0.6-0.8,0.7-1.8,0.9-2.8
		c0.1-1,0.3-2,0.3-2.9c0.1-2,0.2-3.9,0.2-5.9c0.1-3.9,0-7.9-0.1-11.8c-0.1-7.9-0.2-15.8-0.2-23.7c0-7.9,0.1-15.8,0.4-23.7
		c0.3-7.9,0.8-15.8,1.4-23.7c0.7-7.9,1.6-15.7,2.6-23.6c1.1-7.8,2.2-15.6,3.4-23.4C305.4,79.1,307.3,63.4,306.3,47.6z"/>
</g>
<g>
	<path class="st5" d="M262.8,48.3c-0.2,7.9,0,15.7,0.4,23.6c0.3,7.9,0.8,15.7,1.4,23.6c1,15.7,2,31.4,2.8,47.2
		c0.3,7.9,0.5,15.8,0.6,23.6c0.1,7.9,0.2,15.8,0.1,23.6l-0.2,23.6l-0.2,11.8c0,2,0,3.9,0,5.9c0,1,0,2,0.1,3c0,0.5,0,1,0.1,1.5
		c0,0.2,0,0.5,0.1,0.7c0.1,0.2,0.1,0.5,0.2,0.7c-0.2-0.2-0.2-0.4-0.3-0.7c-0.1-0.2-0.1-0.5-0.1-0.7c-0.1-0.5-0.1-1-0.2-1.5
		c-0.1-1-0.2-2-0.2-3c-0.1-2-0.2-3.9-0.2-5.9l-0.3-11.8l-0.3-23.6c-0.3-15.7-0.4-31.5-1.2-47.2c-0.3-7.9-0.7-15.7-1.1-23.6
		c-0.4-7.9-0.9-15.7-1.2-23.6C262.3,79.8,261.6,64,262.8,48.3z"/>
</g>
<g>
	<path class="st5" d="M285.5,48.3c0.5,7.9,0.6,15.8,0.6,23.6c-0.1,7.9-0.3,15.8-0.5,23.6c-0.4,15.7-1,31.5-1.1,47.2
		c-0.1,15.7-0.2,31.5-0.7,47.3c-0.3,7.9-0.6,15.8-1,23.6c-0.2,3.9-0.5,7.9-0.8,11.8c-0.2,2-0.3,3.9-0.6,5.9c-0.1,1-0.2,2-0.4,2.9
		c-0.1,0.5-0.2,1-0.3,1.5c-0.1,0.5-0.2,1-0.5,1.4c0.3-0.4,0.3-0.9,0.5-1.4c0.1-0.5,0.1-1,0.2-1.5c0.1-1,0.2-2,0.3-2.9
		c0.1-2,0.3-3.9,0.3-5.9c0.2-3.9,0.3-7.9,0.4-11.8c0.2-7.9,0.4-15.7,0.5-23.6l0.2-23.6l0-23.6c0.2-15.8,0.8-31.5,1.6-47.3
		c0.4-7.9,0.7-15.7,1-23.6C285.4,64,285.5,56.1,285.5,48.3z"/>
</g>
<path class="st2" d="M427.7,21.3c-6,0.4-11.7,1.3-11.7,1.3c-11.9-1.8-18.9,0.3-18.9,0.3c-11.3-0.5-17.2,1.4-17.2,1.4
	c-8.7,0.7-11.3,2.1-11.3,5.4c0,6.2,5.3,37.2,65,37.3c52.3,0.1,53.3-31.1,53.3-37.7c0-3.3-2.2-3.8-10.9-4.5c0,0-7.6-3.3-19.2-2.3
	c0,0-6.7-1.8-18.6,0c0,0-3.4-0.9-9.4-1.3H427.7z"/>
<g>
	<path class="st3" d="M469.4,109c1-7.3,2.4-14.6,4-22l0,0c2.1-9.9,4.6-19.8,6.9-29.5c2.4-10.1,4.4-20.4,5.7-30.1
		c-1.6-0.5-3.1-1.2-4.5-2c-1.2-0.1-2.4-0.3-3.6-0.6c-1.2,0-2.4-0.2-3.3-0.7c-0.3,5.9-1.3,14.6-3.7,27.3c-3.7,19.7-9,43.4-11.2,59.4
		C462.9,110.1,466.1,109.4,469.4,109z"/>
	<path class="st3" d="M458.1,40.4c-2.6,23.4-5.8,48.8-8,73c1-0.2,2.1-0.5,3.1-0.8c2.9-0.8,5.7-1.6,8.6-2.2
		c4.5-31.8,12-66.2,12.9-86.1c-0.3-0.1-0.6-0.3-0.8-0.5c0,0,0,0,0,0c-0.5-0.1-1.1-0.2-1.6-0.4c-0.2,0-0.4,0-0.6-0.1
		c-0.5,0-0.9-0.1-1.4-0.3c-0.4-0.1-0.8-0.2-1.2-0.4c-0.8-0.1-1.6-0.2-2.5-0.3c-0.2,0-0.4-0.1-0.5-0.1c-0.5,0-1-0.1-1.5-0.2
		c-0.3,0.1-0.6,0.1-1,0.2c-0.9,0.1-1.6,0-2.5,0c-0.3,0-0.6-0.1-0.8-0.1c-0.8,0.1-1.6,0.2-2.5,0.2C458.1,28,458.5,36.9,458.1,40.4z"
		/>
	<path class="st3" d="M450.9,113.2c0.4-4.3,0.9-8.8,1.4-13.3c4.4-37.6,7.5-59.2,5.9-77.7c-0.2,0-0.5,0-0.7,0c-2.8,0-5.6-0.4-8.1-1.2
		c-1.1,0-2.3,0-3.4-0.1c-2.8,1-5.7,1.5-8.7,1.6c-0.1,4.5-0.1,12-0.3,21.4c-0.2,18.8-0.6,45.2-1.2,71.4
		C441,115,445.9,114.4,450.9,113.2z"/>
	<path class="st3" d="M426.1,115.8l0.1-94.4C426.1,52.9,426.1,84.3,426.1,115.8C426.1,115.8,426.1,115.8,426.1,115.8z"/>
	<path class="st3" d="M382.1,87c1.6,7.3,3,14.6,4,21.9c1.6-0.1,3.4,0.2,5,0.9c1.6,0.7,3.2,1.3,4.9,1.9c-2.1-16-7.5-40.1-11.3-60.2
		c-2.5-13-3.4-21.9-3.7-27.7c-0.2,0-0.4,0.1-0.6,0.1c-0.2,0-0.5,0.1-0.8,0.1c-0.1,0-0.2,0-0.4,0c-0.1,0-0.2,0-0.3,0
		c-0.1,0-0.1,0-0.2,0c-0.5,0.1-1.1,0.2-1.6,0.2c-1,0-1.1,0-0.3,0c-0.5,0.2-1,0.4-1.6,0.6c-0.7,0.2-1.4,0.4-2.1,0.6
		c-0.4,0.3-0.8,0.6-1.2,0.9c-0.2,0.1-0.4,0.3-0.6,0.4c-0.2,0.1-0.4,0.3-0.7,0.4c-0.3,0.6-0.6,1.1-1,1.6c1.3,9.3,3.2,19.2,5.5,28.9
		C377.5,67.2,379.9,77.1,382.1,87L382.1,87z"/>
	<path class="st3" d="M405.5,114.1c-2.2-24.4-5.4-50.1-8.1-73.8c-0.4-3.5-0.1-12.3,0.2-18.1c-1.3,0.2-2.7,0.3-4,0.3
		c-0.7,0-1.4,0-2.2-0.1c-0.6,0.1-1.1,0.2-1.7,0.1c-0.6-0.1-1.2-0.2-1.8-0.3c-0.1,0-0.2,0-0.2,0c0,0,0,0-0.1,0
		c-0.6,0.1-1.3,0.2-2,0.2c-1.2,0.4-2.3,0.7-3.5,0.9c-0.2,0.1-0.5,0.1-0.7,0.2c-0.2,0-0.5,0.1-0.7,0.1c0,0,0,0,0,0
		c0.8,20,8.5,54.9,13,87.1C397.5,112.3,401.4,113.4,405.5,114.1z"/>
	<path class="st3" d="M404.7,114c4.9,1,10,1.5,15,1.7c-0.5-26.2-0.9-52.8-1.2-71.7c-0.1-9.6-0.2-17.2-0.3-21.7
		c-3.4,0.6-6.6-1-10.3-0.8c-0.1,0-0.2,0-0.3-0.1c-0.7,0.2-1.5,0.3-2.3,0.3c-1.2,0-2.3-0.2-3.2-0.6c-1.6,0.5-3.2,0.9-4.9,1.1
		c-1.6,18.4,1.5,40,5.9,77.5C403.7,104.7,404.2,109.4,404.7,114z"/>
	<path class="st3" d="M419.3,115.6c4.2,0.2,8.3,0.2,12.3,0c1.6-0.1,3.1-0.2,4.6-0.3c0.7-12.9,1.7-26,2.5-41.6
		c1.1-22,1.6-40.3-0.3-51.2c-0.6,0-1.3,0.1-1.9,0.1c-2.6-0.3-5.1-0.7-7.7-1c-0.9-0.2-1.8-0.5-2.7-0.8c-2.1,0.8-4.3,1.3-6.6,1.4
		c-0.8,0.2-1.6,0.3-2.4,0.4c-1.9,10.9-1.4,29.2-0.3,51.3C417.6,89.4,418.6,102.6,419.3,115.6z"/>
</g>
<g>
	<g>
		<path class="st4" d="M381.7,27.7c1.7,6.6,3.2,13.3,4.5,20c0.7,3.3,1.3,6.7,1.9,10.1c0.6,3.4,1.2,6.7,1.7,10.1
			c0.5,3.4,1,6.8,1.5,10.2c0.4,3.4,0.8,6.8,1.1,10.2c0.6,6.8,1,13.7,0.9,20.5c-1.1-6.8-2.2-13.5-3.2-20.3l-3.2-20.2l-1.6-10.1
			c-0.5-3.4-1-6.8-1.4-10.1C383,41.4,382.2,34.6,381.7,27.7z"/>
	</g>
	<g>
		<path class="st4" d="M395.7,24.8c1.1,7.4,2.2,14.6,3.4,21.9l1.8,10.9l1.7,11c0.5,3.7,1,7.3,1.5,11c0.4,3.7,0.8,7.4,1.1,11.1
			c0.3,3.7,0.3,7.4,0.4,11.2c0,3.7,0,7.4-0.1,11.1c-0.7-3.7-1.3-7.3-1.8-11l-0.8-5.5c-0.1-0.9-0.2-1.8-0.3-2.7l-0.4-2.7l-1.7-10.9
			l-1.7-11c-0.5-3.7-1-7.3-1.5-11c-0.4-3.7-0.8-7.4-1.1-11.1C395.3,39.7,395.1,32.3,395.7,24.8z"/>
	</g>
	<g>
		<path class="st4" d="M473.3,25.4c-0.4,7.1-1.2,14.1-2.1,21.1c-0.4,3.5-1,7-1.5,10.5l-1.6,10.5l-3.4,20.9c-1.1,7-2.2,13.9-3.4,20.9
			c-0.1-7.1,0.4-14.2,1.1-21.2c0.3-3.5,0.8-7,1.2-10.5c0.5-3.5,1-7,1.5-10.5l1.8-10.4c0.6-3.5,1.2-6.9,2-10.4
			C470.2,39.2,471.6,32.3,473.3,25.4z"/>
	</g>
	<g>
		<path class="st4" d="M458.6,25.1c0.3,1.3,0.6,2.6,0.8,3.9c0.2,1.3,0.3,2.7,0.4,4l0,0.1c-0.5,6.7-1.2,13.4-2.1,20
			c-0.4,3.3-0.9,6.6-1.4,9.9c-0.5,3.3-0.9,6.6-1.5,9.9c-0.5,3.3-1,6.6-1.5,9.9c-0.5,3.3-1,6.6-1.6,9.9c-1.1,6.6-2.1,13.2-3.2,19.9
			c-0.4-6.7-0.2-13.5,0.3-20.2l0.4-5l0.5-5c0.3-3.3,0.8-6.7,1.3-10c0.4-3.3,1-6.6,1.5-9.9c0.5-3.3,1.1-6.6,1.8-9.9
			c1.2-6.6,2.6-13.1,4.1-19.7l0,0.1c0.1-1.3,0.2-2.6,0.3-3.9C458.6,27.7,458.6,26.4,458.6,25.1z"/>
	</g>
	<g>
		<path class="st4" d="M416,24.5c1.3,7.4,2.2,14.9,2.9,22.4c0.4,3.7,0.6,7.5,0.9,11.2c0.2,3.7,0.4,7.5,0.6,11.2l0.3,11.2
			c0,3.8,0.1,7.5,0,11.3c-0.1,7.5-0.3,15-0.9,22.5c-1-7.5-1.7-14.9-2.2-22.4c-0.3-3.7-0.5-7.5-0.7-11.2l-0.5-11.2L416,58.2
			c-0.1-3.7-0.2-7.5-0.2-11.2C415.7,39.5,415.7,32,416,24.5z"/>
	</g>
	<g>
		<path class="st4" d="M438.2,25.7c0.7,7.4,0.9,14.8,1.1,22.2c0.1,3.7,0.1,7.4,0.1,11.1l-0.1,11.1l-0.3,11.1
			c-0.2,3.7-0.3,7.4-0.6,11.1c-0.5,7.4-1,14.8-2,22.1c-0.7-7.4-0.9-14.8-1.1-22.2c-0.1-3.7-0.1-7.4-0.1-11.1l0.1-11.1l0.3-11.1
			c0.2-3.7,0.3-7.4,0.6-11.1C436.6,40.5,437.2,33.1,438.2,25.7z"/>
	</g>
	<g>
		<path class="st5" d="M381.4,27.7c1.3,6.7,2.4,13.5,3.5,20.2c1.1,6.7,2.1,13.5,3.1,20.3c0.9,6.8,1.8,13.6,2.6,20.3l1,10.2
			c0.3,3.4,0.6,6.8,0.8,10.2l-2.6-20.3c-0.9-6.8-1.8-13.5-2.8-20.3L384.2,48C383.2,41.3,382.3,34.5,381.4,27.7z"/>
	</g>
	<g>
		<path class="st5" d="M396.2,24.4c0.2,1.8,0.4,3.7,0.6,5.5l0.6,5.5l0.7,5.5l0.7,5.5l3,22.1c1,7.4,1.9,14.7,2.6,22.1
			c0.3,3.7,0.6,7.4,0.9,11.1c0.2,3.7,0.4,7.4,0.4,11.1c-0.2-1.8-0.4-3.7-0.6-5.5l-0.6-5.5l-0.6-5.5l-0.7-5.5l-2.9-22.1
			c-1-7.4-1.9-14.7-2.6-22.1c-0.4-3.7-0.7-7.4-1-11.1C396.5,31.9,396.2,28.2,396.2,24.4z"/>
	</g>
	<g>
		<path class="st5" d="M473.9,25.5c-0.3,7-1,14.1-1.9,21.1c-0.9,7-2.2,13.9-3.4,20.9c-1.3,6.9-2.5,13.9-3.6,20.8l-0.8,5.2l-0.7,5.2
			l-0.7,5.2l-0.6,5.3l0.3-5.3l0.5-5.3l0.6-5.3l0.7-5.2c1-7,2.2-13.9,3.4-20.9c1.3-6.9,2.5-13.9,3.6-20.8
			C472.3,39.5,473.2,32.5,473.9,25.5z"/>
	</g>
	<g>
		<path class="st5" d="M459.1,25.1c-0.1,1.8-0.2,3.6-0.3,5.5l-0.4,5.5c-0.3,3.6-0.7,7.3-1.1,10.9c-0.8,7.3-1.9,14.5-2.9,21.7
			c-1,7.2-2,14.4-2.9,21.7l-0.6,5.4l-0.5,5.4l-0.5,5.4c-0.1,1.8-0.2,3.6-0.3,5.5c0-1.8,0-3.6,0-5.5l0.1-5.5l0.3-5.5l0.4-5.5
			c0.6-7.3,1.6-14.5,2.6-21.7l3.3-21.6l0.8-5.4l0.7-5.4l0.7-5.4C458.7,28.7,458.9,26.9,459.1,25.1z"/>
	</g>
	<g>
		<path class="st5" d="M416.6,24.7c0.2,7.5,0.7,14.9,1.2,22.4l1.7,22.3c0.5,7.4,1.1,14.9,1.3,22.4c0.2,7.5,0.2,15-0.4,22.4
			c-0.2-7.5-0.7-14.9-1.2-22.4l-1.7-22.3c-0.5-7.5-1-14.9-1.3-22.4C416,39.6,416,32.1,416.6,24.7z"/>
	</g>
	<g>
		<path class="st5" d="M438.8,25.9c0,7.4,0.1,14.7,0,22l-0.2,22c-0.1,7.3-0.2,14.7-0.4,22c-0.2,7.3-0.5,14.7-1,22
			c-0.3-7.4-0.5-14.7-0.6-22c-0.1-7.3-0.1-14.7,0-22c0.1-7.3,0.3-14.7,0.6-22C437.6,40.6,438.1,33.2,438.8,25.9z"/>
	</g>
</g>
<path class="st6" d="M427.7,21.3c-6,0.4-11.7,1.3-11.7,1.3c-11.9-1.8-18.9,0.3-18.9,0.3c-11.3-0.5-17.2,1.4-17.2,1.4
	c-8.7,0.7-11.3,2.1-11.3,5.4c0,6.2,4.4,33,56,33c59.5,0,62.3-26.9,62.3-33.4c0-3.3-2.2-4.1-10.9-4.7c0,0-7.6-3.1-19.2-2
	c0,0-6.7-1.8-18.6,0c0,0-3.4-0.9-9.4-1.3H427.7z"/>
<path class="st3" d="M381.5,108.2c-2.1-9.5-4.4-18.9-6.6-28.2c-4.1-17.4-6.7-37.2-6.4-51.8c0,0,1.1,6,12.9,6c0,0,4.4,3.8,15.3,4.3
	c0,0,8.8,2.6,20.9,0.8c0,0,4.8,0.7,10.9,1.1h0.8c6.1-0.4,10.9-1.1,10.9-1.1c12.1,2.1,18.6-1.5,18.6-1.5c11.8,0.1,15.6-3.6,15.6-3.6
	c12.1-1.8,13.3-6.5,13.3-6.5c0.3,14.3-0.4,34.3-4.4,51.4c-2.3,9.7-4.7,19.6-6.9,29.5c0,0-13.1,10.2-48.7,10.2
	C393.5,118.8,381.5,108.2,381.5,108.2z"/>
<g>
	<path class="st7" d="M380,23.9c-2.2,0.4-4.3,0.9-6.3,1.8c-0.9,0.4-1.9,0.9-2.6,1.6c-0.3,0.3-0.6,0.7-0.7,1
		c-0.1,0.3-0.1,0.5,0.1,0.7c0,0.1,0.1,0.1,0.1,0.2c0.1,0.1,0.2,0.2,0.3,0.3c0.2,0.2,0.4,0.4,0.6,0.6c0.4,0.4,0.8,0.7,1.2,1
		c0.8,0.6,1.7,1.1,2.6,1.6c1.9,0.9,4.1,1.3,6.3,1.7c-2.2,0.4-4.5,0.4-6.8-0.2c-1.1-0.3-2.2-0.9-3.2-1.5c-0.5-0.3-1-0.7-1.4-1.1
		c-0.2-0.2-0.4-0.4-0.6-0.6c-0.1-0.1-0.2-0.2-0.3-0.3c-0.1-0.1-0.3-0.3-0.4-0.5c-0.2-0.4-0.4-0.8-0.4-1.2c0-0.5,0.1-0.9,0.2-1.2
		c0.3-0.7,0.8-1.2,1.3-1.6c1-0.8,2.1-1.3,3.2-1.6C375.5,23.6,377.8,23.5,380,23.9z"/>
</g>
<g>
	<path class="st7" d="M476.1,24.4c2.3-0.2,4.5,0.1,6.7,0.5c1.1,0.2,2.2,0.5,3.3,1c0.5,0.2,1.2,0.6,1.7,1.4c0.2,0.4,0.3,1,0.2,1.5
		c-0.1,0.5-0.3,0.8-0.5,1.1c-0.9,1.1-1.9,1.7-3,2.2c-1,0.5-2.1,0.9-3.2,1.2c-2.2,0.6-4.4,1-6.7,0.8c2.2-0.5,4.2-1.2,6.2-2.1
		c1-0.4,1.9-0.9,2.8-1.5c0.9-0.5,1.8-1.2,2.2-1.8c0.1-0.2,0.2-0.3,0.2-0.4c0-0.1,0-0.1,0-0.1c-0.1-0.1-0.4-0.4-0.8-0.6
		c-0.9-0.4-1.9-0.8-2.9-1.1C480.3,25.9,478.2,25.2,476.1,24.4z"/>
</g>
<g>
	<path class="st7" d="M381.4,34.2c1.1,0.7,2.4,1.2,3.7,1.6c1.3,0.4,2.6,0.7,3.9,0.9c1.3,0.2,2.6,0.3,4,0.4c0.7,0,1.3,0,2,0.1l2,0
		l0.1,0l0.1,0c1.6,0.3,3.3,0.5,5,0.7c1.7,0.2,3.4,0.3,5.1,0.3c1.7,0.1,3.4,0.1,5.1,0c1.7-0.1,3.4-0.2,5-0.5l0.1,0l0.1,0
		c1.8,0.3,3.6,0.5,5.4,0.6c1.8,0.2,3.6,0.2,5.4,0.3c3.6,0.1,7.2-0.1,10.7-0.8l0.2,0l0.1,0c3.2,0.3,6.5,0.5,9.8,0.5
		c1.6,0,3.3-0.1,4.9-0.2c1.6-0.2,3.2-0.4,4.7-0.9l0.1,0l0.1,0c2.6-0.1,5.3-0.3,8-0.7c1.3-0.2,2.6-0.5,3.9-0.8
		c1.3-0.4,2.6-0.8,3.7-1.4c-1.1,0.8-2.3,1.4-3.6,1.8c-1.3,0.5-2.6,0.8-3.9,1.1c-2.6,0.6-5.3,1-8,1.2l0.2,0c-1.6,0.7-3.3,1-5,1.2
		c-1.7,0.2-3.4,0.3-5,0.4c-3.4,0.1-6.7,0-10-0.3l0.3,0c-3.7,0.8-7.5,1-11.2,1c-1.9,0-3.7-0.2-5.6-0.3c-1.9-0.2-3.7-0.4-5.5-0.7
		l0.3,0c-1.7,0.2-3.5,0.3-5.2,0.4c-1.7,0-3.5,0-5.2-0.1c-3.5-0.2-6.9-0.7-10.3-1.5l0.1,0l-2-0.1c-0.7-0.1-1.4-0.1-2-0.2
		c-1.4-0.2-2.7-0.4-4-0.7c-1.3-0.3-2.6-0.7-3.9-1.3C383.7,35.7,382.5,35,381.4,34.2z"/>
</g>
<g>
	<path class="st7" d="M476.1,24.4c-1.5-0.5-3.1-0.8-4.6-1c-1.6-0.3-3.1-0.4-4.7-0.5c-1.6-0.1-3.1-0.1-4.7,0c-1.6,0-3.1,0.2-4.7,0.4
		l-0.1,0l-0.2,0c-1.4-0.4-3-0.7-4.6-0.9c-1.6-0.2-3.1-0.3-4.7-0.2c-1.6,0-3.1,0.1-4.7,0.3c-1.6,0.2-3.1,0.4-4.6,0.8l-0.2,0L438,23
		c-1.7-0.4-3.6-0.7-5.4-0.9c-1.8-0.2-3.7-0.3-5.5-0.3c-1.8,0-3.7,0.1-5.5,0.3c-1.8,0.2-3.7,0.5-5.4,0.9l-0.2,0.1l-0.2-0.1
		c-1.5-0.4-3.1-0.7-4.7-0.8c-1.6-0.2-3.2-0.2-4.8-0.2c-1.6,0-3.2,0.1-4.8,0.3c-1.6,0.2-3.2,0.5-4.7,0.8l-0.2,0l-0.1,0
		c-2.7-0.4-5.5-0.5-8.3-0.4c-1.4,0.1-2.8,0.2-4.2,0.4c-1.4,0.2-2.8,0.4-4.1,0.8c2.6-1,5.4-1.6,8.2-1.9c2.8-0.4,5.7-0.4,8.5-0.1
		l-0.3,0c1.6-0.5,3.2-0.8,4.9-1.1c1.6-0.3,3.3-0.4,4.9-0.5c1.7-0.1,3.3-0.1,5,0.1c1.7,0.1,3.3,0.4,5,0.8l-0.5,0
		c1.9-0.4,3.7-0.7,5.6-1c1.9-0.2,3.8-0.4,5.7-0.4c1.9,0,3.8,0.1,5.7,0.4c1.9,0.2,3.7,0.5,5.6,1l-0.4,0c1.6-0.3,3.2-0.6,4.8-0.7
		c1.6-0.2,3.3-0.2,4.9-0.2c1.6,0.1,3.3,0.2,4.9,0.4c1.6,0.3,3.2,0.6,4.8,1.1l-0.3,0c1.6-0.1,3.2-0.2,4.8-0.1c1.6,0,3.2,0.2,4.8,0.4
		c1.6,0.2,3.2,0.5,4.7,0.9C473.1,23.3,474.6,23.8,476.1,24.4z"/>
</g>
<path class="st7" d="M395.4,296.1c0,0-0.7,3.2,0,7.2c0.1,0.8,5.9,13.9,34.9,13.9c28.3,0,32.3-12.4,32.4-13.9c0.3-3.1,0-7.2,0-7.2
	H395.4z"/>
<path class="st8" d="M395.4,296.8c0,0-0.7,2.9,0,6.5c0.1,0.7,5.9,12.5,34.9,12.5c28.3,0,32.3-11.2,32.4-12.5c0.3-2.8,0-6.5,0-6.5
	H395.4z"/>
<path class="st9" d="M395.6,297.1c0,0-0.7,2.9,0,6.5c0.1,0.7,5.9,12.5,34.9,12.5c28.3,0,32.3-11.2,32.4-12.5c0.3-2.8,0-6.5,0-6.5
	H395.6z"/>
<path class="st3" d="M468.6,275.4c-0.2,5-0.6,10.1-1.1,15.6c-1,11-6.9,11.1-6.9,11.1c-4,7-11.3,3.4-11.3,3.4
	c-7.1,7.3-14.3,1.5-14.3,1.5c-2.4,3.3-5.9,2.8-5.9,2.8s-3.9,0.4-6.1-2.8c0,0-7.2,5.8-14.3-1.5c0,0-7.3,3.6-11.3-3.4
	c0,0-5.9-0.1-6.9-11.1c-0.5-5.6-0.8-10.8-1.1-15.9c0,0,17.8,9.9,39.4,9.9C450.5,284.9,468.6,275.4,468.6,275.4z"/>
<path class="st3" d="M381.3,138.1c2.4,10.8,4.3,21.7,5.2,32.2c0.5,5.7,1,13.8,1.3,18.5c0,0,18.3,10.2,41.2,10.2
	c22.6,0,41.4-10.2,41.4-10.2c0.3-5.5,0.8-11.6,1.3-18.5c0.8-10.3,2.8-21,5.1-31.7c0,0-17.7,10.4-47.8,10.4S381.3,138.1,381.3,138.1z
	"/>
<path class="st3" d="M388,213.7c1.1,17.2,1.1,25.8,1.6,37.3c0,0,17.2,9.9,39.4,9.9c20.9,0,39.6-9.5,39.6-9.5
	c0.5-11,0.7-21.9,1.6-37.7c0,0-19.2,10.2-41.2,10.2C405.6,223.9,388,213.7,388,213.7z"/>
<path class="st2" d="M597.4,21.7c-6,0.4-11.7,1.3-11.7,1.3c-11.9-1.8-18.9,0.3-18.9,0.3c-11.3-0.5-17.2,1.4-17.2,1.4
	c-8.7,0.7-11.3,2.1-11.3,5.4c0,6.2,5.3,37.2,65,37.3c52.3,0.1,53.3-31.1,53.3-37.7c0-3.3-2.2-3.8-10.9-4.5c0,0-7.6-3.3-19.2-2.3
	c0,0-6.7-1.8-18.6,0c0,0-3.4-0.9-9.4-1.3H597.4z"/>
<g>
	<path class="st3" d="M639.1,109.4c1-7.3,2.4-14.6,4-22l0,0c2.1-9.9,4.6-19.8,6.9-29.5c2.4-10.1,4.4-20.4,5.7-30.1
		c-1.6-0.5-3.1-1.2-4.5-2c-1.2-0.1-2.4-0.3-3.6-0.6c-1.2,0-2.4-0.2-3.3-0.7c-0.3,5.9-1.3,14.6-3.7,27.3c-3.7,19.7-9,43.4-11.2,59.4
		C632.6,110.5,635.8,109.8,639.1,109.4z"/>
	<path class="st3" d="M627.7,40.8c-2.6,23.4-5.8,48.8-8,73c1-0.2,2.1-0.5,3.1-0.8c2.9-0.8,5.7-1.6,8.6-2.2
		c4.5-31.8,12-66.2,12.9-86.1c-0.3-0.1-0.6-0.3-0.8-0.5c0,0,0,0,0,0c-0.5-0.1-1.1-0.2-1.6-0.4c-0.2,0-0.4,0-0.6-0.1
		c-0.5,0-0.9-0.1-1.4-0.3c-0.4-0.1-0.8-0.2-1.2-0.4c-0.8-0.1-1.6-0.2-2.5-0.3c-0.2,0-0.4-0.1-0.5-0.1c-0.5,0-1-0.1-1.5-0.2
		c-0.3,0.1-0.6,0.1-1,0.2c-0.9,0.1-1.6,0-2.5,0c-0.3,0-0.6-0.1-0.8-0.1c-0.8,0.1-1.6,0.2-2.5,0.2C627.8,28.4,628.1,37.3,627.7,40.8z
		"/>
	<path class="st3" d="M620.6,113.6c0.4-4.3,0.9-8.8,1.4-13.3c4.4-37.6,7.5-59.2,5.9-77.7c-0.2,0-0.5,0-0.7,0c-2.8,0-5.6-0.4-8.1-1.2
		c-1.1,0-2.3,0-3.4-0.1c-2.8,1-5.7,1.5-8.7,1.6c-0.1,4.5-0.1,12-0.3,21.4c-0.2,18.8-0.6,45.2-1.2,71.4
		C610.6,115.4,615.6,114.8,620.6,113.6z"/>
	<path class="st3" d="M595.8,116.2l0.1-94.4C595.8,53.3,595.7,84.6,595.8,116.2C595.7,116.2,595.7,116.2,595.8,116.2z"/>
	<path class="st3" d="M551.8,87.4c1.6,7.3,3,14.6,4,21.9c1.6-0.1,3.4,0.2,5,0.9c1.6,0.7,3.2,1.3,4.9,1.9c-2.1-16-7.5-40.1-11.3-60.2
		c-2.5-13-3.4-21.9-3.7-27.7c-0.2,0-0.4,0.1-0.6,0.1c-0.2,0-0.5,0.1-0.8,0.1c-0.1,0-0.2,0-0.4,0c-0.1,0-0.2,0-0.3,0
		c-0.1,0-0.1,0-0.2,0c-0.5,0.1-1.1,0.2-1.6,0.2c-1,0-1.1,0-0.3,0c-0.5,0.2-1,0.4-1.6,0.6c-0.7,0.2-1.4,0.4-2.1,0.6
		c-0.4,0.3-0.8,0.6-1.2,0.9c-0.2,0.1-0.4,0.3-0.6,0.4c-0.2,0.1-0.4,0.3-0.7,0.4c-0.3,0.6-0.6,1.1-1,1.6c1.3,9.3,3.2,19.2,5.5,28.9
		C547.1,67.6,549.6,77.5,551.8,87.4L551.8,87.4z"/>
	<path class="st3" d="M575.2,114.5c-2.2-24.4-5.4-50.1-8.1-73.8c-0.4-3.5-0.1-12.3,0.2-18.1c-1.3,0.2-2.7,0.3-4,0.3
		c-0.7,0-1.4,0-2.2-0.1c-0.6,0.1-1.1,0.2-1.7,0.1c-0.6-0.1-1.2-0.2-1.8-0.3c-0.1,0-0.2,0-0.2,0c0,0,0,0-0.1,0
		c-0.6,0.1-1.3,0.2-2,0.2c-1.2,0.4-2.3,0.7-3.5,0.9c-0.2,0.1-0.5,0.1-0.7,0.2c-0.2,0-0.5,0.1-0.7,0.1c0,0,0,0,0,0
		c0.8,20,8.5,54.9,13,87.1C567.2,112.7,571.1,113.8,575.2,114.5z"/>
	<path class="st3" d="M574.3,114.3c4.9,1,10,1.5,15,1.7c-0.5-26.2-0.9-52.8-1.2-71.7c-0.1-9.6-0.2-17.2-0.3-21.7
		c-3.4,0.6-6.6-1-10.3-0.8c-0.1,0-0.2,0-0.3-0.1c-0.7,0.2-1.5,0.3-2.3,0.3c-1.2,0-2.3-0.2-3.2-0.6c-1.6,0.5-3.2,0.9-4.9,1.1
		c-1.6,18.4,1.5,40,5.9,77.5C573.4,105.1,573.9,109.7,574.3,114.3z"/>
	<path class="st3" d="M589,116c4.2,0.2,8.3,0.2,12.3,0c1.6-0.1,3.1-0.2,4.6-0.3c0.7-12.9,1.7-26,2.5-41.6c1.1-22,1.6-40.3-0.3-51.2
		c-0.6,0-1.3,0.1-1.9,0.1c-2.6-0.3-5.1-0.7-7.7-1c-0.9-0.2-1.8-0.5-2.7-0.8c-2.1,0.8-4.3,1.3-6.6,1.4c-0.8,0.2-1.6,0.3-2.4,0.4
		c-1.9,10.9-1.4,29.2-0.3,51.3C587.3,89.8,588.2,103,589,116z"/>
</g>
<g>
	<g>
		<path class="st4" d="M551.4,28.1c1.7,6.6,3.2,13.3,4.5,20c0.7,3.3,1.3,6.7,1.9,10.1c0.6,3.4,1.2,6.7,1.7,10.1
			c0.5,3.4,1,6.8,1.5,10.2c0.4,3.4,0.8,6.8,1.1,10.2c0.6,6.8,1,13.7,0.9,20.5c-1.1-6.8-2.2-13.5-3.2-20.3l-3.2-20.2l-1.6-10.1
			c-0.5-3.4-1-6.8-1.4-10.1C552.7,41.8,551.9,35,551.4,28.1z"/>
	</g>
	<g>
		<path class="st4" d="M565.3,25.2c1.1,7.4,2.2,14.6,3.4,21.9l1.8,10.9l1.7,11c0.5,3.7,1,7.3,1.5,11c0.4,3.7,0.8,7.4,1.1,11.1
			c0.3,3.7,0.3,7.4,0.4,11.2c0,3.7,0,7.4-0.1,11.1c-0.7-3.7-1.3-7.3-1.8-11l-0.8-5.5c-0.1-0.9-0.2-1.8-0.3-2.7l-0.4-2.7l-1.7-10.9
			l-1.7-11c-0.5-3.7-1-7.3-1.5-11c-0.4-3.7-0.8-7.4-1.1-11.1C565,40.1,564.8,32.6,565.3,25.2z"/>
	</g>
	<g>
		<path class="st4" d="M643,25.8c-0.4,7.1-1.2,14.1-2.1,21.1c-0.4,3.5-1,7-1.5,10.5l-1.6,10.5l-3.4,20.9c-1.1,7-2.2,13.9-3.4,20.9
			c-0.1-7.1,0.4-14.2,1.1-21.2c0.3-3.5,0.8-7,1.2-10.5c0.5-3.5,1-7,1.5-10.5l1.8-10.4c0.6-3.5,1.2-6.9,2-10.4
			C639.9,39.6,641.3,32.7,643,25.8z"/>
	</g>
	<g>
		<path class="st4" d="M628.3,25.5c0.3,1.3,0.6,2.6,0.8,3.9c0.2,1.3,0.3,2.7,0.4,4l0,0.1c-0.5,6.7-1.2,13.4-2.1,20
			c-0.4,3.3-0.9,6.6-1.4,9.9c-0.5,3.3-0.9,6.6-1.5,9.9c-0.5,3.3-1,6.6-1.5,9.9c-0.5,3.3-1,6.6-1.6,9.9c-1.1,6.6-2.1,13.2-3.2,19.9
			c-0.4-6.7-0.2-13.5,0.3-20.2l0.4-5l0.5-5c0.3-3.3,0.8-6.7,1.3-10c0.4-3.3,1-6.6,1.5-9.9c0.5-3.3,1.1-6.6,1.8-9.9
			c1.2-6.6,2.6-13.1,4.1-19.7l0,0.1c0.1-1.3,0.2-2.6,0.3-3.9C628.3,28.1,628.3,26.8,628.3,25.5z"/>
	</g>
	<g>
		<path class="st4" d="M585.7,24.9c1.3,7.4,2.2,14.9,2.9,22.4c0.4,3.7,0.6,7.5,0.9,11.2c0.2,3.7,0.4,7.5,0.6,11.2l0.3,11.2
			c0,3.8,0.1,7.5,0,11.3c-0.1,7.5-0.3,15-0.9,22.5c-1-7.5-1.7-14.9-2.2-22.4c-0.3-3.7-0.5-7.5-0.7-11.2L586,69.8l-0.4-11.2
			c-0.1-3.7-0.2-7.5-0.2-11.2C585.4,39.9,585.4,32.4,585.7,24.9z"/>
	</g>
	<g>
		<path class="st4" d="M607.9,26.1c0.7,7.4,0.9,14.8,1.1,22.2c0.1,3.7,0.1,7.4,0.1,11.1l-0.1,11.1l-0.3,11.1
			c-0.2,3.7-0.3,7.4-0.6,11.1c-0.5,7.4-1,14.8-2,22.1c-0.7-7.4-0.9-14.8-1.1-22.2c-0.1-3.7-0.1-7.4-0.1-11.1l0.1-11.1l0.3-11.1
			c0.2-3.7,0.3-7.4,0.6-11.1C606.3,40.9,606.9,33.5,607.9,26.1z"/>
	</g>
	<g>
		<path class="st5" d="M551.1,28.1c1.3,6.7,2.4,13.5,3.5,20.2c1.1,6.7,2.1,13.5,3.1,20.3c0.9,6.8,1.8,13.6,2.6,20.3l1,10.2
			c0.3,3.4,0.6,6.8,0.8,10.2L559.5,89c-0.9-6.8-1.8-13.5-2.8-20.3l-2.8-20.3C552.9,41.7,551.9,34.9,551.1,28.1z"/>
	</g>
	<g>
		<path class="st5" d="M565.8,24.8c0.2,1.8,0.4,3.7,0.6,5.5l0.6,5.5l0.7,5.5l0.7,5.5l3,22.1c1,7.4,1.9,14.7,2.6,22.1
			c0.3,3.7,0.6,7.4,0.9,11.1c0.2,3.7,0.4,7.4,0.4,11.1c-0.2-1.8-0.4-3.7-0.6-5.5l-0.6-5.5l-0.6-5.5l-0.7-5.5l-2.9-22.1
			c-1-7.4-1.9-14.7-2.6-22.1c-0.4-3.7-0.7-7.4-1-11.1C566.1,32.3,565.9,28.6,565.8,24.8z"/>
	</g>
	<g>
		<path class="st5" d="M643.6,25.9c-0.3,7-1,14.1-1.9,21.1c-0.9,7-2.2,13.9-3.4,20.9c-1.3,6.9-2.5,13.9-3.6,20.8l-0.8,5.2l-0.7,5.2
			l-0.7,5.2l-0.6,5.3l0.3-5.3l0.5-5.3l0.6-5.3l0.7-5.2c1-7,2.2-13.9,3.4-20.9c1.3-6.9,2.5-13.9,3.6-20.8
			C642,39.9,642.9,32.9,643.6,25.9z"/>
	</g>
	<g>
		<path class="st5" d="M628.8,25.4c-0.1,1.8-0.2,3.6-0.3,5.5l-0.4,5.5c-0.3,3.6-0.7,7.3-1.1,10.9c-0.8,7.3-1.9,14.5-2.9,21.7
			c-1,7.2-2,14.4-2.9,21.7l-0.6,5.4l-0.5,5.4l-0.5,5.4c-0.1,1.8-0.2,3.6-0.3,5.5c0-1.8,0-3.6,0-5.5l0.1-5.5l0.3-5.5l0.4-5.5
			c0.6-7.3,1.6-14.5,2.6-21.7l3.3-21.6l0.8-5.4l0.7-5.4l0.7-5.4C628.4,29.1,628.6,27.3,628.8,25.4z"/>
	</g>
	<g>
		<path class="st5" d="M586.2,25.1c0.2,7.5,0.7,14.9,1.2,22.4l1.7,22.3c0.5,7.4,1.1,14.9,1.3,22.4c0.2,7.5,0.2,15-0.4,22.4
			c-0.2-7.5-0.7-14.9-1.2-22.4l-1.7-22.3c-0.5-7.5-1-14.9-1.3-22.4C585.6,40,585.7,32.5,586.2,25.1z"/>
	</g>
	<g>
		<path class="st5" d="M608.5,26.3c0,7.4,0.1,14.7,0,22l-0.2,22c-0.1,7.3-0.2,14.7-0.4,22c-0.2,7.3-0.5,14.7-1,22
			c-0.3-7.4-0.5-14.7-0.6-22c-0.1-7.3-0.1-14.7,0-22c0.1-7.3,0.3-14.7,0.6-22C607.3,41,607.8,33.6,608.5,26.3z"/>
	</g>
</g>
<path class="st10" d="M597.4,21.7c-6,0.4-11.7,1.3-11.7,1.3c-11.9-1.8-18.9,0.3-18.9,0.3c-11.3-0.5-17.2,1.4-17.2,1.4
	c-8.7,0.7-11.3,2.1-11.3,5.4c0,6.2,4.4,33,56,33c59.5,0,62.3-26.9,62.3-33.4c0-3.3-2.2-4.1-10.9-4.7c0,0-7.6-3.1-19.2-2
	c0,0-6.7-1.8-18.6,0c0,0-3.4-0.9-9.4-1.3H597.4z"/>
<path class="st11" d="M551.2,108.5c-2.1-9.5-4.4-18.9-6.6-28.2c-4.1-17.4-6.7-37.2-6.4-51.8c0,0,1.1,6,12.9,6c0,0,4.4,3.8,15.3,4.3
	c0,0,8.8,2.6,20.9,0.8c0,0,4.8,0.7,10.9,1.1h0.8c6.1-0.4,10.9-1.1,10.9-1.1c12.1,2.1,18.6-1.5,18.6-1.5c11.8,0.1,15.6-3.6,15.6-3.6
	c12.1-1.8,13.3-6.5,13.3-6.5c0.3,14.3-0.4,34.3-4.4,51.4c-2.3,9.7-4.7,19.6-6.9,29.5c0,0-13.1,10.2-48.7,10.2
	C563.2,119.2,551.2,108.5,551.2,108.5z"/>
<g>
	<path class="st7" d="M549.7,24.3c-2.2,0.4-4.3,0.9-6.3,1.8c-0.9,0.4-1.9,0.9-2.6,1.6c-0.3,0.3-0.6,0.7-0.7,1
		c-0.1,0.3-0.1,0.5,0.1,0.7c0,0.1,0.1,0.1,0.1,0.2c0.1,0.1,0.2,0.2,0.3,0.3c0.2,0.2,0.4,0.4,0.6,0.6c0.4,0.4,0.8,0.7,1.2,1
		c0.8,0.6,1.7,1.1,2.6,1.6c1.9,0.9,4.1,1.3,6.3,1.7c-2.2,0.4-4.5,0.4-6.8-0.2c-1.1-0.3-2.2-0.9-3.2-1.5c-0.5-0.3-1-0.7-1.4-1.1
		c-0.2-0.2-0.4-0.4-0.6-0.6c-0.1-0.1-0.2-0.2-0.3-0.3c-0.1-0.1-0.3-0.3-0.4-0.5c-0.2-0.4-0.4-0.8-0.4-1.2c0-0.5,0.1-0.9,0.2-1.2
		c0.3-0.7,0.8-1.2,1.3-1.6c1-0.8,2.1-1.3,3.2-1.6C545.1,24,547.5,23.9,549.7,24.3z"/>
</g>
<g>
	<path class="st7" d="M645.7,24.8c2.3-0.2,4.5,0.1,6.7,0.5c1.1,0.2,2.2,0.5,3.3,1c0.5,0.2,1.2,0.6,1.7,1.4c0.2,0.4,0.3,1,0.2,1.5
		c-0.1,0.5-0.3,0.8-0.5,1.1c-0.9,1.1-1.9,1.7-3,2.2c-1,0.5-2.1,0.9-3.2,1.2c-2.2,0.6-4.4,1-6.7,0.8c2.2-0.5,4.2-1.2,6.2-2.1
		c1-0.4,1.9-0.9,2.8-1.5c0.9-0.5,1.8-1.2,2.2-1.8c0.1-0.2,0.2-0.3,0.2-0.4c0-0.1,0-0.1,0-0.1c-0.1-0.1-0.4-0.4-0.8-0.6
		c-0.9-0.4-1.9-0.8-2.9-1.1C649.9,26.3,647.8,25.6,645.7,24.8z"/>
</g>
<g>
	<path class="st7" d="M551.1,34.6c1.1,0.7,2.4,1.2,3.7,1.6c1.3,0.4,2.6,0.7,3.9,0.9c1.3,0.2,2.6,0.3,4,0.4c0.7,0,1.3,0,2,0.1l2,0
		l0.1,0l0.1,0c1.6,0.3,3.3,0.5,5,0.7c1.7,0.2,3.4,0.3,5.1,0.3c1.7,0.1,3.4,0.1,5.1,0c1.7-0.1,3.4-0.2,5-0.5l0.1,0l0.1,0
		c1.8,0.3,3.6,0.5,5.4,0.6c1.8,0.2,3.6,0.2,5.4,0.3c3.6,0.1,7.2-0.1,10.7-0.8l0.2,0l0.1,0c3.2,0.3,6.5,0.5,9.8,0.5
		c1.6,0,3.3-0.1,4.9-0.2c1.6-0.2,3.2-0.4,4.7-0.9l0.1,0l0.1,0c2.6-0.1,5.3-0.3,8-0.7c1.3-0.2,2.6-0.5,3.9-0.8
		c1.3-0.4,2.6-0.8,3.7-1.4c-1.1,0.8-2.3,1.4-3.6,1.8c-1.3,0.5-2.6,0.8-3.9,1.1c-2.6,0.6-5.3,1-8,1.2l0.2,0c-1.6,0.7-3.3,1-5,1.2
		c-1.7,0.2-3.4,0.3-5,0.4c-3.4,0.1-6.7,0-10-0.3l0.3,0c-3.7,0.8-7.5,1-11.2,1c-1.9,0-3.7-0.2-5.6-0.3c-1.9-0.2-3.7-0.4-5.5-0.7
		l0.3,0c-1.7,0.2-3.5,0.3-5.2,0.4c-1.7,0-3.5,0-5.2-0.1c-3.5-0.2-6.9-0.7-10.3-1.5l0.1,0l-2-0.1c-0.7-0.1-1.4-0.1-2-0.2
		c-1.4-0.2-2.7-0.4-4-0.7c-1.3-0.3-2.6-0.7-3.9-1.3C553.4,36.1,552.2,35.4,551.1,34.6z"/>
</g>
<g>
	<path class="st7" d="M645.7,24.8c-1.5-0.5-3.1-0.8-4.6-1c-1.6-0.3-3.1-0.4-4.7-0.5c-1.6-0.1-3.1-0.1-4.7,0c-1.6,0-3.1,0.2-4.7,0.4
		l-0.1,0l-0.2,0c-1.4-0.4-3-0.7-4.6-0.9c-1.6-0.2-3.1-0.3-4.7-0.2c-1.6,0-3.1,0.1-4.7,0.3c-1.6,0.2-3.1,0.4-4.6,0.8l-0.2,0l-0.2-0.1
		c-1.7-0.4-3.6-0.7-5.4-0.9c-1.8-0.2-3.7-0.3-5.5-0.3c-1.8,0-3.7,0.1-5.5,0.3c-1.8,0.2-3.7,0.5-5.4,0.9l-0.2,0.1l-0.2-0.1
		c-1.5-0.4-3.1-0.7-4.7-0.8c-1.6-0.2-3.2-0.2-4.8-0.2c-1.6,0-3.2,0.1-4.8,0.3c-1.6,0.2-3.2,0.5-4.7,0.8l-0.2,0l-0.1,0
		c-2.7-0.4-5.5-0.5-8.3-0.4c-1.4,0.1-2.8,0.2-4.2,0.4c-1.4,0.2-2.8,0.4-4.1,0.8c2.6-1,5.4-1.6,8.2-1.9c2.8-0.4,5.7-0.4,8.5-0.1
		l-0.3,0c1.6-0.5,3.2-0.8,4.9-1.1c1.6-0.3,3.3-0.4,4.9-0.5c1.7-0.1,3.3-0.1,5,0.1c1.7,0.1,3.3,0.4,5,0.8l-0.5,0
		c1.9-0.4,3.7-0.7,5.6-1c1.9-0.2,3.8-0.4,5.7-0.4c1.9,0,3.8,0.1,5.7,0.4c1.9,0.2,3.7,0.5,5.6,1l-0.4,0c1.6-0.3,3.2-0.6,4.8-0.7
		c1.6-0.2,3.3-0.2,4.9-0.2c1.6,0.1,3.3,0.2,4.9,0.4c1.6,0.3,3.2,0.6,4.8,1.1l-0.3,0c1.6-0.1,3.2-0.2,4.8-0.1c1.6,0,3.2,0.2,4.8,0.4
		c1.6,0.2,3.2,0.5,4.7,0.9C642.7,23.7,644.3,24.2,645.7,24.8z"/>
</g>
<path class="st7" d="M564,296.5c0,0-0.7,3.2,0,7.2c0.1,0.8,5.9,13.9,34.9,13.9c28.3,0,32.3-12.4,32.4-13.9c0.3-3.1,0-7.2,0-7.2H564z
	"/>
<path class="st8" d="M564,297.2c0,0-0.7,2.9,0,6.5c0.1,0.7,5.9,12.5,34.9,12.5c28.3,0,32.3-11.2,32.4-12.5c0.3-2.8,0-6.5,0-6.5H564z
	"/>
<path class="st9" d="M564.3,297.5c0,0-0.7,2.9,0,6.5c0.1,0.7,5.9,12.5,34.9,12.5c28.3,0,32.3-11.2,32.4-12.5c0.3-2.8,0-6.5,0-6.5
	H564.3z"/>
<path class="st3" d="M637.2,275.8c-0.2,5-0.6,10.1-1.1,15.6c-1,11-6.9,11.1-6.9,11.1c-4,7-11.3,3.4-11.3,3.4
	c-7.1,7.3-14.3,1.5-14.3,1.5c-2.4,3.3-5.9,2.8-5.9,2.8s-3.9,0.4-6.1-2.8c0,0-7.2,5.8-14.3-1.5c0,0-7.3,3.6-11.3-3.4
	c0,0-5.9-0.1-6.9-11.1c-0.5-5.6-0.8-10.8-1.1-15.9c0,0,17.8,9.9,39.4,9.9C619.2,285.3,637.2,275.8,637.2,275.8z"/>
<path class="st11" d="M551,138.4c2.4,10.8,4.3,21.7,5.2,32.2c0.5,5.7,1,13.8,1.3,18.5c0,0,18.3,10.2,41.2,10.2
	c22.6,0,41.4-10.2,41.4-10.2c0.3-5.5,0.8-11.6,1.3-18.5c0.8-10.3,2.8-21,5.1-31.7c0,0-17.7,10.4-47.8,10.4S551,138.4,551,138.4z"/>
<path class="st11" d="M556.7,213.1c1.1,17.2,1.1,25.8,1.6,37.3c0,0,17.2,9.9,39.4,9.9c20.9,0,39.6-9.5,39.6-9.5
	c0.5-11,0.7-21.9,1.6-37.7c0,0-19.2,10.2-41.2,10.2C574.3,223.3,556.7,213.1,556.7,213.1z"/>
<path class="st7" d="M564,296.5c0,0-0.7,3.2,0,7.2c0.1,0.8,5.9,13.9,34.9,13.9c28.3,0,32.3-12.4,32.4-13.9c0.3-3.1,0-7.2,0-7.2H564z
	"/>
<path class="st8" d="M564,297.2c0,0-0.7,2.9,0,6.5c0.1,0.7,5.9,12.5,34.9,12.5c28.3,0,32.3-11.2,32.4-12.5c0.3-2.8,0-6.5,0-6.5H564z
	"/>
<path class="st12" d="M564.3,297.5c0,0-0.7,2.9,0,6.5c0.1,0.7,5.9,12.5,34.9,12.5c28.3,0,32.3-11.2,32.4-12.5c0.3-2.8,0-6.5,0-6.5
	H564.3z"/>
<path class="st11" d="M637.2,275.8c-0.2,5-0.6,10.1-1.1,15.6c-1,11-6.9,11.1-6.9,11.1c-4,7-11.3,3.4-11.3,3.4
	c-7.1,7.3-14.3,1.5-14.3,1.5c-2.4,3.3-5.9,2.8-5.9,2.8s-3.9,0.4-6.1-2.8c0,0-7.2,5.8-14.3-1.5c0,0-7.3,3.6-11.3-3.4
	c0,0-5.9-0.1-6.9-11.1c-0.5-5.6-0.8-10.8-1.1-15.9c0,0,17.8,9.9,39.4,9.9C619.2,285.3,637.2,275.8,637.2,275.8z"/>
<text transform="matrix(0.7219 0 0 1 14.8125 315.907)" class="st27 st28">Info graphic vase, assets og opdeling til kode</text>
</svg>
