<?xml version="1.0" encoding="utf-8"?>
<!-- Generator: Adobe Illustrator 22.1.0, SVG Export Plug-In . SVG Version: 6.00 Build 0)  -->
<svg version="1.1" id="Layer_1" xmlns="http://www.w3.org/2000/svg" xmlns:xlink="http://www.w3.org/1999/xlink" x="0px" y="0px"
	 viewBox="0 0 80.6 75.2" style="enable-background:new 0 0 80.6 75.2;" xml:space="preserve">
<style type="text/css">
	.st0{fill:none;stroke:#000000;stroke-miterlimit:10;}
	.st1{fill:#FFFFFF;}
	.st2{fill:#7F5056;}
	.st3{fill:#9F6166;}
	.st4{fill:#B57D86;}
	.st5{fill:#4A1B25;}
	.st6{opacity:0.42;}
	.st7{fill:#CCAAA2;}
	.st8{fill:#915960;}
	.st9{opacity:6.000000e-02;fill:#FFFFFF;}
	.st10{opacity:0.49;}
	.st11{fill:#4F3136;}
	.st12{fill:#362222;}
	.st13{fill:#002A73;stroke:#002A73;stroke-width:0.25;stroke-miterlimit:10;}
	.st14{fill:#FFFFFF;stroke:#000000;stroke-miterlimit:10;}
	.st15{fill:#95725E;stroke:#FFFFFF;stroke-width:0.25;stroke-miterlimit:10;}
	.st16{fill:#353535;stroke:#FFFFFF;stroke-width:0.25;stroke-miterlimit:10;}
	.st17{fill:#FC5500;}
	.st18{fill:none;stroke:#000000;stroke-width:0.5;stroke-miterlimit:10;}
	.st19{fill:#3F2E19;}
	.st20{fill:none;stroke:#FFFFFF;stroke-width:0.25;stroke-miterlimit:10;}
	.st21{fill:none;}
	.st22{fill:#9F6166;stroke:#FFFFFF;stroke-width:0.25;stroke-miterlimit:10;}
	.st23{fill:#A60000;stroke:#FFFFFF;stroke-width:0.25;stroke-miterlimit:10;}
	.st24{fill:#1B8B00;}
	.st25{fill:#F7CCAD;stroke:#FFFFFF;stroke-width:0.25;stroke-miterlimit:10;}
	.st26{stroke:#FFFFFF;stroke-width:0.25;stroke-miterlimit:10;}
	.st27{fill:#A60000;}
</style>
<path class="st22" d="M26.4,29.9c0-0.2,10.1-1.6,10.1-1.6l11.4,2l0.2,0.1l-0.3,2L41.3,36l-15.4-2.8l-1.4,0.9l-0.6-3.6
	C23.8,30.5,26.4,30.4,26.4,29.9z"/>
<path class="st22" d="M23.8,30.5c0,0,0.2,7.4,2.8,14"/>
<path class="st22" d="M45.5,31.6c0,0,2.6-0.1,2-0.5c0,0,0.3-0.1,0.1,1.8c-0.2,1.9-1.5,12.6-4.4,16.1c0,0-0.3,0.7-2,1.4"/>
<path class="st22" d="M43,32.2c0,0,2.8,0.1,2.7-0.4c0-0.1-0.1-0.1-0.2-0.2c0,0,0.4-0.1,0.2,1.3c-0.2,1.4-2.1,14.8-4.2,17.2
	c0,0-0.6,0.8-1.6,0.6"/>
<path class="st22" d="M39.7,32.4c0,0,2.1,1,3.3-0.2c0,0-1.7,17-2.9,18.3c0,0-0.8,1.2-1.9,0.4"/>
<path class="st22" d="M36,32.4c0,0,1.2,1.1,3.6,0c0,0-0.6,17.6-1.6,18.8c0,0-0.9,1.2-2,0.1C36,51.2,36,32.4,36,32.4z"/>
<path class="st22" d="M26.5,31.7c0,0-2.6-0.1-2-0.5c0,0-0.3-0.1-0.1,1.8c0.2,1.9,1.5,12.6,4.4,16.1c0,0,0.3,0.7,2,1.4"/>
<path class="st22" d="M29,32.2c0,0-2.8,0.1-2.7-0.4c0-0.1,0.1-0.1,0.2-0.2c0,0-0.4-0.1-0.2,1.3c0.2,1.4,2.1,14.8,4.2,17.2
	c0,0,0.6,0.8,1.6,0.6"/>
<path class="st22" d="M32.5,32.5c0,0-2.3,1-3.5-0.2c0,0,1.7,17,2.9,18.3c0,0,0.8,1.2,1.9,0.4"/>
<path class="st22" d="M36,32.4c0,0-1.2,1.1-3.6,0c0,0,0.6,17.6,1.6,18.8c0,0,0.9,1.2,2,0.1C36.1,51.3,36,32.4,36,32.4z"/>
<path class="st22" d="M24.5,31.3c-0.2-0.3,0.8-0.4,0.8-0.4c-3.2-0.5,0.1-0.7,0.1-0.7c-1.5-1.1,1.1-0.8,1.1-0.8c-1.3-1.1,2-0.5,2-0.5
	c-0.4-1.2,2.2-0.5,2.2-0.5c0.7-1.1,2.4,0,2.4,0c1.7-1.4,3.1-0.3,3.1-0.3l0.4,0.2c0,0,1.5-1.1,3.1,0.2c0,0,1.5-1,2.2,0
	c0,0,2.4-0.6,2,0.5c0,0,3.1-0.5,1.9,0.5c0,0,2.4-0.2,1,0.7c0,0,3,0.2,0.1,0.6c0,0,0.6,0.1,0.7,0.3"/>
</svg>
