<svg xmlns="http://www.w3.org/2000/svg" xmlns:xlink="http://www.w3.org/1999/xlink" viewBox="0 0 49.96 28.38"><defs><style>.cls-1{fill:url(#linear-gradient);}.cls-2{fill:url(#linear-gradient-2);}.cls-3{fill:url(#linear-gradient-3);}.cls-4{fill:url(#linear-gradient-4);}.cls-5{fill:url(#linear-gradient-5);}.cls-6{fill:url(#linear-gradient-6);}.cls-7{fill:url(#linear-gradient-7);}.cls-8{fill:url(#linear-gradient-8);}.cls-9{fill:url(#linear-gradient-9);}.cls-10{fill:url(#linear-gradient-10);}.cls-11{fill:url(#linear-gradient-11);}.cls-12{fill:url(#linear-gradient-12);}.cls-13{fill:url(#linear-gradient-13);}.cls-14{fill:url(#linear-gradient-14);}.cls-15{fill:url(#linear-gradient-15);}.cls-16{fill:url(#linear-gradient-16);}.cls-17{fill:url(#linear-gradient-17);}.cls-18{fill:url(#linear-gradient-18);}</style><linearGradient id="linear-gradient" x1="-4215.85" y1="1.53" x2="-4184.79" y2="1.53" gradientTransform="matrix(-1, 0, 0, 1, -4165.89, 0)" gradientUnits="userSpaceOnUse"><stop offset="0" stop-color="#8ca7db"/><stop offset="0.02" stop-color="#8aa4d7"/><stop offset="0.24" stop-color="#7685ac"/><stop offset="0.45" stop-color="#676d8a"/><stop offset="0.66" stop-color="#5c5c72"/><stop offset="0.84" stop-color="#555264"/><stop offset="1" stop-color="#534e5f"/></linearGradient><linearGradient id="linear-gradient-2" x1="-4210.68" y1="24.74" x2="-4189.35" y2="24.74" xlink:href="#linear-gradient"/><linearGradient id="linear-gradient-3" x1="-4212.85" y1="20.93" x2="-4187.69" y2="20.93" xlink:href="#linear-gradient"/><linearGradient id="linear-gradient-4" x1="-4214.07" y1="16.06" x2="-4186.26" y2="16.06" xlink:href="#linear-gradient"/><linearGradient id="linear-gradient-5" x1="-4214.85" y1="11.12" x2="-4185.64" y2="11.12" xlink:href="#linear-gradient"/><linearGradient id="linear-gradient-6" x1="-4215.41" y1="5.57" x2="-4185.04" y2="5.57" xlink:href="#linear-gradient"/><linearGradient id="linear-gradient-7" x1="-4191.53" y1="6.13" x2="-4165.89" y2="6.13" gradientTransform="matrix(-1, 0, 0, 1, -4165.89, 0)" gradientUnits="userSpaceOnUse"><stop offset="0" stop-color="#ffffde"/><stop offset="0.06" stop-color="#f9f6d5"/><stop offset="0.33" stop-color="#e3d6b3"/><stop offset="0.57" stop-color="#d3bf9b"/><stop offset="0.81" stop-color="#c9b18d"/><stop offset="1" stop-color="#c6ac88"/></linearGradient><linearGradient id="linear-gradient-8" x1="-4187.26" y1="25.29" x2="-4169.66" y2="25.29" xlink:href="#linear-gradient-7"/><linearGradient id="linear-gradient-9" x1="-4189.05" y1="22.14" x2="-4168.28" y2="22.14" xlink:href="#linear-gradient-7"/><linearGradient id="linear-gradient-10" x1="-4190.06" y1="18.12" x2="-4167.11" y2="18.12" xlink:href="#linear-gradient-7"/><linearGradient id="linear-gradient-11" x1="-4190.7" y1="14.04" x2="-4166.6" y2="14.04" xlink:href="#linear-gradient-7"/><linearGradient id="linear-gradient-12" x1="-4191.17" y1="9.46" x2="-4166.1" y2="9.46" xlink:href="#linear-gradient-7"/><linearGradient id="linear-gradient-13" x1="-4201.45" y1="10.91" x2="-4180.39" y2="10.91" gradientTransform="matrix(-1, 0, 0, 1, -4165.89, 0)" gradientUnits="userSpaceOnUse"><stop offset="0" stop-color="#ddefcd"/><stop offset="0.22" stop-color="#b6c7ac"/><stop offset="0.43" stop-color="#96a591"/><stop offset="0.64" stop-color="#7f8d7d"/><stop offset="0.84" stop-color="#717f71"/><stop offset="1" stop-color="#6c7a6d"/></linearGradient><linearGradient id="linear-gradient-14" x1="-4197.94" y1="26.64" x2="-4183.48" y2="26.64" xlink:href="#linear-gradient-13"/><linearGradient id="linear-gradient-15" x1="-4199.41" y1="24.06" x2="-4182.36" y2="24.06" xlink:href="#linear-gradient-13"/><linearGradient id="linear-gradient-16" x1="-4200.24" y1="20.76" x2="-4181.39" y2="20.76" xlink:href="#linear-gradient-13"/><linearGradient id="linear-gradient-17" x1="-4200.77" y1="17.41" x2="-4180.97" y2="17.41" xlink:href="#linear-gradient-13"/><linearGradient id="linear-gradient-18" x1="-4201.15" y1="13.65" x2="-4180.56" y2="13.65" xlink:href="#linear-gradient-13"/></defs><title>Asset 29</title><g id="Layer_2" data-name="Layer 2"><g id="Layer_2-2" data-name="Layer 2"><path class="cls-1" d="M19.41,1.57c.53.86,7.92,1.44,14.66,1.5C41.4,3.12,49,2.32,49.42,1.68l0-.05C49.6,1.32,50.68,0,49.16,0L19.45,0c-1.06,0-.32.79-.09,1.51"/><path class="cls-2" d="M23.87,23.11c.27,1.87,1.07,3.08,1.93,3.41,2.52,1,13.92,1.26,17.31-.51a6.16,6.16,0,0,0,1.41-3.22l.27-.61c-2.62,3.6-19.06,3.39-21.33,0"/><path class="cls-3" d="M22.31,18.86a5.24,5.24,0,0,0,1.43,3.67c2.57,3.06,18.43,3.25,21.05-.35a6.54,6.54,0,0,0,1.8-4.4A2.26,2.26,0,0,1,47,17c-1.63,3.77-23.12,4.46-25.15.62"/><path class="cls-4" d="M20.78,13.31a6.44,6.44,0,0,0,1,4.26l0,.05c2,3.84,23.52,3.15,25.15-.62a6.22,6.22,0,0,0,.87-4.28c0-.16.15-.39.36-.79l-.15.28c-2.23,4.08-26.39,4.18-27.66,0"/><path class="cls-5" d="M19.87,7.74a7.26,7.26,0,0,0,.46,4.4l0,.07c1.27,4.18,25.43,4.08,27.66,0l.15-.28a7.13,7.13,0,0,0,.55-4.55c0-.07.09-.2.23-.46l-.13.25c-2.82,3.52-26.87,3-29,0"/><path class="cls-6" d="M19.36,1.51l.05.06c.53.86,7.92,1.44,14.66,1.5C41.4,3.12,49,2.32,49.42,1.68l0-.05a.6.6,0,0,0-.08.32c.41,3-.09,4.35-.41,5l-.13.25c-2.82,3.52-26.87,3-29,0l-.1-.29a8,8,0,0,1-.27-4.78"/><path class="cls-7" d="M.42,6.16C.86,6.87,7,7.35,12.52,7.4c6.06,0,12.32-.62,12.68-1.15l0,0c.13-.26,1-1.31-.24-1.31L.46,4.87c-.87,0-.26.65-.07,1.24"/><path class="cls-8" d="M4.1,23.94c.23,1.54.89,2.54,1.6,2.82,2.08.81,11.48,1,14.28-.42a5.08,5.08,0,0,0,1.17-2.66l.22-.51c-2.16,3-15.73,2.8-17.61,0"/><path class="cls-9" d="M2.82,20.43a4.31,4.31,0,0,0,1.18,3c2.12,2.53,15.21,2.68,17.37-.29a5.31,5.31,0,0,0,1.49-3.63,1.73,1.73,0,0,1,.3-.64C21.81,22,4.07,22.58,2.39,19.41"/><path class="cls-10" d="M1.55,15.85a5.39,5.39,0,0,0,.82,3.52l0,0c1.68,3.17,19.42,2.6,20.77-.51a5.21,5.21,0,0,0,.72-3.54c0-.13.12-.32.29-.65l-.12.24C22.2,18.31,2.27,18.4,1.21,15"/><path class="cls-11" d="M.81,11.25a6,6,0,0,0,.37,3.64l0,.06c1.06,3.45,21,3.36,22.84,0l.12-.24A5.83,5.83,0,0,0,24.62,11a1.73,1.73,0,0,1,.19-.38l-.1.2c-2.33,2.91-22.18,2.51-24,0"/><path class="cls-12" d="M.39,6.11l0,0C.86,6.87,7,7.35,12.52,7.4c6.06,0,12.32-.62,12.68-1.15l0,0a.48.48,0,0,0-.07.26c.34,2.48-.07,3.6-.34,4.11l-.1.2c-2.33,2.91-22.18,2.51-24,0L.65,10.5A6.6,6.6,0,0,1,.42,6.56"/><path class="cls-13" d="M14.84,10.94c.37.58,5.37,1,9.94,1,5,0,10.12-.5,10.41-.94l0,0c.11-.21.84-1.08-.2-1.08l-20.14,0c-.71,0-.21.53,0,1"/><path class="cls-14" d="M17.87,25.54a2.78,2.78,0,0,0,1.31,2.31c1.71.67,9.43.86,11.73-.34a4.14,4.14,0,0,0,1-2.19l.18-.41c-1.77,2.44-12.92,2.29-14.46,0"/><path class="cls-15" d="M16.81,22.66a3.59,3.59,0,0,0,1,2.49c1.74,2.07,12.5,2.2,14.27-.24a4.39,4.39,0,0,0,1.23-3,1.28,1.28,0,0,1,.24-.53c-1.11,2.55-15.68,3-17.05.42"/><path class="cls-16" d="M15.77,18.9a4.43,4.43,0,0,0,.67,2.88l0,0c1.37,2.6,15.94,2.13,17.05-.42a4.3,4.3,0,0,0,.59-2.91c0-.1.1-.26.24-.53l-.1.19c-1.52,2.77-17.89,2.84-18.75,0"/><path class="cls-17" d="M15.16,15.12a4.93,4.93,0,0,0,.31,3l0,0c.86,2.84,17.23,2.77,18.75,0l.1-.19a4.79,4.79,0,0,0,.37-3.08c0-.05.06-.14.16-.31l-.09.17c-1.91,2.38-18.21,2.06-19.69,0"/><path class="cls-18" d="M14.82,10.9l0,0c.37.58,5.37,1,9.94,1,5,0,10.12-.5,10.41-.94l0,0a.36.36,0,0,0-.05.21,5.56,5.56,0,0,1-.28,3.38l-.09.17c-1.91,2.38-18.21,2.06-19.69,0L15,14.5a5.46,5.46,0,0,1-.19-3.23"/></g></g></svg>
