<?xml version="1.0" encoding="utf-8"?>
<!-- Generator: Adobe Illustrator 22.1.0, SVG Export Plug-In . SVG Version: 6.00 Build 0)  -->
<svg version="1.1" id="Layer_1" xmlns="http://www.w3.org/2000/svg" xmlns:xlink="http://www.w3.org/1999/xlink" x="0px" y="0px"
	 viewBox="0 0 28.2 23.8" style="enable-background:new 0 0 28.2 23.8;" xml:space="preserve">
<style type="text/css">
	.st0{fill:url(#SVGID_1_);}
</style>
<linearGradient id="SVGID_1_" gradientUnits="userSpaceOnUse" x1="3.8273" y1="269.6132" x2="28.3947" y2="263.9414" gradientTransform="matrix(1 0 0 1 0 -256)">
	<stop  offset="5.722046e-07" style="stop-color:#6D7B6E"/>
	<stop  offset="0.2812" style="stop-color:#B6C8AD"/>
	<stop  offset="0.8373" style="stop-color:#728071"/>
	<stop  offset="1" style="stop-color:#6D7B6E"/>
</linearGradient>
<path class="st0" d="M2.1,1.3c-0.6,0,0.4,1.4,0.4,1.6C2,6.3,3,7.1,3,7.3c-0.4,3.1,0.8,3.9,0.7,4.3c-0.3,2.6,1,3.6,1,4.1
	c0,2.6,1.6,3.3,1.7,4c0.1,0.9,0.7,1.9,0.9,2.1c0.9,0.9,13.7,1.2,14.6,0.3c0.6-0.6,0.9-0.8,1.1-2.5c0-0.4,1.5-1.3,1.2-3.3
	c-0.1-0.5,1.5-1.5,1.2-4.4c0-0.4,1.2-1.2,0.7-4.4c-0.1-0.4,1-2.2,0.4-4.5c-0.2-0.6,1-1.8,0-1.8C22,1.2,4.1,1.3,2.1,1.3z"/>
</svg>
