<?xml version="1.0" encoding="utf-8"?>
<!-- Generator: Adobe Illustrator 22.1.0, SVG Export Plug-In . SVG Version: 6.00 Build 0)  -->
<svg version="1.1" id="Layer_1" xmlns="http://www.w3.org/2000/svg" xmlns:xlink="http://www.w3.org/1999/xlink" x="0px" y="0px"
	 viewBox="0 0 348.6 221.2" style="enable-background:new 0 0 348.6 221.2;" xml:space="preserve">
<style type="text/css">
	.st0{fill:url(#SVGID_1_);stroke:url(#SVGID_2_);stroke-miterlimit:10;}
	.st1{fill:url(#SVGID_3_);stroke:#C6AC88;stroke-miterlimit:10;}
	.st2{fill:url(#SVGID_4_);stroke:url(#SVGID_5_);stroke-miterlimit:10;}
</style>
<linearGradient id="SVGID_1_" gradientUnits="userSpaceOnUse" x1="23.2999" y1="95.2162" x2="266.4021" y2="151.3408" gradientTransform="matrix(1 0 0 -1 0 224)">
	<stop  offset="5.722046e-07" style="stop-color:#6C7A6D"/>
	<stop  offset="0.2812" style="stop-color:#B6C7AC"/>
	<stop  offset="0.8373" style="stop-color:#717F71"/>
	<stop  offset="1" style="stop-color:#6C7A6D"/>
</linearGradient>
<linearGradient id="SVGID_2_" gradientUnits="userSpaceOnUse" x1="3.7002" y1="111.9346" x2="252.083" y2="111.9346">
	<stop  offset="0" style="stop-color:#6C7A6D"/>
	<stop  offset="0.1627" style="stop-color:#717F71"/>
	<stop  offset="0.7188" style="stop-color:#B6C7AC"/>
	<stop  offset="1" style="stop-color:#6C7A6D"/>
</linearGradient>
<path class="st0" d="M6,6.9c-5.8,0,4.3,13.7,4,16.1c-4.7,33.8,5.3,41.2,5.1,43.1c-4.2,30.4,7.6,38.7,7.2,42.3
	c-3,26.2,9.6,35.3,9.7,40.2c0.4,25.8,16.1,32.6,16.5,39.7c0.5,8.9,6.7,18.6,9.3,21.1c9.4,9.4,135.7,11.7,144.2,3.2
	c5.5-5.5,8.9-7.9,10.5-24.3c0.4-4.2,15.1-13.1,11.8-32.6c-0.8-5.1,15.2-14.9,12.3-44c-0.4-4.2,11.8-11.8,7.2-43.5
	c-0.6-3.8,10.1-22,3.8-44.4C245.8,17.5,257.7,6,247.2,6C203.2,6.1,26.2,6.9,6,6.9z"/>
<linearGradient id="SVGID_3_" gradientUnits="userSpaceOnUse" x1="178.8419" y1="71.4883" x2="357.0603" y2="112.6333" gradientTransform="matrix(1 0 0 -1 0 224)">
	<stop  offset="6.749080e-07" style="stop-color:#C6AC88"/>
	<stop  offset="0.3254" style="stop-color:#E3D6B3"/>
	<stop  offset="0.575" style="stop-color:#D3BF9B"/>
	<stop  offset="0.8058" style="stop-color:#C9B18D"/>
	<stop  offset="1" style="stop-color:#C6AC88"/>
</linearGradient>
<path class="st1" d="M166.2,63.2c-4.3,0,3.2,10,2.9,11.8c-3.4,24.8,3.9,30.2,3.7,31.6c-3.1,22.3,5.6,28.4,5.3,31
	c-2.2,19.2,7.1,25.8,7.1,29.4c0.3,18.9,11.8,23.9,12.1,29.1c0.4,6.5,4.9,13.6,6.8,15.5c6.9,6.9,99.5,8.6,105.7,2.3
	c4-4,6.5-5.8,7.7-17.8c0.3-3.1,11.1-9.6,8.7-23.9c-0.6-3.7,11.1-10.9,9-32.2c-0.3-3.1,8.7-8.7,5.3-31.9c-0.4-2.8,7.4-16.1,2.8-32.5
	c-1.3-4.6,7.4-13-0.3-13C310.8,62.6,181.1,63.2,166.2,63.2z"/>
<linearGradient id="SVGID_4_" gradientUnits="userSpaceOnUse" x1="144.6216" y1="51.9029" x2="272.3618" y2="81.3941" gradientTransform="matrix(1 0 0 -1 0 224)">
	<stop  offset="4.646106e-07" style="stop-color:#534E5F"/>
	<stop  offset="0.2404" style="stop-color:#7685AC"/>
	<stop  offset="0.4533" style="stop-color:#676D8A"/>
	<stop  offset="0.6556" style="stop-color:#5C5C72"/>
	<stop  offset="0.8427" style="stop-color:#555264"/>
	<stop  offset="1" style="stop-color:#534E5F"/>
</linearGradient>
<linearGradient id="SVGID_5_" gradientUnits="userSpaceOnUse" x1="134.0378" y1="60.6973" x2="265.1023" y2="60.6973" gradientTransform="matrix(1 0 0 -1 0 224)">
	<stop  offset="0" style="stop-color:#534E5F"/>
	<stop  offset="0.1573" style="stop-color:#555264"/>
	<stop  offset="0.3444" style="stop-color:#5C5C72"/>
	<stop  offset="0.5467" style="stop-color:#676D8A"/>
	<stop  offset="0.7596" style="stop-color:#7685AC"/>
	<stop  offset="1" style="stop-color:#534E5F"/>
</linearGradient>
<path class="st2" d="M135.5,108c-3.1,0,2.3,7.2,2.1,8.5c-2.4,17.8,2.8,21.7,2.7,22.7c-2.2,16,4,20.3,3.8,22.2
	c-1.6,13.8,5.1,18.5,5.1,21.1c0.2,13.5,8.4,17.1,8.7,20.9c0.3,4.7,3.5,9.8,4.9,11.1c4.9,4.9,71.3,6.1,75.8,1.7
	c2.9-2.9,4.7-4.1,5.5-12.8c0.2-2.2,7.9-6.9,6.2-17.1c-0.4-2.7,8-7.8,6.4-23.1c-0.2-2.2,6.2-6.2,3.8-22.9c-0.3-2,5.3-11.5,2-23.3
	c-0.9-3.3,5.3-9.3-0.2-9.3C239.1,107.6,146.2,108,135.5,108z"/>
</svg>
