<?xml version="1.0" encoding="utf-8"?>
<!-- Generator: Adobe Illustrator 21.1.0, SVG Export Plug-In . SVG Version: 6.00 Build 0)  -->
<svg version="1.1" id="Layer_1" xmlns="http://www.w3.org/2000/svg" xmlns:xlink="http://www.w3.org/1999/xlink" x="0px" y="0px"
	 viewBox="0 0 184 274.8" style="enable-background:new 0 0 184 274.8;" xml:space="preserve">
<style type="text/css">
	.st0{fill:#7F5056;}
	.st1{fill:#9F6166;}
	.st2{fill:#B57D86;}
	.st3{fill:#4A1B25;}
	.st4{opacity:0.42;enable-background:new    ;}
	.st5{fill:#CCAAA2;}
	.st6{fill:#915960;}
	.st7{opacity:6.000000e-02;fill:#FFFFFF;enable-background:new    ;}
</style>
<path class="st0" d="M85.7,36.3c-6,0.4-11.7,1.3-11.7,1.3C62.1,35.8,55.1,38,55.1,38c-11.3-0.5-17.2,1.4-17.2,1.4
	c-8.7,0.7-11.3,2.1-11.3,5.4c0,6.2,5.3,37.2,65,37.3c52.3,0.1,53.3-31.1,53.3-37.7c0-3.3-2.2-3.8-10.9-4.5c0,0-7.6-3.3-19.2-2.3
	c0,0-6.7-1.8-18.6,0c0,0-3.4-0.9-9.4-1.3C86.8,36.3,85.7,36.3,85.7,36.3z"/>
<g>
	<path class="st1" d="M135.9,39.8c-1.2,0-2.4-0.2-3.3-0.7c-0.3,5.9-1.3,14.6-3.7,27.3c-4.3,22.8-10.7,50.8-12,66.2
		c-1.8,22.2,1.6,70.7-1.5,83.9c0,0,5.9-0.1,6.9-11.1c0.5-5.5,0.8-10.5,1.1-15.6c0.5-11,0.7-21.9,1.6-37.7c0.3-5.5,0.7-11.6,1.3-18.5
		c0.8-10.3,2.8-21,5.1-31.7l0,0c2.1-9.9,4.6-19.8,6.9-29.5c2.4-10.1,4.4-20.4,5.7-30.1c-1.6-0.5-3.1-1.2-4.5-2
		C138.3,40.3,137.1,40.1,135.9,39.8z"/>
	<path class="st1" d="M131.9,38.8C131.9,38.8,131.9,38.7,131.9,38.8c-0.6-0.2-1.1-0.3-1.7-0.4c-0.2,0-0.4,0-0.6-0.1
		c-0.5,0-0.9-0.1-1.4-0.3c-0.4-0.1-0.8-0.2-1.2-0.4c-0.8-0.1-1.6-0.2-2.5-0.3c-0.2,0-0.4-0.1-0.5-0.1c-0.5,0-1-0.1-1.5-0.2
		c-0.3,0.1-0.6,0.1-1,0.2c-0.9,0.1-1.6,0-2.5,0c-0.3,0-0.6-0.1-0.8-0.1c-0.8,0.1-1.6,0.2-2.5,0.2c0.3,5.8,0.6,14.7,0.2,18.1
		c-4.1,36.6-9.5,78-10.5,112.1c-0.8,28.6,0.3,49.8-1.4,52.5c0,0,7.3,3.6,11.3-3.4c0,0,3-2.8,1.2-48C115.2,131,131.4,69,132.7,39.2
		C132.4,39.1,132.2,38.9,131.9,38.8z"/>
	<path class="st1" d="M115.5,37.2c-2.8,0-5.6-0.4-8.1-1.2c-1.1,0-2.3,0-3.4-0.1c-2.8,1-5.7,1.5-8.7,1.6c-0.1,4.5-0.1,12-0.3,21.4
		c-0.7,50.3-2.3,155.8-5.1,162.5c0,0,7.2,5.8,14.3-1.5c0,0,3-7.2,2.3-34.8c-0.5-20.4,0.7-43.9,3.8-70.3c4.4-37.6,7.5-59.2,5.9-77.7
		C116,37.2,115.7,37.2,115.5,37.2z"/>
	<path class="st1" d="M84.2,36.3C84,98.9,84,160.9,84,224.3"/>
	<path class="st1" d="M54.6,132.7c-1.3-15.4-7.6-43.4-12-66.2c-2.5-13-3.4-21.9-3.7-27.7c-0.2,0-0.4,0.1-0.6,0.1
		c-0.2,0-0.5,0.1-0.8,0.1c-0.1,0-0.2,0-0.4,0c-0.1,0-0.2,0-0.3,0s-0.1,0-0.2,0c-0.5,0.1-1.1,0.2-1.6,0.2c-1,0-1.1,0-0.3,0
		c-0.5,0.2-1,0.4-1.6,0.6c-0.7,0.2-1.4,0.4-2.1,0.6c-0.4,0.3-0.8,0.6-1.2,0.9c-0.2,0.1-0.4,0.3-0.6,0.4c-0.2,0.1-0.4,0.3-0.7,0.4
		c-0.3,0.6-0.6,1.1-1,1.6c1.3,9.3,3.2,19.2,5.5,28.9s4.7,19.6,6.9,29.5l0,0c2.3,10.7,4.2,21.4,5.1,31.7c0.6,6.9,1,13,1.3,18.5
		c0.9,15.7,1.1,26.7,1.6,37.7c0.2,5,0.6,10.1,1.1,15.6c1,11,6.9,11.1,6.9,11.1C53,203.4,56.4,154.9,54.6,132.7z"/>
	<path class="st1" d="M66,167.4c-1-34.1-6.4-75.5-10.5-112.1c-0.4-3.5-0.1-12.3,0.2-18.1c-1.3,0.2-2.7,0.3-4,0.3
		c-0.7,0-1.4,0-2.2-0.1c-0.6,0.1-1.1,0.2-1.7,0.1c-0.6-0.1-1.2-0.2-1.8-0.3c-0.1,0-0.2,0-0.2,0s0,0-0.1,0c-0.6,0.1-1.3,0.2-2,0.2
		c-1.2,0.4-2.3,0.7-3.5,0.9c-0.2,0.1-0.5,0.1-0.7,0.2c-0.2,0-0.5,0.1-0.7,0.1l0,0c1.2,29.6,17.5,92,16.1,129.7
		c-1.7,45.2,1.2,48,1.2,48c4,7,11.3,3.4,11.3,3.4C65.7,217.3,66.8,196,66,167.4z"/>
	<path class="st1" d="M76.5,59c-0.1-9.6-0.2-17.2-0.3-21.7c-3.4,0.6-6.6-1-10.3-0.8c-0.1,0-0.2,0-0.3-0.1c-0.7,0.2-1.5,0.3-2.3,0.3
		c-1.2,0-2.3-0.2-3.2-0.6c-1.6,0.5-3.2,0.9-4.9,1.1c-1.6,18.4,1.5,40,5.9,77.5c3.1,26.5,4.3,50,3.8,70.3
		c-0.7,27.6,2.3,34.8,2.3,34.8c7.1,7.3,14.3,1.5,14.3,1.5C78.9,214.8,77.2,109.3,76.5,59z"/>
	<path class="st1" d="M94.5,37.6c-2.6-0.3-5.1-0.7-7.7-1c-0.9-0.2-1.8-0.5-2.7-0.8c-2.1,0.8-4.3,1.3-6.6,1.4
		c-0.8,0.2-1.6,0.3-2.4,0.4c-1.9,10.9-1.4,29.2-0.3,51.3c1.7,34.1,4.3,56.4,3.5,90.9c-0.6,28.8,0.6,41.7,0.6,41.7
		c2.3,3.2,5.4,3.1,7.3,3.2c2,0.1,4.7,0.1,6.8-2.9c0,0,0.9-13.2,0.2-42c-0.8-34.6,1.8-56.9,3.5-90.9c1.1-22,1.6-40.3-0.3-51.2
		C95.8,37.6,95.2,37.6,94.5,37.6z"/>
</g>
<g>
	<g>
		<path class="st2" d="M39.7,42.7c2.7,13.4,5.3,26.7,7.6,40.2c1.2,6.7,2.2,13.5,3.2,20.2c0.9,6.7,1.9,13.5,2.4,20.4
			c0.5,6.8,0.8,13.7,0.9,20.5c0.1,6.8,0.2,13.6,0.2,20.5c0,13.6,0,27.2,0.7,40.8c-1-6.7-1.5-13.6-2.1-20.4c-0.4-6.8-0.7-13.6-1-20.4
			c-0.5-13.6-0.7-27.2-1.8-40.7c-0.4-6.7-1.4-13.5-2.2-20.2C46.8,96.7,45.9,90,45,83.2C43.1,69.8,41.3,56.3,39.7,42.7z"/>
	</g>
	<g>
		<path class="st2" d="M53.7,39.8c1.3,14.1,3.7,28,6.1,42c1.2,7,2.3,14,3.2,21c0.9,7.1,1.6,14.2,2,21.3s0.6,14.2,0.7,21.3
			c0,7.1,0,14.2-0.2,21.3c-0.4,14.2-0.7,28.2,0.4,42.4c-2.8-13.9-3.3-28.3-3.5-42.4c-0.2-7.1-0.2-14.1-0.5-21.2
			c-0.2-7.1-0.5-14.1-0.9-21.1c-0.7-14.1-2.6-28-4.3-42.1C54.9,68.2,53.3,54,53.7,39.8z"/>
	</g>
	<g>
		<path class="st2" d="M131.3,40.4c-1.6,13.8-3.4,27.5-5.3,41.2c-0.9,6.9-2.1,13.7-2.9,20.6s-1.5,13.7-2.1,20.6
			c-0.6,6.9-1,13.8-1.4,20.7s-0.6,13.8-0.9,20.7l-0.6,20.8l-0.3,10.4l-0.1,2.6c0,0.9-0.2,1.8-0.4,2.6c-0.5,1.7-1.1,3.3-1.9,4.9
			c0.6-1.6,1.1-3.3,1.4-5c0.2-0.8,0.3-1.7,0.2-2.5l-0.1-2.6l-0.3-10.4c-0.2-6.9-0.3-13.9-0.2-20.8c0-13.9,0.5-27.8,1.6-41.6
			c0.6-6.9,1.3-13.8,2.3-20.7l0.8-5.2l0.9-5.1l1.8-10.2C126,67.6,128.6,54,131.3,40.4z"/>
	</g>
	<g>
		<path class="st2" d="M116.6,40.1c0.6,3.2,0.4,6.5,0.2,9.7c-0.2,3.2-0.6,6.4-0.5,9.5v0.1v0.1c-1.5,12.5-3.3,24.9-4.9,37.3
			c-0.4,3.1-0.8,6.2-1.1,9.3c-0.4,3.1-0.7,6.2-1,9.3c-0.2,3.1-0.5,6.2-0.6,9.3c-0.2,3.1-0.3,6.2-0.4,9.3c-0.1,3.1-0.2,6.2-0.2,9.4
			l-0.1,9.4c0,6.3-0.1,12.5-0.2,18.8c-0.3,12.6-1.1,25.2-3.5,37.6c0.9-12.5,0.9-25,0.6-37.6l-0.4-18.8c-0.1-6.3-0.2-12.6,0-18.9
			c0.1-3.2,0.2-6.3,0.4-9.5c0.2-3.2,0.5-6.3,0.7-9.5c0.4-3.1,0.7-6.3,1.1-9.4s0.9-6.2,1.4-9.3c1.9-12.4,4.2-24.8,6.6-37.1v0.1
			c0.1-3.3,0.8-6.5,1.3-9.6C116.3,46.5,116.8,43.3,116.6,40.1z"/>
	</g>
	<g>
		<path class="st2" d="M74,39.5c1.6,14.2,2.7,28.4,3.6,42.6c0.5,7.1,0.8,14.2,1.2,21.3c0.3,7.1,0.6,14.2,0.9,21.3
			c0.2,7.1,0.4,14.2,0.5,21.3s0.2,14.2,0.2,21.4c0,14.2-0.3,28.5-1,42.7c-0.9-14.2-1.5-28.4-2.1-42.7c-0.2-3.6-0.3-7.1-0.4-10.7
			L76.5,146l-0.7-21.3L75,103.5c-0.2-7.1-0.4-14.2-0.5-21.3C74.2,67.9,73.9,53.7,74,39.5z"/>
	</g>
	<g>
		<path class="st2" d="M96.2,40.7C96.8,54.8,96.9,69,97,83.1c0,7.1-0.1,14.1-0.1,21.2l-0.4,21.2l-0.8,21.2
			c-0.4,7.1-0.6,14.1-1.1,21.2c-0.9,14.1-2,28.2-3.6,42.3c0-14.1,0.2-28.3,0.5-42.4c0.1-3.5,0.1-7.1,0.2-10.6l0.2-10.6l0.5-21.2
			l0.7-21.2c0.3-7.1,0.5-14.1,0.8-21.2C94.4,68.9,95.1,54.8,96.2,40.7z"/>
	</g>
	<g>
		<path class="st3" d="M39.4,42.7l3.4,20.1c1.1,6.7,2.1,13.4,3.1,20.1c1.9,13.4,3.6,26.9,5,40.4c1.3,13.5,2.3,27.1,2.7,40.6
			c0.3,6.8,0.2,13.6,0.2,20.4c0,1.7,0,3.4,0,5.1c0,1.7-0.1,3.4-0.1,5.1c0,3.4,0.4,6.8,1.5,10c-1.2-3.2-1.7-6.6-1.8-10
			c-0.1-1.7-0.1-3.4-0.1-5.1c0-1.7-0.1-3.4-0.1-5.1c-0.2-6.8-0.2-13.6-0.5-20.3c-0.6-13.5-1.6-27.1-3-40.6c-1.3-13.5-3-27-4.8-40.4
			c-0.9-6.7-1.8-13.4-2.8-20.2L39.4,42.7z"/>
	</g>
	<g>
		<path class="st3" d="M54.2,39.4c0.9,14.1,3.1,28.1,5.3,42.1c1.1,7,2.1,14,2.9,21c0.8,7,1.4,14.1,1.8,21.2
			c0.8,14.1,1.2,28.3,1.2,42.5c0,7.1-0.1,14.1-0.2,21.2l-0.1,5.3c0,1.8-0.2,3.5-0.2,5.3c-0.1,1.8,0,3.5,0.2,5.3
			c0.2,1.7,0.6,3.5,1.5,5c-1-1.5-1.5-3.2-1.7-5c-0.3-1.8-0.3-3.5-0.3-5.3s0.1-3.5,0-5.3l-0.1-5.3c-0.1-7.1-0.1-14.1-0.3-21.2
			c-0.2-14.1-0.6-28.3-1.5-42.4c-0.4-7.1-1-14.1-1.7-21.1s-1.7-14-2.7-21s-1.9-14-2.7-21.1C54.9,53.6,54.3,46.5,54.2,39.4z"/>
	</g>
	<g>
		<path class="st3" d="M131.9,40.5c-0.4,6.9-1.1,13.7-2.1,20.5s-2.2,13.6-3.4,20.4c-1.2,6.8-2.4,13.5-3.4,20.3
			c-1,6.8-1.7,13.6-2.3,20.5c-1.1,13.7-1.5,27.5-2,41.2c-0.3,6.9-0.6,13.8-1,20.6c-0.4,6.9-1,13.7-1.6,20.6
			c0.5-6.9,0.8-13.7,1.1-20.6c0.3-6.9,0.5-13.7,0.8-20.6c0.4-13.8,0.8-27.5,1.8-41.3c0.6-6.9,1.3-13.7,2.4-20.5
			c1-6.8,2.3-13.6,3.6-20.3c1.3-6.8,2.6-13.5,3.7-20.3C130.5,54.2,131.4,47.4,131.9,40.5z"/>
	</g>
	<g>
		<path class="st3" d="M117.1,40.1c-0.2,7-0.9,14.1-1.7,21.1c-0.8,7-1.8,14-2.8,20.9c-0.9,7-1.9,13.9-2.5,20.9c-0.7,7-1.2,14-1.6,21
			c-1,14-1.4,28.1-1.7,42.2c-0.1,7-0.2,14.1-0.5,21.1s-0.7,14.1-1.6,21.1c0.5-7,0.8-14.1,0.8-21.1c0.1-7,0.1-14.1,0.1-21.1
			c0-14.1,0.5-28.2,1.4-42.2c0.5-7,1-14.1,1.7-21.1s1.7-14,2.8-21c1.1-7,2.2-13.9,3.2-20.9C115.8,54.1,116.6,47.1,117.1,40.1z"/>
	</g>
	<g>
		<path class="st3" d="M74.6,39.7c0.4,7.1,0.7,14.1,1.2,21.2c0.4,7.1,0.9,14.1,1.4,21.2c1,14.1,1.9,28.3,2.1,42.4
			c0.2,14.2,0.2,28.3,0.1,42.5c0,7.1,0,14.1,0.1,21.2c0,7.1,0.2,14.1,0.4,21.2c-0.6-7.1-1-14.1-1.4-21.2c-0.3-7.1-0.5-14.2-0.7-21.2
			c-0.3-14.2-0.3-28.3-0.6-42.4c-0.1-14.1-1-28.2-1.6-42.4C75.4,75,75,68,74.8,60.9C74.6,53.8,74.5,46.7,74.6,39.7z"/>
	</g>
	<g>
		<path class="st3" d="M96.8,40.9c0,3.5-0.1,7-0.2,10.5V62l-0.1,10.5V83l-0.1,42.1c-0.2,14.1-0.4,28.1-1.2,42.2l-0.6,10.5l-0.8,10.5
			l-1,10.5c-0.4,3.5-0.8,7-1.2,10.5c0.2-3.5,0.4-7,0.7-10.5l0.6-10.5l0.5-10.5l0.3-10.5c0.4-14,0.6-28.1,0.7-42.1
			c0.2-14,0.3-28.1,0.6-42.1l0.3-10.5L95.6,62l0.5-10.5C96.3,47.9,96.6,44.4,96.8,40.9z"/>
	</g>
</g>
<path class="st4" d="M85.7,36.3c-6,0.4-11.7,1.3-11.7,1.3C62.1,35.8,55.1,38,55.1,38c-11.3-0.5-17.2,1.4-17.2,1.4
	c-8.7,0.7-11.3,2.1-11.3,5.4c0,6.2,4.4,33,56,33c59.5,0,62.3-26.9,62.3-33.4c0-3.3-2.2-4.1-10.9-4.7c0,0-7.6-3.1-19.2-2
	c0,0-6.7-1.8-18.6,0c0,0-3.4-0.9-9.4-1.3h-1.1C85.7,36.4,85.7,36.3,85.7,36.3z"/>
<path class="st5" d="M53.4,232.2c0,0-0.7,3.2,0,7.2c0.1,0.8,5.9,13.9,34.9,13.9c28.3,0,32.3-12.4,32.4-13.9c0.3-3.1,0-7.2,0-7.2
	H53.4z"/>
<path class="st6" d="M53.4,232.9c0,0-0.7,2.9,0,6.5c0.1,0.7,5.9,12.5,34.9,12.5c28.3,0,32.3-11.2,32.4-12.5c0.3-2.8,0-6.5,0-6.5
	H53.4z"/>
<path id="path10" class="st7" d="M53.6,233.2c0,0-0.7,2.9,0,6.5c0.1,0.7,5.9,12.5,34.9,12.5c28.3,0,32.3-11.2,32.4-12.5
	c0.3-2.8,0-6.5,0-6.5H53.6z"/>
<path id="bund_1_" class="st1" d="M126.6,211.5c-0.2,5-0.6,10.1-1.1,15.6c-1,11-6.9,11.1-6.9,11.1c-4,7-11.3,3.4-11.3,3.4
	c-7.1,7.3-14.3,1.5-14.3,1.5c-2.4,3.3-5.9,2.8-5.9,2.8s-3.9,0.4-6.1-2.8c0,0-7.2,5.8-14.3-1.5c0,0-7.2,3.6-11.2-3.4
	c0,0-5.9-0.1-6.9-11.1c-0.5-5.6-0.8-10.8-1.1-15.9c0,0,17.8,9.9,39.4,9.9C108.5,221,126.6,211.5,126.6,211.5z"/>
<path id="nr2" class="st1" d="M39.5,123.1c2.4,10.8,4.3,21.7,5.2,32.2c0.5,5.7,1,13.8,1.3,18.5c0,0,18.2,10.2,41,10.2
	c22.5,0,41.2-10.2,41.2-10.2c0.3-5.5,0.7-11.6,1.3-18.5c0.8-10.3,2.8-21,5.1-31.7c0,0-17.6,10.4-47.6,10.4S39.5,123.1,39.5,123.1z"
	/>
<path id="nr3" class="st1" d="M46,173.8c1.1,17.2,1.1,25.8,1.6,37.3c0,0,17.2,9.9,39.4,9.9c20.9,0,39.6-9.5,39.6-9.5
	c0.5-11,0.7-21.9,1.6-37.7c0,0-19.2,10.2-41.2,10.2C63.6,184,46,173.8,46,173.8z"/>
<path id="top" class="st1" d="M39.5,123.2c-2.1-9.5-4.4-18.9-6.6-28.2c-4.1-17.4-6.7-37.2-6.4-51.8c0,0,1.1,6,12.9,6
	c0,0,4.4,3.8,15.3,4.3c0,0,8.8,2.6,20.9,0.8c0,0,4.8,0.7,10.9,1.1h0.8c6.1-0.4,10.9-1.1,10.9-1.1c12.1,2.1,18.6-1.5,18.6-1.5
	c11.8,0.1,15.6-3.6,15.6-3.6c12.1-1.8,13.3-6.5,13.3-6.5c0.3,14.3-0.4,34.3-4.4,51.4c-2.3,9.7-4.7,19.6-6.9,29.5
	c0,0-13.1,10.2-48.7,10.2C51.5,133.8,39.5,123.2,39.5,123.2z"/>
<g>
	<path class="st2" d="M37.3,51.7c0.3,7.9,1.2,15.6,2.5,23.4c1.2,7.7,2.6,15.5,4,23.2s2.8,15.5,4.1,23.2c0.6,3.9,1.2,7.8,1.8,11.7
		l0.8,5.8l0.7,5.9c1.9,15.6,3.1,31.4,3.1,47.1c0.1,7.9-0.1,15.7-0.3,23.6c-0.1,3.9-0.2,7.8-0.2,11.8c0,2,0,3.9,0.1,5.9
		c0.1,1,0.1,2,0.2,2.9c0.1,1,0.3,1.9,0.8,2.8c-0.6-0.8-0.8-1.8-1-2.8s-0.3-1.9-0.5-2.9c-0.2-2-0.4-3.9-0.5-5.9
		c-0.2-3.9-0.3-7.9-0.5-11.8c-0.2-7.9-0.3-15.7-0.6-23.5c-0.1-3.9-0.3-7.8-0.5-11.7s-0.6-7.8-0.8-11.7c-0.3-3.9-0.7-7.8-1.1-11.7
		c-0.4-3.9-0.8-7.8-1.3-11.7c-1.8-15.6-4.4-31-6.8-46.6c-1.2-7.8-2.3-15.6-3.1-23.4C37.6,67.4,37,59.6,37.3,51.7z"/>
</g>
<g>
	<path class="st2" d="M54.2,54.3c-0.2,7.9,0.1,15.8,1,23.6c0.8,7.8,2.1,15.6,3.3,23.3c1.3,7.8,2.5,15.6,3.7,23.4
		c1.1,7.8,1.9,15.7,2.7,23.6c0.6,7.9,1.1,15.8,1.4,23.7c0.2,7.9,0.3,15.8,0.2,23.7c-0.1,7.9-0.4,15.8-0.6,23.7
		c-0.1,3.9-0.3,7.9-0.3,11.8c0,2,0,3.9,0.1,5.9c0,1,0.1,2,0.2,2.9c0.2,1,0.3,2,0.8,2.8c-0.6-0.8-0.9-1.8-1.1-2.7
		c-0.2-1-0.4-1.9-0.5-2.9c-0.3-2-0.4-3.9-0.6-5.9c-0.3-4-0.4-7.9-0.5-11.9l-0.6-23.7c-0.4-15.8-1.1-31.5-2.5-47.1
		c-1.3-15.7-3.4-31.2-5.4-46.9c-1-7.8-1.9-15.7-2.2-23.7C52.9,70,53.1,62.1,54.2,54.3z"/>
</g>
<g>
	<path class="st2" d="M135.5,51.9c0.3,7.9-0.3,15.7-1,23.6c-0.8,7.8-1.9,15.6-3.1,23.4c-2.4,15.5-4.9,31-6.8,46.6
		c-0.5,3.9-0.9,7.8-1.3,11.7s-0.7,7.8-1.1,11.7c-0.3,3.9-0.6,7.8-0.8,11.7c-0.2,3.9-0.4,7.8-0.5,11.7c-0.3,7.8-0.4,15.7-0.6,23.5
		c-0.1,3.9-0.2,7.9-0.5,11.8c-0.1,2-0.2,3.9-0.5,5.9c-0.1,1-0.3,2-0.5,2.9c-0.2,1-0.4,1.9-1,2.8c0.5-0.9,0.6-1.8,0.8-2.8
		c0.1-1,0.2-1.9,0.2-2.9c0.1-2,0.1-3.9,0.1-5.9c0-3.9-0.1-7.8-0.2-11.8c-0.2-7.8-0.3-15.7-0.3-23.6c0-15.8,1.2-31.5,3.1-47.1
		l0.7-5.9l0.8-5.8c0.5-3.9,1.2-7.8,1.8-11.7c1.3-7.8,2.6-15.5,4.1-23.2c1.4-7.7,2.8-15.4,4-23.2C134.2,67.5,135.1,59.7,135.5,51.9z"
		/>
</g>
<g>
	<path class="st2" d="M118.6,54.3c1.1,7.8,1.3,15.8,1,23.7s-1.2,15.8-2.2,23.7c-2,15.7-4.1,31.2-5.4,46.9
		c-1.4,15.7-2.1,31.4-2.5,47.1l-0.6,23.7c-0.1,3.9-0.3,7.9-0.5,11.9c-0.1,2-0.3,4-0.6,5.9c-0.1,1-0.3,2-0.5,2.9
		c-0.3,1-0.5,2-1.1,2.7c0.5-0.8,0.7-1.8,0.8-2.8c0.1-1,0.2-2,0.2-2.9c0.1-2,0.1-3.9,0.1-5.9c-0.1-3.9-0.2-7.9-0.3-11.8
		c-0.2-7.9-0.5-15.8-0.6-23.7s0-15.8,0.2-23.7c0.3-7.9,0.8-15.8,1.4-23.7c0.8-7.9,1.6-15.8,2.7-23.6s2.3-15.6,3.7-23.4
		c1.3-7.8,2.5-15.5,3.3-23.3C118.5,70.1,118.8,62.2,118.6,54.3z"/>
</g>
<g>
	<path class="st2" d="M75.1,55c0,7.9,0.4,15.7,0.9,23.6s1.1,15.7,1.7,23.5s1.1,15.7,1.7,23.6c0.5,7.9,0.9,15.7,1.3,23.6
		c0.3,7.9,0.5,15.8,0.6,23.7c0,7.9,0.1,15.8-0.1,23.7c-0.1,7.9-0.3,15.8-0.5,23.6l-0.4,11.8c-0.1,2-0.1,3.9-0.1,5.9c0,1,0,2,0,3
		c0,0.5,0,1,0,1.5c0,0.2,0,0.5,0.1,0.7c0,0.2,0,0.5,0.2,0.7c-0.2-0.2-0.2-0.4-0.3-0.7c-0.1-0.2-0.1-0.5-0.1-0.7
		c-0.1-0.5-0.1-1-0.2-1.5c-0.1-1-0.2-2-0.3-3c-0.1-2-0.3-3.9-0.4-5.9c-0.2-3.9-0.3-7.9-0.5-11.8c-0.2-7.9-0.5-15.7-0.6-23.6
		l-0.6-23.6c-0.2-7.9-0.4-15.7-0.8-23.6c-0.3-7.9-0.7-15.7-1.1-23.6c-0.3-7.9-0.8-15.7-1-23.6c-0.3-7.9-0.5-15.8-0.5-23.7
		C74.1,70.8,74.2,62.8,75.1,55z"/>
</g>
<g>
	<path class="st2" d="M97.8,55c1.4,15.7,1.2,31.6,0.9,47.3l-0.5,23.6c-0.2,7.9-0.4,15.7-0.4,23.6c-0.1,7.8-0.1,15.7-0.2,23.6
		c-0.2,7.9-0.4,15.8-0.7,23.6c-0.3,7.9-0.8,15.8-1.3,23.6c-0.3,3.9-0.6,7.9-1,11.8c-0.2,2-0.4,3.9-0.7,5.9c-0.1,1-0.3,2-0.5,2.9
		c-0.1,0.5-0.2,1-0.3,1.5c-0.1,0.5-0.2,1-0.6,1.4c0.3-0.4,0.3-0.9,0.4-1.4s0.1-1,0.2-1.5c0.1-1,0.1-2,0.2-2.9c0.1-2,0.2-3.9,0.2-5.9
		c0.1-3.9,0.2-7.9,0.2-11.8c0.1-7.9,0.1-15.7,0.2-23.6l0.1-47.2c0.1-7.9,0.3-15.8,0.6-23.7c0.3-7.9,0.7-15.8,1.2-23.6
		C96.5,86.5,97.6,70.8,97.8,55z"/>
</g>
<g>
	<path class="st3" d="M38,50.9c0.1,7.9,0.9,15.7,2,23.4c1.1,7.8,2.3,15.5,3.7,23.3c2.7,15.5,5.3,31,7.2,46.6
		c0.5,3.9,0.9,7.8,1.3,11.7c0.4,3.9,0.7,7.8,1,11.7c0.2,3.9,0.5,7.8,0.7,11.8c0.2,3.9,0.3,7.9,0.3,11.8c0.1,7.9,0.1,15.7,0,23.6
		c0,3.9-0.1,7.9,0,11.8c0,2,0.1,3.9,0.2,5.9c0.1,1,0.2,2,0.3,2.9c0.2,1,0.3,1.9,0.9,2.8c-0.5-0.8-0.7-1.8-0.9-2.8s-0.3-1.9-0.4-2.9
		c-0.2-2-0.3-3.9-0.4-5.9c-0.1-3.9-0.2-7.9-0.2-11.8c-0.1-7.9-0.1-15.7-0.3-23.5c-0.4-15.7-1.6-31.3-3.6-46.9
		c-0.9-7.8-2.1-15.6-3.2-23.3l-3.8-23.3C40.4,82.3,37.9,66.7,38,50.9z"/>
</g>
<g>
	<path class="st3" d="M54.8,53.5c-1.1,15.8,0.9,31.5,3.3,47.1c1.2,7.8,2.4,15.6,3.4,23.4c1.1,7.8,1.9,15.7,2.6,23.6
		c0.6,7.9,1.1,15.8,1.4,23.7s0.5,15.8,0.4,23.7c0,7.9-0.1,15.8-0.2,23.7c-0.1,3.9-0.1,7.9-0.1,11.8c0,2,0.1,3.9,0.2,5.9
		c0.1,1,0.2,2,0.3,2.9c0.2,1,0.4,2,0.9,2.8c-0.6-0.8-0.8-1.8-1-2.7c-0.2-1-0.3-2-0.4-2.9c-0.2-2-0.3-3.9-0.4-5.9
		c-0.2-3.9-0.2-7.9-0.3-11.8c-0.1-7.9-0.1-15.8-0.2-23.7s-0.3-15.8-0.6-23.6c-0.4-7.9-0.9-15.7-1.6-23.6c-0.7-7.8-1.5-15.7-2.5-23.5
		s-2.2-15.6-3.2-23.4C56,92.9,55,85.1,54.5,77.2S54,61.4,54.8,53.5z"/>
</g>
<g>
	<path class="st3" d="M136.1,51.1c0.1,15.7-2.5,31.3-4.9,46.8l-3.8,23.3c-1.2,7.8-2.3,15.5-3.2,23.3c-1.9,15.6-3.2,31.2-3.6,46.9
		c-0.2,7.8-0.2,15.7-0.3,23.5c0,3.9-0.1,7.9-0.2,11.8c-0.1,2-0.2,3.9-0.4,5.9c-0.1,1-0.2,2-0.4,2.9c-0.2,1-0.4,1.9-0.9,2.8
		c0.5-0.8,0.7-1.8,0.9-2.8c0.2-1,0.2-1.9,0.3-2.9c0.1-2,0.2-3.9,0.2-5.9c0.1-3.9,0-7.8,0-11.8c0-7.9-0.1-15.7,0-23.6
		c0.1-3.9,0.2-7.9,0.3-11.8c0.2-3.9,0.5-7.8,0.7-11.8c0.3-3.9,0.6-7.8,1-11.7s0.8-7.8,1.3-11.7c1.9-15.6,4.5-31.1,7.2-46.6
		c1.3-7.7,2.6-15.5,3.7-23.3C135.2,66.8,136,59,136.1,51.1z"/>
</g>
<g>
	<path class="st3" d="M119.3,53.6c0.8,7.9,0.8,15.8,0.4,23.7c-0.5,7.9-1.5,15.7-2.6,23.6c-1,7.8-2.2,15.6-3.2,23.4
		s-1.8,15.7-2.5,23.5c-0.7,7.9-1.2,15.7-1.6,23.6c-0.4,7.9-0.5,15.8-0.6,23.6c-0.1,7.9-0.1,15.8-0.2,23.7c-0.1,3.9-0.1,7.9-0.3,11.8
		c-0.1,2-0.2,3.9-0.4,5.9c-0.1,1-0.3,2-0.4,2.9c-0.2,1-0.4,2-1,2.7c0.6-0.8,0.7-1.8,0.9-2.8c0.1-1,0.3-2,0.3-2.9
		c0.1-2,0.2-3.9,0.2-5.9c0.1-3.9,0-7.9-0.1-11.8c-0.1-7.9-0.2-15.8-0.2-23.7s0.1-15.8,0.4-23.7s0.8-15.8,1.4-23.7
		c0.7-7.9,1.6-15.7,2.6-23.6c1.1-7.8,2.2-15.6,3.4-23.4C118.4,85.1,120.3,69.4,119.3,53.6z"/>
</g>
<g>
	<path class="st3" d="M75.8,54.3c-0.2,7.9,0,15.7,0.4,23.6c0.3,7.9,0.8,15.7,1.4,23.6c1,15.7,2,31.4,2.8,47.2
		c0.3,7.9,0.5,15.8,0.6,23.6c0.1,7.9,0.2,15.8,0.1,23.6l-0.2,23.6l-0.2,11.8c0,2,0,3.9,0,5.9c0,1,0,2,0.1,3c0,0.5,0,1,0.1,1.5
		c0,0.2,0,0.5,0.1,0.7s0.1,0.5,0.2,0.7c-0.2-0.2-0.2-0.4-0.3-0.7c-0.1-0.2-0.1-0.5-0.1-0.7c-0.1-0.5-0.1-1-0.2-1.5
		c-0.1-1-0.2-2-0.2-3c-0.1-2-0.2-3.9-0.2-5.9l-0.3-11.8l-0.3-23.6c-0.3-15.7-0.4-31.5-1.2-47.2c-0.3-7.9-0.7-15.7-1.1-23.6
		s-0.9-15.7-1.2-23.6C75.3,85.8,74.6,70,75.8,54.3z"/>
</g>
<g>
	<path class="st3" d="M98.5,54.3C99,62.1,99,70,99.1,77.9c-0.1,7.9-0.3,15.8-0.5,23.6c-0.4,15.7-1,31.5-1.1,47.2s-0.2,31.5-0.7,47.3
		c-0.3,7.9-0.6,15.8-1,23.6c-0.2,3.9-0.5,7.9-0.8,11.8c-0.2,2-0.3,3.9-0.6,5.9c-0.1,1-0.2,2-0.4,2.9c-0.1,0.5-0.2,1-0.3,1.5
		c-0.1,0.5-0.2,1-0.5,1.4c0.3-0.4,0.3-0.9,0.5-1.4c0.1-0.5,0.1-1,0.2-1.5c0.1-1,0.2-2,0.3-2.9c0.1-2,0.3-3.9,0.3-5.9
		c0.2-3.9,0.3-7.9,0.4-11.8c0.2-7.9,0.4-15.7,0.5-23.6l0.2-23.6v-23.6c0.2-15.8,0.8-31.5,1.6-47.3c0.4-7.9,0.7-15.7,1-23.6
		C98.4,70,98.5,62.1,98.5,54.3z"/>
</g>
<g>
	<path class="st5" d="M38,38.9c-2.2,0.4-4.3,0.9-6.3,1.8c-0.9,0.4-1.9,0.9-2.6,1.6c-0.3,0.3-0.6,0.7-0.7,1s-0.1,0.5,0.1,0.7
		c0,0.1,0.1,0.1,0.1,0.2c0.1,0.1,0.2,0.2,0.3,0.3c0.2,0.2,0.4,0.4,0.6,0.6c0.4,0.4,0.8,0.7,1.2,1c0.8,0.6,1.7,1.1,2.6,1.6
		c1.9,0.9,4.1,1.3,6.3,1.7c-2.2,0.4-4.5,0.4-6.8-0.2c-1.1-0.3-2.2-0.9-3.2-1.5c-0.5-0.3-1-0.7-1.4-1.1c-0.2-0.2-0.4-0.4-0.6-0.6
		c-0.1-0.1-0.2-0.2-0.3-0.3c-0.1-0.1-0.3-0.3-0.4-0.5c-0.2-0.4-0.4-0.8-0.4-1.2c0-0.5,0.1-0.9,0.2-1.2c0.3-0.7,0.8-1.2,1.3-1.6
		c1-0.8,2.1-1.3,3.2-1.6C33.5,38.6,35.8,38.5,38,38.9z"/>
</g>
<g>
	<path class="st5" d="M134.1,39.4c2.3-0.2,4.5,0.1,6.7,0.5c1.1,0.2,2.2,0.5,3.3,1c0.5,0.2,1.2,0.6,1.7,1.4c0.2,0.4,0.3,1,0.2,1.5
		s-0.3,0.8-0.5,1.1c-0.9,1.1-1.9,1.7-3,2.2c-1,0.5-2.1,0.9-3.2,1.2c-2.2,0.6-4.4,1-6.7,0.8c2.2-0.5,4.2-1.2,6.2-2.1
		c1-0.4,1.9-0.9,2.8-1.5c0.9-0.5,1.8-1.2,2.2-1.8c0.1-0.2,0.2-0.3,0.2-0.4c0-0.1,0-0.1,0-0.1c-0.1-0.1-0.4-0.4-0.8-0.6
		c-0.9-0.4-1.9-0.8-2.9-1.1C138.3,40.9,136.2,40.2,134.1,39.4z"/>
</g>
<g>
	<path class="st5" d="M39.4,49.2c1.1,0.7,2.4,1.2,3.7,1.6c1.3,0.4,2.6,0.7,3.9,0.9c1.3,0.2,2.6,0.3,4,0.4c0.7,0,1.3,0,2,0.1h2h0.1
		h0.1c1.6,0.3,3.3,0.5,5,0.7s3.4,0.3,5.1,0.3c1.7,0.1,3.4,0.1,5.1,0s3.4-0.2,5-0.5h0.1h0.1c1.8,0.3,3.6,0.5,5.4,0.6
		c1.8,0.2,3.6,0.2,5.4,0.3c3.6,0.1,7.2-0.1,10.7-0.8h0.2h0.1c3.2,0.3,6.5,0.5,9.8,0.5c1.6,0,3.3-0.1,4.9-0.2
		c1.6-0.2,3.2-0.4,4.7-0.9h0.1h0.1c2.6-0.1,5.3-0.3,8-0.7c1.3-0.2,2.6-0.5,3.9-0.8c1.3-0.4,2.6-0.8,3.7-1.4
		c-1.1,0.8-2.3,1.4-3.6,1.8c-1.3,0.5-2.6,0.8-3.9,1.1c-2.6,0.6-5.3,1-8,1.2h0.2c-1.6,0.7-3.3,1-5,1.2s-3.4,0.3-5,0.4
		c-3.4,0.1-6.7,0-10-0.3h0.3c-3.7,0.8-7.5,1-11.2,1c-1.9,0-3.7-0.2-5.6-0.3c-1.9-0.2-3.7-0.4-5.5-0.7h0.3c-1.7,0.2-3.5,0.3-5.2,0.4
		c-1.7,0-3.5,0-5.2-0.1c-3.5-0.2-6.9-0.7-10.3-1.5H55l-2-0.1c-0.7-0.1-1.4-0.1-2-0.2c-1.4-0.2-2.7-0.4-4-0.7s-2.6-0.7-3.9-1.3
		C41.7,50.7,40.5,50,39.4,49.2z"/>
</g>
<g>
	<path class="st5" d="M134.1,39.4c-1.5-0.5-3.1-0.8-4.6-1c-1.6-0.3-3.1-0.4-4.7-0.5s-3.1-0.1-4.7,0c-1.6,0-3.1,0.2-4.7,0.4h-0.1
		h-0.2c-1.4-0.4-3-0.7-4.6-0.9s-3.1-0.3-4.7-0.2c-1.6,0-3.1,0.1-4.7,0.3s-3.1,0.4-4.6,0.8h-0.2L96,38c-1.7-0.4-3.6-0.7-5.4-0.9
		s-3.7-0.3-5.5-0.3s-3.7,0.1-5.5,0.3s-3.7,0.5-5.4,0.9L74,38.1L73.8,38c-1.5-0.4-3.1-0.7-4.7-0.8C67.6,37.1,66,37,64.4,37
		s-3.2,0.1-4.8,0.3s-3.2,0.5-4.7,0.8h-0.2h-0.1c-2.7-0.4-5.5-0.5-8.3-0.4c-1.4,0.1-2.8,0.2-4.2,0.4s-2.8,0.4-4.1,0.8
		c2.6-1,5.4-1.6,8.2-1.9c2.8-0.4,5.7-0.4,8.5-0.1h-0.3c1.6-0.5,3.2-0.8,4.9-1.1c1.6-0.3,3.3-0.4,4.9-0.5c1.7-0.1,3.3-0.1,5,0.1
		c1.7,0.1,3.3,0.4,5,0.8h-0.5c1.9-0.4,3.7-0.7,5.6-1c1.9-0.2,3.8-0.4,5.7-0.4c1.9,0,3.8,0.1,5.7,0.4c1.9,0.2,3.7,0.5,5.6,1h-0.4
		c1.6-0.3,3.2-0.6,4.8-0.7c1.6-0.2,3.3-0.2,4.9-0.2c1.6,0.1,3.3,0.2,4.9,0.4c1.6,0.3,3.2,0.6,4.8,1.1H115c1.6-0.1,3.2-0.2,4.8-0.1
		c1.6,0,3.2,0.2,4.8,0.4c1.6,0.2,3.2,0.5,4.7,0.9C131.1,38.3,132.6,38.8,134.1,39.4z"/>
</g>
</svg>
